<?xml version="1.0" encoding="UTF-8"?>
<svg id="Layer_1" xmlns="http://www.w3.org/2000/svg" version="1.1" viewBox="0 0 1920 1080">
  <!-- Generator: Adobe Illustrator 29.0.0, SVG Export Plug-In . SVG Version: 2.1.0 Build 186)  -->
  <defs>
    <style>
      .st0 {
        fill: #541c08;
      }

      .st1 {
        fill: #6e2409;
      }

      .st2 {
        fill: #f8994c;
      }

      .st3 {
        fill: #100f0f;
      }
    </style>
  </defs>
  <rect class="st2" x="893.7" y="550.8" width="76.4" height="87.7"/>
  <path class="st0" d="M763,674c.9,6.4,4.1,12.2,7.4,17.8,6,10.1,12.7,20,21.6,27.7,8.1,7,17.8,12.2,25.8,19.2,10.3,8.9,17.6,20.4,23.8,32.1,8,15,14.9,30.5,22.1,45.8,4.5,9.4,9.2,18.8,15.8,27,13.9,17.1,36,27.9,58.8,28.6,22.8.8,45.8-8.4,61-24.4,11.3-12,18.1-27,24.6-41.7,16.2-37,31.7-75.2,59.3-105.6,9.5-10.6,21.1-21.4,21.8-35.2-14.8-1.3-26-14-40.5-16.9-10.3-2-20.9,1.1-30.9,3.9-51,14.6-105.7,24.1-157.7,12.1-17.2-3.9-33.8-10.2-51.3-12.7-19-2.8-65.9-6-61.8,22.3h.3Z"/>
  <path d="M1216.8,724s.4,0,1-.3v.4h-1Z"/>
  <path class="st1" d="M1069.9,954.2c-.4-.8-.8-2.9-1.1-6.4h0c4.5,1.7,7.8.8,9.4-2.8,2.7-6.1-8.3-10.4-11.5-31.3-1.3-33.5-2.3-81.6-2.8-121h0c-.3-19-.5-35.8-.6-48.1h.6v-12.7l52.6-57.9c-.9-1-1.9-2.2-2.8-3.2,2.7-1.1,4.2-3.2,4.2-6.2,0-8.4-21.6-15.4-40.7-32.4-6.9-7.4-13.2-13.9-18.5-19.1-.5-.8-1.1-1.7-1.9-2.4h0c-14.1-13.4-31.3-28.4-49.2-41.2,1.1-2.2,1.8-4.5,1.8-7,0-8.9-7.6-16-17.1-16s-9.5,2.2-12.7,5.5c-3.8-2-7.6-3.9-11.5-5.7.3-1.7,0-3.1-.8-4.3-2.4-3.3-8.9-4.8-16.8-5.1.5-3.1,0-5.7-2.2-6.4-17.9-5.5-44.8,6.2-71,22.8-3.1-4.1-8.1-6.7-13.9-6.7-9.4,0-17.1,7.1-17.1,16s1.4,7,3.6,9.8c-13,9.8-24.8,19.7-34.2,28h0s-.6.5-1.8,1.7c-3.7,3.3-7,6.4-9.7,8.9h0c-.6.8-1.3,1.7-1.9,2.4-3.8,3.8-8.1,8.3-13,13.2-19.3,18.3-42.2,25.6-42.2,34.2s2,6.1,6,6.9h.3c.8,0,1.7.3,2.5.3h1.7c-32.1,25.7-53.1,51.2-53.1,51.2-39.6,29.5-9,71-9,71,4.1,6.6,8.5,12.9,13.1,18.8,11.8,17.4,10.6,33.5,16.5,35.4,4.2,1.3,7.1-1.3,8-7.4,8.9,12.5,14.3,22.8,20.7,22.9,4.1,0,6.6-1.9,7.5-5.6h0c12,6.1,23.2,9.8,32.4,12,5.9,1.5,7.1,1,12.5-1.1,0,5.5-.3,10.8-.4,16h0c-.5,29.5-14.5,34.4-11.6,41.2,1.7,3.8,5.2,4.7,10.1,2.3h0c-.5,13.1-5.6,14-7.6,20.6-2.2,6.6,5,9.3,5,9.3l-14.1,25.8c-.4.8,0,1.4,0,1.7s.5.9,1.5.9c22.7,2.5,64.3,2,81.2.3,3.9-.4,7.3-3.2,8-7,.3-1.5.6-3.2,1-4.8,1.4-6.9,2.9-15,5.3-23.3,1.8,2.9,4.2,3.7,6.9,2,4.7-2.9-.6-16.7,5.5-31.2,1.8-4.1,5.1-7.1,7.9-10.1l4.1-3.8h54.2l4.1,3.8c3.9,3.9,7.5,8.8,10.6,14.4.5,1,1,2.2,1.5,3.2,2.8,14.4.5,26.5,5,29.3,1.8,1.1,3.6,1.1,5.1,0h0c1.3,5.6,2.4,10.8,3.3,15.5.4,1.7.6,3.3,1,4.8.8,3.7,3.9,6.5,8,7,16.9,1.8,58.5,2.3,81.2-.3.9,0,1.4-.6,1.5-.9s.4-.9,0-1.7l-14.1-25.8h-.5ZM943.9,575.5l8.8-5.3c.5-.3,1,0,1.3.4,1,2.5,0,5.5-2.4,7-2.5,1.5-5.7,1.1-7.8-.8-.4-.4-.4-1,0-1.3h.1ZM920.3,585.3c3.2-1.1,6.6-1.5,10.1-1.4,5.1.3,9.3,1.7,12.2,5,4.7,5.2,7,11.1,7.5,17.3v2.5c0,.6,0,1.1-.3,1.8-.5,1.9-2.3,2.9-4.8,2.8-2.4,0-4.6-.9-6.6-1.9-2.5-1.1-4.8-2.7-6.1-4.7-.6-1-.8-2.2,0-3.2.9-1.3,2.2-2.3,3.7-3.1,1-.5,2.2-1,3.2-1.5,2-1,2.5-2,2-3.8-.8-2.3-2.5-3.9-5.1-5-5.7-2.2-11.3-1.8-16.7,1.1-2.5,1.4-3.8,3.3-4.1,5.7,0,.9.3,1.7,1.3,2.3.6.4,1.5.8,2.3,1,1.7.6,3.4,1.1,4.8,2,2.3,1.5,2.9,3.2,1.5,5.2-2.4,3.6-6.1,6-11.2,7.3-2.8.6-5-.3-5.6-2.5-.9-2.7-.8-5.3-.5-8.1.5-4.2,1.9-8.1,4.2-12,1.8-2.9,4.2-5.3,8-6.7h.1ZM940.1,621.7c-1,1-2.4,1.4-4.1,1.5-2.8,0-5.5-.3-8.3-.5-1.5,0-3.1-.5-4.6-.8-1.3-.3-2.7-.5-3.8-1-1.4-.6-2.4-1.4-2.8-2.7,0-.5,0-.9.5-1.1.9-.5,1.9-.9,3.1-1.3,2.9-.9,6.1-1.5,9.3-1,4.2.6,7.8,2.4,10.6,5,.9.8.9,1.1,0,1.9h.1ZM903.7,570c0-.4.6-.5,1-.3l4.2,2.5,5,3.1c.4.3.4.6,0,1-2,2-5.3,2.4-7.9.9s-3.4-4.6-2.3-7.1h0ZM807.8,792.7c-1.7-.3-3.4-.5-5.5-.6h0c1.8-1,2.8-2.8,3.1-5.1.5-5.3-3.6-7.8-9-14.5,1.4-5.1,3.2-10.4,4.8-15.8,2.4-.4,4.8-.9,7.3-1.4,0,10.7-.3,23.5-.5,37.4h-.1ZM935.3,860.5c-50.5,0-72.4-75.8-109.7-135.9-2.4,2.4-5.3,2.8-8.4,1.1-6.5-3.4,1.8-12.7-14.4-32.6-9.8-11.2-20.7-20.9-33.2-28,.5-.3,1-.4,1.5-.6,1.9-.9,3.4-1.7,5-2.3,20.2-9.4,50.9,25.2,57.8,23.5,3.2-.8,4.6-2.9,4.2-6.2,16.8,9.5,39.8,47.2,49.1,47.5,4.6,0,7.3-2.5,7.6-7.4,7.1,6.6,14.3,14,21,22,7.8,9.2,22.7,9.2,30.5,0,3.6-4.2,7.1-8.1,10.8-11.8,1.3,5.5,5.2,7.8,11.5,6.6,11.3-2.2,22.4-35.9,53.4-56.4-3.8,8-1.9,12.5,4.7,12.3,9,0,46.4-33.8,46.4-33.8,0,0,9.2,11.8,28.5,13.1-97.1,69.6-94.8,189-166.1,188.7h-.4Z"/>
  <path class="st1" d="M1062.3,743.7c3.1,30.5,19.9,48.2,14.8,55.5-3.7,5.1-9.7,4.5-16.5-1.9"/>
  <path class="st1" d="M1061.3,786.6c2.7,22.9,15.5,36,11.7,41.5-2.7,3.9-7.1,3.4-12.5-1.3"/>
  <polygon class="st1" points="1216.4 985.6 1288.5 403.5 1304.6 394.5 1226.4 985.6 1216.4 985.6"/>
  <g>
    <polygon class="st1" points="1294 446 1292.7 455.1 1324.2 460.3 1324.9 450.5 1294 446"/>
    <polygon class="st1" points="1263.3 667.2 1297.2 672.4 1297.9 662.6 1264.5 658.2 1263.3 667.2"/>
    <polygon class="st1" points="1274.7 585.3 1273.4 594.7 1300.6 598.9 1305.2 589.1 1274.7 585.3"/>
    <polygon class="st1" points="1284.5 514.9 1283.1 524.4 1307.5 528.1 1311.9 518.3 1284.5 514.9"/>
  </g>
  <path class="st1" d="M1273.6,715.7c-10.6-11.5-35.5-6.6-32.6-7.9,4.6-2.2,2.9-11.2-.9-15.5-3.3-3.7-6.7-4.5-11.3-2.3s-8.5,5.1-12.5,8c0,0-.3-.3-.4-.4-5.5-4.5-11.3-.4-26.5-1.9-21.4-10.1-50.4-19.6-73.4-26.7l-8.7-.3c-2,7.4-17.4,14.6-22.4,20.7-10.6,13-24.8,23.2-34.5,36.8-3.7,5.2-6.6,10.7-9,16.5,26.8,17.7,63.2,33.3,120.1,40.3,7.6.9,14.9,1.3,21.8,1.3,19.1,2.3,30.5,10.7,35.2,7.5,3.6-2.4,2.9-6.2-1.8-10.4,16,.4,28,2.3,31.8-2.5.5-.6.9-1.3,1.1-1.9,42-8.9,37.2-46.7,23.7-61.3h.1Z"/>
  <g>
    <path class="st1" d="M1328.5,597.9l-4.7-.6-2.2,15.4,4.7.6c5.1.6,8.8-2.2,9.4-6.6h0c.6-4.5-2.2-8.1-7.3-8.8h0Z"/>
    <path class="st1" d="M1320.3,418.9l-39.2,279.8,66.3,8.7,37.2-282.9-64.3-5.7h0ZM1362.8,437l1.4,2.9-16.2-1.8-1.4-2.9,16,1.8h.1ZM1345.3,434.8l3.1,6.7h0l1.5,3.3-2,2.5-4.5-9.7h0l-1.5-3.3,3.4.4ZM1345.5,452.4l3.4-4.3.5-.6,3.1-3.8,3.4.4-3.1,3.8-3.9,5-3.1,3.8-1.4-2.9,1-1.3h0ZM1340.4,434.3l6.5,14.1-2,2.5-6.5-14.1,2-2.7h0ZM1339.2,580.4l-.5,3.7-16.9-2.2,3.2-22.7,4.2.5-2.7,19.1,12.7,1.5h0ZM1327.6,686.7l-5-.6-5.2-9.4-7.5,7.9-4.8-.6,10.3-10.4-6.9-12.2,5,.6,4.8,9,7.3-7.5,4.8.6-9.9,10.1,7.1,12.7h0ZM1330,650.5l-17.9-2.3.5-3.6,17.9,2.3-.5,3.6ZM1331.4,640.9l-17.9-2.3.5-3.6,17.9,2.3-.5,3.6ZM1332.7,631.5l-9.2-1.1-4.6-.5-4.2-.5.5-3.6,17.9,2.3-.5,3.6h0ZM1340.3,607h0c-.9,6.5-6.9,10.8-14.4,9.8l-9-1.1,3.2-22.7,9,1.1c7.6.9,12.1,6.5,11.2,12.9ZM1344.8,542.5c-1,6.7-5.5,9.7-11.8,8.9-6.2-.8-9.8-4.7-8.9-11.3l1.8-13.1,4.2.5-1.8,12.9c-.6,4.2,1.4,6.7,5.2,7.3s6.4-1.4,7-5.5l1.8-13.1,4.2.5-1.8,12.9h.1ZM1347.2,518.6c-2.4-8.5-2.9-9.9-5.6-19.1-6,9.5-5.1,8-10.7,17.1l-4.3-.5,13.9-21.5,3.9.5,7.4,24.2-4.5-.5h-.1ZM1345.9,487.3l-3.8-.5-6.9-24.1,4.7.6,4.8,18.3,9.7-16.5,4.6.5-13.2,21.6h.1ZM1350.6,457.1l-3.4-.4,10.1-12.7,3.4.4-10.1,12.6h0ZM1361.9,443.8h-.9l-11.1-1.3-1.4-2.9,4.3.5h0l6.6.8,4.5.5-2,2.5h0Z"/>
  </g>
  <path class="st3" d="M856.1,962.3c13.6,21,16.7-24.3,19.6-33.3,5.9-18.5,17.7-24.8,17.7-24.8-26.5-3.6-31.3-21.4-31.3-21.4,44.5,8.9-18.7-44.3-18.7-44.3,26.7-2.8,18.8-46.7,18.8-46.7,24.2-7-7.3-39.2-16.3-54.6-3.6-6.1,19.3-9.5,3.2-29.5-9.8-11.2-2.7-18.3,7.9-6,20.1,23.4,4.6-35.4,4.6-35.4,18.6,12.1,19.6-24.4,19.6-24.4,8.7,18.1,33.1-16.5,33.1-16.5,4.8,14.1,9.5,5.1,12.3-3.1-1.1,0-2.3-.4-3.6-.5-1.3-.3-2.7-.5-3.8-1-1.4-.6-2.4-1.4-2.8-2.7,0-.5,0-.9.5-1.1.9-.5,1.9-.9,3.1-1.3,2.8-.9,5.7-1.4,8.8-1,0-.8,0,0,0,0,2.2-1.3,3.8-3.8,3.6-8h0c-.6-1.1-.8-2.3,0-3.3l.3-.3c0-.3.4-.8.4-.8,5-3.2,7.3-7.4,5.9-10.7s-1.7-1.1-2.7-1.5c-5.7-2.2-11.3-1.8-16.7,1.1-2.5,1.4-3.8,3.3-4.1,5.7,0,.9.3,1.7,1.3,2.3.6.4,1.5.8,2.3,1,1.7.6,3.4,1.1,4.8,2,2.3,1.5,2.9,3.2,1.5,5.2-2.4,3.6-6.1,6-11.2,7.3-2.8.6-5-.3-5.6-2.5-.9-2.7-.8-5.3-.5-8.1.5-4.2,1.9-8.1,4.2-12,1.8-2.9,4.2-5.3,8-6.7,3.2-1.1,6.6-1.5,10.1-1.4,5.1.3,9.2,1.7,12.2,4.8,3.4-3.6,6.4-7.3,8.5-11.2-2.4,1.3-5.3.9-7.3-.9-.4-.4-.4-1,0-1.3l8.8-5.3c.5-.3,1,0,1.3.4v.9c6.4-15.1,5.6-30,5.3-33.8-2.5-.6-5.6-.9-8.8-1,.5-3.1,0-5.7-2.2-6.4-17.9-5.5-44.8,6.2-71,22.8-3.1-4.1-8.1-6.7-13.9-6.7-9.4,0-17.1,7.1-17.1,16s1.4,7,3.6,9.8c-13,9.8-24.8,19.7-34.2,28h0s-.6.5-1.8,1.7c-3.7,3.3-7,6.4-9.7,8.9h0c-.6.8-1.3,1.7-1.9,2.4-3.8,3.8-8.1,8.3-13,13.2-19.3,18.3-42.2,25.6-42.2,34.2s2,6.1,6,6.9h.3c.8,0,1.7.3,2.5.3h1.7c-32.1,25.7-53.1,51.2-53.1,51.2-39.6,29.5-9,71-9,71,4.1,6.6,8.5,12.9,13.1,18.8,11.8,17.4,10.6,33.5,16.5,35.4,4.2,1.3,7.1-1.3,8-7.4,8.9,12.5,14.3,22.8,20.7,22.9,4.1,0,6.6-1.9,7.5-5.6h0c12,6.1,23.2,9.8,32.4,12,5.9,1.5,7.1,1,12.5-1.1,0,5.5-.3,10.8-.4,16h0c-.5,29.5-14.5,34.4-11.6,41.2,1.7,3.8,5.2,4.7,10.1,2.3h0c-.5,13.1-5.6,14-7.6,20.6-2.2,6.6,5,9.3,5,9.3l-14.1,25.8c-.4.8,0,1.4,0,1.7s.5.9,1.5.9c17.4,2,45.9,2.2,66,1.3,1.3-9.9,1.1-21.4,1.1-21.4h-.4.3,0ZM903.6,569.6c0-.4.6-.5,1-.3l4.2,2.5,5,3.1c.4.3.4.6,0,1-2,2-5.3,2.4-7.9.9s-3.4-4.6-2.3-7.1h0ZM807.6,792.3c-1.7-.3-3.4-.5-5.5-.6h0c1.8-1,2.8-2.8,3.1-5.1.5-5.3-3.6-7.8-9-14.5,1.4-5.1,3.2-10.4,4.8-15.8,2.4-.4,4.8-.9,7.3-1.4,0,10.7-.3,23.5-.5,37.4h-.1Z"/>
  <path class="st3" d="M962.9,904.9s42.4.6,50.9-8.4c0,0-19.9,44,5.6,33,0,0-10.3,39.3,4.1,28.9,0,0-12.9,19.6,0,16.8l-30,2.4-4.3-21.9c-11.7,8-8.3-17.9-11.1-28.6-1.5-5.7-10.4-18.3-15.1-22.1h0Z"/>
</svg>