<svg width="1920" height="1080" viewBox="0 0 1920 1080" fill="none" xmlns="http://www.w3.org/2000/svg">
<path d="M970.099 550.801H893.699V638.501H970.099V550.801Z" fill="#F8994C"/>
<path d="M762.999 673.999C763.899 680.399 767.099 686.199 770.399 691.799C776.399 701.899 783.099 711.799 791.999 719.499C800.099 726.499 809.799 731.699 817.799 738.699C828.099 747.599 835.399 759.099 841.599 770.799C849.599 785.799 856.499 801.299 863.699 816.599C868.199 825.999 872.899 835.399 879.499 843.599C893.399 860.699 915.499 871.499 938.299 872.199C961.099 872.999 984.099 863.799 999.299 847.799C1010.6 835.799 1017.4 820.799 1023.9 806.099C1040.1 769.099 1055.6 730.899 1083.2 700.499C1092.7 689.899 1104.3 679.099 1105 665.299C1090.2 663.999 1079 651.299 1064.5 648.399C1054.2 646.399 1043.6 649.499 1033.6 652.299C982.599 666.899 927.899 676.399 875.899 664.399C858.699 660.499 842.099 654.199 824.599 651.699C805.599 648.899 758.699 645.699 762.799 673.999H763.099H762.999Z" fill="#541C08"/>
<path d="M1216.8 723.999C1216.8 723.999 1217.2 723.999 1217.8 723.699V724.099H1216.8V723.999Z" fill="black"/>
<path d="M1069.9 954.199C1069.5 953.399 1069.1 951.299 1068.8 947.799C1073.3 949.499 1076.6 948.599 1078.2 944.999C1080.9 938.899 1069.9 934.599 1066.7 913.699C1065.4 880.199 1064.4 832.099 1063.9 792.699C1063.6 773.699 1063.4 756.899 1063.3 744.599H1063.9V731.899L1116.5 673.999C1115.6 672.999 1114.6 671.799 1113.7 670.799C1116.4 669.699 1117.9 667.599 1117.9 664.599C1117.9 656.199 1096.3 649.199 1077.2 632.199C1070.3 624.799 1064 618.299 1058.7 613.099C1058.2 612.299 1057.6 611.399 1056.8 610.699C1042.7 597.299 1025.5 582.299 1007.6 569.499C1008.7 567.299 1009.4 564.999 1009.4 562.499C1009.4 553.599 1001.8 546.499 992.301 546.499C982.801 546.499 982.801 548.699 979.601 551.999C975.801 549.999 972.001 548.099 968.101 546.299C968.401 544.599 968.101 543.199 967.301 541.999C964.901 538.699 958.401 537.199 950.501 536.899C951.001 533.799 950.501 531.199 948.301 530.499C930.401 524.999 903.501 536.699 877.301 553.299C874.201 549.199 869.201 546.599 863.401 546.599C854.001 546.599 846.301 553.699 846.301 562.599C846.301 571.499 847.701 569.599 849.901 572.399C836.901 582.199 825.101 592.099 815.701 600.399C815.701 600.399 815.101 600.899 813.901 602.099C810.201 605.399 806.901 608.499 804.201 610.999C803.601 611.799 802.901 612.699 802.301 613.399C798.501 617.199 794.201 621.699 789.301 626.599C770.001 644.899 747.101 652.199 747.101 660.799C747.101 669.399 749.101 666.899 753.101 667.699H753.401C754.201 667.699 755.101 667.999 755.901 667.999H757.601C725.501 693.699 704.501 719.199 704.501 719.199C664.901 748.699 695.501 790.199 695.501 790.199C699.601 796.799 704.001 803.099 708.601 808.999C720.401 826.399 719.201 842.499 725.101 844.399C729.301 845.699 732.201 843.099 733.101 836.999C742.001 849.499 747.401 859.799 753.801 859.899C757.901 859.899 760.401 857.999 761.301 854.299C773.301 860.399 784.501 864.099 793.701 866.299C799.601 867.799 800.801 867.299 806.201 865.199C806.201 870.699 805.901 875.999 805.801 881.199C805.301 910.699 791.301 915.599 794.201 922.399C795.901 926.199 799.401 927.099 804.301 924.699C803.801 937.799 798.701 938.699 796.701 945.299C794.501 951.899 801.701 954.599 801.701 954.599L787.601 980.399C787.201 981.199 787.601 981.799 787.601 982.099C787.601 982.399 788.101 982.999 789.101 982.999C811.801 985.499 853.401 984.999 870.301 983.299C874.201 982.899 877.601 980.099 878.301 976.299C878.601 974.799 878.901 973.099 879.301 971.499C880.701 964.599 882.201 956.499 884.601 948.199C886.401 951.099 888.801 951.899 891.501 950.199C896.201 947.299 890.901 933.499 897.001 918.999C898.801 914.899 902.101 911.899 904.901 908.899L909.001 905.099H963.201L967.301 908.899C971.201 912.799 974.801 917.699 977.901 923.299C978.401 924.299 978.901 925.499 979.401 926.499C982.201 940.899 979.901 952.999 984.401 955.799C986.201 956.899 988.001 956.899 989.501 955.799C990.801 961.399 991.901 966.599 992.801 971.299C993.201 972.999 993.401 974.599 993.801 976.099C994.601 979.799 997.701 982.599 1001.8 983.099C1018.7 984.899 1060.3 985.399 1083 982.799C1083.9 982.799 1084.4 982.199 1084.5 981.899C1084.6 981.599 1084.9 980.999 1084.5 980.199L1070.4 954.399H1069.9V954.199ZM943.901 575.499L952.701 570.199C953.201 569.899 953.701 570.199 954.001 570.599C955.001 573.099 954.001 576.099 951.601 577.599C949.101 579.099 945.901 578.699 943.801 576.799C943.401 576.399 943.401 575.799 943.801 575.499H943.901ZM920.301 585.299C923.501 584.199 926.901 583.799 930.401 583.899C935.501 584.199 939.701 585.599 942.601 588.899C947.301 594.099 949.601 599.999 950.101 606.199V608.699C950.101 609.299 950.101 609.799 949.801 610.499C949.301 612.399 947.501 613.399 945.001 613.299C942.601 613.299 940.401 612.399 938.401 611.399C935.901 610.299 933.601 608.699 932.301 606.699C931.701 605.699 931.501 604.499 932.301 603.499C933.201 602.199 934.501 601.199 936.001 600.399C937.001 599.899 938.201 599.399 939.201 598.899C941.201 597.899 941.701 596.899 941.201 595.099C940.401 592.799 938.701 591.199 936.101 590.099C930.401 587.899 924.801 588.299 919.401 591.199C916.901 592.599 915.601 594.499 915.301 596.899C915.301 597.799 915.601 598.599 916.601 599.199C917.201 599.599 918.101 599.999 918.901 600.199C920.601 600.799 922.301 601.299 923.701 602.199C926.001 603.699 926.601 605.399 925.201 607.399C922.801 610.999 919.101 613.399 914.001 614.699C911.201 615.299 909.001 614.399 908.401 612.199C907.501 609.499 907.601 606.899 907.901 604.099C908.401 599.899 909.801 595.999 912.101 592.099C913.901 589.199 916.301 586.799 920.101 585.399H920.201L920.301 585.299ZM940.101 621.699C939.101 622.699 937.701 623.099 936.001 623.199C933.201 623.199 930.501 622.899 927.701 622.699C926.201 622.699 924.601 622.199 923.101 621.899C921.801 621.599 920.401 621.399 919.301 620.899C917.901 620.299 916.901 619.499 916.501 618.199C916.501 617.699 916.501 617.299 917.001 617.099C917.901 616.599 918.901 616.199 920.101 615.799C923.001 614.899 926.201 614.299 929.401 614.799C933.601 615.399 937.201 617.199 940.001 619.799C940.901 620.599 940.901 620.899 940.001 621.699H940.101ZM903.701 569.999C903.701 569.599 904.301 569.499 904.701 569.699L908.901 572.199L913.901 575.299C914.301 575.599 914.301 575.899 913.901 576.299C911.901 578.299 908.601 578.699 906.001 577.199C903.401 575.699 902.601 572.599 903.701 570.099V569.999ZM807.801 792.699C806.101 792.399 804.401 792.199 802.301 792.099C804.101 791.099 805.101 789.299 805.401 786.999C805.901 781.699 801.801 779.199 796.401 772.499C797.801 767.399 799.601 762.099 801.201 756.699C803.601 756.299 806.001 755.799 808.501 755.299C808.501 765.999 808.201 778.799 808.001 792.699H807.901H807.801ZM935.301 860.499C884.801 860.499 862.901 784.699 825.601 724.599C823.201 726.999 820.301 727.399 817.201 725.699C810.701 722.299 819.001 712.999 802.801 693.099C793.001 681.899 782.101 672.199 769.601 665.099C770.101 664.799 770.601 664.699 771.101 664.499C773.001 663.599 774.501 662.799 776.101 662.199C796.301 652.799 827.001 687.399 833.901 685.699C837.101 684.899 838.501 682.799 838.101 679.499C854.901 688.999 877.901 726.699 887.201 726.999C891.801 726.999 894.501 724.499 894.801 719.599C901.901 726.199 909.101 733.599 915.801 741.599C923.601 750.799 938.501 750.799 946.301 741.599C949.901 737.399 953.401 733.499 957.101 729.799C958.401 735.299 962.301 737.599 968.601 736.399C979.901 734.199 991.001 700.499 1022 679.999C1018.2 687.999 1020.1 692.499 1026.7 692.299C1035.7 692.299 1073.1 658.499 1073.1 658.499C1073.1 658.499 1082.3 670.299 1101.6 671.599C1004.5 741.199 1006.8 860.599 935.501 860.299H935.101L935.301 860.499Z" fill="#6E2409"/>
<path d="M1062.3 743.699C1065.4 774.199 1082.2 791.899 1077.1 799.199C1073.4 804.299 1067.4 803.699 1060.6 797.299" fill="#6E2409"/>
<path d="M1061.3 786.602C1064 809.502 1076.8 822.602 1073 828.102C1070.3 832.002 1065.9 831.502 1060.5 826.802" fill="#6E2409"/>
<path d="M1216.4 985.6L1288.5 403.5L1304.6 394.5L1226.4 985.6H1216.4Z" fill="#6E2409"/>
<path d="M1294 446L1292.7 455.1L1324.2 460.3L1324.9 450.5L1294 446Z" fill="#6E2409"/>
<path d="M1263.3 667.199L1297.2 672.399L1297.9 662.599L1264.5 658.199L1263.3 667.199Z" fill="#6E2409"/>
<path d="M1274.7 585.301L1273.4 594.701L1300.6 598.901L1305.2 589.101L1274.7 585.301Z" fill="#6E2409"/>
<path d="M1284.5 514.898L1283.1 524.398L1307.5 528.098L1311.9 518.298L1284.5 514.898Z" fill="#6E2409"/>
<path d="M1273.6 715.699C1263 704.199 1238.1 709.099 1241 707.799C1245.6 705.599 1243.9 696.599 1240.1 692.299C1236.8 688.599 1233.4 687.799 1228.8 689.999C1224.2 692.199 1220.3 695.099 1216.3 697.999C1216.3 697.999 1216 697.699 1215.9 697.599C1210.4 693.099 1204.6 697.199 1189.4 695.699C1168 685.599 1139 676.099 1116 668.999L1107.3 668.699C1105.3 676.099 1089.9 683.299 1084.9 689.399C1074.3 702.399 1060.1 712.599 1050.4 726.199C1046.7 731.399 1043.8 736.899 1041.4 742.699C1068.2 760.399 1104.6 775.999 1161.5 782.999C1169.1 783.899 1176.4 784.299 1183.3 784.299C1202.4 786.599 1213.8 794.999 1218.5 791.799C1222.1 789.399 1221.4 785.599 1216.7 781.399C1232.7 781.799 1244.7 783.699 1248.5 778.899C1249 778.299 1249.4 777.599 1249.6 776.999C1291.6 768.099 1286.8 730.299 1273.3 715.699H1273.4H1273.6Z" fill="#6E2409"/>
<path d="M856.101 962.298C869.701 983.298 872.801 937.998 875.701 928.998C881.601 910.498 893.401 904.198 893.401 904.198C866.901 900.598 862.101 882.798 862.101 882.798C906.601 891.698 843.401 838.498 843.401 838.498C870.101 835.698 862.201 791.798 862.201 791.798C886.401 784.798 854.901 752.598 845.901 737.198C842.301 731.098 865.201 727.698 849.101 707.698C839.301 696.498 846.401 689.398 857.001 701.698C877.101 725.098 861.601 666.298 861.601 666.298C880.201 678.398 881.201 641.898 881.201 641.898C889.901 659.998 914.301 625.398 914.301 625.398C919.101 639.498 923.801 630.498 926.601 622.298C925.501 622.298 924.301 621.898 923.001 621.798C921.701 621.498 920.301 621.298 919.201 620.798C917.801 620.198 916.801 619.398 916.401 618.098C916.401 617.598 916.401 617.198 916.901 616.998C917.801 616.498 918.801 616.098 920.001 615.698C922.801 614.798 925.701 614.298 928.801 614.698C931.001 613.398 932.601 610.898 932.401 606.698C931.801 605.598 931.601 604.398 932.401 603.398L932.701 603.098C932.701 602.798 933.101 602.298 933.101 602.298C938.101 599.098 940.401 594.898 939.001 591.598C937.601 588.298 937.301 590.498 936.301 590.098C930.601 587.898 925.001 588.298 919.601 591.198C917.101 592.598 915.801 594.498 915.501 596.898C915.501 597.798 915.801 598.598 916.801 599.198C917.401 599.598 918.301 599.998 919.101 600.198C920.801 600.798 922.501 601.298 923.901 602.198C926.201 603.698 926.801 605.398 925.401 607.398C923.001 610.998 919.301 613.398 914.201 614.698C911.401 615.298 909.201 614.398 908.601 612.198C907.701 609.498 907.801 606.898 908.101 604.098C908.601 599.898 910.001 595.998 912.301 592.098C914.101 589.198 916.501 586.798 920.301 585.398C923.501 584.298 926.901 583.898 930.401 583.998C935.501 584.298 939.601 585.698 942.601 588.798C946.001 585.198 949.001 581.498 951.101 577.598C948.701 578.898 945.801 578.498 943.801 576.698C943.401 576.298 943.401 575.698 943.801 575.398L952.601 570.098C953.101 569.798 953.601 570.098 953.901 570.498V571.398C960.301 556.298 959.501 541.398 959.201 537.598C956.701 536.998 953.601 536.698 950.401 536.598C950.901 533.498 950.401 530.898 948.201 530.198C930.301 524.698 903.401 536.398 877.201 552.998C874.101 548.898 869.101 546.298 863.301 546.298C853.901 546.298 846.201 553.398 846.201 562.298C846.201 571.198 847.601 569.298 849.801 572.098C836.801 581.898 825.001 591.798 815.601 600.098C815.601 600.098 815.001 600.598 813.801 601.798C810.101 605.098 806.801 608.198 804.101 610.698C803.501 611.498 802.801 612.398 802.201 613.098C798.401 616.898 794.101 621.398 789.201 626.298C769.901 644.598 747.001 651.898 747.001 660.498C747.001 669.098 749.001 666.598 753.001 667.398H753.301C754.101 667.398 755.001 667.698 755.801 667.698H757.501C725.401 693.398 704.401 718.898 704.401 718.898C664.801 748.398 695.401 789.898 695.401 789.898C699.501 796.498 703.901 802.798 708.501 808.698C720.301 826.098 719.101 842.198 725.001 844.098C729.201 845.398 732.101 842.798 733.001 836.698C741.901 849.198 747.301 859.498 753.701 859.598C757.801 859.598 760.301 857.698 761.201 853.998C773.201 860.098 784.401 863.798 793.601 865.998C799.501 867.498 800.701 866.998 806.101 864.898C806.101 870.398 805.801 875.698 805.701 880.898C805.201 910.398 791.201 915.298 794.101 922.098C795.801 925.898 799.301 926.798 804.201 924.398C803.701 937.498 798.601 938.398 796.601 944.998C794.401 951.598 801.601 954.298 801.601 954.298L787.501 980.098C787.101 980.898 787.501 981.498 787.501 981.798C787.501 982.098 788.001 982.698 789.001 982.698C806.401 984.698 834.901 984.898 855.001 983.998C856.301 974.098 856.101 962.598 856.101 962.598H855.701H856.001L856.101 962.298ZM903.601 569.598C903.601 569.198 904.201 569.098 904.601 569.298L908.801 571.798L913.801 574.898C914.201 575.198 914.201 575.498 913.801 575.898C911.801 577.898 908.501 578.298 905.901 576.798C903.301 575.298 902.501 572.198 903.601 569.698V569.598ZM807.601 792.298C805.901 791.998 804.201 791.798 802.101 791.698C803.901 790.698 804.901 788.898 805.201 786.598C805.701 781.298 801.601 778.798 796.201 772.098C797.601 766.998 799.401 761.698 801.001 756.298C803.401 755.898 805.801 755.398 808.301 754.898C808.301 765.598 808.001 778.398 807.801 792.298H807.701H807.601Z" fill="#100F0F"/>
<path d="M962.9 904.9C962.9 904.9 1005.3 905.5 1013.8 896.5C1013.8 896.5 993.9 940.5 1019.4 929.5C1019.4 929.5 1009.1 968.8 1023.5 958.4C1023.5 958.4 1010.6 978 1023.5 975.2L993.5 977.6L989.2 955.7C977.5 963.7 980.9 937.8 978.1 927.1C976.6 921.4 967.7 908.8 963 905L962.9 904.9Z" fill="#100F0F"/>
<path d="M1385.46 424.281L1350.45 709.394L1283 701.111L1318.01 416L1385.46 424.281ZM1307.91 680.897L1305.21 684.884L1309.98 685.469L1312.68 681.482L1319.14 671.913L1323.09 682.762L1324.75 687.282L1329.51 687.867L1327.85 683.347L1320.29 662.555L1307.91 680.897ZM1311.7 643.4L1315.96 643.923L1317.3 632.965L1321.56 633.487C1323.09 633.675 1324.31 634.655 1324.91 635.972L1324.99 636.188L1326.72 640.927L1328.38 645.447L1333.14 646.032L1331.49 641.512L1328.92 634.321C1329.57 634.333 1330.2 634.238 1330.82 634.037C1333.15 633.288 1334.96 631.23 1335.28 628.644C1335.49 626.874 1334.98 625.187 1333.97 623.854C1332.95 622.555 1331.44 621.643 1329.67 621.426L1314.63 619.579L1311.7 643.4ZM1329.15 625.68C1329.9 625.772 1330.36 626.175 1330.6 626.48C1330.81 626.748 1331.15 627.343 1331.06 628.125C1330.95 628.976 1330.35 629.696 1329.52 629.94C1329.23 630.043 1328.92 630.074 1328.61 630.036L1317.82 628.745L1318.36 624.355L1329.15 625.68ZM1317.96 582.998L1327.72 584.197L1325.32 603.765L1329.57 604.287L1331.98 584.72L1341.74 585.919L1342.27 581.665L1318.48 578.744L1317.96 582.998ZM1331.12 538.954C1327.59 538.52 1324.37 541.061 1323.94 544.601L1323.92 544.736C1323.75 546.098 1324.01 547.407 1324.6 548.516C1324.79 548.919 1325.02 549.293 1325.29 549.637C1326.31 550.902 1327.79 551.775 1329.52 551.988L1338.1 553.041C1339.9 553.262 1341.22 554.909 1341 556.713C1340.78 558.516 1339.1 559.796 1337.3 559.574L1329.84 558.659C1328.04 558.438 1326.76 556.795 1326.98 554.991L1322.73 554.47C1322.22 558.621 1325.17 562.403 1329.32 562.913L1336.78 563.828C1340.93 564.338 1344.71 561.383 1345.22 557.231C1345.44 555.428 1345 553.68 1344.1 552.258C1344.01 552.143 1343.96 552.032 1343.87 551.918C1342.69 550.254 1340.83 549.059 1338.62 548.787L1330.05 547.734C1328.86 547.588 1327.99 546.48 1328.14 545.289L1328.15 545.152C1328.3 543.962 1329.41 543.096 1330.6 543.242L1340.26 544.429C1341.45 544.575 1342.32 545.683 1342.17 546.874L1342.16 547.011L1346.41 547.498L1346.43 547.362C1346.87 543.823 1344.33 540.575 1340.79 540.141L1331.12 538.954ZM1328.07 500.616L1337.84 501.815L1335.44 521.383L1339.69 521.905L1342.09 502.338L1351.86 503.537L1352.38 499.283L1328.59 496.362L1328.07 500.616ZM1355.38 467.929C1355.34 467.947 1355.32 467.961 1355.3 467.996C1355.26 468.056 1355.24 468.1 1355.2 468.157C1355.18 468.271 1355.12 468.352 1355.1 468.464C1355.1 468.494 1355.09 468.507 1355.09 468.537C1355.09 468.567 1355.09 468.579 1355.08 468.608C1354.96 468.78 1354.9 468.969 1354.77 469.136C1354.74 469.219 1354.68 469.272 1354.67 469.363C1354.68 469.438 1354.64 469.496 1354.62 469.522C1354.05 470.226 1353.47 470.925 1352.74 471.469C1351.76 472.191 1350.67 472.679 1349.52 473.05C1348.47 473.39 1347.39 473.635 1346.32 473.916C1344.66 474.35 1343.17 475.072 1341.89 476.222C1340.68 477.309 1339.77 478.594 1339.16 480.106C1338.94 480.661 1338.81 481.237 1338.69 481.814C1338.61 482.143 1338.56 482.476 1338.42 482.807C1338.42 483.358 1338.32 483.882 1338.36 484.434C1338.32 484.562 1338.32 484.672 1338.3 484.781C1338.28 485.024 1338.37 485.257 1338.35 485.518C1338.34 485.591 1338.34 485.647 1338.34 485.722C1338.34 485.755 1338.34 485.769 1338.34 485.803C1338.34 485.851 1338.34 485.878 1338.33 485.927C1338.37 486.046 1338.4 486.148 1338.42 486.274C1338.45 486.327 1338.48 486.362 1338.53 486.389C1338.54 486.391 1338.56 486.396 1338.57 486.401C1338.61 486.419 1338.63 486.427 1338.67 486.425C1338.71 486.412 1338.74 486.401 1338.79 486.383C1338.86 486.344 1338.9 486.285 1338.99 486.279C1339.04 486.271 1339.06 486.268 1339.1 486.256C1339.13 486.222 1339.14 486.2 1339.17 486.164C1339.2 486.132 1339.22 486.117 1339.25 486.095C1339.37 486.032 1339.47 485.987 1339.55 485.878C1339.7 485.803 1339.85 485.774 1339.99 485.709C1340.82 485.319 1341.69 485.049 1342.6 484.916C1344.45 484.645 1346.28 484.305 1348.01 483.562C1350.58 482.457 1352.84 480.932 1354.58 478.688C1356.08 476.749 1356.77 474.556 1356.7 472.115C1356.69 471.485 1356.56 470.871 1356.47 470.229C1356.44 470.192 1356.42 470.172 1356.41 470.119C1356.35 469.874 1356.19 469.684 1356.19 469.421C1356.18 469.141 1355.98 468.959 1355.92 468.699C1355.89 468.537 1355.79 468.432 1355.74 468.281C1355.67 468.196 1355.66 468.091 1355.53 468.073C1355.5 468 1355.48 467.93 1355.38 467.929ZM1349.67 476.263C1349.7 476.378 1349.62 476.454 1349.57 476.534C1348.94 477.639 1348.07 478.54 1347.11 479.359C1346.4 479.967 1345.63 480.489 1344.81 480.947C1344.74 480.988 1344.6 481.007 1344.63 481.117C1344.66 481.213 1344.79 481.18 1344.88 481.181C1346.84 481.193 1348.65 480.653 1350.33 479.65C1350.46 479.571 1350.59 479.488 1350.74 479.398C1350.77 479.508 1350.7 479.552 1350.66 479.604C1349.4 481.295 1347.69 482.311 1345.7 482.91C1344.73 483.204 1343.72 483.348 1342.72 483.515C1341.73 483.679 1340.79 484.003 1339.9 484.471C1339.82 484.513 1339.73 484.542 1339.63 484.575C1339.6 484.385 1339.72 484.236 1339.79 484.054C1339.83 484.016 1339.84 483.988 1339.86 483.946C1339.86 483.687 1340.06 483.508 1340.1 483.257C1340.11 483.248 1340.12 483.244 1340.12 483.242C1340.14 483.22 1340.15 483.188 1340.17 483.147C1340.19 483.137 1340.18 483.138 1340.18 483.14C1340.23 483.105 1340.22 483.049 1340.25 482.991C1340.26 482.981 1340.26 482.98 1340.26 482.98C1340.33 482.853 1340.37 482.712 1340.47 482.573C1340.48 482.561 1340.48 482.56 1340.48 482.561C1340.52 482.483 1340.57 482.409 1340.61 482.31C1340.62 482.298 1340.62 482.298 1340.62 482.3C1340.67 482.266 1340.65 482.209 1340.69 482.151C1340.7 482.139 1340.7 482.14 1340.7 482.142C1340.72 482.12 1340.73 482.086 1340.76 482.046C1340.77 482.035 1340.76 482.036 1340.76 482.038C1340.79 482.017 1340.8 481.985 1340.82 481.944C1340.83 481.939 1340.83 481.936 1340.83 481.935C1340.86 481.913 1340.87 481.881 1340.89 481.841C1340.9 481.835 1340.9 481.832 1340.9 481.831C1340.93 481.81 1340.94 481.777 1340.96 481.736C1340.97 481.726 1340.97 481.727 1340.97 481.729C1341 481.705 1341.01 481.67 1341.03 481.636C1341.64 480.774 1342.31 479.973 1343.1 479.285C1344.73 477.876 1346.63 477.02 1348.69 476.479C1349 476.4 1349.3 476.329 1349.61 476.256C1349.63 476.252 1349.64 476.26 1349.67 476.263ZM1352.02 433.017C1351.9 433.148 1351.75 433.185 1351.59 433.228C1351.37 433.103 1351.26 433.288 1351.1 433.373C1351.05 433.424 1351.01 433.446 1350.96 433.464C1350.34 433.715 1349.75 434.025 1349.22 434.483C1349.16 434.564 1349.07 434.565 1349 434.621C1348.79 434.732 1348.62 434.87 1348.45 435.034C1347.88 435.435 1347.36 435.878 1346.85 436.32C1346.13 436.945 1345.47 437.634 1344.89 438.394C1344.71 438.622 1344.5 438.775 1344.23 438.862C1343.67 439.037 1343.14 439.26 1342.62 439.534C1342.46 439.617 1342.3 439.713 1342.09 439.728C1341.92 439.758 1341.83 439.884 1341.7 439.952C1340.26 440.716 1338.94 441.66 1337.75 442.771C1336.3 444.119 1335.08 445.654 1334.11 447.378C1333.93 447.69 1333.84 448.035 1333.68 448.37C1333.66 448.393 1333.65 448.403 1333.62 448.429C1333.6 448.454 1333.59 448.465 1333.57 448.494C1333.52 448.689 1333.38 448.857 1333.52 449.065C1333.48 449.182 1333.45 449.279 1333.43 449.396C1333.45 449.425 1333.46 449.436 1333.49 449.453C1333.54 449.471 1333.57 449.48 1333.61 449.479C1333.64 449.464 1333.65 449.454 1333.68 449.43C1333.7 449.404 1333.71 449.394 1333.73 449.368C1333.76 449.333 1333.78 449.312 1333.8 449.276C1333.83 449.241 1333.84 449.219 1333.85 449.178C1333.89 449.107 1333.95 449.085 1334 449.031C1334.05 448.982 1334.09 448.951 1334.14 448.904C1334.16 448.88 1334.17 448.87 1334.19 448.844C1334.47 448.47 1334.8 448.176 1335.12 447.875C1335.19 447.813 1335.28 447.748 1335.37 447.815C1335.45 447.873 1335.43 447.967 1335.4 448.045C1335.35 448.17 1335.35 448.297 1335.37 448.426C1335.43 448.935 1335.27 449.354 1334.97 449.778C1334.11 451.011 1333.47 452.356 1333.11 453.825C1333 454.291 1332.86 454.758 1332.9 455.248C1332.91 455.397 1332.88 455.527 1332.78 455.658C1332.84 456.189 1332.8 456.701 1332.81 457.235C1332.81 457.275 1332.81 457.291 1332.82 457.33C1332.9 457.431 1332.9 457.563 1333.01 457.633C1333.08 457.921 1333.13 458.19 1333.19 458.459C1333.21 458.46 1333.24 458.46 1333.26 458.461C1333.28 458.333 1333.31 458.203 1333.36 458.056C1333.48 457.953 1333.51 457.84 1333.52 457.712C1333.52 457.61 1333.51 457.495 1333.63 457.407C1333.69 457.358 1333.71 457.319 1333.75 457.261C1333.78 457.203 1333.79 457.162 1333.79 457.099C1333.77 456.926 1333.82 456.767 1333.84 456.625C1333.87 456.726 1333.95 456.82 1334.03 456.918C1334.14 457.061 1334.22 457.23 1334.32 457.387C1334.36 457.457 1334.39 457.553 1334.47 457.577C1334.7 457.651 1334.69 457.834 1334.7 458.02C1334.73 458.621 1334.75 459.225 1334.93 459.829C1334.97 460.277 1335.11 460.678 1335.27 461.071C1336.05 463.014 1337.33 464.5 1339.24 465.416C1340.01 465.787 1340.83 465.999 1341.67 466.145C1342.2 466.236 1342.73 466.266 1343.28 466.166C1343.39 466.048 1343.33 465.974 1343.25 465.904C1343.18 465.849 1343.11 465.8 1343.07 465.713C1342.92 465.42 1342.75 465.14 1342.61 464.824C1342.59 464.795 1342.59 464.784 1342.58 464.756C1342.57 464.729 1342.56 464.719 1342.55 464.693C1342.54 464.669 1342.53 464.659 1342.52 464.636C1342.51 464.613 1342.51 464.603 1342.5 464.581C1342.49 464.559 1342.49 464.551 1342.48 464.529C1342.47 464.508 1342.46 464.5 1342.45 464.479C1342.44 464.457 1342.44 464.448 1342.43 464.427C1342.42 464.405 1342.42 464.396 1342.41 464.374C1342.41 464.351 1342.4 464.342 1342.4 464.318C1342.39 464.294 1342.39 464.284 1342.38 464.26C1342.37 464.224 1342.36 464.204 1342.35 464.168C1342.35 464.142 1342.34 464.131 1342.33 464.104C1342.33 464.078 1342.32 464.067 1342.31 464.04C1342.31 464.013 1342.3 464.002 1342.29 463.975C1342.28 463.947 1342.28 463.937 1342.27 463.909C1342.26 463.881 1342.26 463.87 1342.25 463.842C1342.24 463.814 1342.24 463.803 1342.23 463.774C1342.22 463.746 1342.22 463.735 1342.21 463.706C1342.19 463.632 1342.17 463.575 1342.15 463.501C1342.15 463.472 1342.14 463.46 1342.14 463.431C1342.11 463.339 1342.09 463.266 1342.07 463.173C1342.06 463.14 1342.06 463.127 1342.05 463.094C1341.88 462.304 1341.79 461.526 1341.77 460.717C1341.77 460.679 1341.77 460.663 1341.77 460.624C1341.75 460.343 1341.74 460.082 1341.77 459.827C1341.82 459.199 1341.74 458.568 1341.84 457.938C1341.91 457.467 1341.95 456.993 1342.08 456.508C1342.09 456.439 1342.1 456.393 1342.11 456.326C1342.13 456.138 1342.15 455.97 1342.21 455.79C1342.23 455.731 1342.24 455.69 1342.25 455.629C1342.29 455.35 1342.38 455.105 1342.43 454.83C1342.45 454.773 1342.47 454.735 1342.48 454.676C1342.56 454.374 1342.6 454.081 1342.73 453.791C1342.75 453.725 1342.77 453.674 1342.78 453.604C1342.84 453.44 1342.87 453.29 1342.93 453.126C1342.94 453.096 1342.95 453.083 1342.96 453.053C1343.09 452.668 1343.24 452.313 1343.39 451.936C1343.4 451.907 1343.41 451.895 1343.42 451.867C1343.43 451.829 1343.44 451.808 1343.46 451.771C1343.47 451.746 1343.48 451.736 1343.49 451.711C1343.51 451.677 1343.52 451.658 1343.54 451.625C1343.55 451.602 1343.56 451.592 1343.57 451.568C1343.59 451.535 1343.6 451.516 1343.61 451.482C1343.62 451.459 1343.63 451.45 1343.64 451.427C1343.66 451.394 1343.67 451.375 1343.68 451.342C1343.7 451.319 1343.7 451.309 1343.71 451.286C1343.73 451.263 1343.73 451.254 1343.75 451.231C1343.76 451.209 1343.77 451.2 1343.78 451.177C1343.8 451.145 1343.81 451.126 1343.83 451.094C1343.85 451.07 1343.85 451.061 1343.87 451.037C1343.89 451.004 1343.9 450.984 1343.92 450.951C1343.94 450.927 1343.94 450.917 1343.96 450.894C1343.98 450.86 1343.99 450.84 1344.01 450.806C1344.02 450.781 1344.03 450.771 1344.04 450.746C1344.06 450.722 1344.06 450.712 1344.08 450.688C1344.09 450.664 1344.1 450.655 1344.11 450.632C1344.13 450.609 1344.13 450.599 1344.15 450.576C1344.16 450.553 1344.17 450.544 1344.19 450.521C1344.2 450.499 1344.21 450.489 1344.22 450.466C1344.24 450.443 1344.25 450.433 1344.26 450.41C1344.28 450.386 1344.29 450.377 1344.31 450.353C1344.43 450.202 1344.54 450.063 1344.66 449.941C1345.09 449.534 1345.54 449.176 1346.14 449.07C1346.57 448.994 1346.94 449.109 1347.25 449.505C1347.29 449.557 1347.29 449.567 1347.3 449.591C1347.31 449.615 1347.32 449.625 1347.33 449.649C1347.34 449.685 1347.34 449.706 1347.35 449.744C1347.35 449.772 1347.36 449.783 1347.36 449.812C1347.37 449.926 1347.34 450.034 1347.42 450.116C1347.49 450.196 1347.44 450.234 1347.38 450.291C1347.28 450.387 1347.25 450.526 1347.19 450.665C1347.17 450.692 1347.16 450.703 1347.15 450.729C1347.12 450.776 1347.1 450.808 1347.08 450.855C1347.06 450.882 1347.06 450.892 1347.05 450.918C1347.03 450.953 1347.02 450.972 1347 451.006C1346.99 451.029 1346.98 451.038 1346.97 451.061C1346.95 451.082 1346.95 451.09 1346.93 451.111C1346.92 451.132 1346.91 451.14 1346.9 451.16C1346.89 451.18 1346.88 451.188 1346.87 451.207C1346.85 451.226 1346.84 451.234 1346.83 451.254C1346.82 451.274 1346.81 451.282 1346.8 451.303C1346.79 451.323 1346.78 451.332 1346.77 451.353C1346.75 451.373 1346.75 451.381 1346.73 451.401C1346.72 451.421 1346.71 451.43 1346.7 451.45C1346.68 451.471 1346.68 451.479 1346.66 451.5C1346.65 451.521 1346.64 451.53 1346.63 451.552C1346.61 451.574 1346.61 451.583 1346.59 451.605C1346.58 451.628 1346.57 451.636 1346.55 451.659C1346.54 451.682 1346.53 451.692 1346.52 451.715C1346.5 451.738 1346.49 451.747 1346.48 451.77C1346.46 451.793 1346.45 451.802 1346.43 451.825C1346.42 451.848 1346.41 451.857 1346.39 451.88C1346.36 451.924 1346.34 451.954 1346.32 452.001C1346.3 452.027 1346.29 452.038 1346.28 452.063C1346.26 452.09 1346.26 452.101 1346.24 452.127C1346.22 452.153 1346.22 452.164 1346.2 452.19C1346.18 452.216 1346.17 452.226 1346.15 452.252C1346.13 452.277 1346.12 452.287 1346.11 452.312C1346.04 452.41 1345.98 452.488 1345.93 452.588C1345.91 452.615 1345.91 452.627 1345.89 452.654C1345.87 452.692 1345.86 452.714 1345.83 452.751C1345.82 452.777 1345.81 452.788 1345.8 452.814C1345.78 452.852 1345.77 452.873 1345.75 452.91C1345.73 452.937 1345.73 452.947 1345.71 452.974C1345.69 453.011 1345.68 453.033 1345.65 453.07C1345.64 453.097 1345.63 453.108 1345.62 453.136C1345.53 453.301 1345.46 453.454 1345.38 453.618C1345.36 453.647 1345.35 453.659 1345.34 453.688C1345.28 453.805 1345.22 453.903 1345.21 454.014C1345.2 454.09 1345.25 454.169 1345.15 454.233C1344.98 454.354 1344.92 454.556 1344.84 454.764C1344.78 454.962 1344.72 455.138 1344.64 455.305C1343.84 456.953 1343.38 458.702 1343.11 460.505C1343.01 461.142 1342.95 461.784 1342.92 462.429C1342.87 463.249 1342.87 464.066 1342.94 464.909C1342.94 465.167 1343.1 465.208 1343.31 465.221C1343.57 464.9 1343.65 464.517 1343.71 464.155C1343.83 463.488 1343.95 462.817 1344.02 462.14C1344.09 461.493 1344.16 460.846 1344.28 460.206C1344.47 459.25 1344.74 458.316 1345.03 457.393C1345.25 456.732 1345.43 456.058 1345.7 455.417C1346.04 454.606 1346.4 453.799 1346.82 452.995C1346.84 452.959 1346.85 452.945 1346.87 452.912C1346.89 452.882 1346.9 452.871 1346.92 452.845C1346.94 452.82 1346.95 452.811 1346.97 452.789C1346.99 452.768 1347 452.76 1347.02 452.74C1347.04 452.721 1347.05 452.712 1347.07 452.692C1347.08 452.672 1347.09 452.664 1347.11 452.642C1347.13 452.618 1347.14 452.609 1347.15 452.585C1347.27 452.447 1347.37 452.317 1347.53 452.227C1347.6 452.178 1347.67 452.197 1347.73 452.138C1347.75 452.119 1347.76 452.111 1347.79 452.095C1347.81 452.059 1347.81 452.033 1347.85 452.009C1347.95 451.921 1348.05 451.902 1348.18 451.914C1348.59 451.549 1349.08 451.406 1349.58 451.284C1350.82 450.976 1352.03 451.15 1353.23 451.52C1354.31 451.854 1355.4 452.196 1356.54 452.279C1357.5 452.349 1358.43 452.267 1359.32 451.856C1359.62 451.721 1359.89 451.547 1360.18 451.37C1360.38 451.31 1360.53 451.215 1360.66 451.084C1360.86 450.898 1361.05 450.704 1361.28 450.522C1361.38 450.45 1361.43 450.352 1361.5 450.271L1361.62 450.147C1361.66 450.096 1361.66 450.036 1361.63 449.957C1361.68 449.881 1361.72 449.821 1361.78 449.748C1361.8 449.727 1361.81 449.718 1361.83 449.693C1361.86 449.638 1361.88 449.599 1361.91 449.543C1361.93 449.458 1361.94 449.389 1361.96 449.3C1361.96 449.161 1361.87 449.116 1361.76 449.071C1361.52 448.969 1361.38 448.772 1361.15 448.665C1360.88 448.521 1360.61 448.426 1360.41 448.192C1360.36 448.142 1360.32 448.141 1360.26 448.132C1360.19 448.131 1360.14 448.114 1360.08 448.089C1359.97 448.06 1359.9 448.013 1359.83 447.923C1359.75 447.907 1359.73 447.822 1359.65 447.816C1359.44 447.735 1359.25 447.653 1359.08 447.546C1357.75 446.722 1356.79 445.593 1356.2 444.143C1356 443.637 1355.76 443.149 1355.47 442.688C1355.4 442.58 1355.3 442.487 1355.28 442.313C1355.29 442.138 1355.31 442.001 1355.26 441.864C1355.15 441.546 1355.23 441.282 1355.45 441.023C1355.85 440.552 1356.22 440.055 1356.5 439.502C1356.56 439.38 1356.63 439.26 1356.74 439.148C1357.01 438.595 1357.27 438.062 1357.58 437.521C1357.58 437.396 1357.64 437.306 1357.68 437.188C1357.79 437.023 1357.77 436.819 1357.92 436.675C1357.97 436.435 1358.12 436.241 1358.12 435.987C1358.11 435.904 1358.1 435.842 1358.1 435.759C1358.09 435.724 1358.08 435.71 1358.05 435.691C1358 435.693 1357.97 435.707 1357.94 435.737C1357.92 435.761 1357.9 435.771 1357.87 435.784C1357.71 435.752 1357.57 435.732 1357.43 435.823C1357.16 435.94 1356.89 436.009 1356.63 436.148C1356.16 436.321 1355.69 436.471 1355.25 436.713C1355.01 436.788 1354.8 436.895 1354.59 436.995C1354.31 437.13 1354.03 437.335 1353.7 437.086C1353.68 437.067 1353.63 437.072 1353.6 437.066C1353.38 437.035 1353.19 436.946 1353.05 436.777C1352.96 436.679 1352.86 436.607 1352.74 436.55C1352.64 436.498 1352.53 436.475 1352.45 436.536C1352.53 436.297 1352.44 436.012 1352.55 435.741C1352.58 435.594 1352.58 435.466 1352.55 435.317C1352.54 435.252 1352.54 435.206 1352.53 435.139C1352.47 434.765 1352.52 434.409 1352.48 434.035C1352.45 433.832 1352.46 433.648 1352.42 433.445C1352.39 433.335 1352.38 433.239 1352.27 433.187C1352.23 433.045 1352.15 433.003 1352.02 433.017Z" fill="#6E2409"/>
</svg>
