<?xml version="1.0" encoding="UTF-8"?><svg
  id="Layer_1"
  xmlns="http://www.w3.org/2000/svg"
  width="400"
  height="100"
  viewBox="0 0 400 100"
>
  <defs>
    <style>
      .cls-1 {
        fill: #f8b166ff;
      }
    </style>
  </defs>
  <path
    class="cls-1"
    d="M381.26,87.06c.49-9.07.49-18.33-1.52-27.48-2.41-10.77-7.95-21.33-17.32-28.13-4.62-3.4-10.31-5.52-16.02-6.07-5.73-.59-11.48.2-16.87,1.88-3.26,1.03-6.39,2.42-9.38,4.07-.72.29-1.43.58-2.14.9-2.05-7.59-6.35-14.57-12.38-19.72-6.57-5.6-15.11-8.7-23.69-8.95-8.57-.33-17.4,2.27-24.32,7.57-6.78,5.08-11.81,12.36-14.26,20.53-3.77.68-7.45,1.93-10.81,3.74-7.25,3.87-12.91,10.11-16.66,17.25-.31.07-.62.16-.94.2-.08,0-.16-.01-.25-.01-67.77-2-135.91,9.27-199.59,32.85-5.26,2.01-9.03,4.87-8.42,6.37.25.62,1.23.91,2.62.9-.33.23-.56.47-.56.71.02,1.63,7.97,2.85,17.76,2.73l350.34-5.13-.03.57c-.16,2.47.63,4.55,1.77,4.62,1.14.08,2.2-1.87,2.36-4.36.02-.3.04-.59.06-.89,6.85-.09,12.37-1.08,12.36-2.22-.01-1.12-5.4-1.96-12.11-1.92h0ZM239.62,88.4c.74-.01,1.48,0,2.22,0l-3,.03c.26,0,.52-.03.78-.03ZM26.44,90.49c-3.21.04-6.18.23-8.78.51,1.49-.56,2.99-1.09,4.48-1.64,1.73,1.46,6.03.93,7.82,1.03.43.02.86.04,1.3.06l-4.82.05h0Z"
  />
</svg>
