<svg width="1000" height="1000" viewBox="0 0 1000 1000" fill="none" xmlns="http://www.w3.org/2000/svg">
<path d="M415 795.1L487.1 213L503.2 204L425 795.1H415Z" fill="#6E2409"/>
<path d="M492.601 255.5L491.301 264.6L522.801 269.8L523.501 260L492.601 255.5Z" fill="#6E2409"/>
<path d="M461.9 476.699L495.8 481.899L496.5 472.099L463.1 467.699L461.9 476.699Z" fill="#6E2409"/>
<path d="M473.3 394.801L472 404.201L499.2 408.401L503.8 398.601L473.3 394.801Z" fill="#6E2409"/>
<path d="M483.101 324.4L481.701 333.9L506.101 337.6L510.501 327.8L483.101 324.4Z" fill="#6E2409"/>
<path d="M584.054 233.781L549.046 518.894L481.598 510.611L516.604 225.5L584.054 233.781ZM506.51 490.397L503.81 494.384L508.573 494.969L511.273 490.982L517.734 481.413L521.688 492.262L523.343 496.782L528.106 497.367L526.451 492.847L518.883 472.055L506.51 490.397ZM510.3 452.9L514.554 453.423L515.899 442.465L520.153 442.987C521.684 443.175 522.912 444.155 523.51 445.472L523.587 445.688L525.319 450.427L526.975 454.947L531.739 455.532L530.083 451.012L527.512 443.821C528.167 443.833 528.8 443.738 529.412 443.537C531.749 442.788 533.556 440.73 533.874 438.144C534.091 436.374 533.573 434.687 532.562 433.354C531.548 432.055 530.036 431.143 528.267 430.926L513.225 429.079L510.3 452.9ZM527.744 435.18C528.493 435.272 528.961 435.675 529.2 435.98C529.409 436.248 529.75 436.843 529.654 437.625C529.55 438.476 528.944 439.196 528.119 439.44C527.83 439.543 527.515 439.574 527.209 439.536L516.417 438.245L516.956 433.855L527.744 435.18ZM516.554 392.498L526.32 393.697L523.918 413.265L528.171 413.787L530.574 394.22L540.341 395.419L540.863 391.165L517.076 388.244L516.554 392.498ZM529.722 348.454C526.183 348.02 522.969 350.561 522.534 354.101L522.518 354.236C522.35 355.598 522.604 356.907 523.193 358.016C523.386 358.419 523.616 358.793 523.885 359.137C524.904 360.402 526.386 361.275 528.121 361.488L536.696 362.541C538.5 362.762 539.818 364.409 539.597 366.213C539.375 368.016 537.698 369.296 535.895 369.074L528.441 368.159C526.638 367.938 525.355 366.295 525.576 364.491L521.322 363.97C520.813 368.121 523.768 371.903 527.919 372.413L535.372 373.328C539.524 373.838 543.307 370.883 543.816 366.731C544.038 364.928 543.595 363.18 542.699 361.758C542.61 361.643 542.554 361.533 542.465 361.418C541.287 359.754 539.431 358.559 537.219 358.287L528.644 357.234C527.453 357.088 526.586 355.98 526.732 354.789L526.749 354.652C526.895 353.462 528.004 352.596 529.194 352.742L538.859 353.929C540.05 354.075 540.916 355.183 540.77 356.374L540.753 356.511L545.011 356.998L545.027 356.862C545.462 353.323 542.925 350.075 539.386 349.641L529.722 348.454ZM526.669 310.116L536.436 311.315L534.032 330.883L538.286 331.405L540.689 311.838L550.456 313.037L550.978 308.783L527.19 305.862L526.669 310.116ZM553.983 277.429C553.943 277.447 553.923 277.462 553.896 277.497C553.863 277.556 553.839 277.6 553.803 277.657C553.781 277.771 553.722 277.853 553.696 277.965C553.695 277.995 553.694 278.007 553.691 278.037C553.688 278.067 553.686 278.08 553.682 278.109C553.562 278.28 553.505 278.47 553.371 278.637C553.337 278.72 553.285 278.772 553.271 278.863C553.278 278.939 553.241 278.997 553.22 279.023C552.65 279.727 552.071 280.426 551.339 280.97C550.365 281.692 549.272 282.18 548.122 282.551C547.067 282.891 545.986 283.135 544.915 283.416C543.262 283.85 541.771 284.573 540.491 285.723C539.282 286.81 538.367 288.095 537.764 289.607C537.543 290.162 537.413 290.738 537.285 291.315C537.212 291.644 537.162 291.977 537.017 292.308C537.021 292.859 536.925 293.382 536.961 293.934C536.918 294.062 536.914 294.172 536.903 294.282C536.879 294.525 536.972 294.759 536.952 295.02C536.94 295.093 536.944 295.148 536.938 295.223C536.936 295.256 536.939 295.27 536.942 295.304C536.941 295.351 536.938 295.379 536.934 295.428C536.973 295.547 536.998 295.649 537.017 295.774C537.053 295.828 537.079 295.863 537.125 295.89C537.135 295.892 537.155 295.897 537.171 295.902C537.205 295.92 537.226 295.927 537.264 295.925C537.311 295.912 537.343 295.902 537.389 295.884C537.46 295.845 537.502 295.785 537.593 295.779C537.636 295.771 537.662 295.769 537.703 295.757C537.731 295.723 537.744 295.7 537.769 295.664C537.796 295.632 537.815 295.616 537.852 295.595C537.964 295.532 538.068 295.487 538.146 295.378C538.296 295.303 538.445 295.274 538.584 295.209C539.416 294.819 540.291 294.55 541.198 294.417C543.047 294.146 544.874 293.805 546.605 293.062C549.183 291.957 551.443 290.433 553.179 288.189C554.679 286.25 555.364 284.056 555.302 281.615C555.286 280.985 555.158 280.371 555.068 279.73C555.042 279.693 555.021 279.673 555.012 279.62C554.954 279.374 554.791 279.184 554.786 278.921C554.782 278.641 554.58 278.461 554.52 278.201C554.491 278.039 554.384 277.933 554.335 277.782C554.272 277.697 554.256 277.592 554.133 277.574C554.098 277.501 554.083 277.43 553.983 277.429ZM548.268 285.763C548.305 285.878 548.218 285.954 548.172 286.035C547.54 287.14 546.671 288.04 545.711 288.86C545 289.468 544.229 289.99 543.414 290.448C543.341 290.489 543.199 290.507 543.231 290.617C543.26 290.713 543.392 290.681 543.479 290.682C545.441 290.693 547.25 290.153 548.927 289.15C549.06 289.071 549.191 288.989 549.337 288.899C549.366 289.008 549.296 289.052 549.257 289.104C547.999 290.795 546.29 291.811 544.303 292.41C543.327 292.704 542.321 292.848 541.319 293.014C540.327 293.178 539.39 293.503 538.501 293.972C538.421 294.014 538.333 294.042 538.229 294.075C538.206 293.885 538.324 293.736 538.391 293.554C538.425 293.516 538.439 293.489 538.456 293.447C538.464 293.188 538.657 293.008 538.702 292.757C538.711 292.748 538.715 292.745 538.716 292.743C538.741 292.721 538.749 292.689 538.774 292.648C538.786 292.638 538.784 292.638 538.784 292.64C538.828 292.605 538.817 292.549 538.848 292.491C538.861 292.479 538.858 292.48 538.859 292.481C538.93 292.354 538.974 292.213 539.066 292.074C539.081 292.061 539.079 292.06 539.079 292.062C539.119 291.984 539.171 291.91 539.211 291.811C539.218 291.805 539.221 291.801 539.222 291.8C539.265 291.766 539.254 291.71 539.285 291.652C539.292 291.646 539.296 291.643 539.297 291.642C539.323 291.62 539.331 291.587 539.356 291.547C539.368 291.536 539.364 291.537 539.364 291.539C539.39 291.518 539.399 291.484 539.424 291.443C539.436 291.432 539.434 291.434 539.435 291.436C539.461 291.414 539.468 291.381 539.493 291.341C539.504 291.331 539.502 291.33 539.502 291.331C539.528 291.31 539.536 291.278 539.562 291.237C539.567 291.232 539.57 291.229 539.57 291.229C539.599 291.205 539.605 291.171 539.632 291.137C540.244 290.275 540.907 289.473 541.701 288.785C543.328 287.376 545.232 286.52 547.294 285.979C547.597 285.9 547.903 285.829 548.208 285.756C548.224 285.752 548.244 285.76 548.268 285.763ZM550.62 242.517C550.502 242.648 550.352 242.685 550.191 242.728C549.97 242.603 549.86 242.788 549.7 242.873C549.652 242.924 549.607 242.946 549.562 242.964C548.938 243.215 548.349 243.525 547.822 243.983C547.759 244.064 547.672 244.065 547.597 244.121C547.387 244.232 547.22 244.37 547.049 244.534C546.477 244.935 545.961 245.378 545.45 245.82C544.729 246.445 544.068 247.134 543.485 247.894C543.31 248.122 543.101 248.275 542.825 248.362C542.27 248.537 541.735 248.76 541.219 249.034C541.062 249.117 540.897 249.213 540.688 249.228C540.518 249.258 540.425 249.384 540.296 249.452C538.854 250.216 537.537 251.16 536.344 252.271C534.895 253.619 533.681 255.154 532.704 256.878C532.527 257.19 532.443 257.535 532.282 257.87C532.257 257.893 532.248 257.903 532.224 257.929C532.2 257.954 532.19 257.965 532.169 257.994C532.121 258.189 531.976 258.357 532.116 258.565C532.082 258.682 532.053 258.779 532.032 258.896C532.05 258.925 532.061 258.936 532.091 258.953C532.137 258.971 532.165 258.98 532.213 258.979C532.243 258.964 532.253 258.954 532.277 258.93C532.3 258.904 532.309 258.894 532.33 258.868C532.359 258.833 532.375 258.812 532.402 258.776C532.427 258.741 532.438 258.719 532.449 258.678C532.487 258.607 532.546 258.585 532.603 258.531C532.651 258.482 532.691 258.451 532.742 258.404C532.763 258.38 532.771 258.37 532.79 258.344C533.067 257.97 533.399 257.676 533.723 257.375C533.79 257.313 533.875 257.248 533.969 257.315C534.048 257.373 534.029 257.467 534 257.545C533.953 257.67 533.95 257.797 533.966 257.926C534.031 258.435 533.867 258.854 533.57 259.278C532.709 260.511 532.065 261.856 531.713 263.325C531.601 263.791 531.458 264.258 531.495 264.748C531.506 264.897 531.476 265.027 531.375 265.158C531.436 265.689 531.398 266.201 531.408 266.735C531.409 266.775 531.411 266.791 531.42 266.83C531.5 266.931 531.494 267.063 531.612 267.133C531.676 267.421 531.733 267.69 531.791 267.959C531.812 267.96 531.834 267.96 531.855 267.961C531.882 267.833 531.909 267.703 531.954 267.556C532.075 267.453 532.104 267.34 532.114 267.212C532.122 267.11 532.11 266.995 532.232 266.907C532.284 266.858 532.309 266.819 532.346 266.761C532.377 266.703 532.387 266.662 532.393 266.599C532.37 266.426 532.418 266.267 532.44 266.125C532.47 266.226 532.549 266.32 532.627 266.418C532.742 266.561 532.82 266.73 532.915 266.887C532.958 266.957 532.992 267.053 533.066 267.077C533.299 267.151 533.287 267.334 533.297 267.52C533.33 268.121 533.349 268.725 533.524 269.329C533.567 269.777 533.711 270.178 533.869 270.571C534.65 272.514 535.931 274 537.84 274.916C538.613 275.287 539.431 275.499 540.269 275.645C540.795 275.736 541.329 275.766 541.881 275.666C541.989 275.548 541.934 275.474 541.848 275.404C541.779 275.349 541.711 275.3 541.667 275.213C541.521 274.92 541.351 274.64 541.207 274.324C541.194 274.295 541.188 274.284 541.176 274.256C541.164 274.229 541.159 274.219 541.148 274.193C541.138 274.169 541.133 274.159 541.123 274.136C541.113 274.113 541.11 274.103 541.1 274.081C541.089 274.059 541.085 274.051 541.075 274.029C541.065 274.008 541.061 274 541.052 273.979C541.043 273.957 541.04 273.948 541.031 273.927C541.023 273.905 541.02 273.896 541.012 273.874C541.004 273.851 541.001 273.842 540.994 273.818C540.987 273.794 540.984 273.784 540.978 273.76C540.969 273.724 540.963 273.704 540.953 273.668C540.945 273.642 540.942 273.631 540.934 273.604C540.925 273.578 540.922 273.567 540.913 273.54C540.904 273.513 540.901 273.502 540.892 273.475C540.883 273.447 540.878 273.437 540.869 273.409C540.86 273.381 540.857 273.37 540.848 273.342C540.839 273.314 540.835 273.303 540.827 273.274C540.819 273.246 540.816 273.235 540.809 273.206C540.789 273.132 540.772 273.075 540.752 273.001C540.744 272.972 540.742 272.96 540.734 272.931C540.713 272.839 540.688 272.766 540.666 272.673C540.658 272.64 540.656 272.627 540.647 272.594C540.478 271.804 540.39 271.026 540.37 270.217C540.368 270.179 540.367 270.163 540.365 270.124C540.35 269.843 540.342 269.582 540.364 269.327C540.419 268.699 540.34 268.068 540.435 267.438C540.505 266.967 540.553 266.493 540.684 266.008C540.693 265.939 540.7 265.893 540.708 265.826C540.732 265.638 540.747 265.47 540.807 265.29C540.827 265.231 540.838 265.19 540.848 265.129C540.887 264.85 540.977 264.605 541.031 264.33C541.051 264.273 541.064 264.235 541.075 264.176C541.159 263.874 541.201 263.581 541.325 263.291C541.354 263.225 541.366 263.174 541.382 263.104C541.437 262.94 541.472 262.79 541.527 262.626C541.539 262.596 541.544 262.583 541.554 262.553C541.686 262.168 541.841 261.813 541.989 261.436C542 261.407 542.004 261.395 542.016 261.367C542.032 261.329 542.042 261.308 542.06 261.271C542.072 261.246 542.077 261.236 542.09 261.211C542.108 261.177 542.119 261.158 542.138 261.125C542.151 261.102 542.156 261.092 542.169 261.068C542.186 261.035 542.195 261.016 542.212 260.982C542.224 260.959 542.228 260.95 542.24 260.927C542.257 260.894 542.266 260.875 542.283 260.842C542.295 260.819 542.301 260.809 542.313 260.786C542.326 260.763 542.331 260.754 542.345 260.731C542.358 260.709 542.364 260.7 542.378 260.677C542.398 260.645 542.409 260.626 542.43 260.594C542.444 260.57 542.45 260.561 542.465 260.537C542.485 260.504 542.497 260.484 542.519 260.451C542.534 260.427 542.541 260.417 542.557 260.394C542.578 260.36 542.59 260.34 542.609 260.306C542.623 260.281 542.629 260.271 542.643 260.246C542.657 260.222 542.662 260.212 542.677 260.188C542.691 260.164 542.697 260.155 542.712 260.132C542.727 260.109 542.733 260.099 542.748 260.076C542.763 260.053 542.77 260.044 542.785 260.021C542.801 259.999 542.807 259.989 542.823 259.966C542.84 259.943 542.846 259.933 542.863 259.91C542.881 259.886 542.888 259.877 542.906 259.853C543.027 259.702 543.135 259.563 543.261 259.441C543.684 259.034 544.139 258.676 544.738 258.57C545.17 258.494 545.542 258.609 545.852 259.005C545.884 259.057 545.889 259.067 545.9 259.091C545.911 259.115 545.916 259.125 545.925 259.149C545.936 259.185 545.94 259.206 545.948 259.244C545.953 259.272 545.955 259.283 545.959 259.312C545.972 259.426 545.942 259.534 546.017 259.616C546.089 259.696 546.04 259.734 545.981 259.791C545.881 259.887 545.849 260.026 545.784 260.165C545.77 260.192 545.764 260.203 545.748 260.229C545.719 260.276 545.701 260.308 545.676 260.355C545.663 260.382 545.658 260.392 545.645 260.418C545.626 260.453 545.616 260.472 545.598 260.506C545.585 260.529 545.58 260.538 545.566 260.561C545.553 260.582 545.547 260.59 545.533 260.611C545.519 260.632 545.514 260.64 545.499 260.66C545.484 260.68 545.479 260.688 545.464 260.707C545.449 260.726 545.443 260.734 545.43 260.754C545.416 260.774 545.41 260.782 545.397 260.803C545.384 260.823 545.379 260.832 545.365 260.853C545.352 260.873 545.346 260.881 545.332 260.901C545.317 260.921 545.311 260.93 545.297 260.95C545.283 260.971 545.276 260.979 545.262 261C545.247 261.021 545.24 261.03 545.226 261.052C545.211 261.074 545.206 261.083 545.19 261.105C545.175 261.128 545.168 261.136 545.152 261.159C545.137 261.182 545.13 261.192 545.114 261.215C545.098 261.238 545.092 261.247 545.075 261.27C545.058 261.293 545.051 261.302 545.033 261.325C545.016 261.348 545.009 261.357 544.991 261.38C544.961 261.424 544.941 261.454 544.915 261.501C544.9 261.527 544.893 261.538 544.878 261.563C544.862 261.59 544.855 261.601 544.838 261.627C544.821 261.653 544.814 261.664 544.796 261.69C544.777 261.716 544.769 261.726 544.75 261.752C544.731 261.777 544.723 261.787 544.704 261.812C544.642 261.91 544.583 261.988 544.524 262.088C544.51 262.115 544.504 262.127 544.489 262.154C544.468 262.192 544.456 262.214 544.434 262.251C544.418 262.277 544.413 262.288 544.397 262.314C544.377 262.352 544.365 262.373 544.345 262.41C544.33 262.437 544.324 262.447 544.31 262.474C544.288 262.511 544.275 262.533 544.253 262.57C544.237 262.597 544.231 262.608 544.215 262.636C544.131 262.801 544.063 262.954 543.974 263.118C543.958 263.147 543.951 263.159 543.935 263.188C543.876 263.305 543.821 263.403 543.809 263.514C543.8 263.59 543.846 263.669 543.752 263.733C543.575 263.854 543.518 264.056 543.435 264.264C543.374 264.462 543.319 264.638 543.238 264.805C542.44 266.453 541.977 268.202 541.706 270.005C541.61 270.642 541.552 271.284 541.515 271.929C541.468 272.749 541.464 273.566 541.539 274.409C541.54 274.667 541.703 274.708 541.907 274.721C542.167 274.4 542.244 274.017 542.311 273.655C542.433 272.988 542.547 272.317 542.618 271.64C542.686 270.993 542.757 270.346 542.881 269.706C543.065 268.75 543.334 267.816 543.632 266.893C543.845 266.232 544.024 265.558 544.297 264.917C544.642 264.106 544.997 263.299 545.418 262.495C545.438 262.459 545.447 262.445 545.468 262.412C545.488 262.382 545.496 262.371 545.517 262.345C545.537 262.32 545.545 262.311 545.565 262.289C545.586 262.268 545.595 262.26 545.615 262.24C545.636 262.221 545.644 262.212 545.664 262.192C545.683 262.172 545.691 262.164 545.709 262.142C545.726 262.118 545.734 262.109 545.752 262.085C545.87 261.947 545.97 261.817 546.132 261.727C546.195 261.678 546.269 261.697 546.327 261.638C546.351 261.619 546.361 261.611 546.386 261.595C546.406 261.559 546.413 261.533 546.45 261.509C546.547 261.421 546.649 261.402 546.781 261.414C547.193 261.049 547.683 260.906 548.175 260.784C549.415 260.476 550.63 260.65 551.829 261.02C552.913 261.354 553.997 261.696 555.138 261.779C556.096 261.849 557.033 261.767 557.922 261.356C558.215 261.221 558.484 261.047 558.776 260.87C558.976 260.81 559.125 260.715 559.262 260.584C559.457 260.398 559.646 260.204 559.876 260.022C559.976 259.95 560.029 259.852 560.097 259.771L560.221 259.647C560.258 259.596 560.262 259.536 560.227 259.457C560.279 259.381 560.322 259.321 560.379 259.248C560.402 259.227 560.411 259.218 560.426 259.193C560.456 259.138 560.479 259.099 560.508 259.043C560.526 258.958 560.541 258.889 560.56 258.8C560.556 258.661 560.469 258.616 560.355 258.571C560.121 258.469 559.975 258.272 559.744 258.165C559.482 258.021 559.213 257.926 559.007 257.692C558.962 257.642 558.919 257.641 558.859 257.632C558.787 257.631 558.739 257.614 558.674 257.589C558.567 257.56 558.494 257.513 558.426 257.423C558.346 257.407 558.329 257.322 558.245 257.316C558.038 257.235 557.853 257.153 557.68 257.046C556.353 256.222 555.388 255.093 554.802 253.643C554.598 253.137 554.36 252.649 554.068 252.188C554 252.08 553.904 251.987 553.882 251.813C553.892 251.638 553.906 251.501 553.859 251.364C553.75 251.046 553.831 250.782 554.05 250.523C554.449 250.052 554.816 249.555 555.1 249.002C555.162 248.88 555.228 248.76 555.335 248.648C555.605 248.095 555.873 247.562 556.174 247.021C556.181 246.896 556.236 246.806 556.275 246.688C556.392 246.523 556.366 246.319 556.522 246.175C556.572 245.935 556.714 245.741 556.723 245.487C556.707 245.404 556.701 245.342 556.7 245.259C556.684 245.224 556.677 245.21 556.648 245.191C556.597 245.193 556.571 245.207 556.539 245.237C556.517 245.261 556.502 245.271 556.467 245.284C556.31 245.252 556.172 245.232 556.024 245.323C555.754 245.44 555.486 245.509 555.226 245.648C554.754 245.821 554.294 245.971 553.851 246.213C553.609 246.288 553.402 246.395 553.191 246.495C552.907 246.63 552.629 246.835 552.303 246.586C552.277 246.567 552.232 246.572 552.196 246.566C551.979 246.535 551.793 246.446 551.648 246.277C551.563 246.179 551.456 246.107 551.341 246.05C551.237 245.998 551.13 245.975 551.045 246.036C551.132 245.797 551.034 245.512 551.153 245.241C551.183 245.094 551.183 244.966 551.151 244.817C551.138 244.752 551.14 244.706 551.13 244.639C551.072 244.265 551.119 243.909 551.076 243.535C551.048 243.332 551.058 243.148 551.02 242.945C550.99 242.835 550.979 242.739 550.864 242.687C550.832 242.545 550.746 242.503 550.62 242.517Z" fill="#6E2409"/>
</svg>
