<?xml version="1.0" encoding="UTF-8"?>
<svg id="Layer_1" xmlns="http://www.w3.org/2000/svg" version="1.1" viewBox="0 0 1920 1080">
  <!-- Generator: Adobe Illustrator 29.0.0, SVG Export Plug-In . SVG Version: 2.1.0 Build 186)  -->
  <defs>
    <style>
      .st0 {
        fill: #ce390b;
      }

      .st1 {
        fill: #e7c79d;
      }

      .st2 {
        fill: #ff6c08;
      }

      .st3 {
        fill: #f7e9e7;
      }

      .st4 {
        fill: #541c08;
      }

      .st5 {
        fill: #0f0e0e;
      }

      .st6 {
        fill: #828d93;
      }

      .st7 {
        fill: #8c2f13;
      }

      .st8 {
        opacity: .5;
      }

      .st9 {
        fill: #100f0f;
      }

      .st10 {
        fill: #eb551d;
      }

      .st11 {
        fill: #d3e4f8;
      }
    </style>
  </defs>
  <g>
    <g>
      <path class="st3" d="M488.7,866.1c2.7,6.1,0,12.9-5.9,15.3-6,2.2-11.9-.9-14.6-7s-.6-12.9,5.3-15.1c6-2.2,12.4.8,15.1,7h0Z"/>
      <path class="st0" d="M484.7,869.1c-4.7,1.8-9.6.5-11.2-2.9-1.2-2.6,0-5.6,2.8-7.7-1.1,0-2.1.2-3.2.7-6,2.2-8.6,9-5.9,15.3,2.7,6.1,9.7,9.3,15.6,6.9,5.9-2.2,8.5-8.8,6-14.9-1.1,1.2-2.5,2-4.1,2.7h-.1Z"/>
      <path class="st0" d="M471.6,868.1c.8-.4,6.3-4.7,9.7-7.5,1.9-1.4,4.5-1.9,6.7-1.2l3.1,1.1c2,.7,2.6,3.2.9,4.5l-4.2,3.9-16.3-.7h.1Z"/>
      <g>
        <path class="st7" d="M525.5,928.4c-5.4-5-10.1-8.5-12.3-11l-36-30.3c14.3,0,29.5,5.9,29.5,5.9,9.5,3.8,22.8,11.9,35.2,24.4l-16.2,10.9h-.1Z"/>
        <path class="st7" d="M519.8,942.8c3.4-4,6.3-7.9,8.6-11.6l-2.8-2.7-2.5-7.4-1.8-9.2s-.2-11.5,11.2-3.1c7.2,5.3,12.6,12.2,15.6,16.8,1.9,2.8,2.1,6.3.5,9.2s0,0,0,0c-3.6,6.6-22.5,21.6-27.6,21-6.7-.8-3.9-9.9-1.2-12.9h0Z"/>
        <g>
          <path class="st7" d="M539.1,943.3v.7s12.7-13,12.4-13.4c-.8-1.3-6.3-2.8-8.2-.6s-4.5,13.3-4.5,13.3h.2Z"/>
          <path class="st7" d="M545.8,933.6s7.5-8.5,4.8-9.3c-2.7-.9-7.9,4.9-7.9,4.9l3.1,4.3h0Z"/>
        </g>
        <path class="st7" d="M529,990.5l-.5-.2c-2.2-1.6-4-3.9-4.8-6.6,0-.4-.2-.7-.4-1.1-1.5-5.8-2.7-13.7-3.9-22.3-2.6-20.4-4.2-44.4-4.6-48.1h0l-13.4-34.1c-6.1-2.9-12.6-4.9-19-4.5h0c-6.3.7-12.3,3.8-17.7,7.7l-6,35.7h0c.5,3.8,4.2,26.9,6.1,47.3.8,8.8,1.2,17.1.9,23.2v1.8c-.4,2.6-1.4,5-3.3,6.9-2.6,2.6-.2,6.9,3.5,6.6l14.8-1.3c2.9-.2,5.2-2.7,4.8-5.5,0,0,.7-5.4,1.4-10.3,0-1.1.4-2.1.5-3.1,2.2,0,4.6-.1,6.9-.4,2.2-.1,4.3-.5,6.3-.8h0c.4.9.7,1.9,1.2,2.8,1.8,4.6,4,9.7,4,9.7.4,2.8,2.9,4.8,5.9,4.6l14.8-1.3c3.8-.4,5.2-4.9,2-7l.2-.4v.5Z"/>
        <path class="st7" d="M452.5,935.9c4.2-6,8.2-10,9.9-13l28.9-36.2c-14,2.7-27.6,11-27.6,11-8.6,5.4-19.8,15.7-29.2,30.3l18.2,7.9h-.1Z"/>
        <path class="st1" d="M513.7,893c-4.3-5.2-4.8-1.5-8-2.9-11.2,2-21.4,4.8-21.4,4.8l-26.2-.8s-3.5,1.4-2,2.1c1.1.5,18.2,50.3,34.5,49.1,16-1.1,22.4-51.7,23-52.3h0Z"/>
        <path class="st7" d="M509.1,871.1c-2,1.9-7.9,4.5-9.9,2.7s.4-7.4,2.3-9.3c2-1.9,5.3-2,7.3-.1s2.1,4.9.2,6.8h0Z"/>
        <path class="st1" d="M506.9,870.2c-1.1,1.1-4.2,2.5-5.4,1.4s.1-4.1,1.3-5.2,2.8-1.1,4,0,1.2,2.7,0,3.8h.1Z"/>
        <path class="st7" d="M456.6,875.8c2.2,1.5,8.6,3.1,10.2.8,1.6-2.1-2-7.3-4.3-8.8s-5.6-1.1-7.2,1.2-1.1,5.3,1.3,6.7h0Z"/>
        <path class="st1" d="M458.8,874.5c1.3.8,4.6,1.6,5.6.5s-1.2-3.9-2.3-4.8-3.1-.6-3.9.7-.6,2.8.7,3.6h-.1Z"/>
        <path class="st7" d="M493.3,866.2c-.8-.9-2.9-1.2-5.3-1.1,0-1.1-.1-1.9-.8-1.9-7,.7-21.5,5.2-27.1,15.4-2.1,3.9-8.6,18.2.5,27.5,5.9,6,13.5,9.7,19.1,11.9,5.2,2,11.3,1.4,16-1.5,5.2-3.1,11.9-8.1,16.2-14.9,6.8-10.5-1.9-22.8-5.2-26.8-5.4-5.6-8.6-6.5-13.2-6.9.1-.7,0-1.3-.2-1.6h0Z"/>
        <path class="st1" d="M490.6,884.6c-.5-1.2-.9-2.3-1.9-3.4-.7-.8-1.5-1.5-2.7-1.6-1.1-.2-2.1,0-3.1,0-1.5.2-2.7.9-3.4,2-1.2,1.8-1.5,3.5-1.4,5.6v.7s0,.4.2.5c.2.6,2.1,4,6.8,3.5,4.8-.4,5.6-4.1,5.8-4.7s0-1.6-.2-2.5h-.1Z"/>
        <g>
          <circle class="st4" cx="478.7" cy="877" r="1.2"/>
          <circle class="st4" cx="490.8" cy="875.8" r="1.2"/>
        </g>
        <path class="st4" d="M484.1,882.5h.5c.6-.4,1.6-1.2,1.6-1.3,0-.5-.5-.7-.9-.9-1.1-.4-2.1-.4-3.1.2-.5.2-.7.6-.7,1.1s1.3.7,2,1.2.4,0,.5,0h0v-.2Z"/>
        <g>
          <path class="st4" d="M488.8,891.1c-.7,0-1.4-.1-2-.7-.4-.2-.4-.7,0-1.1.2-.4.8-.4,1.1,0,.6.5.8.2.9.2.4-.2.7-.7.7-1.1h0c-.4-.2-.6-.7-.5-1.1s.6-.6,1.1-.5c.7.2,1.1.7,1.1,1.4s-.7,2-1.6,2.3c-.2,0-.5,0-.7.2h0Z"/>
          <path class="st4" d="M490.3,888.4h-.8c-.4-.1-.6-.6-.5-.9s.6-.6,1.1-.5h0c.2-.2.4-.8.2-1.2,0,0-.2-.5-.9-.4-.5,0-.8-.4-.8-.7s.4-.7.8-.7c1.2,0,2,.6,2.3,1.4.5.9.1,2.1-.6,2.8s-.6.5-1.1.5v-.2h.2Z"/>
          <path class="st4" d="M489.9,888.4h-.4l-2.1-.8c-.4-.1-.6-.6-.5-.9s.6-.6,1.1-.5l2.1.8c.4.1.6.6.5.9,0,.2-.4.5-.6.5h-.1Z"/>
        </g>
        <g>
          <path class="st4" d="M475.9,874.9c-.5,0-.8-.5-.8-.9s.5-.9,1.1-.9h3.2c.6.1.9.6.9,1.1s-.5.9-1.1.9h-3.2q0-.1-.2-.1h.1Z"/>
          <path class="st4" d="M491.3,873.6c.4-.2.6-.6.5-1.1s-.7-.8-1.2-.7l-3.1.6c-.5,0-.8.6-.7,1.2,0,.5.7.8,1.2.7l3.1-.6h.2,0Z"/>
        </g>
        <g>
          <path class="st1" d="M478,921.9s1.5,5.9-.1,6.3c-6.9,2.2-2.2,7.2-5.2,7.5-8.1.9-12.3-29.2-12.3-29.2l17.6,15.5h0Z"/>
          <path class="st1" d="M498,920.1s-.2,6,1.5,6.2c7.3,1.1,3.8,6.6,6.7,6.5,8.1-.5,5.9-30.9,5.9-30.9l-13.9,18.3h-.2Z"/>
        </g>
        <path class="st7" d="M461.2,948.9c-4.2-3.2-7.9-6.7-10.9-9.9l2.2-3.1.9-7.6-.2-9.3s-2.2-11.4-11.6-1.1c-5.9,6.5-9.7,14.3-11.9,19.3s-.7,6.6,1.5,9.2h0c4.9,5.8,26.7,17.1,31.6,15.6,6.5-2,1.6-10.5-1.8-13h.1Z"/>
        <g>
          <path class="st7" d="M442.4,953v.7s-15.1-10.5-15-10.8c.5-1.5,5.5-3.9,7.9-2s7.2,12.2,7.2,12.2h0Z"/>
          <path class="st7" d="M433.9,944.6s-9.2-6.9-6.8-8.3c2.3-1.3,8.8,3.5,8.8,3.5l-2,4.8Z"/>
        </g>
      </g>
    </g>
    <path class="st7" d="M466.6,992.9l-1.1-1.2c-.6,1.9-1.4,3.6-2.9,4.9-2.6,2.6-.2,6.9,3.5,6.6l2.6-.2c-2.6-4.2-2.2-10.1-2.2-10.1h.1Z"/>
    <path class="st7" d="M529,990.5l-.5-.2c-1.3-.8-2.2-1.9-3.1-3.1.7,3.2-.2,4.8-.2,4.8,2.5-.9,0,3.5-1.3,5.9l2.9-.2c3.8-.4,5.2-4.9,2-7h.1Z"/>
    <path class="st9" d="M529,990.5h0l-.5-.2h0c-.4-.2-.6-.4-.9-.6h0c-.2-.2-.5-.4-.7-.6h0c-.5-.5-1.1-1.1-1.3-1.5-.8-1.1-1.3-2.1-1.6-3.5,0-.4-.2-.7-.4-1.1-.5-1.8-.9-3.9-1.4-6.2-11.2-5.8-49.8-29.5-47.6-60.8,0,0-20.2-31.6,4.1-50.6,0,0-5.9,1.9-8.3,3.6,0,0-2.9-2.5.5-8.1v-.4c-3.5,2.5-5.2,6.7-4.5,11.3,0,0-.2.2-.4.2-.9-1.5-2.3-3.1-3.4-3.8-2.2-1.5-5.6-1.1-7.2,1.2s-1.1,5.3,1.3,6.7c.9.6,2.5,1.2,4,1.5-.2.4-.5.7-.6,1.2-1.4,2.7-4.7,9.7-4.2,17.1h0c.1,2.1.8,4.2,1.8,6.3-5,4-10.6,9.3-16,16h0c-2.9,3.2-5.3,6.7-7.4,10.1h0c-1.8,3.1-3.2,6-4.2,8.5-1.2-.4-2.3-.7-3.1-.1-1.1.7.2,2.5,2.1,4.3v.8c-.8.6-1.6,1.1-1.8,1.5,0,0,1.3,1.1,3.1,2.3.2.4.5.7.8.9h0c4.9,5.8,26.7,17.1,31.6,15.6.8-.2,1.4-.7,1.9-.9,0,1.3.2,2.5.4,3.8.8,8.8,1.2,17.1.9,23.2v1.8c0,.9-.4,1.9-.7,2.7v.4s-.1.4-.2.5c0,0,0,.2-.1.4,0,.2-.2.4-.2.6h0c-.1.4-.2.6-.5.8v.2c-.1.2-.4.4-.5.5v.2c-.4.2-.5.5-.7.7h0c-.8.8-1.2,1.9-1.2,2.8,0,2.1,2,4.1,4.7,3.9l14.8-1.3c2.9-.2,5.2-2.7,4.8-5.5,0,0,.7-5.4,1.4-10.3,0-1.1.4-2.1.5-3.1,2.2,0,4.6-.1,6.9-.4,2.2-.1,4.3-.5,6.3-.8h0c.4.9.7,1.9,1.2,2.8,1.8,4.6,4,9.7,4,9.7.4,2.8,2.9,4.8,5.9,4.6l14.8-1.3c2.6-.2,4.1-2.6,3.8-4.6-.2-.9-.7-1.8-1.6-2.6v-.5h-.4ZM461.2,948.9c-4.2-3.2-7.9-6.7-10.9-9.9l2.2-3.1c2.9-4.1,5.9-7.4,7.9-10,.9,6.6,2.2,16.1,3.5,25.8-.8-1.2-1.8-2.2-2.6-2.8h-.1Z"/>
  </g>
  <g>
    <g>
      <g>
        <path class="st7" d="M1437,993.7l-.4-.4c-2-2-5.6-4.7-7.3-7.5-3.1-4.5-8.1-17.3-12-25.6h0c.8-11.9-.6-23.6-4.3-34.9-1.5-4.3-3.2-8.5-4.9-11.5-4.5-7.5-7.7-13.2-8.8-14.7h0l-27.9-25.2c-6.9,0-13.9.8-19.4,3.9h0c-5.4,3.2-9.5,8.6-12.6,14.4l11,35h0c.8,1.2,3.2,4.6,6.5,9.3,4.1,6,6,13,5.3,20-5.3,7.6-12.6,19.6-16.3,23.6-2.2,2.6-6.2,4.8-8.6,6.3l-.5.2c-3.2,2.2-1.6,6.8,2.1,7.2l15,1.1c3.1.2,5.6-1.9,5.9-4.8,0,0,1.9-4.9,7.6-9.5.2-.1,1.2-1.3,2.7-3.1,9.2.7,23,1.8,24.5,1.8l10.7.8c1.2,1.9,2,3.2,2.2,3.4,4.7,5.3,5.8,10.5,5.8,10.5-.2,2.8,2,5.3,4.9,5.5l15,1.1c3.9.4,6.1-4.1,3.4-6.7v-.4l.2.2Z"/>
        <path class="st7" d="M1396.4,847.1c-3.5-3.6-8.2-7-13.5-6.5-6.8.7-6.8,10.5-4.1,13.7,5.4,6.3,9.2,12.7,11.9,18.3l-2.6,7.6c-2.5,6.9-4.9,12-5.6,15.4l-17.4,43c12.8-6.5,23.6-18.2,23.6-18.2,5-5.6,10.8-14.4,15.4-25.5,1.9-3.9,3.2-8,4.1-11.7h0c.9-3.8,1.4-7.2,1.6-9.7.4-3.5-.2-7.2-2-10.2s0,0,0,0c-3.5-6.6-7.5-11.6-11.3-15.6v-.6Z"/>
        <path class="st7" d="M1342.3,924.3c4.3-6.1,7-11,9.3-13.6l25.4-39.3c2.6,13.4-.6,28.5-.6,28.5-2.2,9.5-8.3,23.5-19.4,37.5l-14.7-13h0Z"/>
        <path class="st7" d="M1359,917.2l-9.4,3.4-7.3,3.8-2.2,3.1c-4.5-1.3-9-3.3-14-5.8-3.8-2-14-.2-13.6,6.2.4,4.9,4.8,8.7,9.2,11.4,4.7,2.8,10.7,5.5,18.3,7.7h0c3.4.9,7,0,9.6-2.2,4.2-3.8,10.6-10.1,14.8-17.8,6.7-12.3-5.4-9.9-5.4-9.9h0Z"/>
        <path class="st1" d="M1343,910.6c.2-5.9,2.5-3.5,4.1-6,9-4.1,18-7.4,18-7.4l18.2-13.9s3.3-.8,2.6.5c-.6.8,15.5,44.7,3.3,52.1-12,7.3-45.3-25.1-46.3-25.5h.1Z"/>
        <g>
          <path class="st1" d="M1384.8,913.1s2.2,4.9,3.8,4.5c6.2-2,5.6,4,8,2.7,6.3-3.4-7.9-27-7.9-27l-3.8,19.8h-.1Z"/>
          <path class="st1" d="M1369.7,921.9s3.5,4.1,2.5,5.2c-4.7,4.3,1.2,6.5-1.1,8-6.1,3.8-21.7-19-21.7-19l20.3,5.9h0Z"/>
        </g>
        <path class="st7" d="M1328.8,890.7c2.8.4,9.3-.8,9.6-3.5.5-2.6-5-5.8-8-6.2s-5.5,1.4-6,4.1c-.5,2.6,1.4,5.2,4.2,5.6h.1Z"/>
        <path class="st1" d="M1330,888.6c1.5.2,5-.5,5.3-1.9s-2.8-3.1-4.3-3.4-3.1.8-3.3,2.2.8,2.9,2.3,3.1h0Z"/>
        <path class="st7" d="M1374.5,864.4c-.9,2.6-5,7.3-7.7,6.6s-3.1-6.8-2.2-9.5c.9-2.6,3.9-4,6.6-3.2s4.2,3.6,3.4,6.1Z"/>
        <path class="st1" d="M1372,864.4c-.5,1.4-2.8,4-4.2,3.6-1.4-.5-1.6-3.8-1.2-5.2s2.1-2.1,3.6-1.8c1.4.5,2.2,2,1.8,3.4h0Z"/>
        <path class="st7" d="M1338.6,877.6c0-1.2,1.6-2.6,3.5-3.9-.7-.8-1.2-1.6-.5-2,6.1-3.5,20.8-8.1,32.1-3.3,4.2,2,18.8,9.6,17.4,22.4-.8,8.1-4.7,15.5-7.9,20.4-3.2,4.9-8.2,7.5-13.9,8-6.2.5-14.8.4-22.9-2.7-12.2-4.6-13.3-19.5-13-24.4.8-7.7,2.7-10.2,6.3-13-.5-.5-.9-1.1-.8-1.6h-.4Z"/>
        <g>
          <path class="st1" d="M1352.5,890.9c-.6-1.2-.7-2.5-.7-3.9s.4-2,1.1-2.9c.7-.7,1.5-1.3,2.5-1.8,1.4-.7,2.8-.8,4.1-.2,2.1.8,3.5,2,4.7,3.6.1.2.2.5.4.7,0,0,0,.4.1.5.1.6.9,4.5-3.2,6.7-4.2,2.3-7.2,0-7.6-.6-.6-.6-1.1-1.3-1.3-2.1h0Z"/>
          <g>
            <g>
              <circle class="st4" cx="1358.9" cy="877.5" r="1.2"/>
              <circle class="st4" cx="1348.3" cy="883.6" r="1.2"/>
            </g>
            <path class="st4" d="M1356.5,885.5h-.5c-.7,0-2.2.2-2.2,0-.1-.5,0-.8.1-1.3.7-.8,1.4-1.4,2.6-1.6.5,0,.9,0,1.3.4.1,0-.5,1.3-.9,2.1s-.2.2-.4.4h0Z"/>
            <polygon class="st4" points="1358.8 889.8 1359.6 889.3 1356.5 884.8 1355.8 885.1 1358.8 889.8"/>
            <path class="st4" d="M1361.7,889.9c-.2,0-.5.2-.7.2-1.1.4-1.9.1-2.3-.7s0-.5.2-.6.5,0,.6.2c.2.5.9.4,1.3.2.9-.4,1.8-1.3,1.8-2.2s.2-.5.5-.5.5.2.5.5c0,1.2-.7,2.2-1.6,2.8h-.1Z"/>
            <path class="st4" d="M1358.4,891.9c-1.1.6-2.5.7-3.5.1-.2,0-.2-.5,0-.6,0-.2.5-.2.7,0,.8.6,2.1.2,2.9-.5.2-.2.7-.7.4-1.2s0-.5.2-.6.5,0,.6.2c.5.8.2,1.6-.6,2.2-.2.1-.4.2-.6.4h-.1Z"/>
          </g>
          <g>
            <path class="st4" d="M1358.9,873.7c.2-.4,0-.8-.5-1.2-.5-.2-1.1-.1-1.4.4l-1.6,2.6c-.4.5-.1,1.1.4,1.3s1.1.1,1.4-.4l1.6-2.6h0c0-.1.1-.1.1-.1Z"/>
            <path class="st4" d="M1344.9,882.2c-.5,0-.8-.4-.9-.6,0-.5.1-1.1.7-1.1l3.1-.8c.6,0,1.1.1,1.2.6,0,.5-.1,1.1-.7,1.1l-3.1.8h-.2Z"/>
          </g>
        </g>
        <g>
          <path class="st4" d="M1323.4,925.1c1.2.7-1.4,1.9-2.8,3.8-1.5,2-1.4,4.1-2.5,3.4s-1.9-3.1-.4-5,4.5-2.9,5.8-2.1h-.1Z"/>
          <path class="st4" d="M1379.7,848.8c.9,1.1,1.8-1.4,3.6-3.1,1.9-1.5,4.2-1.5,3.4-2.7-.9-1.1-3.4-1.4-5.4.1-1.9,1.5-2.6,4.6-1.6,5.5h0Z"/>
        </g>
        <path class="st4" d="M1357.1,891.8s.8,2,2.3,1.2,2.2-3.3,2.2-3.3h-2.2c0,.1-.9,1.6-.9,1.6l-1.4.5h0Z"/>
      </g>
      <g>
        <path class="st7" d="M1405.5,865l3.3-.2s5.6,13.3,4.3,16-6.9.8-7.9-1.9.4-13.7.4-13.7h-.1Z"/>
        <path class="st7" d="M1408.8,878.5s4.2,10.3,1.4,10.3-5.6-7-5.6-7l4.2-3.3h0Z"/>
      </g>
      <g>
        <path class="st7" d="M1330.8,940.6l-.5,2.9s13.6,6.3,16.4,5.4,1.4-6.5-1.3-7.5c-2.8-1.1-14.7-.8-14.7-.8h0Z"/>
        <path class="st7" d="M1343.5,944.2s10.6,4.8,10.8,2.2-7-5.9-7-5.9l-3.9,3.8h.1Z"/>
      </g>
    </g>
    <path class="st9" d="M1422.8,972.3c-41.7-7.3-56.9-52.6-56.9-52.6-26.2-4.6-29.4-22-28.2-29.8,1.2-8,8.6-15,8.6-15-3.1-1.6-.7-5-.7-5,0,.5-6.7,1.6-3.5,3.9-2,1.2-3.5,2.6-3.5,3.9s.4,1.2.8,1.6c-1.5,1.3-2.8,2.5-3.8,4-1.6-1.1-3.6-2-5-2.1-2.8-.4-5.5,1.4-6,4.1-.5,2.6,1.4,5.2,4.2,5.6,1.2.1,2.8,0,4.5-.4,0,.6-.1,1.2-.2,1.8,0,4.9.9,19.8,13,24.4.4,0,.7.2,1.1.4-1.4,2.2-2.9,4.7-4.9,7.4h0l-2.2,3.1c-4.5-1.3-9-3.3-14-5.8-3.8-2-14-.2-13.6,6.2.4,6.5,4.8,8.7,9.2,11.4,2.7,1.5,5.8,3.2,9.3,4.7,2.8,1.2,13.3,5.9,15.7,5,1.2-.5,1.6-1.5,1.5-2.8,2.8.9,5.8,1.6,5.9.2.1-1.1-1.1-2.3-2.7-3.4,1.6-1.6,3.5-3.5,5.4-5.6h0s.2-.2.2-.4c3.8,5.9,5.4,12.6,4.9,19.5-5.3,7.6-12.6,19.6-16.3,23.6-2.2,2.6-6.2,4.8-8.6,6.3l-.5.2c-3.2,2.2-1.6,6.8,2.1,7.2l15,1.1c3.1.2,5.6-1.9,5.9-4.8,0,0,1.9-4.9,7.6-9.5.2-.1,1.2-1.3,2.7-3.1,9.2.7,23,1.8,24.5,1.8l10.7.8c1.2,1.9,2,3.2,2.2,3.4,4.7,5.3,5.8,10.5,5.8,10.5-.2,2.8,2,5.3,4.9,5.5l15,1.1c6.9.5,5-7.2,2.3-8.3-4.8-2.1-10.9-19.4-13.4-19.8h.9Z"/>
  </g>
  <g>
    <g>
      <path class="st7" d="M633.1,984c2-2,3.3-4.3,3.8-7,0-.6,0-1.2.1-1.9.7-6.5.6-15.3,0-24.4-1.1-21.6-4-45.9-4.2-49.9h0l7.9-37.2c5.8-4,12.3-7,18.9-7.4h0c6.7-.2,13.5,2,19.7,5.4l12.6,36.2h0c.2,4,.8,29.1,2.7,50.8.8,9,1.8,17.5,3.1,23.6,0,.4.2.7.2,1.1.6,2.7,2.3,5.3,4.6,7l.5.4c3.2,2.3,1.5,7-2.5,7.3l-15.6.8c-3.2.1-5.9-2-6.1-5.2,0,0-2-5.4-3.6-10.5-.4-1.1-.7-2.1-1.1-3.1h0c-2.1.2-4.5.5-6.8.6-2.6.1-5,.2-7.3,0-.1,1.1-.5,2.1-.6,3.3-.9,5-2,10.7-2,10.7.1,2.9-2.1,5.4-5.3,5.6l-15.6.8c-4,.2-6.2-4.5-3.3-7h.2-.2Z"/>
      <path class="st7" d="M691.6,891.7l10.1-2.3,8.6-.8,4,1.4c2.9-3.6,5.8-7.9,8.2-12.7,2-3.9,11.9-8,15.5-2.2,2.8,4.5,1.4,10.1-.8,14.9-2.2,5-5.6,10.8-10.7,16.8h0c-2.3,2.6-5.9,4-9.5,3.5-6-.8-15.4-2.8-23.7-7-13.4-6.8-1.5-11.4-1.5-11.4h-.1Z"/>
      <g>
        <polygon class="st11" points="734.9 891 654.8 889.6 655.4 857.4 735.5 858.9 734.9 891"/>
        <g>
          <polygon class="st10" points="731.9 864.7 658.7 863.3 658.7 860.8 732 862.1 731.9 864.7"/>
          <g>
            <polygon class="st2" points="663.3 886.4 658.6 886.4 658.6 882.4 663.4 882.5 663.3 886.4"/>
            <polygon class="st2" points="669.5 886.6 664.7 886.5 664.8 882.6 669.6 882.6 669.5 886.6"/>
            <polygon class="st2" points="675.7 886.6 670.9 886.6 671 882.6 675.7 882.8 675.7 886.6"/>
            <polygon class="st10" points="719.7 887.5 715.2 887.5 715.2 883.5 719.8 883.6 719.7 887.5"/>
            <polygon class="st10" points="725.6 887.7 721.1 887.6 721.2 883.7 725.8 883.7 725.6 887.7"/>
            <polygon class="st10" points="731.6 887.7 727.1 887.6 727.1 883.7 731.6 883.8 731.6 887.7"/>
            <polygon class="st10" points="713.8 887.5 677.2 886.8 677.3 882.9 713.8 883.5 713.8 887.5"/>
            <g>
              <polygon class="st6" points="663.3 880.6 658.6 880.5 658.7 876.7 663.4 876.7 663.3 880.6"/>
              <polygon class="st6" points="669.5 880.8 664.8 880.8 664.8 876.8 669.6 876.9 669.5 880.8"/>
              <polygon class="st6" points="675.7 880.8 671 880.8 671 876.9 675.9 876.9 675.7 880.8"/>
              <polygon class="st6" points="663.5 874.8 658.7 874.7 658.8 870.8 663.5 870.9 663.5 874.8"/>
              <polygon class="st6" points="669.8 874.9 664.9 874.9 665.1 870.9 669.8 871 669.8 874.9"/>
              <polygon class="st6" points="676 875 671.2 874.9 671.3 871 676 871 676 875"/>
              <polygon class="st6" points="663.5 868.9 658.8 868.9 658.8 864.9 663.7 865 663.5 868.9"/>
              <polygon class="st6" points="669.8 869.1 665.1 869 665.1 865.1 669.9 865.1 669.8 869.1"/>
              <polygon class="st6" points="676 869.1 671.2 869.1 671.3 865.1 676.1 865.3 676 869.1"/>
              <polygon class="st6" points="682 881 677.3 880.9 677.3 877 682.1 877.1 682 881"/>
              <polygon class="st6" points="688.2 881 683.4 881 683.5 877 688.3 877.1 688.2 881"/>
              <polygon class="st6" points="682.1 875.1 677.4 875.1 677.5 871.1 682.2 871.3 682.1 875.1"/>
              <polygon class="st6" points="688.3 875.2 683.6 875.1 683.6 871.3 688.4 871.3 688.3 875.2"/>
              <polygon class="st6" points="682.2 869.4 677.4 869.3 677.5 865.4 682.2 865.4 682.2 869.4"/>
              <polygon class="st6" points="688.4 869.4 683.6 869.3 683.7 865.4 688.4 865.5 688.4 869.4"/>
              <polygon class="st10" points="731.8 876.1 720.8 875.8 721 871.8 731.9 872.1 731.8 876.1"/>
            </g>
          </g>
        </g>
        <g class="st8">
          <polygon class="st6" points="694.4 881.2 689.6 881.1 689.7 877.2 694.4 877.2 694.4 881.2"/>
        </g>
        <g class="st8">
          <polygon class="st6" points="694.5 875.4 689.8 875.4 689.8 871.4 694.6 871.5 694.5 875.4"/>
        </g>
        <g class="st8">
          <polygon class="st6" points="694.6 869.5 689.8 869.5 690 865.5 694.6 865.6 694.6 869.5"/>
        </g>
        <g class="st8">
          <polygon class="st6" points="700.6 881.2 695.8 881.2 695.9 877.2 700.6 877.4 700.6 881.2"/>
        </g>
        <g class="st8">
          <polygon class="st6" points="706.9 881.5 702 881.4 702.2 877.5 706.9 877.5 706.9 881.5"/>
        </g>
        <g class="st8">
          <polygon class="st6" points="713 881.6 708.3 881.4 708.4 877.5 713.1 877.7 713 881.6"/>
        </g>
        <g class="st8">
          <polygon class="st6" points="700.8 875.5 696.1 875.4 696.1 871.5 700.9 871.5 700.8 875.5"/>
        </g>
        <g class="st8">
          <polygon class="st6" points="707 875.6 702.2 875.5 702.3 871.6 707.1 871.7 707 875.6"/>
        </g>
        <g class="st8">
          <polygon class="st6" points="713.2 875.7 708.4 875.6 708.5 871.6 713.2 871.8 713.2 875.7"/>
        </g>
        <g class="st8">
          <polygon class="st6" points="700.8 869.6 696.1 869.5 696.2 865.6 700.9 865.6 700.8 869.6"/>
        </g>
        <g class="st8">
          <polygon class="st6" points="707 869.7 702.3 869.7 702.3 865.7 707.1 865.9 707 869.7"/>
        </g>
        <g class="st8">
          <polygon class="st6" points="713.2 870 708.5 869.7 708.5 865.9 713.3 866 713.2 870"/>
        </g>
        <g class="st8">
          <polygon class="st6" points="719.2 881.6 714.5 881.6 714.5 877.6 719.3 877.7 719.2 881.6"/>
        </g>
        <g class="st8">
          <polygon class="st6" points="725.4 881.8 720.7 881.6 720.7 877.7 725.5 877.8 725.4 881.8"/>
        </g>
        <g class="st8">
          <polygon class="st6" points="731.6 881.8 726.9 881.8 726.9 877.8 731.8 877.9 731.6 881.8"/>
        </g>
        <g class="st8">
          <polygon class="st6" points="719.4 875.8 714.6 875.7 714.7 871.8 719.4 871.8 719.4 875.8"/>
        </g>
        <g class="st8">
          <polygon class="st6" points="719.4 870 714.7 870 714.7 866 719.5 866.1 719.4 870"/>
        </g>
        <g class="st8">
          <polygon class="st6" points="725.2 869.5 720.8 869.5 721 866.1 725.3 866.1 725.2 869.5"/>
        </g>
        <g class="st8">
          <polygon class="st6" points="731.9 870.2 727.1 870.1 727.2 866.2 731.9 866.3 731.9 870.2"/>
        </g>
      </g>
      <path class="st7" d="M711.9,890.5c-6.6-4.5-14.6-7.6-18.2-8.5l-46.1-19.6c6.2,12.9,18.4,24.2,18.4,24.2,7.9,7,21.7,15.5,39.9,21.4l6-17.5h0Z"/>
      <path class="st7" d="M625.3,920c4.7-6,9-10.2,10.8-13.3l31.9-36.8c-14.9,2.2-29.6,10.5-29.6,10.5-9.2,5.3-21.6,15.7-32.2,30.6l18.8,9h.2Z"/>
      <path class="st1" d="M691.5,877.4c-4.5-5.5-4.9-1.8-8.2-3.3-11.7,1.6-22.7,4.1-22.7,4.1l-27.5-2s-3.6,1.3-2.2,2.1c1.2.6,16.8,53.4,33.9,53,16.8-.6,25.9-53.3,26.5-54h.1Z"/>
      <path class="st7" d="M687.7,854.2c-2.1,1.9-8.3,4.3-10.5,2.3-2.1-2.1.8-7.7,2.8-9.6s5.5-1.9,7.6.2,2.1,5.3-.2,7.2h.2Z"/>
      <path class="st1" d="M685.4,853.2c-1.2,1.1-4.6,2.5-5.6,1.3s.4-4.2,1.5-5.4,3.1-1.1,4.2.1c1.2,1.1,1.1,2.8,0,4h-.1Z"/>
      <path class="st7" d="M632.4,857.2c2.5,1.8,8.8,3.5,10.7,1.3s-1.8-7.6-4.1-9.4c-2.5-1.8-5.9-1.3-7.5.9-1.9,2.2-1.3,5.5,1.1,7.2h-.1Z"/>
      <path class="st1" d="M634.5,855.8c1.3.9,4.9,1.9,5.9.6s-.9-4.1-2.2-5.2-3.2-.7-4.1.5-.8,2.9.6,3.9h-.1v.2Z"/>
      <path class="st7" d="M671.3,848.4c-.8-.9-2.9-1.4-5.4-1.3,0-1.1,0-2-.8-2-7.4.4-22.8,4.5-29.4,15-2.3,4-10,18.8-.8,28.9,5.8,6.5,13.6,10.6,19.6,13.2,5.4,2.2,11.7,2,16.7-.9,5.6-3.2,12.8-8.1,17.8-15.1,7.6-10.7-.9-24-4.1-28.3-5.5-6.1-8.7-7.2-13.5-7.6.2-.7,0-1.3-.4-1.8h.2Z"/>
      <g>
        <path class="st1" d="M667.6,867.6c-.4-1.3-.8-2.5-1.8-3.6-.7-.8-1.5-1.5-2.8-1.9-1.1-.2-2.1-.4-3.3,0-1.6.2-2.8.8-3.8,2-1.3,1.9-1.9,3.8-1.6,5.8v.8c0,.2,0,.4.2.6.2.6,2,4.3,6.9,4s6.1-4.1,6.2-4.7c.1-.8,0-1.8-.1-2.6h0v-.4Z"/>
        <g>
          <path class="st4" d="M653.8,858.6c.7,0,1.3.5,1.4,1.1s-.5,1.2-1.2,1.3-1.3-.5-1.4-1.1.5-1.2,1.2-1.3Z"/>
          <path class="st4" d="M665.5,859.2c0-.7.5-1.2,1.2-1.3s1.3.5,1.4,1.1-.5,1.2-1.2,1.3-1.3-.5-1.4-1.1Z"/>
          <path class="st4" d="M656.6,867.5c.5,0,.7.6.6.9-.2.8,0,1.4.4,1.9.7.5,1.8.6,2.5.4s.4-5.5.4-5.5c-.8-.4-2.1-1.1-2.1-1.3,0-.5.4-.8.8-1.1,1.1-.6,2.1-.5,3.2-.1.5.2.8.6.9.9,0,0-1.2,1.1-1.8,1.4h0s.7,5.2,1.2,5.3c.7.2,1.8,0,2.3-.5s.5-1.1,0-1.9c-.2-.4,0-.8.4-1.1s.9,0,1.1.4c.9,1.8.1,3.1-.5,3.5-.6.7-1.6,1.2-2.7,1.1s-.9,0-1.4-.1c-.2,0-.5-.1-.7-.4-.1,0-.4.2-.6.4-.5.2-.8.4-1.4.4-1.1,0-2.1-.4-2.8-.9-.6-.5-1.5-1.5-.8-3.4.1-.4.6-.6,1.1-.5v.2h.1Z"/>
        </g>
        <g>
          <path class="st4" d="M650.6,854.8c-.5-.1-.8-.6-.7-1.1,0-.6.6-.9,1.1-.9l3.3.4c.6,0,1.1.5.9,1.1,0,.6-.6.9-1.1.9l-3.3-.4h-.2Z"/>
          <path class="st4" d="M669.4,853.9c.5-.2.7-.6.6-1.1,0-.5-.7-.8-1.2-.7l-3.2.5c-.6,0-.9.6-.8,1.2,0,.5.7.8,1.2.7l3.2-.5h.2Z"/>
        </g>
      </g>
      <g>
        <path class="st1" d="M652.7,906.2s1.2,6.1-.5,6.7c-7.4,2-2.7,7.4-5.8,7.7-8.6.7-11.5-31.2-11.5-31.2l17.7,16.9h0Z"/>
        <path class="st1" d="M673.7,905.1s-.6,6.2,1.2,6.6c7.6,1.3,3.5,7.2,6.6,7,8.6-.2,7.5-32.2,7.5-32.2l-15.5,18.7h.2Z"/>
      </g>
      <path class="st7" d="M614.7,900.6c10.5-10.3,12.2,1.5,12.2,1.5l-.2,9.7-1.3,8-2.5,3.2c3.1,3.6,6.6,7.3,10.9,10.8,3.4,2.8,5.2,12.8-1.6,14.7-5.2,1.4-10.8-1.4-15-4.6-4.6-3.3-9.6-7.9-14.6-14.2h0c-2.1-2.8-2.6-6.5-1.2-9.5,2.3-5.2,6.8-13.2,13.3-19.7h-.1.1Z"/>
      <g>
        <path class="st4" d="M653.3,866.7c2.9-.1,5.3-2.6,5-5.4s-2.7-4.9-5.8-4.7-5.3,2.6-5,5.4,2.7,4.9,5.8,4.7ZM652.7,858.1c2.1,0,3.9,1.4,4,3.3.2,2-1.5,3.6-3.5,3.8-2.1,0-3.9-1.4-4-3.3s1.5-3.6,3.5-3.8Z"/>
        <path class="st4" d="M668.5,866c2.9-.1,5.3-2.6,5-5.4s-2.7-4.9-5.8-4.7c-2.9.1-5.3,2.6-5,5.4s2.7,4.9,5.8,4.7ZM667.9,857.3c2.1,0,3.9,1.4,4,3.3s-1.5,3.6-3.5,3.8-3.9-1.4-4-3.3c-.2-2,1.5-3.6,3.5-3.8Z"/>
      </g>
      <path class="st4" d="M657.5,861.7l6-.4c.5,0,.8-.4.7-.8s-.5-.7-.8-.7l-6,.4c-.5,0-.8.4-.7.8s.5.7.8.7Z"/>
      <path class="st4" d="M626.7,945.1c-1.2-.9,1.5-1.8,3.3-3.6s1.8-4.2,2.9-3.2,1.5,3.3-.1,5.3-4.9,2.6-6,1.6h-.1Z"/>
      <g>
        <path class="st7" d="M730.7,895.6l2.2,2.3s-7.5,13-10.6,13.9c-3.1.7-5.3-4.6-3.6-7.3s11.9-8.9,11.9-8.9h.1Z"/>
        <path class="st7" d="M723.1,905.3s-5.9,10.1-7.9,8,2.2-8.9,2.2-8.9l5.6,1.1h0Z"/>
      </g>
    </g>
    <path class="st9" d="M702.5,980c-2.5-1.8-4-4.2-4.6-7,0-.4-.2-.7-.2-1.1-.6-3.1-1.2-6.8-1.8-11h0l-.6-.4s-45.9-12.8-47.3-61.5c0,0-17.6-23.4.5-49.4-2.1.9-4.2,2.2-6.1,3.6-1.1-1.6-2.2-3.3-3.4-4.1-2.5-1.8-5.9-1.3-7.5.9-1.9,2.2-1.3,5.5,1.1,7.2.9.6,2.6,1.4,4.2,1.8-.2.4-.5.8-.7,1.2-1.6,2.7-5.5,10.2-5.2,17.8h0c0,2.2.6,4.5,1.5,6.6-5.5,4-11.5,9.4-17.5,16.1h0c-3.3,3.2-6,6.8-8.2,10.2h0c-2.2,3.4-4,6.8-5,9.4-1.5,3.2-1.1,6.8,1.2,9.5h0c4.9,6.2,9.9,10.7,14.6,14.2,4.2,3.2,9.9,5.9,15,4.6,3.1-.8,4.3-3.3,4.6-6,.1,2.7.4,5.3.5,8,.5,9.3.6,18,0,24.4,0,.6,0,1.3-.1,1.9-.4,2.7-1.6,5.3-3.8,7-2.9,2.6-.7,7.3,3.3,7l15.6-.8c3.2-.1,5.6-2.7,5.3-5.6,0,0,.9-5.6,2-10.7.1-1.2.5-2.2.6-3.3,2.3,0,4.8.1,7.3,0,2.3-.1,4.6-.4,6.8-.6h0c.4.9.7,2,1.1,3.1,1.8,4.8,3.6,10.5,3.6,10.5.1,2.9,2.9,5.3,6.1,5.2l15.6-.8c4-.2,5.6-5,2.5-7.3l-.5-.4h-.4ZM633.8,934c-4.3-3.6-7.9-7.3-10.9-10.8l2.5-3.2c3.3-4.2,6.5-7.5,8.7-10.2.7,7.4,1.9,18.3,2.6,29.6-.4-2.2-1.5-4.2-2.8-5.3h.1-.1Z"/>
  </g>
  <g>
    <g>
      <path class="st7" d="M1239.8,981.3l-.4-.4c-2.2-1.9-3.4-4.6-3.8-7.4v-1.1c-.6-6.1-.6-14.6-.4-23.6.7-21.5,2.9-46.5,3.2-50.5h0l-8.3-37c-5.8-3.9-12.2-6.8-18.9-7.2h0c-6.7-.2-13.4,2.1-19.5,5.5l-12.2,36.2h0c-.2,4,0,28.3-1.6,49.9-.6,9.2-1.5,18-2.9,24.2,0,.6-.4,1.2-.4,1.8-.6,2.6-2.2,5-4.5,6.6-3.1,2.3-1.5,7.2,2.5,7.3l15.5.6c3.2,0,5.8-2.1,5.9-5,0,0,1.6-5.5,3.2-10.5.4-1.1.6-2.1.9-3.1,2.2.2,4.7.5,7.3.7,2.3.1,4.6,0,6.8,0h0c.2.9.5,2.1.7,3.2,1.2,5,2.3,10.6,2.3,10.6-.1,2.9,2.3,5.4,5.4,5.5l15.5.6c4,.2,6.2-4.5,3.3-7h.4Z"/>
      <path class="st7" d="M1176.5,921.9c1.8-7.4,3.9-12.8,4.1-16.2l13.2-45.8c-12.6,7.9-22.3,20.9-22.3,20.9-6.1,8.3-12.8,22.5-16,40.3l20.9.8h.1Z"/>
      <path class="st7" d="M1259.7,925.3c-1.4-17.8-6.6-32.5-11.7-41.3,0,0-8.5-13.9-20.1-22.7l8.5,46.7c0,3.5,1.5,9.2,2.5,16.6.9,7.5,1.4,16.8-.6,27.5-.8,4.1,4.3,13,10.9,10.5,4.9-2,7.5-7.3,8.8-12.3,1.4-5.3,2.2-11.7,2.1-19.5l-.2-5.4h-.1Z"/>
      <path class="st1" d="M1240.2,878.2c-3.8-6-4.7-2.2-7.7-4.1-11.9.5-22.9,2-22.9,2l-27-4.5s-3.9.9-2.3,1.9c1.1.7,10.5,54.5,27.6,55.7,16.7,1.1,31.8-50.3,32.5-51.1h-.1Z"/>
      <g>
        <path class="st5" d="M1236.5,858.5s-.7-4.6-4-9c-4.3-6.1-11-9.3-19.8-9.6-8.8-.4-15.9,2.1-21,7.5-3.9,3.9-4.9,8-4.9,8.1l-2-.6c0-.2,1.4-4.6,5.5-8.9,3.9-4,10.8-8.7,22.7-8.1,11.7.5,18.2,6,21.5,10.6,3.6,4.9,4.3,9.7,4.3,10l-2.1.4h0v-.2Z"/>
        <ellipse class="st5" cx="1183.6" cy="858.7" rx="7.5" ry="7" transform="translate(-30.7 43.9) rotate(-2.1)"/>
        <ellipse class="st5" cx="1237.5" cy="861.7" rx="7.5" ry="7" transform="translate(-30.7 45.9) rotate(-2.1)"/>
        <path class="st7" d="M1223.5,847.8c-.7-1.1-2.8-1.6-5.3-1.8.2-1.1.1-2-.6-2.1-7.4-.4-23,2.3-30.6,12.2-2.8,3.8-12,17.6-4.1,28.5,5,6.9,12.3,11.9,17.8,14.8,5.5,2.9,11.3,2.9,16.7.7,5.9-2.6,13.6-6.7,19.4-13.3,8.8-10,1.8-24-.8-28.4-4.7-6.7-7.9-8-12.4-8.9.4-.7.4-1.3,0-1.8h0Z"/>
        <g>
          <path class="st1" d="M1217.7,866.4c-.1-1.3-.6-2.6-1.3-3.9-.5-.9-1.4-1.8-2.6-2.1-1.1-.4-2.1-.5-3.2-.5-1.6,0-2.9.6-3.9,1.5-1.4,1.6-2.2,3.5-2.3,5.5v1.4c.1.6,1.4,4.5,6.3,4.6,4.9.1,6.6-3.4,6.8-4.1.4-.8.2-1.6.1-2.6h0Z"/>
          <g>
            <path class="st4" d="M1205.1,856.1c-.7,0-1.3.5-1.4,1.1s.5,1.2,1.2,1.3,1.3-.5,1.4-1.1-.5-1.2-1.2-1.3Z"/>
            <path class="st4" d="M1217.9,856.6c-.7,0-1.3.5-1.4,1.1s.5,1.2,1.2,1.3,1.3-.5,1.4-1.1-.5-1.2-1.2-1.3Z"/>
            <path class="st4" d="M1215.5,865.5c-.5.1-.7.6-.6.9.2.8,0,1.4-.2,1.9-.7.5-1.8.7-2.3.4-.4-.2-.5-5.4-.5-5.4h0c.7-.2,2-1.1,2-1.2,0-.5-.2-.8-.7-1.1-.9-.6-2-.6-3.2-.2-.5.1-.8.5-.9.9,0,.2,1.1,1.1,1.9,1.3,0,0-.6,5.2-.8,5.3-.4.2-1.2.2-1.8,0-.2,0-.8-.4-1.1-.9-.1-.4,0-.9.2-1.4.2-.4,0-.8-.4-1.1s-.9,0-1.1.4c-.6,1.2-.4,2.1-.1,2.7.4.8.9,1.4,2,1.6.5,0,.9.2,1.3.4.7,0,1.4,0,2-.5h0c.1,0,.4.2.6.4.5.2.8.4,1.4.4,1.1,0,2.1-.4,2.8-.9.6-.5,1.5-1.5.8-3.4-.1-.4-.6-.7-1.1-.5v-.2l-.4.4Z"/>
          </g>
          <g>
            <path class="st4" d="M1202.1,852c-.5-.2-.7-.7-.6-1.1,0-.5.7-.8,1.3-.7l3.2.6c.6,0,.9.7.7,1.2,0,.5-.7.8-1.3.7l-3.2-.6h-.2.1Z"/>
            <path class="st4" d="M1221,852.8c.5,0,.8-.5.8-.9s-.5-.9-1.1-.9h-3.3c-.6.2-1.1.7-.9,1.2,0,.6.5.9,1.1.9h3.3q0-.1.2-.2h-.1Z"/>
          </g>
          <path class="st4" d="M1210.8,871.5c2.2.1,3.1-1.6,3.1-1.6l-.2-.4-2.2-.4h-1.1l-2,.4s0,2,2.5,2Z"/>
        </g>
        <path class="st5" d="M1224.6,876.2l-.4-1.5s3.5-.7,6.8-3.4c4.5-3.5,6.6-8.7,6.6-15.3h1.6c0,8.7-3.9,13.9-7.3,16.6-3.6,2.9-7.3,3.6-7.5,3.6h.1Z"/>
        <ellipse class="st5" cx="1223.2" cy="876.8" rx="3.5" ry="3.4" transform="translate(-31.3 45.4) rotate(-2.1)"/>
      </g>
      <g>
        <path class="st1" d="M1198.6,903.2s.6,6.2-1.2,6.5c-7.6,1.3-3.5,7-6.6,7-8.6-.1-7.9-32.1-7.9-32.1l15.6,18.4h0Z"/>
        <path class="st1" d="M1219.4,904s-1.2,6.1.5,6.6c7.4,2,2.7,7.4,5.8,7.5,8.5.6,11.2-31.2,11.2-31.2l-17.5,17h.1Z"/>
      </g>
      <path class="st7" d="M1152.8,905.7c-3.2-3.1-13.7-4.2-15.4,2.2-1.3,4.9,1.9,10,5.4,13.9,3.8,4.2,8.8,8.6,15.5,12.9,1.5,1.1,4.9,2.6,9.7.8s8.3-13.6,8.3-13.6c-7-3.6-15.6-8.3-23.6-16.2h0Z"/>
      <path class="st4" d="M1140.6,912.5c1.1,1.1,1.9-1.6,3.8-3.3s4.3-1.8,3.4-2.9-3.6-1.4-5.6.4c-1.9,1.8-2.6,4.8-1.5,5.9h0Z"/>
      <path class="st4" d="M1250.4,957.8c.8-1.2-2.1-1.1-4.5-2.5s-3.2-3.4-4-2.1-.4,3.6,2.1,4.9,5.6.8,6.5-.4h-.1Z"/>
      <g>
        <path class="st7" d="M1152.6,926.7l-1.4,2.8s11.9,10,15.1,9.7,3.3-6.1.8-8c-2.6-1.9-14.7-4.6-14.7-4.6h.1Z"/>
        <path class="st7" d="M1163.4,933.5s9.3,7.6,10.3,5-5.4-7.9-5.4-7.9l-4.9,2.8h0Z"/>
      </g>
    </g>
    <path class="st9" d="M1239.5,980.9c-2.2-1.9-3.4-4.6-3.8-7.4v-1.1c-.2-2.7-.5-5.8-.5-9.2l-1.2-1.1s-43.9-27.4-38.2-66.1c0,0-15.5-28.2,6.9-50.3-4.6,1.4-9,3.6-12.6,6.8-.5-.5-.9-.9-1.5-1.3.8-1.3,1.8-2.8,3.3-4.2,3.4-3.5,7.5-5.8,12.6-6.8.4-.7.7-1.5,1.1-2.3-7.4,1.2-12.2,4.7-15.1,7.7-1.6,1.8-2.8,3.4-3.6,4.9-.5,0-1.1-.2-1.6-.2-4.1-.2-7.6,2.8-7.9,6.8,0,3.3,2.1,6.1,5.2,7-.8,2.1-1.8,4.5-2.1,6.9-5.2,5.3-8.5,9.6-8.5,9.6-4.8,6.7-10,16.8-13.6,29.6-1.6-1.3-3.5-2.9-5.3-4.6-3.2-3.1-13.7-4.2-15.4,2.2-1.3,4.9,1.9,10,5.4,13.9,2.3,2.5,5,5.2,8.5,7.7h0s11.9,10,15.1,9.7c1.2,0,2-.9,2.2-2.1,2.2,1.4,4.6,2.5,5,1.2.6-1.4-1.1-3.6-2.7-5.3,3.4-4,5.4-11.4,5.4-11.4,1.1-4.1,2.1-7.6,2.9-10.6-.2,9.7-.5,22.4-1.3,34.4-.6,9.2-1.5,18-2.9,24.2,0,.6-.4,1.2-.4,1.8-.6,2.6-2.2,5-4.5,6.6-3.1,2.3-1.5,7.2,2.5,7.3l15.5.6c3.2,0,5.8-2.1,5.9-5,0,0,1.6-5.5,3.2-10.5.4-1.1.6-2.1.9-3.1,2.2.2,4.7.5,7.3.7,2.3.1,4.6,0,6.8,0h0c.2.9.5,2.1.7,3.2,1.2,5,2.3,10.6,2.3,10.6-.1,2.9,2.3,5.4,5.4,5.5l15.5.6c4,.2,6.2-4.5,3.3-7l-.4-.4h0v.2Z"/>
  </g>
</svg>