<?xml version="1.0" encoding="UTF-8"?>
<svg
  id="Layer_1"
  xmlns="http://www.w3.org/2000/svg"
  xmlns:xlink="http://www.w3.org/1999/xlink"
  version="1.1"
  viewBox="0 0 1958.4 1494.3"
>
  <!-- Generator: Adobe Illustrator 29.0.0, SVG Export Plug-In . SVG Version: 2.1.0 Build 186)  -->
  <defs>
    <style>
      .st0 {
        fill: url(#linear-gradient);
      }

      .st1 {
        fill: #601f0b;
      }

      .st2 {
        fill: #4c170a;
      }
    </style>
    <linearGradient
      id="linear-gradient"
      x1="985.8"
      y1="265.2"
      x2="985.8"
      y2="40.4"
      gradientTransform="translate(0 828)"
      gradientUnits="userSpaceOnUse"
    >
      <stop
        offset=".5"
        stop-color="#72230a"
      />
      <stop
        offset=".8"
        stop-color="#6e2409"
      />
    </linearGradient>
  </defs>
  <polygon
    class="st1"
    points="909 941.6 945.6 1022.3 1019.8 1010.7 1070 939.4 909 941.6"
  />
  <path
    class="st0"
    d="M1089.1,915.5c-7.9-11.3-13.1-52.3-18.8-36.5h0c-4.1-4.2-8.3-7.2-11.9-9.3-2.2-1.4-2.8-1.4-5.4-1.1s-8.3,5.9-9.3,7c-5.6,6.2-4,12-4,12,0,0-3.9,4-1.9,7.7,1.3,2.6,3.3,4.5,7.3,5.9h0c-4.5,2.5,2.9,3.2,2.9,3.2-1.9,5.6-3.1,12.3-3.3,19.2-.7.3-1.3.7-2,1-.9-.9-1.7-1.8-2.5-2.7-.2-.4-.5-.8-.8-1.1h0c-6.1-6.2-13.6-13.1-21.4-19,.5-1,.8-2.1.8-3.2,0-4.1-3.3-7.4-7.4-7.4s-4.2,1-5.5,2.5c-1.7-1-3.3-1.8-5-2.6,0-.7,0-1.4-.3-2-1-1.5-3.9-2.2-7.3-2.3.2-1.4,0-2.6-.9-3-7.8-2.5-19.4,2.9-30.8,10.5-1.3-1.9-3.5-3.1-6-3.1-4.1,0-7.4,3.3-7.4,7.4s.6,3.2,1.6,4.5c-5.6,4.5-10.8,9.1-14.8,12.9h0s-.3.2-.8.7c-1.6,1.5-3,2.9-4.2,4.1h0c-.3.4-.6.8-.8,1.1-.6.7-1.3,1.4-2,2.2-.3-.2-.7-.4-1-.5-.3-7-1.5-13.6-3.3-19.2,0,0,7.5-.7,3-3.2h0c4-1.5,6-3.4,7.3-5.9,1.9-3.7-1.9-7.7-1.9-7.7,0,0,1.6-5.8-4-12-1-1.1-6.7-6.7-9.3-7-2.5-.3-3.1-.4-5.4,1.1-3.6,2.2-7.8,5.2-11.9,9.3h0c-8.9-8.7-6.3,13.8-18.8,36.5-2.3,4.1-1.2,9.1.9,13.7.3,1.1.7,2.2,1.2,3.4,9.1,18.1,35.3,50.3,46.1,59.9h.2c0,2.8-.7,34.1-1.4,58.4-1.4,8.9-5.6,10.9-4.5,13.6.7,1.7,2.1,2.1,4,1.2v3.2c-.7,3-2.2,3.8-2.9,6.1-.9,3,2.1,4.3,2.1,4.3l-6.1,11.9c-.2.3,0,.7,0,.8s.2.4.6.4c9.8,1.2,27.8,1,35.2,0,1.7-.2,3.1-1.5,3.5-3.2,0-.7.3-1.4.4-2.2.6-3.2,1.3-6.9,2.3-10.8.8,1.4,1.8,1.7,3,1,2-1.4.8-7.3,2.3-14.4,1-1.7,2.2-3.3,3.4-4.6l1.8-1.8h23.4l1.8,1.8c1.7,1.8,3.2,4.1,4.6,6.7.2.5.4,1,.7,1.5,1.2,6.7.2,12.2,2.2,13.5.8.5,1.5.5,2.2,0h0c.6,2.6,1,5,1.4,7.2.2.8.3,1.5.4,2.2.3,1.7,1.7,3,3.5,3.2,7.3.8,25.4,1.1,35.2,0,.4,0,.6-.3.6-.4s.2-.4,0-.8l-6.1-11.9c-.2-.3-.3-1.4-.5-2.9h0c1.9.8,3.4.3,4.1-1.3,1.1-2.6-3-4.6-4.7-12.8-.7-22.1-1.6-62.5-1.7-69.9,10.8-9.7,37-41.8,46.1-59.9.5-.9.8-1.8,1.1-2.7,2.5-5,4-10.3,1.1-14.4h-.3,0ZM990.5,904.7l3.8-2.5c.2,0,.5,0,.5.2.4,1.2,0,2.5-1,3.2s-2.5.5-3.4-.3c-.2-.2,0-.4,0-.6h.1ZM983.1,907.8c1.5-.2,3,0,4.4.4,1.7.6,2.8,1.6,3.6,2.9,1.1,1.7,1.8,3.5,2.1,5.4.2,1.2.3,2.5,0,3.7-.3,1-1.1,1.5-2.4,1.3-2.2-.4-3.9-1.5-5-3.1-.6-.9-.4-1.7.5-2.4.6-.5,1.3-.8,2-1.1.3-.2.7-.3,1-.5.4-.3.5-.7.5-1.1-.2-1.1-.8-2-1.9-2.5-2.4-1.2-4.8-1.3-7.2,0-1.1.5-1.8,1.3-2.1,2.4-.2.8,0,1.3,1,1.7s1,.4,1.4.6c.7.3,1.3.7,1.7,1.3.3.5.3,1,0,1.5-.5,1-1.5,1.7-2.5,2.3-.8.5-1.8.9-2.8,1-1.1,0-1.9-.3-2.2-1.2,0-.3-.2-.5-.2-.8v-1.2c0-2.9.9-5.7,2.8-8.2,1.2-1.6,3-2.3,5.2-2.5h0v.2h.1ZM979.2,926.3c1.3-1.1,2.9-1.8,4.8-2,1.4,0,2.7.2,4,.7.5.2.9.4,1.3.7.2.2.3.3.2.6-.2.5-.7.9-1.3,1.1-.5.2-1.1.3-1.7.4-.7,0-1.3.2-2,.2-1.2,0-2.4.2-3.6,0-.7,0-1.3-.3-1.7-.8-.3-.4-.3-.6,0-.9h0ZM978.9,921.7c1.1,0,1.6-.6,1.6-.6v1.5c0,.3-.3.4-.5.2l-1-1.2h0ZM988.4,923.4c-.2.3-.7,0-.7-.2v-2s.5.5,2,.7l-1.3,1.5h0ZM973,902.2c0-.2.3-.2.4,0l1.8,1.2,2.1,1.4c.2,0,.2.3,0,.5-.9.9-2.3,1.1-3.4.4-1.1-.7-1.5-2.1-1-3.3h0v-.2h.1ZM984.2,1036.2c-21.9,0-31.4-35-47.6-62.7-1,1.1-2.3,1.3-3.6.5-2.8-1.6.8-5.8-6.3-15-4-4.9-8.5-9.1-13.5-12.3.7-.2,1.5-.5,2.2-.8.8-.4,1.5-.8,2.1-1.1,8.8-4.3,22.1,11.6,25.1,10.9,1.4-.3,2-1.3,1.8-2.9,7.3,4.4,17.3,21.8,21.3,21.9,2,0,3.2-1.2,3.3-3.4,3.1,3.1,6.2,6.4,9.1,10.2,3.4,4.2,9.8,4.2,13.2,0,1.5-1.9,3.1-3.7,4.7-5.5.5,2.5,2.3,3.6,5,3,4.9-1,9.7-16.5,23.2-26-1.6,3.7-.8,5.8,2,5.7,3.9,0,20.1-15.6,20.1-15.6,0,0,3.3,4.5,10.2,5.8-42.4,32.1-41.3,87.5-72.3,87.4h0Z"
  />
  <path
    class="st2"
    d="M1000.3,888.9c-1-1.5-3.9-2.2-7.3-2.3.2-1.4,0-2.6-.9-3-7.8-2.5-19.4,2.9-30.8,10.5-1.3-1.9-3.5-3.1-6-3.1-4.1,0-7.4,3.3-7.4,7.4s.6,3.2,1.6,4.5c-5.6,4.5-10.8,9.1-14.8,12.9,0,0-.3.2-.8.7-1.6,1.5-3,2.9-4.2,4.1-.3.4-.6.8-.8,1.1-.6.7-1.3,1.4-2,2.2-.3-.2-.7-.4-1-.5-.3-7-1.5-13.6-3.3-19.2,0,0,7.5-.7,3-3.2,4-1.5,6-3.4,7.3-5.9,1.9-3.7-1.9-7.7-1.9-7.7,0,0,1.6-5.8-4-12-1-1.1-6.7-6.7-9.3-7-2.5-.3-3.1-.4-5.4,1.1-3.6,2.2-7.8,5.2-11.9,9.3-8.9-8.7-6.3,13.8-18.8,36.5-2.3,4.1-1.2,9.1.9,13.7.3,1.1.7,2.2,1.2,3.4,9.1,18.1,35.3,50.3,46.1,59.9h.2c0,1.6-.2,12.8-.6,26.6,0,0,0,6.8,0,10.2l6.8-3.3c2.2-.3,3.8-2.2,4.3-4.4s0-4.4-1-6.4c-.5-1.2-1.2-2.7-.5-3.8.6-.9,1.9-1.2,3-1.3,1.9-.2,3.9-.4,5.8-.6,0-3.8-.8-7.6-2.3-11.1-1.2-2.8-3-5.6-3.4-8.6-.2-1.4,0-2.9,0-4.3v-1.1c-1.9-3.7-3.8-7.3-5.9-10.8-1,1.1,3-17.1,6-17.8,1.4-.3,2-1.3,1.8-2.9,1.5.9,3.1,2.4,4.8,4.2,1.5-2,3.4-3.7,5.7-4.9.7-.4,1.4-.7,1.9-1.3.9-1.4-.3-3.4.4-4.9.6-1.5,2.6-1.8,4.2-1.6s3.3.6,4.7,0c2-1,2.4-3.6,2.4-5.8s-.2-4.7,1.2-6.3c2.4,2.3,6.5,1.5,8.9-.8.9-.9,1.7-2,2.3-3.1-.7,0-1.3-.3-1.7-.8-.3-.4-.3-.6,0-.9.9-.7,1.9-1.3,3-1.6.3-.8.5-1.5.7-2.3l2.3-7.5c.3-1.1.7-2.2.4-3.3,0-.7-.6-1.3-1.1-1.7-1.3,0-2.6.2-3.8.8-1.1.5-1.8,1.3-2.1,2.4-.2.8,0,1.3,1,1.7s1,.4,1.4.6c.7.3,1.3.7,1.7,1.3.3.5.3,1,0,1.5-.5,1-1.5,1.7-2.5,2.3-.8.5-1.8.9-2.8,1-1.1,0-1.9-.3-2.2-1.2,0-.3-.2-.5-.2-.8v-1.2c0-2.9.9-5.7,2.8-8.2,1.2-1.6,3-2.3,5.2-2.5,1.5-.2,3,0,4.4.4.2,0,.3,0,.4.2,1.9-.3,3.9-.4,5.6-1.2,3.1-1.3,5.2-4.3,6.1-7.4,1-3.2,1-6.5.9-9.9l.2-.8v-.2h0ZM980.6,921.1h0v1.6c0,.3-.3.4-.5.2l-1-1.2c1.1,0,1.6-.6,1.6-.6h0ZM977.3,905.3c-.9.9-2.3,1.1-3.4.4s-1.5-2.1-1-3.3h0v-.2c0-.2.3-.2.4,0l1.8,1.2,2.1,1.4c.2,0,.2.3,0,.5h.1ZM993.8,905.6c-1.1.7-2.5.5-3.4-.3-.2-.2,0-.4,0-.6h0l3.8-2.5c.2,0,.5,0,.5.2.4,1.2,0,2.5-1,3.2h0Z"
  />
</svg>
