<?xml version="1.0" encoding="UTF-8"?><svg
  id="Layer_1"
  xmlns="http://www.w3.org/2000/svg"
  viewBox="0 0 1958.4 1494.28"
>
  <defs>
    <style>
      .cls-1 {
        fill: #02020a;
      }
    </style>
  </defs>
  <path
    class="cls-1"
    d="M654.17,1290.4c-.18-.79.21-1.82.49-1.35.5.83,1.04,1.42,1.6,1.94.03-.54.16-1.03.39-1.24.04-.03.08-.08.13-.1.32-.11.65-.3.98-.53.07-.05.13-.1.2-.15.32-.24.63-.52.95-.85.44-.45.88-.98,1.31-1.57,0,0,0,0,0,0,.87-1.18,1.73-2.61,2.58-4.19.02-.03.03-.06.05-.09.4-.75.8-1.54,1.19-2.35.05-.1.09-.19.14-.29.38-.79.76-1.6,1.13-2.42.01-.03.03-.06.04-.09.34-.75.66-1.5.98-2.26.09-.21.18-.42.27-.63.29-.7.58-1.39.86-2.07.11-.28.22-.55.33-.82.27-.67.54-1.34.79-1.97,1.06-2.64,2.05-5.34,3-8.12-2.09,2.44-4.28,3.8-6.43,5.85-.26.25-.41-.8-.17-1.19,2.62-4.1,5.57-5.56,8.12-10.07.11-.2.23-.38.34-.58.08-.16.15-.32.23-.47.37-1.2.73-2.4,1.09-3.63-4.56,2.82-9.32,2.59-13.61-.37-.57-.39-.42-2.88.19-2.91.36-.02.73-.04,1.09-.07-.11-.06-.22-.11-.33-.18-.09-.06-.07-.45.03-.46.24-.03.47-.1.71-.14.05-.06.08-.15.14-.17,4.32-1.55,8.35-6.5,12.06-13.35.4-.73.8-1.52,1.19-2.33-1.87.76-3.74.88-5.55.26-1.84-.25-3.62-1.42-5.12-3.55-1.07-.54-2.1-1.44-3.06-2.97-.07-.12-.04-.45.05-.46.95-.11,1.89-.13,2.83-.14.02-.61.17-1.24.42-1.23,2.65.15,5.08-1.27,7.32-3.81.49-.55.96-1.16,1.43-1.81.01-.01.02-.03.03-.04.47-.66.94-1.37,1.39-2.13.47-.78.93-1.61,1.38-2.48,0-.01.01-.02.02-.03.43-.83.85-1.69,1.26-2.6-.32-.02-.63-.06-.95-.14,0,0-.01,0-.02,0-.31-.08-.61-.19-.92-.33-.03-.01-.05-.02-.08-.04-.29-.14-.57-.3-.86-.49-.03-.02-.06-.04-.09-.06-1.48.54-2.99.28-4.58-1.07-.29-.25-.15-1.44.15-1.28.69.35,1.42.33,2.15.04-.11-.15-.22-.31-.33-.47-.01-.02-.03-.03-.04-.05-.22-.34-.44-.67-.65-1.05-.17-.31-.05-1.19.17-1.01.2.18.41.3.61.44.03-.03.06-.07.09-.07.25-.09.5-.2.76-.32,0,0,0,0,0,0,1.36-.64,2.71-1.72,4-3.25-1.07.37-2.15.42-3.25.1-.4-.11-.4-1.68.03-1.8.44-.12.87-.31,1.3-.53.2-.11.4-.24.6-.37.21-.13.42-.27.62-.43.27-.21.53-.43.8-.68.11-.11.23-.22.34-.33.31-.31.63-.64.93-1.01.03-.03.06-.07.09-.11.48-.58.95-1.23,1.41-1.94-.93.58-1.81.95-2.54,1.1-2.24.48-6.22,1.03-7.51-4.73-.13-.56.15-1.29.35-.96.36.59.74,1.01,1.14,1.38.02-.38.11-.73.27-.89.03-.02.05-.06.09-.07.23-.08.46-.21.7-.38.05-.03.1-.07.14-.11.23-.17.45-.37.68-.6.31-.32.62-.7.94-1.12,0,0,0,0,0,0,.62-.84,1.23-1.86,1.84-2.98.01-.02.02-.04.04-.07.29-.54.57-1.1.85-1.67.03-.07.07-.14.1-.21.27-.57.54-1.14.8-1.73,0-.02.02-.04.03-.07.24-.53.47-1.07.7-1.61.05-.12.11-.25.16-.37-.62.15-1.25.23-1.89.23-.06,0-.1-.05-.13-.11,0-.01-.01-.02-.02-.04-.07-.15-.09-.39-.07-.63,0,0,0,0,0-.02.02-.3.1-.58.25-.61.22-.03.45-.1.67-.19.12-.05.25-.12.38-.19.12-.06.24-.12.35-.19.16-.1.31-.23.47-.35.07-.06.14-.1.21-.16.17-.15.35-.32.52-.49.05-.05.1-.1.15-.15.19-.2.37-.41.56-.64.02-.02.03-.04.05-.06.74-1.86,1.44-3.76,2.11-5.71-1.49,1.74-3.05,2.71-4.58,4.17-.18.18-.29-.57-.12-.84,1.87-2.92,3.97-3.96,5.78-7.18.08-.15.16-.27.24-.41.06-.11.11-.23.17-.34.14-.46.28-.93.42-1.39-.04-.15-.03-.39.06-.45.03-.02.06-.05.09-.07.07-.22.14-.44.2-.67-3.25,2.01-6.64,1.85-9.69-.26-.41-.28-.3-2.05.13-2.07.26-.01.52-.03.78-.05-.08-.04-.16-.08-.24-.13-.06-.04-.05-.32.02-.33.17-.02.34-.07.5-.1.03-.04.06-.11.1-.12,3.08-1.1,5.95-4.63,8.59-9.51.28-.52.57-1.09.85-1.66-1.33.54-2.66.63-3.96.18-1.31-.18-2.58-1.01-3.65-2.53-.76-.39-1.5-1.03-2.18-2.12-.05-.09-.03-.32.03-.33.68-.08,1.35-.09,2.02-.1.01-.43.12-.88.3-.88,1.89.1,3.62-.9,5.22-2.71.35-.4.68-.82,1.02-1.29,0,0,.01-.02.02-.03.34-.47.67-.98.99-1.52.33-.55.66-1.14.98-1.76,0,0,0-.02.01-.02.62-1.2,1.21-2.51,1.79-3.92.05-.12.1-.24.15-.36.27-.67.54-1.36.8-2.07-2.37,3.42-4.64,5.13-7.17,2.98-.21-.18-.11-1.02.1-.91,1.7.87,3.66-1.36,5.35-4.31-.93.45-1.88.56-2.84.29-.29-.08-.28-1.2.02-1.28.31-.08.62-.22.92-.38.14-.08.29-.17.43-.27.15-.09.3-.19.44-.3.19-.15.38-.31.57-.48.08-.08.16-.15.24-.23.22-.22.45-.46.66-.72.02-.02.04-.05.06-.08.43-.51.84-1.1,1.24-1.76,0,0,0,0,0,0,.98-1.6,1.89-3.59,2.68-5.93.17-.56.35-1.12.53-1.65.19-.66.37-1.34.54-2.01-1.66,3.74-3.63,6.3-5.66,7.77-.34.25-.43-1.03-.12-1.4,1.92-2.23,3.64-5.86,5.08-10.12-1.71,2.11-3.53,3.16-5.51,3.15-.04,0-.07-.03-.09-.08,0,0,0-.02-.01-.03-.05-.11-.06-.28-.05-.45,0,0,0,0,0-.01.02-.21.07-.41.18-.43.16-.02.32-.07.48-.14.09-.04.18-.09.27-.13.08-.04.17-.08.25-.14.11-.07.22-.16.33-.25.05-.04.1-.07.15-.12.12-.11.25-.23.37-.35.04-.04.07-.07.11-.11.13-.14.26-.29.4-.46.02-.03.05-.06.07-.08.14-.18.28-.36.42-.56.01-.02.02-.03.03-.05.3-.43.6-.9.9-1.41,1.43-2.46,2.75-5.74,3.83-8.71-.76,1.29-1.53,2.18-2.29,2.52-.1.04-.14-.35-.03-.41,4.64-2.94,6.13-20,7.4-30.18.03-.23.08-.41.14-.57,0-.02.01-.03.02-.04.06-.14.12-.24.19-.3,0,0,0,0,0,0,0,0,.01,0,.02-.01.05-.04.1-.07.15-.08.06,0,.12,0,.17.06.03-.48.06-.96.1-1.44.01-.14.03-.27.06-.37,0-.01,0-.02.01-.03.18-.68.61-.48.69.34,2.15,20.41,5.91,40.51,13.93,45.22,0-.01.01-.02.02-.03.2.12.39.27.6.37.11.04.1.43.02.59-1.81,3.79-4.65,1.07-6.98-2.8.33.85.68,1.7,1.05,2.49,1.27,2.66,2.79,6.6,4.46,7.28.02,0,.04,0,.06.01.01,0,.02.02.03.04h0s0,0,0,0c.02.02.05.06.06.1,0,.02,0,.03,0,.05.04.19.02.47-.08.56-.21.2-.45.37-.69.53,0,0,0,0,0,0-.2.13-.41.25-.62.36-.09.04-.18.08-.27.12-.15.07-.3.13-.45.18-.1.03-.21.06-.31.09-.15.04-.3.08-.45.11-.11.02-.21.04-.32.05-.16.02-.31.04-.47.05-.11,0-.21,0-.32,0-.17,0-.34-.01-.5-.03-.1,0-.2-.02-.3-.03-.19-.03-.37-.07-.56-.12-.08-.02-.17-.04-.25-.06-.27-.08-.54-.18-.8-.31.73,3.29,1.6,6.23,2.96,8.79.39.74.78,1.47,1.18,2.19.01.02.02.04.03.06.4.73.81,1.45,1.23,2.13.24.39.48.77.72,1.14.03.05.06.1.1.15.21.31.42.61.64.9.06.08.12.16.18.24.2.26.4.5.6.74.07.08.14.17.21.25.27.3.54.58.82.83.42.05.81.09,1.17.15.14.02.17.47.06.71-.1.21-.21.39-.32.58,0,.21-.03.42-.07.59,0,0,0,0,0,.01,0,0,0,0,0,0-.02.08-.05.15-.08.2,0,.02-.02.04-.02.05-.04.05-.09.08-.15.07-.08-.01-.16-.05-.25-.08-.17.2-.34.38-.52.54-.06.05-.12.09-.18.14-.12.1-.24.2-.37.27-.08.05-.17.09-.25.13-.11.06-.21.12-.32.16-.1.04-.2.07-.31.1-.09.03-.19.06-.28.08-.12.03-.24.04-.37.06-.08,0-.15.02-.23.03-.15,0-.29,0-.44,0-.05,0-.11,0-.16,0-.17-.01-.35-.04-.53-.06-.02,0-.05,0-.07-.01-.28-.05-.56-.12-.84-.21.61,1.42,1.27,2.73,1.99,3.56.66.32,1.36.41,2.13.2.09-.02.13.32.07.48-.02.05-.05.09-.07.15.1-.02.11.35.03.49-.29.56-.59.9-.9,1.09-.1.15-.21.27-.31.39,0,0,0,0-.01.01-.4.47-.81.8-1.24.96,0,0,0,0,0,0-.16.05-.31.1-.47.12,1.53,2.01,3.31,3.29,4.96,3.46.2-.02.41-.08.62-.15.23-.19.47-.39.7-.61.42-.41.58.99.35,1.78-1.13,3.86-3.18,5.63-5.1,6.42-.26.11-.51.2-.77.27.21.74.44,1.46.68,2.16.16.45.34.92.53,1.4.08.2.17.41.25.61.11.26.22.53.34.8.12.28.25.56.38.84.08.16.15.33.23.49,1.03,2.13,2.25,4.23,3.48,5.78,0,0,0,0,0,0,.23.29.46.56.69.82.26.28.53.56.79.78,1.11.08,2.19-.12,3.23-.69.09-.04.2.22.12.48-.21.72-.44,1.33-.68,1.88-.02.05-.04.11-.07.16,0,0,0,0,0,0-.19.42-.4.78-.61,1.11-.04.07-.09.13-.13.19-.21.3-.42.57-.65.79,0,0,0,.01-.01.02-.23.22-.46.4-.7.54-.06.03-.11.07-.17.1-.24.13-.48.24-.73.31.88.52,1.77.98,2.67,1.42.15.08.08.62-.04.68-1.57.71-3.52.67-5.38-.39.5.99.99,1.89,1.42,2.68.24.43.48.81.73,1.17.02.03.04.06.06.09.23.33.47.63.71.91.01.02.03.03.04.05.31.35.62.66.94.92.02.02.05.04.07.06.33.27.67.5,1.02.69.01,0,.02.01.04.02.31.17.62.29.94.39.08.02.15.05.23.07.33.09.66.16.99.19.45-.23.89-.45,1.34-.64.1-.04.14.35.07.53-.02.05-.03.08-.05.12.08.07.09.38.01.52-.21.39-.42.72-.64,1.03-.14.31-.29.57-.43.86,0,0,0,0,0,0-1.03,2.02-2.18,3.32-3.4,4.04-.01,0-.02.01-.03.02-.29.17-.59.32-.89.43-.04.01-.07.02-.11.03-.28.1-.55.18-.83.23-.09.02-.18.02-.26.03-.23.03-.47.06-.7.06-.33,0-.65-.02-.98-.07.24.24.49.45.74.64.23.17.46.32.69.44.02.01.04.03.06.04.6.02,1.2.09,1.8.23.09.02.16.13.21.29.44-.11.86-.24,1.27-.4.31-.12.33,1.03.12,1.44-4.32,8.61-10.7,4.41-15.46-.23.06.58.12,1.15.19,1.73.71,2.25,1.54,4.36,2.57,6.3.55,1.03,1.1,2.07,1.66,3.08.02.03.03.06.05.08.57,1.03,1.14,2.04,1.73,3,.33.55.67,1.08,1.01,1.6.05.07.09.14.14.21.29.44.59.86.9,1.27.08.11.16.23.25.34.28.37.56.71.85,1.04.1.11.19.24.29.35.38.42.76.81,1.15,1.16.58.06,1.14.13,1.64.21.2.03.24.65.08,1-.14.29-.3.55-.45.81,0,.3-.04.59-.1.83,0,0,0,.01,0,.02,0,0,0,0,0,0-.03.12-.07.21-.12.29-.01.02-.02.05-.03.07-.06.07-.13.11-.2.09-.11-.01-.23-.07-.34-.11-.23.29-.48.54-.73.76-.08.07-.17.13-.26.2-.17.14-.34.27-.51.38-.11.07-.23.12-.35.18-.15.08-.3.16-.45.23-.14.06-.29.1-.43.14-.13.04-.26.09-.4.12-.17.04-.34.06-.52.08-.11.01-.22.03-.33.04-.2.01-.41,0-.62,0-.08,0-.15,0-.23,0-.25-.02-.49-.05-.74-.09-.03,0-.07,0-.1-.02-.39-.07-.78-.16-1.18-.29.86,2,1.79,3.83,2.8,5,.92.45,1.91.58,2.99.28.13-.03.19.44.1.68-.03.08-.07.13-.1.2.14-.03.15.5.05.69-.41.79-.83,1.27-1.27,1.53-.14.21-.29.38-.44.55,0,0-.01.01-.02.02-.56.67-1.14,1.12-1.73,1.34,0,0,0,0-.01,0-.22.07-.43.14-.66.16,2.15,2.82,4.64,4.62,6.97,4.86.29-.03.58-.11.87-.21.33-.26.65-.54.98-.85.58-.57.82,1.38.49,2.5-1.58,5.42-4.47,7.91-7.16,9.02-.36.15-.72.28-1.08.38.3,1.04.61,2.05.95,3.03.22.63.47,1.29.74,1.96.11.28.23.57.35.86.15.37.31.74.48,1.12.17.39.35.79.54,1.19.11.23.22.46.33.69,1.44,2.99,3.15,5.93,4.88,8.12,0,0,0,0,0,0,.32.41.65.79.97,1.15.37.4.74.78,1.1,1.09,1.55.11,3.08-.16,4.54-.97.12-.06.28.31.17.67-.29,1.01-.61,1.87-.95,2.64-.03.07-.06.15-.09.22,0,0,0,0,0,0-.27.59-.56,1.1-.86,1.56-.06.09-.12.18-.18.27-.29.42-.59.8-.91,1.11,0,0-.01.02-.02.02-.32.31-.65.56-.99.76-.08.05-.16.09-.23.14-.34.18-.67.34-1.02.43,1.24.73,2.49,1.38,3.74,2,.21.11.12.87-.06.95-2.2.99-4.94.94-7.55-.55.7,1.39,1.39,2.65,2,3.76.33.6.67,1.14,1.02,1.64.03.04.06.08.09.12.33.46.66.89.99,1.27.02.02.04.04.06.07.43.49.87.92,1.32,1.3.03.03.07.06.1.09.47.38.94.71,1.43.97.02,0,.03.02.05.02.43.23.87.41,1.31.55.11.03.21.07.32.1.46.13.93.23,1.39.27.62-.33,1.25-.63,1.88-.91.15-.06.19.49.1.75-.02.06-.05.11-.07.17.11.1.13.54.02.73-.29.55-.59,1.02-.9,1.44-.2.44-.4.81-.61,1.2,0,0,0,0,0,.01-1.44,2.84-3.06,4.66-4.77,5.68-.02,0-.03.02-.05.03-.41.24-.82.45-1.24.61-.05.02-.1.03-.15.05-.39.14-.78.25-1.17.32-.12.02-.25.02-.37.04-.33.04-.65.09-.98.09-.46,0-.92-.03-1.38-.1.34.34.69.63,1.04.89.32.24.65.44.97.62.03.02.06.04.09.05.85.03,1.69.13,2.52.32.12.03.22.18.29.4.61-.16,1.21-.34,1.78-.56.44-.17.46,1.45.17,2.03-6.06,12.09-15.02,6.19-21.71-.33.16,1.62.36,3.21.54,4.81.17,1.49.33,2.99.52,4.48.35,2.72.74,5.43,1.17,8.14.02.11.01.22,0,.33,0,.01,0,.02,0,.03-.03.16-.08.26-.15.24-.03,0-.05-.02-.08-.09-.24-.65-.47-1.28-.71-1.92-.19-.46-.37-.95-.56-1.44.18.68.36,1.38.56,2.03.09.3-.06.73-.17.46-2.87-7.31-5.66-13.68-7.72-22.74-.56,4.97-1.31,9.27-2.51,13.69-.09.35-.28.06-.19-.3.62-2.52,1.09-5.43,1.46-8.5-.32,1.2-.65,2.34-.98,3.38-.59,1.92-1.24,3.66-1.9,5.34-.24,18.25-.09,37.4-.09,37.4-6.01,6.63-8.25-1.91-8.25-1.91.57-8.68,1.23-26.42,1.69-40.24-1.05,3.06-2.17,5.94-3.22,8.74-.1.26-.23-.12-.14-.39,1.1-3.25,2.14-6.84,3.08-10.55-1.4,3.18-2.88,6.01-4.45,8.29-.41.6-.82,1.12-1.24,1.61-.2.24-.4.48-.61.71,0,0-.01.01-.02.02-.03.03-.05.05-.08.08-1.25,1.36-2.53,2.37-3.82,3.16-.09.05-.17.11-.26.16-.36.21-.72.41-1.08.59-.15.08-.3.15-.45.23-.33.16-.67.31-1,.46-.19.08-.39.16-.58.24-.3.12-.6.25-.91.36-.29.11-.57.21-.86.32-.69.25-1.38.5-2.06.76-.07.02-.12,0-.18-.03-.02-.01-.03-.03-.05-.05-.03-.04-.06-.08-.08-.14-.01-.03-.03-.06-.04-.09-.03-.08-.05-.17-.07-.27,0-.02,0-.04-.01-.06-.02-.13-.03-.26-.03-.41,0-.04,0-.09,0-.13,0-.11,0-.21.01-.32,0-.05,0-.09.01-.14.01-.12.03-.24.05-.35,0-.03,0-.06.01-.08,0,0,0,0,0,0,0-.04.02-.06.03-.1.06-.24.14-.45.25-.57.49-.49.98-.93,1.47-1.36.3-.26.59-.52.89-.77.45-.56.9-1.17,1.34-1.82.03-.13.07-.25.14-.3.09-.07.17-.2.25-.29.82-1.29,1.6-2.77,2.32-4.55.06-.15.13-.33.2-.5-4.63,7.7-10.17,11.74-15.22,10.45,0,0-.02,0-.03,0-.43-.11-.86-.27-1.29-.46-.04-.02-.08-.03-.11-.05-.41-.19-.81-.42-1.2-.69-.05-.04-.11-.07-.16-.11-.38-.27-.76-.57-1.14-.92-.06-.06-.13-.12-.19-.18-.36-.35-.72-.72-1.07-1.14-.07-.08-.14-.17-.2-.26-.34-.43-.68-.88-1.02-1.38-.02-.03-.04-.04-.05-.07-.31-.48-.62-.94-.91-1.48-.24-.43-.07-1.67.23-1.41.28.25.57.41.86.62.04-.04.08-.1.13-.1.35-.13.7-.28,1.06-.45,0,0,0,0,0,0,3.13-1.47,6.24-4.59,8.97-9.48-.7.67-1.4,1.32-2.11,1.98-.34.33-.43-1.03-.12-1.41,1.71-2.06,3.56-4.18,5.13-7.24-2.09,1.77-4.2,2.84-5.8,3.18-3.14.67-8.73,1.45-10.54-6.65Z"
  />
  <path
    class="cls-1"
    d="M651.24,1211.37c.22-.61,0-1.46-.26-1.11-.47.61-.96,1.03-1.45,1.38.03-.43-.03-.83-.19-1.02-.03-.03-.05-.07-.09-.09-.25-.12-.49-.3-.72-.51-.05-.04-.1-.09-.15-.14-.23-.22-.45-.47-.68-.76-.3-.4-.6-.86-.89-1.37,0,0,0,0,0,0-.58-1.01-1.13-2.23-1.65-3.56-.01-.03-.02-.05-.03-.08-.25-.64-.49-1.3-.73-1.97-.03-.08-.06-.16-.08-.24-.23-.67-.45-1.34-.67-2.03,0-.03-.02-.05-.02-.08-.2-.62-.38-1.25-.57-1.88-.05-.18-.1-.35-.15-.53-.17-.58-.33-1.15-.49-1.72-.06-.23-.13-.45-.19-.68-.15-.56-.3-1.11-.44-1.64-.59-2.19-1.12-4.42-1.61-6.71,1.43,2.13,3.03,3.41,4.55,5.24.18.23.4-.6.24-.92-1.69-3.49-3.89-4.92-5.48-8.74-.07-.17-.14-.32-.21-.49-.05-.13-.09-.27-.14-.39-.18-.98-.36-1.97-.52-2.98,3.35,2.66,7.14,2.93,10.81.99.49-.26.6-2.24.13-2.32-.28-.05-.57-.1-.86-.16.09-.03.19-.07.28-.11.08-.04.09-.35.02-.37-.18-.05-.36-.12-.55-.18-.03-.05-.05-.13-.09-.15-3.28-1.63-6-5.93-8.3-11.71-.25-.61-.49-1.28-.72-1.96,1.41.78,2.88,1.05,4.37.72,1.48-.03,3-.79,4.39-2.33.9-.33,1.8-.94,2.7-2.07.07-.09.07-.35,0-.37-.74-.17-1.49-.28-2.23-.37.04-.48-.01-1-.22-1.02-2.11-.13-3.91-1.48-5.44-3.7-.33-.48-.65-1.01-.96-1.57,0-.01-.01-.02-.02-.04-.31-.57-.61-1.17-.9-1.82-.3-.66-.58-1.36-.86-2.09,0,0,0-.02-.01-.03-.26-.69-.51-1.42-.75-2.17.25.01.51,0,.76-.03,0,0,.01,0,.02,0,.25-.03.51-.09.76-.17.02,0,.05-.01.07-.02.24-.08.48-.18.73-.31.02-.01.05-.03.07-.04,1.12.57,2.35.5,3.73-.42.25-.17.26-1.12,0-1.03-.58.22-1.15.13-1.71-.17.1-.11.2-.22.3-.34.01-.01.02-.02.03-.04.21-.25.41-.49.61-.77.17-.23.15-.94-.04-.81-.18.12-.35.2-.53.29-.02-.03-.04-.06-.07-.07-.19-.1-.38-.21-.57-.33,0,0,0,0,0,0-1.02-.63-1.99-1.62-2.87-2.95.81.39,1.67.53,2.56.39.33-.05.47-1.3.15-1.43-.33-.14-.66-.32-.98-.54-.15-.1-.29-.23-.44-.35-.15-.12-.3-.25-.45-.4-.19-.19-.38-.39-.57-.61-.08-.09-.16-.19-.24-.29-.22-.28-.43-.57-.64-.89-.02-.03-.04-.06-.06-.09-.33-.51-.64-1.06-.93-1.67.68.54,1.34.92,1.91,1.11,1.73.59,4.83,1.4,6.39-3.05.15-.43,0-1.04-.19-.79-.34.43-.68.73-1.03.98.02-.3-.02-.59-.13-.73-.02-.02-.04-.05-.06-.07-.17-.08-.35-.21-.52-.37-.03-.03-.07-.07-.1-.1-.16-.16-.32-.33-.48-.54-.22-.28-.43-.61-.64-.98,0,0,0,0,0,0-.41-.72-.8-1.59-1.17-2.53,0-.02-.01-.04-.02-.06-.18-.45-.35-.92-.52-1.41-.02-.06-.04-.11-.06-.17-.16-.47-.32-.96-.47-1.44,0-.02-.01-.04-.02-.06-.14-.45-.27-.89-.4-1.34-.03-.1-.06-.2-.09-.31.48.18.97.3,1.48.36.04,0,.08-.03.12-.08,0,0,.01-.02.02-.03.07-.11.11-.3.12-.49,0,0,0,0,0-.01.01-.24-.03-.47-.14-.51-.17-.05-.34-.12-.51-.22-.09-.05-.19-.12-.28-.19-.09-.06-.18-.11-.26-.19-.11-.09-.23-.21-.34-.32-.05-.05-.1-.1-.15-.15-.12-.13-.24-.28-.36-.44-.03-.04-.07-.09-.1-.13-.13-.17-.26-.36-.38-.56-.01-.02-.02-.03-.03-.05-.41-1.54-.79-3.11-1.13-4.72,1.02,1.51,2.16,2.43,3.24,3.73.13.16.28-.42.17-.66-1.2-2.49-2.77-3.51-3.91-6.22-.05-.12-.1-.23-.15-.35-.03-.1-.07-.19-.1-.28-.07-.38-.13-.76-.2-1.14.04-.12.06-.31,0-.37-.02-.02-.04-.04-.07-.06-.03-.18-.07-.36-.1-.55,2.38,1.89,5.09,2.09,7.7.7.35-.18.43-1.59.09-1.65-.2-.03-.41-.07-.61-.11.07-.02.13-.05.2-.08.05-.03.07-.25.01-.26-.13-.03-.26-.09-.39-.13-.02-.04-.04-.09-.07-.11-2.33-1.16-4.28-4.22-5.91-8.34-.18-.44-.35-.91-.52-1.39,1.01.55,2.05.75,3.12.52,1.06-.02,2.14-.56,3.13-1.66.64-.23,1.28-.67,1.93-1.47.05-.06.05-.25,0-.26-.53-.12-1.06-.2-1.59-.27.03-.34-.01-.71-.16-.72-1.51-.09-2.78-1.05-3.88-2.64-.24-.35-.46-.72-.68-1.12,0,0,0-.02-.01-.03-.22-.41-.44-.84-.64-1.3-.21-.47-.41-.97-.61-1.49,0,0,0-.01,0-.02-.38-1.01-.72-2.1-1.05-3.27-.03-.1-.06-.2-.08-.3-.15-.56-.3-1.12-.44-1.71,1.56,2.93,3.19,4.5,5.4,3.03.18-.12.18-.8,0-.73-1.42.53-2.77-1.42-3.83-3.91.69.44,1.44.62,2.22.49.24-.04.34-.92.1-1.02-.24-.1-.47-.23-.7-.39-.11-.07-.21-.16-.31-.25-.11-.09-.22-.18-.32-.28-.14-.13-.27-.28-.4-.44-.06-.07-.11-.14-.17-.21-.16-.2-.31-.4-.46-.63-.01-.02-.03-.05-.04-.07-.29-.45-.56-.95-.82-1.51,0,0,0,0,0,0-.63-1.36-1.16-3.02-1.56-4.95-.09-.46-.18-.92-.27-1.36-.09-.54-.17-1.1-.24-1.64.97,3.12,2.29,5.33,3.75,6.68.25.23.44-.77.22-1.09-1.31-1.94-2.34-4.98-3.07-8.5,1.16,1.83,2.5,2.84,4.07,3.01.03,0,.06-.02.08-.06,0,0,0-.01.01-.02.05-.08.08-.22.08-.35,0,0,0,0,0,0,0-.17-.02-.33-.1-.36-.12-.03-.25-.09-.37-.15-.07-.04-.13-.09-.2-.13-.06-.04-.13-.08-.19-.13-.08-.07-.16-.15-.24-.23-.04-.04-.07-.07-.11-.11-.09-.1-.17-.2-.26-.31-.02-.03-.05-.06-.07-.09-.09-.12-.18-.26-.27-.4-.02-.02-.03-.05-.05-.07-.1-.15-.19-.31-.28-.48,0-.01-.01-.03-.02-.04-.2-.37-.39-.77-.58-1.2-.9-2.08-1.64-4.8-2.22-7.25.48,1.09,1.01,1.87,1.57,2.21.07.04.14-.26.07-.32-3.4-2.76-2.98-16.41-3.03-24.6,0-.18-.02-.33-.06-.46,0-.01,0-.02-.01-.04-.03-.11-.08-.2-.13-.26,0,0,0,0,0,0,0,0-.01,0-.02-.01-.04-.04-.07-.07-.11-.08-.05-.01-.1,0-.14.03.02-.38.04-.76.06-1.15,0-.11,0-.21-.01-.3,0-.01,0-.02,0-.03-.08-.56-.44-.44-.58.2-3.62,15.97-8.48,31.53-15.27,34.51,0-.01,0-.02-.01-.03-.17.07-.33.18-.51.24-.09.02-.12.33-.07.47,1.08,3.17,3.58,1.28,5.79-1.56-.34.64-.7,1.28-1.07,1.87-1.25,1.99-2.83,4.96-4.21,5.35-.01,0-.03,0-.05,0,0,0-.02.02-.03.03h0s0,0,0,0c-.02.02-.04.04-.06.08,0,.01,0,.02,0,.04-.05.14-.06.37,0,.45.15.18.32.34.5.49,0,0,0,0,0,0,.14.12.3.24.46.34.06.04.13.08.2.12.11.07.22.13.34.19.08.04.16.07.24.1.11.05.23.09.35.13.08.03.17.05.25.07.12.03.25.06.37.08.08.01.17.03.25.04.13.02.27.02.4.03.08,0,.16,0,.24,0,.15,0,.3-.02.45-.04.07,0,.14-.01.2-.02.22-.04.44-.09.67-.17-.88,2.54-1.85,4.79-3.17,6.68-.38.55-.76,1.09-1.14,1.63-.01.01-.02.03-.03.04-.39.54-.78,1.07-1.17,1.58-.22.29-.45.57-.68.83-.03.04-.06.07-.09.11-.2.23-.39.45-.59.66-.05.06-.11.12-.16.18-.18.19-.37.36-.55.53-.06.06-.13.12-.19.18-.24.21-.48.41-.73.58-.33,0-.65,0-.94,0-.12,0-.18.35-.11.56.06.17.13.33.2.49-.02.17-.02.34,0,.48,0,0,0,0,0,0,0,0,0,0,0,0,0,.07.03.12.05.17,0,.01,0,.03.01.04.03.05.06.07.11.07.06,0,.14-.03.2-.04.11.18.23.34.36.48.04.05.09.08.13.13.09.09.17.18.26.25.06.05.12.08.18.13.08.05.16.11.24.16.08.04.16.07.23.11.07.03.14.07.22.09.09.03.19.06.29.08.06.01.12.03.18.04.11.02.23.03.35.04.04,0,.09,0,.13.01.14,0,.28,0,.42,0,.02,0,.04,0,.06,0,.23-.01.45-.04.68-.08-.62,1.07-1.26,2.04-1.91,2.63-.55.19-1.11.2-1.7-.04-.07-.02-.14.24-.1.38.01.04.03.08.04.12-.08-.02-.12.27-.07.39.18.47.39.77.61.95.07.13.14.24.21.34,0,0,0,0,0,.01.27.41.57.71.89.87,0,0,0,0,0,0,.12.05.24.11.36.14-1.4,1.45-2.93,2.3-4.26,2.27-.16-.04-.32-.1-.48-.18-.17-.17-.33-.35-.49-.54-.29-.36-.55.73-.45,1.38.53,3.16,1.99,4.76,3.44,5.57.19.11.39.21.58.29-.24.57-.48,1.12-.74,1.64-.17.34-.35.7-.55,1.06-.08.15-.17.31-.26.46-.11.2-.23.4-.34.6-.12.21-.25.42-.38.63-.08.12-.15.24-.23.37-1.01,1.59-2.17,3.14-3.3,4.25,0,0,0,0,0,0-.21.21-.42.4-.62.58-.24.2-.47.39-.7.54-.88-.04-1.73-.3-2.5-.85-.06-.04-.18.15-.14.37.1.59.22,1.1.36,1.55.01.04.02.09.04.13,0,0,0,0,0,0,.11.35.24.66.38.94.03.06.06.11.08.16.14.26.28.49.44.68,0,0,0,.01.01.01.16.2.33.36.51.5.04.03.08.06.12.09.18.13.36.24.55.31-.75.33-1.5.61-2.24.88-.12.05-.12.48-.03.54,1.17.71,2.73.86,4.3.19-.49.74-.96,1.4-1.38,1.99-.23.31-.46.6-.69.86-.02.02-.04.04-.06.06-.21.24-.43.46-.64.65-.01.01-.03.02-.04.03-.28.25-.55.46-.83.64-.02.01-.04.03-.06.04-.29.18-.58.34-.87.45-.01,0-.02,0-.03.01-.26.1-.52.17-.78.22-.06.01-.12.03-.19.03-.27.04-.54.07-.8.06-.33-.23-.66-.44-1-.64-.08-.04-.14.26-.11.41,0,.04.02.06.03.1-.07.05-.11.3-.06.41.13.33.27.61.41.87.08.26.17.48.26.72,0,0,0,0,0,0,.63,1.7,1.41,2.83,2.31,3.52,0,0,.02.01.02.02.22.16.43.31.66.43.03.01.06.02.08.04.21.1.42.19.64.26.07.02.14.03.21.05.18.05.36.09.55.12.26.03.52.05.78.04-.22.17-.43.31-.65.44-.2.11-.39.21-.59.29-.02,0-.03.02-.05.02-.48-.04-.96-.04-1.44.01-.07,0-.14.09-.19.21-.34-.13-.66-.27-.97-.43-.23-.13-.36.79-.23,1.13,2.61,7.23,8.06,4.5,12.27,1.27-.1.45-.2.9-.31,1.35-.77,1.72-1.63,3.31-2.63,4.75-.53.77-1.06,1.53-1.6,2.28-.01.02-.03.04-.04.06-.55.76-1.1,1.51-1.65,2.21-.32.41-.63.79-.95,1.17-.04.05-.09.1-.13.15-.27.32-.55.63-.83.92-.08.08-.15.17-.23.25-.26.26-.51.51-.77.74-.09.08-.18.17-.27.25-.34.3-.68.57-1.02.81-.47,0-.92,0-1.32.01-.16,0-.25.49-.16.78.08.24.18.46.28.69-.03.24-.03.47,0,.67,0,0,0,0,0,.01,0,0,0,0,0,0,.01.1.04.17.07.24,0,.02.01.04.02.06.04.06.09.1.15.09.09,0,.19-.04.28-.05.16.25.33.47.5.67.06.07.12.12.18.18.12.12.24.25.37.35.08.07.17.12.26.18.11.08.22.16.34.22.11.06.22.1.33.15.1.04.2.09.3.13.13.05.27.08.4.11.08.02.17.05.25.06.16.03.32.05.49.06.06,0,.12.01.18.02.2.01.39,0,.59,0,.03,0,.05,0,.08,0,.32-.02.64-.05.96-.12-.87,1.5-1.77,2.87-2.69,3.7-.77.27-1.56.28-2.39-.06-.1-.03-.19.33-.14.53.02.06.04.11.06.17-.11-.03-.16.38-.1.54.25.67.54,1.08.86,1.33.09.18.2.33.3.48,0,0,0,0,.01.02.38.58.8.99,1.25,1.22,0,0,0,0,.01,0,.17.08.33.15.51.19-1.97,2.03-4.11,3.22-5.98,3.19-.22-.05-.45-.14-.67-.25-.23-.24-.47-.49-.69-.76-.41-.51-.78,1.02-.62,1.93.74,4.44,2.8,6.68,4.83,7.82.27.15.55.29.82.4-.33.79-.68,1.57-1.04,2.31-.23.48-.5.98-.77,1.49-.12.21-.24.43-.36.64-.16.28-.32.56-.48.84-.17.3-.35.59-.54.89-.11.17-.22.34-.32.51-1.42,2.23-3.05,4.4-4.63,5.97,0,0,0,0,0,0-.3.29-.59.57-.88.82-.33.28-.66.55-.98.76-1.24-.06-2.42-.42-3.5-1.2-.09-.06-.25.22-.2.52.13.82.31,1.54.51,2.18.02.06.03.13.05.19,0,0,0,0,0,0,.16.49.34.92.54,1.31.04.08.08.15.12.23.19.36.4.69.62.96,0,0,0,.01.01.02.22.28.46.5.71.7.06.05.11.09.17.13.25.18.5.33.77.44-1.05.46-2.1.86-3.15,1.23-.17.06-.17.68-.04.76,1.65.99,3.83,1.21,6.03.27-.68,1.04-1.35,1.97-1.94,2.79-.32.44-.64.84-.97,1.21-.03.03-.06.06-.08.09-.3.33-.6.64-.91.92-.02.02-.04.03-.06.05-.39.35-.78.65-1.17.9-.03.02-.06.04-.09.06-.41.26-.81.47-1.22.63-.01,0-.03,0-.04.01-.36.14-.73.24-1.09.31-.09.02-.17.04-.26.05-.38.06-.75.09-1.13.08-.46-.32-.93-.62-1.4-.89-.11-.06-.2.37-.15.58.01.05.03.09.04.14-.1.07-.15.42-.08.58.18.46.37.86.57,1.23.11.37.24.68.37,1.01,0,0,0,0,0,.01.88,2.38,1.99,3.97,3.24,4.94.01,0,.02.02.03.02.3.23.61.43.93.6.04.02.08.03.12.05.29.14.59.27.89.37.09.03.19.04.29.06.26.06.51.13.77.16.36.05.73.06,1.1.05-.3.24-.6.43-.91.61-.28.16-.55.29-.83.4-.02.01-.05.02-.07.03-.67-.06-1.35-.06-2.03.02-.1,0-.2.12-.27.29-.47-.18-.93-.38-1.36-.61-.33-.18-.5,1.1-.32,1.59,3.66,10.15,11.31,6.31,17.23,1.78-.28,1.27-.58,2.51-.88,3.76-.27,1.17-.54,2.34-.83,3.5-.53,2.12-1.09,4.23-1.69,6.34-.02.09-.03.18-.03.26,0,0,0,.01,0,.02,0,.13.04.22.09.21.02,0,.05-.01.07-.07.25-.5.49-.97.74-1.46.19-.34.38-.72.58-1.09-.21.52-.41,1.06-.63,1.56-.1.23-.02.58.09.38,2.95-5.52,5.76-10.3,8.25-17.29-.02,3.99.17,7.46.7,11.08.04.28.21.07.18-.22-.25-2.05-.35-4.41-.36-6.87.14.98.3,1.91.45,2.77.29,1.57.64,3.01,1,4.41-1.52,14.47-3.43,29.63-3.43,29.63,4.14,5.82,6.72-.74,6.72-.74.36-6.93,1.5-21.04,2.43-32.02.54,2.52,1.16,4.91,1.73,7.22.05.21.19-.07.14-.29-.57-2.68-1.06-5.62-1.45-8.64.81,2.65,1.72,5.03,2.75,6.99.27.51.55.96.83,1.39.14.21.28.42.42.62,0,0,0,.01.01.02.02.02.04.04.05.07.86,1.19,1.78,2.11,2.73,2.86.06.05.13.11.19.15.27.2.53.39.8.57.11.08.22.15.33.22.25.16.5.31.75.46.15.08.29.17.44.25.23.13.46.25.68.37.22.11.43.22.65.33.52.26,1.04.52,1.56.79.05.02.1.02.14,0,.02,0,.03-.02.05-.04.03-.03.05-.06.08-.1.01-.02.03-.04.04-.07.03-.06.05-.13.08-.21,0-.02.01-.03.01-.04.03-.1.05-.21.06-.32,0-.03,0-.07.01-.1.01-.08.02-.17.02-.26,0-.04,0-.07,0-.11,0-.1,0-.19,0-.28,0-.02,0-.04,0-.07,0,0,0,0,0,0,0-.03-.01-.05-.01-.08-.03-.2-.07-.37-.15-.47-.34-.43-.69-.83-1.03-1.21-.21-.24-.42-.47-.63-.69-.31-.49-.61-1.01-.89-1.57-.01-.11-.04-.2-.08-.25-.06-.07-.11-.18-.17-.25-.53-1.1-1.01-2.34-1.41-3.82-.04-.13-.07-.27-.11-.42,2.94,6.53,6.95,10.25,11.07,9.7,0,0,.02,0,.02,0,.35-.05.71-.13,1.06-.25.03-.01.06-.02.1-.03.34-.11.68-.26,1.02-.43.05-.02.09-.05.14-.07.33-.18.66-.38.99-.62.06-.04.11-.08.17-.13.32-.24.64-.51.96-.81.06-.06.12-.12.19-.18.31-.31.62-.63.93-1,.02-.02.03-.03.05-.05.29-.35.58-.69.86-1.08.23-.32.21-1.32-.05-1.14-.25.17-.49.27-.74.41-.03-.04-.06-.08-.09-.1-.27-.14-.53-.29-.8-.46,0,0,0,0,0,0-2.34-1.46-4.51-4.22-6.21-8.35.49.6.99,1.17,1.48,1.76.24.29.44-.78.23-1.11-1.16-1.79-2.43-3.64-3.39-6.22,1.49,1.6,3.06,2.65,4.3,3.06,2.43.83,6.78,1.96,8.97-4.28Z"
  />
  <path
    class="cls-1"
    d="M734.11,1359.36c-.12-.53.14-1.23.33-.91.34.56.7.96,1.08,1.31.02-.36.11-.69.26-.84.03-.02.05-.06.08-.07.22-.07.44-.2.66-.36.04-.03.09-.07.14-.1.21-.16.43-.35.64-.57.3-.3.59-.66.89-1.06,0,0,0,0,0,0,.59-.79,1.17-1.76,1.74-2.82.01-.02.02-.04.03-.06.27-.51.54-1.04.81-1.59.03-.06.06-.13.09-.19.26-.54.51-1.08.76-1.64,0-.02.02-.04.03-.06.23-.51.45-1.01.66-1.52.06-.14.12-.29.18-.43.2-.47.39-.94.58-1.4.08-.19.15-.37.22-.55.18-.45.37-.9.54-1.33.71-1.78,1.38-3.61,2.02-5.48-1.41,1.64-2.89,2.56-4.34,3.95-.17.17-.27-.54-.11-.8,1.77-2.77,3.76-3.75,5.48-6.8.08-.14.15-.25.23-.39.05-.11.1-.22.16-.32.25-.81.5-1.62.73-2.45-3.08,1.9-6.29,1.75-9.19-.25-.39-.26-.28-1.94.13-1.96.24-.01.49-.03.74-.05-.07-.04-.15-.07-.22-.12-.06-.04-.04-.3.02-.31.16-.02.32-.07.48-.1.03-.04.05-.1.09-.12,2.92-1.05,5.63-4.38,8.14-9.01.27-.49.54-1.03.8-1.57-1.26.51-2.52.6-3.75.17-1.24-.17-2.44-.96-3.46-2.4-.72-.37-1.42-.97-2.07-2.01-.05-.08-.03-.3.03-.31.64-.07,1.28-.09,1.91-.09.01-.41.11-.84.28-.83,1.79.1,3.43-.86,4.94-2.57.33-.37.65-.78.96-1.22,0,0,.01-.02.02-.03.32-.45.63-.93.94-1.44.32-.53.62-1.08.93-1.67,0,0,0-.01.01-.02.29-.56.57-1.14.85-1.75-.21-.02-.43-.04-.64-.1,0,0,0,0-.01,0-.21-.05-.42-.13-.62-.22-.02,0-.04-.02-.06-.02-.2-.09-.39-.2-.58-.33-.02-.01-.04-.03-.06-.04-1,.37-2.02.19-3.09-.72-.2-.17-.1-.97.1-.87.47.24.96.22,1.45.02-.07-.1-.15-.21-.22-.32,0-.01-.02-.02-.03-.03-.15-.23-.3-.45-.44-.71-.12-.21-.03-.8.11-.68.14.12.27.2.41.3.02-.02.04-.05.06-.05.17-.06.34-.14.51-.22,0,0,0,0,0,0,.92-.43,1.83-1.16,2.7-2.2-.72.25-1.45.28-2.19.07-.27-.08-.27-1.14.02-1.22.29-.08.59-.21.88-.36.14-.07.27-.16.41-.25.14-.09.28-.18.42-.29.18-.14.36-.29.54-.46.08-.07.15-.15.23-.22.21-.21.42-.43.63-.68.02-.02.04-.05.06-.07.33-.39.64-.83.95-1.31-.63.39-1.22.64-1.71.74-1.51.32-4.2.7-5.07-3.2-.09-.38.1-.87.24-.65.24.4.5.68.77.93.01-.26.08-.49.19-.6.02-.01.04-.04.06-.05.16-.05.31-.14.47-.26.03-.02.06-.05.1-.07.15-.12.3-.25.46-.41.21-.22.42-.47.63-.76,0,0,0,0,0,0,.42-.57.83-1.25,1.24-2.01,0-.01.02-.03.02-.04.19-.36.39-.74.57-1.13.02-.05.04-.09.07-.14.18-.38.37-.77.54-1.17,0-.01.01-.03.02-.04.16-.36.32-.72.47-1.08.04-.08.07-.17.11-.25-.42.1-.84.16-1.28.15-.04,0-.07-.03-.09-.08,0,0,0-.02-.01-.02-.04-.1-.06-.26-.05-.43,0,0,0,0,0-.01.01-.2.07-.39.17-.41.15-.02.3-.07.45-.13.08-.03.17-.08.25-.13.08-.04.16-.08.24-.13.11-.07.21-.15.32-.24.05-.04.09-.07.14-.11.12-.1.23-.22.35-.33.03-.03.07-.07.1-.1.13-.13.25-.28.38-.43.01-.01.02-.03.03-.04.5-1.25.97-2.54,1.42-3.86-1,1.17-2.06,1.83-3.09,2.81-.12.12-.19-.38-.08-.57,1.26-1.97,2.68-2.67,3.9-4.84.05-.1.11-.18.16-.28.04-.08.07-.15.11-.23.1-.31.19-.63.28-.94-.03-.1-.02-.27.04-.31.02-.01.04-.03.06-.05.04-.15.09-.3.14-.45-2.19,1.36-4.48,1.25-6.54-.18-.28-.19-.2-1.38.09-1.4.17,0,.35-.02.52-.03-.05-.03-.11-.05-.16-.09-.04-.03-.03-.22.01-.22.11-.01.23-.05.34-.07.02-.03.04-.07.07-.08,2.08-.74,4.01-3.12,5.8-6.42.19-.35.38-.73.57-1.12-.9.36-1.8.42-2.67.12-.89-.12-1.74-.68-2.46-1.71-.51-.26-1.01-.69-1.47-1.43-.03-.06-.02-.22.02-.22.46-.05.91-.06,1.36-.07,0-.29.08-.6.2-.59,1.28.07,2.44-.61,3.52-1.83.23-.27.46-.56.69-.87,0,0,0-.01.01-.02.23-.32.45-.66.67-1.03.22-.37.45-.77.66-1.19,0,0,0-.01,0-.02.42-.81.82-1.7,1.21-2.64.03-.08.07-.16.1-.25.18-.45.36-.92.54-1.39-1.6,2.31-3.13,3.46-4.84,2.01-.14-.12-.07-.69.07-.62,1.14.59,2.47-.92,3.61-2.91-.63.3-1.27.38-1.92.19-.19-.05-.19-.81.01-.87.21-.06.42-.15.62-.25.1-.05.19-.12.29-.18.1-.06.2-.13.3-.2.13-.1.26-.21.38-.33.05-.05.11-.1.16-.16.15-.15.3-.31.45-.49.01-.02.03-.04.04-.05.29-.35.57-.74.84-1.19,0,0,0,0,0,0,.66-1.08,1.27-2.42,1.81-4.01.12-.38.24-.75.36-1.12.13-.45.25-.91.37-1.36-1.12,2.52-2.45,4.25-3.82,5.25-.23.17-.29-.69-.08-.94,1.29-1.5,2.46-3.95,3.43-6.83-1.16,1.42-2.38,2.14-3.72,2.12-.03,0-.05-.02-.06-.06,0,0,0-.01,0-.02-.03-.07-.04-.19-.04-.3,0,0,0,0,0,0,.01-.14.05-.28.12-.29.11-.02.21-.05.32-.09.06-.02.12-.06.18-.09.06-.03.11-.06.17-.09.07-.05.15-.11.22-.17.03-.03.07-.05.1-.08.08-.07.17-.15.25-.24.02-.02.05-.05.07-.07.09-.1.18-.2.27-.31.02-.02.03-.04.05-.06.1-.12.19-.24.29-.38,0-.01.02-.02.02-.03.2-.29.41-.61.61-.95.96-1.66,1.86-3.87,2.59-5.88-.51.87-1.04,1.47-1.54,1.7-.07.03-.09-.23-.02-.28,3.13-1.98,4.13-13.5,5-20.37.02-.15.05-.28.09-.38,0-.01,0-.02.01-.03.04-.09.08-.16.13-.2,0,0,0,0,0,0,0,0,0,0,.01,0,.03-.03.07-.05.1-.05.04,0,.08,0,.12.04.02-.33.04-.64.07-.97,0-.1.02-.18.04-.25,0,0,0-.01,0-.02.12-.46.41-.33.47.23,1.45,13.78,3.99,27.34,9.4,30.52,0,0,.01-.02.02-.02.13.08.26.18.4.25.07.03.06.29.01.4-1.22,2.56-3.14.72-4.71-1.89.22.57.46,1.15.71,1.68.85,1.79,1.88,4.45,3.01,4.92.01,0,.02,0,.04,0,0,0,.01.02.02.03h0s0,0,0,0c.02.02.03.04.04.07,0,.01,0,.02,0,.03.03.13.02.32-.05.38-.14.13-.3.25-.47.36,0,0,0,0,0,0-.13.09-.27.17-.42.24-.06.03-.12.05-.18.08-.1.04-.2.09-.3.12-.07.02-.14.04-.21.06-.1.03-.2.06-.3.08-.07.01-.14.02-.22.03-.11.02-.21.03-.32.03-.07,0-.14,0-.21,0-.11,0-.23,0-.34-.02-.07,0-.14-.01-.2-.02-.13-.02-.25-.05-.38-.08-.06-.01-.11-.02-.17-.04-.18-.05-.36-.12-.54-.21.49,2.22,1.08,4.21,2,5.93.26.5.53.99.8,1.48,0,.01.01.03.02.04.27.49.55.98.83,1.44.16.26.32.52.49.77.02.03.04.07.07.1.14.21.29.41.43.61.04.05.08.11.12.16.13.18.27.34.41.5.05.05.09.12.14.17.18.2.37.39.55.56.28.03.55.06.79.1.1.01.12.31.04.48-.07.14-.14.26-.22.39,0,.14-.02.29-.05.4,0,0,0,0,0,0,0,0,0,0,0,0-.02.06-.03.1-.06.14,0,.01-.01.03-.02.03-.03.04-.06.05-.1.04-.05,0-.11-.03-.17-.05-.11.14-.23.26-.35.37-.04.04-.08.06-.12.09-.08.07-.16.13-.25.18-.05.03-.11.06-.17.09-.07.04-.14.08-.22.11-.07.03-.14.05-.21.07-.06.02-.13.04-.19.06-.08.02-.16.03-.25.04-.05,0-.1.02-.16.02-.1,0-.2,0-.3,0-.04,0-.07,0-.11,0-.12,0-.24-.02-.36-.04-.02,0-.03,0-.05,0-.19-.03-.38-.08-.57-.14.41.96.86,1.84,1.35,2.4.44.22.92.28,1.44.14.06-.01.09.21.05.33-.02.04-.03.06-.05.1.07-.01.07.24.02.33-.2.38-.4.61-.61.73-.07.1-.14.18-.21.27,0,0,0,0,0,0-.27.32-.55.54-.83.64,0,0,0,0,0,0-.1.03-.21.07-.32.08,1.03,1.35,2.23,2.22,3.35,2.33.14-.02.28-.05.42-.1.16-.13.31-.26.47-.41.28-.27.39.66.24,1.2-.76,2.61-2.15,3.8-3.44,4.34-.17.07-.35.13-.52.18.14.5.29.99.46,1.46.11.3.23.62.35.94.05.14.11.27.17.41.07.18.15.36.23.54.08.19.17.38.26.57.05.11.1.22.16.33.69,1.43,1.52,2.85,2.35,3.9,0,0,0,0,0,0,.16.2.31.38.47.55.18.19.36.38.53.52.75.05,1.48-.08,2.18-.47.06-.03.13.15.08.32-.14.48-.29.9-.46,1.27-.02.03-.03.07-.04.11,0,0,0,0,0,0-.13.28-.27.53-.41.75-.03.04-.06.09-.09.13-.14.2-.29.38-.44.53,0,0,0,0,0,.01-.15.15-.31.27-.47.37-.04.02-.07.04-.11.07-.16.09-.32.16-.49.21.6.35,1.2.66,1.8.96.1.05.06.42-.03.46-1.06.48-2.38.45-3.63-.27.34.67.67,1.27.96,1.81.16.29.32.55.49.79.01.02.03.04.04.06.16.22.32.43.48.61,0,.01.02.02.03.03.21.24.42.44.64.62.02.01.03.03.05.04.23.18.45.34.69.47,0,0,.02,0,.02.01.21.11.42.2.63.27.05.02.1.03.15.05.22.06.44.11.67.13.3-.16.6-.3.9-.44.07-.03.09.23.05.36-.01.03-.02.05-.03.08.05.05.06.26,0,.35-.14.26-.28.49-.43.69-.09.21-.19.39-.29.58,0,0,0,0,0,0-.69,1.36-1.47,2.24-2.29,2.73,0,0-.02,0-.02.01-.2.12-.4.22-.6.29-.02,0-.05.01-.07.02-.19.06-.37.12-.56.16-.06.01-.12.01-.18.02-.16.02-.31.04-.47.04-.22,0-.44-.01-.66-.05.16.16.33.3.5.43.15.11.31.21.47.3.01,0,.03.02.04.03.41.01.81.06,1.21.15.06.01.11.09.14.19.3-.08.58-.16.86-.27.21-.08.22.7.08.97-2.91,5.81-7.22,2.98-10.44-.16.04.39.08.78.13,1.17.48,1.52,1.04,2.94,1.73,4.26.37.7.74,1.4,1.12,2.08.01.02.02.04.03.06.38.69.77,1.37,1.17,2.02.22.37.45.73.68,1.08.03.05.06.09.09.14.2.3.4.58.6.86.06.08.11.16.17.23.19.25.38.48.57.7.07.08.13.16.2.24.26.28.51.55.78.78.39.04.77.09,1.11.14.14.02.16.44.06.67-.09.2-.2.37-.3.55,0,.2-.02.4-.07.56,0,0,0,0,0,.01,0,0,0,0,0,0-.02.08-.05.14-.08.19,0,.01-.01.04-.02.05-.04.05-.09.08-.14.06-.08,0-.16-.05-.23-.07-.16.19-.32.36-.49.52-.06.05-.12.09-.17.13-.11.09-.23.19-.35.26-.08.05-.16.08-.24.12-.1.05-.2.11-.31.15-.1.04-.19.06-.29.09-.09.03-.18.06-.27.08-.11.03-.23.04-.35.05-.07,0-.15.02-.22.03-.14,0-.28,0-.42,0-.05,0-.1,0-.16,0-.17-.01-.33-.03-.5-.06-.02,0-.04,0-.07-.01-.26-.05-.53-.11-.79-.19.58,1.35,1.21,2.59,1.89,3.38.62.3,1.29.39,2.02.19.08-.02.13.3.06.46-.02.05-.05.09-.07.14.09-.02.1.34.03.47-.28.54-.56.86-.86,1.03-.1.14-.2.26-.3.37,0,0,0,0-.01.01-.38.45-.77.75-1.17.91,0,0,0,0,0,0-.15.05-.29.09-.45.11,1.45,1.9,3.13,3.12,4.71,3.28.19-.02.39-.07.59-.14.22-.18.44-.37.66-.57.39-.38.55.93.33,1.69-1.07,3.66-3.02,5.34-4.83,6.09-.25.1-.49.19-.73.26.2.7.41,1.39.64,2.04.15.43.32.87.5,1.33.08.19.16.38.24.58.1.25.21.5.32.76.12.27.24.53.36.8.07.16.15.31.22.46.97,2.01,2.13,4.01,3.29,5.48,0,0,0,0,0,0,.22.27.44.53.66.78.25.27.5.53.75.74,1.05.07,2.08-.11,3.06-.66.08-.04.19.21.12.46-.2.68-.41,1.26-.64,1.78-.02.05-.04.1-.06.15,0,0,0,0,0,0-.18.4-.38.74-.58,1.05-.04.06-.08.12-.12.18-.2.28-.4.54-.61.75,0,0,0,.01-.01.02-.22.21-.44.38-.67.52-.05.03-.11.06-.16.09-.23.12-.46.23-.69.29.84.49,1.68.93,2.53,1.35.14.07.08.59-.04.64-1.48.67-3.34.63-5.1-.37.47.94.94,1.79,1.35,2.54.22.4.46.77.69,1.11.02.03.04.05.06.08.22.31.44.6.67.86.01.02.03.03.04.05.29.33.59.62.89.87.02.02.05.04.07.06.32.26.64.48.96.65.01,0,.02.01.03.02.29.16.59.28.89.37.07.02.14.05.22.07.31.09.62.15.94.18.42-.22.84-.43,1.27-.61.1-.04.13.33.07.5-.01.04-.03.07-.05.12.08.07.09.36.01.49-.2.37-.4.69-.61.97-.13.3-.27.54-.41.81,0,0,0,0,0,0-.97,1.91-2.06,3.14-3.22,3.83-.01,0-.02.01-.03.02-.28.16-.56.3-.84.41-.03.01-.07.02-.1.03-.26.09-.52.17-.79.22-.08.01-.17.01-.25.03-.22.03-.44.06-.66.06-.31,0-.62-.02-.93-.06.23.23.47.42.7.6.22.16.44.3.66.42.02.01.04.02.06.04.57.02,1.14.08,1.7.22.08.02.15.12.2.27.41-.11.82-.23,1.2-.38.29-.12.31.98.11,1.37-4.09,8.16-10.14,4.18-14.65-.22.1,1.09.24,2.17.36,3.25.11,1.01.22,2.02.35,3.02.24,1.83.5,3.66.79,5.5.01.08,0,.15,0,.22,0,0,0,.01,0,.02-.02.11-.06.18-.1.17-.02,0-.04-.02-.05-.06-.16-.44-.32-.87-.48-1.3-.13-.31-.25-.64-.38-.97.12.46.24.93.37,1.37.06.2-.04.49-.12.31-1.93-4.93-3.82-9.23-5.21-15.35-.38,3.35-.88,6.26-1.69,9.24-.06.23-.19.04-.13-.2.42-1.7.74-3.67.99-5.74-.22.81-.44,1.58-.66,2.28-.4,1.29-.84,2.47-1.28,3.61-.16,12.32-.06,25.24-.06,25.24-4.06,4.48-5.57-1.29-5.57-1.29.39-5.86.83-17.83,1.14-27.16-.71,2.06-1.46,4.01-2.17,5.9-.07.17-.15-.08-.09-.26.74-2.19,1.45-4.62,2.08-7.12-.94,2.15-1.95,4.06-3,5.6-.27.4-.55.75-.84,1.09-.14.16-.27.33-.41.48,0,0,0,0-.01.01-.02.02-.04.03-.05.05-.84.92-1.7,1.6-2.58,2.13-.06.04-.12.08-.18.11-.24.14-.49.27-.73.4-.1.05-.2.1-.3.15-.22.11-.45.21-.68.31-.13.06-.26.11-.39.16-.2.08-.41.17-.61.24-.19.07-.39.14-.58.22-.47.17-.93.34-1.39.51-.04.02-.08,0-.12-.02-.01,0-.02-.02-.03-.04-.02-.02-.04-.05-.06-.09,0-.02-.02-.04-.03-.06-.02-.05-.03-.12-.04-.19,0-.01,0-.02,0-.04-.01-.08-.02-.18-.02-.27,0-.03,0-.06,0-.09,0-.07,0-.14,0-.22,0-.03,0-.06,0-.09,0-.08.02-.16.03-.24,0-.02,0-.04,0-.06,0,0,0,0,0,0,0-.03.01-.04.02-.07.04-.16.1-.31.17-.38.33-.33.66-.63.99-.91.2-.18.4-.35.6-.52.31-.38.61-.79.91-1.23.02-.09.05-.17.09-.2.06-.05.11-.14.17-.19.55-.87,1.08-1.87,1.57-3.07.04-.1.09-.22.13-.34-3.12,5.2-6.86,7.93-10.27,7.05,0,0-.01,0-.02,0-.29-.08-.58-.18-.87-.31-.03-.01-.05-.02-.08-.03-.27-.13-.54-.29-.81-.47-.04-.02-.07-.05-.11-.08-.26-.18-.51-.39-.77-.62-.04-.04-.09-.08-.13-.12-.25-.23-.49-.49-.72-.77-.05-.06-.09-.12-.14-.17-.23-.29-.46-.59-.69-.93-.01-.02-.02-.03-.04-.05-.21-.33-.42-.63-.62-1-.16-.29-.05-1.13.16-.95.19.17.39.28.58.42.03-.03.06-.06.09-.07.24-.09.48-.19.72-.31,0,0,0,0,0,0,2.12-.99,4.21-3.1,6.05-6.4-.47.46-.95.89-1.42,1.33-.23.22-.29-.7-.08-.95,1.16-1.39,2.4-2.82,3.46-4.89-1.41,1.2-2.83,1.92-3.92,2.15-2.12.45-5.89.98-7.11-4.49Z"
  />
  <path
    class="cls-1"
    d="M925.27,1453.1c-.12-.53.14-1.23.33-.91.34.56.7.96,1.08,1.31.02-.36.11-.69.26-.84.03-.02.05-.06.08-.07.22-.07.44-.2.66-.36.04-.03.09-.07.14-.1.21-.16.43-.35.64-.57.3-.3.59-.66.89-1.06,0,0,0,0,0,0,.59-.79,1.17-1.76,1.74-2.82.01-.02.02-.04.03-.06.27-.51.54-1.04.81-1.59.03-.06.06-.13.09-.19.26-.54.51-1.08.76-1.64,0-.02.02-.04.03-.06.23-.51.45-1.01.66-1.52.06-.14.12-.29.18-.43.2-.47.39-.94.58-1.4.08-.19.15-.37.22-.55.18-.45.37-.9.54-1.33.71-1.78,1.38-3.61,2.02-5.48-1.41,1.64-2.89,2.56-4.34,3.95-.17.17-.27-.54-.11-.8,1.77-2.77,3.76-3.75,5.48-6.8.08-.14.15-.25.23-.39.05-.11.1-.22.16-.32.25-.81.5-1.62.73-2.45-3.08,1.9-6.29,1.75-9.19-.25-.39-.26-.28-1.94.13-1.96.24-.01.49-.03.74-.05-.07-.04-.15-.07-.22-.12-.06-.04-.04-.3.02-.31.16-.02.32-.07.48-.1.03-.04.05-.1.09-.12,2.92-1.05,5.63-4.38,8.14-9.01.27-.49.54-1.03.8-1.57-1.26.51-2.52.6-3.75.17-1.24-.17-2.44-.96-3.46-2.4-.72-.37-1.42-.97-2.07-2.01-.05-.08-.03-.3.03-.31.64-.07,1.28-.09,1.91-.09.01-.41.11-.84.28-.83,1.79.1,3.43-.86,4.94-2.57.33-.37.65-.78.96-1.22,0,0,.01-.02.02-.03.32-.45.63-.93.94-1.44.32-.53.62-1.08.93-1.67,0,0,0-.01.01-.02.29-.56.57-1.14.85-1.75-.21-.02-.43-.04-.64-.1,0,0,0,0-.01,0-.21-.05-.42-.13-.62-.22-.02,0-.04-.02-.06-.02-.2-.09-.39-.2-.58-.33-.02-.01-.04-.03-.06-.04-1,.37-2.02.19-3.09-.72-.2-.17-.1-.97.1-.87.47.24.96.22,1.45.02-.07-.1-.15-.21-.22-.32,0-.01-.02-.02-.03-.03-.15-.23-.3-.45-.44-.71-.12-.21-.03-.8.11-.68.14.12.27.2.41.3.02-.02.04-.05.06-.05.17-.06.34-.14.51-.22,0,0,0,0,0,0,.92-.43,1.83-1.16,2.7-2.2-.72.25-1.45.28-2.19.07-.27-.08-.27-1.14.02-1.22.29-.08.59-.21.88-.36.14-.07.27-.16.41-.25.14-.09.28-.18.42-.29.18-.14.36-.29.54-.46.08-.07.15-.15.23-.22.21-.21.42-.43.63-.68.02-.02.04-.05.06-.07.33-.39.64-.83.95-1.31-.63.39-1.22.64-1.71.74-1.51.32-4.2.7-5.07-3.2-.09-.38.1-.87.24-.65.24.4.5.68.77.93.01-.26.08-.49.19-.6.02-.01.04-.04.06-.05.16-.05.31-.14.47-.26.03-.02.06-.05.1-.07.15-.12.3-.25.46-.41.21-.22.42-.47.63-.76,0,0,0,0,0,0,.42-.57.83-1.25,1.24-2.01,0-.01.02-.03.02-.04.19-.36.39-.74.57-1.13.02-.05.04-.09.07-.14.18-.38.37-.77.54-1.17,0-.01.01-.03.02-.04.16-.36.32-.72.47-1.08.04-.08.07-.17.11-.25-.42.1-.84.16-1.28.15-.04,0-.07-.03-.09-.08,0,0,0-.02-.01-.02-.04-.1-.06-.26-.05-.43,0,0,0,0,0-.01.01-.2.07-.39.17-.41.15-.02.3-.07.45-.13.08-.03.17-.08.25-.13.08-.04.16-.08.24-.13.11-.07.21-.15.32-.24.05-.04.09-.07.14-.11.12-.1.23-.22.35-.33.03-.03.07-.07.1-.1.13-.13.25-.28.38-.43.01-.01.02-.03.03-.04.5-1.25.97-2.54,1.42-3.86-1,1.17-2.06,1.83-3.09,2.81-.12.12-.19-.38-.08-.57,1.26-1.97,2.68-2.67,3.9-4.84.05-.1.11-.18.16-.28.04-.08.07-.15.11-.23.1-.31.19-.63.28-.94-.03-.1-.02-.27.04-.31.02-.01.04-.03.06-.05.04-.15.09-.3.14-.45-2.19,1.36-4.48,1.25-6.54-.18-.28-.19-.2-1.38.09-1.4.17,0,.35-.02.52-.03-.05-.03-.11-.05-.16-.09-.04-.03-.03-.22.01-.22.11-.01.23-.05.34-.07.02-.03.04-.07.07-.08,2.08-.74,4.01-3.12,5.8-6.42.19-.35.38-.73.57-1.12-.9.36-1.8.42-2.67.12-.89-.12-1.74-.68-2.46-1.71-.51-.26-1.01-.69-1.47-1.43-.03-.06-.02-.22.02-.22.46-.05.91-.06,1.36-.07,0-.29.08-.6.2-.59,1.28.07,2.44-.61,3.52-1.83.23-.27.46-.56.69-.87,0,0,0-.01.01-.02.23-.32.45-.66.67-1.03.22-.37.45-.77.66-1.19,0,0,0-.01,0-.02.42-.81.82-1.7,1.21-2.64.03-.08.07-.16.1-.25.18-.45.36-.92.54-1.39-1.6,2.31-3.13,3.46-4.84,2.01-.14-.12-.07-.69.07-.62,1.14.59,2.47-.92,3.61-2.91-.63.3-1.27.38-1.92.19-.19-.05-.19-.81.01-.87.21-.06.42-.15.62-.25.1-.05.19-.12.29-.18.1-.06.2-.13.3-.2.13-.1.26-.21.38-.33.05-.05.11-.1.16-.16.15-.15.3-.31.45-.49.01-.02.03-.04.04-.05.29-.35.57-.74.84-1.19,0,0,0,0,0,0,.66-1.08,1.27-2.42,1.81-4.01.12-.38.24-.75.36-1.12.13-.45.25-.91.37-1.36-1.12,2.52-2.45,4.25-3.82,5.25-.23.17-.29-.69-.08-.94,1.29-1.5,2.46-3.95,3.43-6.83-1.16,1.42-2.38,2.14-3.72,2.12-.03,0-.05-.02-.06-.06,0,0,0-.01,0-.02-.03-.07-.04-.19-.04-.3,0,0,0,0,0,0,.01-.14.05-.28.12-.29.11-.02.21-.05.32-.09.06-.02.12-.06.18-.09.06-.03.11-.06.17-.09.07-.05.15-.11.22-.17.03-.03.07-.05.1-.08.08-.07.17-.15.25-.24.02-.02.05-.05.07-.07.09-.1.18-.2.27-.31.02-.02.03-.04.05-.06.1-.12.19-.24.29-.38,0-.01.02-.02.02-.03.2-.29.41-.61.61-.95.96-1.66,1.86-3.87,2.59-5.88-.51.87-1.04,1.47-1.54,1.7-.07.03-.09-.23-.02-.28,3.13-1.98,4.13-13.5,5-20.37.02-.15.05-.28.09-.38,0-.01,0-.02.01-.03.04-.09.08-.16.13-.2,0,0,0,0,0,0,0,0,0,0,.01,0,.03-.03.07-.05.1-.05.04,0,.08,0,.12.04.02-.33.04-.64.07-.97,0-.1.02-.18.04-.25,0,0,0-.01,0-.02.12-.46.41-.33.47.23,1.45,13.78,3.99,27.34,9.4,30.52,0,0,.01-.02.02-.02.13.08.26.18.4.25.07.03.06.29.01.4-1.22,2.56-3.14.72-4.71-1.89.22.57.46-1.85.71-1.32.85,1.79,1.88,7.45,3.01,7.92.01,0,.02,0,.04,0,0,0,.01.02.02.03h0s0,0,0,0c.02.02.03.04.04.07,0,.01,0,.02,0,.03.03.13.02.32-.05.38-.14.13-.3.25-.47.36,0,0,0,0,0,0-.13.09-.27.17-.42.24-.06.03-.12.05-.18.08-.1.04-.2.09-.3.12-.07.02-.14.04-.21.06-.1.03-.2.06-.3.08-.07.01-.14.02-.22.03-.11.02-.21.03-.32.03-.07,0-.14,0-.21,0-.11,0-.23,0-.34-.02-.07,0-.14-.01-.2-.02-.13-.02-.25-.05-.38-.08-.06-.01-.11-.02-.17-.04-.18-.05-.36-.12-.54-.21.49,2.22,1.08,2.21,2,3.93.26.5.53,2.99.8,3.48,0,.01.01.03.02.04.27.49.55.98.83,1.44.16.26.32.52.49.77.02.03.04.07.07.1.14.21.29.41.43.61.04.05.08.11.12.16.13.18.27.34.41.5.05.05.09.12.14.17.18.2.37.39.55.56.28.03.55.06.79.1.1.01.12.31.04.48-.07.14-.14.26-.22.39,0,.14-.02.29-.05.4,0,0,0,0,0,0,0,0,0,0,0,0-.02.06-.03.1-.06.14,0,.01-.01.03-.02.03-.03.04-.06.05-.1.04-.05,0-.11-.03-.17-.05-.11.14-.23.26-.35.37-.04.04-.08.06-.12.09-.08.07-.16.13-.25.18-.05.03-.11.06-.17.09-.07.04-.14.08-.22.11-.07.03-.14.05-.21.07-.06.02-.13.04-.19.06-.08.02-.16.03-.25.04-.05,0-.1.02-.16.02-.1,0-.2,0-.3,0-.04,0-.07,0-.11,0-.12,0-.24-.02-.36-.04-.02,0-.03,0-.05,0-.19-.03-.38-3.08-.57-3.14.41.96.86,4.84,1.35,5.4.44.22.92.28,1.44.14.06-.01.09.21.05.33-.02.04-.03.06-.05.1.07-.01.07.24.02.33-.2.38-.4.61-.61.73-.07.1-.14.18-.21.27,0,0,0,0,0,0-.27.32-.55.54-.83.64,0,0,0,0,0,0-.1.03-.21.07-.32.08,1.03,1.35,2.23,2.22,3.35,2.33.14-.02.28-.05.42-.1.16-.13.31-.26.47-.41.28-.27.39.66.24,1.2-.76,2.61-2.15,3.8-3.44,4.34-.17.07-.35.13-.52.18.14.5.29.99.46,1.46.11.3.23.62.35.94.05.14.11.27.17.41.07.18.15.36.23.54.08.19.17.38.26.57.05.11.1.22.16.33.69,1.43,1.52,2.85,2.35,3.9,0,0,0,0,0,0,.16.2.31.38.47.55.18.19.36.38.53.52.75.05,1.48-.08,2.18-.47.06-.03.13.15.08.32-.14.48-.29.9-.46,1.27-.02.03-.03.07-.04.11,0,0,0,0,0,0-.13.28-.27.53-.41.75-.03.04-.06.09-.09.13-.14.2-.29.38-.44.53,0,0,0,0,0,.01-.15.15-.31.27-.47.37-.04.02-.07.04-.11.07-.16.09-.32.16-.49.21.6.35,1.2.66,1.8.96.1.05.06.42-.03.46-1.06.48-2.38.45-3.63-.27.34.67.67,1.27.96,1.81.16.29.32.55.49.79.01.02.03.04.04.06.16.22.32.43.48.61,0,.01.02.02.03.03.21.24.42.44.64.62.02.01.03.03.05.04.23.18.45.34.69.47,0,0,.02,0,.02.01.21.11.42.2.63.27.05.02.1.03.15.05.22.06.44.11.67.13.3-.16.6-.3.9-.44.07-.03.09.23.05.36-.01.03-.02.05-.03.08.05.05.06.26,0,.35-.14.26-.28.49-.43.69-.09.21-.19.39-.29.58,0,0,0,0,0,0-.69,1.36-1.47,2.24-2.29,2.73,0,0-.02,0-.02.01-.2.12-.4.22-.6.29-.02,0-.05.01-.07.02-.19.06-.37.12-.56.16-.06.01-.12.01-.18.02-.16.02-.31.04-.47.04-.22,0-.44-.01-.66-.05.16.16.33.3.5.43.15.11.31.21.47.3.01,0,.03.02.04.03.41.01.81.06,1.21.15.06.01.11.09.14.19.3-.08.58-.16.86-.27.21-.08.22.7.08.97-2.91,5.81-7.22,2.98-10.44-.16.04.39.08.78.13,1.17.48,1.52,1.04,2.94,1.73,4.26.37.7.74,1.4,1.12,2.08.01.02.02.04.03.06.38.69.77,1.37,1.17,2.02.22.37.45.73.68,1.08.03.05.06.09.09.14.2.3.4.58.6.86.06.08.11.16.17.23.19.25.38.48.57.7.07.08.13.16.2.24.26.28.51.55.78.78.39.04.77.09,1.11.14.14.02.16.44.06.67-.09.2-.2.37-.3.55,0,.2-.02.4-.07.56,0,0,0,0,0,.01,0,0,0,0,0,0-.02.08-.05.14-.08.19,0,.01-.01.04-.02.05-.04.05-.09.08-.14.06-.08,0-.16-.05-.23-.07-.16.19-.32.36-.49.52-.06.05-.12.09-.17.13-.11.09-.23.19-.35.26-.08.05-.16.08-.24.12-.1.05-.2.11-.31.15-.1.04-.19.06-.29.09-.09.03-.18.06-.27.08-.11.03-.23.04-.35.05-.07,0-.15.02-.22.03-.14,0-.28,0-.42,0-.05,0-.1,0-.16,0-.17-.01-.33-.03-.5-.06-.02,0-.04,0-.07-.01-.26-.05-.53-.11-.79-.19.58,1.35,1.21,2.59,1.89,3.38.62.3,1.29.39,2.02.19.08-.02.13.3.06.46-.02.05-.05.09-.07.14.09-.02.1.34.03.47-.28.54-.56.86-.86,1.03-.1.14-.2.26-.3.37,0,0,0,0-.01.01-.38.45-.77.75-1.17.91,0,0,0,0,0,0-.15.05-.29.09-.45.11,1.45,1.9,3.13,3.12,4.71,3.28.19-.02.39-.07.59-.14.22-.18.44-.37.66-.57.39-.38.55.93.33,1.69-1.07,3.66-3.02,5.34-4.83,6.09-.25.1-.49.19-.73.26.2.7.41,1.39.64,2.04.15.43.32.87.5,1.33.08.19.16.38.24.58.1.25.21.5.32.76.12.27.24.53.36.8.07.16.15.31.22.46.97,2.01,2.13,4.01,3.29,5.48,0,0,0,0,0,0,.22.27.44.53.66.78.25.27.5.53.75.74,1.05.07,2.08-.11,3.06-.66.08-.04.19.21.12.46-.2.68-.41,1.26-.64,1.78-.02.05-.04.1-.06.15,0,0,0,0,0,0-.18.4-.38.74-.58,1.05-.04.06-.08.12-.12.18-.2.28-.4.54-.61.75,0,0,0,.01-.01.02-.22.21-.44.38-.67.52-.05.03-.11.06-.16.09-.23.12-.46.23-.69.29.84.49,1.68.93,2.53,1.35.14.07.08.59-.04.64-1.48.67-3.34.63-5.1-.37.47.94.94,1.79,1.35,2.54.22.4.46.77.69,1.11.02.03.04.05.06.08.22.31.44.6.67.86.01.02.03.03.04.05.29.33.59.62.89.87.02.02.05.04.07.06.32.26.64.48.96.65.01,0,.02.01.03.02.29.16.59.28.89.37.07.02.14.05.22.07.31.09.62.15.94.18.42-.22.84-.43,1.27-.61.1-.04.13.33.07.5-.01.04-.03.07-.05.12.08.07.09.36.01.49-.2.37-.4.69-.61.97-.13.3-.27.54-.41.81,0,0,0,0,0,0-.97,1.91-2.06,3.14-3.22,3.83-.01,0-.02.01-.03.02-.28.16-.56.3-.84.41-.03.01-.07.02-.1.03-.26.09-.52.17-.79.22-.08.01-.17.01-.25.03-.22.03-.44.06-.66.06-.31,0-.62-.02-.93-.06.23.23.47.42.7.6.22.16.44.3.66.42.02.01.04.02.06.04.57.02,1.14.08,1.7.22.08.02.15.12.2.27.41-.11.82-.23,1.2-.38.29-.12.31.98.11,1.37-4.09,8.16-10.14,4.18-14.65-.22.1,1.09.24,2.17.36,3.25.11,1.01.22,2.02.35,3.02.24,1.83.5,3.66.79,5.5.01.08,0,.15,0,.22,0,0,0,.01,0,.02-.02.11-.06.18-.1.17-.02,0-.04-.02-.05-.06-.16-.44-.32-.87-.48-1.3-.13-.31-.25-.64-.38-.97.12.46.24.93.37,1.37.06.2-.04.49-.12.31-1.93-4.93-3.82-9.23-5.21-15.35-.38,3.35-.88,6.26-1.69,9.24-.06.23-.19.04-.13-.2.42-1.7.74-3.67.99-5.74-.22.81-.44,1.58-.66,2.28-.4,1.29-.84,2.47-1.28,3.61-.16,12.32-.06,25.24-.06,25.24-4.06,4.48-5.57-1.29-5.57-1.29.39-5.86.83-17.83,1.14-27.16-.71,2.06-1.46,4.01-2.17,5.9-.07.17-.15-.08-.09-.26.74-2.19,1.45-4.62,2.08-7.12-.94,2.15-1.95,4.06-3,5.6-.27.4-.55.75-.84,1.09-.14.16-.27.33-.41.48,0,0,0,0-.01.01-.02.02-.04.03-.05.05-.84.92-1.7,1.6-2.58,2.13-.06.04-.12.08-.18.11-.24.14-.49.27-.73.4-.1.05-.2.1-.3.15-.22.11-.45.21-.68.31-.13.06-.26.11-.39.16-.2.08-.41.17-.61.24-.19.07-.39.14-.58.22-.47.17-.93.34-1.39.51-.04.02-.08,0-.12-.02-.01,0-.02-.02-.03-.04-.02-.02-.04-.05-.06-.09,0-.02-.02-.04-.03-.06-.02-.05-.03-.12-.04-.19,0-.01,0-.02,0-.04-.01-.08-.02-.18-.02-.27,0-.03,0-.06,0-.09,0-.07,0-.14,0-.22,0-.03,0-.06,0-.09,0-.08.02-.16.03-.24,0-.02,0-.04,0-.06,0,0,0,0,0,0,0-.03.01-.04.02-.07.04-.16.1-.31.17-.38.33-.33.66-.63.99-.91.2-.18.4-.35.6-.52.31-.38.61-.79.91-1.23.02-.09.05-.17.09-.2.06-.05.11-.14.17-.19.55-.87,1.08-1.87,1.57-3.07.04-.1.09-.22.13-.34-3.12,5.2-6.86,7.93-10.27,7.05,0,0-.01,0-.02,0-.29-.08-.58-.18-.87-.31-.03-.01-.05-.02-.08-.03-.27-.13-.54-.29-.81-.47-.04-.02-.07-.05-.11-.08-.26-.18-.51-.39-.77-.62-.04-.04-.09-.08-.13-.12-.25-.23-.49-.49-.72-.77-.05-.06-.09-.12-.14-.17-.23-.29-.46-.59-.69-.93-.01-.02-.02-.03-.04-.05-.21-.33-.42-.63-.62-1-.16-.29-.05-1.13.16-.95.19.17.39.28.58.42.03-.03.06-.06.09-.07.24-.09.48-.19.72-.31,0,0,0,0,0,0,2.12-.99,4.21-3.1,6.05-6.4-.47.46-.95.89-1.42,1.33-.23.22-.29-.7-.08-.95,1.16-1.39,2.4-2.82,3.46-4.89-1.41,1.2-2.83,1.92-3.92,2.15-2.12.45-5.89.98-7.11-4.49Z"
  />
  <path
    class="cls-1"
    d="M561.17,1224.9c-.12-.53.14-1.23.33-.91.34.56.7.96,1.08,1.31.02-.36.11-.69.26-.84.03-.02.05-.06.08-.07.22-.07.44-.2.66-.36.04-.03.09-.07.14-.1.21-.16.43-.35.64-.57.3-.3.59-.66.89-1.06,0,0,0,0,0,0,.59-.79,1.17-1.76,1.74-2.82.01-.02.02-.04.03-.06.27-.51.54-1.04.81-1.59.03-.06.06-.13.09-.19.26-.54.51-1.08.76-1.64,0-.02.02-.04.03-.06.23-.51.45-1.01.66-1.52.06-.14.12-.29.18-.43.2-.47.39-.94.58-1.4.08-.19.15-.37.22-.55.18-.45.37-.9.54-1.33.71-1.78,1.38-3.61,2.02-5.48-1.41,1.64-2.89,2.56-4.34,3.95-.17.17-.27-.54-.11-.8,1.77-2.77,3.76-3.75,5.48-6.8.08-.14.15-.25.23-.39.05-.11.1-.22.16-.32.25-.81.5-1.62.73-2.45-3.08,1.9-6.29,1.75-9.19-.25-.39-.26-.28-1.94.13-1.96.24-.01.49-.03.74-.05-.07-.04-.15-.07-.22-.12-.06-.04-.04-.3.02-.31.16-.02.32-.07.48-.1.03-.04.05-.1.09-.12,2.92-1.05,5.63-4.38,8.14-9.01.27-.49.54-1.03.8-1.57-1.26.51-2.52.6-3.75.17-1.24-.17-2.44-.96-3.46-2.4-.72-.37-1.42-.97-2.07-2.01-.05-.08-.03-.3.03-.31.64-.07,1.28-.09,1.91-.09.01-.41.11-.84.28-.83,1.79.1,3.43-.86,4.94-2.57.33-.37.65-.78.96-1.22,0,0,.01-.02.02-.03.32-.45.63-.93.94-1.44.32-.53.62-1.08.93-1.67,0,0,0-.01.01-.02.29-.56.57-1.14.85-1.75-.21-.02-.43-.04-.64-.1,0,0,0,0-.01,0-.21-.05-.42-.13-.62-.22-.02,0-.04-.02-.06-.02-.2-.09-.39-.2-.58-.33-.02-.01-.04-.03-.06-.04-1,.37-2.02.19-3.09-.72-.2-.17-.1-.97.1-.87.47.24.96.22,1.45.02-.07-.1-.15-.21-.22-.32,0-.01-.02-.02-.03-.03-.15-.23-.3-.45-.44-.71-.12-.21-.03-.8.11-.68.14.12.27.2.41.3.02-.02.04-.05.06-.05.17-.06.34-.14.51-.22,0,0,0,0,0,0,.92-.43,1.83-1.16,2.7-2.2-.72.25-1.45.28-2.19.07-.27-.08-.27-1.14.02-1.22.29-.08.59-.21.88-.36.14-.07.27-.16.41-.25.14-.09.28-.18.42-.29.18-.14.36-.29.54-.46.08-.07.15-.15.23-.22.21-.21.42-.43.63-.68.02-.02.04-.05.06-.07.33-.39.64-.83.95-1.31-.63.39-1.22.64-1.71.74-1.51.32-4.2.7-5.07-3.2-.09-.38.1-.87.24-.65.24.4.5.68.77.93.01-.26.08-.49.19-.6.02-.01.04-.04.06-.05.16-.05.31-.14.47-.26.03-.02.06-.05.1-.07.15-.12.3-.25.46-.41.21-.22.42-.47.63-.76,0,0,0,0,0,0,.42-.57.83-1.25,1.24-2.01,0-.01.02-.03.02-.04.19-.36.39-.74.57-1.13.02-.05.04-.09.07-.14.18-.38.37-.77.54-1.17,0-.01.01-.03.02-.04.16-.36.32-.72.47-1.08.04-.08.07-.17.11-.25-.42.1-.84.16-1.28.15-.04,0-.07-.03-.09-.08,0,0,0-.02-.01-.02-.04-.1-.06-.26-.05-.43,0,0,0,0,0-.01.01-.2.07-.39.17-.41.15-.02.3-.07.45-.13.08-.03.17-.08.25-.13.08-.04.16-.08.24-.13.11-.07.21-.15.32-.24.05-.04.09-.07.14-.11.12-.1.23-.22.35-.33.03-.03.07-.07.1-.1.13-.13.25-.28.38-.43.01-.01.02-.03.03-.04.5-1.25.97-2.54,1.42-3.86-1,1.17-2.06,1.83-3.09,2.81-.12.12-.19-.38-.08-.57,1.26-1.97,2.68-2.67,3.9-4.84.05-.1.11-.18.16-.28.04-.08.07-.15.11-.23.1-.31.19-.63.28-.94-.03-.1-.02-.27.04-.31.02-.01.04-.03.06-.05.04-.15.09-.3.14-.45-2.19,1.36-4.48,1.25-6.54-.18-.28-.19-.2-1.38.09-1.4.17,0,.35-.02.52-.03-.05-.03-.11-.05-.16-.09-.04-.03-.03-.22.01-.22.11-.01.23-.05.34-.07.02-.03.04-.07.07-.08,2.08-.74,4.01-3.12,5.8-6.42.19-.35.38-.73.57-1.12-.9.36-1.8.42-2.67.12-.89-.12-1.74-.68-2.46-1.71-.51-.26-1.01-.69-1.47-1.43-.03-.06-.02-.22.02-.22.46-.05.91-.06,1.36-.07,0-.29.08-.6.2-.59,1.28.07,2.44-.61,3.52-1.83.23-.27.46-.56.69-.87,0,0,0-.01.01-.02.23-.32.45-.66.67-1.03.22-.37.45-.77.66-1.19,0,0,0-.01,0-.02.42-.81.82-1.7,1.21-2.64.03-.08.07-.16.1-.25.18-.45.36-.92.54-1.39-1.6,2.31-3.13,3.46-4.84,2.01-.14-.12-.07-.69.07-.62,1.14.59,2.47-.92,3.61-2.91-.63.3-1.27.38-1.92.19-.19-.05-.19-.81.01-.87.21-.06.42-.15.62-.25.1-.05.19-.12.29-.18.1-.06.2-.13.3-.2.13-.1.26-.21.38-.33.05-.05.11-.1.16-.16.15-.15.3-.31.45-.49.01-.02.03-.04.04-.05.29-.35.57-.74.84-1.19,0,0,0,0,0,0,.66-1.08,1.27-2.42,1.81-4.01.12-.38.24-.75.36-1.12.13-.45.25-.91.37-1.36-1.12,2.52-2.45,4.25-3.82,5.25-.23.17-.29-.69-.08-.94,1.29-1.5,2.46-3.95,3.43-6.83-1.16,1.42-2.38,2.14-3.72,2.12-.03,0-.05-.02-.06-.06,0,0,0-.01,0-.02-.03-.07-.04-.19-.04-.3,0,0,0,0,0,0,.01-.14.05-.28.12-.29.11-.02.21-.05.32-.09.06-.02.12-.06.18-.09.06-.03.11-.06.17-.09.07-.05.15-.11.22-.17.03-.03.07-.05.1-.08.08-.07.17-.15.25-.24.02-.02.05-.05.07-.07.09-.1.18-.2.27-.31.02-.02.03-.04.05-.06.1-.12.19-.24.29-.38,0-.01.02-.02.02-.03.2-.29.41-.61.61-.95.96-1.66,1.86-3.87,2.59-5.88-.51.87-1.04,1.47-1.54,1.7-.07.03-.09-.23-.02-.28,3.13-1.98,4.13-13.5,5-20.37.02-.15.05-.28.09-.38,0-.01,0-.02.01-.03.04-.09.08-.16.13-.2,0,0,0,0,0,0,0,0,0,0,.01,0,.03-.03.07-.05.1-.05.04,0,.08,0,.12.04.02-.33.04-.64.07-.97,0-.1.02-.18.04-.25,0,0,0-.01,0-.02.12-.46.41-.33.47.23,1.45,13.78,3.99,27.34,9.4,30.52,0,0,.01-.02.02-.02.13.08.26.18.4.25.07.03.06.29.01.4-1.22,2.56-3.14.72-4.71-1.89.22.57.46,1.15.71,1.68.85,1.79,1.88,4.45,3.01,4.92.01,0,.02,0,.04,0,0,0,.01.02.02.03h0s0,0,0,0c.02.02.03.04.04.07,0,.01,0,.02,0,.03.03.13.02.32-.05.38-.14.13-.3.25-.47.36,0,0,0,0,0,0-.13.09-.27.17-.42.24-.06.03-.12.05-.18.08-.1.04-.2.09-.3.12-.07.02-.14.04-.21.06-.1.03-.2.06-.3.08-.07.01-.14.02-.22.03-.11.02-.21.03-.32.03-.07,0-.14,0-.21,0-.11,0-.23,0-.34-.02-.07,0-.14-.01-.2-.02-.13-.02-.25-.05-.38-.08-.06-.01-.11-.02-.17-.04-.18-.05-.36-.12-.54-.21.49,2.22,1.08,4.21,2,5.93.26.5.53.99.8,1.48,0,.01.01.03.02.04.27.49.55.98.83,1.44.16.26.32.52.49.77.02.03.04.07.07.1.14.21.29.41.43.61.04.05.08.11.12.16.13.18.27.34.41.5.05.05.09.12.14.17.18.2.37.39.55.56.28.03.55.06.79.1.1.01.12.31.04.48-.07.14-.14.26-.22.39,0,.14-.02.29-.05.4,0,0,0,0,0,0,0,0,0,0,0,0-.02.06-.03.1-.06.14,0,.01-.01.03-.02.03-.03.04-.06.05-.1.04-.05,0-.11-.03-.17-.05-.11.14-.23.26-.35.37-.04.04-.08.06-.12.09-.08.07-.16.13-.25.18-.05.03-.11.06-.17.09-.07.04-.14.08-.22.11-.07.03-.14.05-.21.07-.06.02-.13.04-.19.06-.08.02-.16.03-.25.04-.05,0-.1.02-.16.02-.1,0-.2,0-.3,0-.04,0-.07,0-.11,0-.12,0-.24-.02-.36-.04-.02,0-.03,0-.05,0-.19-.03-.38-.08-.57-.14.41.96.86,1.84,1.35,2.4.44.22.92.28,1.44.14.06-.01.09.21.05.33-.02.04-.03.06-.05.1.07-.01.07.24.02.33-.2.38-.4.61-.61.73-.07.1-.14.18-.21.27,0,0,0,0,0,0-.27.32-.55.54-.83.64,0,0,0,0,0,0-.1.03-.21.07-.32.08,1.03,1.35,2.23,2.22,3.35,2.33.14-.02.28-.05.42-.1.16-.13.31-.26.47-.41.28-.27.39.66.24,1.2-.76,2.61-2.15,3.8-3.44,4.34-.17.07-.35.13-.52.18.14.5.29.99.46,1.46.11.3.23.62.35.94.05.14.11.27.17.41.07.18.15.36.23.54.08.19.17.38.26.57.05.11.1.22.16.33.69,1.43,1.52,2.85,2.35,3.9,0,0,0,0,0,0,.16.2.31.38.47.55.18.19.36.38.53.52.75.05,1.48-.08,2.18-.47.06-.03.13.15.08.32-.14.48-.29.9-.46,1.27-.02.03-.03.07-.04.11,0,0,0,0,0,0-.13.28-.27.53-.41.75-.03.04-.06.09-.09.13-.14.2-.29.38-.44.53,0,0,0,0,0,.01-.15.15-.31.27-.47.37-.04.02-.07.04-.11.07-.16.09-.32.16-.49.21.6.35,1.2.66,1.8.96.1.05.06.42-.03.46-1.06.48-2.38.45-3.63-.27.34.67.67,1.27.96,1.81.16.29.32.55.49.79.01.02.03.04.04.06.16.22.32.43.48.61,0,.01.02.02.03.03.21.24.42.44.64.62.02.01.03.03.05.04.23.18.45.34.69.47,0,0,.02,0,.02.01.21.11.42.2.63.27.05.02.1.03.15.05.22.06.44.11.67.13.3-.16.6-.3.9-.44.07-.03.09.23.05.36-.01.03-.02.05-.03.08.05.05.06.26,0,.35-.14.26-.28.49-.43.69-.09.21-.19.39-.29.58,0,0,0,0,0,0-.69,1.36-1.47,2.24-2.29,2.73,0,0-.02,0-.02.01-.2.12-.4.22-.6.29-.02,0-.05.01-.07.02-.19.06-.37.12-.56.16-.06.01-.12.01-.18.02-.16.02-.31.04-.47.04-.22,0-.44-.01-.66-.05.16.16.33.3.5.43.15.11.31.21.47.3.01,0,.03.02.04.03.41.01.81.06,1.21.15.06.01.11.09.14.19.3-.08.58-.16.86-.27.21-.08.22.7.08.97-2.91,5.81-7.22,2.98-10.44-.16.04.39.08.78.13,1.17.48,1.52,1.04,2.94,1.73,4.26.37.7.74,1.4,1.12,2.08.01.02.02.04.03.06.38.69.77,1.37,1.17,2.02.22.37.45.73.68,1.08.03.05.06.09.09.14.2.3.4.58.6.86.06.08.11.16.17.23.19.25.38.48.57.7.07.08.13.16.2.24.26.28.51.55.78.78.39.04.77.09,1.11.14.14.02.16.44.06.67-.09.2-.2.37-.3.55,0,.2-.02.4-.07.56,0,0,0,0,0,.01,0,0,0,0,0,0-.02.08-.05.14-.08.19,0,.01-.01.04-.02.05-.04.05-.09.08-.14.06-.08,0-.16-.05-.23-.07-.16.19-.32.36-.49.52-.06.05-.12.09-.17.13-.11.09-.23.19-.35.26-.08.05-.16.08-.24.12-.1.05-.2.11-.31.15-.1.04-.19.06-.29.09-.09.03-.18.06-.27.08-.11.03-.23.04-.35.05-.07,0-.15.02-.22.03-.14,0-.28,0-.42,0-.05,0-.1,0-.16,0-.17-.01-.33-.03-.5-.06-.02,0-.04,0-.07-.01-.26-.05-.53-.11-.79-.19.58,1.35,1.21,2.59,1.89,3.38.62.3,1.29.39,2.02.19.08-.02.13.3.06.46-.02.05-.05.09-.07.14.09-.02.1.34.03.47-.28.54-.56.86-.86,1.03-.1.14-.2.26-.3.37,0,0,0,0-.01.01-.38.45-.77.75-1.17.91,0,0,0,0,0,0-.15.05-.29.09-.45.11,1.45,1.9,3.13,3.12,4.71,3.28.19-.02.39-.07.59-.14.22-.18.44-.37.66-.57.39-.38.55.93.33,1.69-1.07,3.66-3.02,5.34-4.83,6.09-.25.1-.49.19-.73.26.2.7.41,1.39.64,2.04.15.43.32.87.5,1.33.08.19.16.38.24.58.1.25.21.5.32.76.12.27.24.53.36.8.07.16.15.31.22.46.97,2.01,2.13,4.01,3.29,5.48,0,0,0,0,0,0,.22.27.44.53.66.78.25.27.5.53.75.74,1.05.07,2.08-.11,3.06-.66.08-.04.19.21.12.46-.2.68-.41,1.26-.64,1.78-.02.05-.04.1-.06.15,0,0,0,0,0,0-.18.4-.38.74-.58,1.05-.04.06-.08.12-.12.18-.2.28-.4.54-.61.75,0,0,0,.01-.01.02-.22.21-.44.38-.67.52-.05.03-.11.06-.16.09-.23.12-.46.23-.69.29.84.49,1.68.93,2.53,1.35.14.07.08.59-.04.64-1.48.67-3.34.63-5.1-.37.47.94.94,1.79,1.35,2.54.22.4.46.77.69,1.11.02.03.04.05.06.08.22.31.44.6.67.86.01.02.03.03.04.05.29.33.59.62.89.87.02.02.05.04.07.06.32.26.64.48.96.65.01,0,.02.01.03.02.29.16.59.28.89.37.07.02.14.05.22.07.31.09.62.15.94.18.42-.22.84-.43,1.27-.61.1-.04.13.33.07.5-.01.04-.03.07-.05.12.08.07.09.36.01.49-.2.37-.4.69-.61.97-.13.3-.27.54-.41.81,0,0,0,0,0,0-.97,1.91-2.06,3.14-3.22,3.83-.01,0-.02.01-.03.02-.28.16-.56.3-.84.41-.03.01-.07.02-.1.03-.26.09-.52.17-.79.22-.08.01-.17.01-.25.03-.22.03-.44.06-.66.06-.31,0-.62-.02-.93-.06.23.23.47.42.7.6.22.16.44.3.66.42.02.01.04.02.06.04.57.02,1.14.08,1.7.22.08.02.15.12.2.27.41-.11.82-.23,1.2-.38.29-.12.31.98.11,1.37-4.09,8.16-10.14,4.18-14.65-.22.1,1.09.24,2.17.36,3.25.11,1.01.22,2.02.35,3.02.24,1.83.5,3.66.79,5.5.01.08,0,.15,0,.22,0,0,0,.01,0,.02-.02.11-.06.18-.1.17-.02,0-.04-.02-.05-.06-.16-.44-.32-.87-.48-1.3-.13-.31-.25-.64-.38-.97.12.46.24.93.37,1.37.06.2-.04.49-.12.31-1.93-4.93-3.82-9.23-5.21-15.35-.38,3.35-.88,6.26-1.69,9.24-.06.23-.19.04-.13-.2.42-1.7.74-3.67.99-5.74-.22.81-.44,1.58-.66,2.28-.4,1.29-.84,2.47-1.28,3.61-.16,12.32-.06,25.24-.06,25.24-4.06,4.48-5.57-1.29-5.57-1.29.39-5.86.83-17.83,1.14-27.16-.71,2.06-1.46,4.01-2.17,5.9-.07.17-.15-.08-.09-.26.74-2.19,1.45-4.62,2.08-7.12-.94,2.15-1.95,4.06-3,5.6-.27.4-.55.75-.84,1.09-.14.16-.27.33-.41.48,0,0,0,0-.01.01-.02.02-.04.03-.05.05-.84.92-1.7,1.6-2.58,2.13-.06.04-.12.08-.18.11-.24.14-.49.27-.73.4-.1.05-.2.1-.3.15-.22.11-.45.21-.68.31-.13.06-.26.11-.39.16-.2.08-.41.17-.61.24-.19.07-.39.14-.58.22-.47.17-.93.34-1.39.51-.04.02-.08,0-.12-.02-.01,0-.02-.02-.03-.04-.02-.02-.04-.05-.06-.09,0-.02-.02-.04-.03-.06-.02-.05-.03-.12-.04-.19,0-.01,0-.02,0-.04-.01-.08-.02-.18-.02-.27,0-.03,0-.06,0-.09,0-.07,0-.14,0-.22,0-.03,0-.06,0-.09,0-.08.02-.16.03-.24,0-.02,0-.04,0-.06,0,0,0,0,0,0,0-.03.01-.04.02-.07.04-.16.1-.31.17-.38.33-.33.66-.63.99-.91.2-.18.4-.35.6-.52.31-.38.61-.79.91-1.23.02-.09.05-.17.09-.2.06-.05.11-.14.17-.19.55-.87,1.08-1.87,1.57-3.07.04-.1.09-.22.13-.34-3.12,5.2-6.86,7.93-10.27,7.05,0,0-.01,0-.02,0-.29-.08-.58-.18-.87-.31-.03-.01-.05-.02-.08-.03-.27-.13-.54-.29-.81-.47-.04-.02-.07-.05-.11-.08-.26-.18-.51-.39-.77-.62-.04-.04-.09-.08-.13-.12-.25-.23-.49-.49-.72-.77-.05-.06-.09-.12-.14-.17-.23-.29-.46-.59-.69-.93-.01-.02-.02-.03-.04-.05-.21-.33-.42-.63-.62-1-.16-.29-.05-1.13.16-.95.19.17.39.28.58.42.03-.03.06-.06.09-.07.24-.09.48-.19.72-.31,0,0,0,0,0,0,2.12-.99,4.21-3.1,6.05-6.4-.47.46-.95.89-1.42,1.33-.23.22-.29-.7-.08-.95,1.16-1.39,2.4-2.82,3.46-4.89-1.41,1.2-2.83,1.92-3.92,2.15-2.12.45-5.89.98-7.11-4.49Z"
  />
  <path
    class="cls-1"
    d="M515.63,1189.13c-.07-.54.26-1.21.42-.87.28.59.61,1.02.95,1.4.05-.36.17-.68.34-.81.03-.02.06-.05.09-.06.22-.05.46-.16.69-.29.05-.03.1-.06.14-.09.23-.14.46-.31.69-.51.32-.27.65-.6.98-.97,0,0,0,0,0,0,.66-.74,1.33-1.64,2-2.65.01-.02.03-.04.04-.06.32-.48.64-.99.95-1.5.04-.06.07-.12.11-.18.31-.51.61-1.03.91-1.56.01-.02.02-.04.03-.06.27-.48.54-.97.81-1.45.07-.14.15-.27.22-.41.24-.45.48-.9.71-1.33.09-.18.18-.35.28-.53.23-.43.45-.86.66-1.27.88-1.7,1.72-3.46,2.53-5.26-1.56,1.5-3.12,2.28-4.7,3.52-.19.15-.22-.56-.04-.81,2.02-2.59,4.1-3.38,6.1-6.25.09-.13.18-.24.26-.37.06-.1.12-.21.19-.3.32-.78.65-1.57.96-2.37-3.24,1.6-6.43,1.15-9.12-1.12-.36-.3-.1-1.96.31-1.94.24.01.49.02.74.02-.07-.05-.14-.09-.21-.14-.06-.04-.01-.31.05-.31.16,0,.32-.03.48-.05.03-.04.06-.1.1-.11,3-.76,6.03-3.83,8.96-8.2.31-.46.63-.97.95-1.49-1.31.39-2.57.35-3.75-.18-1.22-.29-2.34-1.19-3.21-2.72-.68-.43-1.32-1.1-1.87-2.19-.04-.09,0-.3.06-.3.65,0,1.28.04,1.91.09.05-.41.19-.82.36-.8,1.77.27,3.5-.53,5.17-2.09.36-.34.72-.72,1.08-1.13,0,0,.02-.02.02-.03.36-.41.72-.86,1.07-1.34.36-.49.73-1.02,1.08-1.58,0,0,0-.01.01-.02.34-.53.68-1.08,1.01-1.66-.21-.04-.42-.08-.63-.16,0,0,0,0-.01,0-.2-.07-.4-.17-.6-.28-.02-.01-.03-.02-.05-.03-.19-.11-.37-.24-.54-.39-.02-.01-.04-.03-.05-.04-1.03.27-2.03,0-3.01-1.01-.18-.19-.01-.98.18-.85.44.28.93.31,1.44.16-.06-.11-.13-.22-.19-.34,0-.01-.01-.02-.02-.04-.13-.24-.25-.48-.37-.75-.1-.22.04-.8.18-.66.12.13.25.22.38.34.02-.02.04-.04.07-.04.17-.05.35-.1.53-.17,0,0,0,0,0,0,.96-.34,1.93-.98,2.9-1.93-.74.18-1.47.14-2.19-.14-.26-.1-.16-1.16.13-1.21.3-.05.6-.15.91-.27.14-.06.28-.14.43-.21.15-.08.3-.15.45-.25.19-.12.39-.26.58-.4.08-.06.17-.13.25-.2.23-.19.46-.39.69-.62.02-.02.04-.05.06-.07.36-.36.72-.77,1.07-1.22-.66.33-1.28.52-1.78.58-1.53.18-4.24.29-4.74-3.66-.05-.39.18-.86.3-.62.2.42.43.73.68,1,.04-.26.12-.48.24-.58.02-.01.04-.04.06-.04.16-.04.32-.11.49-.21.03-.02.07-.04.1-.06.16-.1.33-.22.49-.36.23-.2.46-.43.7-.69,0,0,0,0,0,0,.47-.52.95-1.17,1.42-1.89,0-.01.02-.03.03-.04.23-.34.45-.7.68-1.07.03-.04.05-.09.08-.13.22-.36.44-.73.65-1.11,0-.01.02-.03.02-.04.19-.34.39-.69.57-1.03.04-.08.09-.16.13-.24-.43.06-.85.08-1.29.03-.04,0-.06-.04-.08-.09,0,0,0-.02,0-.03-.03-.11-.04-.27,0-.43,0,0,0,0,0-.01.03-.2.11-.38.2-.39.15,0,.31-.04.46-.09.09-.03.18-.07.26-.1.08-.03.17-.06.25-.11.11-.06.22-.13.34-.21.05-.03.1-.06.15-.1.13-.09.25-.19.38-.3.04-.03.07-.06.11-.09.14-.12.28-.25.42-.39.01-.01.02-.02.04-.04.62-1.2,1.21-2.43,1.78-3.7-1.11,1.07-2.22,1.62-3.35,2.51-.14.11-.16-.4-.03-.57,1.44-1.84,2.92-2.4,4.34-4.45.06-.09.13-.17.19-.26.04-.07.09-.15.13-.21.12-.3.25-.61.37-.91-.02-.11,0-.27.07-.3.02-.01.04-.03.07-.04.06-.15.12-.29.18-.44-2.31,1.14-4.58.82-6.5-.8-.26-.21-.07-1.4.22-1.38.17,0,.35.01.53.02-.05-.03-.1-.06-.15-.1-.04-.03-.01-.22.04-.22.11,0,.23-.02.35-.04.02-.03.05-.07.07-.08,2.14-.54,4.29-2.73,6.38-5.84.22-.33.45-.69.68-1.06-.93.28-1.83.25-2.67-.13-.87-.2-1.67-.84-2.29-1.93-.49-.31-.94-.78-1.33-1.56-.03-.06,0-.22.04-.22.46,0,.91.03,1.36.06.04-.29.14-.59.26-.57,1.26.19,2.49-.37,3.68-1.49.26-.24.51-.51.77-.8,0,0,.01-.01.02-.02.26-.3.51-.61.76-.96.26-.35.52-.73.77-1.12,0,0,0,0,0-.01.49-.76.98-1.61,1.45-2.52.04-.08.08-.16.12-.24.22-.43.45-.88.67-1.34-1.81,2.14-3.45,3.15-5.01,1.54-.13-.13,0-.69.13-.61,1.08.69,2.55-.68,3.87-2.55-.65.24-1.3.26-1.93.01-.19-.07-.11-.82.1-.86.21-.04.43-.11.64-.19.1-.04.2-.1.3-.15.11-.05.21-.11.32-.17.14-.09.27-.18.41-.29.06-.05.12-.09.18-.14.16-.14.33-.28.49-.44.02-.02.03-.03.05-.05.32-.32.63-.68.95-1.1,0,0,0,0,0,0,.76-1.01,1.5-2.29,2.18-3.82.15-.37.31-.73.46-1.08.17-.43.33-.88.49-1.32-1.36,2.4-2.84,4-4.3,4.86-.24.14-.22-.72,0-.95,1.43-1.37,2.82-3.7,4.06-6.48-1.29,1.31-2.57,1.9-3.91,1.76-.03,0-.04-.03-.06-.06,0,0,0-.01,0-.02-.02-.08-.03-.19,0-.31,0,0,0,0,0,0,.02-.14.08-.27.15-.28.11,0,.22-.03.33-.06.06-.02.13-.05.19-.07.06-.02.12-.04.18-.08.08-.04.16-.09.24-.15.04-.02.07-.04.11-.07.09-.06.18-.14.27-.21.03-.02.05-.04.08-.07.1-.09.2-.18.3-.28.02-.02.03-.03.05-.05.11-.11.21-.23.32-.35,0-.01.02-.02.03-.03.23-.27.46-.57.69-.89,1.12-1.56,2.22-3.68,3.13-5.6-.59.82-1.17,1.36-1.7,1.55-.07.02-.07-.24,0-.28,3.31-1.68,5.4-13.04,6.91-19.8.03-.15.08-.27.13-.37,0-.01.01-.02.02-.03.05-.09.1-.15.15-.19,0,0,0,0,0,0,0,0,.01,0,.02,0,.04-.02.07-.04.1-.04.04,0,.08.01.11.05.05-.32.1-.64.16-.96.02-.1.04-.18.06-.25,0,0,0-.01,0-.02.17-.45.44-.29.45.27.14,13.85,1.37,27.6,6.46,31.28,0,0,.01-.01.02-.02.13.09.24.21.38.29.07.04.04.3-.03.4-1.46,2.43-3.19.42-4.51-2.33.17.59.35,1.18.55,1.74.68,1.87,1.45,4.61,2.53,5.18.01,0,.02,0,.04.01,0,0,.01.02.02.03h0s0,0,0,0c.01.02.03.04.03.07,0,.01,0,.02,0,.03.02.13-.01.32-.09.37-.16.12-.32.22-.5.32,0,0,0,0,0,0-.14.08-.29.14-.44.2-.06.02-.13.04-.19.06-.1.03-.21.07-.31.09-.07.02-.14.03-.21.04-.1.02-.21.04-.31.05-.07,0-.15.01-.22.01-.11,0-.21,0-.32,0-.07,0-.14,0-.21-.01-.11-.01-.22-.03-.34-.05-.07-.01-.13-.02-.2-.04-.12-.03-.25-.07-.37-.11-.05-.02-.11-.03-.16-.06-.18-.07-.35-.16-.52-.26.28,2.26.68,4.29,1.42,6.09.21.52.43,1.04.65,1.55,0,.01.01.03.02.04.22.52.45,1.03.69,1.51.13.28.27.55.41.81.02.04.04.07.06.11.12.22.25.44.37.65.03.06.07.12.1.17.12.19.24.36.36.54.04.06.08.12.12.18.16.22.33.42.5.61.28.06.54.11.77.18.1.02.09.32,0,.48-.08.13-.17.25-.25.37-.01.14-.04.28-.08.39,0,0,0,0,0,0,0,0,0,0,0,0-.02.06-.04.1-.07.13,0,0-.01.02-.02.03-.03.03-.07.05-.1.03-.05-.01-.11-.05-.16-.07-.13.13-.25.24-.38.33-.04.03-.09.05-.13.08-.09.06-.17.12-.26.16-.06.03-.12.05-.18.07-.08.03-.15.07-.23.09-.07.02-.14.03-.21.05-.07.01-.13.03-.2.04-.08.01-.17.01-.25.01-.05,0-.11,0-.16,0-.1,0-.2-.01-.3-.03-.04,0-.07,0-.11-.01-.12-.02-.23-.05-.35-.08-.02,0-.03,0-.05-.01-.18-.05-.37-.11-.55-.19.32.99.68,1.92,1.11,2.52.42.26.89.37,1.42.27.06,0,.07.22.01.33-.02.03-.04.06-.06.09.07,0,.05.24,0,.33-.23.36-.46.57-.68.67-.08.1-.16.17-.24.24,0,0,0,0,0,0-.3.29-.6.48-.89.56,0,0,0,0,0,0-.11.02-.21.05-.32.05.9,1.45,2.01,2.42,3.11,2.64.14,0,.28-.03.43-.06.17-.11.34-.23.51-.36.31-.25.33.7.12,1.22-1,2.52-2.5,3.58-3.84,3.99-.18.06-.36.1-.53.13.1.51.2,1.01.32,1.49.08.31.17.64.26.97.04.14.09.28.13.43.06.18.12.37.18.56.07.2.13.39.2.59.04.11.08.23.13.34.55,1.49,1.24,2.98,1.97,4.11,0,0,0,0,0,0,.14.21.27.41.41.6.16.21.32.41.48.57.74.12,1.48.06,2.22-.26.06-.02.12.16.05.33-.18.47-.38.87-.58,1.22-.02.03-.04.07-.05.1,0,0,0,0,0,0-.16.27-.32.5-.48.71-.03.04-.07.08-.1.12-.16.19-.32.35-.48.49,0,0,0,0-.01.01-.17.13-.34.24-.51.32-.04.02-.08.04-.12.05-.17.07-.34.13-.51.16.56.41,1.13.77,1.7,1.13.09.06.02.42-.07.45-1.1.37-2.41.22-3.59-.61.27.7.54,1.33.78,1.89.13.3.27.58.41.83.01.02.03.04.04.06.13.23.27.45.42.65,0,.01.02.02.03.03.18.26.38.48.57.68.01.02.03.03.04.05.21.2.42.38.64.53,0,0,.02,0,.02.01.2.13.4.23.6.32.05.02.1.04.15.06.21.08.43.15.65.19.31-.13.63-.25.94-.35.07-.02.07.24.01.36-.01.03-.03.05-.04.08.05.05.04.26-.03.35-.17.25-.33.46-.49.65-.11.2-.23.37-.34.55,0,0,0,0,0,0-.82,1.29-1.68,2.09-2.54,2.5,0,0-.02,0-.02.01-.21.1-.41.18-.62.23-.03,0-.05,0-.08.02-.19.05-.38.09-.57.1-.06,0-.12,0-.18,0-.16,0-.32.01-.47,0-.22-.02-.44-.06-.66-.11.15.18.3.33.46.48.14.13.29.24.44.34.01,0,.03.02.04.03.4.05.8.14,1.19.27.06.02.1.1.12.21.3-.05.6-.11.88-.19.22-.06.15.71-.01.98-3.45,5.51-7.47,2.28-10.38-1.15,0,.39,0,.78.01,1.17.33,1.56.75,3.03,1.32,4.4.3.73.61,1.46.92,2.18,0,.02.02.04.03.06.32.73.64,1.44.97,2.12.19.39.38.77.58,1.14.03.05.05.1.08.15.17.32.34.62.52.91.05.08.1.17.14.24.16.26.33.51.5.75.06.08.12.17.17.25.23.31.46.59.7.85.39.08.76.16,1.09.25.13.03.12.45,0,.67-.11.19-.23.35-.35.52-.02.2-.06.4-.12.55,0,0,0,0,0,0,0,0,0,0,0,0-.03.08-.06.14-.1.18,0,.01-.02.03-.03.05-.04.05-.09.07-.14.05-.07-.02-.15-.06-.22-.09-.18.18-.36.33-.54.47-.06.04-.12.08-.18.12-.12.08-.24.16-.37.23-.08.04-.16.07-.25.1-.11.04-.21.09-.32.12-.1.03-.2.05-.3.07-.09.02-.18.04-.27.05-.12.01-.23.02-.35.02-.07,0-.15,0-.22,0-.14,0-.28-.02-.41-.04-.05,0-.1-.01-.15-.02-.16-.03-.33-.06-.49-.11-.02,0-.04-.01-.07-.02-.26-.07-.52-.16-.77-.27.45,1.4.95,2.69,1.56,3.54.59.36,1.24.51,1.99.38.09-.01.1.31.02.46-.03.05-.06.08-.08.13.09,0,.07.34-.01.47-.32.51-.64.8-.95.94-.11.13-.22.24-.33.34,0,0,0,0-.01.01-.42.41-.84.68-1.25.79,0,0,0,0,0,0-.15.03-.3.06-.45.07,1.27,2.03,2.82,3.4,4.37,3.71.2,0,.39-.04.6-.08.24-.15.47-.32.71-.51.43-.35.46.98.17,1.71-1.41,3.54-3.51,5.03-5.39,5.6-.25.08-.5.14-.75.19.13.72.28,1.42.44,2.09.11.44.23.9.37,1.37.06.2.12.4.18.6.08.26.16.52.25.78.09.28.19.55.29.83.06.16.12.32.18.48.78,2.1,1.74,4.19,2.76,5.77,0,0,0,0,0,0,.19.29.38.57.58.84.22.29.45.57.67.8,1.04.17,2.08.09,3.11-.36.09-.03.17.22.07.46-.26.66-.53,1.22-.81,1.71-.03.05-.05.1-.08.15,0,0,0,0,0,0-.22.38-.45.7-.68.99-.05.06-.09.11-.14.17-.22.26-.45.5-.68.69,0,0,0,0-.02.01-.24.19-.47.33-.71.45-.06.03-.11.05-.17.08-.24.1-.48.18-.71.23.79.57,1.58,1.08,2.39,1.58.13.08.02.59-.1.63-1.54.53-3.38.31-5.04-.86.38.98.76,1.87,1.1,2.66.19.42.38.81.58,1.17.02.03.04.06.05.09.19.33.38.64.59.92.01.02.02.03.04.05.26.36.53.67.81.96.02.02.04.04.06.07.29.29.59.53.9.74.01,0,.02.01.03.02.28.18.56.33.85.46.07.03.14.06.21.09.3.12.61.21.92.27.44-.18.88-.35,1.32-.49.1-.03.1.34.02.51-.02.04-.04.07-.06.11.07.08.05.37-.04.49-.23.35-.46.64-.69.91-.16.28-.32.52-.48.77,0,0,0,0,0,0-1.15,1.81-2.35,2.93-3.57,3.51-.01,0-.02,0-.03.01-.29.14-.58.25-.87.33-.04,0-.07.01-.11.02-.27.07-.54.12-.81.14-.08,0-.17,0-.25,0-.22,0-.44.02-.67,0-.31-.03-.62-.08-.92-.15.21.25.42.47.64.67.2.18.41.34.61.48.02.01.04.03.05.04.57.07,1.13.19,1.67.38.08.03.14.14.17.29.42-.07.84-.15,1.23-.26.3-.09.22,1-.02,1.37-4.85,7.74-10.49,3.2-14.57-1.61,0,1.1.03,2.18.05,3.27.02,1.01.03,2.03.06,3.04.06,1.85.15,3.69.26,5.55,0,.08,0,.15-.02.22,0,0,0,.01,0,.02-.03.1-.07.17-.11.16-.02,0-.04-.02-.05-.07-.12-.45-.24-.89-.35-1.34-.1-.32-.19-.66-.28-1,.08.47.15.95.24,1.4.04.21-.09.49-.14.3-1.46-5.1-2.92-9.55-3.73-15.78-.69,3.3-1.47,6.14-2.56,9.04-.08.23-.19.02-.11-.22.58-1.65,1.08-3.58,1.53-5.62-.29.79-.59,1.53-.87,2.21-.52,1.25-1.07,2.38-1.62,3.47-1.33,12.24-2.46,25.12-2.46,25.12-4.47,4.07-5.42-1.81-5.42-1.81.94-5.8,2.52-17.67,3.72-26.93-.9,1.99-1.84,3.85-2.72,5.66-.08.17-.15-.09-.07-.27.95-2.11,1.88-4.46,2.75-6.89-1.14,2.05-2.32,3.85-3.52,5.29-.31.38-.62.7-.93,1-.15.15-.3.3-.45.44,0,0,0,0-.01.01-.02.02-.04.03-.06.05-.93.83-1.85,1.43-2.77,1.88-.06.03-.12.06-.18.09-.26.12-.51.23-.77.33-.11.04-.21.08-.32.12-.23.09-.47.17-.7.24-.14.04-.27.09-.41.13-.21.06-.42.13-.63.18-.2.06-.4.11-.6.16-.48.12-.96.25-1.44.38-.05.01-.08,0-.12-.03-.01,0-.02-.02-.03-.04-.02-.03-.03-.06-.05-.1,0-.02-.01-.04-.02-.07-.01-.06-.02-.12-.03-.19,0-.01,0-.02,0-.04,0-.09,0-.18,0-.27,0-.03,0-.06,0-.09,0-.07.02-.14.03-.22,0-.03,0-.06.02-.09.02-.08.03-.16.06-.23,0-.02,0-.04.01-.05,0,0,0,0,0,0,0-.02.02-.04.03-.07.06-.16.12-.3.21-.36.36-.3.72-.56,1.07-.82.22-.16.43-.31.65-.46.34-.35.68-.73,1.02-1.14.03-.09.07-.16.11-.19.06-.04.12-.12.19-.18.63-.82,1.25-1.76,1.85-2.91.05-.1.11-.21.16-.33-3.6,4.88-7.59,7.24-10.9,6.04,0,0-.01,0-.02,0-.28-.1-.56-.24-.84-.39-.02-.01-.05-.03-.07-.04-.26-.15-.52-.34-.77-.54-.03-.03-.07-.06-.1-.09-.24-.21-.48-.43-.7-.69-.04-.04-.08-.09-.12-.13-.22-.26-.44-.53-.65-.84-.04-.06-.08-.12-.12-.18-.2-.31-.4-.63-.59-.99,0-.02-.02-.03-.03-.05-.18-.34-.35-.67-.52-1.05-.13-.31.06-1.13.25-.93.17.19.36.32.54.47.03-.03.06-.06.09-.06.24-.07.49-.14.74-.24,0,0,0,0,0,0,2.2-.79,4.48-2.69,6.63-5.79-.51.41-1.03.79-1.54,1.19-.25.2-.22-.72.01-.96,1.28-1.27,2.66-2.58,3.91-4.54-1.52,1.06-3,1.64-4.1,1.76-2.15.25-5.96.41-6.66-5.14Z"
  />
</svg>
