<svg width="1080" height="1080" viewBox="0 0 1080 1080" fill="none" xmlns="http://www.w3.org/2000/svg">
<path d="M42.9844 530.063L198.504 258.443C201.42 253.259 206.28 253.259 209.304 258.443L435.348 649.943C438.264 655.127 438.264 663.443 435.348 668.627L395.928 735.587C392.904 740.663 388.044 740.663 385.02 735.587L160.164 346.031" stroke="#465C8C" stroke-width="3" stroke-miterlimit="10"/>
<path d="M807.192 766.367L729.216 902.123C726.3 907.307 721.44 907.307 718.416 902.123L348.3 258.443C345.384 253.259 338.04 249.047 332.1 249.047H253.908C247.968 249.047 245.484 253.259 248.508 258.443L454.464 615.275C457.38 620.459 462.24 620.459 465.264 615.275L506.412 544.103" stroke="#465C8C" stroke-width="3" stroke-miterlimit="10"/>
<path d="M820.584 491.076L732.024 490.32C726.084 490.32 718.848 494.424 715.824 499.608L483.408 902.124C480.384 907.308 482.868 911.412 488.808 911.412L567.324 910.98C573.264 910.98 580.5 906.66 583.524 901.584L812.268 505.332" stroke="#465C8C" stroke-width="3" stroke-miterlimit="10"/>
<path d="M1076.33 376.812H469.152C463.212 376.812 460.728 381.025 463.644 386.209L502.2 453.817C505.116 459.001 512.352 463.213 518.292 463.213H844.776C850.716 463.213 858.06 459 860.976 453.924L899.748 387.613" stroke="#465C8C" stroke-width="3" stroke-miterlimit="10"/>
<path d="M975.132 462.887L861.084 265.787C858.06 260.603 850.824 256.391 844.884 256.391H399.06C393.12 256.391 390.636 260.603 393.552 265.787L431.892 333.395C434.808 338.579 442.044 342.791 447.984 342.791H883.44" stroke="#465C8C" stroke-width="3" stroke-miterlimit="10"/>
<path d="M192.133 481.14L383.941 815.4C386.857 820.584 391.717 820.584 394.741 815.4L766.909 168.48" stroke="#465C8C" stroke-width="3" stroke-miterlimit="10"/>
<path d="M590.652 491.074H670.788C676.728 491.074 679.104 495.286 676.188 500.47L444.42 901.906C441.396 907.09 436.536 907.09 433.62 901.906L391.824 829.546" stroke="#465C8C" stroke-width="3" stroke-miterlimit="10"/>
<path d="M42.9831 530.603C43.4603 530.603 43.8471 530.216 43.8471 529.739C43.8471 529.262 43.4603 528.875 42.9831 528.875C42.506 528.875 42.1191 529.262 42.1191 529.739C42.1191 530.216 42.506 530.603 42.9831 530.603Z" fill="#7DD3FC"/>
<path d="M807.085 767.665C807.562 767.665 807.949 767.279 807.949 766.801C807.949 766.324 807.562 765.938 807.085 765.938C806.608 765.938 806.221 766.324 806.221 766.801C806.221 767.279 806.608 767.665 807.085 767.665Z" fill="#7DD3FC"/>
<path d="M975.132 463.751C975.609 463.751 975.996 463.365 975.996 462.887C975.996 462.41 975.609 462.023 975.132 462.023C974.654 462.023 974.268 462.41 974.268 462.887C974.268 463.365 974.654 463.751 975.132 463.751Z" fill="#7DD3FC"/>
<path d="M820.8 492.263C821.277 492.263 821.664 491.876 821.664 491.399C821.664 490.922 821.277 490.535 820.8 490.535C820.322 490.535 819.936 490.922 819.936 491.399C819.936 491.876 820.322 492.263 820.8 492.263Z" fill="#7DD3FC"/>
<path d="M591.085 492.048C591.562 492.048 591.949 491.661 591.949 491.184C591.949 490.707 591.562 490.32 591.085 490.32C590.608 490.32 590.221 490.707 590.221 491.184C590.221 491.661 590.608 492.048 591.085 492.048Z" fill="#7DD3FC"/>
<path d="M1076.44 377.568C1076.91 377.568 1077.3 377.181 1077.3 376.704C1077.3 376.227 1076.91 375.84 1076.44 375.84C1075.96 375.84 1075.57 376.227 1075.57 376.704C1075.57 377.181 1075.96 377.568 1076.44 377.568Z" fill="#7DD3FC"/>
<path d="M392.04 830.521C392.517 830.521 392.904 830.134 392.904 829.657C392.904 829.18 392.517 828.793 392.04 828.793C391.563 828.793 391.176 829.18 391.176 829.657C391.176 830.134 391.563 830.521 392.04 830.521Z" fill="#7DD3FC"/>
<path d="M505.872 544.861C506.349 544.861 506.736 544.474 506.736 543.997C506.736 543.52 506.349 543.133 505.872 543.133C505.395 543.133 505.008 543.52 505.008 543.997C505.008 544.474 505.395 544.861 505.872 544.861Z" fill="#7DD3FC"/>
<path d="M191.917 482.111C192.394 482.111 192.781 481.724 192.781 481.247C192.781 480.77 192.394 480.383 191.917 480.383C191.44 480.383 191.053 480.77 191.053 481.247C191.053 481.724 191.44 482.111 191.917 482.111Z" fill="#7DD3FC"/>
<path d="M160.596 347.111C161.074 347.111 161.46 346.724 161.46 346.247C161.46 345.77 161.074 345.383 160.596 345.383C160.119 345.383 159.732 345.77 159.732 346.247C159.732 346.724 160.119 347.111 160.596 347.111Z" fill="#7DD3FC"/>
<path d="M899.749 388.369C900.226 388.369 900.613 387.982 900.613 387.505C900.613 387.027 900.226 386.641 899.749 386.641C899.272 386.641 898.885 387.027 898.885 387.505C898.885 387.982 899.272 388.369 899.749 388.369Z" fill="#7DD3FC"/>
<path d="M812.052 505.982C812.529 505.982 812.916 505.595 812.916 505.118C812.916 504.641 812.529 504.254 812.052 504.254C811.574 504.254 811.188 504.641 811.188 505.118C811.188 505.595 811.574 505.982 812.052 505.982Z" fill="#7DD3FC"/>
<path d="M884.303 343.548C884.781 343.548 885.167 343.161 885.167 342.684C885.167 342.207 884.781 341.82 884.303 341.82C883.826 341.82 883.439 342.207 883.439 342.684C883.439 343.161 883.826 343.548 884.303 343.548Z" fill="#7DD3FC"/>
<path d="M766.909 168.802C767.386 168.802 767.773 168.415 767.773 167.938C767.773 167.461 767.386 167.074 766.909 167.074C766.432 167.074 766.045 167.461 766.045 167.938C766.045 168.415 766.432 168.802 766.909 168.802Z" fill="#7DD3FC"/>
<path d="M204.012 255.744C204.49 255.744 204.876 255.357 204.876 254.88C204.876 254.402 204.49 254.016 204.012 254.016C203.535 254.016 203.148 254.402 203.148 254.88C203.148 255.357 203.535 255.744 204.012 255.744Z" fill="#7DD3FC"/>
<path d="M247.968 252.396C248.445 252.396 248.832 252.009 248.832 251.532C248.832 251.055 248.445 250.668 247.968 250.668C247.49 250.668 247.104 251.055 247.104 251.532C247.104 252.009 247.49 252.396 247.968 252.396Z" fill="#7DD3FC"/>
<path d="M340.848 252.611C341.326 252.611 341.712 252.224 341.712 251.747C341.712 251.27 341.326 250.883 340.848 250.883C340.371 250.883 339.984 251.27 339.984 251.747C339.984 252.224 340.371 252.611 340.848 252.611Z" fill="#7DD3FC"/>
<path d="M459.864 620.244C460.341 620.244 460.728 619.857 460.728 619.38C460.728 618.902 460.341 618.516 459.864 618.516C459.387 618.516 459 618.902 459 619.38C459 619.857 459.387 620.244 459.864 620.244Z" fill="#7DD3FC"/>
<path d="M437.077 658.259C437.554 658.259 437.941 657.872 437.941 657.395C437.941 656.918 437.554 656.531 437.077 656.531C436.6 656.531 436.213 656.918 436.213 657.395C436.213 657.872 436.6 658.259 437.077 658.259Z" fill="#7DD3FC"/>
<path d="M390.421 740.232C390.898 740.232 391.285 739.845 391.285 739.368C391.285 738.891 390.898 738.504 390.421 738.504C389.943 738.504 389.557 738.891 389.557 739.368C389.557 739.845 389.943 740.232 390.421 740.232Z" fill="#7DD3FC"/>
<path d="M389.341 820.154C389.818 820.154 390.205 819.767 390.205 819.29C390.205 818.813 389.818 818.426 389.341 818.426C388.863 818.426 388.477 818.813 388.477 819.29C388.477 819.767 388.863 820.154 389.341 820.154Z" fill="#7DD3FC"/>
<path d="M439.128 906.876C439.605 906.876 439.992 906.49 439.992 906.012C439.992 905.535 439.605 905.148 439.128 905.148C438.651 905.148 438.264 905.535 438.264 906.012C438.264 906.49 438.651 906.876 439.128 906.876Z" fill="#7DD3FC"/>
<path d="M483.085 909.576C483.562 909.576 483.949 909.189 483.949 908.712C483.949 908.235 483.562 907.848 483.085 907.848C482.608 907.848 482.221 908.235 482.221 908.712C482.221 909.189 482.608 909.576 483.085 909.576Z" fill="#7DD3FC"/>
<path d="M577.368 908.279C577.845 908.279 578.232 907.892 578.232 907.415C578.232 906.938 577.845 906.551 577.368 906.551C576.891 906.551 576.504 906.938 576.504 907.415C576.504 907.892 576.891 908.279 577.368 908.279Z" fill="#7DD3FC"/>
<path d="M581.903 665.498C582.38 665.498 582.767 665.111 582.767 664.634C582.767 664.156 582.38 663.77 581.903 663.77C581.426 663.77 581.039 664.156 581.039 664.634C581.039 665.111 581.426 665.498 581.903 665.498Z" fill="#7DD3FC"/>
<path d="M601.128 699.298C601.605 699.298 601.992 698.911 601.992 698.434C601.992 697.957 601.605 697.57 601.128 697.57C600.65 697.57 600.264 697.957 600.264 698.434C600.264 698.911 600.65 699.298 601.128 699.298Z" fill="#7DD3FC"/>
<path d="M650.807 785.916C651.285 785.916 651.671 785.529 651.671 785.052C651.671 784.574 651.285 784.188 650.807 784.188C650.33 784.188 649.943 784.574 649.943 785.052C649.943 785.529 650.33 785.916 650.807 785.916Z" fill="#7DD3FC"/>
<path d="M723.925 906.662C724.402 906.662 724.789 906.275 724.789 905.798C724.789 905.32 724.402 904.934 723.925 904.934C723.447 904.934 723.061 905.32 723.061 905.798C723.061 906.275 723.447 906.662 723.925 906.662Z" fill="#7DD3FC"/>
<path d="M531.468 578.232C531.945 578.232 532.332 577.845 532.332 577.368C532.332 576.891 531.945 576.504 531.468 576.504C530.99 576.504 530.604 576.891 530.604 577.368C530.604 577.845 530.99 578.232 531.468 578.232Z" fill="#7DD3FC"/>
<path d="M676.727 494.318C677.204 494.318 677.591 493.931 677.591 493.454C677.591 492.977 677.204 492.59 676.727 492.59C676.25 492.59 675.863 492.977 675.863 493.454C675.863 493.931 676.25 494.318 676.727 494.318Z" fill="#7DD3FC"/>
<path d="M723.493 493.884C723.97 493.884 724.357 493.497 724.357 493.02C724.357 492.543 723.97 492.156 723.493 492.156C723.016 492.156 722.629 492.543 722.629 493.02C722.629 493.497 723.016 493.884 723.493 493.884Z" fill="#7DD3FC"/>
<path d="M856.979 459.216C857.456 459.216 857.843 458.829 857.843 458.352C857.843 457.875 857.456 457.488 856.979 457.488C856.502 457.488 856.115 457.875 856.115 458.352C856.115 458.829 856.502 459.216 856.979 459.216Z" fill="#7DD3FC"/>
<path d="M597.563 464.076C598.04 464.076 598.427 463.689 598.427 463.212C598.427 462.734 598.04 462.348 597.563 462.348C597.086 462.348 596.699 462.734 596.699 463.212C596.699 463.689 597.086 464.076 597.563 464.076Z" fill="#7DD3FC"/>
<path d="M507.493 460.189C507.97 460.189 508.357 459.802 508.357 459.325C508.357 458.848 507.97 458.461 507.493 458.461C507.016 458.461 506.629 458.848 506.629 459.325C506.629 459.802 507.016 460.189 507.493 460.189Z" fill="#7DD3FC"/>
<path d="M463.319 379.728C463.796 379.728 464.183 379.341 464.183 378.864C464.183 378.387 463.796 378 463.319 378C462.842 378 462.455 378.387 462.455 378.864C462.455 379.341 462.842 379.728 463.319 379.728Z" fill="#7DD3FC"/>
<path d="M646.811 377.677C647.288 377.677 647.675 377.29 647.675 376.813C647.675 376.336 647.288 375.949 646.811 375.949C646.334 375.949 645.947 376.336 645.947 376.813C645.947 377.29 646.334 377.677 646.811 377.677Z" fill="#7DD3FC"/>
<path d="M666.36 343.763C666.837 343.763 667.224 343.376 667.224 342.899C667.224 342.422 666.837 342.035 666.36 342.035C665.883 342.035 665.496 342.422 665.496 342.899C665.496 343.376 665.883 343.763 666.36 343.763Z" fill="#7DD3FC"/>
<path d="M852.661 259.955C853.138 259.955 853.525 259.568 853.525 259.091C853.525 258.613 853.138 258.227 852.661 258.227C852.184 258.227 851.797 258.613 851.797 259.091C851.797 259.568 852.184 259.955 852.661 259.955Z" fill="#7DD3FC"/>
<path d="M716.04 257.255C716.517 257.255 716.904 256.869 716.904 256.391C716.904 255.914 716.517 255.527 716.04 255.527C715.563 255.527 715.176 255.914 715.176 256.391C715.176 256.869 715.563 257.255 716.04 257.255Z" fill="#7DD3FC"/>
<path d="M392.688 259.955C393.165 259.955 393.552 259.568 393.552 259.091C393.552 258.613 393.165 258.227 392.688 258.227C392.211 258.227 391.824 258.613 391.824 259.091C391.824 259.568 392.211 259.955 392.688 259.955Z" fill="#7DD3FC"/>
<path d="M439.02 340.63C439.497 340.63 439.884 340.244 439.884 339.766C439.884 339.289 439.497 338.902 439.02 338.902C438.543 338.902 438.156 339.289 438.156 339.766C438.156 340.244 438.543 340.63 439.02 340.63Z" fill="#7DD3FC"/>
<path d="M97.5242 435.564C98.0013 435.564 98.3882 435.177 98.3882 434.7C98.3882 434.223 98.0013 433.836 97.5242 433.836C97.047 433.836 96.6602 434.223 96.6602 434.7C96.6602 435.177 97.047 435.564 97.5242 435.564Z" fill="#7DD3FC"/>
<path d="M275.077 373.033C275.554 373.033 275.941 372.646 275.941 372.169C275.941 371.692 275.554 371.305 275.077 371.305C274.6 371.305 274.213 371.692 274.213 372.169C274.213 372.646 274.6 373.033 275.077 373.033Z" fill="#7DD3FC"/>
<path d="M376.704 550.044C377.181 550.044 377.568 549.658 377.568 549.18C377.568 548.703 377.181 548.316 376.704 548.316C376.227 548.316 375.84 548.703 375.84 549.18C375.84 549.658 376.227 550.044 376.704 550.044Z" fill="#7DD3FC"/>
<path d="M343.116 423.576C343.593 423.576 343.98 423.189 343.98 422.712C343.98 422.234 343.593 421.848 343.116 421.848C342.639 421.848 342.252 422.234 342.252 422.712C342.252 423.189 342.639 423.576 343.116 423.576Z" fill="#7DD3FC"/>
<path d="M236.196 558.9C236.673 558.9 237.06 558.513 237.06 558.036C237.06 557.559 236.673 557.172 236.196 557.172C235.719 557.172 235.332 557.559 235.332 558.036C235.332 558.513 235.719 558.9 236.196 558.9Z" fill="#7DD3FC"/>
<path d="M306.612 681.373C307.089 681.373 307.476 680.986 307.476 680.509C307.476 680.031 307.089 679.645 306.612 679.645C306.135 679.645 305.748 680.031 305.748 680.509C305.748 680.986 306.135 681.373 306.612 681.373Z" fill="#7DD3FC"/>
<path d="M227.231 463.642C227.708 463.642 228.095 463.255 228.095 462.778C228.095 462.301 227.708 461.914 227.231 461.914C226.754 461.914 226.367 462.301 226.367 462.778C226.367 463.255 226.754 463.642 227.231 463.642Z" fill="#7DD3FC"/>
<path d="M309.421 605.232C309.898 605.232 310.285 604.845 310.285 604.368C310.285 603.891 309.898 603.504 309.421 603.504C308.943 603.504 308.557 603.891 308.557 604.368C308.557 604.845 308.943 605.232 309.421 605.232Z" fill="#7DD3FC"/>
<path d="M465.479 693.142C465.956 693.142 466.343 692.755 466.343 692.278C466.343 691.801 465.956 691.414 465.479 691.414C465.002 691.414 464.615 691.801 464.615 692.278C464.615 692.755 465.002 693.142 465.479 693.142Z" fill="#7DD3FC"/>
<path d="M514.512 780.408C514.99 780.408 515.376 780.021 515.376 779.544C515.376 779.067 514.99 778.68 514.512 778.68C514.035 778.68 513.648 779.067 513.648 779.544C513.648 780.021 514.035 780.408 514.512 780.408Z" fill="#7DD3FC"/>
<path d="M517.536 844.345C518.013 844.345 518.4 843.958 518.4 843.481C518.4 843.004 518.013 842.617 517.536 842.617C517.059 842.617 516.672 843.004 516.672 843.481C516.672 843.958 517.059 844.345 517.536 844.345Z" fill="#7DD3FC"/>
<path d="M714.311 675.65C714.788 675.65 715.175 675.263 715.175 674.786C715.175 674.309 714.788 673.922 714.311 673.922C713.834 673.922 713.447 674.309 713.447 674.786C713.447 675.263 713.834 675.65 714.311 675.65Z" fill="#7DD3FC"/>
<path d="M769.932 579.634C770.41 579.634 770.796 579.247 770.796 578.77C770.796 578.293 770.41 577.906 769.932 577.906C769.455 577.906 769.068 578.293 769.068 578.77C769.068 579.247 769.455 579.634 769.932 579.634Z" fill="#7DD3FC"/>
<path d="M659.555 598.642C660.033 598.642 660.419 598.255 660.419 597.778C660.419 597.301 660.033 596.914 659.555 596.914C659.078 596.914 658.691 597.301 658.691 597.778C658.691 598.255 659.078 598.642 659.555 598.642Z" fill="#7DD3FC"/>
<path d="M642.059 560.951C642.536 560.951 642.923 560.564 642.923 560.087C642.923 559.609 642.536 559.223 642.059 559.223C641.582 559.223 641.195 559.609 641.195 560.087C641.195 560.564 641.582 560.951 642.059 560.951Z" fill="#7DD3FC"/>
<path d="M768.635 834.517C769.113 834.517 769.499 834.13 769.499 833.653C769.499 833.176 769.113 832.789 768.635 832.789C768.158 832.789 767.771 833.176 767.771 833.653C767.771 834.13 768.158 834.517 768.635 834.517Z" fill="#7DD3FC"/>
<path d="M418.391 553.931C418.869 553.931 419.255 553.544 419.255 553.067C419.255 552.59 418.869 552.203 418.391 552.203C417.914 552.203 417.527 552.59 417.527 553.067C417.527 553.544 417.914 553.931 418.391 553.931Z" fill="#7DD3FC"/>
<path d="M407.051 361.583C407.529 361.583 407.916 361.197 407.916 360.719C407.916 360.242 407.529 359.855 407.051 359.855C406.574 359.855 406.188 360.242 406.188 360.719C406.188 361.197 406.574 361.583 407.051 361.583Z" fill="#7DD3FC"/>
<path d="M713.555 463.751C714.033 463.751 714.419 463.365 714.419 462.887C714.419 462.41 714.033 462.023 713.555 462.023C713.078 462.023 712.691 462.41 712.691 462.887C712.691 463.365 713.078 463.751 713.555 463.751Z" fill="#7DD3FC"/>
<path d="M721.44 377.353C721.917 377.353 722.304 376.966 722.304 376.489C722.304 376.012 721.917 375.625 721.44 375.625C720.963 375.625 720.576 376.012 720.576 376.489C720.576 376.966 720.963 377.353 721.44 377.353Z" fill="#7DD3FC"/>
<path d="M925.776 377.892C926.253 377.892 926.64 377.505 926.64 377.028C926.64 376.551 926.253 376.164 925.776 376.164C925.299 376.164 924.912 376.551 924.912 377.028C924.912 377.505 925.299 377.892 925.776 377.892Z" fill="#7DD3FC"/>
<path d="M833.975 377.892C834.452 377.892 834.839 377.505 834.839 377.028C834.839 376.551 834.452 376.164 833.975 376.164C833.498 376.164 833.111 376.551 833.111 377.028C833.111 377.505 833.498 377.892 833.975 377.892Z" fill="#7DD3FC"/>
<path d="M780.731 343.873C781.208 343.873 781.595 343.486 781.595 343.009C781.595 342.531 781.208 342.145 780.731 342.145C780.254 342.145 779.867 342.531 779.867 343.009C779.867 343.486 780.254 343.873 780.731 343.873Z" fill="#7DD3FC"/>
<path d="M534.708 343.982C535.185 343.982 535.572 343.595 535.572 343.118C535.572 342.641 535.185 342.254 534.708 342.254C534.231 342.254 533.844 342.641 533.844 343.118C533.844 343.595 534.231 343.982 534.708 343.982Z" fill="#7DD3FC"/>
<path d="M570.348 377.458C570.826 377.458 571.212 377.072 571.212 376.594C571.212 376.117 570.826 375.73 570.348 375.73C569.871 375.73 569.484 376.117 569.484 376.594C569.484 377.072 569.871 377.458 570.348 377.458Z" fill="#7DD3FC"/>
<path d="M516.563 257.58C517.04 257.58 517.427 257.193 517.427 256.716C517.427 256.238 517.04 255.852 516.563 255.852C516.086 255.852 515.699 256.238 515.699 256.716C515.699 257.193 516.086 257.58 516.563 257.58Z" fill="#7DD3FC"/>
<path d="M640.979 257.58C641.456 257.58 641.843 257.193 641.843 256.716C641.843 256.238 641.456 255.852 640.979 255.852C640.502 255.852 640.115 256.238 640.115 256.716C640.115 257.193 640.502 257.58 640.979 257.58Z" fill="#7DD3FC"/>
<path d="M63 264H195L176 297H44L63 264Z" fill="#465C8C" fill-opacity="0.2"/>
<path d="M101.734 285.5H98.1075V276.075H101.697C102.667 276.075 103.504 276.263 104.21 276.641C104.919 277.015 105.465 277.555 105.849 278.261C106.235 278.963 106.428 279.805 106.428 280.787C106.428 281.769 106.237 282.613 105.853 283.319C105.47 284.021 104.927 284.561 104.224 284.939C103.521 285.313 102.691 285.5 101.734 285.5ZM100.666 283.328H101.642C102.108 283.328 102.506 283.253 102.834 283.102C103.165 282.952 103.417 282.693 103.589 282.324C103.764 281.956 103.851 281.444 103.851 280.787C103.851 280.131 103.762 279.618 103.584 279.25C103.409 278.882 103.152 278.623 102.811 278.472C102.474 278.322 102.059 278.247 101.568 278.247H100.666V283.328ZM107.612 285.5V276.075H114.405V278.136H110.171V279.756H114.056V281.818H110.171V283.438H114.387V285.5H107.612ZM120.755 279.02C120.731 278.713 120.616 278.474 120.41 278.302C120.208 278.13 119.899 278.044 119.485 278.044C119.221 278.044 119.005 278.077 118.836 278.141C118.67 278.202 118.548 278.287 118.468 278.394C118.388 278.501 118.347 278.624 118.344 278.762C118.338 278.876 118.358 278.979 118.404 279.071C118.453 279.16 118.529 279.241 118.634 279.315C118.738 279.385 118.871 279.45 119.034 279.508C119.197 279.566 119.39 279.618 119.614 279.664L120.387 279.83C120.909 279.94 121.355 280.086 121.726 280.267C122.098 280.448 122.401 280.661 122.638 280.907C122.874 281.149 123.047 281.422 123.158 281.726C123.271 282.03 123.329 282.361 123.333 282.72C123.329 283.34 123.175 283.865 122.868 284.294C122.561 284.724 122.122 285.051 121.551 285.274C120.984 285.498 120.301 285.61 119.503 285.61C118.684 285.61 117.969 285.489 117.359 285.247C116.751 285.004 116.279 284.632 115.941 284.129C115.607 283.622 115.438 282.975 115.435 282.186H117.865C117.88 282.475 117.953 282.717 118.081 282.914C118.21 283.11 118.391 283.259 118.624 283.36C118.861 283.461 119.141 283.512 119.467 283.512C119.74 283.512 119.968 283.478 120.152 283.411C120.336 283.343 120.476 283.249 120.571 283.13C120.666 283.01 120.715 282.874 120.718 282.72C120.715 282.576 120.668 282.45 120.576 282.343C120.487 282.232 120.34 282.134 120.134 282.048C119.928 281.959 119.651 281.876 119.301 281.8L118.362 281.597C117.528 281.416 116.869 281.114 116.388 280.691C115.909 280.264 115.671 279.683 115.674 278.946C115.671 278.348 115.831 277.825 116.153 277.377C116.478 276.926 116.928 276.575 117.501 276.323C118.078 276.071 118.739 275.946 119.485 275.946C120.246 275.946 120.904 276.073 121.459 276.328C122.015 276.582 122.443 276.941 122.743 277.405C123.047 277.865 123.201 278.403 123.204 279.02H120.755ZM126.865 276.075V285.5H124.306V276.075H126.865ZM134.199 279.186C134.159 279.023 134.096 278.88 134.01 278.758C133.924 278.632 133.817 278.526 133.688 278.44C133.562 278.351 133.415 278.285 133.246 278.242C133.08 278.196 132.898 278.173 132.698 278.173C132.269 278.173 131.902 278.276 131.598 278.482C131.298 278.687 131.067 278.983 130.908 279.37C130.751 279.756 130.673 280.223 130.673 280.769C130.673 281.321 130.748 281.794 130.899 282.186C131.049 282.579 131.273 282.88 131.571 283.088C131.868 283.297 132.238 283.401 132.68 283.401C133.069 283.401 133.393 283.345 133.651 283.231C133.912 283.118 134.106 282.956 134.235 282.748C134.364 282.539 134.429 282.294 134.429 282.011L134.87 282.057H132.717V280.235H136.895V281.542C136.895 282.401 136.713 283.136 136.348 283.747C135.986 284.354 135.486 284.82 134.847 285.146C134.212 285.468 133.484 285.629 132.661 285.629C131.744 285.629 130.939 285.434 130.245 285.044C129.552 284.655 129.01 284.099 128.621 283.378C128.234 282.657 128.041 281.8 128.041 280.806C128.041 280.026 128.159 279.336 128.395 278.735C128.634 278.133 128.966 277.626 129.389 277.211C129.813 276.794 130.302 276.48 130.857 276.268C131.413 276.053 132.008 275.946 132.643 275.946C133.201 275.946 133.72 276.025 134.199 276.185C134.68 276.341 135.105 276.565 135.473 276.857C135.845 277.145 136.144 277.487 136.371 277.883C136.598 278.279 136.736 278.713 136.785 279.186H134.199ZM146.244 276.075V285.5H144.108L140.703 280.548H140.647V285.5H138.089V276.075H140.261L143.611 281.008H143.685V276.075H146.244Z" fill="#465C8C"/>
<path d="M272.907 368H173.5L191.5 401H292L272.907 368Z" fill="#465C8C" fill-opacity="0.2"/>
<path d="M219.001 389.5L216.221 380.075H219.074L220.363 385.873H220.437L221.965 380.075H224.21L225.738 385.892H225.812L227.101 380.075H229.954L227.174 389.5H224.726L223.124 384.235H223.051L221.449 389.5H219.001ZM230.783 389.5V380.075H237.575V382.136H233.341V383.756H237.226V385.818H233.341V387.438H237.557V389.5H230.783ZM238.845 389.5V380.075H242.931C243.649 380.075 244.252 380.171 244.74 380.364C245.231 380.558 245.601 380.831 245.849 381.184C246.101 381.537 246.227 381.952 246.227 382.431C246.227 382.778 246.15 383.094 245.996 383.379C245.846 383.664 245.634 383.904 245.361 384.097C245.088 384.287 244.769 384.419 244.404 384.493V384.585C244.809 384.6 245.177 384.703 245.509 384.893C245.84 385.08 246.104 385.34 246.3 385.671C246.497 385.999 246.595 386.386 246.595 386.831C246.595 387.346 246.46 387.805 246.19 388.207C245.923 388.609 245.542 388.925 245.048 389.155C244.554 389.385 243.965 389.5 243.281 389.5H238.845ZM241.403 387.457H242.6C243.03 387.457 243.352 387.377 243.566 387.217C243.781 387.055 243.889 386.815 243.889 386.499C243.889 386.278 243.838 386.091 243.737 385.938C243.636 385.784 243.491 385.668 243.304 385.588C243.12 385.508 242.898 385.468 242.637 385.468H241.403V387.457ZM241.403 383.885H242.453C242.677 383.885 242.875 383.85 243.046 383.779C243.218 383.709 243.352 383.608 243.447 383.476C243.545 383.341 243.594 383.176 243.594 382.983C243.594 382.692 243.49 382.469 243.281 382.316C243.072 382.159 242.809 382.081 242.49 382.081H241.403V383.885Z" fill="#465C8C"/>
<path d="M1031.15 345H907L926 377.5L1051 377L1031.15 345Z" fill="#465C8C" fill-opacity="0.2"/>
<path d="M945.185 357.075L947.118 363.72H947.191L949.124 357.075H952.015L948.903 366.5H945.406L942.295 357.075H945.185ZM955.481 357.075V366.5H952.922V357.075H955.481ZM961.775 360.02C961.75 359.713 961.635 359.474 961.43 359.302C961.227 359.13 960.919 359.044 960.505 359.044C960.241 359.044 960.024 359.077 959.856 359.141C959.69 359.202 959.567 359.287 959.487 359.394C959.408 359.501 959.366 359.624 959.363 359.762C959.357 359.876 959.377 359.979 959.423 360.071C959.472 360.16 959.549 360.241 959.653 360.315C959.757 360.385 959.891 360.45 960.054 360.508C960.216 360.566 960.409 360.618 960.633 360.664L961.407 360.83C961.928 360.94 962.375 361.086 962.746 361.267C963.117 361.448 963.421 361.661 963.657 361.907C963.893 362.149 964.067 362.422 964.177 362.726C964.291 363.03 964.349 363.361 964.352 363.72C964.349 364.34 964.194 364.865 963.887 365.294C963.58 365.724 963.142 366.051 962.571 366.274C962.003 366.498 961.321 366.61 960.523 366.61C959.704 366.61 958.989 366.489 958.378 366.247C957.771 366.004 957.298 365.632 956.961 365.129C956.626 364.622 956.458 363.975 956.455 363.186H958.885C958.9 363.475 958.972 363.717 959.101 363.914C959.23 364.11 959.411 364.259 959.644 364.36C959.88 364.461 960.161 364.512 960.486 364.512C960.759 364.512 960.988 364.478 961.172 364.411C961.356 364.343 961.496 364.249 961.591 364.13C961.686 364.01 961.735 363.874 961.738 363.72C961.735 363.576 961.687 363.45 961.595 363.343C961.506 363.232 961.359 363.134 961.154 363.048C960.948 362.959 960.67 362.876 960.32 362.8L959.382 362.597C958.547 362.416 957.889 362.114 957.407 361.691C956.929 361.264 956.691 360.683 956.694 359.946C956.691 359.348 956.85 358.825 957.173 358.377C957.498 357.926 957.947 357.575 958.521 357.323C959.098 357.071 959.759 356.946 960.505 356.946C961.265 356.946 961.924 357.073 962.479 357.328C963.034 357.582 963.462 357.941 963.763 358.405C964.067 358.865 964.22 359.403 964.223 360.02H961.775ZM967.884 357.075V366.5H965.325V357.075H967.884ZM978.228 361.787C978.228 362.837 978.024 363.722 977.616 364.443C977.208 365.161 976.657 365.705 975.964 366.077C975.27 366.445 974.497 366.629 973.644 366.629C972.785 366.629 972.009 366.443 971.315 366.072C970.625 365.698 970.076 365.152 969.668 364.434C969.263 363.713 969.06 362.83 969.06 361.787C969.06 360.738 969.263 359.854 969.668 359.136C970.076 358.415 970.625 357.871 971.315 357.503C972.009 357.131 972.785 356.946 973.644 356.946C974.497 356.946 975.27 357.131 975.964 357.503C976.657 357.871 977.208 358.415 977.616 359.136C978.024 359.854 978.228 360.738 978.228 361.787ZM975.595 361.787C975.595 361.223 975.52 360.747 975.37 360.361C975.223 359.971 975.003 359.676 974.712 359.477C974.423 359.274 974.067 359.173 973.644 359.173C973.221 359.173 972.863 359.274 972.572 359.477C972.283 359.676 972.064 359.971 971.914 360.361C971.766 360.747 971.693 361.223 971.693 361.787C971.693 362.352 971.766 362.829 971.914 363.219C972.064 363.605 972.283 363.9 972.572 364.102C972.863 364.302 973.221 364.401 973.644 364.401C974.067 364.401 974.423 364.302 974.712 364.102C975.003 363.9 975.223 363.605 975.37 363.219C975.52 362.829 975.595 362.352 975.595 361.787ZM987.567 357.075V366.5H985.432L982.026 361.548H981.971V366.5H979.412V357.075H981.584L984.935 362.008H985.008V357.075H987.567ZM991.226 366.5H988.465L991.576 357.075H995.073L998.185 366.5H995.423L993.361 359.67H993.288L991.226 366.5ZM990.71 362.781H995.902V364.696H990.71V362.781ZM999.092 366.5V357.075H1003.16C1003.86 357.075 1004.47 357.202 1005 357.457C1005.52 357.711 1005.93 358.078 1006.22 358.556C1006.51 359.035 1006.66 359.609 1006.66 360.278C1006.66 360.953 1006.51 361.522 1006.21 361.985C1005.91 362.448 1005.49 362.798 1004.95 363.034C1004.41 363.271 1003.79 363.389 1003.07 363.389H1000.64V361.401H1002.55C1002.85 361.401 1003.11 361.364 1003.32 361.29C1003.54 361.214 1003.7 361.092 1003.81 360.927C1003.93 360.761 1003.99 360.545 1003.99 360.278C1003.99 360.008 1003.93 359.788 1003.81 359.62C1003.7 359.448 1003.54 359.322 1003.32 359.242C1003.11 359.159 1002.85 359.118 1002.55 359.118H1001.65V366.5H999.092ZM1004.62 362.174L1006.97 366.5H1004.19L1001.89 362.174H1004.62ZM1006.92 357.075H1009.77L1011.61 360.904H1011.69L1013.53 357.075H1016.38L1012.92 363.536V366.5H1010.38V363.536L1006.92 357.075Z" fill="#465C8C"/>
<path d="M260.154 599H136L156.5 631H280L260.154 599Z" fill="#465C8C" fill-opacity="0.2"/>
<path d="M183.608 611.075H186.792L188.983 616.413H189.093L191.284 611.075H194.469V620.5H191.965V615.051H191.892L189.793 620.426H188.283L186.185 615.014H186.111V620.5H183.608V611.075ZM204.812 615.787C204.812 616.837 204.608 617.722 204.2 618.443C203.792 619.161 203.242 619.705 202.548 620.077C201.855 620.445 201.082 620.629 200.229 620.629C199.37 620.629 198.593 620.443 197.9 620.072C197.21 619.698 196.66 619.152 196.252 618.434C195.847 617.713 195.645 616.83 195.645 615.787C195.645 614.738 195.847 613.854 196.252 613.136C196.66 612.415 197.21 611.871 197.9 611.503C198.593 611.131 199.37 610.946 200.229 610.946C201.082 610.946 201.855 611.131 202.548 611.503C203.242 611.871 203.792 612.415 204.2 613.136C204.608 613.854 204.812 614.738 204.812 615.787ZM202.18 615.787C202.18 615.223 202.105 614.747 201.954 614.361C201.807 613.971 201.588 613.676 201.296 613.477C201.008 613.274 200.652 613.173 200.229 613.173C199.805 613.173 199.448 613.274 199.156 613.477C198.868 613.676 198.648 613.971 198.498 614.361C198.351 614.747 198.277 615.223 198.277 615.787C198.277 616.352 198.351 616.829 198.498 617.219C198.648 617.605 198.868 617.9 199.156 618.102C199.448 618.302 199.805 618.401 200.229 618.401C200.652 618.401 201.008 618.302 201.296 618.102C201.588 617.9 201.807 617.605 201.954 617.219C202.105 616.829 202.18 616.352 202.18 615.787ZM205.996 620.5V611.075H210.083C210.801 611.075 211.404 611.171 211.892 611.364C212.383 611.558 212.753 611.831 213.001 612.184C213.253 612.537 213.378 612.952 213.378 613.431C213.378 613.778 213.302 614.094 213.148 614.379C212.998 614.664 212.786 614.904 212.513 615.097C212.24 615.287 211.921 615.419 211.556 615.493V615.585C211.961 615.6 212.329 615.703 212.661 615.893C212.992 616.08 213.256 616.34 213.452 616.671C213.648 616.999 213.747 617.386 213.747 617.831C213.747 618.346 213.612 618.805 213.342 619.207C213.075 619.609 212.694 619.925 212.2 620.155C211.706 620.385 211.117 620.5 210.433 620.5H205.996ZM208.555 618.457H209.752C210.181 618.457 210.504 618.377 210.718 618.217C210.933 618.055 211.04 617.815 211.04 617.499C211.04 617.278 210.99 617.091 210.889 616.938C210.787 616.784 210.643 616.668 210.456 616.588C210.272 616.508 210.049 616.468 209.789 616.468H208.555V618.457ZM208.555 614.885H209.605C209.829 614.885 210.026 614.85 210.198 614.779C210.37 614.709 210.504 614.608 210.599 614.476C210.697 614.341 210.746 614.176 210.746 613.983C210.746 613.692 210.642 613.469 210.433 613.316C210.224 613.159 209.96 613.081 209.641 613.081H208.555V614.885ZM217.212 611.075V620.5H214.653V611.075H217.212ZM218.425 620.5V611.075H220.984V618.438H224.794V620.5H218.425ZM225.829 620.5V611.075H232.622V613.136H228.388V614.756H232.272V616.818H228.388V618.438H232.603V620.5H225.829Z" fill="#465C8C"/>
<path d="M351.154 760H227L247.5 792H371L351.154 760Z" fill="#465C8C" fill-opacity="0.2"/>
<path d="M285.407 775.609H282.811C282.793 775.394 282.744 775.199 282.664 775.025C282.587 774.85 282.48 774.699 282.342 774.574C282.207 774.445 282.043 774.347 281.849 774.279C281.656 774.208 281.437 774.173 281.191 774.173C280.762 774.173 280.398 774.277 280.101 774.486C279.806 774.695 279.582 774.994 279.429 775.384C279.278 775.773 279.203 776.241 279.203 776.787C279.203 777.364 279.28 777.847 279.433 778.237C279.59 778.624 279.815 778.915 280.11 779.111C280.404 779.305 280.759 779.401 281.173 779.401C281.409 779.401 281.621 779.372 281.808 779.314C281.995 779.253 282.158 779.165 282.296 779.052C282.434 778.938 282.546 778.802 282.632 778.642C282.721 778.479 282.781 778.297 282.811 778.094L285.407 778.113C285.376 778.512 285.264 778.918 285.071 779.332C284.878 779.743 284.603 780.124 284.247 780.474C283.894 780.82 283.457 781.1 282.936 781.311C282.414 781.523 281.808 781.629 281.118 781.629C280.253 781.629 279.476 781.443 278.789 781.072C278.105 780.701 277.563 780.155 277.164 779.434C276.769 778.713 276.571 777.83 276.571 776.787C276.571 775.738 276.773 774.854 277.178 774.136C277.583 773.415 278.129 772.871 278.817 772.503C279.504 772.131 280.271 771.946 281.118 771.946C281.713 771.946 282.261 772.027 282.761 772.19C283.261 772.352 283.7 772.59 284.077 772.903C284.454 773.213 284.758 773.595 284.988 774.049C285.218 774.503 285.358 775.023 285.407 775.609ZM286.568 781.5V772.075H289.127V779.438H292.938V781.5H286.568ZM302.736 776.787C302.736 777.837 302.532 778.722 302.124 779.443C301.716 780.161 301.165 780.705 300.471 781.077C299.778 781.445 299.005 781.629 298.152 781.629C297.293 781.629 296.517 781.443 295.823 781.072C295.133 780.698 294.584 780.152 294.176 779.434C293.771 778.713 293.568 777.83 293.568 776.787C293.568 775.738 293.771 774.854 294.176 774.136C294.584 773.415 295.133 772.871 295.823 772.503C296.517 772.131 297.293 771.946 298.152 771.946C299.005 771.946 299.778 772.131 300.471 772.503C301.165 772.871 301.716 773.415 302.124 774.136C302.532 774.854 302.736 775.738 302.736 776.787ZM300.103 776.787C300.103 776.223 300.028 775.747 299.878 775.361C299.73 774.971 299.511 774.676 299.22 774.477C298.931 774.274 298.575 774.173 298.152 774.173C297.728 774.173 297.371 774.274 297.08 774.477C296.791 774.676 296.572 774.971 296.421 775.361C296.274 775.747 296.201 776.223 296.201 776.787C296.201 777.352 296.274 777.829 296.421 778.219C296.572 778.605 296.791 778.9 297.08 779.102C297.371 779.302 297.728 779.401 298.152 779.401C298.575 779.401 298.931 779.302 299.22 779.102C299.511 778.9 299.73 778.605 299.878 778.219C300.028 777.829 300.103 777.352 300.103 776.787ZM309.498 772.075H312.057V778.113C312.057 778.831 311.885 779.452 311.541 779.977C311.2 780.498 310.725 780.902 310.114 781.187C309.504 781.469 308.795 781.61 307.988 781.61C307.175 781.61 306.463 781.469 305.853 781.187C305.242 780.902 304.767 780.498 304.426 779.977C304.088 779.452 303.92 778.831 303.92 778.113V772.075H306.479V777.892C306.479 778.183 306.543 778.444 306.672 778.674C306.801 778.901 306.979 779.079 307.206 779.208C307.436 779.337 307.697 779.401 307.988 779.401C308.283 779.401 308.543 779.337 308.77 779.208C308.998 779.079 309.175 778.901 309.304 778.674C309.433 778.444 309.498 778.183 309.498 777.892V772.075ZM316.899 781.5H313.273V772.075H316.862C317.832 772.075 318.67 772.263 319.375 772.641C320.084 773.015 320.63 773.555 321.014 774.261C321.4 774.963 321.594 775.805 321.594 776.787C321.594 777.769 321.402 778.613 321.018 779.319C320.635 780.021 320.092 780.561 319.389 780.939C318.686 781.313 317.857 781.5 316.899 781.5ZM315.832 779.328H316.807C317.274 779.328 317.671 779.253 317.999 779.102C318.331 778.952 318.582 778.693 318.754 778.324C318.929 777.956 319.016 777.444 319.016 776.787C319.016 776.131 318.927 775.618 318.749 775.25C318.574 774.882 318.317 774.623 317.976 774.472C317.639 774.322 317.224 774.247 316.734 774.247H315.832V779.328Z" fill="#465C8C"/>
<path d="M448 722H587L569.5 754H429.5L448 722Z" fill="#465C8C" fill-opacity="0.2"/>
<path d="M482.407 737.609H479.811C479.793 737.394 479.744 737.199 479.664 737.025C479.587 736.85 479.48 736.699 479.342 736.574C479.207 736.445 479.043 736.347 478.849 736.279C478.656 736.208 478.437 736.173 478.191 736.173C477.762 736.173 477.398 736.277 477.101 736.486C476.806 736.695 476.582 736.994 476.429 737.384C476.278 737.773 476.203 738.241 476.203 738.787C476.203 739.364 476.28 739.847 476.433 740.237C476.59 740.624 476.815 740.915 477.11 741.111C477.404 741.305 477.759 741.401 478.173 741.401C478.409 741.401 478.621 741.372 478.808 741.314C478.995 741.253 479.158 741.165 479.296 741.052C479.434 740.938 479.546 740.802 479.632 740.642C479.721 740.479 479.781 740.297 479.811 740.094L482.407 740.113C482.376 740.512 482.264 740.918 482.071 741.332C481.878 741.743 481.603 742.124 481.247 742.474C480.894 742.82 480.457 743.1 479.936 743.311C479.414 743.523 478.808 743.629 478.118 743.629C477.253 743.629 476.476 743.443 475.789 743.072C475.105 742.701 474.563 742.155 474.164 741.434C473.769 740.713 473.571 739.83 473.571 738.787C473.571 737.738 473.773 736.854 474.178 736.136C474.583 735.415 475.129 734.871 475.817 734.503C476.504 734.131 477.271 733.946 478.118 733.946C478.713 733.946 479.261 734.027 479.761 734.19C480.261 734.352 480.7 734.59 481.077 734.903C481.454 735.213 481.758 735.595 481.988 736.049C482.218 736.503 482.358 737.023 482.407 737.609ZM483.568 743.5V734.075H487.636C488.336 734.075 488.948 734.202 489.473 734.457C489.997 734.711 490.405 735.078 490.697 735.556C490.988 736.035 491.134 736.609 491.134 737.278C491.134 737.953 490.984 738.522 490.683 738.985C490.385 739.448 489.967 739.798 489.427 740.034C488.89 740.271 488.262 740.389 487.544 740.389H485.114V738.401H487.029C487.33 738.401 487.586 738.364 487.797 738.29C488.012 738.214 488.176 738.092 488.29 737.927C488.406 737.761 488.465 737.545 488.465 737.278C488.465 737.008 488.406 736.788 488.29 736.62C488.176 736.448 488.012 736.322 487.797 736.242C487.586 736.159 487.33 736.118 487.029 736.118H486.127V743.5H483.568ZM489.091 739.174L491.447 743.5H488.667L486.366 739.174H489.091ZM492.225 743.5V734.075H499.018V736.136H494.784V737.756H498.668V739.818H494.784V741.438H498.999V743.5H492.225ZM502.735 743.5H499.974L503.085 734.075H506.583L509.694 743.5H506.933L504.871 736.67H504.797L502.735 743.5ZM502.22 739.781H507.411V741.696H502.22V739.781ZM509.154 736.136V734.075H517.346V736.136H514.511V743.5H511.989V736.136H509.154ZM520.868 734.075V743.5H518.309V734.075H520.868ZM524.658 734.075L526.591 740.72H526.665L528.598 734.075H531.488L528.377 743.5H524.879L521.768 734.075H524.658ZM532.396 743.5V734.075H539.189V736.136H534.955V737.756H538.839V739.818H534.955V741.438H539.17V743.5H532.396Z" fill="#465C8C"/>
<path d="M721 662H860L842.5 694H702.5L721 662Z" fill="#465C8C" fill-opacity="0.2"/>
<path d="M749.166 674.075V683.5H746.608V674.075H749.166ZM758.534 674.075V683.5H756.399L752.993 678.548H752.938V683.5H750.379V674.075H752.551L755.902 679.008H755.975V674.075H758.534ZM759.487 676.136V674.075H767.679V676.136H764.844V683.5H762.322V676.136H759.487ZM774.22 674.075H776.779V680.113C776.779 680.831 776.607 681.452 776.263 681.977C775.923 682.498 775.447 682.902 774.837 683.187C774.226 683.469 773.517 683.61 772.71 683.61C771.897 683.61 771.186 683.469 770.575 683.187C769.964 682.902 769.489 682.498 769.148 681.977C768.811 681.452 768.642 680.831 768.642 680.113V674.075H771.201V679.892C771.201 680.183 771.265 680.444 771.394 680.674C771.523 680.901 771.701 681.079 771.928 681.208C772.158 681.337 772.419 681.401 772.71 681.401C773.005 681.401 773.266 681.337 773.493 681.208C773.72 681.079 773.898 680.901 774.027 680.674C774.156 680.444 774.22 680.183 774.22 679.892V674.075ZM780.554 674.075V683.5H777.995V674.075H780.554ZM781.509 676.136V674.075H789.701V676.136H786.866V683.5H784.344V676.136H781.509ZM793.223 674.075V683.5H790.664V674.075H793.223ZM797.013 674.075L798.946 680.72H799.019L800.952 674.075H803.843L800.731 683.5H797.234L794.123 674.075H797.013ZM804.75 683.5V674.075H811.543V676.136H807.309V677.756H811.193V679.818H807.309V681.438H811.525V683.5H804.75Z" fill="#465C8C"/>
<path d="M804 769H943L925.5 801H785.5L804 769Z" fill="#465C8C" fill-opacity="0.2"/>
<path d="M835.688 784.02C835.664 783.713 835.549 783.474 835.343 783.302C835.141 783.13 834.832 783.044 834.418 783.044C834.154 783.044 833.938 783.077 833.769 783.141C833.604 783.202 833.481 783.287 833.401 783.394C833.321 783.501 833.28 783.624 833.277 783.762C833.271 783.876 833.291 783.979 833.337 784.071C833.386 784.16 833.462 784.241 833.567 784.315C833.671 784.385 833.805 784.45 833.967 784.508C834.13 784.566 834.323 784.618 834.547 784.664L835.32 784.83C835.842 784.94 836.288 785.086 836.659 785.267C837.031 785.448 837.334 785.661 837.571 785.907C837.807 786.149 837.98 786.422 838.091 786.726C838.204 787.03 838.263 787.361 838.266 787.72C838.263 788.34 838.108 788.865 837.801 789.294C837.494 789.724 837.055 790.051 836.485 790.274C835.917 790.498 835.234 790.61 834.437 790.61C833.617 790.61 832.903 790.489 832.292 790.247C831.684 790.004 831.212 789.632 830.874 789.129C830.54 788.622 830.371 787.975 830.368 787.186H832.798C832.814 787.475 832.886 787.717 833.014 787.914C833.143 788.11 833.324 788.259 833.558 788.36C833.794 788.461 834.075 788.512 834.4 788.512C834.673 788.512 834.901 788.478 835.086 788.411C835.27 788.343 835.409 788.249 835.504 788.13C835.599 788.01 835.649 787.874 835.652 787.72C835.649 787.576 835.601 787.45 835.509 787.343C835.42 787.232 835.273 787.134 835.067 787.048C834.862 786.959 834.584 786.876 834.234 786.8L833.295 786.597C832.461 786.416 831.803 786.114 831.321 785.691C830.842 785.264 830.604 784.683 830.608 783.946C830.604 783.348 830.764 782.825 831.086 782.377C831.411 781.926 831.861 781.575 832.435 781.323C833.011 781.071 833.673 780.946 834.418 780.946C835.179 780.946 835.837 781.073 836.393 781.328C836.948 781.582 837.376 781.941 837.677 782.405C837.98 782.865 838.134 783.403 838.137 784.02H835.688ZM838.852 781.075H841.706L843.547 784.904H843.62L845.461 781.075H848.315L844.854 787.536V790.5H842.313V787.536L838.852 781.075ZM854.23 784.02C854.205 783.713 854.09 783.474 853.885 783.302C853.682 783.13 853.374 783.044 852.96 783.044C852.696 783.044 852.479 783.077 852.311 783.141C852.145 783.202 852.022 783.287 851.942 783.394C851.863 783.501 851.821 783.624 851.818 783.762C851.812 783.876 851.832 783.979 851.878 784.071C851.927 784.16 852.004 784.241 852.108 784.315C852.212 784.385 852.346 784.45 852.509 784.508C852.671 784.566 852.864 784.618 853.088 784.664L853.862 784.83C854.383 784.94 854.83 785.086 855.201 785.267C855.572 785.448 855.876 785.661 856.112 785.907C856.348 786.149 856.522 786.422 856.632 786.726C856.746 787.03 856.804 787.361 856.807 787.72C856.804 788.34 856.649 788.865 856.342 789.294C856.035 789.724 855.597 790.051 855.026 790.274C854.458 790.498 853.776 790.61 852.978 790.61C852.159 790.61 851.444 790.489 850.833 790.247C850.226 790.004 849.753 789.632 849.416 789.129C849.081 788.622 848.913 787.975 848.91 787.186H851.34C851.355 787.475 851.427 787.717 851.556 787.914C851.685 788.11 851.866 788.259 852.099 788.36C852.335 788.461 852.616 788.512 852.941 788.512C853.214 788.512 853.443 788.478 853.627 788.411C853.811 788.343 853.951 788.249 854.046 788.13C854.141 788.01 854.19 787.874 854.193 787.72C854.19 787.576 854.142 787.45 854.05 787.343C853.961 787.232 853.814 787.134 853.609 787.048C853.403 786.959 853.125 786.876 852.775 786.8L851.837 786.597C851.002 786.416 850.344 786.114 849.862 785.691C849.384 785.264 849.146 784.683 849.149 783.946C849.146 783.348 849.305 782.825 849.628 782.377C849.953 781.926 850.402 781.575 850.976 781.323C851.553 781.071 852.214 780.946 852.96 780.946C853.72 780.946 854.379 781.073 854.934 781.328C855.489 781.582 855.917 781.941 856.218 782.405C856.522 782.865 856.675 783.403 856.678 784.02H854.23ZM857.523 783.136V781.075H865.715V783.136H862.88V790.5H860.358V783.136H857.523ZM866.678 790.5V781.075H873.471V783.136H869.237V784.756H873.121V786.818H869.237V788.438H873.452V790.5H866.678ZM874.74 781.075H877.925L880.115 786.413H880.226L882.416 781.075H885.601V790.5H883.098V785.051H883.024L880.925 790.426H879.416L877.317 785.014H877.243V790.5H874.74V781.075ZM891.895 784.02C891.87 783.713 891.755 783.474 891.55 783.302C891.347 783.13 891.039 783.044 890.625 783.044C890.361 783.044 890.144 783.077 889.976 783.141C889.81 783.202 889.687 783.287 889.607 783.394C889.528 783.501 889.486 783.624 889.483 783.762C889.477 783.876 889.497 783.979 889.543 784.071C889.592 784.16 889.669 784.241 889.773 784.315C889.877 784.385 890.011 784.45 890.174 784.508C890.336 784.566 890.529 784.618 890.753 784.664L891.527 784.83C892.048 784.94 892.495 785.086 892.866 785.267C893.237 785.448 893.541 785.661 893.777 785.907C894.013 786.149 894.187 786.422 894.297 786.726C894.411 787.03 894.469 787.361 894.472 787.72C894.469 788.34 894.314 788.865 894.007 789.294C893.7 789.724 893.262 790.051 892.691 790.274C892.123 790.498 891.441 790.61 890.643 790.61C889.824 790.61 889.109 790.489 888.498 790.247C887.891 790.004 887.418 789.632 887.081 789.129C886.746 788.622 886.578 787.975 886.575 787.186H889.005C889.02 787.475 889.092 787.717 889.221 787.914C889.35 788.11 889.531 788.259 889.764 788.36C890 788.461 890.281 788.512 890.606 788.512C890.879 788.512 891.108 788.478 891.292 788.411C891.476 788.343 891.616 788.249 891.711 788.13C891.806 788.01 891.855 787.874 891.858 787.72C891.855 787.576 891.807 787.45 891.715 787.343C891.626 787.232 891.479 787.134 891.274 787.048C891.068 786.959 890.79 786.876 890.441 786.8L889.502 786.597C888.667 786.416 888.009 786.114 887.527 785.691C887.049 785.264 886.811 784.683 886.814 783.946C886.811 783.348 886.97 782.825 887.293 782.377C887.618 781.926 888.067 781.575 888.641 781.323C889.218 781.071 889.879 780.946 890.625 780.946C891.386 780.946 892.044 781.073 892.599 781.328C893.154 781.582 893.582 781.941 893.883 782.405C894.187 782.865 894.34 783.403 894.343 784.02H891.895Z" fill="#465C8C"/>
<path d="M515.79 849H672L652.333 881H495L515.79 849Z" fill="#465C8C" fill-opacity="0.2"/>
<path d="M529.407 864.609H526.811C526.793 864.394 526.744 864.199 526.664 864.025C526.587 863.85 526.48 863.699 526.342 863.574C526.207 863.445 526.043 863.347 525.849 863.279C525.656 863.208 525.437 863.173 525.191 863.173C524.762 863.173 524.398 863.277 524.101 863.486C523.806 863.695 523.582 863.994 523.429 864.384C523.278 864.773 523.203 865.241 523.203 865.787C523.203 866.364 523.28 866.847 523.433 867.237C523.59 867.624 523.815 867.915 524.11 868.111C524.404 868.305 524.759 868.401 525.173 868.401C525.409 868.401 525.621 868.372 525.808 868.314C525.995 868.253 526.158 868.165 526.296 868.052C526.434 867.938 526.546 867.802 526.632 867.642C526.721 867.479 526.781 867.297 526.811 867.094L529.407 867.113C529.376 867.512 529.264 867.918 529.071 868.332C528.878 868.743 528.603 869.124 528.247 869.474C527.894 869.82 527.457 870.1 526.936 870.311C526.414 870.523 525.808 870.629 525.118 870.629C524.253 870.629 523.476 870.443 522.789 870.072C522.105 869.701 521.563 869.155 521.164 868.434C520.769 867.713 520.571 866.83 520.571 865.787C520.571 864.738 520.773 863.854 521.178 863.136C521.583 862.415 522.129 861.871 522.817 861.503C523.504 861.131 524.271 860.946 525.118 860.946C525.713 860.946 526.261 861.027 526.761 861.19C527.261 861.352 527.7 861.59 528.077 861.903C528.454 862.213 528.758 862.595 528.988 863.049C529.218 863.503 529.358 864.023 529.407 864.609ZM536.146 861.075H538.705V867.113C538.705 867.831 538.533 868.452 538.189 868.977C537.849 869.498 537.373 869.902 536.763 870.187C536.152 870.469 535.443 870.61 534.636 870.61C533.823 870.61 533.111 870.469 532.501 870.187C531.89 869.902 531.415 869.498 531.074 868.977C530.737 868.452 530.568 867.831 530.568 867.113V861.075H533.127V866.892C533.127 867.183 533.191 867.444 533.32 867.674C533.449 867.901 533.627 868.079 533.854 868.208C534.084 868.337 534.345 868.401 534.636 868.401C534.931 868.401 535.192 868.337 535.419 868.208C535.646 868.079 535.824 867.901 535.953 867.674C536.081 867.444 536.146 867.183 536.146 866.892V861.075ZM539.663 863.136V861.075H547.855V863.136H545.02V870.5H542.498V863.136H539.663ZM548.561 863.136V861.075H556.753V863.136H553.918V870.5H551.396V863.136H548.561ZM560.274 861.075V870.5H557.716V861.075H560.274ZM569.642 861.075V870.5H567.507L564.101 865.548H564.046V870.5H561.487V861.075H563.659L567.01 866.008H567.084V861.075H569.642ZM576.974 864.186C576.934 864.023 576.871 863.88 576.785 863.758C576.699 863.632 576.592 863.526 576.463 863.44C576.337 863.351 576.19 863.285 576.021 863.242C575.855 863.196 575.673 863.173 575.473 863.173C575.044 863.173 574.677 863.276 574.374 863.482C574.073 863.687 573.843 863.983 573.683 864.37C573.527 864.756 573.448 865.223 573.448 865.769C573.448 866.321 573.524 866.794 573.674 867.186C573.824 867.579 574.048 867.88 574.346 868.088C574.644 868.297 575.013 868.401 575.455 868.401C575.845 868.401 576.168 868.345 576.426 868.231C576.687 868.118 576.882 867.956 577.011 867.748C577.14 867.539 577.204 867.294 577.204 867.011L577.646 867.057H575.492V865.235H579.671V866.542C579.671 867.401 579.488 868.136 579.123 868.747C578.761 869.354 578.261 869.82 577.623 870.146C576.988 870.468 576.259 870.629 575.437 870.629C574.519 870.629 573.714 870.434 573.02 870.044C572.327 869.655 571.786 869.099 571.396 868.378C571.009 867.657 570.816 866.8 570.816 865.806C570.816 865.026 570.934 864.336 571.17 863.735C571.41 863.133 571.741 862.626 572.164 862.211C572.588 861.794 573.077 861.48 573.633 861.268C574.188 861.053 574.783 860.946 575.418 860.946C575.977 860.946 576.495 861.025 576.974 861.185C577.456 861.341 577.88 861.565 578.249 861.857C578.62 862.145 578.919 862.487 579.146 862.883C579.373 863.279 579.511 863.713 579.56 864.186H576.974ZM585.54 864.83V866.745H581.122V864.83H585.54ZM587.015 870.5V861.075H593.808V863.136H589.574V864.756H593.458V866.818H589.574V868.438H593.789V870.5H587.015ZM598.703 870.5H595.077V861.075H598.667C599.636 861.075 600.474 861.263 601.179 861.641C601.888 862.015 602.434 862.555 602.818 863.261C603.204 863.963 603.398 864.805 603.398 865.787C603.398 866.769 603.206 867.613 602.823 868.319C602.439 869.021 601.896 869.561 601.193 869.939C600.491 870.313 599.661 870.5 598.703 870.5ZM597.636 868.328H598.611C599.078 868.328 599.475 868.253 599.803 868.102C600.135 867.952 600.386 867.693 600.558 867.324C600.733 866.956 600.821 866.444 600.821 865.787C600.821 865.131 600.732 864.618 600.554 864.25C600.379 863.882 600.121 863.623 599.78 863.472C599.443 863.322 599.029 863.247 598.538 863.247H597.636V868.328ZM610.703 864.186C610.663 864.023 610.6 863.88 610.514 863.758C610.428 863.632 610.321 863.526 610.192 863.44C610.066 863.351 609.919 863.285 609.75 863.242C609.584 863.196 609.402 863.173 609.202 863.173C608.773 863.173 608.406 863.276 608.102 863.482C607.802 863.687 607.572 863.983 607.412 864.37C607.256 864.756 607.177 865.223 607.177 865.769C607.177 866.321 607.253 866.794 607.403 867.186C607.553 867.579 607.777 867.88 608.075 868.088C608.372 868.297 608.742 868.401 609.184 868.401C609.574 868.401 609.897 868.345 610.155 868.231C610.416 868.118 610.611 867.956 610.74 867.748C610.868 867.539 610.933 867.294 610.933 867.011L611.375 867.057H609.221V865.235H613.4V866.542C613.4 867.401 613.217 868.136 612.852 868.747C612.49 869.354 611.99 869.82 611.352 870.146C610.717 870.468 609.988 870.629 609.166 870.629C608.248 870.629 607.443 870.434 606.749 870.044C606.056 869.655 605.514 869.099 605.125 868.378C604.738 867.657 604.545 866.8 604.545 865.806C604.545 865.026 604.663 864.336 604.899 863.735C605.139 863.133 605.47 862.626 605.893 862.211C606.317 861.794 606.806 861.48 607.362 861.268C607.917 861.053 608.512 860.946 609.147 860.946C609.706 860.946 610.224 861.025 610.703 861.185C611.184 861.341 611.609 861.565 611.978 861.857C612.349 862.145 612.648 862.487 612.875 862.883C613.102 863.279 613.24 863.713 613.289 864.186H610.703ZM614.593 870.5V861.075H621.386V863.136H617.152V864.756H621.036V866.818H617.152V868.438H621.367V870.5H614.593Z" fill="#465C8C"/>
<path d="M544.5 311H419C419 311 428 335 439 340.5C450 346 564 344 564 344L544.5 311Z" fill="#465C8C" fill-opacity="0.2"/>
<path d="M455.556 332.5H452.795L455.906 323.075H459.403L462.515 332.5H459.753L457.691 325.67H457.618L455.556 332.5ZM455.04 328.781H460.232V330.696H455.04V328.781ZM471.578 323.075V332.5H469.442L466.036 327.548H465.981V332.5H463.422V323.075H465.595L468.945 328.008H469.019V323.075H471.578ZM475.236 332.5H472.475L475.586 323.075H479.084L482.195 332.5H479.434L477.372 325.67H477.298L475.236 332.5ZM474.721 328.781H479.912V330.696H474.721V328.781ZM483.103 332.5V323.075H485.662V330.438H489.472V332.5H483.103ZM488.412 323.075H491.265L493.106 326.904H493.179L495.02 323.075H497.874L494.413 329.536V332.5H491.872V329.536L488.412 323.075ZM499.045 325.136V323.075H507.237V325.136H504.402V332.5H501.88V325.136H499.045ZM510.759 323.075V332.5H508.2V323.075H510.759ZM520.771 326.609H518.176C518.157 326.394 518.108 326.199 518.028 326.025C517.952 325.85 517.844 325.699 517.706 325.574C517.571 325.445 517.407 325.347 517.214 325.279C517.02 325.208 516.801 325.173 516.556 325.173C516.126 325.173 515.762 325.277 515.465 325.486C515.17 325.695 514.946 325.994 514.793 326.384C514.643 326.773 514.567 327.241 514.567 327.787C514.567 328.364 514.644 328.847 514.798 329.237C514.954 329.624 515.18 329.915 515.474 330.111C515.769 330.305 516.123 330.401 516.537 330.401C516.773 330.401 516.985 330.372 517.172 330.314C517.359 330.253 517.522 330.165 517.66 330.052C517.798 329.938 517.91 329.802 517.996 329.642C518.085 329.479 518.145 329.297 518.176 329.094L520.771 329.113C520.741 329.512 520.629 329.918 520.435 330.332C520.242 330.743 519.967 331.124 519.611 331.474C519.259 331.82 518.821 332.1 518.3 332.311C517.778 332.523 517.172 332.629 516.482 332.629C515.617 332.629 514.84 332.443 514.153 332.072C513.469 331.701 512.927 331.155 512.529 330.434C512.133 329.713 511.935 328.83 511.935 327.787C511.935 326.738 512.137 325.854 512.542 325.136C512.947 324.415 513.494 323.871 514.181 323.503C514.868 323.131 515.635 322.946 516.482 322.946C517.077 322.946 517.625 323.027 518.125 323.19C518.625 323.352 519.064 323.59 519.441 323.903C519.819 324.213 520.122 324.595 520.352 325.049C520.583 325.503 520.722 326.023 520.771 326.609ZM527.013 326.02C526.989 325.713 526.873 325.474 526.668 325.302C526.465 325.13 526.157 325.044 525.743 325.044C525.479 325.044 525.263 325.077 525.094 325.141C524.928 325.202 524.806 325.287 524.726 325.394C524.646 325.501 524.605 325.624 524.602 325.762C524.595 325.876 524.615 325.979 524.661 326.071C524.71 326.16 524.787 326.241 524.891 326.315C524.996 326.385 525.129 326.45 525.292 326.508C525.454 326.566 525.648 326.618 525.872 326.664L526.645 326.83C527.167 326.94 527.613 327.086 527.984 327.267C528.355 327.448 528.659 327.661 528.895 327.907C529.132 328.149 529.305 328.422 529.415 328.726C529.529 329.03 529.587 329.361 529.59 329.72C529.587 330.34 529.432 330.865 529.126 331.294C528.819 331.724 528.38 332.051 527.809 332.274C527.242 332.498 526.559 332.61 525.761 332.61C524.942 332.61 524.227 332.489 523.617 332.247C523.009 332.004 522.537 331.632 522.199 331.129C521.865 330.622 521.696 329.975 521.693 329.186H524.123C524.138 329.475 524.21 329.717 524.339 329.914C524.468 330.11 524.649 330.259 524.882 330.36C525.118 330.461 525.399 330.512 525.724 330.512C525.998 330.512 526.226 330.478 526.41 330.411C526.594 330.343 526.734 330.249 526.829 330.13C526.924 330.01 526.973 329.874 526.976 329.72C526.973 329.576 526.926 329.45 526.834 329.343C526.745 329.232 526.597 329.134 526.392 329.048C526.186 328.959 525.909 328.876 525.559 328.8L524.62 328.597C523.785 328.416 523.127 328.114 522.646 327.691C522.167 327.264 521.929 326.683 521.932 325.946C521.929 325.348 522.089 324.825 522.411 324.377C522.736 323.926 523.186 323.575 523.759 323.323C524.336 323.071 524.997 322.946 525.743 322.946C526.504 322.946 527.162 323.073 527.717 323.328C528.273 323.582 528.701 323.941 529.001 324.405C529.305 324.865 529.458 325.403 529.462 326.02H527.013Z" fill="#465C8C"/>
<path d="M645.693 378H766L746.828 411H627L645.693 378Z" fill="#465C8C" fill-opacity="0.2"/>
<path d="M661.556 399.5H658.795L661.906 390.075H665.403L668.515 399.5H665.753L663.691 392.67H663.618L661.556 399.5ZM661.04 395.781H666.232V397.696H661.04V395.781ZM673.049 399.5H669.422V390.075H673.012C673.982 390.075 674.819 390.263 675.525 390.641C676.234 391.015 676.78 391.555 677.163 392.261C677.55 392.963 677.743 393.805 677.743 394.787C677.743 395.769 677.551 396.613 677.168 397.319C676.784 398.021 676.241 398.561 675.539 398.939C674.836 399.313 674.006 399.5 673.049 399.5ZM671.981 397.328H672.957C673.423 397.328 673.821 397.253 674.149 397.102C674.48 396.952 674.732 396.693 674.904 396.324C675.079 395.956 675.166 395.444 675.166 394.787C675.166 394.131 675.077 393.618 674.899 393.25C674.724 392.882 674.466 392.623 674.126 392.472C673.788 392.322 673.374 392.247 672.883 392.247H671.981V397.328ZM680.781 399.5H678.019L681.131 390.075H684.628L687.739 399.5H684.978L682.916 392.67H682.843L680.781 399.5ZM680.265 395.781H685.457V397.696H680.265V395.781ZM688.647 399.5V390.075H692.716C693.415 390.075 694.027 390.213 694.552 390.489C695.077 390.765 695.485 391.153 695.776 391.653C696.068 392.153 696.213 392.738 696.213 393.407C696.213 394.082 696.063 394.666 695.762 395.16C695.465 395.654 695.046 396.034 694.506 396.301C693.969 396.568 693.342 396.702 692.624 396.702H690.194V394.714H692.108C692.409 394.714 692.665 394.661 692.877 394.557C693.091 394.45 693.256 394.298 693.369 394.102C693.486 393.905 693.544 393.674 693.544 393.407C693.544 393.137 693.486 392.906 693.369 392.716C693.256 392.523 693.091 392.376 692.877 392.274C692.665 392.17 692.409 392.118 692.108 392.118H691.206V399.5H688.647ZM696.894 392.136V390.075H705.087V392.136H702.252V399.5H699.729V392.136H696.894ZM708.608 390.075V399.5H706.05V390.075H708.608ZM712.398 390.075L714.331 396.72H714.405L716.338 390.075H719.228L716.117 399.5H712.619L709.508 390.075H712.398ZM720.136 399.5V390.075H726.929V392.136H722.695V393.756H726.579V395.818H722.695V397.438H726.91V399.5H720.136Z" fill="#465C8C"/>
</svg>
