<svg width="1080" height="1087" viewBox="0 0 1080 1087" fill="none" xmlns="http://www.w3.org/2000/svg">
<path d="M42.9844 537.065L198.504 265.445C201.42 260.261 206.28 260.261 209.304 265.445L435.348 656.945C438.264 662.129 438.264 670.445 435.348 675.629L395.928 742.589C392.904 747.665 388.044 747.665 385.02 742.589L160.164 353.033" stroke="#465C8C" stroke-width="3" stroke-miterlimit="10"/>
<path d="M807.192 773.369L729.216 909.125C726.3 914.309 721.44 914.309 718.416 909.125L348.3 265.445C345.384 260.261 338.04 256.049 332.1 256.049H253.908C247.968 256.049 245.484 260.261 248.508 265.445L454.464 622.277C457.38 627.461 462.24 627.461 465.264 622.277L506.412 551.105" stroke="#465C8C" stroke-width="3" stroke-miterlimit="10"/>
<path d="M820.584 498.076L732.024 497.32C726.084 497.32 718.848 501.424 715.824 506.608L483.408 909.124C480.384 914.308 482.868 918.412 488.808 918.412L567.324 917.98C573.264 917.98 580.5 913.66 583.524 908.584L812.268 512.332" stroke="#465C8C" stroke-width="3" stroke-miterlimit="10"/>
<path d="M1076.33 383.812H469.152C463.212 383.812 460.728 388.025 463.644 393.209L502.2 460.817C505.116 466.001 512.352 470.213 518.292 470.213H844.776C850.716 470.213 858.06 466 860.976 460.924L899.748 394.613" stroke="#465C8C" stroke-width="3" stroke-miterlimit="10"/>
<path d="M975.132 469.889L861.084 272.789C858.06 267.605 850.824 263.393 844.884 263.393H399.06C393.12 263.393 390.636 267.605 393.552 272.789L431.892 340.397C434.808 345.581 442.044 349.793 447.984 349.793H883.44" stroke="#465C8C" stroke-width="3" stroke-miterlimit="10"/>
<path d="M192.133 488.14L383.941 822.4C386.857 827.584 391.717 827.584 394.741 822.4L766.909 175.48" stroke="#465C8C" stroke-width="3" stroke-miterlimit="10"/>
<path d="M590.652 498.076H670.788C676.728 498.076 679.104 502.288 676.188 507.472L444.42 908.908C441.396 914.092 436.536 914.092 433.62 908.908L391.824 836.548" stroke="#465C8C" stroke-width="3" stroke-miterlimit="10"/>
<path d="M43.6191 536.741C43.619 537.092 43.3344 537.377 42.9834 537.377C42.6761 537.377 42.4197 537.159 42.3604 536.869L42.3467 536.741C42.3467 536.39 42.6322 536.104 42.9834 536.104L43.1113 536.118C43.4011 536.177 43.6191 536.434 43.6191 536.741Z" fill="#7DD3FC" stroke="#465C8C" stroke-width="3"/>
<path d="M807.721 773.8C807.721 774.151 807.436 774.435 807.085 774.436C806.778 774.436 806.521 774.218 806.462 773.928L806.448 773.8C806.448 773.449 806.734 773.163 807.085 773.163L807.213 773.177C807.503 773.236 807.721 773.492 807.721 773.8Z" fill="#7DD3FC" stroke="#465C8C" stroke-width="3"/>
<path d="M975.768 469.888C975.767 470.239 975.483 470.523 975.132 470.523C974.824 470.523 974.568 470.305 974.509 470.016L974.496 469.888C974.496 469.536 974.781 469.251 975.132 469.251L975.26 469.265C975.549 469.324 975.768 469.58 975.768 469.888Z" fill="#7DD3FC" stroke="#465C8C" stroke-width="3"/>
<path d="M821.436 498.399C821.435 498.75 821.151 499.035 820.8 499.035C820.492 499.035 820.236 498.817 820.177 498.527L820.163 498.399C820.163 498.048 820.449 497.763 820.8 497.763L820.928 497.776C821.218 497.836 821.436 498.092 821.436 498.399Z" fill="#7DD3FC" stroke="#465C8C" stroke-width="3"/>
<path d="M591.721 498.185C591.721 498.536 591.436 498.82 591.085 498.82C590.778 498.82 590.521 498.602 590.462 498.312L590.448 498.185C590.448 497.833 590.734 497.548 591.085 497.548L591.213 497.562C591.503 497.621 591.721 497.877 591.721 498.185Z" fill="#7DD3FC" stroke="#465C8C" stroke-width="3"/>
<path d="M1077.07 383.704C1077.07 384.055 1076.79 384.34 1076.44 384.34C1076.13 384.34 1075.87 384.122 1075.81 383.832L1075.8 383.704C1075.8 383.353 1076.09 383.067 1076.44 383.067L1076.56 383.081C1076.85 383.14 1077.07 383.397 1077.07 383.704Z" fill="#7DD3FC" stroke="#465C8C" stroke-width="3"/>
<path d="M392.676 836.657C392.676 837.008 392.391 837.293 392.04 837.293C391.733 837.293 391.476 837.075 391.417 836.785L391.403 836.657C391.403 836.306 391.689 836.021 392.04 836.021L392.168 836.034C392.458 836.094 392.676 836.35 392.676 836.657Z" fill="#7DD3FC" stroke="#465C8C" stroke-width="3"/>
<path d="M506.508 550.997C506.508 551.348 506.223 551.633 505.872 551.633C505.565 551.633 505.308 551.415 505.249 551.125L505.235 550.997C505.235 550.646 505.521 550.36 505.872 550.36L506 550.374C506.29 550.433 506.508 550.69 506.508 550.997Z" fill="#7DD3FC" stroke="#465C8C" stroke-width="3"/>
<path d="M192.553 488.249C192.553 488.6 192.268 488.885 191.917 488.885C191.61 488.885 191.353 488.667 191.294 488.377L191.28 488.249C191.28 487.898 191.566 487.612 191.917 487.612L192.045 487.626C192.335 487.685 192.553 487.942 192.553 488.249Z" fill="#7DD3FC" stroke="#465C8C" stroke-width="3"/>
<path d="M161.232 353.249C161.232 353.6 160.948 353.885 160.597 353.885C160.289 353.885 160.033 353.667 159.974 353.377L159.96 353.249C159.96 352.898 160.245 352.612 160.597 352.612L160.725 352.626C161.014 352.685 161.232 352.942 161.232 353.249Z" fill="#7DD3FC" stroke="#465C8C" stroke-width="3"/>
<path d="M900.385 394.505C900.385 394.856 900.1 395.14 899.749 395.141C899.442 395.141 899.185 394.923 899.126 394.633L899.113 394.505C899.113 394.154 899.398 393.868 899.749 393.868L899.877 393.882C900.167 393.941 900.385 394.198 900.385 394.505Z" fill="#7DD3FC" stroke="#465C8C" stroke-width="3"/>
<path d="M812.688 512.116C812.687 512.467 812.403 512.752 812.052 512.752C811.744 512.752 811.488 512.534 811.429 512.244L811.416 512.116C811.416 511.765 811.701 511.479 812.052 511.479L812.18 511.493C812.469 511.552 812.688 511.809 812.688 512.116Z" fill="#7DD3FC" stroke="#465C8C" stroke-width="3"/>
<path d="M884.939 349.685C884.939 350.036 884.655 350.32 884.304 350.32C883.996 350.32 883.74 350.102 883.681 349.812L883.667 349.685C883.667 349.333 883.952 349.048 884.304 349.048L884.432 349.062C884.721 349.121 884.939 349.377 884.939 349.685Z" fill="#7DD3FC" stroke="#465C8C" stroke-width="3"/>
<path d="M767.545 174.94C767.545 175.291 767.26 175.576 766.909 175.576C766.602 175.576 766.345 175.358 766.286 175.068L766.273 174.94C766.273 174.589 766.558 174.304 766.909 174.304L767.037 174.317C767.327 174.377 767.545 174.633 767.545 174.94Z" fill="#7DD3FC" stroke="#465C8C" stroke-width="3"/>
<path d="M204.648 261.88C204.648 262.231 204.364 262.515 204.013 262.516C203.705 262.516 203.449 262.298 203.39 262.008L203.376 261.88C203.376 261.529 203.661 261.243 204.013 261.243L204.141 261.257C204.43 261.316 204.648 261.573 204.648 261.88Z" fill="#7DD3FC" stroke="#465C8C" stroke-width="3"/>
<path d="M248.604 258.532C248.603 258.883 248.319 259.168 247.968 259.168C247.66 259.168 247.404 258.95 247.345 258.66L247.331 258.532C247.331 258.181 247.616 257.896 247.968 257.896L248.096 257.909C248.385 257.969 248.604 258.225 248.604 258.532Z" fill="#7DD3FC" stroke="#465C8C" stroke-width="3"/>
<path d="M341.484 258.749C341.484 259.1 341.2 259.385 340.849 259.385C340.541 259.385 340.285 259.167 340.226 258.877L340.212 258.749C340.212 258.398 340.497 258.112 340.849 258.112L340.977 258.126C341.266 258.185 341.484 258.442 341.484 258.749Z" fill="#7DD3FC" stroke="#465C8C" stroke-width="3"/>
<path d="M460.5 626.38C460.5 626.731 460.215 627.015 459.864 627.016C459.557 627.016 459.301 626.798 459.241 626.508L459.228 626.38C459.228 626.029 459.513 625.743 459.864 625.743L459.992 625.757C460.282 625.816 460.5 626.073 460.5 626.38Z" fill="#7DD3FC" stroke="#465C8C" stroke-width="3"/>
<path d="M437.713 664.396C437.713 664.747 437.428 665.031 437.077 665.031C436.77 665.031 436.513 664.813 436.454 664.523L436.44 664.396C436.44 664.044 436.726 663.759 437.077 663.759L437.205 663.772C437.495 663.832 437.713 664.088 437.713 664.396Z" fill="#7DD3FC" stroke="#465C8C" stroke-width="3"/>
<path d="M391.057 746.368C391.056 746.719 390.772 747.004 390.421 747.004C390.114 747.004 389.857 746.786 389.798 746.496L389.784 746.368C389.784 746.017 390.069 745.732 390.421 745.732L390.549 745.745C390.839 745.804 391.057 746.061 391.057 746.368Z" fill="#7DD3FC" stroke="#465C8C" stroke-width="3"/>
<path d="M389.977 826.288C389.976 826.639 389.692 826.924 389.341 826.924C389.034 826.924 388.777 826.706 388.718 826.416L388.704 826.288C388.704 825.937 388.989 825.652 389.341 825.652L389.469 825.665C389.759 825.724 389.977 825.981 389.977 826.288Z" fill="#7DD3FC" stroke="#465C8C" stroke-width="3"/>
<path d="M439.764 913.013C439.764 913.364 439.479 913.648 439.128 913.648C438.82 913.648 438.564 913.43 438.505 913.141L438.491 913.013C438.491 912.661 438.777 912.377 439.128 912.377L439.256 912.39C439.546 912.449 439.764 912.705 439.764 913.013Z" fill="#7DD3FC" stroke="#465C8C" stroke-width="3"/>
<path d="M483.721 915.712C483.721 916.063 483.436 916.348 483.085 916.348C482.778 916.348 482.521 916.13 482.462 915.84L482.448 915.712C482.448 915.361 482.734 915.076 483.085 915.076L483.213 915.089C483.503 915.148 483.721 915.405 483.721 915.712Z" fill="#7DD3FC" stroke="#465C8C" stroke-width="3"/>
<path d="M578.004 914.417C578.004 914.768 577.719 915.053 577.368 915.053C577.061 915.053 576.804 914.835 576.745 914.545L576.732 914.417C576.732 914.066 577.017 913.78 577.368 913.78L577.496 913.794C577.786 913.853 578.004 914.11 578.004 914.417Z" fill="#7DD3FC" stroke="#465C8C" stroke-width="3"/>
<path d="M582.539 671.632C582.539 671.983 582.255 672.267 581.903 672.268C581.596 672.268 581.34 672.049 581.28 671.76L581.267 671.632C581.267 671.281 581.552 670.996 581.903 670.996L582.031 671.009C582.321 671.068 582.539 671.325 582.539 671.632Z" fill="#7DD3FC" stroke="#465C8C" stroke-width="3"/>
<path d="M601.764 705.437C601.764 705.788 601.479 706.072 601.128 706.072C600.821 706.072 600.564 705.854 600.505 705.564L600.492 705.437C600.492 705.085 600.777 704.8 601.128 704.8L601.256 704.813C601.546 704.873 601.764 705.129 601.764 705.437Z" fill="#7DD3FC" stroke="#465C8C" stroke-width="3"/>
<path d="M651.443 792.052C651.443 792.403 651.159 792.687 650.808 792.688C650.5 792.688 650.244 792.469 650.185 792.18L650.172 792.052C650.172 791.7 650.457 791.416 650.808 791.416L650.936 791.429C651.225 791.488 651.443 791.744 651.443 792.052Z" fill="#7DD3FC" stroke="#465C8C" stroke-width="3"/>
<path d="M724.561 912.796C724.56 913.147 724.276 913.431 723.925 913.432C723.617 913.432 723.361 913.214 723.302 912.924L723.288 912.796C723.288 912.445 723.574 912.159 723.925 912.159L724.053 912.173C724.343 912.232 724.561 912.489 724.561 912.796Z" fill="#7DD3FC" stroke="#465C8C" stroke-width="3"/>
<path d="M532.104 584.368C532.103 584.719 531.819 585.004 531.468 585.004C531.16 585.004 530.904 584.786 530.845 584.496L530.831 584.368C530.831 584.017 531.116 583.732 531.468 583.732L531.596 583.745C531.886 583.804 532.104 584.061 532.104 584.368Z" fill="#7DD3FC" stroke="#465C8C" stroke-width="3"/>
<path d="M677.363 500.452C677.363 500.803 677.079 501.088 676.728 501.088C676.42 501.088 676.164 500.87 676.104 500.58L676.092 500.452C676.092 500.101 676.376 499.815 676.728 499.815L676.855 499.829C677.145 499.888 677.363 500.145 677.363 500.452Z" fill="#7DD3FC" stroke="#465C8C" stroke-width="3"/>
<path d="M724.129 500.021C724.129 500.372 723.844 500.656 723.493 500.656C723.186 500.656 722.929 500.438 722.87 500.148L722.857 500.021C722.857 499.669 723.142 499.384 723.493 499.384L723.621 499.397C723.911 499.457 724.129 499.713 724.129 500.021Z" fill="#7DD3FC" stroke="#465C8C" stroke-width="3"/>
<path d="M857.615 465.353C857.615 465.704 857.331 465.988 856.979 465.988C856.672 465.988 856.416 465.77 856.356 465.48L856.343 465.353C856.343 465.001 856.628 464.716 856.979 464.716L857.107 464.729C857.397 464.789 857.615 465.045 857.615 465.353Z" fill="#7DD3FC" stroke="#465C8C" stroke-width="3"/>
<path d="M598.199 470.212C598.199 470.563 597.915 470.848 597.563 470.848C597.256 470.848 597 470.63 596.94 470.34L596.927 470.212C596.927 469.861 597.212 469.575 597.563 469.575L597.691 469.589C597.981 469.648 598.199 469.905 598.199 470.212Z" fill="#7DD3FC" stroke="#465C8C" stroke-width="3"/>
<path d="M508.129 466.325C508.129 466.676 507.844 466.961 507.493 466.961C507.186 466.961 506.929 466.743 506.87 466.453L506.856 466.325C506.856 465.974 507.142 465.688 507.493 465.688L507.621 465.702C507.911 465.761 508.129 466.018 508.129 466.325Z" fill="#7DD3FC" stroke="#465C8C" stroke-width="3"/>
<path d="M463.955 385.864C463.955 386.215 463.67 386.5 463.319 386.5C463.012 386.5 462.756 386.282 462.696 385.992L462.683 385.864C462.683 385.513 462.968 385.228 463.319 385.228L463.447 385.241C463.737 385.301 463.955 385.557 463.955 385.864Z" fill="#7DD3FC" stroke="#465C8C" stroke-width="3"/>
<path d="M647.447 383.812C647.447 384.163 647.162 384.447 646.812 384.447C646.504 384.447 646.248 384.229 646.188 383.939L646.176 383.812C646.176 383.46 646.46 383.175 646.812 383.175L646.939 383.188C647.229 383.248 647.447 383.504 647.447 383.812Z" fill="#7DD3FC" stroke="#465C8C" stroke-width="3"/>
<path d="M666.996 349.899C666.996 350.25 666.711 350.535 666.36 350.535C666.053 350.535 665.797 350.317 665.737 350.027L665.724 349.899C665.724 349.548 666.009 349.263 666.36 349.263L666.488 349.276C666.778 349.336 666.996 349.592 666.996 349.899Z" fill="#7DD3FC" stroke="#465C8C" stroke-width="3"/>
<path d="M853.297 266.093C853.297 266.444 853.012 266.728 852.661 266.729C852.354 266.729 852.097 266.51 852.038 266.221L852.024 266.093C852.024 265.742 852.31 265.456 852.661 265.456L852.789 265.47C853.079 265.529 853.297 265.785 853.297 266.093Z" fill="#7DD3FC" stroke="#465C8C" stroke-width="3"/>
<path d="M716.676 263.392C716.676 263.743 716.391 264.027 716.04 264.027C715.733 264.027 715.476 263.809 715.417 263.52L715.403 263.392C715.403 263.04 715.689 262.755 716.04 262.755L716.168 262.769C716.458 262.828 716.676 263.084 716.676 263.392Z" fill="#7DD3FC" stroke="#465C8C" stroke-width="3"/>
<path d="M393.324 266.093C393.324 266.444 393.039 266.728 392.688 266.729C392.381 266.729 392.125 266.51 392.065 266.221L392.052 266.093C392.052 265.742 392.337 265.456 392.688 265.456L392.816 265.47C393.106 265.529 393.324 265.785 393.324 266.093Z" fill="#7DD3FC" stroke="#465C8C" stroke-width="3"/>
<path d="M439.656 346.769C439.656 347.12 439.372 347.404 439.021 347.404C438.713 347.404 438.457 347.186 438.397 346.896L438.384 346.769C438.384 346.417 438.669 346.132 439.021 346.132L439.148 346.146C439.438 346.205 439.656 346.461 439.656 346.769Z" fill="#7DD3FC" stroke="#465C8C" stroke-width="3"/>
<path d="M98.1602 441.7C98.16 442.051 97.8754 442.336 97.5244 442.336C97.2171 442.336 96.9607 442.118 96.9014 441.828L96.8877 441.7C96.8877 441.349 97.1732 441.063 97.5244 441.063L97.6523 441.077C97.9421 441.136 98.1602 441.393 98.1602 441.7Z" fill="#7DD3FC" stroke="#465C8C" stroke-width="3"/>
<path d="M275.713 379.169C275.713 379.52 275.428 379.805 275.077 379.805C274.77 379.805 274.513 379.587 274.454 379.297L274.44 379.169C274.44 378.818 274.726 378.532 275.077 378.532L275.205 378.546C275.495 378.605 275.713 378.862 275.713 379.169Z" fill="#7DD3FC" stroke="#465C8C" stroke-width="3"/>
<path d="M377.34 556.181C377.34 556.532 377.055 556.816 376.704 556.816C376.397 556.816 376.14 556.598 376.081 556.309L376.067 556.181C376.067 555.829 376.353 555.544 376.704 555.544L376.832 555.558C377.122 555.617 377.34 555.873 377.34 556.181Z" fill="#7DD3FC" stroke="#465C8C" stroke-width="3"/>
<path d="M343.752 429.712C343.752 430.063 343.467 430.348 343.116 430.348C342.809 430.348 342.553 430.13 342.493 429.84L342.479 429.712C342.479 429.361 342.765 429.075 343.116 429.075L343.244 429.089C343.534 429.148 343.752 429.405 343.752 429.712Z" fill="#7DD3FC" stroke="#465C8C" stroke-width="3"/>
<path d="M236.832 565.036C236.832 565.387 236.547 565.672 236.196 565.672C235.889 565.672 235.633 565.454 235.573 565.164L235.56 565.036C235.56 564.685 235.845 564.399 236.196 564.399L236.324 564.413C236.614 564.472 236.832 564.729 236.832 565.036Z" fill="#7DD3FC" stroke="#465C8C" stroke-width="3"/>
<path d="M307.248 687.509C307.248 687.86 306.963 688.144 306.612 688.145C306.305 688.145 306.049 687.927 305.989 687.637L305.976 687.509C305.976 687.158 306.261 686.873 306.612 686.873L306.74 686.886C307.03 686.945 307.248 687.202 307.248 687.509Z" fill="#7DD3FC" stroke="#465C8C" stroke-width="3"/>
<path d="M227.867 469.78C227.867 470.131 227.582 470.416 227.231 470.416C226.924 470.416 226.668 470.198 226.608 469.908L226.595 469.78C226.595 469.429 226.88 469.144 227.231 469.144L227.359 469.157C227.649 469.217 227.867 469.473 227.867 469.78Z" fill="#7DD3FC" stroke="#465C8C" stroke-width="3"/>
<path d="M310.057 611.368C310.056 611.719 309.772 612.004 309.421 612.004C309.114 612.004 308.857 611.786 308.798 611.496L308.784 611.368C308.784 611.017 309.069 610.732 309.421 610.732L309.549 610.745C309.839 610.804 310.057 611.061 310.057 611.368Z" fill="#7DD3FC" stroke="#465C8C" stroke-width="3"/>
<path d="M466.115 699.28C466.115 699.631 465.831 699.916 465.479 699.916C465.172 699.916 464.916 699.698 464.856 699.408L464.843 699.28C464.843 698.929 465.128 698.644 465.479 698.644L465.607 698.657C465.897 698.717 466.115 698.973 466.115 699.28Z" fill="#7DD3FC" stroke="#465C8C" stroke-width="3"/>
<path d="M515.148 786.544C515.148 786.895 514.864 787.18 514.513 787.18C514.205 787.18 513.949 786.962 513.89 786.672L513.876 786.544C513.876 786.193 514.162 785.907 514.513 785.907L514.641 785.921C514.93 785.98 515.148 786.237 515.148 786.544Z" fill="#7DD3FC" stroke="#465C8C" stroke-width="3"/>
<path d="M518.172 850.479C518.172 850.831 517.887 851.115 517.536 851.115C517.229 851.115 516.972 850.897 516.913 850.607L516.899 850.479C516.899 850.128 517.185 849.843 517.536 849.843L517.664 849.856C517.954 849.916 518.172 850.172 518.172 850.479Z" fill="#7DD3FC" stroke="#465C8C" stroke-width="3"/>
<path d="M714.947 681.784C714.947 682.135 714.662 682.42 714.312 682.42C714.004 682.42 713.748 682.202 713.688 681.912L713.676 681.784C713.676 681.433 713.96 681.147 714.312 681.147L714.439 681.161C714.729 681.22 714.947 681.477 714.947 681.784Z" fill="#7DD3FC" stroke="#465C8C" stroke-width="3"/>
<path d="M770.568 585.772C770.568 586.124 770.284 586.408 769.933 586.408C769.625 586.408 769.369 586.19 769.31 585.9L769.297 585.772C769.297 585.421 769.581 585.137 769.933 585.137L770.061 585.149C770.35 585.209 770.568 585.465 770.568 585.772Z" fill="#7DD3FC" stroke="#465C8C" stroke-width="3"/>
<path d="M660.191 604.78C660.191 605.131 659.907 605.416 659.556 605.416C659.248 605.416 658.992 605.198 658.933 604.908L658.919 604.78C658.919 604.429 659.204 604.144 659.556 604.144L659.684 604.157C659.973 604.217 660.191 604.473 660.191 604.78Z" fill="#7DD3FC" stroke="#465C8C" stroke-width="3"/>
<path d="M642.695 567.089C642.695 567.44 642.411 567.724 642.06 567.725C641.752 567.725 641.496 567.507 641.437 567.217L641.423 567.089C641.423 566.738 641.708 566.453 642.06 566.453L642.188 566.466C642.477 566.525 642.695 566.782 642.695 567.089Z" fill="#7DD3FC" stroke="#465C8C" stroke-width="3"/>
<path d="M769.271 840.651C769.271 841.002 768.987 841.287 768.636 841.287C768.328 841.287 768.072 841.069 768.013 840.779L767.999 840.651C767.999 840.3 768.284 840.016 768.636 840.016L768.764 840.028C769.053 840.088 769.271 840.344 769.271 840.651Z" fill="#7DD3FC" stroke="#465C8C" stroke-width="3"/>
<path d="M419.027 560.067C419.027 560.418 418.743 560.703 418.392 560.703C418.084 560.703 417.828 560.485 417.769 560.195L417.755 560.067C417.755 559.716 418.04 559.432 418.392 559.432L418.52 559.444C418.809 559.504 419.027 559.76 419.027 560.067Z" fill="#7DD3FC" stroke="#465C8C" stroke-width="3"/>
<path d="M407.688 367.72C407.687 368.071 407.403 368.355 407.052 368.355C406.744 368.355 406.488 368.137 406.429 367.848L406.415 367.72C406.415 367.368 406.701 367.083 407.052 367.083L407.18 367.097C407.469 367.156 407.688 367.412 407.688 367.72Z" fill="#7DD3FC" stroke="#465C8C" stroke-width="3"/>
<path d="M714.191 469.888C714.191 470.239 713.907 470.523 713.556 470.523C713.248 470.523 712.992 470.305 712.933 470.016L712.919 469.888C712.919 469.536 713.204 469.251 713.556 469.251L713.684 469.265C713.973 469.324 714.191 469.58 714.191 469.888Z" fill="#7DD3FC" stroke="#465C8C" stroke-width="3"/>
<path d="M722.076 383.487C722.076 383.838 721.792 384.123 721.44 384.123C721.133 384.123 720.877 383.905 720.817 383.615L720.804 383.487C720.804 383.136 721.089 382.851 721.44 382.851L721.568 382.864C721.858 382.924 722.076 383.18 722.076 383.487Z" fill="#7DD3FC" stroke="#465C8C" stroke-width="3"/>
<path d="M926.412 384.028C926.412 384.379 926.127 384.664 925.776 384.664C925.469 384.664 925.213 384.446 925.153 384.156L925.14 384.028C925.14 383.677 925.425 383.392 925.776 383.392L925.904 383.405C926.194 383.465 926.412 383.721 926.412 384.028Z" fill="#7DD3FC" stroke="#465C8C" stroke-width="3"/>
<path d="M834.611 384.028C834.611 384.379 834.327 384.664 833.976 384.664C833.668 384.664 833.412 384.446 833.353 384.156L833.339 384.028C833.339 383.677 833.624 383.392 833.976 383.392L834.104 383.405C834.393 383.465 834.611 383.721 834.611 384.028Z" fill="#7DD3FC" stroke="#465C8C" stroke-width="3"/>
<path d="M781.367 350.009C781.367 350.36 781.082 350.644 780.731 350.645C780.424 350.645 780.168 350.426 780.108 350.137L780.096 350.009C780.096 349.658 780.38 349.372 780.731 349.372L780.859 349.386C781.149 349.445 781.367 349.701 781.367 350.009Z" fill="#7DD3FC" stroke="#465C8C" stroke-width="3"/>
<path d="M535.344 350.116C535.344 350.467 535.059 350.752 534.708 350.752C534.401 350.752 534.144 350.534 534.085 350.244L534.071 350.116C534.071 349.765 534.357 349.479 534.708 349.479L534.836 349.493C535.126 349.552 535.344 349.809 535.344 350.116Z" fill="#7DD3FC" stroke="#465C8C" stroke-width="3"/>
<path d="M570.984 383.597C570.984 383.948 570.7 384.232 570.349 384.232C570.041 384.232 569.785 384.014 569.726 383.725L569.713 383.597C569.713 383.245 569.998 382.96 570.349 382.96L570.477 382.974C570.766 383.033 570.984 383.289 570.984 383.597Z" fill="#7DD3FC" stroke="#465C8C" stroke-width="3"/>
<path d="M517.199 263.716C517.199 264.067 516.915 264.351 516.563 264.352C516.256 264.352 516 264.134 515.94 263.844L515.927 263.716C515.927 263.365 516.212 263.079 516.563 263.079L516.691 263.093C516.981 263.152 517.199 263.409 517.199 263.716Z" fill="#7DD3FC" stroke="#465C8C" stroke-width="3"/>
<path d="M641.615 263.716C641.615 264.067 641.331 264.351 640.979 264.352C640.672 264.352 640.416 264.134 640.356 263.844L640.343 263.716C640.343 263.365 640.628 263.079 640.979 263.079L641.107 263.093C641.397 263.152 641.615 263.409 641.615 263.716Z" fill="#7DD3FC" stroke="#465C8C" stroke-width="3"/>
</svg>
