<svg width="1214" height="552" viewBox="0 0 1214 552" fill="none" xmlns="http://www.w3.org/2000/svg"><g filter="url(#filter0_d_944_217)"><mask id="path-1-outside-1_944_217" maskUnits="userSpaceOnUse" x="37.9775" y="104" width="1140" height="351" fill="black"><rect fill="white" x="37.9775" y="104" width="1140" height="351"/><path d="M252.077 321.485H80.9272C80.9272 349.731 89.0658 373.029 105.343 391.381C121.78 409.733 141.887 418.909 165.664 418.909C188.325 418.909 211.703 414.839 235.8 406.701L242.263 436.622C220.241 446.516 194.548 451.463 165.186 451.463C128.163 451.463 98.3215 439.574 75.6611 415.797C53.0007 392.019 41.6705 359.944 41.6705 319.57C41.6705 279.994 51.8038 248.477 72.0705 225.019C92.4968 201.401 118.828 189.592 151.063 189.592C179.787 189.592 203.804 200.523 223.113 222.386C242.422 244.248 252.077 273.372 252.077 309.756V321.485ZM211.384 291.085C211.384 271.616 205.32 255.259 193.192 242.014C181.064 228.609 167.499 221.907 152.499 221.907C133.19 221.907 117.152 228.29 104.386 241.057C91.7787 253.823 84.7571 270.499 83.3209 291.085H211.384ZM467.099 445H275.363V424.893L417.549 228.37H278.714V195.576H467.099V214.008L324.913 412.206H467.099V445ZM640.23 259.727C662.731 264.994 680.365 275.207 693.131 290.367C705.897 305.527 712.281 323.559 712.281 344.464C712.281 375.104 701.11 399.52 678.769 417.712C656.587 435.904 629.858 445 598.58 445H502.592V107.249H596.186C628.74 107.249 654.194 114.43 672.545 128.792C690.897 142.994 700.073 163.102 700.073 189.113C700.073 205.071 694.727 219.274 684.035 231.721C673.503 244.168 658.901 253.185 640.23 258.77V259.727ZM541.849 241.535H587.808C635.842 241.535 659.859 224.38 659.859 190.071C659.859 174.432 653.954 162.463 642.145 154.165C630.336 145.707 613.022 141.478 590.202 141.478H541.849V241.535ZM541.849 410.77H586.372C612.383 410.77 632.969 404.866 648.129 393.057C663.449 381.248 671.109 365.05 671.109 344.464C671.109 322.602 663.609 305.686 648.608 293.718C633.608 281.749 611.905 275.765 583.499 275.765H541.849V410.77ZM844.94 189.592C879.249 189.592 906.538 201.56 926.804 225.497C947.071 249.434 957.204 280.952 957.204 320.049C957.204 359.465 947.071 391.221 926.804 415.318C906.538 439.415 879.249 451.463 844.94 451.463C810.47 451.463 783.102 439.494 762.836 415.557C742.729 391.461 732.675 359.625 732.675 320.049C732.675 280.792 742.808 249.275 763.075 225.497C783.342 201.56 810.63 189.592 844.94 189.592ZM844.94 418.909C867.6 418.909 885.473 409.334 898.559 390.184C911.644 371.035 918.187 347.816 918.187 320.527C918.187 291.803 911.724 268.185 898.798 249.674C885.872 231.163 867.919 221.907 844.94 221.907C821.801 221.907 803.848 231.083 791.081 249.434C778.315 267.627 771.932 291.324 771.932 320.527C771.932 348.294 778.395 371.673 791.321 390.663C804.247 409.493 822.12 418.909 844.94 418.909ZM1171.39 445H1129.26L1062.48 347.337L993.301 445H953.566L1042.37 320.049L953.566 195.576H996.413L1063.44 292.521L1131.66 195.576H1171.39L1083.07 318.612L1171.39 445Z"/></mask><path d="M252.077 321.485H80.9272C80.9272 349.731 89.0658 373.029 105.343 391.381C121.78 409.733 141.887 418.909 165.664 418.909C188.325 418.909 211.703 414.839 235.8 406.701L242.263 436.622C220.241 446.516 194.548 451.463 165.186 451.463C128.163 451.463 98.3215 439.574 75.6611 415.797C53.0007 392.019 41.6705 359.944 41.6705 319.57C41.6705 279.994 51.8038 248.477 72.0705 225.019C92.4968 201.401 118.828 189.592 151.063 189.592C179.787 189.592 203.804 200.523 223.113 222.386C242.422 244.248 252.077 273.372 252.077 309.756V321.485ZM211.384 291.085C211.384 271.616 205.32 255.259 193.192 242.014C181.064 228.609 167.499 221.907 152.499 221.907C133.19 221.907 117.152 228.29 104.386 241.057C91.7787 253.823 84.7571 270.499 83.3209 291.085H211.384ZM467.099 445H275.363V424.893L417.549 228.37H278.714V195.576H467.099V214.008L324.913 412.206H467.099V445ZM640.23 259.727C662.731 264.994 680.365 275.207 693.131 290.367C705.897 305.527 712.281 323.559 712.281 344.464C712.281 375.104 701.11 399.52 678.769 417.712C656.587 435.904 629.858 445 598.58 445H502.592V107.249H596.186C628.74 107.249 654.194 114.43 672.545 128.792C690.897 142.994 700.073 163.102 700.073 189.113C700.073 205.071 694.727 219.274 684.035 231.721C673.503 244.168 658.901 253.185 640.23 258.77V259.727ZM541.849 241.535H587.808C635.842 241.535 659.859 224.38 659.859 190.071C659.859 174.432 653.954 162.463 642.145 154.165C630.336 145.707 613.022 141.478 590.202 141.478H541.849V241.535ZM541.849 410.77H586.372C612.383 410.77 632.969 404.866 648.129 393.057C663.449 381.248 671.109 365.05 671.109 344.464C671.109 322.602 663.609 305.686 648.608 293.718C633.608 281.749 611.905 275.765 583.499 275.765H541.849V410.77ZM844.94 189.592C879.249 189.592 906.538 201.56 926.804 225.497C947.071 249.434 957.204 280.952 957.204 320.049C957.204 359.465 947.071 391.221 926.804 415.318C906.538 439.415 879.249 451.463 844.94 451.463C810.47 451.463 783.102 439.494 762.836 415.557C742.729 391.461 732.675 359.625 732.675 320.049C732.675 280.792 742.808 249.275 763.075 225.497C783.342 201.56 810.63 189.592 844.94 189.592ZM844.94 418.909C867.6 418.909 885.473 409.334 898.559 390.184C911.644 371.035 918.187 347.816 918.187 320.527C918.187 291.803 911.724 268.185 898.798 249.674C885.872 231.163 867.919 221.907 844.94 221.907C821.801 221.907 803.848 231.083 791.081 249.434C778.315 267.627 771.932 291.324 771.932 320.527C771.932 348.294 778.395 371.673 791.321 390.663C804.247 409.493 822.12 418.909 844.94 418.909ZM1171.39 445H1129.26L1062.48 347.337L993.301 445H953.566L1042.37 320.049L953.566 195.576H996.413L1063.44 292.521L1131.66 195.576H1171.39L1083.07 318.612L1171.39 445Z" fill="#070707" shape-rendering="crispEdges"/><path d="M252.077 321.485V324.485H255.077V321.485H252.077ZM80.9272 321.485V318.485H77.9272V321.485H80.9272ZM105.343 391.381L103.099 393.372L103.103 393.377L103.108 393.383L105.343 391.381ZM235.8 406.701L238.732 406.067L238.023 402.783L234.84 403.858L235.8 406.701ZM242.263 436.622L243.492 439.359L245.708 438.363L245.195 435.989L242.263 436.622ZM75.6611 415.797L73.4893 417.867L75.6611 415.797ZM72.0705 225.019L69.8014 223.056L69.8004 223.057L72.0705 225.019ZM211.384 291.085V294.085H214.384V291.085H211.384ZM193.192 242.014L190.967 244.027L190.973 244.033L190.979 244.04L193.192 242.014ZM104.386 241.057L102.264 238.935L102.258 238.942L102.251 238.949L104.386 241.057ZM83.3209 291.085L80.3282 290.876L80.1043 294.085H83.3209V291.085ZM252.077 321.485V318.485H80.9272V321.485V324.485H252.077V321.485ZM80.9272 321.485H77.9272C77.9272 350.346 86.2615 374.389 103.099 393.372L105.343 391.381L107.587 389.39C91.8702 371.67 83.9272 349.115 83.9272 321.485H80.9272ZM105.343 391.381L103.108 393.383C120.091 412.344 140.999 421.909 165.664 421.909V418.909V415.909C142.774 415.909 123.469 407.122 107.578 389.38L105.343 391.381ZM165.664 418.909V421.909C188.688 421.909 212.391 417.773 236.76 409.543L235.8 406.701L234.84 403.858C211.015 411.905 187.961 415.909 165.664 415.909V418.909ZM235.8 406.701L232.867 407.334L239.33 437.255L242.263 436.622L245.195 435.989L238.732 406.067L235.8 406.701ZM242.263 436.622L241.033 433.886C219.472 443.572 194.214 448.463 165.186 448.463V451.463V454.463C194.882 454.463 221.009 449.46 243.492 439.359L242.263 436.622ZM165.186 451.463V448.463C128.869 448.463 99.8524 436.832 77.8328 413.727L75.6611 415.797L73.4893 417.867C96.7905 442.316 127.457 454.463 165.186 454.463V451.463ZM75.6611 415.797L77.8328 413.727C55.82 390.629 44.6705 359.359 44.6705 319.57H41.6705H38.6705C38.6705 360.528 50.1814 393.41 73.4893 417.867L75.6611 415.797ZM41.6705 319.57H44.6705C44.6705 280.51 54.6632 249.756 74.3406 226.98L72.0705 225.019L69.8004 223.057C48.9445 247.198 38.6705 279.478 38.6705 319.57H41.6705ZM72.0705 225.019L74.3396 226.981C94.1753 204.046 119.666 192.592 151.063 192.592V189.592V186.592C117.989 186.592 90.8183 198.755 69.8014 223.056L72.0705 225.019ZM151.063 189.592V192.592C178.912 192.592 202.115 203.142 220.865 224.372L223.113 222.386L225.362 220.4C205.493 197.904 180.663 186.592 151.063 186.592V189.592ZM223.113 222.386L220.865 224.372C239.578 245.56 249.077 273.915 249.077 309.756H252.077H255.077C255.077 272.828 245.266 242.936 225.362 220.4L223.113 222.386ZM252.077 309.756H249.077V321.485H252.077H255.077V309.756H252.077ZM211.384 291.085H214.384C214.384 270.935 208.084 253.835 195.404 239.988L193.192 242.014L190.979 244.04C202.556 256.683 208.384 272.297 208.384 291.085H211.384ZM193.192 242.014L195.416 240.001C182.846 226.108 168.519 218.907 152.499 218.907V221.907V224.907C166.48 224.907 179.281 231.111 190.967 244.027L193.192 242.014ZM152.499 221.907V218.907C132.455 218.907 115.635 225.564 102.264 238.935L104.386 241.057L106.507 243.178C118.669 231.016 133.924 224.907 152.499 224.907V221.907ZM104.386 241.057L102.251 238.949C89.0655 252.301 81.8064 269.689 80.3282 290.876L83.3209 291.085L86.3136 291.294C87.7079 271.309 94.4919 255.345 106.52 243.164L104.386 241.057ZM83.3209 291.085V294.085H211.384V291.085V288.085H83.3209V291.085ZM467.099 445V448H470.099V445H467.099ZM275.363 445H272.363V448H275.363V445ZM275.363 424.893L272.932 423.134L272.363 423.921V424.893H275.363ZM417.549 228.37L419.979 230.128L423.422 225.37H417.549V228.37ZM278.714 228.37H275.714V231.37H278.714V228.37ZM278.714 195.576V192.576H275.714V195.576H278.714ZM467.099 195.576H470.099V192.576H467.099V195.576ZM467.099 214.008L469.536 215.756L470.099 214.972V214.008H467.099ZM324.913 412.206L322.475 410.458L319.068 415.206H324.913V412.206ZM467.099 412.206H470.099V409.206H467.099V412.206ZM467.099 445V442H275.363V445V448H467.099V445ZM275.363 445H278.363V424.893H275.363H272.363V445H275.363ZM275.363 424.893L277.793 426.651L419.979 230.128L417.549 228.37L415.118 226.611L272.932 423.134L275.363 424.893ZM417.549 228.37V225.37H278.714V228.37V231.37H417.549V228.37ZM278.714 228.37H281.714V195.576H278.714H275.714V228.37H278.714ZM278.714 195.576V198.576H467.099V195.576V192.576H278.714V195.576ZM467.099 195.576H464.099V214.008H467.099H470.099V195.576H467.099ZM467.099 214.008L464.661 212.259L322.475 410.458L324.913 412.206L327.35 413.955L469.536 215.756L467.099 214.008ZM324.913 412.206V415.206H467.099V412.206V409.206H324.913V412.206ZM467.099 412.206H464.099V445H467.099H470.099V412.206H467.099ZM640.23 259.727H637.23V262.106L639.547 262.648L640.23 259.727ZM693.131 290.367L695.426 288.434L693.131 290.367ZM678.769 417.712L676.875 415.385L676.866 415.392L678.769 417.712ZM502.592 445H499.592V448H502.592V445ZM502.592 107.249V104.249H499.592V107.249H502.592ZM672.545 128.792L670.696 131.154L670.703 131.159L670.709 131.164L672.545 128.792ZM684.035 231.721L681.759 229.766L681.752 229.775L681.745 229.783L684.035 231.721ZM640.23 258.77L639.37 255.896L637.23 256.536V258.77H640.23ZM541.849 241.535H538.849V244.535H541.849V241.535ZM642.145 154.165L640.398 156.604L640.409 156.612L640.42 156.62L642.145 154.165ZM541.849 141.478V138.478H538.849V141.478H541.849ZM541.849 410.77H538.849V413.77H541.849V410.77ZM648.129 393.057L646.298 390.681L646.292 390.685L646.286 390.69L648.129 393.057ZM541.849 275.765V272.765H538.849V275.765H541.849ZM640.23 259.727L639.547 262.648C661.526 267.793 678.553 277.712 690.836 292.299L693.131 290.367L695.426 288.434C682.177 272.701 663.936 262.194 640.914 256.806L640.23 259.727ZM693.131 290.367L690.836 292.299C703.121 306.887 709.281 324.225 709.281 344.464H712.281H715.281C715.281 322.894 708.674 304.167 695.426 288.434L693.131 290.367ZM712.281 344.464H709.281C709.281 374.267 698.467 397.803 676.875 415.385L678.769 417.712L680.663 420.038C703.753 401.236 715.281 375.94 715.281 344.464H712.281ZM678.769 417.712L676.866 415.392C655.271 433.104 629.231 442 598.58 442V445V448C630.484 448 657.904 438.704 680.671 420.031L678.769 417.712ZM598.58 445V442H502.592V445V448H598.58V445ZM502.592 445H505.592V107.249H502.592H499.592V445H502.592ZM502.592 107.249V110.249H596.186V107.249V104.249H502.592V107.249ZM596.186 107.249V110.249C628.331 110.249 653.047 117.342 670.696 131.154L672.545 128.792L674.394 126.429C655.34 111.518 629.15 104.249 596.186 104.249V107.249ZM672.545 128.792L670.709 131.164C688.231 144.725 697.073 163.902 697.073 189.113H700.073H703.073C703.073 162.301 693.563 141.264 674.381 126.419L672.545 128.792ZM700.073 189.113H697.073C697.073 204.332 691.998 217.846 681.759 229.766L684.035 231.721L686.311 233.676C697.455 220.701 703.073 205.81 703.073 189.113H700.073ZM684.035 231.721L681.745 229.783C671.656 241.706 657.594 250.444 639.37 255.896L640.23 258.77L641.09 261.644C660.208 255.925 675.349 246.631 686.325 233.659L684.035 231.721ZM640.23 258.77H637.23V259.727H640.23H643.23V258.77H640.23ZM541.849 241.535V244.535H587.808V241.535V238.535H541.849V241.535ZM587.808 241.535V244.535C612.091 244.535 630.843 240.215 643.59 231.11C656.523 221.873 662.859 208.014 662.859 190.071H659.859H656.859C656.859 206.437 651.186 218.311 640.102 226.228C628.832 234.278 611.558 238.535 587.808 238.535V241.535ZM659.859 190.071H662.859C662.859 173.551 656.554 160.623 643.87 151.711L642.145 154.165L640.42 156.62C651.355 164.303 656.859 175.313 656.859 190.071H659.859ZM642.145 154.165L643.892 151.726C631.358 142.749 613.316 138.478 590.202 138.478V141.478V144.478C612.727 144.478 629.315 148.666 640.398 156.604L642.145 154.165ZM590.202 141.478V138.478H541.849V141.478V144.478H590.202V141.478ZM541.849 141.478H538.849V241.535H541.849H544.849V141.478H541.849ZM541.849 410.77V413.77H586.372V410.77V407.77H541.849V410.77ZM586.372 410.77V413.77C612.817 413.77 634.127 407.767 649.973 395.423L648.129 393.057L646.286 390.69C631.812 401.965 611.95 407.77 586.372 407.77V410.77ZM648.129 393.057L649.961 395.433C666.071 383.015 674.109 365.911 674.109 344.464H671.109H668.109C668.109 364.189 660.828 379.481 646.298 390.681L648.129 393.057ZM671.109 344.464H674.109C674.109 321.833 666.298 303.995 650.479 291.373L648.608 293.718L646.737 296.063C660.919 307.378 668.109 323.371 668.109 344.464H671.109ZM648.608 293.718L650.479 291.373C634.745 278.819 612.27 272.765 583.499 272.765V275.765V278.765C611.539 278.765 632.47 284.68 646.737 296.063L648.608 293.718ZM583.499 275.765V272.765H541.849V275.765V278.765H583.499V275.765ZM541.849 275.765H538.849V410.77H541.849H544.849V275.765H541.849ZM926.804 225.497L924.515 227.436L926.804 225.497ZM926.804 415.318L924.508 413.387L926.804 415.318ZM762.836 415.557L760.532 417.48L760.539 417.488L760.546 417.496L762.836 415.557ZM763.075 225.497L765.358 227.444L765.365 227.436L763.075 225.497ZM791.081 249.434L793.537 251.158L793.544 251.148L791.081 249.434ZM791.321 390.663L788.841 392.351L788.847 392.361L791.321 390.663ZM844.94 189.592V192.592C878.461 192.592 904.876 204.241 924.515 227.436L926.804 225.497L929.094 223.559C908.199 198.88 880.038 186.592 844.94 186.592V189.592ZM926.804 225.497L924.515 227.436C944.218 250.708 954.204 281.481 954.204 320.049H957.204H960.204C960.204 280.422 949.924 248.161 929.094 223.559L926.804 225.497ZM957.204 320.049H954.204C954.204 358.942 944.215 389.957 924.508 413.387L926.804 415.318L929.1 417.249C949.927 392.486 960.204 359.988 960.204 320.049H957.204ZM926.804 415.318L924.508 413.387C904.867 436.74 878.454 448.463 844.94 448.463V451.463V454.463C880.045 454.463 908.208 442.089 929.1 417.249L926.804 415.318ZM844.94 451.463V448.463C811.254 448.463 784.761 436.811 765.125 413.619L762.836 415.557L760.546 417.496C781.444 442.178 809.687 454.463 844.94 454.463V451.463ZM762.836 415.557L765.139 413.635C745.589 390.207 735.675 359.11 735.675 320.049H732.675H729.675C729.675 360.139 739.868 392.715 760.532 417.48L762.836 415.557ZM732.675 320.049H735.675C735.675 281.317 745.663 250.55 765.358 227.444L763.075 225.497L760.792 223.551C739.953 248 729.675 280.267 729.675 320.049H732.675ZM763.075 225.497L765.365 227.436C785.003 204.241 811.418 192.592 844.94 192.592V189.592V186.592C809.842 186.592 781.68 198.88 760.786 223.559L763.075 225.497ZM844.94 418.909V421.909C868.619 421.909 887.407 411.821 901.036 391.877L898.559 390.184L896.082 388.492C883.539 406.846 866.582 415.909 844.94 415.909V418.909ZM898.559 390.184L901.036 391.877C914.519 372.145 921.187 348.31 921.187 320.527H918.187H915.187C915.187 347.321 908.77 369.924 896.082 388.492L898.559 390.184ZM918.187 320.527H921.187C921.187 291.356 914.62 267.093 901.258 247.956L898.798 249.674L896.338 251.391C908.828 269.277 915.187 292.25 915.187 320.527H918.187ZM898.798 249.674L901.258 247.956C887.759 228.624 868.879 218.907 844.94 218.907V221.907V224.907C866.96 224.907 883.985 233.701 896.338 251.391L898.798 249.674ZM844.94 221.907V218.907C820.86 218.907 801.969 228.53 788.619 247.721L791.081 249.434L793.544 251.148C805.727 233.635 822.742 224.907 844.94 224.907V221.907ZM791.081 249.434L788.626 247.711C775.409 266.545 768.932 290.899 768.932 320.527H771.932H774.932C774.932 291.749 781.221 268.708 793.537 251.158L791.081 249.434ZM771.932 320.527H768.932C768.932 348.769 775.511 372.767 788.841 392.351L791.321 390.663L793.801 388.975C781.279 370.579 774.932 347.82 774.932 320.527H771.932ZM791.321 390.663L788.847 392.361C802.332 412.005 821.13 421.909 844.94 421.909V418.909V415.909C823.109 415.909 806.161 406.981 793.794 388.965L791.321 390.663ZM1171.39 445V448H1177.15L1173.85 443.281L1171.39 445ZM1129.26 445L1126.79 446.693L1127.68 448H1129.26V445ZM1062.48 347.337L1064.96 345.644L1062.52 342.086L1060.03 345.603L1062.48 347.337ZM993.301 445V448H994.853L995.749 446.734L993.301 445ZM953.566 445L951.121 443.262L947.753 448H953.566V445ZM1042.37 320.049L1044.82 321.787L1046.06 320.045L1044.81 318.306L1042.37 320.049ZM953.566 195.576V192.576H947.74L951.124 197.319L953.566 195.576ZM996.413 195.576L998.881 193.87L997.986 192.576H996.413V195.576ZM1063.44 292.521L1060.97 294.227L1063.42 297.765L1065.89 294.248L1063.44 292.521ZM1131.66 195.576V192.576H1130.1L1129.2 193.85L1131.66 195.576ZM1171.39 195.576L1173.83 197.326L1177.24 192.576H1171.39V195.576ZM1083.07 318.612L1080.63 316.863L1079.39 318.589L1080.61 320.331L1083.07 318.612ZM1171.39 445V442H1129.26V445V448H1171.39V445ZM1129.26 445L1131.74 443.307L1064.96 345.644L1062.48 347.337L1060 349.03L1126.79 446.693L1129.26 445ZM1062.48 347.337L1060.03 345.603L990.853 443.266L993.301 445L995.749 446.734L1064.93 349.071L1062.48 347.337ZM993.301 445V442H953.566V445V448H993.301V445ZM953.566 445L956.011 446.738L1044.82 321.787L1042.37 320.049L1039.93 318.311L951.121 443.262L953.566 445ZM1042.37 320.049L1044.81 318.306L956.008 193.834L953.566 195.576L951.124 197.319L1039.93 321.791L1042.37 320.049ZM953.566 195.576V198.576H996.413V195.576V192.576H953.566V195.576ZM996.413 195.576L993.946 197.282L1060.97 294.227L1063.44 292.521L1065.9 290.815L998.881 193.87L996.413 195.576ZM1063.44 292.521L1065.89 294.248L1134.11 197.303L1131.66 195.576L1129.2 193.85L1060.98 290.795L1063.44 292.521ZM1131.66 195.576V198.576H1171.39V195.576V192.576H1131.66V195.576ZM1171.39 195.576L1168.96 193.827L1080.63 316.863L1083.07 318.612L1085.5 320.362L1173.83 197.326L1171.39 195.576ZM1083.07 318.612L1080.61 320.331L1168.93 446.719L1171.39 445L1173.85 443.281L1085.52 316.894L1083.07 318.612Z" fill="white" fill-opacity="0.8" mask="url(#path-1-outside-1_944_217)"/></g><mask id="mask0_944_217" style="mask-type:alpha" maskUnits="userSpaceOnUse" x="41" y="107" width="1131" height="345"><path d="M252.077 321.485H80.9272C80.9272 349.731 89.0658 373.029 105.343 391.381C121.78 409.733 141.887 418.909 165.664 418.909C188.325 418.909 211.703 414.839 235.8 406.701L242.263 436.622C220.241 446.516 194.548 451.463 165.186 451.463C128.163 451.463 98.3215 439.574 75.6611 415.797C53.0007 392.019 41.6705 359.944 41.6705 319.57C41.6705 279.994 51.8038 248.477 72.0705 225.019C92.4968 201.401 118.828 189.592 151.063 189.592C179.787 189.592 203.804 200.523 223.113 222.386C242.422 244.248 252.077 273.372 252.077 309.756V321.485ZM211.384 291.085C211.384 271.616 205.32 255.259 193.192 242.014C181.064 228.609 167.499 221.907 152.499 221.907C133.19 221.907 117.152 228.29 104.386 241.057C91.7787 253.823 84.7571 270.499 83.3209 291.085H211.384ZM467.099 445H275.363V424.893L417.549 228.37H278.714V195.576H467.099V214.008L324.913 412.206H467.099V445ZM640.23 259.727C662.731 264.994 680.365 275.207 693.131 290.367C705.897 305.527 712.281 323.559 712.281 344.464C712.281 375.104 701.11 399.52 678.769 417.712C656.587 435.904 629.858 445 598.58 445H502.592V107.249H596.186C628.74 107.249 654.194 114.43 672.545 128.792C690.897 142.994 700.073 163.102 700.073 189.113C700.073 205.071 694.727 219.274 684.035 231.721C673.503 244.168 658.901 253.185 640.23 258.77V259.727ZM541.849 241.535H587.808C635.842 241.535 659.859 224.38 659.859 190.071C659.859 174.432 653.954 162.463 642.145 154.165C630.336 145.707 613.022 141.478 590.202 141.478H541.849V241.535ZM541.849 410.77H586.372C612.383 410.77 632.969 404.866 648.129 393.057C663.449 381.248 671.109 365.05 671.109 344.464C671.109 322.602 663.609 305.686 648.608 293.718C633.608 281.749 611.905 275.765 583.499 275.765H541.849V410.77ZM844.94 189.592C879.249 189.592 906.538 201.56 926.804 225.497C947.071 249.434 957.204 280.952 957.204 320.049C957.204 359.465 947.071 391.221 926.804 415.318C906.538 439.415 879.249 451.463 844.94 451.463C810.47 451.463 783.102 439.494 762.836 415.557C742.729 391.461 732.675 359.625 732.675 320.049C732.675 280.792 742.808 249.275 763.075 225.497C783.342 201.56 810.63 189.592 844.94 189.592ZM844.94 418.909C867.6 418.909 885.473 409.334 898.559 390.184C911.644 371.035 918.187 347.816 918.187 320.527C918.187 291.803 911.724 268.185 898.798 249.674C885.872 231.163 867.919 221.907 844.94 221.907C821.801 221.907 803.848 231.083 791.081 249.434C778.315 267.627 771.932 291.324 771.932 320.527C771.932 348.294 778.395 371.673 791.321 390.663C804.247 409.493 822.12 418.909 844.94 418.909ZM1171.39 445H1129.26L1062.48 347.337L993.301 445H953.566L1042.37 320.049L953.566 195.576H996.413L1063.44 292.521L1131.66 195.576H1171.39L1083.07 318.612L1171.39 445Z" fill="black"/></mask><g mask="url(#mask0_944_217)"><path d="M553.688 264.345C226.868 264.345 -24.6553 338.04 -109.564 374.888V57.6797H1207.33V331.632C1125.62 309.203 880.509 264.345 553.688 264.345Z" fill="white" fill-opacity="0.4"/></g><defs><filter id="filter0_d_944_217" x="9.83333" y="75.4129" width="1196.24" height="407.885" filterUnits="userSpaceOnUse" color-interpolation-filters="sRGB"><feFlood flood-opacity="0" result="BackgroundImageFix"/><feColorMatrix in="SourceAlpha" type="matrix" values="0 0 0 0 0 0 0 0 0 0 0 0 0 0 0 0 0 0 127 0" result="hardAlpha"/><feOffset/><feGaussianBlur stdDeviation="14.4185"/><feComposite in2="hardAlpha" operator="out"/><feColorMatrix type="matrix" values="0 0 0 0 1 0 0 0 0 1 0 0 0 0 1 0 0 0 1 0"/><feBlend mode="normal" in2="BackgroundImageFix" result="effect1_dropShadow_944_217"/><feBlend mode="normal" in="SourceGraphic" in2="effect1_dropShadow_944_217" result="shape"/></filter></defs></svg>