<svg width="3018" height="1101" viewBox="0 0 3018 1101" fill="none" xmlns="http://www.w3.org/2000/svg"><path d="M2992.26 191.105V455.759H2923.46V191.105H2992.26Z" fill="#7D9BCB"/><path d="M2706.99 293.246H2806.32V191.105H2875.12V455.759H2806.32V347.3H2706.99V455.759H2638.19V191.105H2706.99V293.246Z" fill="#7D9BCB"/><path d="M2587.58 205.845L2560.2 259.197C2553.88 254.049 2546.74 249.954 2538.79 246.912C2531.07 243.636 2522.99 241.998 2514.57 241.998C2513.4 241.998 2512.11 242.115 2510.71 242.349C2509.3 242.349 2507.9 242.583 2506.5 243.051C2501.11 244.221 2496.2 246.561 2491.75 250.071C2487.31 253.581 2485.08 258.261 2485.08 264.111C2485.08 269.727 2487.19 274.29 2491.4 277.8C2495.61 281.076 2500.18 283.767 2505.09 285.873C2506.96 286.575 2508.72 287.277 2510.36 287.979C2512.23 288.447 2513.98 288.915 2515.62 289.383L2533.17 294.297C2551.66 299.913 2567.1 308.103 2579.5 318.867C2592.14 329.397 2598.46 345.426 2598.46 366.954C2598.46 367.89 2598.46 368.826 2598.46 369.762C2598.46 370.698 2598.46 371.634 2598.46 372.57C2597.99 384.738 2595.77 396.672 2591.79 408.372C2587.81 419.838 2580.91 429.783 2571.08 438.207C2562.19 445.929 2552.13 451.662 2540.89 455.406C2529.66 459.15 2518.2 461.49 2506.5 462.426C2504.62 462.426 2502.75 462.426 2500.88 462.426C2499.24 462.66 2497.6 462.777 2495.97 462.777C2479.35 462.777 2463.09 460.203 2447.18 455.055C2431.26 449.673 2416.52 442.302 2402.95 432.942L2432.43 377.133C2441.09 384.855 2450.45 391.407 2460.51 396.789C2470.81 402.171 2481.81 404.862 2493.51 404.862C2493.98 404.862 2494.44 404.862 2494.91 404.862C2495.38 404.862 2495.85 404.862 2496.32 404.862C2504.04 404.394 2511.06 402.054 2517.38 397.842C2523.69 393.396 2526.85 386.844 2526.85 378.186C2526.85 371.634 2524.16 366.369 2518.78 362.391C2513.63 358.413 2507.78 355.254 2501.23 352.914C2498.42 351.978 2495.61 351.159 2492.81 350.457C2490 349.521 2487.42 348.702 2485.08 348C2484.62 347.766 2484.03 347.649 2483.33 347.649C2482.86 347.415 2482.39 347.181 2481.93 346.947C2461.1 341.097 2444.49 333.609 2432.08 324.483C2419.68 315.357 2413.48 298.275 2413.48 273.237C2413.48 246.327 2422.02 224.799 2439.1 208.653C2456.42 192.507 2478.3 184.434 2504.74 184.434C2510.12 184.434 2515.62 184.785 2521.24 185.487C2526.85 185.955 2532.47 186.891 2538.09 188.295C2546.98 190.167 2555.64 192.624 2564.06 195.666C2572.72 198.708 2580.56 202.218 2587.58 206.196V205.845Z" fill="#7D9BCB"/><path d="M2302.45 191.105H2371.25V339.929C2371.25 357.245 2369.84 373.976 2367.04 390.122C2364.46 406.268 2356.62 420.776 2343.52 433.646C2335.09 442.07 2325.03 448.505 2313.33 452.951C2301.87 457.163 2290.05 459.971 2277.88 461.375C2274.14 461.843 2270.39 462.194 2266.65 462.428C2262.91 462.662 2259.28 462.779 2255.77 462.779C2252.26 462.779 2248.63 462.662 2244.89 462.428C2241.14 462.194 2237.4 461.843 2233.66 461.375C2221.49 459.971 2209.55 457.163 2197.85 452.951C2186.39 448.505 2176.44 442.07 2168.02 433.646C2154.91 420.776 2146.96 406.268 2144.15 390.122C2141.58 373.976 2140.29 357.362 2140.29 340.28V191.105H2209.09V330.452C2209.09 332.09 2209.09 333.611 2209.09 335.015C2209.09 336.185 2209.09 337.472 2209.09 338.876C2209.32 354.788 2212.01 369.413 2217.16 382.751C2222.54 396.089 2235.41 402.758 2255.77 402.758C2276.13 402.758 2288.88 396.089 2294.03 382.751C2299.41 369.413 2302.22 354.788 2302.45 338.876C2302.45 337.472 2302.45 336.185 2302.45 335.015C2302.45 333.611 2302.45 332.207 2302.45 330.803V191.105Z" fill="#7D9BCB"/><path d="M1941.69 300.266L2024.88 191.105H2110.17L2004.87 316.412L2119.65 455.759H2030.49L1941.69 340.982H1940.99V455.759H1872.19V191.105H1940.99V300.266H1941.69Z" fill="#7D9BCB"/><path d="M1759.76 191.105H1828.55V339.929C1828.55 357.245 1827.15 373.976 1824.34 390.122C1821.77 406.268 1813.93 420.776 1800.83 433.646C1792.4 442.07 1782.34 448.505 1770.64 452.951C1759.17 457.163 1747.36 459.971 1735.19 461.375C1731.44 461.843 1727.7 462.194 1723.96 462.428C1720.21 462.662 1716.59 462.779 1713.08 462.779C1709.57 462.779 1705.94 462.662 1702.19 462.428C1698.45 462.194 1694.71 461.843 1690.96 461.375C1678.79 459.971 1666.86 457.163 1655.16 452.951C1643.69 448.505 1633.75 442.07 1625.33 433.646C1612.22 420.776 1604.27 406.268 1601.46 390.122C1598.88 373.976 1597.6 357.362 1597.6 340.28V191.105H1666.39V330.452C1666.39 332.09 1666.39 333.611 1666.39 335.015C1666.39 336.185 1666.39 337.472 1666.39 338.876C1666.63 354.788 1669.32 369.413 1674.47 382.751C1679.85 396.089 1692.72 402.758 1713.08 402.758C1733.43 402.758 1746.19 396.089 1751.33 382.751C1756.72 369.413 1759.52 354.788 1759.76 338.876C1759.76 337.472 1759.76 336.185 1759.76 335.015C1759.76 333.611 1759.76 332.207 1759.76 330.803V191.105Z" fill="#7D9BCB"/><path d="M1551.89 205.845L1524.51 259.197C1518.2 254.049 1511.06 249.954 1503.1 246.912C1495.38 243.636 1487.31 241.998 1478.88 241.998C1477.71 241.998 1476.43 242.115 1475.02 242.349C1473.62 242.349 1472.22 242.583 1470.81 243.051C1465.43 244.221 1460.52 246.561 1456.07 250.071C1451.62 253.581 1449.4 258.261 1449.4 264.111C1449.4 269.727 1451.51 274.29 1455.72 277.8C1459.93 281.076 1464.49 283.767 1469.41 285.873C1471.28 286.575 1473.03 287.277 1474.67 287.979C1476.54 288.447 1478.3 288.915 1479.94 289.383L1497.49 294.297C1515.97 299.913 1531.42 308.103 1543.82 318.867C1556.46 329.397 1562.77 345.426 1562.77 366.954C1562.77 367.89 1562.77 368.826 1562.77 369.762C1562.77 370.698 1562.77 371.634 1562.77 372.57C1562.31 384.738 1560.08 396.672 1556.1 408.372C1552.13 419.838 1545.22 429.783 1535.4 438.207C1526.5 445.929 1516.44 451.662 1505.21 455.406C1493.98 459.15 1482.51 461.49 1470.81 462.426C1468.94 462.426 1467.07 462.426 1465.2 462.426C1463.56 462.66 1461.92 462.777 1460.28 462.777C1443.67 462.777 1427.4 460.203 1411.49 455.055C1395.58 449.673 1380.84 442.302 1367.27 432.942L1396.75 377.133C1405.41 384.855 1414.77 391.407 1424.83 396.789C1435.13 402.171 1446.12 404.862 1457.82 404.862C1458.29 404.862 1458.76 404.862 1459.23 404.862C1459.7 404.862 1460.16 404.862 1460.63 404.862C1468.35 404.394 1475.37 402.054 1481.69 397.842C1488.01 393.396 1491.17 386.844 1491.17 378.186C1491.17 371.634 1488.48 366.369 1483.1 362.391C1477.95 358.413 1472.1 355.254 1465.55 352.914C1462.74 351.978 1459.93 351.159 1457.12 350.457C1454.31 349.521 1451.74 348.702 1449.4 348C1448.93 347.766 1448.35 347.649 1447.65 347.649C1447.18 347.415 1446.71 347.181 1446.24 346.947C1425.42 341.097 1408.8 333.609 1396.4 324.483C1384 315.357 1377.8 298.275 1377.8 273.237C1377.8 246.327 1386.34 224.799 1403.42 208.653C1420.74 192.507 1442.61 184.434 1469.06 184.434C1474.44 184.434 1479.94 184.785 1485.55 185.487C1491.17 185.955 1496.79 186.891 1502.4 188.295C1511.29 190.167 1519.95 192.624 1528.38 195.666C1537.03 198.708 1544.87 202.218 1551.89 206.196V205.845Z" fill="#7D9BCB"/><path d="M1290.33 249.371V455.759H1221.53V249.371H1164.67V191.105H1347.19V249.371H1290.33Z" fill="#7D9BCB"/><path d="M2996.65 729.866V892.379C2996.65 930.755 2987.52 958.25 2969.27 974.864C2951.25 991.478 2925.63 999.785 2892.4 999.785C2887.96 999.785 2883.28 999.551 2878.36 999.083C2873.45 998.615 2868.53 997.796 2863.62 996.626C2846.3 992.882 2830.16 985.628 2815.18 974.864C2800.44 964.1 2792.02 949.475 2789.91 930.989H2861.51C2862.45 934.265 2863.97 936.956 2866.08 939.062C2868.18 941.402 2870.64 943.274 2873.45 944.678C2875.09 945.614 2876.84 946.316 2878.71 946.784C2880.59 947.486 2882.46 947.954 2884.33 948.188C2885.5 948.422 2886.67 948.539 2887.84 948.539C2889.24 948.773 2890.53 948.89 2891.7 948.89C2909.02 948.89 2920.13 943.859 2925.05 933.797C2930.19 923.969 2932.77 911.918 2932.77 897.644V888.869C2924.58 897.293 2915.92 903.494 2906.79 907.472C2897.9 911.45 2887.49 913.439 2875.55 913.439C2849.35 913.439 2827.94 904.664 2811.32 887.114C2794.94 869.564 2786.75 847.802 2786.75 821.828C2786.75 795.386 2795.18 772.571 2812.02 753.383C2829.11 733.961 2851.45 724.25 2879.06 724.25C2889.59 724.25 2899.42 726.239 2908.55 730.217C2917.91 733.961 2925.75 740.279 2932.07 749.171L2932.77 748.82V729.866H2996.65ZM2893.81 777.953C2880.94 778.187 2870.87 782.399 2863.62 790.589C2856.37 798.545 2852.74 808.022 2852.74 819.02C2852.74 830.486 2856.37 840.08 2863.62 847.802C2870.87 855.524 2880.94 859.385 2893.81 859.385C2906.91 859.385 2916.97 855.524 2923.99 847.802C2931.25 840.08 2934.87 830.486 2934.87 819.02C2934.87 808.022 2931.25 798.545 2923.99 790.589C2916.97 782.399 2906.91 778.304 2893.81 778.304V777.953Z" fill="#7D9BCB"/><path d="M2637.88 729.866V753.032H2638.58C2646.07 742.268 2654.38 734.78 2663.5 730.568C2672.86 726.356 2683.74 724.25 2696.15 724.25C2720.48 724.25 2737.8 731.153 2748.09 744.959C2758.62 758.765 2763.89 776.783 2763.89 799.013V909.929H2700.01V822.179C2700.01 821.711 2700.01 821.126 2700.01 820.424C2700.01 819.722 2700.01 819.02 2700.01 818.318C2700.01 816.212 2700.01 813.989 2700.01 811.649C2700.01 809.309 2699.89 806.969 2699.66 804.629C2699.19 797.375 2697.08 790.706 2693.34 784.622C2689.59 778.304 2682.22 775.145 2671.23 775.145C2658.36 775.145 2649.58 779.357 2644.9 787.781C2640.22 795.971 2637.88 805.682 2637.88 816.914V909.929H2574V729.866H2637.88Z" fill="#7D9BCB"/><path d="M2542.49 729.863V909.926H2478.61V729.863H2542.49ZM2510.55 624.914C2520.38 625.148 2528.8 628.775 2535.82 635.795C2542.84 642.815 2546.35 651.239 2546.35 661.067C2546.35 670.895 2542.84 679.319 2535.82 686.339C2528.8 693.359 2520.38 696.869 2510.55 696.869C2500.72 696.869 2492.3 693.359 2485.28 686.339C2478.26 679.319 2474.75 670.895 2474.75 661.067C2474.75 651.239 2478.26 642.815 2485.28 635.795C2492.3 628.775 2500.72 625.265 2510.55 625.265V624.914Z" fill="#7D9BCB"/><path d="M2320.97 729.866V753.032H2321.67C2329.16 742.268 2337.46 734.78 2346.59 730.568C2355.95 726.356 2366.83 724.25 2379.23 724.25C2403.57 724.25 2420.88 731.153 2431.18 744.959C2441.71 758.765 2446.98 776.783 2446.98 799.013V909.929H2383.09V822.179C2383.09 821.711 2383.09 821.126 2383.09 820.424C2383.09 819.722 2383.09 819.02 2383.09 818.318C2383.09 816.212 2383.09 813.989 2383.09 811.649C2383.09 809.309 2382.98 806.969 2382.74 804.629C2382.27 797.375 2380.17 790.706 2376.42 784.622C2372.68 778.304 2365.31 775.145 2354.31 775.145C2341.44 775.145 2332.67 779.357 2327.99 787.781C2323.31 795.971 2320.97 805.682 2320.97 816.914V909.929H2257.08V729.866H2320.97Z" fill="#7D9BCB"/><path d="M2165.43 729.863V759.347H2166.13C2172.22 748.583 2180.29 740.627 2190.35 735.479C2200.65 730.331 2212 727.757 2224.4 727.757L2236.68 727.406V788.831C2235.75 788.597 2234.81 788.246 2233.87 787.778C2233.17 787.31 2232.35 786.959 2231.42 786.725C2227.91 785.321 2224.4 784.385 2220.89 783.917C2217.38 783.449 2213.63 783.215 2209.66 783.215C2191.87 783.215 2180.05 788.48 2174.2 799.01C2168.35 809.306 2165.43 822.176 2165.43 837.62V909.926H2101.55V729.863H2165.43Z" fill="#7D9BCB"/><path d="M2076.75 729.866V909.929H2012.87V889.922H2012.17C2007.02 898.346 2000 904.664 1991.11 908.876C1982.22 912.854 1972.97 915.077 1963.38 915.545C1962.44 915.779 1961.51 915.896 1960.57 915.896C1959.64 915.896 1958.7 915.896 1957.76 915.896C1931.09 915.896 1909.21 906.419 1892.13 887.465C1875.28 868.277 1866.86 845.813 1866.86 820.073C1866.86 794.333 1875.16 771.986 1891.78 753.032C1908.62 733.844 1930.39 724.25 1957.06 724.25C1958.23 724.25 1959.4 724.25 1960.57 724.25C1961.74 724.25 1962.91 724.367 1964.08 724.601C1973.21 725.303 1982.1 727.643 1990.76 731.621C1999.65 735.365 2007.02 740.747 2012.87 747.767V729.866H2076.75ZM1973.91 779.357C1961.04 779.591 1950.98 783.803 1943.72 791.993C1936.47 799.949 1932.84 809.426 1932.84 820.424C1932.84 831.89 1936.47 841.484 1943.72 849.206C1950.98 856.928 1961.04 860.789 1973.91 860.789C1987.01 860.789 1997.08 856.928 2004.1 849.206C2011.35 841.484 2014.98 831.89 2014.98 820.424C2014.98 809.426 2011.35 799.949 2004.1 791.993C1997.08 783.803 1987.01 779.708 1973.91 779.708V779.357Z" fill="#7D9BCB"/><path d="M1850.59 823.934V830.603H1716.15C1716.15 843.707 1719.55 853.769 1726.33 860.789C1733.12 867.575 1743.06 870.968 1756.17 870.968C1762.95 870.968 1768.8 869.681 1773.72 867.107C1778.86 864.533 1783.19 860.321 1786.7 854.471L1848.13 854.12C1842.98 875.648 1831.51 891.326 1813.73 901.154C1796.18 910.982 1777.11 915.896 1756.52 915.896C1726.8 915.896 1702 907.823 1682.11 891.677C1662.22 875.297 1652.27 851.546 1652.27 820.424C1652.27 790.472 1661.51 766.955 1680 749.873C1698.72 732.791 1722.7 724.25 1751.95 724.25C1783.31 724.25 1807.53 733.259 1824.61 751.277C1841.93 769.295 1850.59 793.631 1850.59 824.285V823.934ZM1717.21 793.748H1791.27C1789.63 785.324 1785.3 778.538 1778.28 773.39C1771.49 768.242 1763.77 765.668 1755.11 765.668C1745.75 765.668 1737.56 768.125 1730.54 773.039C1723.52 777.719 1719.08 784.739 1717.21 794.099V793.748Z" fill="#7D9BCB"/><path d="M1558.51 645.273V851.661H1641V909.927H1489.72V645.273H1558.51Z" fill="#7D9BCB"/><path d="M1358.93 770.93H1459.32V823.58H1358.93V770.93Z" fill="#7D9BCB"/><path d="M1330.92 703.539H1249.14V747.765H1326.71V806.031H1249.14V851.661H1330.92V909.927H1180.34V645.273H1330.92V703.539Z" fill="#7D9BCB"/><path d="M1153 546H3018V556H1153V546Z" fill="#7D9BCB"/><mask id="mask0_934_9399" style="mask-type:alpha" maskUnits="userSpaceOnUse" x="0" y="0" width="961" height="1101"><path d="M480.224 0L960.447 275.25V825.75L480.224 1101L0 825.75V275.25L480.224 0Z" fill="#263280"/></mask><g mask="url(#mask0_934_9399)"><path d="M480.223 275.25L720.335 412.875V688.125L480.223 825.75L240.111 688.125V412.875L480.223 275.25Z" fill="#263280"/><path d="M240.112 -137.625L480.224 0V275.25L240.112 412.875L0 275.25V0L240.112 -137.625Z" fill="#007DC0"/><path d="M240.112 688.125L480.224 825.75V1101L240.112 1238.62L0 1101V825.75L240.112 688.125Z" fill="#007DC0"/><path d="M960.449 275.25L1200.56 412.875V688.125L960.449 825.75L720.337 688.125V412.875L960.449 275.25Z" fill="#007DC0"/><path d="M0.00050354 275.25L240.112 412.875V688.125L0.00050354 825.75L-240.111 688.125V412.875L0.00050354 275.25Z" fill="#244CA8"/><path d="M720.335 -137.625L960.447 0V275.25L720.335 412.875L480.224 275.25V0L720.335 -137.625Z" fill="#244CA8"/><path d="M720.335 688.125L960.447 825.75V1101L720.335 1238.62L480.224 1101V825.75L720.335 688.125Z" fill="#244CA8"/><path d="M480.223 825.75L240.111 688.125V412.875L480.223 550.5V825.75Z" fill="#1F2967" fill-opacity="0.8"/><path d="M240.112 412.875L0 275.25V0L240.112 137.625V412.875Z" fill="#1F2967" fill-opacity="0.8"/><path d="M240.112 1238.62L0 1101V825.75L240.112 963.375V1238.62Z" fill="#1F2967" fill-opacity="0.8"/><path d="M960.449 825.75L720.337 688.125V412.875L960.449 550.5V825.75Z" fill="#1F2967" fill-opacity="0.8"/><path d="M0.00050354 825.75L-240.111 688.125V412.875L0.00050354 550.5V825.75Z" fill="#1F2967" fill-opacity="0.8"/><path d="M720.335 412.875L480.224 275.25V0L720.335 137.625V412.875Z" fill="#1F2967" fill-opacity="0.8"/><path d="M720.335 1238.62L480.224 1101V825.75L720.335 963.375V1238.62Z" fill="#1F2967" fill-opacity="0.8"/></g></svg>