<?xml version="1.0" encoding="UTF-8"?>
<svg
  id="Layer_1"
  xmlns="http://www.w3.org/2000/svg"
  version="1.1"
  viewBox="0 0 1958.4 1494.3"
>
  <!-- Generator: Adobe Illustrator 29.0.0, SVG Export Plug-In . SVG Version: 2.1.0 Build 186)  -->
  <defs>
    <style>
      .st0 {
        fill: #ea580c;
      }

      .st1 {
        fill: #9a3412;
      }
    </style>
  </defs>
  <polygon
    class="st0"
    points="257.9 1494.3 601.6 1127.9 719.1 1064.5 797.5 1045.7 909.1 1005.8 949.8 1006.9 1058.4 993.2 1096.5 1033.5 1130.4 1066 1188.1 1045.7 1281.6 1112.5 1361.5 1189.1 1520.7 1494.3 1311 1494.3 598.1 1494.3 257.9 1494.3"
  />
  <path
    class="st1"
    d="M942,1006.5c-4,0-7.5.4-8.9-.4l-24.1-.6-111.6,39.8-78.4,18.8-117.5,63.3-343.5,366.8h232.3l211.8-294.1v.4l66.5-65.2,55.3-19.1,84.4-86.5,33.6-15c2.8-.4,4.8-2.8,5.4-5.5.3-1.4,1.3-1.3,1-2.5-1.4-.8-4.1-.4-6-.4h-.1Z"
  />
</svg>
