<?xml version="1.0" encoding="UTF-8"?><svg
  id="Layer_1"
  xmlns="http://www.w3.org/2000/svg"
  viewBox="0 0 1958.4 1494.28"
>
  <defs>
    <style>
      .cls-1 {
        fill: #02020a;
      }
    </style>
  </defs>
  <path
    class="cls-1"
    d="M418.76,495.07c-1.83,2.08-3.7,3.52-5.6,4.7.12-1.49-.09-2.9-.69-3.59h0c-.11-.1-.2-.26-.34-.34-.94-.43-1.85-1.09-2.76-1.86-.18-.16-.37-.33-.55-.5-.86-.8-1.72-1.69-2.56-2.73-1.15-1.42-2.28-3.06-3.38-4.88,0,0-.01-.02-.02-.03-2.17-3.6-4.24-7.91-6.2-12.61-.04-.09-.08-.18-.12-.28-.93-2.25-1.84-4.59-2.71-6.98-.1-.28-.21-.57-.31-.85-.85-2.35-1.69-4.74-2.49-7.16-.03-.09-.06-.18-.09-.27-.73-2.21-1.43-4.42-2.11-6.63-.19-.62-.39-1.24-.58-1.86-.62-2.04-1.23-4.07-1.81-6.06-.24-.81-.46-1.6-.69-2.4-.56-1.96-1.13-3.92-1.65-5.77-2.19-7.72-4.15-15.6-5.96-23.65,5.4,7.58,11.51,12.23,17.25,18.77.69.81,1.54-2.05.96-3.21-6.36-12.39-14.74-17.61-20.73-31.12-.26-.61-.54-1.13-.8-1.74-.17-.47-.34-.95-.52-1.39-.65-3.46-1.3-6.93-1.9-10.48,12.74,9.63,27.27,10.93,41.42,4.48,1.89-.85,2.38-7.78.56-8.12-1.09-.19-2.19-.41-3.28-.63.36-.11.71-.21,1.07-.36.29-.12.37-1.22.08-1.28-.71-.18-1.39-.46-2.09-.69-.12-.19-.19-.46-.36-.54-12.51-6.03-22.81-21.32-31.4-41.78-.93-2.17-1.83-4.53-2.71-6.91,5.39,2.86,11,3.95,16.75,2.95,5.69.05,11.53-2.47,16.9-7.76,3.45-1.06,6.93-3.13,10.44-6.98.27-.31.29-1.23.03-1.28-2.84-.68-5.69-1.11-8.53-1.52.19-1.68-.02-3.5-.8-3.58-8.1-.67-14.93-5.55-20.74-13.49-1.26-1.73-2.47-3.59-3.63-5.58-.03-.04-.05-.09-.07-.13-1.18-2.02-2.31-4.17-3.4-6.46-1.12-2.34-2.19-4.81-3.22-7.4-.01-.03-.03-.06-.04-.1-1.98-5-3.8-10.44-5.48-16.22-.14-.5-.29-1-.43-1.5-.79-2.76-1.55-5.57-2.27-8.47,8.23,14.6,16.97,22.55,28.91,15.63.97-.58,1.02-3.91.05-3.61-7.69,2.41-14.86-7.34-20.44-19.74,3.7,2.27,7.7,3.25,11.94,2.72,1.27-.15,1.86-4.49.61-4.99-1.28-.51-2.51-1.2-3.73-1.99-.57-.38-1.12-.83-1.68-1.27-.58-.45-1.16-.91-1.72-1.43-.73-.68-1.45-1.41-2.15-2.19-.31-.34-.61-.69-.91-1.05-.83-.99-1.65-2.03-2.44-3.17-.07-.11-.14-.23-.22-.33-1.54-2.24-2.98-4.73-4.33-7.53,0,0-.01-.02-.02-.02-3.3-6.78-6.09-14.99-8.18-24.55-.44-2.28-.9-4.53-1.37-6.72-.47-2.68-.84-5.41-1.21-8.11,5.06,15.45,12.06,26.49,19.88,33.37,1.32,1.15,2.4-3.74,1.26-5.35-6.96-9.73-12.34-24.81-16.15-42.18,6.15,9.16,13.31,14.28,21.77,15.34.17.02.31-.1.45-.26.02-.03.04-.06.07-.09.26-.39.42-1.05.47-1.72,0-.01,0-.03,0-.04.05-.84-.08-1.65-.51-1.79-.66-.18-1.32-.47-1.96-.8-.36-.19-.71-.44-1.06-.67-.33-.22-.67-.42-1-.67-.43-.34-.86-.75-1.28-1.16-.19-.18-.38-.34-.57-.54-.47-.48-.92-1.02-1.38-1.58-.13-.16-.26-.31-.4-.48-.49-.62-.97-1.29-1.44-1.99-.08-.12-.17-.24-.25-.36-.51-.76-1-1.57-1.49-2.41-.04-.07-.08-.14-.12-.2-1.06-1.84-2.08-3.85-3.06-5.99-4.74-10.36-8.6-23.82-11.61-35.97,2.55,5.43,5.35,9.32,8.37,11.09.4.22.76-1.27.37-1.59-18.18-14.03-15.24-81.08-15.14-121.33,0-.9-.11-1.65-.29-2.29-.02-.07-.05-.11-.07-.18-.18-.56-.4-.98-.67-1.28,0,0-.01-.03-.02-.03-.03-.03-.06-.03-.09-.06-.19-.18-.38-.34-.59-.38-.25-.07-.51-.05-.77.12.13-1.89.27-3.74.36-5.63.02-.56,0-1.05-.05-1.47,0-.05-.02-.08-.03-.13-.41-2.75-2.33-2.22-3.14.91-20.22,78.01-47.14,153.87-83.83,167.62-.03-.05-.05-.1-.08-.15-.91.34-1.81.83-2.74,1.1-.49.1-.64,1.62-.4,2.29,5.66,15.75,19.21,6.79,31.23-6.92-1.88,3.12-3.8,6.2-5.83,9.06-6.84,9.6-15.45,24.02-22.93,25.75-.08,0-.16.01-.24,0-.05,0-.09.08-.15.14h-.01s0,0-.01,0c-.11.08-.22.19-.31.37-.03.06-.03.12-.05.18-.27.71-.36,1.8.03,2.21.81.88,1.7,1.7,2.65,2.47.01.01.02.02.04.03.77.63,1.59,1.21,2.44,1.75.35.22.72.4,1.08.6.59.34,1.19.68,1.81.97.41.19.84.35,1.27.52.61.25,1.22.49,1.86.69.44.14.89.26,1.34.38.65.18,1.32.33,1.99.45.45.08.89.16,1.35.22.71.09,1.43.15,2.16.19.44.02.87.05,1.3.05.81,0,1.62-.06,2.44-.14.37-.03.73-.04,1.1-.09,1.19-.16,2.39-.4,3.59-.73-4.88,12.37-10.19,23.28-17.35,32.43-2.06,2.64-4.13,5.27-6.21,7.85-.06.07-.11.14-.17.22-2.12,2.62-4.25,5.17-6.4,7.59-1.22,1.39-2.45,2.72-3.68,4.01-.16.17-.33.35-.49.52-1.06,1.1-2.13,2.14-3.2,3.14-.3.28-.59.57-.88.84-.99.9-1.98,1.73-2.98,2.53-.34.28-.68.59-1.03.85-1.31,1.01-2.62,1.93-3.94,2.74-1.79-.06-3.52-.11-5.05-.08-.62,0-.99,1.71-.63,2.72.31.86.69,1.63,1.05,2.43-.11.83-.12,1.65-.03,2.34,0,.01,0,.03,0,.04,0,0,0,.01,0,.02.05.34.14.61.24.84.03.06.04.16.08.21.15.23.34.36.58.34.34,0,.73-.11,1.09-.16.6.89,1.24,1.68,1.91,2.4.22.24.47.42.7.65.46.44.92.89,1.41,1.27.32.24.66.43.99.65.43.28.85.58,1.29.81.41.22.83.38,1.25.56.39.16.76.35,1.16.48.5.17,1.02.3,1.53.43.32.08.64.18.97.24.61.12,1.24.19,1.87.26.23.02.46.06.7.07.75.05,1.51.06,2.28.05.1,0,.2,0,.31,0,1.22-.04,2.44-.13,3.68-.32-3.38,5.17-6.9,9.87-10.42,12.7-2.96.87-6,.84-9.17-.42-.37-.13-.74,1.15-.55,1.84.07.22.17.39.23.6-.41-.13-.64,1.32-.41,1.89.93,2.36,2.04,3.84,3.25,4.73.35.65.74,1.18,1.12,1.71.02.02.03.04.05.06,1.45,2.07,3.03,3.55,4.74,4.41.01,0,.03.02.04.03.63.28,1.26.55,1.94.72-7.62,6.92-15.86,10.9-23.02,10.61-.86-.21-1.71-.54-2.57-.93-.89-.85-1.78-1.77-2.64-2.74-1.55-1.81-3.02,3.49-2.46,6.7,2.7,15.62,10.5,23.66,18.23,27.82,1.04.57,2.08,1.06,3.11,1.5-1.31,2.75-2.65,5.43-4.05,7.98-.91,1.65-1.93,3.38-3,5.13-.45.73-.93,1.48-1.4,2.22-.61.96-1.24,1.93-1.88,2.91-.68,1.02-1.38,2.04-2.09,3.06-.41.59-.84,1.18-1.26,1.77-5.52,7.67-11.85,15.13-17.94,20.47,0,0-.02.01-.03.02-1.14.99-2.27,1.93-3.39,2.79-1.28.95-2.55,1.87-3.77,2.57-4.75-.32-9.28-1.7-13.39-4.53-.35-.22-.97.73-.79,1.79.49,2.9,1.13,5.42,1.87,7.69.07.21.12.45.19.66,0,0,0,.02.01.03.6,1.74,1.28,3.26,2.01,4.65.15.28.3.55.45.81.73,1.28,1.49,2.45,2.33,3.42.02.02.03.05.05.07.85.99,1.76,1.8,2.7,2.51.22.16.44.32.66.47.95.64,1.92,1.21,2.93,1.61-4.04,1.52-8.08,2.8-12.12,4.02-.67.21-.69,2.35-.19,2.64,6.28,3.63,14.63,4.58,23.13,1.52-2.66,3.56-5.23,6.77-7.52,9.6-1.24,1.52-2.49,2.88-3.74,4.13-.11.11-.21.19-.32.3-1.16,1.14-2.33,2.19-3.5,3.12-.07.06-.14.1-.21.16-1.5,1.18-3.01,2.19-4.52,3.05-.11.06-.23.14-.34.2-1.57.87-3.14,1.57-4.7,2.11-.06.02-.11.03-.16.05-1.4.47-2.8.78-4.2,1-.34.05-.67.11-1,.15-1.45.17-2.89.26-4.33.18-1.77-1.16-3.54-2.25-5.34-3.26-.42-.22-.76,1.27-.59,2.03.04.19.1.32.15.51-.38.24-.59,1.44-.33,2.02.68,1.63,1.4,3.05,2.16,4.35.43,1.3.91,2.39,1.37,3.57,0,.01.01.03.02.04,3.28,8.42,7.48,14.11,12.27,17.62.04.03.09.06.13.09,1.15.83,2.33,1.58,3.54,2.18.15.07.3.12.45.19,1.12.53,2.25,1.01,3.42,1.36.36.11.74.16,1.1.26.98.25,1.95.51,2.95.64,1.39.2,2.8.29,4.22.29-1.17.79-2.33,1.46-3.5,2.05-1.06.53-2.13.96-3.2,1.33-.09.03-.18.08-.28.11-2.58-.26-5.16-.33-7.78-.14-.39.02-.75.41-1.05.99-1.8-.68-3.55-1.43-5.18-2.26-1.25-.65-1.96,3.81-1.29,5.53,13.71,35.88,43.15,23.18,65.97,7.86-1.1,4.41-2.32,8.74-3.5,13.09-1.09,4.06-2.15,8.13-3.3,12.16-2.12,7.37-4.33,14.7-6.68,22.04-.1.31-.12.62-.11.9,0,.03,0,.05,0,.08.03.45.16.76.35.74.08.01.18-.04.28-.23.97-1.71,1.93-3.36,2.9-5.03.75-1.19,1.49-2.48,2.25-3.76-.82,1.81-1.62,3.66-2.47,5.39-.39.79-.09,2.04.34,1.35,11.51-19.05,22.44-35.54,32.2-59.75-.22,13.97.39,26.15,2.32,38.87.13.99.82.27.71-.76-.91-7.22-1.21-15.46-1.16-24.08.51,3.45,1.07,6.72,1.65,9.75,1.05,5.54,2.34,10.61,3.7,15.54-6.32,50.54-14.17,103.41-14.17,103.41,15.68,20.76,25.77-1.95,25.77-1.95,1.61-24.23,6.47-73.53,10.41-111.9,2,8.88,4.29,17.29,6.39,25.45.2.76.74-.23.56-1.01-2.09-9.42-3.86-19.77-5.27-30.41,3,9.36,6.42,17.78,10.29,24.72,1,1.82,2.06,3.41,3.13,4.95.52.76,1.04,1.5,1.57,2.2.01.02.03.04.04.06.07.09.14.16.2.24,3.26,4.25,6.75,7.56,10.37,10.27.24.18.48.38.72.56,1.01.73,2.03,1.42,3.06,2.07.42.27.85.55,1.28.81.95.58,1.9,1.14,2.86,1.67.56.31,1.12.61,1.68.91.87.46,1.74.93,2.61,1.37.83.42,1.66.83,2.49,1.23,1.99.97,3.99,1.94,5.97,2.92.19.09.37.07.54-.01.06-.03.12-.08.17-.12.11-.09.21-.2.31-.34.05-.08.11-.15.15-.24.11-.21.21-.46.3-.73.02-.06.04-.09.06-.15.1-.34.18-.72.25-1.11.02-.12.03-.24.05-.36.04-.3.07-.59.09-.89,0-.13.02-.26.02-.39.01-.34,0-.67-.02-.99,0-.08,0-.16,0-.23,0,0,0,0,0-.01,0-.11-.04-.19-.05-.29-.09-.7-.26-1.31-.55-1.67-1.3-1.55-2.61-2.97-3.92-4.34-.8-.85-1.6-1.68-2.4-2.48-1.16-1.73-2.29-3.59-3.37-5.57-.05-.38-.13-.71-.31-.89-.24-.24-.43-.62-.66-.89-1.98-3.9-3.77-8.3-5.28-13.51-.14-.45-.27-.96-.4-1.47,11.07,23.16,26.31,36.56,42.12,35.02.03,0,.06,0,.09,0,1.36-.14,2.72-.4,4.09-.76.12-.03.24-.06.37-.1,1.31-.37,2.61-.84,3.92-1.42.18-.08.36-.16.54-.24,1.27-.59,2.53-1.28,3.8-2.07.22-.14.43-.28.65-.42,1.24-.81,2.47-1.71,3.7-2.73.24-.2.48-.42.72-.62,1.21-1.04,2.42-2.15,3.62-3.4.06-.06.12-.11.19-.18,1.12-1.21,2.23-2.35,3.33-3.71.9-1.1.86-4.6-.16-4-.95.58-1.89.92-2.85,1.37-.1-.13-.21-.3-.35-.34-1.01-.5-2.03-1.06-3.04-1.68,0,0-.01,0-.02,0-8.94-5.33-17.14-15.21-23.53-29.82,1.86,2.15,3.74,4.2,5.62,6.32.91,1.04,1.71-2.67.9-3.86-4.4-6.38-9.19-12.98-12.77-22.1,5.66,5.74,11.63,9.55,16.36,11.13,9.27,3.13,25.92,7.52,34.53-14.12.85-2.12.06-5.11-.98-3.92Z"
  />
  <path
    class="cls-1"
    d="M408.46,1001.11c-2.57,2.92-5.2,4.94-7.87,6.6.17-2.1-.12-4.07-.97-5.04h0c-.16-.14-.28-.37-.48-.48-1.32-.61-2.6-1.53-3.87-2.62-.26-.22-.52-.47-.77-.7-1.21-1.12-2.42-2.37-3.6-3.83-1.62-1.99-3.2-4.3-4.74-6.85,0-.01-.02-.03-.02-.04-3.05-5.06-5.96-11.11-8.7-17.7-.05-.13-.11-.26-.16-.39-1.31-3.16-2.58-6.45-3.81-9.8-.15-.4-.29-.8-.43-1.2-1.2-3.3-2.37-6.66-3.49-10.05-.04-.13-.08-.26-.12-.38-1.02-3.1-2-6.21-2.96-9.31-.27-.87-.54-1.75-.81-2.62-.87-2.87-1.72-5.72-2.54-8.51-.33-1.13-.65-2.25-.97-3.36-.79-2.75-1.58-5.5-2.31-8.1-3.07-10.84-5.83-21.9-8.36-33.2,7.58,10.64,16.16,17.17,24.22,26.36.97,1.13,2.16-2.88,1.35-4.51-8.93-17.4-20.69-24.72-29.1-43.7-.37-.85-.76-1.58-1.13-2.44-.24-.67-.48-1.34-.73-1.96-.91-4.86-1.82-9.73-2.67-14.71,17.88,13.53,38.29,15.35,58.16,6.29,2.66-1.19,3.35-10.93.79-11.4-1.53-.27-3.07-.57-4.61-.88.5-.16,1-.3,1.5-.51.41-.17.52-1.71.12-1.79-.99-.25-1.95-.64-2.93-.96-.16-.26-.26-.64-.5-.75-17.57-8.46-32.03-29.94-44.09-58.65-1.3-3.05-2.57-6.36-3.81-9.71,7.57,4.01,15.45,5.55,23.51,4.14,7.99.07,16.18-3.46,23.73-10.89,4.84-1.49,9.72-4.4,14.65-9.8.38-.44.41-1.72.04-1.8-3.99-.95-7.99-1.56-11.98-2.13.26-2.36-.03-4.92-1.12-5.03-11.38-.94-20.96-7.8-29.12-18.94-1.77-2.43-3.47-5.04-5.1-7.84-.04-.06-.07-.12-.1-.18-1.65-2.84-3.24-5.86-4.77-9.07-1.57-3.29-3.07-6.76-4.51-10.39-.02-.04-.04-.09-.05-.14-2.79-7.02-5.34-14.66-7.7-22.77-.2-.7-.4-1.4-.6-2.1-1.1-3.87-2.17-7.82-3.19-11.89,11.56,20.49,23.83,31.66,40.59,21.94,1.37-.81,1.44-5.49.07-5.06-10.8,3.39-20.86-10.3-28.69-27.72,5.2,3.18,10.81,4.56,16.76,3.83,1.78-.21,2.62-6.31.85-7.01-1.79-.71-3.53-1.68-5.24-2.79-.8-.53-1.57-1.17-2.35-1.79-.81-.63-1.63-1.28-2.42-2-1.03-.95-2.04-1.98-3.02-3.08-.43-.47-.85-.97-1.27-1.47-1.16-1.39-2.31-2.85-3.42-4.44-.11-.15-.2-.32-.31-.47-2.16-3.14-4.18-6.65-6.08-10.57,0,0-.02-.02-.03-.03-4.64-9.52-8.55-21.05-11.48-34.47-.62-3.2-1.27-6.36-1.93-9.44-.66-3.76-1.18-7.6-1.7-11.39,7.1,21.69,16.93,37.2,27.91,46.85,1.85,1.61,3.37-5.25,1.77-7.51-9.77-13.66-17.33-34.83-22.67-59.22,8.64,12.86,18.69,20.05,30.57,21.54.24.03.44-.13.63-.37.03-.04.06-.08.09-.13.36-.55.6-1.47.66-2.41,0-.02,0-.04,0-.06.07-1.18-.12-2.31-.72-2.51-.93-.26-1.85-.66-2.75-1.13-.5-.27-1-.62-1.5-.95-.47-.31-.94-.58-1.4-.95-.61-.48-1.2-1.05-1.8-1.63-.27-.26-.54-.48-.8-.75-.65-.68-1.3-1.43-1.94-2.21-.18-.23-.37-.43-.56-.67-.69-.87-1.36-1.81-2.03-2.8-.12-.17-.23-.34-.35-.51-.71-1.07-1.41-2.2-2.1-3.38-.06-.1-.11-.19-.17-.29-1.49-2.58-2.92-5.4-4.3-8.41-6.65-14.55-12.08-33.44-16.3-50.5,3.57,7.62,7.52,13.09,11.75,15.57.56.31,1.07-1.79.52-2.23-25.52-19.7-21.4-113.85-21.26-170.35,0-1.27-.16-2.32-.41-3.21-.03-.1-.07-.16-.1-.25-.25-.79-.56-1.38-.94-1.8-.01-.01-.01-.04-.03-.05-.04-.04-.08-.04-.12-.08-.27-.26-.53-.48-.83-.54-.36-.1-.72-.07-1.08.16.18-2.65.38-5.25.5-7.9.03-.79,0-1.48-.06-2.07,0-.07-.03-.11-.04-.18-.57-3.86-3.27-3.11-4.41,1.28-28.39,109.54-66.18,216.04-117.7,235.35-.04-.07-.07-.14-.11-.2-1.28.48-2.54,1.17-3.84,1.55-.68.14-.9,2.27-.56,3.21,7.95,22.11,26.97,9.53,43.85-9.72-2.64,4.38-5.34,8.71-8.18,12.72-9.6,13.48-21.69,33.72-32.19,36.15-.11-.01-.23.02-.34,0-.07,0-.13.12-.21.2h-.02s0,0-.02,0c-.15.11-.31.27-.43.51-.04.08-.05.17-.08.25-.39.99-.5,2.53.04,3.1,1.13,1.24,2.39,2.39,3.71,3.46.02.02.03.03.05.05,1.09.88,2.23,1.7,3.43,2.46.49.31,1.02.56,1.52.84.84.47,1.67.95,2.55,1.36.58.27,1.18.5,1.78.74.86.35,1.72.69,2.61.97.62.2,1.25.37,1.88.54.92.25,1.85.46,2.79.64.63.12,1.26.22,1.89.3,1,.13,2.01.21,3.03.26.61.03,1.22.07,1.83.07,1.13,0,2.28-.09,3.43-.19.52-.05,1.03-.06,1.54-.13,1.67-.23,3.36-.56,5.04-1.03-6.85,17.36-14.31,32.69-24.37,45.53-2.89,3.7-5.8,7.4-8.72,11.02-.08.1-.16.2-.24.3-2.98,3.67-5.97,7.26-8.98,10.66-1.72,1.95-3.44,3.82-5.17,5.63-.23.24-.46.49-.69.73-1.49,1.55-3,3-4.5,4.41-.41.39-.83.8-1.24,1.18-1.39,1.27-2.78,2.42-4.18,3.55-.48.39-.96.82-1.44,1.19-1.84,1.42-3.68,2.72-5.53,3.85-2.52-.08-4.94-.15-7.09-.11-.88,0-1.38,2.4-.89,3.82.44,1.2.97,2.29,1.47,3.42-.16,1.16-.16,2.32-.04,3.29,0,.02,0,.04,0,.06,0,.01,0,.02,0,.03.07.48.19.85.34,1.18.04.09.06.22.11.3.21.32.48.51.82.47.48,0,1.02-.15,1.52-.23.84,1.25,1.74,2.36,2.68,3.37.31.34.66.6.99.91.65.62,1.29,1.26,1.98,1.78.45.34.93.61,1.39.91.6.39,1.19.81,1.81,1.14.57.3,1.17.53,1.76.79.54.23,1.07.49,1.63.68.7.24,1.43.42,2.15.6.46.11.9.25,1.37.34.86.17,1.74.27,2.62.36.33.03.65.08.98.1,1.05.08,2.12.09,3.2.06.14,0,.29,0,.43,0,1.71-.06,3.43-.18,5.17-.45-4.74,7.26-9.69,13.86-14.63,17.83-4.16,1.22-8.43,1.18-12.88-.6-.52-.18-1.05,1.61-.77,2.59.1.31.24.55.33.85-.58-.18-.9,1.85-.57,2.66,1.31,3.31,2.86,5.4,4.57,6.64.5.91,1.04,1.65,1.57,2.4.02.03.05.05.07.08,2.04,2.9,4.26,4.99,6.66,6.19.02.01.04.03.05.04.89.39,1.78.78,2.72,1-10.69,9.72-22.27,15.31-32.32,14.9-1.21-.29-2.4-.76-3.61-1.31-1.25-1.2-2.49-2.48-3.7-3.85-2.17-2.54-4.24,4.9-3.46,9.41,3.79,21.93,14.74,33.21,25.6,39.07,1.46.8,2.93,1.49,4.37,2.1-1.84,3.86-3.72,7.62-5.69,11.21-1.28,2.32-2.71,4.75-4.21,7.2-.63,1.03-1.31,2.08-1.97,3.12-.86,1.35-1.74,2.71-2.65,4.08-.96,1.43-1.93,2.87-2.93,4.3-.58.83-1.18,1.66-1.77,2.48-7.75,10.77-16.64,21.24-25.19,28.74-.01.01-.02.02-.04.03-1.6,1.4-3.19,2.71-4.76,3.92-1.79,1.34-3.58,2.62-5.29,3.61-6.67-.46-13.03-2.38-18.81-6.35-.49-.3-1.36,1.03-1.11,2.52.69,4.07,1.59,7.61,2.63,10.8.1.29.17.63.27.92,0,.01.01.02.02.04.84,2.45,1.8,4.58,2.82,6.53.21.39.42.77.63,1.14,1.02,1.79,2.1,3.43,3.27,4.81.03.03.05.07.07.1,1.19,1.39,2.47,2.53,3.79,3.52.31.23.61.45.92.66,1.33.9,2.69,1.69,4.11,2.26-5.67,2.14-11.34,3.94-17.02,5.64-.94.29-.97,3.3-.27,3.71,8.82,5.09,20.55,6.44,32.47,2.13-3.73,5-7.34,9.5-10.56,13.48-1.74,2.13-3.49,4.05-5.25,5.8-.15.15-.3.27-.45.42-1.63,1.6-3.27,3.07-4.92,4.38-.1.08-.2.15-.3.23-2.11,1.66-4.23,3.08-6.34,4.28-.16.09-.32.19-.48.28-2.2,1.22-4.4,2.21-6.6,2.96-.08.03-.15.04-.23.06-1.97.66-3.93,1.09-5.89,1.4-.47.07-.94.15-1.41.2-2.03.24-4.06.36-6.08.26-2.48-1.62-4.97-3.16-7.5-4.58-.59-.31-1.07,1.79-.83,2.84.06.26.14.44.22.71-.53.33-.83,2.02-.47,2.83.96,2.29,1.97,4.28,3.03,6.1.6,1.83,1.28,3.35,1.93,5.01,0,.02.02.04.03.06,4.61,11.82,10.5,19.81,17.23,24.74.06.05.13.08.19.13,1.62,1.17,3.27,2.21,4.97,3.06.21.1.43.17.63.27,1.57.74,3.16,1.42,4.8,1.92.51.16,1.04.23,1.55.36,1.37.35,2.74.71,4.14.9,1.95.28,3.93.41,5.93.41-1.64,1.12-3.28,2.05-4.91,2.88-1.49.75-2.99,1.35-4.49,1.87-.13.05-.26.11-.39.15-3.62-.36-7.25-.47-10.92-.19-.55.03-1.06.58-1.47,1.39-2.53-.96-4.98-2.01-7.28-3.17-1.76-.91-2.75,5.35-1.82,7.76,19.24,50.37,60.59,32.54,92.63,11.03-1.54,6.2-3.26,12.26-4.91,18.38-1.53,5.7-3.02,11.42-4.64,17.08-2.98,10.34-6.08,20.64-9.38,30.95-.13.43-.17.86-.16,1.26,0,.05.01.07.01.11.04.63.22,1.07.49,1.03.12.02.25-.06.39-.32,1.36-2.4,2.71-4.71,4.07-7.07,1.05-1.67,2.1-3.49,3.15-5.28-1.15,2.55-2.27,5.14-3.47,7.56-.54,1.11-.12,2.87.48,1.9,16.17-26.75,31.51-49.89,45.21-83.89-.32,19.61.55,36.71,3.25,54.57.19,1.39,1.15.37.99-1.07-1.27-10.14-1.7-21.71-1.62-33.81.72,4.84,1.51,9.43,2.32,13.69,1.48,7.77,3.28,14.9,5.19,21.82-8.87,70.95-19.89,145.2-19.89,145.2,22.01,29.15,36.18-2.74,36.18-2.74,2.27-34.01,9.09-103.24,14.61-157.12,2.81,12.46,6.02,24.28,8.97,35.73.28,1.06,1.04-.33.79-1.42-2.93-13.23-5.42-27.76-7.4-42.69,4.22,13.15,9.02,24.97,14.45,34.71,1.41,2.55,2.89,4.79,4.4,6.95.73,1.06,1.46,2.1,2.21,3.09.02.03.04.06.06.08.09.12.19.22.29.34,4.58,5.97,9.47,10.61,14.56,14.42.34.26.67.53,1.02.78,1.42,1.03,2.85,1.99,4.3,2.91.6.38,1.19.77,1.79,1.14,1.33.81,2.67,1.6,4.01,2.34.78.44,1.57.86,2.35,1.28,1.22.65,2.44,1.3,3.67,1.92,1.16.59,2.33,1.16,3.49,1.73,2.8,1.37,5.6,2.72,8.38,4.1.27.13.52.09.76-.02.08-.04.16-.11.24-.17.15-.12.3-.28.44-.48.07-.11.15-.21.22-.34.16-.3.3-.64.43-1.03.02-.08.06-.13.08-.21.14-.48.26-1.01.35-1.56.03-.17.05-.33.07-.5.06-.42.1-.83.13-1.26.01-.19.02-.36.03-.55.02-.48,0-.94-.02-1.39,0-.11,0-.22-.01-.32,0,0,0,0,0-.02-.01-.15-.05-.26-.07-.4-.13-.98-.36-1.84-.77-2.34-1.82-2.17-3.66-4.17-5.51-6.09-1.12-1.19-2.24-2.36-3.37-3.49-1.63-2.43-3.21-5.03-4.73-7.82-.07-.53-.19-1-.43-1.25-.34-.34-.6-.88-.92-1.26-2.79-5.48-5.3-11.66-7.41-18.97-.19-.63-.37-1.35-.56-2.07,15.54,32.51,36.94,51.34,59.14,49.17.04,0,.08,0,.13,0,1.91-.19,3.82-.56,5.74-1.07.17-.05.34-.09.52-.14,1.83-.51,3.67-1.18,5.5-2,.25-.11.5-.23.76-.34,1.78-.83,3.56-1.79,5.33-2.91.3-.19.6-.4.91-.6,1.74-1.14,3.47-2.4,5.2-3.83.34-.28.67-.59,1.01-.88,1.7-1.46,3.39-3.03,5.08-4.78.09-.09.17-.15.26-.25,1.57-1.69,3.13-3.3,4.68-5.21,1.27-1.55,1.2-6.45-.22-5.61-1.34.81-2.66,1.29-4,1.93-.14-.19-.3-.42-.5-.48-1.42-.7-2.85-1.49-4.27-2.36,0,0-.02,0-.02,0-12.55-7.49-24.06-21.36-33.04-41.87,2.61,3.01,5.25,5.9,7.9,8.87,1.28,1.46,2.39-3.75,1.26-5.42-6.18-8.96-12.9-18.23-17.92-31.02,7.95,8.06,16.33,13.41,22.97,15.63,13.02,4.4,36.4,10.56,48.48-19.83,1.2-2.97.09-7.17-1.37-5.51Z"
  />
  <path
    class="cls-1"
    d="M783.88,1381.19c-.4-1.49.27-3.47.84-2.6,1.01,1.53,2.08,2.63,3.18,3.56.01-1.02.23-1.96.64-2.39.08-.06.14-.16.23-.21.61-.23,1.21-.62,1.82-1.08.12-.09.25-.2.37-.3.58-.49,1.17-1.03,1.75-1.68.8-.89,1.59-1.93,2.38-3.09,0,0,0-.01.01-.02,1.56-2.3,3.1-5.09,4.6-8.14.03-.06.06-.12.09-.18.71-1.46,1.41-2.99,2.1-4.55.08-.18.16-.37.24-.56.67-1.54,1.33-3.1,1.97-4.69.02-.06.05-.12.07-.18.58-1.45,1.15-2.91,1.71-4.36.16-.41.32-.82.47-1.23.51-1.35,1.01-2.68,1.49-3.99.19-.53.38-1.06.57-1.58.47-1.29.93-2.58,1.37-3.8,1.82-5.09,3.51-10.3,5.12-15.64-3.8,4.78-7.86,7.53-11.81,11.59-.47.5-.83-1.49-.4-2.24,4.68-7.98,10.18-10.96,14.71-19.73.2-.4.4-.73.6-1.12.14-.31.27-.62.41-.91.61-2.31,1.22-4.61,1.81-6.98-8.46,5.69-17.54,5.6-25.9.28-1.12-.7-1-5.44.14-5.54.68-.06,1.38-.13,2.07-.21-.21-.1-.43-.19-.64-.32-.17-.1-.16-.85.03-.87.45-.07.89-.22,1.33-.33.08-.12.14-.3.25-.34,8.11-3.26,15.4-12.95,21.96-26.25.71-1.41,1.41-2.95,2.1-4.51-3.51,1.58-7.05,1.95-10.54.89-3.52-.35-6.98-2.44-9.99-6.39-2.07-.95-4.1-2.59-6.03-5.43-.15-.23-.11-.85.06-.87,1.8-.27,3.59-.38,5.37-.46-.01-1.16.22-2.37.71-2.37,5.05.09,9.57-2.77,13.65-7.77.88-1.09,1.74-2.27,2.59-3.54.02-.03.04-.06.05-.08.85-1.29,1.68-2.68,2.49-4.15.83-1.51,1.64-3.12,2.44-4.81.01-.02.02-.04.03-.06.75-1.6,1.49-3.28,2.2-5.02-.6-.02-1.21-.08-1.81-.21-.01,0-.03,0-.04,0-.59-.13-1.18-.32-1.77-.56-.05-.02-.1-.04-.16-.06-.56-.24-1.11-.53-1.67-.87-.06-.03-.11-.07-.17-.11-2.78,1.14-5.67.75-8.78-1.7-.57-.45-.4-2.72.19-2.45,1.34.62,2.71.53,4.09-.09-.22-.28-.44-.56-.66-.87-.02-.03-.05-.06-.07-.09-.44-.64-.88-1.24-1.31-1.95-.35-.58-.18-2.26.24-1.92.39.32.8.53,1.2.8.05-.06.11-.13.17-.15.47-.19.94-.42,1.41-.67,0,0,0,0,0,0,2.54-1.31,5.03-3.47,7.38-6.47-2,.77-4.07.95-6.17.43-.78-.19-.88-3.17-.07-3.43.82-.26,1.63-.65,2.43-1.1.38-.22.74-.49,1.11-.75.39-.27.77-.54,1.15-.85.49-.41.98-.86,1.47-1.34.21-.21.42-.43.62-.65.57-.62,1.14-1.27,1.7-1.99.05-.07.1-.14.16-.21.87-1.14,1.72-2.41,2.54-3.8-1.72,1.16-3.37,1.93-4.75,2.28-4.22,1.07-11.75,2.4-14.61-8.46-.28-1.06.19-2.47.6-1.85.72,1.09,1.48,1.88,2.27,2.54,0-.73.16-1.4.46-1.7.05-.04.1-.12.16-.15.43-.16.86-.44,1.3-.77.09-.07.18-.14.26-.21.42-.35.83-.73,1.25-1.2.57-.63,1.14-1.37,1.7-2.2,0,0,0,0,0-.01,1.11-1.64,2.21-3.62,3.27-5.8.02-.04.04-.09.06-.13.51-1.04,1.01-2.13,1.5-3.24.06-.13.12-.26.17-.4.48-1.1.95-2.21,1.4-3.34.02-.04.03-.09.05-.13.42-1.03.82-2.07,1.22-3.1.09-.24.18-.48.27-.71-1.17.34-2.36.53-3.58.57-.11,0-.19-.09-.26-.21-.01-.02-.02-.04-.04-.07-.14-.28-.2-.74-.19-1.2,0-.01,0-.02,0-.03.02-.57.15-1.11.42-1.18.42-.08.84-.23,1.26-.41.23-.1.47-.25.7-.39.22-.13.44-.24.66-.39.29-.2.58-.45.86-.7.13-.11.26-.21.39-.33.32-.3.63-.63.95-.98.09-.1.18-.19.27-.3.34-.39.68-.81,1.01-1.25.03-.04.06-.08.09-.11,1.28-3.58,2.47-7.25,3.6-11.01-2.7,3.41-5.6,5.36-8.41,8.25-.34.36-.59-1.06-.28-1.6,3.34-5.69,7.25-7.81,10.48-14.05.14-.28.29-.52.43-.8.1-.22.19-.44.29-.65.23-.89.46-1.79.69-2.68-.08-.29-.08-.75.09-.87.06-.04.11-.1.17-.14.11-.43.23-.85.33-1.29-6.03,4.05-12.49,3.99-18.45.2-.8-.5-.72-3.87.1-3.95.49-.04.98-.09,1.47-.15-.15-.07-.31-.14-.46-.23-.12-.07-.11-.61.02-.62.32-.05.63-.15.95-.23.06-.09.1-.21.18-.24,5.77-2.32,10.97-9.22,15.64-18.69.5-1.01,1-2.1,1.49-3.21-2.5,1.12-5.02,1.39-7.51.63-2.51-.25-4.97-1.74-7.11-4.55-1.47-.68-2.92-1.84-4.3-3.87-.1-.16-.08-.61.04-.62,1.28-.19,2.56-.27,3.82-.33,0-.82.16-1.69.51-1.69,3.6.06,6.82-1.98,9.72-5.53.63-.78,1.24-1.62,1.84-2.53.01-.02.03-.04.04-.06.61-.92,1.2-1.91,1.78-2.96.59-1.08,1.17-2.22,1.74-3.42,0-.01.01-.03.02-.04,1.09-2.32,2.13-4.86,3.12-7.57.08-.23.17-.47.25-.7.46-1.3.92-2.62,1.37-3.98-4.26,6.66-8.45,10.09-13.41,6.18-.4-.32-.28-1.94.13-1.75,3.28,1.53,6.86-2.84,9.86-8.57-1.73.92-3.53,1.2-5.38.75-.55-.13-.63-2.26-.05-2.44.58-.18,1.16-.46,1.73-.78.27-.15.53-.35.79-.53.28-.19.55-.39.82-.61.35-.29.7-.61,1.04-.96.15-.15.3-.3.45-.46.41-.44.81-.9,1.21-1.41.04-.05.07-.1.11-.15.77-1.01,1.52-2.15,2.23-3.43,0,0,0,0,0-.01,1.75-3.12,3.33-6.96,4.66-11.47.29-1.08.59-2.15.89-3.18.32-1.27.6-2.58.88-3.86-2.9,7.22-6.46,12.23-10.2,15.18-.63.49-.9-1.92-.33-2.65,3.48-4.37,6.51-11.4,8.93-19.61-3.11,4.13-6.48,6.27-10.26,6.38-.08,0-.13-.06-.19-.15,0-.02-.02-.03-.03-.05-.1-.2-.14-.53-.13-.85,0,0,0-.01,0-.02.01-.41.11-.79.3-.84.3-.06.6-.16.9-.29.17-.07.33-.18.5-.28.16-.09.31-.17.47-.28.21-.14.41-.32.61-.5.09-.08.18-.15.28-.23.23-.21.45-.45.68-.7.06-.07.13-.14.19-.21.24-.28.48-.58.72-.89.04-.05.08-.11.13-.16.26-.35.51-.71.76-1.09.02-.03.04-.06.06-.09.55-.84,1.08-1.76,1.61-2.75,2.53-4.78,4.82-11.1,6.66-16.83-1.36,2.5-2.76,4.25-4.16,4.96-.18.09-.28-.65-.09-.78,8.61-5.92,10.21-38.45,11.9-57.9.04-.44.12-.79.23-1.09.01-.03.03-.05.04-.08.1-.26.22-.46.35-.59,0,0,0-.01,0-.02.01-.01.03-.01.04-.02.09-.08.18-.15.28-.16.11-.02.23,0,.34.09.02-.92.04-1.82.09-2.74.01-.27.04-.51.08-.71,0-.02.01-.04.02-.06.3-1.31,1.12-.96,1.34.59,5.55,38.65,14.14,76.58,29.72,84.96.01-.02.03-.05.04-.07.39.21.76.49,1.16.66.21.07.21.81.08,1.12-3.17,7.34-8.76,2.37-13.46-4.82.69,1.59,1.41,3.18,2.18,4.65,2.6,4.96,5.77,12.34,8.99,13.53.03,0,.07.01.11.02.02,0,.04.04.06.07h0s0,0,0,0c.05.04.09.1.12.19,0,.03,0,.06.02.09.09.35.08.89-.11,1.06-.39.39-.82.74-1.27,1.07,0,0-.01.01-.02.01-.37.27-.75.51-1.15.73-.16.09-.34.16-.5.24-.28.13-.55.27-.84.38-.19.07-.39.13-.58.19-.28.09-.56.18-.85.25-.2.05-.4.08-.61.12-.3.05-.59.1-.9.12-.2.02-.4.03-.6.04-.32.01-.64,0-.96-.01-.19-.01-.38-.02-.58-.04-.36-.04-.71-.11-1.07-.18-.16-.03-.32-.06-.48-.1-.52-.14-1.04-.3-1.55-.52,1.62,6.21,3.49,11.73,6.25,16.49.79,1.37,1.59,2.74,2.4,4.09.02.04.04.08.07.11.82,1.36,1.65,2.7,2.49,3.97.48.73.96,1.43,1.45,2.11.07.09.13.18.2.28.42.58.85,1.13,1.28,1.67.12.15.23.3.35.45.4.48.8.93,1.2,1.36.14.15.28.32.42.46.53.55,1.07,1.06,1.62,1.51.79.06,1.56.12,2.23.2.28.03.36.87.16,1.34-.17.4-.37.76-.57,1.13.01.4-.02.81-.09,1.13,0,0,0,.01,0,.02,0,0,0,0,0,0-.04.16-.09.29-.14.39-.02.03-.03.07-.04.1-.08.1-.17.16-.27.13-.15-.01-.32-.09-.47-.13-.3.4-.62.76-.95,1.07-.11.11-.23.18-.34.28-.22.19-.44.39-.68.55-.15.1-.31.18-.46.27-.2.11-.4.24-.6.33-.19.09-.38.14-.58.21-.18.06-.35.13-.53.18-.23.06-.46.1-.69.13-.15.02-.29.06-.44.07-.28.03-.55.03-.83.04-.1,0-.21,0-.31,0-.33,0-.67-.04-1-.09-.05,0-.09,0-.13-.02-.53-.08-1.07-.18-1.61-.33,1.27,2.66,2.61,5.1,4.05,6.63,1.27.56,2.61.69,4.06.23.17-.04.28.59.16.92-.04.1-.09.18-.13.28.19-.04.23.67.1.93-.51,1.09-1.06,1.76-1.64,2.13-.18.29-.38.53-.57.77,0,.01-.02.02-.02.03-.73.93-1.49,1.57-2.28,1.9,0,0-.01,0-.02.01-.29.1-.58.21-.88.25,3.06,3.7,6.52,6.02,9.69,6.22.39-.06.78-.18,1.17-.33.43-.37.86-.77,1.28-1.2.76-.8,1.18,1.83.8,3.36-1.86,7.42-5.65,10.93-9.23,12.58-.48.23-.96.41-1.44.57.46,1.39.93,2.75,1.44,4.05.33.84.71,1.73,1.1,2.62.17.38.35.76.52,1.14.23.49.46.99.7,1.49.26.53.52,1.05.79,1.58.16.31.32.61.48.91,2.1,3.97,4.57,7.87,7.02,10.74,0,0,0,0,.01.01.46.53.92,1.04,1.37,1.51.52.52,1.04,1.02,1.55,1.42,2.11.07,4.16-.38,6.1-1.55.16-.09.39.4.27.9-.34,1.38-.73,2.56-1.16,3.63-.04.1-.07.21-.11.31,0,0,0,0,0,.01-.34.81-.7,1.52-1.09,2.15-.08.13-.15.25-.23.37-.38.58-.76,1.11-1.17,1.54,0,0-.02.02-.03.03-.42.44-.85.79-1.3,1.08-.1.07-.21.13-.31.2-.45.27-.9.49-1.36.64,1.71.93,3.44,1.74,5.17,2.52.29.13.2,1.17-.03,1.29-2.92,1.45-6.65,1.52-10.26-.36,1.02,1.85,2.01,3.52,2.9,4.99.48.79.97,1.51,1.47,2.17.04.06.09.1.13.16.46.61.93,1.17,1.41,1.67.03.03.06.06.09.09.61.64,1.23,1.2,1.86,1.69.05.04.09.08.14.11.65.49,1.31.91,1.98,1.24.02.01.05.02.07.03.6.29,1.2.51,1.81.68.15.04.29.08.44.12.63.15,1.26.26,1.9.29.83-.47,1.66-.92,2.49-1.32.19-.09.28.65.17,1.01-.03.09-.06.15-.09.24.16.13.2.72.06.99-.37.75-.75,1.4-1.14,2-.24.61-.51,1.11-.76,1.66,0,0,0,.01,0,.02-1.81,3.91-3.9,6.46-6.17,7.93-.02.01-.04.02-.06.04-.54.35-1.09.65-1.65.88-.07.03-.14.04-.21.07-.52.2-1.04.38-1.57.5-.16.04-.33.04-.5.07-.44.07-.88.15-1.33.17-.62.03-1.25,0-1.87-.06.48.44.97.82,1.45,1.16.45.31.9.57,1.35.8.04.02.08.05.12.07,1.15,0,2.29.08,3.43.3.17.03.31.23.42.53.82-.24,1.63-.52,2.38-.84.58-.25.7,1.94.33,2.73-7.59,16.68-20.01,9.15-29.41.67.15,1.1.31,2.19.48,3.27,1.51,4.23,3.24,8.18,5.34,11.8,1.11,1.93,2.24,3.85,3.37,5.74.03.05.06.11.09.16,1.15,1.92,2.32,3.79,3.5,5.57.67,1.02,1.35,2.01,2.03,2.97.09.13.18.26.27.39.59.82,1.19,1.59,1.79,2.35.17.21.33.43.5.63.56.68,1.12,1.3,1.69,1.91.2.21.39.44.58.64.75.77,1.51,1.49,2.27,2.12,1.11.08,2.18.16,3.13.28.39.04.51,1.22.23,1.89-.24.56-.52,1.06-.8,1.58.02.57-.03,1.13-.13,1.59,0,0,0,.02,0,.03,0,0,0,0,0,.01-.05.23-.12.4-.2.55-.02.04-.04.1-.06.14-.11.14-.23.22-.38.19-.21-.02-.44-.12-.66-.18-.42.56-.87,1.06-1.33,1.5-.15.15-.32.26-.47.39-.31.27-.62.55-.95.77-.21.14-.43.25-.65.38-.28.16-.56.33-.85.46-.26.12-.54.2-.81.3-.25.09-.49.19-.75.25-.32.08-.65.13-.97.19-.21.03-.41.08-.62.1-.39.04-.78.05-1.17.05-.15,0-.29,0-.44,0-.47-.01-.94-.06-1.41-.12-.06,0-.13-.01-.19-.02-.75-.11-1.5-.25-2.26-.46,1.78,3.73,3.67,7.16,5.68,9.31,1.78.79,3.66.97,5.7.32.24-.06.39.83.23,1.29-.06.15-.13.25-.18.39.26-.06.32.93.14,1.31-.72,1.54-1.49,2.47-2.3,2.99-.26.41-.53.75-.8,1.08-.01.01-.02.02-.03.04-1.02,1.31-2.09,2.21-3.2,2.67,0,0-.02.01-.03.02-.41.15-.82.29-1.24.36,4.29,5.2,9.15,8.45,13.6,8.73.54-.08,1.09-.25,1.65-.46.6-.52,1.21-1.08,1.8-1.69,1.07-1.12,1.66,2.57,1.12,4.71-2.61,10.42-7.93,15.35-12.97,17.66-.68.32-1.35.58-2.02.81.64,1.95,1.31,3.86,2.02,5.69.46,1.18.99,2.42,1.54,3.68.23.53.49,1.07.73,1.6.32.7.65,1.39.99,2.1.36.74.73,1.48,1.11,2.22.22.43.45.86.67,1.28,2.95,5.57,6.42,11.05,9.86,15.08,0,0,0,.01.01.02.65.75,1.29,1.46,1.93,2.12.73.73,1.46,1.44,2.18,1.99,2.96.1,5.84-.53,8.56-2.18.23-.12.55.56.38,1.27-.48,1.94-1.03,3.6-1.62,5.09-.05.14-.1.3-.16.43,0,0,0,0,0,.02-.48,1.14-.99,2.13-1.53,3.02-.11.18-.22.35-.33.52-.53.82-1.07,1.56-1.65,2.17-.01.01-.02.03-.04.04-.59.62-1.2,1.1-1.82,1.52-.14.1-.29.19-.44.28-.62.37-1.26.69-1.91.9,2.41,1.3,4.83,2.44,7.26,3.53.4.19.28,1.64-.04,1.81-4.11,2.04-9.33,2.14-14.4-.51,1.43,2.59,2.82,4.94,4.07,7.01.68,1.11,1.36,2.12,2.06,3.05.06.08.12.14.18.22.65.85,1.31,1.64,1.98,2.35.04.04.08.08.12.12.86.9,1.73,1.69,2.61,2.37.07.05.13.11.2.16.92.69,1.85,1.27,2.78,1.74.03.02.07.03.1.04.84.41,1.69.71,2.54.96.2.06.41.12.61.17.89.21,1.78.37,2.67.41,1.16-.67,2.32-1.29,3.5-1.86.27-.12.4.92.24,1.41-.04.12-.08.21-.13.33.22.19.28,1.02.08,1.39-.52,1.06-1.05,1.97-1.6,2.8-.34.85-.71,1.56-1.07,2.33,0,0,0,.02-.01.03-2.54,5.49-5.48,9.07-8.66,11.14-.03.02-.06.03-.09.05-.76.49-1.53.91-2.32,1.24-.1.04-.19.06-.29.1-.73.28-1.46.54-2.2.7-.23.05-.47.06-.7.1-.62.1-1.24.21-1.86.24-.87.04-1.75.01-2.63-.08.67.62,1.36,1.14,2.04,1.63.63.43,1.26.79,1.9,1.12.06.03.11.07.17.09,1.61,0,3.22.12,4.82.43.24.04.44.33.59.74,1.16-.34,2.28-.73,3.34-1.19.82-.36.98,2.72.47,3.84-10.65,23.42-28.1,12.85-41.3.93.41,3.07.91,6.08,1.37,9.11.43,2.83.84,5.66,1.31,8.47.87,5.14,1.79,10.26,2.8,15.4.04.21.04.43.02.62,0,.02,0,.03-.01.05-.04.3-.14.51-.26.48-.05,0-.11-.04-.16-.17-.5-1.22-.99-2.4-1.49-3.61-.39-.85-.77-1.78-1.16-2.7.4,1.29.78,2.59,1.2,3.82.19.56-.07,1.39-.29.9-5.97-13.69-11.73-25.6-16.31-42.68-.71,9.49-1.82,17.71-3.79,26.21-.14.66-.52.13-.39-.56,1-4.84,1.69-10.41,2.17-16.26-.53,2.3-1.07,4.49-1.61,6.5-.99,3.69-2.09,7.04-3.23,10.3.85,34.7,2.51,71.1,2.51,71.1-10.96,13.04-15.82-3.04-15.82-3.04.47-16.54.44-50.31.33-76.6-1.78,5.89-3.7,11.44-5.49,16.84-.17.5-.44-.21-.29-.72,1.86-6.25,3.59-13.15,5.1-20.27-2.42,6.15-5.05,11.63-7.86,16.08-.73,1.17-1.48,2.18-2.24,3.15-.37.48-.73.95-1.11,1.39,0,.01-.02.03-.03.04-.05.05-.1.1-.14.15-2.27,2.67-4.63,4.68-7.04,6.28-.16.11-.32.23-.48.33-.67.43-1.34.82-2.02,1.2-.28.16-.56.31-.84.46-.62.33-1.24.64-1.87.94-.36.17-.73.34-1.09.51-.57.26-1.13.51-1.7.75-.54.23-1.08.45-1.61.67-1.29.53-2.58,1.05-3.87,1.58-.12.05-.23.02-.34-.04-.04-.02-.07-.06-.1-.1-.06-.07-.12-.15-.17-.25-.03-.06-.06-.11-.08-.18-.06-.15-.1-.32-.14-.52,0-.04-.02-.07-.03-.11-.04-.24-.07-.5-.09-.77,0-.08,0-.16,0-.25,0-.2,0-.41,0-.61,0-.09,0-.18.01-.27.01-.23.04-.45.07-.67,0-.05.01-.11.02-.16,0,0,0,0,0,0,.01-.07.04-.12.05-.19.1-.47.24-.87.44-1.1.9-.96,1.79-1.84,2.69-2.68.55-.52,1.09-1.03,1.64-1.52.82-1.1,1.63-2.28,2.42-3.55.05-.25.12-.47.24-.58.16-.15.3-.39.46-.56,1.46-2.51,2.84-5.38,4.08-8.81.11-.3.22-.63.34-.97-8.25,14.97-18.49,23.05-28.18,20.95-.02,0-.04,0-.06,0-.83-.18-1.66-.45-2.48-.79-.07-.03-.15-.06-.22-.09-.79-.33-1.56-.75-2.34-1.23-.11-.06-.21-.13-.32-.2-.75-.48-1.49-1.04-2.23-1.66-.13-.11-.25-.22-.37-.33-.72-.63-1.42-1.33-2.12-2.1-.14-.15-.27-.32-.41-.47-.69-.79-1.36-1.62-2.03-2.55-.03-.05-.07-.08-.1-.13-.62-.89-1.24-1.74-1.84-2.74-.49-.81-.25-3.17.34-2.7.55.45,1.12.75,1.68,1.12.07-.09.15-.19.24-.21.66-.27,1.32-.58,1.99-.94,0,0,0,0,0,0,5.85-3.02,11.52-9.18,16.37-18.66-1.28,1.33-2.57,2.6-3.86,3.91-.63.64-.89-1.93-.32-2.68,3.11-4.04,6.47-8.19,9.24-14.14-3.85,3.52-7.77,5.71-10.8,6.46-5.93,1.51-16.49,3.38-20.51-11.88Z"
  />
  <path
    class="cls-1"
    d="M557.89,1120.72c.32-1.05-.1-2.48-.53-1.87-.76,1.07-1.55,1.82-2.36,2.46.02-.73-.11-1.41-.4-1.72-.05-.05-.1-.12-.16-.15-.43-.18-.85-.47-1.27-.82-.09-.07-.17-.15-.26-.22-.4-.36-.81-.77-1.2-1.24-.55-.65-1.09-1.41-1.62-2.26,0,0,0,0,0-.01-1.05-1.68-2.08-3.71-3.07-5.93-.02-.04-.04-.09-.06-.13-.47-1.06-.93-2.17-1.38-3.3-.05-.13-.11-.27-.16-.4-.44-1.11-.87-2.25-1.28-3.4-.02-.04-.03-.09-.05-.13-.38-1.05-.75-2.1-1.1-3.15-.1-.3-.2-.59-.3-.89-.33-.97-.65-1.94-.96-2.89-.12-.38-.25-.76-.37-1.14-.3-.93-.6-1.87-.88-2.75-1.17-3.68-2.24-7.44-3.24-11.29,2.58,3.51,5.41,5.57,8.12,8.57.33.37.63-1.04.34-1.59-3.13-5.82-6.98-8.08-9.98-14.46-.13-.29-.27-.53-.4-.82-.09-.22-.18-.45-.27-.66-.38-1.66-.75-3.32-1.11-5.03,5.89,4.28,12.36,4.45,18.46.88.82-.47.86-3.85.04-3.96-.49-.06-.98-.13-1.47-.2.16-.07.31-.12.47-.21.13-.07.13-.6,0-.62-.32-.06-.63-.18-.94-.27-.06-.09-.09-.22-.17-.25-5.7-2.53-10.65-9.63-14.98-19.29-.47-1.03-.93-2.14-1.38-3.27,2.46,1.22,4.97,1.57,7.49.91,2.52-.16,5.04-1.56,7.29-4.3,1.5-.62,2.99-1.74,4.45-3.71.11-.16.1-.6-.02-.62-1.28-.24-2.55-.36-3.82-.47.04-.82-.1-1.7-.45-1.71-3.61-.07-6.75-2.23-9.53-5.9-.6-.8-1.18-1.66-1.75-2.6-.01-.02-.02-.04-.04-.06-.57-.94-1.13-1.95-1.67-3.03-.55-1.1-1.09-2.27-1.61-3.49,0-.01-.01-.03-.02-.05-.49-1.16-.97-2.38-1.44-3.64.43,0,.86-.02,1.3-.1,0,0,.02,0,.03,0,.43-.08.85-.2,1.28-.35.04-.01.08-.03.11-.04.41-.16.81-.35,1.21-.58.04-.02.08-.05.12-.07,1.95.88,4.03.68,6.31-.98.42-.31.35-1.93-.07-1.75-.97.41-1.95.31-2.92-.17.17-.19.33-.39.49-.6.02-.02.04-.04.06-.06.33-.44.66-.86.98-1.36.26-.4.19-1.61-.12-1.38-.29.22-.58.36-.87.54-.03-.04-.07-.1-.12-.11-.33-.15-.66-.32-.99-.51,0,0,0,0,0,0-1.78-1-3.5-2.6-5.09-4.81,1.41.6,2.88.78,4.39.47.56-.11.71-2.24.14-2.44-.58-.21-1.14-.5-1.7-.85-.26-.16-.52-.37-.78-.56-.27-.2-.54-.41-.8-.64-.34-.31-.68-.64-1.01-1-.14-.15-.29-.32-.43-.48-.39-.46-.78-.93-1.16-1.46-.04-.05-.07-.11-.11-.16-.59-.84-1.16-1.76-1.71-2.77,1.2.88,2.35,1.47,3.33,1.75,2.98.88,8.32,2.02,10.64-5.65.23-.75-.07-1.77-.38-1.33-.54.76-1.1,1.3-1.68,1.75.01-.52-.08-1-.28-1.23-.04-.03-.07-.09-.11-.11-.3-.13-.6-.34-.9-.58-.06-.05-.12-.11-.18-.16-.29-.26-.57-.55-.86-.89-.39-.47-.77-1.01-1.15-1.61,0,0,0,0,0,0-.75-1.2-1.48-2.64-2.18-4.22-.01-.03-.03-.06-.04-.09-.33-.76-.66-1.55-.98-2.35-.04-.1-.08-.19-.11-.29-.31-.79-.62-1.6-.91-2.42-.01-.03-.02-.06-.03-.09-.27-.75-.53-1.5-.79-2.25-.06-.17-.12-.34-.18-.52.82.27,1.67.44,2.54.5.08,0,.14-.06.19-.14,0-.01.02-.03.03-.05.1-.2.16-.52.17-.85,0,0,0-.01,0-.02,0-.41-.08-.8-.27-.85-.3-.07-.59-.19-.89-.33-.16-.08-.33-.19-.49-.29-.15-.1-.31-.18-.46-.3-.2-.15-.4-.34-.6-.52-.09-.08-.18-.15-.27-.24-.22-.22-.44-.47-.65-.72-.06-.07-.13-.14-.19-.22-.23-.29-.46-.6-.69-.92-.02-.03-.04-.06-.06-.08-.82-2.59-1.57-5.24-2.28-7.95,1.84,2.5,3.85,3.97,5.78,6.1.23.26.45-.74.24-1.13-2.23-4.14-4.97-5.76-7.1-10.3-.09-.2-.19-.38-.28-.58-.06-.16-.13-.32-.19-.47-.14-.64-.28-1.29-.43-1.93.07-.2.07-.53-.04-.62-.04-.03-.08-.07-.12-.1-.07-.31-.14-.61-.2-.93,4.19,3.05,8.8,3.17,13.15.62.58-.34.61-2.74.03-2.82-.35-.04-.7-.09-1.05-.14.11-.05.22-.09.33-.15.09-.05.1-.43,0-.44-.23-.05-.45-.13-.67-.19-.04-.06-.07-.15-.12-.18-4.06-1.8-7.58-6.86-10.67-13.74-.33-.73-.66-1.53-.98-2.33,1.75.87,3.54,1.12,5.34.65,1.8-.11,3.59-1.11,5.19-3.06,1.07-.44,2.13-1.24,3.17-2.64.08-.11.07-.43-.01-.44-.91-.17-1.82-.26-2.72-.33.03-.59-.07-1.21-.32-1.22-2.57-.05-4.81-1.59-6.79-4.2-.43-.57-.84-1.19-1.25-1.85,0-.01-.02-.03-.03-.04-.41-.67-.8-1.39-1.19-2.16-.39-.78-.78-1.62-1.15-2.49,0-.01,0-.02-.01-.03-.72-1.68-1.39-3.52-2.02-5.48-.05-.17-.11-.34-.16-.51-.3-.94-.59-1.89-.87-2.88,2.86,4.86,5.76,7.41,9.4,4.76.3-.22.25-1.38-.05-1.25-2.38,1.01-4.82-2.2-6.81-6.37,1.21.7,2.49.95,3.82.68.4-.08.51-1.59.1-1.74-.41-.15-.81-.36-1.21-.6-.19-.12-.37-.26-.55-.4-.19-.14-.38-.29-.57-.45-.24-.22-.48-.45-.72-.71-.1-.11-.2-.22-.31-.34-.28-.33-.56-.66-.83-1.04-.03-.04-.05-.07-.08-.11-.53-.74-1.02-1.57-1.5-2.5,0,0,0,0,0,0-1.17-2.27-2.19-5.05-3.03-8.3-.18-.78-.37-1.55-.55-2.29-.2-.92-.36-1.85-.53-2.78,1.88,5.23,4.29,8.89,6.88,11.09.44.37.69-1.35.3-1.88-2.37-3.21-4.34-8.3-5.86-14.22,2.11,3.03,4.46,4.64,7.15,4.82.05,0,.1-.04.14-.1,0-.01.01-.02.02-.03.07-.14.12-.37.12-.6,0,0,0,0,0-.01,0-.29-.06-.57-.19-.61-.21-.05-.42-.13-.63-.23-.12-.06-.23-.14-.35-.21-.11-.07-.22-.13-.33-.21-.14-.11-.28-.24-.43-.37-.06-.06-.13-.11-.19-.17-.16-.16-.31-.33-.46-.51-.04-.05-.09-.1-.13-.16-.17-.2-.33-.42-.49-.66-.03-.04-.06-.08-.09-.12-.17-.25-.35-.52-.52-.8-.01-.02-.03-.04-.04-.07-.37-.61-.73-1.28-1.08-2-1.68-3.48-3.15-8.04-4.31-12.17.9,1.82,1.86,3.1,2.84,3.65.13.07.22-.46.09-.56-5.99-4.44-6.28-27.69-6.98-41.6-.01-.31-.07-.57-.13-.78,0-.02-.02-.04-.03-.06-.07-.19-.14-.33-.23-.43,0,0,0,0,0-.01,0,0-.02,0-.03-.02-.06-.06-.13-.11-.19-.12-.08-.02-.16,0-.24.06,0-.66.02-1.3.01-1.95,0-.2-.02-.36-.04-.51,0-.02,0-.03-.01-.04-.18-.94-.77-.71-.97.39-4.96,27.42-12.08,54.24-23.41,59.82,0-.02-.02-.03-.03-.05-.28.14-.56.33-.84.44-.15.05-.17.57-.08.8,2.07,5.32,6.18,1.92,9.73-3.09-.54,1.12-1.09,2.23-1.67,3.26-1.98,3.47-4.44,8.65-6.77,9.41-.02,0-.05,0-.08,0-.02,0-.03.03-.05.05h0s0,0,0,0c-.03.03-.07.07-.09.13,0,.02,0,.04-.01.06-.07.25-.08.63.05.76.27.29.57.55.88.79,0,0,0,0,.01.01.26.2.52.38.8.55.11.07.24.12.35.18.19.1.39.21.59.29.13.06.27.1.41.15.2.07.39.14.6.2.14.04.29.07.43.1.21.05.42.08.64.11.14.02.29.03.43.04.23.02.45.02.68.02.14,0,.27,0,.41-.01.25-.02.51-.06.77-.1.12-.02.23-.03.35-.06.37-.08.75-.19,1.12-.33-1.31,4.38-2.79,8.28-4.89,11.6-.6.96-1.21,1.91-1.82,2.85-.02.03-.03.05-.05.08-.62.95-1.25,1.88-1.88,2.77-.36.51-.72,1-1.09,1.47-.05.06-.1.13-.15.19-.32.4-.63.79-.95,1.16-.09.1-.18.21-.26.31-.3.33-.59.64-.89.94-.1.1-.21.22-.31.32-.39.38-.79.73-1.19,1.04-.57.02-1.11.04-1.6.09-.2.01-.28.61-.15.95.11.29.25.55.37.82-.02.29,0,.57.03.81,0,0,0,.01,0,.01,0,0,0,0,0,0,.02.12.05.21.09.28.01.02.02.05.03.07.05.07.11.12.19.1.11,0,.23-.05.34-.08.21.29.42.55.65.79.08.08.16.14.23.21.15.14.31.29.47.41.11.08.22.13.32.2.14.09.28.18.42.25.13.07.27.11.4.17.12.05.25.1.37.14.16.05.33.08.49.11.1.02.21.05.31.06.2.03.39.04.59.05.07,0,.15,0,.22,0,.24,0,.48-.01.72-.03.03,0,.06,0,.1,0,.38-.04.77-.1,1.16-.19-.97,1.86-2,3.57-3.06,4.62-.92.37-1.88.42-2.9.06-.12-.04-.21.41-.14.65.03.08.06.13.08.2-.13-.04-.18.47-.09.66.34.79.71,1.28,1.11,1.56.12.22.26.39.38.56,0,0,.01.01.02.02.49.68,1.02,1.16,1.58,1.42,0,0,0,0,.01,0,.21.08.41.16.62.2-2.28,2.56-4.81,4.12-7.07,4.18-.28-.05-.55-.15-.83-.26-.3-.27-.59-.57-.88-.89-.52-.59-.89,1.27-.65,2.37,1.13,5.34,3.74,7.94,6.26,9.21.34.17.68.32,1.01.45-.36.98-.74,1.94-1.13,2.85-.26.59-.55,1.21-.85,1.84-.13.26-.27.53-.4.8-.18.35-.36.7-.54,1.05-.2.37-.4.74-.6,1.11-.12.21-.24.43-.37.64-1.6,2.77-3.47,5.5-5.29,7.48,0,0,0,0,0,0-.34.37-.68.72-1.02,1.04-.39.36-.77.7-1.14.97-1.5,0-2.96-.38-4.31-1.27-.11-.07-.29.27-.22.64.21.99.46,1.85.73,2.62.03.07.05.15.07.22,0,0,0,0,0,0,.22.59.46,1.1.72,1.56.05.09.1.18.16.27.25.43.52.81.8,1.13,0,0,.01.02.02.02.29.32.59.58.9.81.07.05.14.1.22.15.31.2.63.37.95.49-1.25.62-2.5,1.15-3.75,1.66-.21.09-.18.83-.01.92,2.05,1.11,4.7,1.26,7.32,0-.77,1.29-1.53,2.46-2.2,3.49-.36.55-.73,1.05-1.11,1.51-.03.04-.06.07-.1.11-.35.42-.7.81-1.05,1.16-.02.02-.04.04-.06.06-.45.44-.91.82-1.37,1.15-.03.03-.07.05-.1.08-.48.33-.96.61-1.45.83-.02,0-.03.01-.05.02-.43.19-.87.33-1.31.44-.1.03-.21.05-.31.07-.45.09-.91.15-1.36.16-.58-.36-1.16-.7-1.74-1.01-.14-.07-.22.46-.15.71.02.06.04.11.06.17-.11.09-.16.51-.07.71.24.55.5,1.02.76,1.45.16.44.33.81.5,1.2,0,0,0,0,0,.01,1.19,2.84,2.61,4.71,4.19,5.82.01.01.03.02.04.03.38.26.76.49,1.16.67.05.02.1.03.15.06.36.16.73.3,1.1.39.12.03.24.04.35.06.31.06.62.13.94.16.44.04.89.04,1.34,0-.35.3-.71.56-1.07.79-.33.21-.65.38-.98.53-.03.01-.06.03-.09.04-.82-.03-1.64,0-2.46.13-.12.02-.23.16-.31.37-.58-.2-1.15-.41-1.68-.66-.41-.2-.55,1.36-.31,1.94,4.98,12.1,14.04,7.05,20.96,1.24-.13.78-.28,1.55-.43,2.32-1.19,2.98-2.52,5.75-4.11,8.28-.84,1.34-1.69,2.69-2.55,4-.02.04-.05.07-.07.11-.87,1.34-1.75,2.64-2.64,3.88-.51.71-1.02,1.4-1.53,2.06-.07.09-.14.18-.21.27-.44.57-.89,1.1-1.34,1.63-.12.14-.25.3-.37.44-.42.47-.83.9-1.25,1.32-.14.14-.29.31-.43.44-.55.53-1.11,1.02-1.68,1.45-.8.03-1.56.06-2.24.12-.28.02-.39.86-.21,1.34.16.41.35.77.53,1.15-.03.4,0,.81.05,1.14,0,0,0,.01,0,.02,0,0,0,0,0,0,.03.16.08.29.13.4.01.03.02.07.04.1.07.11.16.17.27.14.15,0,.32-.08.48-.11.29.41.59.78.91,1.11.11.11.22.19.33.29.22.2.43.41.66.57.15.11.3.19.45.28.2.12.39.25.59.35.19.09.38.16.57.23.18.07.35.14.53.2.23.07.46.11.69.16.15.03.29.07.44.09.28.04.55.05.83.07.1,0,.21.01.31.01.33,0,.67-.02,1.01-.05.05,0,.09,0,.14-.01.54-.06,1.08-.14,1.62-.27-1.37,2.62-2.8,5.01-4.29,6.49-1.29.51-2.64.6-4.07.08-.17-.05-.3.58-.2.91.04.11.08.18.12.29-.18-.05-.25.66-.13.93.47,1.11,1,1.8,1.56,2.19.17.3.36.55.54.79,0,.01.02.02.02.03.69.96,1.43,1.63,2.21,1.99,0,0,.01,0,.02.01.29.12.57.23.88.29-3.2,3.6-6.75,5.79-9.93,5.87-.39-.07-.77-.21-1.16-.37-.42-.39-.83-.8-1.24-1.25-.73-.83-1.25,1.79-.92,3.33,1.59,7.5,5.25,11.15,8.79,12.93.48.24.95.45,1.42.63-.51,1.38-1.03,2.72-1.59,4-.36.83-.77,1.7-1.2,2.58-.18.37-.37.75-.57,1.12-.25.49-.5.98-.76,1.47-.28.52-.56,1.03-.85,1.55-.17.3-.34.6-.51.9-2.25,3.9-4.87,7.72-7.43,10.5,0,0,0,0-.01.01-.48.52-.96,1.01-1.43,1.46-.54.5-1.08.99-1.6,1.37-2.11,0-4.15-.53-6.05-1.78-.16-.09-.41.39-.3.9.29,1.39.64,2.59,1.02,3.67.04.1.07.22.1.31,0,0,0,0,0,.01.31.83.65,1.54,1.01,2.19.07.13.15.26.22.38.36.6.72,1.14,1.12,1.59,0,0,.02.02.03.03.4.46.83.82,1.26,1.13.1.07.2.14.3.21.44.28.88.53,1.34.69-1.75.87-3.51,1.61-5.27,2.33-.29.12-.25,1.16-.02,1.29,2.88,1.56,6.6,1.77,10.28.01-1.09,1.81-2.14,3.45-3.09,4.89-.51.77-1.03,1.48-1.55,2.12-.04.05-.09.1-.13.15-.49.59-.98,1.13-1.47,1.62-.03.03-.06.06-.09.08-.64.62-1.28,1.16-1.92,1.62-.05.03-.1.07-.15.11-.67.47-1.35.86-2.03,1.17-.02.01-.05.02-.07.03-.61.27-1.22.46-1.83.62-.15.04-.29.07-.44.1-.64.13-1.28.22-1.91.22-.81-.51-1.62-.98-2.45-1.42-.19-.09-.31.64-.21,1,.02.09.05.15.08.24-.16.13-.23.72-.1.99.34.77.7,1.43,1.07,2.04.22.62.46,1.13.7,1.69,0,0,0,.01,0,.02,1.67,3.98,3.67,6.61,5.88,8.17.02.01.04.02.06.04.53.37,1.07.69,1.62.95.07.03.14.05.2.08.51.22,1.02.42,1.55.56.16.04.33.05.5.09.44.09.88.18,1.32.22.62.05,1.25.05,1.88,0-.5.42-1,.78-1.5,1.11-.46.29-.92.53-1.38.75-.04.02-.08.04-.12.06-1.15-.04-2.3,0-3.45.18-.17.02-.32.22-.44.51-.82-.28-1.61-.58-2.35-.93-.57-.27-.77,1.91-.43,2.72,6.99,16.98,19.71,9.9,29.43,1.74-.37,2.18-.81,4.31-1.22,6.46-.38,2-.74,4.02-1.15,6.01-.75,3.64-1.54,7.27-2.4,10.91-.03.15-.04.3-.03.44,0,.02,0,.02,0,.04.02.22.09.36.17.35.04,0,.08-.02.12-.12.39-.86.77-1.69,1.15-2.53.3-.6.6-1.25.9-1.89-.32.91-.62,1.83-.96,2.69-.15.4.01.99.19.65,4.62-9.61,9.04-17.95,12.74-30.01.26,6.79.84,12.68,2.02,18.79.08.48.37.1.29-.39-.59-3.48-.93-7.47-1.13-11.65.32,1.66.65,3.23.98,4.68.61,2.65,1.31,5.08,2.03,7.43-1.51,24.73-3.64,50.64-3.64,50.64,7.47,9.59,11.37-1.76,11.37-1.76.1-11.81,1-35.89,1.76-54.64,1.11,4.25,2.34,8.26,3.48,12.15.11.36.32-.14.22-.51-1.16-4.51-2.21-9.47-3.11-14.59,1.57,4.45,3.3,8.43,5.19,11.68.49.85,1,1.59,1.51,2.3.25.35.5.69.75,1.02,0,0,.01.02.02.03.03.04.07.07.1.11,1.55,1.96,3.18,3.46,4.86,4.66.11.08.22.17.33.25.47.32.94.62,1.41.91.19.12.39.24.59.35.44.25.87.49,1.31.72.25.13.51.26.77.39.4.2.79.39,1.19.58.38.18.76.35,1.13.52.91.41,1.82.81,2.72,1.23.09.04.17.02.24-.02.03-.02.05-.04.07-.07.05-.05.09-.1.13-.18.02-.04.04-.08.06-.12.04-.11.08-.23.12-.36,0-.03.02-.05.02-.08.04-.17.06-.35.08-.55,0-.06,0-.12.01-.18.01-.14.02-.29.02-.44,0-.06,0-.13,0-.19,0-.17-.01-.33-.03-.48,0-.04,0-.08,0-.11,0,0,0,0,0,0,0-.05-.02-.09-.03-.14-.06-.34-.15-.63-.29-.79-.62-.71-1.23-1.36-1.85-1.98-.38-.39-.75-.77-1.13-1.13-.56-.8-1.11-1.67-1.64-2.6-.03-.18-.08-.34-.16-.42-.11-.11-.21-.29-.31-.41-.98-1.83-1.88-3.91-2.68-6.39-.07-.21-.14-.46-.21-.7,5.49,10.89,12.58,16.92,19.55,15.68.01,0,.03,0,.04,0,.6-.11,1.2-.28,1.79-.5.05-.02.11-.04.16-.06.57-.22,1.14-.49,1.7-.81.08-.04.15-.09.23-.14.55-.33,1.09-.7,1.63-1.13.09-.07.18-.15.28-.23.53-.43,1.05-.91,1.57-1.44.1-.1.2-.22.3-.33.51-.54,1.02-1.12,1.51-1.76.03-.03.05-.06.08-.09.46-.62.93-1.21,1.38-1.91.37-.56.26-2.26-.17-1.93-.41.31-.82.5-1.23.76-.05-.06-.1-.14-.17-.15-.46-.21-.93-.45-1.39-.72,0,0,0,0,0,0-4.09-2.31-7.98-6.85-11.18-13.74.88.98,1.76,1.92,2.65,2.89.43.48.69-1.35.3-1.9-2.11-2.96-4.4-6.01-6.22-10.32,2.65,2.61,5.4,4.27,7.53,4.89,4.19,1.23,11.67,2.84,14.94-7.94Z"
  />
  <path
    class="cls-1"
    d="M463.91,1082.39c.24-.68,0-1.63-.29-1.24-.53.68-1.07,1.15-1.62,1.54.03-.48-.03-.93-.21-1.14-.03-.03-.06-.08-.1-.11-.27-.13-.54-.34-.81-.57-.05-.05-.11-.1-.16-.16-.25-.25-.51-.53-.75-.85-.34-.45-.67-.96-.99-1.53,0,0,0,0,0,0-.64-1.13-1.25-2.5-1.83-3.98-.01-.03-.02-.06-.03-.09-.28-.71-.54-1.45-.81-2.21-.03-.09-.06-.18-.09-.27-.25-.74-.5-1.5-.74-2.27,0-.03-.02-.06-.03-.09-.22-.7-.43-1.4-.63-2.1-.06-.2-.12-.39-.17-.59-.19-.65-.37-1.29-.54-1.92-.07-.26-.14-.51-.21-.76-.17-.62-.34-1.24-.49-1.83-.65-2.45-1.24-4.95-1.78-7.51,1.59,2.38,3.38,3.82,5.07,5.87.2.25.44-.66.27-1.03-1.88-3.91-4.33-5.51-6.11-9.79-.08-.19-.16-.36-.24-.55-.05-.15-.1-.3-.16-.44-.2-1.1-.39-2.2-.57-3.33,3.73,2.98,7.97,3.29,12.09,1.13.55-.28.68-2.5.15-2.6-.32-.05-.64-.11-.96-.18.1-.04.21-.07.31-.12.08-.04.11-.39.02-.41-.21-.05-.41-.14-.61-.2-.03-.06-.06-.14-.1-.17-3.66-1.83-6.69-6.64-9.24-13.11-.27-.69-.54-1.43-.81-2.19,1.58.87,3.22,1.18,4.89.82,1.66-.03,3.36-.87,4.91-2.6,1-.36,2.01-1.05,3.03-2.3.08-.1.08-.39,0-.41-.83-.2-1.66-.31-2.49-.42.05-.54-.01-1.12-.24-1.14-2.36-.15-4.36-1.67-6.08-4.16-.37-.54-.73-1.13-1.07-1.76,0-.01-.01-.03-.02-.04-.35-.64-.68-1.32-1-2.04-.33-.74-.65-1.52-.95-2.34,0,0,0-.02-.01-.03-.29-.78-.57-1.59-.83-2.43.28.01.57.01.85-.03,0,0,.01,0,.02,0,.28-.04.56-.1.85-.19.03,0,.05-.02.08-.02.27-.09.54-.2.81-.34.03-.01.05-.03.08-.04,1.26.64,2.62.57,4.17-.45.28-.19.29-1.26,0-1.15-.65.24-1.29.14-1.91-.2.11-.12.23-.25.34-.38.01-.01.03-.03.04-.04.23-.28.46-.55.69-.86.19-.26.17-1.05-.04-.91-.2.14-.39.22-.59.33-.02-.03-.04-.07-.07-.08-.21-.11-.42-.23-.63-.37,0,0,0,0,0,0-1.14-.71-2.22-1.81-3.2-3.31.91.44,1.86.6,2.87.44.37-.06.53-1.45.17-1.6-.37-.15-.74-.36-1.09-.61-.17-.12-.33-.26-.49-.39-.17-.14-.34-.28-.51-.44-.21-.21-.43-.44-.63-.68-.09-.11-.18-.22-.27-.33-.24-.31-.48-.64-.72-.99-.02-.03-.04-.07-.06-.11-.36-.57-.71-1.19-1.04-1.87.76.61,1.5,1.03,2.13,1.25,1.93.66,5.39,1.58,7.15-3.39.17-.49,0-1.16-.21-.89-.38.48-.76.82-1.16,1.1.02-.34-.02-.66-.15-.81-.02-.02-.04-.06-.07-.08-.2-.09-.39-.24-.58-.41-.04-.03-.08-.07-.12-.11-.18-.18-.36-.38-.54-.61-.24-.32-.48-.68-.71-1.09,0,0,0,0,0,0-.46-.81-.89-1.78-1.31-2.84,0-.02-.02-.04-.02-.06-.2-.51-.39-1.03-.57-1.57-.02-.06-.04-.13-.07-.19-.18-.53-.36-1.07-.53-1.61,0-.02-.01-.04-.02-.06-.15-.5-.3-1-.45-1.5-.03-.11-.07-.23-.1-.34.53.2,1.08.34,1.65.4.05,0,.09-.03.13-.09,0,0,.01-.02.02-.03.07-.13.12-.34.13-.55,0,0,0,0,0-.01.01-.27-.03-.53-.15-.57-.19-.05-.38-.14-.57-.24-.11-.06-.21-.14-.31-.21-.1-.07-.2-.13-.29-.21-.13-.11-.25-.23-.38-.36-.06-.06-.11-.11-.17-.17-.14-.15-.27-.32-.41-.49-.04-.05-.08-.1-.12-.15-.14-.2-.29-.41-.43-.63-.01-.02-.02-.04-.04-.06-.46-1.72-.87-3.48-1.26-5.28,1.13,1.7,2.41,2.72,3.61,4.18.14.18.32-.47.19-.73-1.34-2.78-3.09-3.93-4.35-6.97-.06-.14-.11-.25-.17-.39-.04-.11-.07-.21-.11-.31-.08-.42-.15-.85-.22-1.28.05-.13.07-.35,0-.41-.03-.02-.05-.05-.07-.07-.03-.21-.07-.41-.11-.61,2.66,2.13,5.68,2.35,8.61.81.39-.2.48-1.78.1-1.85-.23-.04-.46-.08-.68-.13.07-.03.15-.05.22-.09.06-.03.08-.28.02-.29-.15-.04-.29-.1-.43-.15-.02-.04-.04-.1-.07-.12-2.61-1.31-4.77-4.73-6.58-9.34-.2-.49-.39-1.02-.57-1.56,1.12.62,2.29.84,3.48.58,1.18-.02,2.39-.62,3.5-1.85.71-.26,1.43-.75,2.16-1.64.06-.07.06-.28,0-.29-.59-.14-1.18-.22-1.77-.3.04-.38,0-.8-.17-.81-1.68-.11-3.11-1.19-4.33-2.96-.26-.39-.52-.8-.76-1.25,0,0-.01-.02-.02-.03-.25-.45-.49-.94-.71-1.45-.24-.53-.46-1.08-.68-1.67,0,0,0-.01,0-.02-.42-1.13-.8-2.35-1.16-3.66-.03-.11-.06-.22-.09-.34-.17-.62-.33-1.26-.48-1.91,1.73,3.28,3.56,5.04,6.03,3.41.2-.14.21-.89,0-.82-1.59.59-3.1-1.59-4.27-4.38.77.5,1.6.7,2.48.56.26-.04.38-1.03.12-1.14-.27-.11-.52-.26-.78-.43-.12-.08-.23-.18-.35-.28-.12-.1-.24-.2-.36-.32-.15-.15-.3-.31-.45-.49-.06-.08-.13-.15-.19-.23-.17-.22-.35-.45-.51-.71-.02-.02-.03-.05-.05-.07-.32-.5-.62-1.06-.91-1.69,0,0,0,0,0,0-.7-1.52-1.29-3.38-1.73-5.54-.09-.52-.19-1.03-.29-1.52-.1-.61-.18-1.23-.26-1.84,1.07,3.49,2.54,5.96,4.18,7.48.27.25.49-.86.25-1.22-1.46-2.18-2.6-5.58-3.41-9.51,1.29,2.05,2.79,3.18,4.54,3.38.04,0,.07-.02.09-.06,0,0,0-.01.01-.02.05-.09.09-.24.1-.39,0,0,0,0,0,0,0-.19-.02-.37-.11-.4-.14-.04-.27-.1-.41-.17-.07-.04-.15-.1-.22-.15-.07-.05-.14-.09-.21-.15-.09-.08-.18-.17-.27-.26-.04-.04-.08-.08-.12-.12-.1-.11-.19-.23-.29-.35-.03-.04-.06-.07-.08-.11-.1-.14-.2-.29-.3-.45-.02-.03-.03-.05-.05-.08-.11-.17-.21-.35-.31-.54,0-.02-.02-.03-.02-.05-.22-.41-.44-.86-.64-1.35-1-2.33-1.82-5.37-2.46-8.12.54,1.22,1.13,2.09,1.75,2.48.08.05.16-.29.07-.36-3.8-3.1-3.28-18.36-3.32-27.51,0-.21-.03-.37-.06-.52,0-.02-.01-.02-.01-.04-.04-.13-.08-.22-.14-.29,0,0,0,0,0,0,0,0-.01,0-.02-.01-.04-.04-.08-.08-.12-.08-.05-.02-.11,0-.16.03.02-.43.05-.85.07-1.28,0-.13,0-.24-.01-.33,0-.01,0-.02,0-.03-.09-.62-.49-.49-.65.22-4.09,17.84-9.57,35.22-17.17,38.54,0-.01-.01-.02-.02-.03-.19.08-.37.2-.57.27-.1.03-.13.37-.08.52,1.2,3.55,4,1.45,6.48-1.73-.39.72-.78,1.43-1.2,2.09-1.41,2.22-3.17,5.54-4.72,5.97-.02,0-.03,0-.05,0-.01,0-.02.02-.03.03h0s0,0,0,0c-.02.02-.05.04-.06.08,0,.01,0,.03-.01.04-.06.16-.07.41,0,.5.17.2.36.38.55.55,0,0,0,0,0,0,.16.14.33.27.51.39.07.05.15.09.23.13.12.07.25.15.38.21.09.04.18.08.26.11.13.05.25.1.39.15.09.03.18.05.28.08.14.04.27.07.41.09.09.02.19.03.28.04.15.02.3.03.45.03.09,0,.18,0,.27,0,.17,0,.34-.02.51-.04.08,0,.15-.01.23-.03.25-.04.5-.1.74-.19-1,2.84-2.08,5.35-3.56,7.46-.42.61-.85,1.22-1.28,1.82-.01.02-.02.03-.04.05-.44.61-.88,1.2-1.32,1.76-.25.32-.5.63-.76.93-.03.04-.07.08-.1.12-.22.26-.44.5-.66.73-.06.06-.12.13-.18.2-.2.21-.41.4-.61.59-.07.06-.14.14-.21.2-.27.24-.54.45-.81.64-.37,0-.73,0-1.05,0-.13,0-.2.39-.13.62.07.19.15.37.22.55-.02.19-.02.38,0,.53,0,0,0,0,0,0,0,0,0,0,0,0,.01.08.03.14.05.19,0,.01,0,.04.02.05.03.05.07.08.12.07.07,0,.15-.03.23-.04.13.2.26.38.4.54.05.05.1.09.15.14.1.1.19.2.29.28.07.05.14.09.21.14.09.06.18.13.27.18.08.05.17.08.26.12.08.04.16.08.24.1.1.04.21.06.32.09.07.02.13.04.2.05.13.02.26.04.39.05.05,0,.1.01.15.01.16,0,.31,0,.47,0,.02,0,.04,0,.06,0,.25-.02.51-.04.76-.09-.69,1.19-1.42,2.28-2.15,2.94-.61.21-1.25.22-1.9-.05-.08-.03-.15.27-.11.42.02.05.04.09.05.14-.09-.03-.13.3-.08.43.2.53.43.86.68,1.06.07.14.16.26.24.38,0,0,0,0,.01.01.3.46.63.79.99.98,0,0,0,0,0,0,.13.06.26.12.4.15-1.57,1.61-3.28,2.56-4.77,2.53-.18-.04-.36-.11-.53-.2-.19-.19-.37-.39-.55-.61-.32-.4-.62.81-.5,1.54.58,3.54,2.21,5.32,3.83,6.23.22.12.43.23.65.32-.27.63-.54,1.25-.83,1.84-.19.38-.4.78-.62,1.18-.09.17-.19.34-.29.51-.13.22-.25.45-.39.67-.14.24-.28.47-.43.71-.08.14-.17.27-.26.41-1.14,1.77-2.44,3.5-3.7,4.75,0,0,0,0,0,0-.24.23-.47.45-.7.65-.26.22-.53.44-.78.6-.99-.05-1.93-.34-2.79-.96-.07-.05-.2.17-.16.41.11.66.24,1.23.4,1.74.01.05.03.1.04.15,0,0,0,0,0,0,.13.39.27.74.42,1.05.03.06.06.12.09.18.15.29.31.55.49.77,0,0,0,.01.01.02.18.22.37.4.56.56.05.04.09.07.14.1.2.14.4.26.61.35-.84.37-1.67.68-2.51.98-.14.05-.14.54-.04.6,1.31.79,3.05.97,4.81.23-.55.82-1.08,1.56-1.55,2.22-.26.35-.51.67-.77.96-.02.02-.04.05-.07.07-.24.26-.48.51-.72.73-.01.01-.03.02-.04.04-.31.28-.62.51-.93.72-.02.02-.05.03-.07.05-.32.2-.65.37-.97.5-.01,0-.02,0-.03.01-.29.11-.58.19-.87.25-.07.01-.14.03-.21.04-.3.05-.6.07-.9.06-.37-.25-.74-.49-1.11-.71-.09-.05-.16.29-.12.46,0,.04.02.07.03.11-.08.06-.12.33-.07.46.14.37.3.69.46.98.09.29.19.54.29.8,0,0,0,0,0,0,.69,1.9,1.57,3.17,2.57,3.94,0,0,.02.01.03.02.24.18.49.35.74.48.03.02.06.03.09.04.23.11.47.22.71.29.08.02.15.03.23.05.2.05.41.11.61.13.29.04.58.05.88.05-.24.19-.48.34-.72.48-.22.13-.44.23-.66.32-.02,0-.04.02-.06.03-.54-.05-1.07-.05-1.61,0-.08,0-.16.1-.22.23-.37-.15-.74-.31-1.08-.49-.26-.14-.4.88-.26,1.26,2.9,8.09,9,5.05,13.71,1.45-.11.51-.23,1.01-.35,1.51-.87,1.92-1.83,3.7-2.95,5.31-.59.86-1.19,1.71-1.8,2.55-.02.02-.03.05-.05.07-.61.85-1.23,1.68-1.85,2.47-.35.45-.71.89-1.07,1.31-.05.06-.1.11-.14.17-.31.36-.62.7-.93,1.03-.09.09-.17.19-.26.27-.29.3-.57.56-.86.83-.1.09-.2.19-.3.28-.38.33-.76.64-1.14.9-.52,0-1.03,0-1.47.01-.18,0-.28.55-.18.87.09.27.2.52.31.77-.03.26-.03.53,0,.75,0,0,0,0,0,.01,0,0,0,0,0,0,.01.11.04.19.07.27,0,.02.01.05.02.07.04.07.1.11.17.1.1,0,.21-.04.32-.06.18.28.36.53.56.75.07.07.14.13.21.2.14.14.27.28.41.39.09.08.19.13.29.2.12.09.25.18.38.25.12.07.24.11.37.17.11.05.22.11.34.15.15.05.3.09.45.12.09.02.19.05.28.07.18.03.36.05.54.07.07,0,.14.02.2.02.22.01.44,0,.66,0,.03,0,.06,0,.09,0,.35-.02.71-.06,1.07-.13-.97,1.67-1.99,3.2-3.01,4.13-.86.3-1.75.31-2.67-.07-.11-.04-.21.37-.16.59.02.07.05.12.07.19-.12-.04-.19.42-.12.61.28.75.6,1.21.96,1.49.1.2.22.37.33.54,0,0,0,.01.01.02.43.65.89,1.11,1.39,1.37,0,0,0,0,.01,0,.19.08.37.17.57.21-2.21,2.26-4.6,3.59-6.69,3.55-.25-.06-.5-.16-.75-.28-.26-.27-.52-.55-.77-.86-.46-.57-.87,1.14-.7,2.16.82,4.97,3.11,7.48,5.37,8.75.31.17.61.32.91.45-.38.89-.76,1.75-1.17,2.58-.26.53-.56,1.09-.86,1.66-.13.24-.27.48-.4.72-.18.31-.36.63-.54.94-.2.33-.4.66-.6.99-.12.19-.24.38-.36.57-1.59,2.49-3.43,4.91-5.19,6.66,0,0,0,0,0,0-.33.33-.66.63-.98.91-.37.31-.74.61-1.09.85-1.39-.07-2.71-.47-3.91-1.35-.1-.07-.28.24-.23.58.15.92.34,1.72.56,2.44.02.07.04.14.06.21,0,0,0,0,0,0,.18.55.38,1.03.6,1.47.04.09.09.17.13.26.22.4.44.77.69,1.08,0,0,.01.02.02.02.25.31.52.56.79.78.06.05.13.1.19.15.28.2.56.37.86.49-1.18.51-2.35.95-3.53,1.37-.2.07-.2.75-.05.85,1.84,1.11,4.28,1.36,6.75.32-.77,1.16-1.51,2.2-2.17,3.12-.36.49-.72.94-1.08,1.35-.03.03-.06.06-.09.1-.34.37-.68.71-1.01,1.02-.02.02-.04.03-.06.05-.44.39-.87.72-1.31,1.01-.03.02-.07.05-.1.07-.46.29-.91.52-1.37.71-.02,0-.03,0-.05.02-.41.16-.82.27-1.22.35-.1.02-.2.04-.29.05-.42.06-.84.1-1.26.09-.52-.36-1.04-.69-1.56-1-.12-.07-.22.41-.17.65.01.06.03.1.05.16-.11.08-.17.46-.09.65.2.52.42.96.64,1.37.13.41.27.76.41,1.13,0,0,0,0,0,.01.97,2.66,2.21,4.45,3.61,5.54.01.01.03.02.04.03.34.26.68.49,1.04.67.04.02.09.04.13.06.33.16.66.31,1,.41.11.03.22.05.32.07.29.07.57.15.86.18.41.05.82.07,1.23.06-.34.26-.68.48-1.02.68-.31.18-.62.32-.93.45-.03.01-.05.03-.08.04-.75-.06-1.51-.07-2.27.01-.11,0-.22.14-.3.32-.53-.21-1.04-.43-1.52-.68-.37-.2-.56,1.23-.37,1.77,4.07,11.35,12.63,7.09,19.25,2.03-.31,1.42-.66,2.81-.99,4.2-.31,1.3-.61,2.61-.94,3.91-.6,2.37-1.23,4.72-1.9,7.08-.03.1-.03.2-.03.29,0,.01,0,.02,0,.03,0,.14.05.24.1.23.02,0,.05-.01.08-.08.28-.55.56-1.09.83-1.63.22-.38.43-.8.65-1.22-.23.59-.46,1.18-.71,1.74-.11.25-.02.65.1.43,3.32-6.16,6.47-11.5,9.27-19.3-.04,4.46.17,8.34.75,12.39.04.32.24.08.2-.25-.28-2.3-.38-4.93-.39-7.68.16,1.1.33,2.14.5,3.1.32,1.76.7,3.37,1.11,4.93-1.74,16.18-3.92,33.11-3.92,33.11,4.61,6.52,7.51-.81,7.51-.81.42-7.75,1.74-23.52,2.81-35.8.6,2.82,1.29,5.49,1.91,8.08.06.24.21-.08.16-.33-.63-2.99-1.17-6.28-1.6-9.67.89,2.97,1.91,5.63,3.05,7.82.3.57.61,1.08.92,1.56.15.24.31.47.46.69,0,0,0,.01.01.02.02.03.04.05.06.08.96,1.33,1.98,2.36,3.04,3.2.07.06.14.12.21.17.3.23.6.44.9.64.12.08.25.17.37.25.28.18.56.35.84.51.16.09.33.19.49.28.25.14.51.28.76.42.24.13.48.25.73.38.58.3,1.17.59,1.75.89.06.03.11.02.16,0,.02,0,.03-.03.05-.04.03-.03.06-.06.09-.11.02-.03.03-.05.04-.08.03-.07.06-.15.09-.24,0-.02.01-.03.02-.05.03-.11.05-.23.07-.36,0-.04,0-.08.01-.12.01-.09.02-.19.03-.29,0-.04,0-.08,0-.12,0-.11,0-.21,0-.32,0-.02,0-.05,0-.07,0,0,0,0,0,0,0-.03-.01-.06-.02-.09-.03-.22-.08-.42-.16-.53-.38-.49-.77-.93-1.15-1.36-.23-.26-.47-.52-.7-.78-.34-.54-.67-1.13-.99-1.75-.01-.12-.04-.23-.09-.28-.07-.07-.13-.2-.19-.28-.59-1.23-1.12-2.62-1.57-4.27-.04-.14-.08-.3-.12-.47,3.27,7.31,7.74,11.48,12.35,10.88,0,0,.02,0,.03,0,.4-.05.79-.15,1.19-.27.04-.01.07-.02.11-.03.38-.13.76-.29,1.14-.48.05-.03.1-.05.16-.08.37-.2.74-.43,1.1-.69.06-.04.12-.09.19-.14.36-.27.72-.56,1.07-.9.07-.07.14-.14.21-.2.35-.34.7-.71,1.05-1.11.02-.02.04-.04.05-.06.32-.39.65-.77.96-1.21.26-.36.24-1.47-.05-1.27-.28.19-.55.31-.83.46-.03-.04-.06-.09-.1-.11-.3-.15-.59-.32-.89-.52,0,0,0,0,0,0-2.62-1.64-5.03-4.73-6.92-9.35.55.67,1.1,1.31,1.65,1.98.27.33.49-.87.25-1.24-1.3-2.01-2.71-4.08-3.77-6.96,1.66,1.79,3.41,2.97,4.79,3.44,2.71.93,7.57,2.21,10.04-4.76Z"
  />
  <path
    class="cls-1"
    d="M374.89,1054.1c-.15-.53.08-1.23.29-.92.36.54.75.92,1.15,1.25,0-.36.07-.7.22-.85.03-.02.05-.06.08-.08.21-.08.43-.22.64-.39.04-.03.09-.07.13-.11.2-.18.41-.37.61-.6.28-.32.56-.69.83-1.11,0,0,0,0,0,0,.54-.82,1.08-1.82,1.59-2.91.01-.02.02-.04.03-.06.25-.52.49-1.07.72-1.63.03-.07.06-.13.08-.2.23-.55.46-1.11.68-1.67,0-.02.02-.04.02-.06.2-.52.39-1.04.59-1.55.05-.15.11-.29.16-.44.17-.48.34-.96.51-1.42.07-.19.13-.38.2-.56.16-.46.32-.92.47-1.36.62-1.81,1.2-3.67,1.74-5.57-1.32,1.71-2.75,2.71-4.13,4.17-.17.18-.3-.53-.15-.79,1.62-2.85,3.56-3.94,5.12-7.07.07-.14.14-.26.21-.4.05-.11.09-.22.14-.33.21-.82.41-1.64.61-2.49-2.98,2.06-6.2,2.07-9.19.22-.4-.24-.38-1.92.02-1.97.24-.02.49-.05.73-.08-.08-.03-.15-.07-.23-.11-.06-.04-.06-.3,0-.31.16-.03.31-.08.47-.12.03-.04.05-.11.09-.12,2.86-1.19,5.4-4.67,7.67-9.42.24-.5.48-1.05.72-1.61-1.24.58-2.49.72-3.74.36-1.25-.11-2.49-.83-3.57-2.22-.74-.33-1.47-.9-2.17-1.9-.05-.08-.04-.3.02-.31.64-.1,1.27-.15,1.9-.19-.01-.41.07-.84.24-.85,1.79,0,3.38-1.03,4.81-2.82.31-.39.61-.81.9-1.27,0,0,.01-.02.02-.03.3-.46.58-.96.86-1.49.29-.54.57-1.11.84-1.72,0,0,0-.01.01-.02.26-.57.51-1.17.76-1.79-.21,0-.43-.02-.64-.07,0,0,0,0-.01,0-.21-.04-.42-.11-.63-.19-.02,0-.04-.01-.06-.02-.2-.08-.4-.18-.6-.3-.02-.01-.04-.02-.06-.04-.98.42-2.01.29-3.12-.56-.2-.16-.15-.96.05-.87.48.21.97.18,1.45-.05-.08-.1-.16-.2-.24-.3,0-.01-.02-.02-.03-.03-.16-.22-.32-.44-.47-.69-.13-.2-.07-.8.08-.68.14.11.28.18.43.28.02-.02.04-.05.06-.05.17-.07.33-.15.5-.24,0,0,0,0,0,0,.9-.48,1.77-1.25,2.59-2.33-.71.28-1.44.36-2.19.18-.28-.06-.33-1.12-.04-1.22.29-.1.57-.24.86-.4.13-.08.26-.18.39-.27.14-.1.27-.2.4-.31.17-.15.34-.31.51-.48.07-.07.15-.15.22-.23.2-.22.4-.45.59-.71.02-.02.04-.05.05-.08.3-.41.6-.86.88-1.36-.61.42-1.19.7-1.67.83-1.49.4-4.16.91-5.22-2.93-.11-.38.06-.88.2-.66.26.38.53.66.82.89,0-.26.05-.5.15-.61.02-.02.04-.04.06-.05.15-.06.3-.16.46-.28.03-.02.06-.05.09-.08.15-.12.29-.26.44-.43.2-.23.4-.49.59-.79,0,0,0,0,0,0,.39-.59.77-1.3,1.13-2.07,0-.02.01-.03.02-.05.18-.37.35-.76.52-1.16.02-.05.04-.09.06-.14.16-.39.33-.79.48-1.19,0-.02.01-.03.02-.05.14-.37.28-.74.42-1.11.03-.08.06-.17.09-.25-.41.13-.83.2-1.27.22-.04,0-.07-.03-.09-.07,0,0,0-.02-.01-.02-.05-.1-.07-.26-.07-.42,0,0,0,0,0-.01,0-.2.05-.4.14-.42.15-.03.3-.09.45-.15.08-.04.16-.09.25-.14.08-.05.15-.09.23-.14.1-.07.2-.16.3-.25.05-.04.09-.07.14-.12.11-.11.22-.23.33-.35.03-.04.06-.07.1-.11.12-.14.24-.29.35-.45,0-.01.02-.03.03-.04.44-1.28.84-2.58,1.22-3.92-.94,1.22-1.96,1.93-2.94,2.97-.12.13-.21-.37-.11-.57,1.16-2.03,2.54-2.8,3.65-5.04.05-.1.1-.19.15-.29.03-.08.07-.16.1-.23.08-.32.16-.64.23-.95-.03-.1-.03-.26.03-.31.02-.01.04-.03.06-.05.04-.15.08-.3.11-.46-2.12,1.47-4.41,1.47-6.54.16-.29-.17-.27-1.37.02-1.4.17-.02.35-.04.52-.06-.05-.02-.11-.05-.16-.08-.04-.03-.04-.21,0-.22.11-.02.22-.06.34-.09.02-.03.04-.08.06-.09,2.04-.85,3.85-3.32,5.46-6.71.17-.36.35-.75.51-1.15-.88.41-1.77.52-2.66.26-.89-.08-1.77-.59-2.55-1.58-.53-.23-1.04-.64-1.54-1.35-.04-.06-.03-.21.01-.22.45-.07.91-.11,1.36-.14,0-.29.05-.6.17-.6,1.28,0,2.41-.73,3.42-2.01.22-.28.43-.58.64-.9,0,0,0-.01.01-.02.21-.33.42-.68.62-1.06.21-.39.41-.79.6-1.22,0,0,0-.01,0-.02.38-.83.73-1.74,1.07-2.7.03-.08.06-.17.09-.25.16-.46.31-.93.47-1.42-1.48,2.38-2.95,3.62-4.73,2.26-.14-.11-.11-.69.04-.62,1.17.53,2.42-1.04,3.46-3.09-.61.33-1.25.44-1.9.29-.2-.04-.23-.8-.03-.87.21-.07.41-.17.61-.29.09-.06.19-.13.28-.19.1-.07.19-.14.29-.22.12-.11.25-.22.37-.34.05-.05.1-.11.16-.17.14-.16.28-.32.42-.51.01-.02.03-.04.04-.05.27-.36.53-.77.78-1.23,0,0,0,0,0,0,.61-1.11,1.15-2.48,1.6-4.09.1-.39.2-.76.3-1.13.11-.45.2-.92.3-1.37-.99,2.58-2.23,4.37-3.55,5.43-.22.18-.33-.68-.13-.94,1.22-1.57,2.25-4.08,3.08-7-1.08,1.48-2.27,2.25-3.61,2.31-.03,0-.05-.02-.07-.05,0,0,0-.01,0-.02-.04-.07-.05-.19-.05-.3,0,0,0,0,0,0,0-.15.03-.28.1-.3.11-.02.21-.06.32-.11.06-.03.12-.07.18-.1.06-.03.11-.06.16-.1.07-.05.14-.12.22-.18.03-.03.06-.05.1-.08.08-.08.16-.16.24-.25.02-.03.05-.05.07-.08.08-.1.17-.21.25-.32.01-.02.03-.04.04-.06.09-.12.18-.25.27-.39,0-.01.01-.02.02-.03.19-.3.38-.63.56-.98.88-1.71,1.66-3.96,2.28-6-.47.89-.96,1.52-1.45,1.78-.06.03-.1-.23-.04-.28,3.03-2.14,3.44-13.69,3.95-20.6.01-.16.04-.28.07-.39,0-.01,0-.02.01-.03.03-.09.08-.16.12-.21,0,0,0,0,0,0,0,0,0,0,.01,0,.03-.03.06-.05.1-.06.04,0,.08,0,.12.03,0-.33,0-.65.02-.97,0-.1.01-.18.03-.25,0,0,0-.01,0-.02.1-.47.39-.35.48.2,2.15,13.69,5.38,27.1,10.95,30,0,0,0-.02.01-.02.14.07.27.17.41.23.07.02.08.29.03.4-1.09,2.62-3.1.88-4.8-1.65.25.56.51,1.12.79,1.64.95,1.75,2.11,4.35,3.25,4.76.01,0,.03,0,.04,0,0,0,.01.02.02.03h0s0,0,0,0c.02.02.03.04.04.07,0,0,0,.02,0,.03.03.13.03.31-.03.38-.14.14-.29.27-.45.38,0,0,0,0,0,0-.13.1-.26.18-.41.26-.06.03-.12.06-.18.09-.1.05-.19.1-.3.14-.07.03-.14.05-.21.07-.1.03-.2.07-.3.09-.07.02-.14.03-.21.05-.1.02-.21.04-.32.05-.07,0-.14.01-.21.02-.11,0-.23,0-.34,0-.07,0-.14,0-.2-.01-.13-.01-.25-.03-.38-.06-.06-.01-.11-.02-.17-.03-.18-.05-.37-.1-.55-.18.6,2.19,1.29,4.15,2.3,5.82.29.48.58.97.87,1.44,0,.01.02.03.02.04.3.48.6.95.9,1.4.17.26.35.5.52.74.02.03.05.06.07.1.15.2.31.4.46.59.04.05.08.11.13.16.14.17.29.33.43.48.05.05.1.11.15.16.19.19.39.37.58.53.28.02.55.03.79.06.1,0,.13.31.06.48-.06.14-.13.27-.2.4,0,.14,0,.29-.03.4,0,0,0,0,0,0,0,0,0,0,0,0-.01.06-.03.1-.05.14,0,.01,0,.03-.01.03-.03.04-.06.06-.1.05-.05,0-.11-.03-.17-.04-.11.14-.22.27-.33.38-.04.04-.08.07-.12.1-.08.07-.16.14-.24.2-.05.04-.11.06-.16.1-.07.04-.14.09-.21.12-.07.03-.14.05-.2.08-.06.02-.12.05-.19.07-.08.02-.16.04-.25.05-.05,0-.1.02-.16.03-.1.01-.2.01-.3.02-.04,0-.07,0-.11,0-.12,0-.24-.01-.36-.03-.02,0-.03,0-.05,0-.19-.03-.38-.06-.57-.11.46.94.95,1.8,1.47,2.33.45.19.93.23,1.44.06.06-.02.1.21.06.32-.01.04-.03.06-.04.1.07-.02.08.24.04.33-.18.39-.37.63-.57.76-.06.11-.13.19-.2.28,0,0,0,0,0,0-.25.33-.52.56-.8.69,0,0,0,0,0,0-.1.04-.21.08-.31.09,1.1,1.3,2.34,2.1,3.47,2.16.14-.02.27-.07.41-.12.15-.13.3-.28.45-.43.27-.29.43.64.3,1.19-.63,2.64-1.95,3.9-3.22,4.51-.17.08-.34.15-.51.21.17.49.34.97.53,1.43.12.3.26.61.4.92.06.13.13.27.19.4.08.17.17.35.26.53.09.19.19.37.29.56.06.11.12.21.17.32.76,1.4,1.66,2.77,2.54,3.78,0,0,0,0,0,0,.17.19.33.36.49.53.19.18.37.36.56.5.75.01,1.47-.15,2.16-.58.06-.03.14.14.1.32-.11.49-.25.91-.39,1.29-.01.04-.03.08-.04.11,0,0,0,0,0,0-.12.29-.24.54-.38.77-.03.05-.05.09-.08.13-.13.21-.27.4-.41.55,0,0,0,0,0,.01-.15.16-.3.28-.46.39-.04.02-.07.05-.11.07-.16.1-.32.18-.48.23.61.32,1.23.6,1.85.87.1.05.08.41,0,.46-1.03.53-2.35.57-3.64-.08.37.65.73,1.24,1.05,1.76.17.28.35.53.53.76.02.02.03.04.05.06.17.21.34.41.51.59.01.01.02.02.03.03.22.23.44.42.67.59.02.01.03.03.05.04.23.17.47.32.71.43,0,0,.02,0,.02.01.21.1.43.17.64.23.05.01.1.03.16.04.22.05.45.09.68.1.29-.17.58-.33.88-.48.07-.03.1.23.07.36,0,.03-.02.05-.03.08.06.05.07.26.03.35-.13.27-.26.5-.39.71-.08.22-.17.4-.26.59,0,0,0,0,0,0-.62,1.4-1.35,2.31-2.15,2.84,0,0-.01,0-.02.01-.19.13-.38.24-.58.32-.02.01-.05.02-.07.03-.18.07-.37.14-.55.18-.06.01-.12.02-.18.03-.16.03-.31.06-.47.07-.22.01-.44,0-.66-.01.17.15.35.28.52.4.16.11.32.2.48.28.01,0,.03.02.04.02.41,0,.81.02,1.22.09.06,0,.11.08.15.19.29-.09.57-.19.84-.31.2-.09.26.68.13.97-2.61,5.95-7.06,3.34-10.43.38.06.39.12.77.18,1.16.56,1.49,1.19,2.89,1.95,4.16.4.68.81,1.36,1.22,2.02.01.02.02.04.03.06.42.67.84,1.33,1.27,1.96.24.36.49.71.74,1.04.03.05.07.09.1.14.21.29.43.56.65.82.06.07.12.15.18.22.2.24.4.46.61.67.07.07.14.16.21.23.27.27.54.52.82.74.39.02.78.05,1.11.09.14.01.19.43.09.67-.08.2-.18.38-.27.56.01.2,0,.4-.04.57,0,0,0,0,0,.01,0,0,0,0,0,0-.02.08-.04.14-.07.2,0,.02-.01.04-.02.05-.04.05-.08.08-.13.07-.08,0-.16-.04-.24-.06-.15.2-.3.38-.46.54-.05.05-.11.09-.17.14-.11.1-.22.2-.33.28-.07.05-.15.09-.23.14-.1.06-.2.12-.3.17-.09.04-.19.07-.29.11-.09.03-.17.07-.26.09-.11.03-.23.05-.34.07-.07.01-.14.03-.22.04-.14.02-.28.02-.42.02-.05,0-.1,0-.16,0-.17,0-.33-.02-.5-.04-.02,0-.04,0-.07,0-.27-.04-.53-.08-.8-.15.65,1.32,1.34,2.52,2.06,3.28.64.27,1.3.33,2.02.09.08-.02.14.29.09.46-.02.05-.04.09-.06.14.09-.02.12.33.06.46-.25.55-.52.88-.8,1.07-.09.15-.18.27-.28.39,0,0,0,0-.01.01-.36.47-.73.79-1.12.96,0,0,0,0,0,0-.14.05-.29.11-.44.13,1.55,1.83,3.29,2.96,4.87,3.03.19-.03.39-.09.58-.17.21-.19.42-.39.63-.61.37-.4.6.9.42,1.67-.88,3.71-2.74,5.48-4.52,6.33-.24.12-.48.21-.71.3.24.69.48,1.36.75,2.01.17.42.36.86.57,1.3.09.19.18.38.27.56.12.25.24.49.36.74.13.26.27.52.4.78.08.15.16.3.24.45,1.07,1.96,2.33,3.89,3.57,5.3,0,0,0,0,0,0,.23.26.46.51.69.74.26.26.53.5.78.7,1.05.02,2.07-.22,3.03-.81.08-.04.2.2.14.45-.16.69-.35,1.28-.55,1.81-.02.05-.04.11-.05.15,0,0,0,0,0,0-.16.41-.34.76-.53,1.08-.04.06-.08.13-.11.19-.18.29-.37.56-.57.78,0,0,0,.01-.01.02-.21.22-.42.4-.64.55-.05.04-.1.07-.15.1-.22.14-.44.25-.67.33.86.45,1.72.84,2.59,1.22.14.06.11.58,0,.64-1.45.74-3.3.8-5.11-.11.52.91,1.03,1.74,1.48,2.47.24.39.49.75.75,1.07.02.03.04.05.06.08.24.3.47.57.71.82.01.01.03.03.04.04.31.32.62.59.94.83.02.02.05.04.07.06.33.24.66.44,1,.6.01,0,.02,0,.03.01.3.14.6.25.9.33.07.02.15.04.22.06.32.07.63.12.95.13.41-.24.82-.47,1.23-.68.1-.04.14.32.09.5-.01.04-.03.07-.04.12.08.07.1.36.04.49-.18.38-.36.7-.55,1-.12.3-.24.56-.37.83,0,0,0,0,0,0-.88,1.96-1.9,3.24-3.02,3.99-.01,0-.02.01-.03.02-.27.18-.54.33-.82.45-.03.01-.07.02-.1.04-.26.1-.51.2-.78.26-.08.02-.17.02-.25.04-.22.04-.44.08-.66.09-.31.02-.62.01-.93-.02.24.22.49.4.73.57.22.15.45.28.68.39.02,0,.04.02.06.03.57,0,1.14.03,1.71.13.08.01.16.11.21.26.41-.13.81-.27,1.18-.44.29-.13.36.96.18,1.36-3.67,8.36-9.91,4.69-14.65.53.16,1.09.35,2.15.53,3.23.17,1,.32,2,.5,3,.33,1.82.68,3.63,1.07,5.45.02.08.02.15,0,.22,0,0,0,.01,0,.02-.01.11-.05.18-.09.17-.02,0-.04-.01-.06-.06-.18-.43-.36-.85-.54-1.27-.14-.3-.28-.63-.43-.95.15.45.29.92.44,1.35.07.2-.02.49-.1.32-2.18-4.83-4.28-9.03-5.99-15.06-.21,3.37-.56,6.29-1.22,9.32-.05.24-.19.05-.14-.2.33-1.72.55-3.7.69-5.78-.18.82-.36,1.6-.54,2.31-.33,1.31-.71,2.51-1.1,3.67.47,12.31,1.23,25.21,1.23,25.21-3.83,4.68-5.63-1-5.63-1,.09-5.87-.08-17.85-.24-27.18-.6,2.1-1.26,4.08-1.87,6-.06.18-.16-.07-.11-.26.63-2.23,1.21-4.68,1.71-7.22-.83,2.19-1.74,4.15-2.71,5.74-.25.42-.51.78-.78,1.13-.13.17-.26.34-.39.5,0,0,0,0-.01.01-.02.02-.03.03-.05.05-.79.96-1.62,1.68-2.47,2.26-.06.04-.11.08-.17.12-.24.16-.47.3-.71.44-.1.06-.2.11-.3.17-.22.12-.44.23-.66.34-.13.06-.26.12-.39.18-.2.09-.4.19-.6.27-.19.08-.38.16-.57.25-.46.19-.91.38-1.37.58-.04.02-.08,0-.12-.01-.01,0-.02-.02-.04-.03-.02-.02-.04-.05-.06-.09,0-.02-.02-.04-.03-.06-.02-.05-.04-.11-.05-.18,0-.01,0-.02,0-.04-.02-.08-.03-.18-.04-.27,0-.03,0-.06,0-.09,0-.07,0-.14,0-.22,0-.03,0-.06,0-.09,0-.08.01-.16.02-.24,0-.02,0-.04,0-.06,0,0,0,0,0,0,0-.03.01-.04.02-.07.03-.17.08-.31.15-.39.31-.35.63-.66.94-.96.19-.19.38-.37.57-.55.29-.39.57-.82.84-1.27.02-.09.04-.17.08-.21.06-.05.11-.14.16-.2.51-.9.98-1.92,1.41-3.15.04-.11.08-.23.11-.35-2.86,5.35-6.45,8.27-9.9,7.57,0,0-.01,0-.02,0-.3-.06-.59-.15-.88-.27-.03-.01-.05-.02-.08-.03-.28-.12-.56-.26-.84-.42-.04-.02-.08-.05-.11-.07-.27-.17-.53-.36-.8-.58-.04-.04-.09-.08-.13-.12-.26-.22-.51-.46-.76-.73-.05-.05-.1-.11-.15-.17-.25-.28-.49-.57-.73-.89-.01-.02-.03-.03-.04-.05-.22-.31-.45-.61-.67-.96-.18-.28-.1-1.13.11-.96.2.16.4.26.6.39.02-.03.05-.07.08-.08.23-.1.47-.21.7-.34,0,0,0,0,0,0,2.06-1.1,4.05-3.31,5.72-6.7-.45.48-.9.93-1.35,1.41-.22.23-.33-.68-.13-.95,1.08-1.45,2.26-2.94,3.21-5.06-1.35,1.27-2.73,2.06-3.8,2.34-2.1.56-5.84,1.28-7.33-4.12Z"
  />
  <path
    class="cls-1"
    d="M52.93,768.99c-.05-.9.57-1.95.79-1.38.39.99.87,1.75,1.39,2.41.13-.58.36-1.09.65-1.29.05-.03.1-.08.16-.09.37-.06.77-.21,1.17-.4.08-.04.16-.08.25-.13.39-.21.79-.45,1.2-.75.56-.41,1.14-.91,1.73-1.48,0,0,0,0,0,0,1.17-1.13,2.37-2.53,3.59-4.1.02-.03.05-.06.07-.09.58-.75,1.16-1.54,1.74-2.35.07-.1.14-.19.2-.29.57-.8,1.13-1.61,1.68-2.44.02-.03.04-.06.06-.09.51-.76,1-1.52,1.49-2.28.14-.22.28-.43.41-.64.45-.71.89-1.41,1.32-2.1.17-.28.34-.56.52-.83.42-.68.84-1.36,1.23-2.01,1.64-2.69,3.23-5.46,4.78-8.32-2.73,2.28-5.38,3.36-8.11,5.21-.33.23-.3-.95.04-1.33,3.62-4,7.11-5.05,10.74-9.52.16-.2.32-.37.48-.57.11-.16.23-.32.34-.47.62-1.24,1.25-2.49,1.86-3.77-5.51,2.24-10.67,1.11-14.81-2.92-.56-.53.07-3.22.74-3.15.4.05.8.09,1.21.13-.11-.08-.22-.16-.33-.26-.09-.08.01-.5.12-.49.26.01.53-.02.8-.03.06-.06.12-.15.18-.16,5.01-.9,10.33-5.56,15.65-12.37.57-.72,1.15-1.52,1.73-2.32-2.19.48-4.25.28-6.12-.75-1.97-.62-3.7-2.22-4.94-4.83-1.07-.79-2.03-1.96-2.8-3.81-.06-.15.04-.5.14-.49,1.06.06,2.09.21,3.12.37.13-.66.41-1.33.69-1.27,2.87.65,5.79-.45,8.71-2.81.63-.52,1.26-1.09,1.9-1.72.01-.01.03-.03.04-.04.64-.64,1.28-1.33,1.92-2.08.65-.77,1.31-1.59,1.96-2.45,0-.01.02-.02.02-.03.62-.82,1.24-1.7,1.85-2.61-.34-.08-.68-.19-1.01-.33,0,0-.01,0-.02,0-.32-.14-.64-.32-.94-.53-.03-.02-.05-.04-.08-.06-.29-.2-.57-.44-.85-.7-.03-.03-.05-.05-.08-.08-1.72.32-3.33-.25-4.81-2.01-.27-.33.1-1.6.4-1.38.69.52,1.49.63,2.35.44-.09-.19-.18-.37-.27-.57,0-.02-.02-.04-.03-.06-.18-.42-.36-.81-.52-1.27-.13-.37.17-1.31.37-1.07.19.23.39.4.59.6.04-.03.08-.06.11-.06.29-.06.59-.13.89-.21,0,0,0,0,0,0,1.61-.45,3.29-1.38,4.98-2.82-1.23.2-2.43.06-3.57-.49-.42-.2-.13-1.92.36-1.96.5-.05,1.01-.18,1.52-.34.24-.08.48-.19.73-.3.25-.11.5-.22.76-.35.33-.18.66-.37,1-.59.14-.09.29-.19.43-.3.4-.29.8-.59,1.21-.93.04-.03.08-.07.11-.1.63-.55,1.27-1.17,1.9-1.86-1.12.46-2.15.7-2.98.74-2.54.11-6.99-.02-7.33-6.56-.04-.64.4-1.39.56-.98.28.71.62,1.25.99,1.72.09-.41.26-.78.46-.92.04-.02.07-.05.11-.07.27-.04.54-.15.83-.29.06-.03.12-.06.18-.09.28-.15.56-.32.85-.53.4-.29.81-.65,1.23-1.05,0,0,0,0,0,0,.83-.8,1.69-1.8,2.56-2.92.02-.02.03-.04.05-.07.41-.53.83-1.1,1.24-1.67.05-.07.1-.14.15-.21.4-.57.8-1.15,1.2-1.74.01-.02.03-.04.04-.07.36-.54.71-1.08,1.06-1.63.08-.13.16-.25.24-.37-.71.05-1.41.02-2.11-.1-.06-.01-.1-.07-.12-.15,0-.01,0-.03-.01-.04-.04-.18-.03-.45.03-.7,0,0,0-.01,0-.02.08-.33.22-.62.38-.62.25,0,.51-.03.77-.09.15-.03.3-.09.45-.14.14-.05.28-.08.42-.15.19-.08.38-.19.58-.3.09-.05.17-.09.26-.14.22-.13.44-.28.66-.45.06-.05.13-.09.19-.14.24-.18.48-.38.73-.6.02-.02.04-.04.06-.05,1.16-1.89,2.27-3.85,3.36-5.86-1.95,1.62-3.83,2.4-5.78,3.71-.24.16-.21-.68.03-.94,2.58-2.85,5.07-3.59,7.65-6.78.11-.14.23-.26.34-.41.08-.11.16-.23.24-.34.24-.48.48-.97.71-1.45-.01-.18.04-.44.15-.48.04-.02.08-.04.11-.06.11-.23.23-.46.34-.7-3.92,1.6-7.6.79-10.55-2.08-.4-.38.05-2.3.53-2.24.28.04.57.06.86.09-.08-.06-.16-.11-.23-.18-.06-.06,0-.36.08-.35.19,0,.38-.01.57-.02.04-.04.08-.11.13-.12,3.57-.64,7.36-3.96,11.14-8.81.41-.51.82-1.08,1.23-1.66-1.56.34-3.03.2-4.36-.53-1.4-.44-2.63-1.58-3.52-3.44-.76-.56-1.45-1.4-1.99-2.72-.04-.11.03-.36.1-.35.75.04,1.49.15,2.22.27.09-.47.29-.95.49-.91,2.05.46,4.13-.32,6.21-2,.45-.37.9-.78,1.35-1.22,0,0,.02-.02.03-.03.45-.45.91-.95,1.36-1.48.47-.55.93-1.13,1.4-1.75,0,0,.01-.02.02-.02.9-1.19,1.79-2.52,2.68-3.95.08-.12.15-.25.23-.37.42-.68.84-1.38,1.25-2.11-3.22,3.3-6.02,4.75-8.39,1.93-.19-.23.07-1.14.28-.98,1.69,1.26,4.25-.81,6.64-3.72-1.1.32-2.16.27-3.16-.21-.3-.14-.09-1.36.26-1.4.36-.04.72-.13,1.08-.24.17-.06.34-.14.52-.21.18-.08.36-.15.54-.25.24-.12.47-.27.71-.42.1-.07.21-.14.31-.21.29-.2.57-.42.86-.66.03-.02.05-.05.08-.07.56-.48,1.12-1.04,1.68-1.69,0,0,0,0,0,0,1.37-1.57,2.73-3.57,4.02-5.99.3-.58.59-1.15.89-1.71.33-.69.65-1.4.96-2.1-2.51,3.78-5.14,6.21-7.62,7.45-.42.21-.28-1.2.13-1.55,2.51-2.08,5.07-5.73,7.43-10.13-2.26,1.99-4.44,2.81-6.61,2.42-.04,0-.07-.05-.09-.11,0,0,0-.02,0-.03-.03-.13-.02-.32.02-.5,0,0,0,0,0-.01.06-.23.16-.44.27-.44.18,0,.36-.02.55-.06.1-.02.21-.06.32-.1.1-.03.2-.06.3-.1.13-.06.27-.14.41-.21.06-.03.12-.06.18-.1.15-.09.31-.2.47-.32.05-.03.09-.06.14-.1.17-.13.34-.27.52-.42.03-.03.06-.05.09-.08.19-.17.38-.34.57-.53.02-.02.03-.03.05-.05.41-.41.83-.88,1.24-1.38,2.01-2.43,4.07-5.76,5.8-8.81-1.07,1.27-2.08,2.1-2.97,2.34-.12.03-.08-.41.04-.46,5.62-2.35,10.39-20.73,13.67-31.63.07-.25.16-.44.26-.6.01-.02.02-.03.03-.04.09-.14.18-.23.27-.29,0,0,0,0,0,0,0,0,.02,0,.03,0,.06-.03.12-.06.18-.06.07,0,.13.03.18.09.12-.52.24-1.03.37-1.55.04-.15.09-.29.13-.39,0-.01.01-.02.02-.03.33-.71.75-.42.7.5-1.42,22.72-1.02,45.38,6.87,52.02.01-.01.02-.02.03-.03.2.16.38.37.58.52.11.07.02.49-.09.65-2.68,3.81-5.28.31-7.11-4.35.21.99.43,1.98.69,2.91.89,3.14,1.83,7.73,3.53,8.79.02,0,.04.02.06.02.01,0,.02.03.03.05h0s0,0,0,0c.02.03.04.07.05.12,0,.02,0,.04,0,.05,0,.21-.06.52-.19.59-.27.17-.56.33-.85.46,0,0,0,0-.01,0-.24.11-.49.2-.74.28-.1.03-.21.05-.32.08-.17.04-.35.09-.53.12-.12.02-.24.03-.35.04-.17.02-.34.04-.51.04-.12,0-.24,0-.36,0-.18,0-.35-.02-.53-.04-.12-.01-.23-.03-.35-.05-.18-.03-.36-.07-.55-.12-.11-.03-.22-.06-.32-.09-.2-.06-.39-.15-.59-.23-.09-.04-.18-.07-.26-.11-.28-.14-.56-.3-.82-.48.19,3.73.6,7.11,1.61,10.15.29.88.58,1.75.88,2.62,0,.02.02.05.02.07.31.88.62,1.74.95,2.56.19.47.38.93.58,1.38.03.06.05.12.08.18.17.38.35.75.53,1.11.05.1.1.2.15.3.17.32.35.62.52.92.06.1.12.21.18.31.24.38.49.73.74,1.05.45.13.87.25,1.25.38.15.05.1.54-.07.79-.15.21-.3.39-.46.58-.04.23-.11.46-.19.64,0,0,0,0,0,.01,0,0,0,0,0,0-.04.09-.08.15-.13.21-.01.02-.02.04-.04.05-.06.05-.11.07-.17.04-.08-.03-.17-.09-.25-.13-.22.19-.44.36-.67.5-.07.05-.15.08-.23.12-.15.08-.3.17-.45.23-.1.04-.2.06-.3.1-.13.04-.26.09-.38.12-.12.03-.24.04-.35.05-.11.01-.22.03-.32.04-.14,0-.27,0-.41,0-.09,0-.17,0-.26-.01-.16-.02-.32-.05-.48-.08-.06-.01-.12-.02-.18-.04-.19-.04-.38-.1-.56-.17-.02,0-.05-.02-.07-.02-.3-.11-.59-.23-.88-.38.41,1.67.89,3.22,1.52,4.26.66.47,1.41.7,2.29.61.1,0,.09.37-.02.54-.04.05-.07.09-.11.15.11,0,.05.41-.05.54-.42.56-.82.88-1.19,1.02-.14.15-.28.26-.42.37,0,0-.01,0-.02.01-.53.44-1.04.72-1.53.82,0,0,0,0-.01,0-.18.03-.36.05-.54.04,1.31,2.48,3.01,4.21,4.79,4.7.23.01.46-.01.71-.05.29-.16.58-.34.87-.53.53-.37.46,1.18.06,2.01-1.94,4.01-4.52,5.57-6.76,6.08-.3.07-.6.12-.89.16.1.85.21,1.68.34,2.48.09.52.2,1.07.32,1.63.05.23.11.47.16.71.07.31.15.62.23.94.08.33.17.66.26.99.05.19.11.39.16.58.73,2.51,1.67,5.04,2.73,6.96,0,0,0,0,0,0,.2.36.4.7.6,1.02.24.36.47.71.72.99,1.19.29,2.42.28,3.66-.16.1-.03.18.27.05.55-.36.75-.72,1.38-1.09,1.93-.03.05-.07.11-.1.16,0,0,0,0,0,0-.29.42-.58.78-.88,1.1-.06.06-.12.12-.18.18-.28.29-.57.54-.85.74,0,0-.01.01-.02.02-.29.2-.58.35-.87.46-.07.03-.13.05-.2.08-.29.1-.57.17-.85.2.87.73,1.76,1.4,2.65,2.05.15.11-.02.69-.17.73-1.84.48-3.97.08-5.81-1.43.36,1.18.73,2.25,1.06,3.19.18.51.38.98.58,1.42.02.04.04.07.05.11.19.4.39.78.61,1.12.01.02.03.04.04.06.27.44.56.83.86,1.18.02.03.04.06.07.08.31.36.64.67.98.94.01,0,.02.02.04.03.31.24.63.43.95.6.08.04.16.08.24.12.34.16.69.3,1.05.39.53-.17,1.05-.33,1.58-.46.12-.03.08.41-.02.6-.03.05-.05.08-.08.12.07.09.03.44-.08.57-.3.39-.59.71-.89,1-.21.32-.42.57-.63.86,0,0,0,0,0,0-1.5,2.02-2.99,3.22-4.46,3.79-.01,0-.03,0-.04.01-.35.13-.7.24-1.05.31-.04,0-.08,0-.13.02-.32.05-.64.09-.95.1-.1,0-.19-.02-.29-.02-.26-.01-.52-.02-.78-.06-.36-.06-.71-.14-1.06-.26.22.31.45.58.69.83.22.23.44.43.68.61.02.02.04.04.06.05.66.14,1.3.32,1.92.58.09.04.15.17.18.35.5-.04.99-.1,1.46-.2.36-.08.17,1.19-.14,1.6-6.31,8.62-12.51,2.85-16.86-3.11-.05.64-.08,1.28-.12,1.92.36,2.6.88,5.05,1.65,7.37.41,1.23.82,2.46,1.24,3.67.01.03.02.07.03.1.43,1.23.87,2.44,1.33,3.6.26.66.53,1.31.81,1.93.04.08.07.17.11.25.24.54.49,1.05.74,1.55.07.14.14.28.21.42.24.45.49.88.74,1.29.09.14.17.3.26.44.34.53.68,1.03,1.04,1.48.63.18,1.23.35,1.75.53.22.07.14.76-.09,1.1-.21.29-.43.54-.64.81-.06.33-.15.64-.26.89,0,0,0,.01,0,.02,0,0,0,0,0,0-.06.12-.12.22-.18.29-.02.02-.03.05-.05.07-.08.07-.16.1-.24.06-.12-.04-.24-.12-.36-.18-.31.27-.62.5-.94.7-.11.07-.21.11-.32.17-.21.12-.42.24-.63.32-.14.06-.28.09-.42.14-.18.06-.36.12-.54.16-.17.04-.33.05-.5.07-.15.02-.3.05-.46.05-.19,0-.39,0-.58,0-.12,0-.24,0-.36-.02-.23-.02-.45-.07-.67-.11-.08-.02-.17-.03-.25-.05-.27-.06-.53-.14-.79-.24-.03-.01-.07-.02-.11-.04-.42-.15-.83-.32-1.23-.53.57,2.34,1.25,4.52,2.14,5.99.92.66,1.98.99,3.21.86.14,0,.12.52-.02.76-.05.08-.1.13-.15.2.16,0,.07.57-.08.76-.59.79-1.15,1.23-1.67,1.43-.2.21-.39.36-.58.52,0,0-.02,0-.02.02-.74.62-1.46,1.01-2.14,1.15,0,0-.01,0-.02,0-.25.04-.5.07-.75.06,1.83,3.48,4.22,5.91,6.72,6.6.32.02.65-.01.99-.07.41-.22.82-.47,1.23-.75.74-.52.64,1.66.08,2.82-2.73,5.63-6.35,7.82-9.5,8.54-.43.1-.84.17-1.25.22.14,1.19.29,2.36.48,3.49.12.73.28,1.5.44,2.28.07.33.15.67.23,1,.1.43.2.87.32,1.31.12.46.24.93.37,1.4.07.27.15.54.23.81,1.02,3.53,2.35,7.07,3.84,9.78,0,0,0,0,0,.01.28.51.56.99.85,1.44.33.5.66.99,1.01,1.4,1.68.41,3.4.39,5.14-.23.14-.04.25.39.07.77-.5,1.05-1.01,1.93-1.53,2.71-.05.07-.09.16-.14.23,0,0,0,0,0,0-.41.6-.82,1.1-1.23,1.54-.08.09-.17.17-.25.26-.4.4-.8.76-1.2,1.04,0,0-.02.02-.03.02-.41.28-.82.49-1.22.65-.09.04-.19.07-.28.11-.4.14-.8.24-1.2.28,1.22,1.03,2.47,1.97,3.72,2.88.21.15-.03.97-.24,1.03-2.59.68-5.58.11-8.16-2,.51,1.65,1.03,3.15,1.49,4.49.25.71.53,1.37.82,1.99.02.05.05.1.08.15.27.56.55,1.09.85,1.58.02.03.04.06.06.08.38.62.79,1.17,1.21,1.66.03.04.06.08.09.11.44.5.9.95,1.38,1.32.02.01.03.02.05.04.43.34.88.61,1.33.85.11.06.22.12.33.17.48.23.97.42,1.47.55.74-.24,1.48-.46,2.22-.64.17-.04.12.57-.03.84-.04.07-.07.11-.11.17.1.13.04.61-.12.8-.42.54-.84,1-1.25,1.41-.3.45-.59.81-.88,1.2,0,0,0,0-.01.01-2.1,2.83-4.2,4.53-6.26,5.33-.02,0-.04.01-.06.02-.49.19-.98.34-1.47.43-.06.01-.12.01-.18.02-.45.08-.89.13-1.34.14-.14,0-.27-.02-.41-.03-.37-.01-.73-.02-1.09-.08-.5-.08-1-.2-1.49-.36.31.43.64.81.97,1.17.31.32.62.6.95.86.03.02.05.05.08.07.92.19,1.82.45,2.7.81.13.05.21.24.25.49.7-.06,1.39-.15,2.05-.28.51-.11.24,1.67-.19,2.25-8.86,12.1-17.56,4-23.68-4.37-.13,1.8-.2,3.58-.3,5.36-.09,1.66-.19,3.33-.26,4.99-.12,3.04-.2,6.07-.23,9.12,0,.13-.03.25-.06.35,0,.01,0,.02-.01.03-.06.17-.14.27-.2.24-.03,0-.06-.03-.07-.12-.14-.76-.28-1.49-.42-2.24-.12-.53-.23-1.11-.34-1.68.07.78.14,1.57.23,2.32.04.34-.21.79-.27.48-1.78-8.52-3.66-16-4.24-26.29-1.53,5.33-3.14,9.89-5.27,14.51-.16.36-.31,0-.16-.37,1.14-2.64,2.2-5.74,3.17-9.02-.57,1.25-1.14,2.43-1.69,3.52-1,1.99-2.03,3.77-3.06,5.49-3.63,19.91-7.01,40.87-7.01,40.87-7.8,6.14-8.67-3.61-8.67-3.61,2.23-9.39,6.23-28.66,9.28-43.68-1.71,3.15-3.47,6.09-5.13,8.96-.16.27-.23-.17-.08-.45,1.8-3.35,3.61-7.08,5.32-10.97-2.11,3.22-4.26,6.04-6.4,8.25-.56.58-1.1,1.07-1.65,1.53-.27.23-.53.45-.8.66,0,0-.01.01-.02.02-.03.03-.07.04-.1.07-1.61,1.25-3.2,2.12-4.76,2.75-.1.04-.21.09-.31.13-.43.17-.86.31-1.29.44-.18.06-.36.11-.53.17-.39.11-.79.22-1.18.32-.23.06-.46.11-.68.16-.35.08-.71.16-1.06.23-.33.07-.67.13-1,.19-.8.15-1.6.29-2.4.44-.08.01-.14-.02-.19-.06-.02-.02-.03-.04-.05-.07-.03-.05-.05-.1-.07-.16,0-.04-.02-.07-.03-.11-.01-.09-.02-.2-.02-.31,0-.02,0-.04,0-.06,0-.14.02-.29.04-.45,0-.05.02-.09.02-.14.02-.12.04-.23.07-.35.01-.05.02-.1.04-.15.04-.13.08-.26.12-.37.01-.03.02-.06.03-.09,0,0,0,0,0,0,.02-.04.03-.07.05-.1.11-.25.24-.47.38-.57.63-.44,1.24-.84,1.85-1.21.37-.23.74-.46,1.11-.68.6-.53,1.2-1.11,1.81-1.74.06-.14.13-.25.21-.3.11-.06.22-.19.33-.27,1.13-1.26,2.26-2.73,3.38-4.54.1-.16.2-.34.31-.52-6.48,7.56-13.29,10.96-18.57,8.61-.01,0-.02,0-.03-.01-.45-.2-.89-.46-1.32-.74-.04-.03-.08-.05-.12-.08-.41-.28-.8-.61-1.19-.98-.05-.05-.11-.1-.16-.15-.37-.37-.73-.77-1.07-1.21-.06-.08-.12-.16-.17-.23-.33-.45-.66-.93-.96-1.45-.06-.1-.12-.21-.18-.32-.3-.53-.59-1.09-.86-1.7-.01-.03-.03-.06-.04-.09-.25-.58-.5-1.14-.72-1.78-.18-.52.23-1.84.51-1.5.26.33.55.56.83.84.05-.04.11-.09.16-.09.41-.08.82-.18,1.24-.3,0,0,0,0,0,0,3.7-1.03,7.67-3.87,11.56-8.71-.89.61-1.77,1.18-2.67,1.77-.43.29-.28-1.21.13-1.57,2.25-1.93,4.67-3.91,6.95-6.97-2.61,1.55-5.11,2.33-6.93,2.4-3.56.16-9.81-.03-10.3-9.21Z"
  />
  <path
    class="cls-1"
    d="M331.56,1009.19c-.07-.54.26-1.21.42-.87.28.59.61,1.02.95,1.4.05-.36.17-.68.34-.81.03-.02.06-.05.09-.06.22-.05.46-.16.69-.29.05-.03.1-.06.14-.09.23-.14.46-.31.69-.51.32-.27.65-.6.98-.97,0,0,0,0,0,0,.66-.74,1.33-1.64,2-2.65.01-.02.03-.04.04-.06.32-.48.64-.99.95-1.5.04-.06.07-.12.11-.18.31-.51.61-1.03.91-1.56.01-.02.02-.04.03-.06.27-.48.54-.97.81-1.45.07-.14.15-.27.22-.41.24-.45.48-.9.71-1.33.09-.18.18-.35.28-.53.23-.43.45-.86.66-1.27.88-1.7,1.72-3.46,2.53-5.26-1.56,1.5-3.12,2.28-4.7,3.52-.19.15-.22-.56-.04-.81,2.02-2.59,4.1-3.38,6.1-6.25.09-.13.18-.24.26-.37.06-.1.12-.21.19-.3.32-.78.65-1.57.96-2.37-3.24,1.6-6.43,1.15-9.12-1.12-.36-.3-.1-1.96.31-1.94.24.01.49.02.74.02-.07-.05-.14-.09-.21-.14-.06-.04-.01-.31.05-.31.16,0,.32-.03.48-.05.03-.04.06-.1.1-.11,3-.76,6.03-3.83,8.96-8.2.31-.46.63-.97.95-1.49-1.31.39-2.57.35-3.75-.18-1.22-.29-2.34-1.19-3.21-2.72-.68-.43-1.32-1.1-1.87-2.19-.04-.09,0-.3.06-.3.65,0,1.28.04,1.91.09.05-.41.19-.82.36-.8,1.77.27,3.5-.53,5.17-2.09.36-.34.72-.72,1.08-1.13,0,0,.02-.02.02-.03.36-.41.72-.86,1.07-1.34.36-.49.73-1.02,1.08-1.58,0,0,0-.01.01-.02.34-.53.68-1.08,1.01-1.66-.21-.04-.42-.08-.63-.16,0,0,0,0-.01,0-.2-.07-.4-.17-.6-.28-.02-.01-.03-.02-.05-.03-.19-.11-.37-.24-.54-.39-.02-.01-.04-.03-.05-.04-1.03.27-2.03,0-3.01-1.01-.18-.19-.01-.98.18-.85.44.28.93.31,1.44.16-.06-.11-.13-.22-.19-.34,0-.01-.01-.02-.02-.04-.13-.24-.25-.48-.37-.75-.1-.22.04-.8.18-.66.12.13.25.22.38.34.02-.02.04-.04.07-.04.17-.05.35-.1.53-.17,0,0,0,0,0,0,.96-.34,1.93-.98,2.9-1.93-.74.18-1.47.14-2.19-.14-.26-.1-.16-1.16.13-1.21.3-.05.6-.15.91-.27.14-.06.28-.14.43-.21.15-.08.3-.15.45-.25.19-.12.39-.26.58-.4.08-.06.17-.13.25-.2.23-.19.46-.39.69-.62.02-.02.04-.05.06-.07.36-.36.72-.77,1.07-1.22-.66.33-1.28.52-1.78.58-1.53.18-4.24.29-4.74-3.66-.05-.39.18-.86.3-.62.2.42.43.73.68,1,.04-.26.12-.48.24-.58.02-.01.04-.04.06-.04.16-.04.32-.11.49-.21.03-.02.07-.04.1-.06.16-.1.33-.22.49-.36.23-.2.46-.43.7-.69,0,0,0,0,0,0,.47-.52.95-1.17,1.42-1.89,0-.01.02-.03.03-.04.23-.34.45-.7.68-1.07.03-.04.05-.09.08-.13.22-.36.44-.73.65-1.11,0-.01.02-.03.02-.04.19-.34.39-.69.57-1.03.04-.08.09-.16.13-.24-.43.06-.85.08-1.29.03-.04,0-.06-.04-.08-.09,0,0,0-.02,0-.03-.03-.11-.04-.27,0-.43,0,0,0,0,0-.01.03-.2.11-.38.2-.39.15,0,.31-.04.46-.09.09-.03.18-.07.26-.1.08-.03.17-.06.25-.11.11-.06.22-.13.34-.21.05-.03.1-.06.15-.1.13-.09.25-.19.38-.3.04-.03.07-.06.11-.09.14-.12.28-.25.42-.39.01-.01.02-.02.04-.04.62-1.2,1.21-2.43,1.78-3.7-1.11,1.07-2.22,1.62-3.35,2.51-.14.11-.16-.4-.03-.57,1.44-1.84,2.92-2.4,4.34-4.45.06-.09.13-.17.19-.26.04-.07.09-.15.13-.21.12-.3.25-.61.37-.91-.02-.11,0-.27.07-.3.02-.01.04-.03.07-.04.06-.15.12-.29.18-.44-2.31,1.14-4.58.82-6.5-.8-.26-.21-.07-1.4.22-1.38.17,0,.35.01.53.02-.05-.03-.1-.06-.15-.1-.04-.03-.01-.22.04-.22.11,0,.23-.02.35-.04.02-.03.05-.07.07-.08,2.14-.54,4.29-2.73,6.38-5.84.22-.33.45-.69.68-1.06-.93.28-1.83.25-2.67-.13-.87-.2-1.67-.84-2.29-1.93-.49-.31-.94-.78-1.33-1.56-.03-.06,0-.22.04-.22.46,0,.91.03,1.36.06.04-.29.14-.59.26-.57,1.26.19,2.49-.37,3.68-1.49.26-.24.51-.51.77-.8,0,0,.01-.01.02-.02.26-.3.51-.61.76-.96.26-.35.52-.73.77-1.12,0,0,0,0,0-.01.49-.76.98-1.61,1.45-2.52.04-.08.08-.16.12-.24.22-.43.45-.88.67-1.34-1.81,2.14-3.45,3.15-5.01,1.54-.13-.13,0-.69.13-.61,1.08.69,2.55-.68,3.87-2.55-.65.24-1.3.26-1.93.01-.19-.07-.11-.82.1-.86.21-.04.43-.11.64-.19.1-.04.2-.1.3-.15.11-.05.21-.11.32-.17.14-.09.27-.18.41-.29.06-.05.12-.09.18-.14.16-.14.33-.28.49-.44.02-.02.03-.03.05-.05.32-.32.63-.68.95-1.1,0,0,0,0,0,0,.76-1.01,1.5-2.29,2.18-3.82.15-.37.31-.73.46-1.08.17-.43.33-.88.49-1.32-1.36,2.4-2.84,4-4.3,4.86-.24.14-.22-.72,0-.95,1.43-1.37,2.82-3.7,4.06-6.48-1.29,1.31-2.57,1.9-3.91,1.76-.03,0-.04-.03-.06-.06,0,0,0-.01,0-.02-.02-.08-.03-.19,0-.31,0,0,0,0,0,0,.02-.14.08-.27.15-.28.11,0,.22-.03.33-.06.06-.02.13-.05.19-.07.06-.02.12-.04.18-.08.08-.04.16-.09.24-.15.04-.02.07-.04.11-.07.09-.06.18-.14.27-.21.03-.02.05-.04.08-.07.1-.09.2-.18.3-.28.02-.02.03-.03.05-.05.11-.11.21-.23.32-.35,0-.01.02-.02.03-.03.23-.27.46-.57.69-.89,1.12-1.56,2.22-3.68,3.13-5.6-.59.82-1.17,1.36-1.7,1.55-.07.02-.07-.24,0-.28,3.31-1.68,5.4-13.04,6.91-19.8.03-.15.08-.27.13-.37,0-.01.01-.02.02-.03.05-.09.1-.15.15-.19,0,0,0,0,0,0,0,0,.01,0,.02,0,.04-.02.07-.04.1-.04.04,0,.08.01.11.05.05-.32.1-.64.16-.96.02-.1.04-.18.06-.25,0,0,0-.01,0-.02.17-.45.44-.29.45.27.14,13.85,1.37,27.6,6.46,31.28,0,0,.01-.01.02-.02.13.09.24.21.38.29.07.04.04.3-.03.4-1.46,2.43-3.19.42-4.51-2.33.17.59.35,1.18.55,1.74.68,1.87,1.45,4.61,2.53,5.18.01,0,.02,0,.04.01,0,0,.01.02.02.03h0s0,0,0,0c.01.02.03.04.03.07,0,.01,0,.02,0,.03.02.13-.01.32-.09.37-.16.12-.32.22-.5.32,0,0,0,0,0,0-.14.08-.29.14-.44.2-.06.02-.13.04-.19.06-.1.03-.21.07-.31.09-.07.02-.14.03-.21.04-.1.02-.21.04-.31.05-.07,0-.15.01-.22.01-.11,0-.21,0-.32,0-.07,0-.14,0-.21-.01-.11-.01-.22-.03-.34-.05-.07-.01-.13-.02-.2-.04-.12-.03-.25-.07-.37-.11-.05-.02-.11-.03-.16-.06-.18-.07-.35-.16-.52-.26.28,2.26.68,4.29,1.42,6.09.21.52.43,1.04.65,1.55,0,.01.01.03.02.04.22.52.45,1.03.69,1.51.13.28.27.55.41.81.02.04.04.07.06.11.12.22.25.44.37.65.03.06.07.12.1.17.12.19.24.36.36.54.04.06.08.12.12.18.16.22.33.42.5.61.28.06.54.11.77.18.1.02.09.32,0,.48-.08.13-.17.25-.25.37-.01.14-.04.28-.08.39,0,0,0,0,0,0,0,0,0,0,0,0-.02.06-.04.1-.07.13,0,0-.01.02-.02.03-.03.03-.07.05-.1.03-.05-.01-.11-.05-.16-.07-.13.13-.25.24-.38.33-.04.03-.09.05-.13.08-.09.06-.17.12-.26.16-.06.03-.12.05-.18.07-.08.03-.15.07-.23.09-.07.02-.14.03-.21.05-.07.01-.13.03-.2.04-.08.01-.17.01-.25.01-.05,0-.11,0-.16,0-.1,0-.2-.01-.3-.03-.04,0-.07,0-.11-.01-.12-.02-.23-.05-.35-.08-.02,0-.03,0-.05-.01-.18-.05-.37-.11-.55-.19.32.99.68,1.92,1.11,2.52.42.26.89.37,1.42.27.06,0,.07.22.01.33-.02.03-.04.06-.06.09.07,0,.05.24,0,.33-.23.36-.46.57-.68.67-.08.1-.16.17-.24.24,0,0,0,0,0,0-.3.29-.6.48-.89.56,0,0,0,0,0,0-.11.02-.21.05-.32.05.9,1.45,2.01,2.42,3.11,2.64.14,0,.28-.03.43-.06.17-.11.34-.23.51-.36.31-.25.33.7.12,1.22-1,2.52-2.5,3.58-3.84,3.99-.18.06-.36.1-.53.13.1.51.2,1.01.32,1.49.08.31.17.64.26.97.04.14.09.28.13.43.06.18.12.37.18.56.07.2.13.39.2.59.04.11.08.23.13.34.55,1.49,1.24,2.98,1.97,4.11,0,0,0,0,0,0,.14.21.27.41.41.6.16.21.32.41.48.57.74.12,1.48.06,2.22-.26.06-.02.12.16.05.33-.18.47-.38.87-.58,1.22-.02.03-.04.07-.05.1,0,0,0,0,0,0-.16.27-.32.5-.48.71-.03.04-.07.08-.1.12-.16.19-.32.35-.48.49,0,0,0,0-.01.01-.17.13-.34.24-.51.32-.04.02-.08.04-.12.05-.17.07-.34.13-.51.16.56.41,1.13.77,1.7,1.13.09.06.02.42-.07.45-1.1.37-2.41.22-3.59-.61.27.7.54,1.33.78,1.89.13.3.27.58.41.83.01.02.03.04.04.06.13.23.27.45.42.65,0,.01.02.02.03.03.18.26.38.48.57.68.01.02.03.03.04.05.21.2.42.38.64.53,0,0,.02,0,.02.01.2.13.4.23.6.32.05.02.1.04.15.06.21.08.43.15.65.19.31-.13.63-.25.94-.35.07-.02.07.24.01.36-.01.03-.03.05-.04.08.05.05.04.26-.03.35-.17.25-.33.46-.49.65-.11.2-.23.37-.34.55,0,0,0,0,0,0-.82,1.29-1.68,2.09-2.54,2.5,0,0-.02,0-.02.01-.21.1-.41.18-.62.23-.03,0-.05,0-.08.02-.19.05-.38.09-.57.1-.06,0-.12,0-.18,0-.16,0-.32.01-.47,0-.22-.02-.44-.06-.66-.11.15.18.3.33.46.48.14.13.29.24.44.34.01,0,.03.02.04.03.4.05.8.14,1.19.27.06.02.1.1.12.21.3-.05.6-.11.88-.19.22-.06.15.71-.01.98-3.45,5.51-7.47,2.28-10.38-1.15,0,.39,0,.78.01,1.17.33,1.56.75,3.03,1.32,4.4.3.73.61,1.46.92,2.18,0,.02.02.04.03.06.32.73.64,1.44.97,2.12.19.39.38.77.58,1.14.03.05.05.1.08.15.17.32.34.62.52.91.05.08.1.17.14.24.16.26.33.51.5.75.06.08.12.17.17.25.23.31.46.59.7.85.39.08.76.16,1.09.25.13.03.12.45,0,.67-.11.19-.23.35-.35.52-.02.2-.06.4-.12.55,0,0,0,0,0,0,0,0,0,0,0,0-.03.08-.06.14-.1.18,0,.01-.02.03-.03.05-.04.05-.09.07-.14.05-.07-.02-.15-.06-.22-.09-.18.18-.36.33-.54.47-.06.04-.12.08-.18.12-.12.08-.24.16-.37.23-.08.04-.16.07-.25.1-.11.04-.21.09-.32.12-.1.03-.2.05-.3.07-.09.02-.18.04-.27.05-.12.01-.23.02-.35.02-.07,0-.15,0-.22,0-.14,0-.28-.02-.41-.04-.05,0-.1-.01-.15-.02-.16-.03-.33-.06-.49-.11-.02,0-.04-.01-.07-.02-.26-.07-.52-.16-.77-.27.45,1.4.95,2.69,1.56,3.54.59.36,1.24.51,1.99.38.09-.01.1.31.02.46-.03.05-.06.08-.08.13.09,0,.07.34-.01.47-.32.51-.64.8-.95.94-.11.13-.22.24-.33.34,0,0,0,0-.01.01-.42.41-.84.68-1.25.79,0,0,0,0,0,0-.15.03-.3.06-.45.07,1.27,2.03,2.82,3.4,4.37,3.71.2,0,.39-.04.6-.08.24-.15.47-.32.71-.51.43-.35.46.98.17,1.71-1.41,3.54-3.51,5.03-5.39,5.6-.25.08-.5.14-.75.19.13.72.28,1.42.44,2.09.11.44.23.9.37,1.37.06.2.12.4.18.6.08.26.16.52.25.78.09.28.19.55.29.83.06.16.12.32.18.48.78,2.1,1.74,4.19,2.76,5.77,0,0,0,0,0,0,.19.29.38.57.58.84.22.29.45.57.67.8,1.04.17,2.08.09,3.11-.36.09-.03.17.22.07.46-.26.66-.53,1.22-.81,1.71-.03.05-.05.1-.08.15,0,0,0,0,0,0-.22.38-.45.7-.68.99-.05.06-.09.11-.14.17-.22.26-.45.5-.68.69,0,0,0,0-.02.01-.24.19-.47.33-.71.45-.06.03-.11.05-.17.08-.24.1-.48.18-.71.23.79.57,1.58,1.08,2.39,1.58.13.08.02.59-.1.63-1.54.53-3.38.31-5.04-.86.38.98.76,1.87,1.1,2.66.19.42.38.81.58,1.17.02.03.04.06.05.09.19.33.38.64.59.92.01.02.02.03.04.05.26.36.53.67.81.96.02.02.04.04.06.07.29.29.59.53.9.74.01,0,.02.01.03.02.28.18.56.33.85.46.07.03.14.06.21.09.3.12.61.21.92.27.44-.18.88-.35,1.32-.49.1-.03.1.34.02.51-.02.04-.04.07-.06.11.07.08.05.37-.04.49-.23.35-.46.64-.69.91-.16.28-.32.52-.48.77,0,0,0,0,0,0-1.15,1.81-2.35,2.93-3.57,3.51-.01,0-.02,0-.03.01-.29.14-.58.25-.87.33-.04,0-.07.01-.11.02-.27.07-.54.12-.81.14-.08,0-.17,0-.25,0-.22,0-.44.02-.67,0-.31-.03-.62-.08-.92-.15.21.25.42.47.64.67.2.18.41.34.61.48.02.01.04.03.05.04.57.07,1.13.19,1.67.38.08.03.14.14.17.29.42-.07.84-.15,1.23-.26.3-.09.22,1-.02,1.37-4.85,7.74-10.49,3.2-14.57-1.61,0,1.1.03,2.18.05,3.27.02,1.01.03,2.03.06,3.04.06,1.85.15,3.69.26,5.55,0,.08,0,.15-.02.22,0,0,0,.01,0,.02-.03.1-.07.17-.11.16-.02,0-.04-.02-.05-.07-.12-.45-.24-.89-.35-1.34-.1-.32-.19-.66-.28-1,.08.47.15.95.24,1.4.04.21-.09.49-.14.3-1.46-5.1-2.92-9.55-3.73-15.78-.69,3.3-1.47,6.14-2.56,9.04-.08.23-.19.02-.11-.22.58-1.65,1.08-3.58,1.53-5.62-.29.79-.59,1.53-.87,2.21-.52,1.25-1.07,2.38-1.62,3.47-1.33,12.24-2.46,25.12-2.46,25.12-4.47,4.07-5.42-1.81-5.42-1.81.94-5.8,2.52-17.67,3.72-26.93-.9,1.99-1.84,3.85-2.72,5.66-.08.17-.15-.09-.07-.27.95-2.11,1.88-4.46,2.75-6.89-1.14,2.05-2.32,3.85-3.52,5.29-.31.38-.62.7-.93,1-.15.15-.3.3-.45.44,0,0,0,0-.01.01-.02.02-.04.03-.06.05-.93.83-1.85,1.43-2.77,1.88-.06.03-.12.06-.18.09-.26.12-.51.23-.77.33-.11.04-.21.08-.32.12-.23.09-.47.17-.7.24-.14.04-.27.09-.41.13-.21.06-.42.13-.63.18-.2.06-.4.11-.6.16-.48.12-.96.25-1.44.38-.05.01-.08,0-.12-.03-.01,0-.02-.02-.03-.04-.02-.03-.03-.06-.05-.1,0-.02-.01-.04-.02-.07-.01-.06-.02-.12-.03-.19,0-.01,0-.02,0-.04,0-.09,0-.18,0-.27,0-.03,0-.06,0-.09,0-.07.02-.14.03-.22,0-.03,0-.06.02-.09.02-.08.03-.16.06-.23,0-.02,0-.04.01-.05,0,0,0,0,0,0,0-.02.02-.04.03-.07.06-.16.12-.3.21-.36.36-.3.72-.56,1.07-.82.22-.16.43-.31.65-.46.34-.35.68-.73,1.02-1.14.03-.09.07-.16.11-.19.06-.04.12-.12.19-.18.63-.82,1.25-1.76,1.85-2.91.05-.1.11-.21.16-.33-3.6,4.88-7.59,7.24-10.9,6.04,0,0-.01,0-.02,0-.28-.1-.56-.24-.84-.39-.02-.01-.05-.03-.07-.04-.26-.15-.52-.34-.77-.54-.03-.03-.07-.06-.1-.09-.24-.21-.48-.43-.7-.69-.04-.04-.08-.09-.12-.13-.22-.26-.44-.53-.65-.84-.04-.06-.08-.12-.12-.18-.2-.31-.4-.63-.59-.99,0-.02-.02-.03-.03-.05-.18-.34-.35-.67-.52-1.05-.13-.31.06-1.13.25-.93.17.19.36.32.54.47.03-.03.06-.06.09-.06.24-.07.49-.14.74-.24,0,0,0,0,0,0,2.2-.79,4.48-2.69,6.63-5.79-.51.41-1.03.79-1.54,1.19-.25.2-.22-.72.01-.96,1.28-1.27,2.66-2.58,3.91-4.54-1.52,1.06-3,1.64-4.1,1.76-2.15.25-5.96.41-6.66-5.14Z"
  />
  <path
    class="cls-1"
    d="M113.63,813.53c-.07-.54.26-1.21.42-.87.28.59.61,1.02.95,1.4.05-.36.17-.68.34-.81.03-.02.06-.05.09-.06.22-.05.46-.16.69-.29.05-.03.1-.06.14-.09.23-.14.46-.31.69-.51.32-.27.65-.6.98-.97,0,0,0,0,0,0,.66-.74,1.33-1.64,2-2.65.01-.02.03-.04.04-.06.32-.48.64-.99.95-1.5.04-.06.07-.12.11-.18.31-.51.61-1.03.91-1.56.01-.02.02-.04.03-.06.27-.48.54-.97.81-1.45.07-.14.15-.27.22-.41.24-.45.48-.9.71-1.33.09-.18.18-.35.28-.53.23-.43.45-.86.66-1.27.88-1.7,1.72-3.46,2.53-5.26-1.56,1.5-3.12,2.28-4.7,3.52-.19.15-.22-.56-.04-.81,2.02-2.59,4.1-3.38,6.1-6.25.09-.13.18-.24.26-.37.06-.1.12-.21.19-.3.32-.78.65-1.57.96-2.37-3.24,1.6-6.43,1.15-9.12-1.12-.36-.3-.1-1.96.31-1.94.24.01.49.02.74.02-.07-.05-.14-.09-.21-.14-.06-.04-.01-.31.05-.31.16,0,.32-.03.48-.05.03-.04.06-.1.1-.11,3-.76,6.03-3.83,8.96-8.2.31-.46.63-.97.95-1.49-1.31.39-2.57.35-3.75-.18-1.22-.29-2.34-1.19-3.21-2.72-.68-.43-1.32-1.1-1.87-2.19-.04-.09,0-.3.06-.3.65,0,1.28.04,1.91.09.05-.41.19-.82.36-.8,1.77.27,3.5-.53,5.17-2.09.36-.34.72-.72,1.08-1.13,0,0,.02-.02.02-.03.36-.41.72-.86,1.07-1.34.36-.49.73-1.02,1.08-1.58,0,0,0-.01.01-.02.34-.53.68-1.08,1.01-1.66-.21-.04-.42-.08-.63-.16,0,0,0,0-.01,0-.2-.07-.4-.17-.6-.28-.02-.01-.03-.02-.05-.03-.19-.11-.37-.24-.54-.39-.02-.01-.04-.03-.05-.04-1.03.27-2.03,0-3.01-1.01-.18-.19-.01-.98.18-.85.44.28.93.31,1.44.16-.06-.11-.13-.22-.19-.34,0-.01-.01-.02-.02-.04-.13-.24-.25-.48-.37-.75-.1-.22.04-.8.18-.66.12.13.25.22.38.34.02-.02.04-.04.07-.04.17-.05.35-.1.53-.17,0,0,0,0,0,0,.96-.34,1.93-.98,2.9-1.93-.74.18-1.47.14-2.19-.14-.26-.1-.16-1.16.13-1.21.3-.05.6-.15.91-.27.14-.06.28-.14.43-.21.15-.08.3-.15.45-.25.19-.12.39-.26.58-.4.08-.06.17-.13.25-.2.23-.19.46-.39.69-.62.02-.02.04-.05.06-.07.36-.36.72-.77,1.07-1.22-.66.33-1.28.52-1.78.58-1.53.18-4.24.29-4.74-3.66-.05-.39.18-.86.3-.62.2.42.43.73.68,1,.04-.26.12-.48.24-.58.02-.01.04-.04.06-.04.16-.04.32-.11.49-.21.03-.02.07-.04.1-.06.16-.1.33-.22.49-.36.23-.2.46-.43.7-.69,0,0,0,0,0,0,.47-.52.95-1.17,1.42-1.89,0-.01.02-.03.03-.04.23-.34.45-.7.68-1.07.03-.04.05-.09.08-.13.22-.36.44-.73.65-1.11,0-.01.02-.03.02-.04.19-.34.39-.69.57-1.03.04-.08.09-.16.13-.24-.43.06-.85.08-1.29.03-.04,0-.06-.04-.08-.09,0,0,0-.02,0-.03-.03-.11-.04-.27,0-.43,0,0,0,0,0-.01.03-.2.11-.38.2-.39.15,0,.31-.04.46-.09.09-.03.18-.07.26-.1.08-.03.17-.06.25-.11.11-.06.22-.13.34-.21.05-.03.1-.06.15-.1.13-.09.25-.19.38-.3.04-.03.07-.06.11-.09.14-.12.28-.25.42-.39.01-.01.02-.02.04-.04.62-1.2,1.21-2.43,1.78-3.7-1.11,1.07-2.22,1.62-3.35,2.51-.14.11-.16-.4-.03-.57,1.44-1.84,2.92-2.4,4.34-4.45.06-.09.13-.17.19-.26.04-.07.09-.15.13-.21.12-.3.25-.61.37-.91-.02-.11,0-.27.07-.3.02-.01.04-.03.07-.04.06-.15.12-.29.18-.44-2.31,1.14-4.58.82-6.5-.8-.26-.21-.07-1.4.22-1.38.17,0,.35.01.53.02-.05-.03-.1-.06-.15-.1-.04-.03-.01-.22.04-.22.11,0,.23-.02.35-.04.02-.03.05-.07.07-.08,2.14-.54,4.29-2.73,6.38-5.84.22-.33.45-.69.68-1.06-.93.28-1.83.25-2.67-.13-.87-.2-1.67-.84-2.29-1.93-.49-.31-.94-.78-1.33-1.56-.03-.06,0-.22.04-.22.46,0,.91.03,1.36.06.04-.29.14-.59.26-.57,1.26.19,2.49-.37,3.68-1.49.26-.24.51-.51.77-.8,0,0,.01-.01.02-.02.26-.3.51-.61.76-.96.26-.35.52-.73.77-1.12,0,0,0,0,0-.01.49-.76.98-1.61,1.45-2.52.04-.08.08-.16.12-.24.22-.43.45-.88.67-1.34-1.81,2.14-3.45,3.15-5.01,1.54-.13-.13,0-.69.13-.61,1.08.69,2.55-.68,3.87-2.55-.65.24-1.3.26-1.93.01-.19-.07-.11-.82.1-.86.21-.04.43-.11.64-.19.1-.04.2-.1.3-.15.11-.05.21-.11.32-.17.14-.09.27-.18.41-.29.06-.05.12-.09.18-.14.16-.14.33-.28.49-.44.02-.02.03-.03.05-.05.32-.32.63-.68.95-1.1,0,0,0,0,0,0,.76-1.01,1.5-2.29,2.18-3.82.15-.37.31-.73.46-1.08.17-.43.33-.88.49-1.32-1.36,2.4-2.84,4-4.3,4.86-.24.14-.22-.72,0-.95,1.43-1.37,2.82-3.7,4.06-6.48-1.29,1.31-2.57,1.9-3.91,1.76-.03,0-.04-.03-.06-.06,0,0,0-.01,0-.02-.02-.08-.03-.19,0-.31,0,0,0,0,0,0,.02-.14.08-.27.15-.28.11,0,.22-.03.33-.06.06-.02.13-.05.19-.07.06-.02.12-.04.18-.08.08-.04.16-.09.24-.15.04-.02.07-.04.11-.07.09-.06.18-.14.27-.21.03-.02.05-.04.08-.07.1-.09.2-.18.3-.28.02-.02.03-.03.05-.05.11-.11.21-.23.32-.35,0-.01.02-.02.03-.03.23-.27.46-.57.69-.89,1.12-1.56,2.22-3.68,3.13-5.6-.59.82-1.17,1.36-1.7,1.55-.07.02-.07-.24,0-.28,3.31-1.68,5.4-13.04,6.91-19.8.03-.15.08-.27.13-.37,0-.01.01-.02.02-.03.05-.09.1-.15.15-.19,0,0,0,0,0,0,0,0,.01,0,.02,0,.04-.02.07-.04.1-.04.04,0,.08.01.11.05.05-.32.1-.64.16-.96.02-.1.04-.18.06-.25,0,0,0-.01,0-.02.17-.45.44-.29.45.27.14,13.85,1.37,27.6,6.46,31.28,0,0,.01-.01.02-.02.13.09.24.21.38.29.07.04.04.3-.03.4-1.46,2.43-3.19.42-4.51-2.33.17.59.35,1.18.55,1.74.68,1.87,1.45,4.61,2.53,5.18.01,0,.02,0,.04.01,0,0,.01.02.02.03h0s0,0,0,0c.01.02.03.04.03.07,0,.01,0,.02,0,.03.02.13-.01.32-.09.37-.16.12-.32.22-.5.32,0,0,0,0,0,0-.14.08-.29.14-.44.2-.06.02-.13.04-.19.06-.1.03-.21.07-.31.09-.07.02-.14.03-.21.04-.1.02-.21.04-.31.05-.07,0-.15.01-.22.01-.11,0-.21,0-.32,0-.07,0-.14,0-.21-.01-.11-.01-.22-.03-.34-.05-.07-.01-.13-.02-.2-.04-.12-.03-.25-.07-.37-.11-.05-.02-.11-.03-.16-.06-.18-.07-.35-.16-.52-.26.28,2.26.68,4.29,1.42,6.09.21.52.43,1.04.65,1.55,0,.01.01.03.02.04.22.52.45,1.03.69,1.51.13.28.27.55.41.81.02.04.04.07.06.11.12.22.25.44.37.65.03.06.07.12.1.17.12.19.24.36.36.54.04.06.08.12.12.18.16.22.33.42.5.61.28.06.54.11.77.18.1.02.09.32,0,.48-.08.13-.17.25-.25.37-.01.14-.04.28-.08.39,0,0,0,0,0,0,0,0,0,0,0,0-.02.06-.04.1-.07.13,0,0-.01.02-.02.03-.03.03-.07.05-.1.03-.05-.01-.11-.05-.16-.07-.13.13-.25.24-.38.33-.04.03-.09.05-.13.08-.09.06-.17.12-.26.16-.06.03-.12.05-.18.07-.08.03-.15.07-.23.09-.07.02-.14.03-.21.05-.07.01-.13.03-.2.04-.08.01-.17.01-.25.01-.05,0-.11,0-.16,0-.1,0-.2-.01-.3-.03-.04,0-.07,0-.11-.01-.12-.02-.23-.05-.35-.08-.02,0-.03,0-.05-.01-.18-.05-.37-.11-.55-.19.32.99.68,1.92,1.11,2.52.42.26.89.37,1.42.27.06,0,.07.22.01.33-.02.03-.04.06-.06.09.07,0,.05.24,0,.33-.23.36-.46.57-.68.67-.08.1-.16.17-.24.24,0,0,0,0,0,0-.3.29-.6.48-.89.56,0,0,0,0,0,0-.11.02-.21.05-.32.05.9,1.45,2.01,2.42,3.11,2.64.14,0,.28-.03.43-.06.17-.11.34-.23.51-.36.31-.25.33.7.12,1.22-1,2.52-2.5,3.58-3.84,3.99-.18.06-.36.1-.53.13.1.51.2,1.01.32,1.49.08.31.17.64.26.97.04.14.09.28.13.43.06.18.12.37.18.56.07.2.13.39.2.59.04.11.08.23.13.34.55,1.49,1.24,2.98,1.97,4.11,0,0,0,0,0,0,.14.21.27.41.41.6.16.21.32.41.48.57.74.12,1.48.06,2.22-.26.06-.02.12.16.05.33-.18.47-.38.87-.58,1.22-.02.03-.04.07-.05.1,0,0,0,0,0,0-.16.27-.32.5-.48.71-.03.04-.07.08-.1.12-.16.19-.32.35-.48.49,0,0,0,0-.01.01-.17.13-.34.24-.51.32-.04.02-.08.04-.12.05-.17.07-.34.13-.51.16.56.41,1.13.77,1.7,1.13.09.06.02.42-.07.45-1.1.37-2.41.22-3.59-.61.27.7.54,1.33.78,1.89.13.3.27.58.41.83.01.02.03.04.04.06.13.23.27.45.42.65,0,.01.02.02.03.03.18.26.38.48.57.68.01.02.03.03.04.05.21.2.42.38.64.53,0,0,.02,0,.02.01.2.13.4.23.6.32.05.02.1.04.15.06.21.08.43.15.65.19.31-.13.63-.25.94-.35.07-.02.07.24.01.36-.01.03-.03.05-.04.08.05.05.04.26-.03.35-.17.25-.33.46-.49.65-.11.2-.23.37-.34.55,0,0,0,0,0,0-.82,1.29-1.68,2.09-2.54,2.5,0,0-.02,0-.02.01-.21.1-.41.18-.62.23-.03,0-.05,0-.08.02-.19.05-.38.09-.57.1-.06,0-.12,0-.18,0-.16,0-.32.01-.47,0-.22-.02-.44-.06-.66-.11.15.18.3.33.46.48.14.13.29.24.44.34.01,0,.03.02.04.03.4.05.8.14,1.19.27.06.02.1.1.12.21.3-.05.6-.11.88-.19.22-.06.15.71-.01.98-3.45,5.51-7.47,2.28-10.38-1.15,0,.39,0,.78.01,1.17.33,1.56.75,3.03,1.32,4.4.3.73.61,1.46.92,2.18,0,.02.02.04.03.06.32.73.64,1.44.97,2.12.19.39.38.77.58,1.14.03.05.05.1.08.15.17.32.34.62.52.91.05.08.1.17.14.24.16.26.33.51.5.75.06.08.12.17.17.25.23.31.46.59.7.85.39.08.76.16,1.09.25.13.03.12.45,0,.67-.11.19-.23.35-.35.52-.02.2-.06.4-.12.55,0,0,0,0,0,0,0,0,0,0,0,0-.03.08-.06.14-.1.18,0,.01-.02.03-.03.05-.04.05-.09.07-.14.05-.07-.02-.15-.06-.22-.09-.18.18-.36.33-.54.47-.06.04-.12.08-.18.12-.12.08-.24.16-.37.23-.08.04-.16.07-.25.1-.11.04-.21.09-.32.12-.1.03-.2.05-.3.07-.09.02-.18.04-.27.05-.12.01-.23.02-.35.02-.07,0-.15,0-.22,0-.14,0-.28-.02-.41-.04-.05,0-.1-.01-.15-.02-.16-.03-.33-.06-.49-.11-.02,0-.04-.01-.07-.02-.26-.07-.52-.16-.77-.27.45,1.4.95,2.69,1.56,3.54.59.36,1.24.51,1.99.38.09-.01.1.31.02.46-.03.05-.06.08-.08.13.09,0,.07.34-.01.47-.32.51-.64.8-.95.94-.11.13-.22.24-.33.34,0,0,0,0-.01.01-.42.41-.84.68-1.25.79,0,0,0,0,0,0-.15.03-.3.06-.45.07,1.27,2.03,2.82,3.4,4.37,3.71.2,0,.39-.04.6-.08.24-.15.47-.32.71-.51.43-.35.46.98.17,1.71-1.41,3.54-3.51,5.03-5.39,5.6-.25.08-.5.14-.75.19.13.72.28,1.42.44,2.09.11.44.23.9.37,1.37.06.2.12.4.18.6.08.26.16.52.25.78.09.28.19.55.29.83.06.16.12.32.18.48.78,2.1,1.74,4.19,2.76,5.77,0,0,0,0,0,0,.19.29.38.57.58.84.22.29.45.57.67.8,1.04.17,2.08.09,3.11-.36.09-.03.17.22.07.46-.26.66-.53,1.22-.81,1.71-.03.05-.05.1-.08.15,0,0,0,0,0,0-.22.38-.45.7-.68.99-.05.06-.09.11-.14.17-.22.26-.45.5-.68.69,0,0,0,0-.02.01-.24.19-.47.33-.71.45-.06.03-.11.05-.17.08-.24.1-.48.18-.71.23.79.57,1.58,1.08,2.39,1.58.13.08.02.59-.1.63-1.54.53-3.38.31-5.04-.86.38.98.76,1.87,1.1,2.66.19.42.38.81.58,1.17.02.03.04.06.05.09.19.33.38.64.59.92.01.02.02.03.04.05.26.36.53.67.81.96.02.02.04.04.06.07.29.29.59.53.9.74.01,0,.02.01.03.02.28.18.56.33.85.46.07.03.14.06.21.09.3.12.61.21.92.27.44-.18.88-.35,1.32-.49.1-.03.1.34.02.51-.02.04-.04.07-.06.11.07.08.05.37-.04.49-.23.35-.46.64-.69.91-.16.28-.32.52-.48.77,0,0,0,0,0,0-1.15,1.81-2.35,2.93-3.57,3.51-.01,0-.02,0-.03.01-.29.14-.58.25-.87.33-.04,0-.07.01-.11.02-.27.07-.54.12-.81.14-.08,0-.17,0-.25,0-.22,0-.44.02-.67,0-.31-.03-.62-.08-.92-.15.21.25.42.47.64.67.2.18.41.34.61.48.02.01.04.03.05.04.57.07,1.13.19,1.67.38.08.03.14.14.17.29.42-.07.84-.15,1.23-.26.3-.09.22,1-.02,1.37-4.85,7.74-10.49,3.2-14.57-1.61,0,1.1.03,2.18.05,3.27.02,1.01.03,2.03.06,3.04.06,1.85.15,3.69.26,5.55,0,.08,0,.15-.02.22,0,0,0,.01,0,.02-.03.1-.07.17-.11.16-.02,0-.04-.02-.05-.07-.12-.45-.24-.89-.35-1.34-.1-.32-.19-.66-.28-1,.08.47.15.95.24,1.4.04.21-.09.49-.14.3-1.46-5.1-2.92-9.55-3.73-15.78-.69,3.3-1.47,6.14-2.56,9.04-.08.23-.19.02-.11-.22.58-1.65,1.08-3.58,1.53-5.62-.29.79-.59,1.53-.87,2.21-.52,1.25-1.07,2.38-1.62,3.47-1.33,12.24-2.46,25.12-2.46,25.12-4.47,4.07-5.42-1.81-5.42-1.81.94-5.8,2.52-17.67,3.72-26.93-.9,1.99-1.84,3.85-2.72,5.66-.08.17-.15-.09-.07-.27.95-2.11,1.88-4.46,2.75-6.89-1.14,2.05-2.32,3.85-3.52,5.29-.31.38-.62.7-.93,1-.15.15-.3.3-.45.44,0,0,0,0-.01.01-.02.02-.04.03-.06.05-.93.83-1.85,1.43-2.77,1.88-.06.03-.12.06-.18.09-.26.12-.51.23-.77.33-.11.04-.21.08-.32.12-.23.09-.47.17-.7.24-.14.04-.27.09-.41.13-.21.06-.42.13-.63.18-.2.06-.4.11-.6.16-.48.12-.96.25-1.44.38-.05.01-.08,0-.12-.03-.01,0-.02-.02-.03-.04-.02-.03-.03-.06-.05-.1,0-.02-.01-.04-.02-.07-.01-.06-.02-.12-.03-.19,0-.01,0-.02,0-.04,0-.09,0-.18,0-.27,0-.03,0-.06,0-.09,0-.07.02-.14.03-.22,0-.03,0-.06.02-.09.02-.08.03-.16.06-.23,0-.02,0-.04.01-.05,0,0,0,0,0,0,0-.02.02-.04.03-.07.06-.16.12-.3.21-.36.36-.3.72-.56,1.07-.82.22-.16.43-.31.65-.46.34-.35.68-.73,1.02-1.14.03-.09.07-.16.11-.19.06-.04.12-.12.19-.18.63-.82,1.25-1.76,1.85-2.91.05-.1.11-.21.16-.33-3.6,4.88-7.59,7.24-10.9,6.04,0,0-.01,0-.02,0-.28-.1-.56-.24-.84-.39-.02-.01-.05-.03-.07-.04-.26-.15-.52-.34-.77-.54-.03-.03-.07-.06-.1-.09-.24-.21-.48-.43-.7-.69-.04-.04-.08-.09-.12-.13-.22-.26-.44-.53-.65-.84-.04-.06-.08-.12-.12-.18-.2-.31-.4-.63-.59-.99,0-.02-.02-.03-.03-.05-.18-.34-.35-.67-.52-1.05-.13-.31.06-1.13.25-.93.17.19.36.32.54.47.03-.03.06-.06.09-.06.24-.07.49-.14.74-.24,0,0,0,0,0,0,2.2-.79,4.48-2.69,6.63-5.79-.51.41-1.03.79-1.54,1.19-.25.2-.22-.72.01-.96,1.28-1.27,2.66-2.58,3.91-4.54-1.52,1.06-3,1.64-4.1,1.76-2.15.25-5.96.41-6.66-5.14Z"
  />
  <polygon
    class="cls-1"
    points="1958.4 1494.28 0 1494.28 16.58 642.28 235.2 793.48 426.4 987.88 616.8 1158.28 710.4 1206.28 813.6 1335.88 1022.4 1393.48 1958.4 1494.28"
  />
  <polyline
    class="cls-1"
    points="16.58 642.28 0 624.33 0 1494.28"
  />
</svg>
