<?xml version="1.0" encoding="UTF-8"?><svg
  id="Layer_1"
  xmlns="http://www.w3.org/2000/svg"
  viewBox="0 0 1958.4 1494.28"
>
  <defs>
    <style>
      .cls-1 {
        fill: #02020a;
      }
    </style>
  </defs>
  <path
    class="cls-1"
    d="M1389.54,1034.82c-.59,1.18-1.25,2.05-1.95,2.8-.07-.75-.28-1.43-.58-1.72h0c-.06-.04-.11-.11-.17-.14-.43-.14-.86-.38-1.3-.69-.09-.06-.18-.13-.27-.2-.43-.32-.86-.69-1.29-1.13-.6-.61-1.2-1.32-1.81-2.13,0,0,0,0,0-.01-1.2-1.6-2.42-3.56-3.62-5.71-.02-.04-.05-.08-.07-.13-.57-1.03-1.14-2.12-1.71-3.22-.07-.13-.13-.26-.2-.4-.55-1.09-1.09-2.2-1.63-3.33-.02-.04-.04-.09-.06-.13-.49-1.03-.96-2.07-1.43-3.1-.13-.29-.26-.58-.39-.87-.43-.96-.85-1.91-1.25-2.85-.16-.38-.33-.75-.49-1.13-.4-.92-.79-1.84-1.16-2.71-1.55-3.63-3.02-7.36-4.43-11.19,2.87,3.29,5.8,5.08,8.73,7.83.35.34.47-1.14.14-1.67-3.67-5.59-7.59-7.47-11.2-13.65-.16-.28-.32-.51-.48-.79-.11-.22-.22-.44-.33-.65-.56-1.66-1.11-3.32-1.65-5.02,6.1,3.69,12.26,3.12,17.62-1.26.72-.58.35-4.05-.44-4.06-.47,0-.95-.02-1.42-.03.14-.09.28-.16.42-.27.11-.09.05-.63-.07-.64-.31-.03-.62-.11-.93-.16-.06-.08-.12-.21-.19-.24-5.71-1.93-11.26-8.63-16.53-18.02-.57-1-1.14-2.09-1.7-3.19,2.48.96,4.91,1.03,7.22.05,2.37-.45,4.6-2.19,6.4-5.25,1.35-.82,2.63-2.13,3.77-4.32.09-.18.02-.63-.09-.64-1.24-.1-2.46-.07-3.68-.04-.06-.85-.3-1.73-.63-1.7-3.43.35-6.68-1.49-9.75-4.93-.67-.75-1.32-1.57-1.97-2.45-.01-.02-.03-.04-.04-.06-.66-.9-1.31-1.87-1.95-2.91-.66-1.06-1.31-2.2-1.95-3.39,0-.01-.02-.03-.02-.04-1.24-2.3-2.44-4.84-3.62-7.56-.1-.23-.2-.47-.3-.7-.55-1.3-1.1-2.62-1.64-4,4.63,6.52,8.93,9.72,13.33,5.3.36-.37.1-2.02-.28-1.79-3,1.84-6.79-2.38-10.14-8.04,1.73.81,3.47.96,5.2.35.52-.18.41-2.38-.16-2.52-.57-.14-1.15-.38-1.72-.67-.27-.14-.54-.32-.8-.49-.28-.17-.56-.35-.84-.56-.36-.27-.72-.58-1.08-.9-.16-.14-.31-.29-.46-.44-.43-.42-.85-.86-1.28-1.36-.04-.05-.08-.1-.12-.15-.82-.98-1.63-2.09-2.42-3.36,0,0,0,0,0,0-1.93-3.07-3.77-6.9-5.43-11.45-.37-1.09-.75-2.16-1.13-3.21-.42-1.29-.8-2.61-1.17-3.91,3.38,7.21,7.21,12.09,11.03,14.83.64.46.69-2.05.08-2.75-3.7-4.23-7.18-11.23-10.2-19.49,3.32,4.01,6.72,5.94,10.33,5.76.07,0,.12-.07.16-.17,0-.02.01-.03.02-.05.07-.22.09-.55.05-.89,0,0,0-.01,0-.02-.05-.42-.17-.81-.36-.84-.29-.04-.59-.12-.88-.23-.17-.06-.33-.16-.5-.24-.16-.08-.31-.15-.47-.25-.21-.13-.42-.3-.63-.47-.09-.07-.19-.14-.28-.22-.23-.2-.47-.43-.7-.66-.07-.07-.14-.13-.2-.2-.26-.27-.51-.56-.77-.86-.04-.05-.09-.1-.13-.16-.27-.34-.55-.69-.82-1.07-.02-.03-.04-.06-.07-.09-.59-.82-1.18-1.73-1.77-2.71-2.83-4.73-5.55-11.05-7.8-16.81,1.51,2.47,3,4.16,4.4,4.78.18.08.21-.69.02-.82-8.73-5.41-13.03-38.8-16.31-58.71-.07-.45-.18-.81-.31-1.11-.01-.03-.03-.05-.04-.08-.12-.26-.25-.45-.38-.58,0,0,0-.01-.01-.02-.01-.01-.03,0-.04-.02-.09-.07-.19-.14-.28-.14-.11-.01-.22.02-.31.12-.1-.94-.2-1.87-.32-2.81-.04-.28-.09-.52-.14-.72,0-.02-.02-.04-.02-.06-.4-1.32-1.15-.9-1.23.71-1.99,40.26-6.95,80.02-21.1,89.89-.02-.02-.03-.05-.05-.07-.35.24-.68.56-1.05.78-.19.09-.13.85.02,1.16,3.66,7.31,8.56,1.74,12.44-6.04-.53,1.7-1.07,3.38-1.68,4.97-2.06,5.32-4.45,13.17-7.43,14.65-.03,0-.07.02-.1.02-.02,0-.03.05-.05.08h0s0,0,0,0c-.04.05-.08.11-.1.21,0,.03,0,.06,0,.09-.06.37,0,.92.19,1.09.41.37.85.7,1.31,1,0,0,.01,0,.02.01.37.24.76.46,1.16.66.16.08.33.14.5.21.28.12.55.23.83.33.19.06.38.1.57.15.27.07.55.14.83.19.2.03.39.05.59.08.29.03.58.05.87.06.19,0,.39,0,.58,0,.3-.01.61-.05.91-.09.18-.03.36-.05.55-.08.34-.07.67-.17,1.01-.27.15-.05.3-.08.45-.14.48-.18.96-.4,1.43-.66-1.01,6.52-2.33,12.37-4.56,17.49-.64,1.48-1.29,2.95-1.94,4.4-.02.04-.04.08-.05.12-.67,1.47-1.34,2.91-2.04,4.29-.39.79-.8,1.55-1.2,2.29-.05.1-.11.2-.16.3-.35.63-.71,1.24-1.08,1.82-.1.16-.2.33-.3.49-.34.53-.68,1.02-1.03,1.5-.12.17-.24.35-.36.51-.46.61-.93,1.18-1.42,1.68-.75.12-1.47.24-2.11.38-.26.05-.27.93-.04,1.4.2.4.42.75.64,1.11.02.42.09.83.18,1.16,0,0,0,.02,0,.02,0,0,0,0,0,0,.05.16.11.29.17.39.02.03.03.07.05.1.08.1.17.15.27.12.14-.03.3-.11.44-.17.32.39.65.73.99,1.03.11.1.23.17.35.26.23.18.46.36.69.51.15.09.31.16.47.24.2.1.4.21.6.29.19.07.38.12.57.17.17.05.35.11.52.14.22.04.45.06.67.08.14.01.28.03.43.04.27,0,.53,0,.8-.03.1,0,.2-.01.3-.02.32-.04.63-.1.95-.17.04,0,.08-.02.13-.03.5-.12,1.01-.27,1.51-.47-.98,2.84-2.06,5.46-3.29,7.15-1.16.68-2.43.92-3.85.56-.16-.03-.22.63-.08.96.05.1.1.18.15.28-.18-.03-.16.7-.01.97.58,1.09,1.17,1.73,1.75,2.07.2.29.41.52.61.75,0,.01.02.01.03.02.77.9,1.56,1.5,2.34,1.78,0,0,.01,0,.02.01.29.09.57.17.87.19-2.6,4.06-5.71,6.72-8.71,7.18-.38-.03-.76-.12-1.15-.24-.44-.35-.89-.72-1.32-1.14-.79-.76-.97,1.98-.47,3.52,2.41,7.49,6.32,10.81,9.89,12.22.48.19.96.35,1.42.48-.32,1.47-.65,2.91-1.03,4.29-.24.89-.53,1.83-.83,2.79-.13.4-.27.81-.4,1.22-.18.53-.36,1.06-.55,1.59-.2.56-.4,1.12-.62,1.69-.12.33-.25.65-.38.98-1.67,4.25-3.69,8.47-5.78,11.62,0,0,0,0,0,.01-.39.59-.79,1.14-1.18,1.66-.45.58-.91,1.14-1.36,1.59-2,.24-4-.06-5.95-1.11-.16-.08-.34.44-.18.95.44,1.39.92,2.58,1.41,3.64.05.1.09.21.13.31,0,0,0,0,0,.01.39.81.8,1.5,1.22,2.13.08.13.17.24.25.36.41.57.82,1.08,1.25,1.5,0,0,.02.02.03.03.44.42.88.74,1.33,1.01.1.06.21.12.31.18.45.24.9.44,1.35.55-1.56,1.09-3.13,2.06-4.72,3-.26.16-.09,1.22.14,1.32,2.92,1.27,6.47,1.04,9.76-1.19-.81,1.98-1.62,3.78-2.34,5.38-.39.85-.8,1.63-1.22,2.36-.04.06-.07.11-.11.17-.39.66-.79,1.28-1.2,1.84-.02.03-.05.06-.08.1-.53.71-1.07,1.34-1.63,1.89-.04.04-.08.09-.13.13-.58.56-1.18,1.04-1.78,1.44-.02.01-.04.02-.06.04-.55.35-1.1.62-1.67.85-.14.05-.27.11-.41.16-.59.21-1.18.37-1.79.45-.83-.42-1.66-.82-2.49-1.16-.19-.07-.21.69-.08,1.05.03.09.07.15.11.24-.14.15-.13.76.03,1.03.42.75.84,1.39,1.26,1.97.29.61.58,1.1.87,1.65,0,0,0,.01.01.02,2.06,3.89,4.28,6.35,6.56,7.68.02.01.04.02.06.03.55.32,1.1.58,1.65.78.07.02.14.03.2.06.51.17,1.02.31,1.54.39.16.02.32.02.48.03.43.04.85.09,1.28.07.6-.02,1.19-.09,1.78-.21-.42.49-.85.92-1.29,1.31-.4.35-.81.65-1.22.93-.04.02-.07.05-.11.08-1.1.09-2.18.27-3.25.59-.16.04-.28.27-.36.58-.81-.19-1.6-.41-2.35-.68-.58-.21-.5,2.05-.08,2.84,8.67,16.58,19.89,7.84,28.13-1.65-.09,2.27-.25,4.51-.38,6.77-.12,2.1-.22,4.2-.37,6.29-.28,3.82-.59,7.63-.97,11.46-.01.16,0,.31.03.45,0,.02,0,.02.01.04.05.22.13.36.21.33.04,0,.07-.03.1-.14.26-.93.53-1.82.79-2.73.21-.65.42-1.35.63-2.05-.19.97-.37,1.95-.58,2.87-.1.42.13,1.02.25.64,3.23-10.38,6.42-19.45,8.49-32.24,1.06,6.92,2.32,12.89,4.17,19.02.14.48.36.06.23-.43-.97-3.49-1.78-7.54-2.47-11.81.5,1.66,1,3.23,1.49,4.68.9,2.65,1.85,5.05,2.82,7.37,1.53,25.51,2.63,52.31,2.63,52.31,8.24,8.95,10.57-3.13,10.57-3.13-1.33-12.11-3.37-36.89-4.89-56.19,1.57,4.22,3.21,8.19,4.76,12.04.15.36.29-.18.15-.55-1.65-4.48-3.24-9.45-4.7-14.59,2.02,4.38,4.14,8.25,6.32,11.36.57.81,1.14,1.52,1.71,2.18.28.33.56.65.84.96,0,0,.01.02.02.03.04.04.07.07.11.1,1.71,1.83,3.43,3.17,5.17,4.21.12.07.23.15.35.21.48.28.96.53,1.45.77.2.1.4.2.6.29.44.21.89.4,1.33.58.26.11.52.21.77.31.4.16.8.31,1.2.46.38.14.76.27,1.14.4.91.31,1.82.62,2.73.94.09.03.16,0,.23-.05.02-.02.04-.05.06-.08.04-.05.07-.12.1-.2.02-.04.03-.08.04-.13.03-.11.05-.24.07-.39,0-.03,0-.05.01-.08.01-.18.02-.37.01-.57,0-.06,0-.12,0-.18,0-.15-.02-.3-.04-.45,0-.07-.01-.13-.02-.19-.02-.17-.05-.33-.09-.49,0-.04-.01-.08-.02-.11,0,0,0,0,0,0-.01-.05-.03-.09-.05-.14-.1-.34-.22-.63-.37-.78-.67-.66-1.33-1.25-1.99-1.81-.4-.35-.8-.7-1.2-1.03-.63-.76-1.25-1.58-1.86-2.47-.05-.18-.11-.34-.2-.41-.12-.1-.23-.27-.35-.39-1.15-1.76-2.26-3.79-3.31-6.23-.09-.21-.19-.45-.29-.69,6.52,10.52,13.97,15.87,20.43,13.78.01,0,.02,0,.04-.01.56-.18,1.1-.43,1.64-.72.05-.03.1-.05.15-.08.51-.29,1.02-.64,1.52-1.03.07-.05.14-.11.2-.17.48-.4.95-.84,1.41-1.34.08-.08.16-.18.23-.26.45-.51.89-1.05,1.32-1.66.08-.12.16-.25.25-.37.42-.62.83-1.27,1.23-1.98.02-.04.04-.06.06-.1.37-.69.73-1.35,1.08-2.11.28-.62-.02-2.34-.4-1.96-.35.37-.71.61-1.07.92-.05-.06-.11-.13-.18-.14-.46-.16-.93-.35-1.41-.58,0,0,0,0,0,0-4.16-1.89-8.39-6.08-12.26-12.77.95.91,1.9,1.76,2.86,2.65.46.44.49-1.46.06-1.98-2.36-2.79-4.9-5.65-7.14-9.85,2.83,2.36,5.63,3.75,7.73,4.13,4.12.77,11.42,1.54,13.22-9.88.18-1.12-.39-2.53-.73-1.86Z"
  />
  <path
    class="cls-1"
    d="M1429.06,1229.42c-.83,1.66-1.76,2.88-2.73,3.92-.1-1.05-.39-2-.82-2.41h0c-.08-.06-.15-.16-.24-.2-.6-.19-1.21-.54-1.83-.97-.13-.09-.25-.19-.38-.28-.6-.45-1.2-.97-1.81-1.59-.84-.85-1.69-1.86-2.54-2.99,0,0,0-.01-.01-.02-1.69-2.25-3.4-4.99-5.08-8.02-.03-.06-.07-.12-.1-.18-.8-1.45-1.6-2.97-2.39-4.53-.09-.18-.19-.37-.28-.56-.77-1.53-1.53-3.09-2.28-4.67-.03-.06-.05-.12-.08-.18-.68-1.45-1.35-2.9-2-4.35-.18-.41-.37-.82-.55-1.22-.6-1.35-1.19-2.68-1.76-4-.23-.53-.46-1.06-.68-1.58-.56-1.29-1.11-2.59-1.63-3.81-2.17-5.1-4.23-10.34-6.22-15.71,4.03,4.62,8.15,7.13,12.26,11,.5.48.66-1.6.19-2.34-5.15-7.85-10.66-10.48-15.73-19.16-.22-.39-.45-.72-.67-1.11-.16-.31-.31-.62-.47-.91-.78-2.33-1.56-4.66-2.32-7.05,8.56,5.19,17.22,4.37,24.74-1.77,1.01-.81.49-5.68-.61-5.7-.66,0-1.33-.03-1.99-.05.2-.12.39-.23.58-.38.16-.12.08-.89-.1-.9-.43-.04-.87-.15-1.3-.23-.09-.12-.16-.29-.27-.33-8.02-2.71-15.81-12.11-23.2-25.3-.79-1.4-1.59-2.93-2.39-4.48,3.48,1.35,6.89,1.45,10.14.07,3.33-.64,6.46-3.07,8.99-7.37,1.89-1.15,3.69-2.99,5.3-6.07.12-.25.03-.89-.13-.89-1.74-.13-3.46-.1-5.17-.05-.09-1.19-.42-2.43-.88-2.39-4.82.49-9.37-2.1-13.69-6.92-.94-1.05-1.86-2.2-2.77-3.45-.02-.03-.04-.05-.06-.08-.92-1.26-1.83-2.62-2.73-4.08-.92-1.49-1.84-3.08-2.74-4.76-.01-.02-.02-.04-.03-.06-1.74-3.23-3.43-6.8-5.08-10.61-.14-.33-.28-.66-.42-.99-.78-1.82-1.55-3.68-2.31-5.61,6.5,9.16,12.54,13.65,18.72,7.44.5-.51.15-2.84-.39-2.51-4.22,2.58-9.54-3.34-14.24-11.29,2.43,1.14,4.88,1.35,7.3.48.72-.25.57-3.34-.22-3.54-.81-.2-1.61-.54-2.41-.94-.38-.19-.75-.45-1.13-.69-.39-.24-.78-.5-1.17-.79-.51-.38-1.01-.81-1.51-1.27-.22-.2-.43-.41-.65-.62-.6-.59-1.2-1.21-1.79-1.91-.06-.07-.11-.14-.17-.21-1.16-1.37-2.29-2.93-3.4-4.71,0,0,0,0-.01-.01-2.72-4.32-5.3-9.69-7.62-16.08-.52-1.53-1.05-3.04-1.58-4.5-.58-1.81-1.12-3.66-1.65-5.49,4.75,10.13,10.12,16.97,15.49,20.82.9.64.97-2.88.12-3.86-5.19-5.93-10.09-15.76-14.33-27.37,4.66,5.63,9.44,8.34,14.51,8.08.1,0,.17-.1.23-.24.01-.02.02-.05.03-.07.1-.3.13-.78.08-1.25,0,0,0-.02,0-.03-.07-.59-.24-1.13-.51-1.18-.41-.05-.82-.17-1.24-.33-.23-.09-.47-.22-.7-.34-.22-.11-.44-.21-.66-.35-.29-.19-.59-.42-.88-.65-.13-.1-.26-.19-.4-.31-.33-.28-.66-.6-.99-.93-.1-.1-.19-.18-.29-.28-.36-.37-.72-.78-1.08-1.21-.06-.08-.12-.15-.19-.22-.38-.47-.77-.97-1.15-1.5-.03-.04-.06-.08-.09-.13-.83-1.15-1.66-2.42-2.49-3.8-3.97-6.64-7.79-15.52-10.95-23.6,2.12,3.47,4.21,5.84,6.18,6.71.26.11.3-.97.03-1.15-12.25-7.6-18.3-54.48-22.9-82.43-.1-.63-.26-1.13-.43-1.55-.02-.05-.04-.07-.06-.11-.17-.37-.35-.64-.54-.81,0,0,0-.02-.01-.02-.02-.02-.04-.01-.06-.03-.13-.1-.26-.19-.39-.2-.16-.02-.31.03-.44.17-.14-1.33-.27-2.63-.44-3.95-.05-.39-.12-.73-.2-1.02,0-.03-.02-.05-.03-.08-.56-1.86-1.62-1.26-1.73,1-2.79,56.53-9.76,112.35-29.62,126.22-.02-.03-.04-.06-.06-.09-.5.34-.96.79-1.47,1.09-.27.13-.19,1.2.03,1.64,5.13,10.26,12.02,2.45,17.46-8.48-.74,2.38-1.51,4.75-2.36,6.97-2.89,7.47-6.25,18.49-10.43,20.57-.05,0-.09.03-.14.03-.03,0-.05.07-.07.12h0s0,0,0,0c-.06.07-.11.16-.14.29,0,.04,0,.09-.01.13-.08.52,0,1.29.27,1.53.57.52,1.19.98,1.83,1.4,0,0,.02.01.03.02.53.34,1.07.65,1.63.93.23.11.47.19.7.29.39.16.77.33,1.17.46.26.09.53.15.8.21.39.1.77.2,1.17.26.27.05.55.08.83.11.4.05.81.07,1.22.08.27,0,.54,0,.81,0,.43-.02.86-.06,1.28-.13.26-.04.51-.07.77-.12.47-.1.94-.23,1.41-.38.21-.07.42-.12.63-.2.68-.25,1.35-.56,2.01-.93-1.42,9.16-3.27,17.36-6.4,24.55-.9,2.07-1.8,4.15-2.72,6.18-.03.06-.05.11-.08.17-.94,2.07-1.89,4.09-2.86,6.02-.55,1.11-1.12,2.18-1.69,3.22-.08.14-.15.28-.23.42-.49.89-1,1.73-1.51,2.56-.14.23-.28.47-.42.69-.47.74-.96,1.43-1.45,2.11-.17.23-.33.49-.5.71-.65.85-1.31,1.65-1.99,2.37-1.05.17-2.07.34-2.96.54-.37.07-.38,1.3-.05,1.96.28.56.59,1.05.89,1.57.03.59.12,1.16.26,1.63,0,0,0,.02,0,.03,0,0,0,0,0,.01.07.23.15.41.24.55.02.04.04.1.07.14.11.14.24.21.38.16.2-.04.41-.16.62-.24.45.55.92,1.02,1.4,1.44.16.14.32.24.49.37.32.25.64.51.97.71.21.13.44.22.65.33.28.14.56.3.85.41.26.1.53.17.8.24.25.07.49.15.73.2.31.06.63.09.95.11.2.02.4.05.6.05.37.01.75-.01,1.12-.04.14-.01.28-.01.42-.03.45-.05.89-.13,1.34-.24.06-.01.12-.02.18-.04.71-.17,1.41-.38,2.11-.66-1.38,3.99-2.89,7.66-4.63,10.04-1.63.95-3.41,1.29-5.41.79-.23-.04-.3.89-.11,1.34.07.15.14.25.21.39-.25-.04-.22.99-.02,1.36.82,1.53,1.64,2.43,2.45,2.9.28.41.57.73.85,1.05.01.01.02.02.04.03,1.09,1.27,2.18,2.11,3.28,2.5,0,0,.02.01.03.01.4.12.8.23,1.22.27-3.65,5.7-8.01,9.44-12.23,10.08-.53-.04-1.06-.17-1.61-.34-.62-.49-1.24-1.02-1.86-1.59-1.12-1.07-1.36,2.78-.66,4.94,3.39,10.52,8.88,15.18,13.89,17.16.68.27,1.34.49,1.99.67-.45,2.06-.92,4.08-1.45,6.02-.34,1.26-.74,2.58-1.16,3.91-.18.56-.37,1.14-.56,1.71-.25.74-.5,1.49-.77,2.24-.28.79-.57,1.58-.87,2.37-.17.46-.35.92-.53,1.38-2.34,5.97-5.18,11.9-8.12,16.32,0,0,0,.01-.01.02-.55.82-1.11,1.61-1.66,2.34-.64.81-1.27,1.6-1.91,2.23-2.82.33-5.62-.08-8.36-1.56-.23-.11-.48.62-.25,1.34.62,1.96,1.29,3.63,1.98,5.12.06.14.12.3.19.43,0,0,0,.01,0,.02.55,1.14,1.13,2.11,1.71,2.99.12.18.24.34.36.51.57.8,1.16,1.52,1.76,2.1.01.01.03.03.04.04.61.59,1.24,1.04,1.87,1.42.15.09.29.17.44.25.63.33,1.26.61,1.9.77-2.19,1.53-4.4,2.9-6.62,4.22-.37.22-.13,1.71.19,1.86,4.09,1.78,9.09,1.46,13.7-1.67-1.14,2.79-2.27,5.31-3.29,7.55-.55,1.2-1.12,2.3-1.71,3.31-.05.09-.1.16-.15.24-.55.93-1.11,1.79-1.69,2.58-.04.05-.07.09-.11.14-.74,1-1.51,1.88-2.29,2.65-.06.06-.12.12-.18.18-.82.79-1.65,1.46-2.51,2.02-.03.02-.06.03-.09.05-.77.49-1.55.87-2.34,1.19-.19.08-.38.15-.57.22-.83.29-1.66.52-2.51.64-1.17-.59-2.33-1.15-3.5-1.63-.27-.11-.3.97-.11,1.48.04.13.09.21.15.33-.19.21-.18,1.07.04,1.44.59,1.05,1.17,1.95,1.77,2.76.4.85.81,1.55,1.22,2.31,0,0,.01.02.02.03,2.9,5.46,6.01,8.91,9.22,10.79.03.02.06.03.09.05.77.44,1.54.82,2.32,1.1.1.03.19.05.29.08.72.24,1.44.44,2.16.54.22.03.45.02.67.05.6.06,1.2.12,1.8.1.84-.03,1.67-.13,2.5-.29-.59.69-1.2,1.29-1.81,1.84-.56.49-1.13.92-1.71,1.3-.05.03-.1.08-.15.11-1.54.13-3.06.38-4.56.82-.22.06-.39.37-.5.81-1.13-.26-2.24-.57-3.29-.96-.81-.3-.7,2.88-.12,3.99,12.17,23.29,27.92,11,39.49-2.32-.13,3.19-.35,6.34-.53,9.5-.17,2.95-.31,5.9-.52,8.83-.39,5.36-.83,10.71-1.36,16.09-.02.22,0,.44.04.64,0,.02.01.03.02.06.07.31.18.51.29.47.05,0,.1-.05.14-.19.37-1.3.74-2.56,1.11-3.83.3-.91.59-1.9.88-2.87-.27,1.36-.52,2.73-.82,4.03-.13.59.19,1.43.36.9,4.53-14.58,9.01-27.31,11.91-45.27,1.49,9.72,3.25,18.1,5.85,26.7.19.67.51.09.32-.61-1.37-4.9-2.5-10.59-3.46-16.58.7,2.33,1.41,4.54,2.09,6.57,1.26,3.72,2.6,7.09,3.96,10.35,2.15,35.82,3.69,73.45,3.69,73.45,11.57,12.57,14.84-4.39,14.84-4.39-1.86-17-4.72-51.8-6.87-78.9,2.2,5.92,4.51,11.5,6.68,16.91.2.5.41-.25.21-.77-2.31-6.3-4.55-13.27-6.6-20.48,2.84,6.14,5.81,11.59,8.88,15.95.8,1.14,1.6,2.13,2.4,3.06.39.46.78.92,1.17,1.34.01.01.02.03.03.04.05.05.1.09.15.15,2.4,2.57,4.82,4.45,7.25,5.91.16.1.32.21.49.3.68.39,1.35.74,2.03,1.08.28.14.56.28.84.41.62.29,1.24.57,1.86.82.36.15.72.29,1.09.43.56.22,1.12.44,1.69.64.53.19,1.06.38,1.6.56,1.28.44,2.56.87,3.83,1.32.12.04.22,0,.32-.07.03-.03.06-.07.09-.11.05-.07.1-.16.14-.27.02-.06.04-.12.06-.19.04-.16.07-.34.09-.54,0-.04.01-.07.02-.11.02-.25.02-.52.02-.8,0-.09,0-.17-.01-.26,0-.21-.03-.42-.05-.63-.01-.09-.02-.18-.03-.27-.03-.24-.07-.47-.12-.68-.01-.05-.02-.11-.03-.16,0,0,0,0,0,0-.02-.07-.04-.13-.06-.19-.14-.47-.3-.88-.52-1.09-.94-.92-1.87-1.75-2.8-2.55-.57-.49-1.13-.98-1.69-1.44-.88-1.06-1.75-2.22-2.62-3.47-.07-.26-.16-.48-.28-.58-.17-.14-.32-.38-.49-.54-1.61-2.47-3.17-5.32-4.65-8.75-.13-.3-.27-.64-.4-.98,9.15,14.77,19.62,22.28,28.69,19.35.02,0,.03,0,.05-.02.78-.26,1.55-.6,2.3-1.01.07-.04.14-.07.2-.11.72-.41,1.43-.89,2.13-1.45.1-.08.19-.15.29-.23.67-.56,1.33-1.19,1.98-1.89.11-.12.22-.25.33-.37.63-.71,1.25-1.48,1.85-2.33.12-.17.23-.35.35-.52.59-.87,1.16-1.78,1.72-2.79.03-.05.06-.09.09-.14.51-.97,1.03-1.9,1.52-2.97.4-.87-.03-3.29-.56-2.75-.49.51-1,.86-1.51,1.29-.08-.08-.16-.18-.25-.2-.65-.23-1.31-.5-1.98-.81,0,0,0,0,0,0-5.84-2.65-11.78-8.54-17.22-17.93,1.34,1.27,2.67,2.48,4.02,3.72.65.61.69-2.06.08-2.78-3.31-3.91-6.88-7.93-10.02-13.83,3.97,3.32,7.91,5.26,10.86,5.8,5.78,1.08,16.03,2.17,18.56-13.87.25-1.57-.55-3.55-1.03-2.61Z"
  />
  <path
    class="cls-1"
    d="M1217.25,1322.8c.24-1.33-.49-3.01-.93-2.21-.77,1.41-1.63,2.45-2.53,3.35-.09-.89-.34-1.7-.74-2.04-.07-.05-.14-.13-.22-.17-.55-.16-1.11-.45-1.67-.81-.11-.07-.23-.16-.35-.24-.55-.38-1.1-.82-1.65-1.34-.76-.72-1.53-1.57-2.31-2.53,0,0,0-.01-.01-.01-1.53-1.9-3.08-4.22-4.61-6.79-.03-.05-.06-.1-.09-.15-.73-1.23-1.45-2.51-2.17-3.83-.08-.16-.17-.31-.25-.47-.7-1.3-1.39-2.62-2.07-3.96-.03-.05-.05-.1-.08-.15-.62-1.22-1.22-2.46-1.81-3.69-.17-.35-.33-.69-.5-1.04-.54-1.14-1.07-2.27-1.59-3.38-.21-.45-.41-.9-.62-1.34-.5-1.1-1-2.19-1.47-3.23-1.96-4.32-3.82-8.76-5.61-13.31,3.67,3.91,7.42,6.01,11.17,9.28.45.4.62-1.37.19-1.99-4.68-6.64-9.7-8.85-14.3-16.19-.2-.33-.41-.61-.61-.94-.14-.26-.28-.52-.42-.77-.7-1.97-1.41-3.95-2.09-5.97,7.82,4.36,15.74,3.62,22.67-1.64.93-.7.48-4.83-.53-4.84-.6,0-1.22-.01-1.82-.03.18-.1.36-.2.54-.32.14-.1.07-.76-.09-.76-.4-.03-.79-.13-1.19-.19-.08-.1-.15-.25-.25-.28-7.33-2.26-14.41-10.2-21.11-21.36-.72-1.19-1.44-2.48-2.16-3.79,3.18,1.12,6.3,1.19,9.28,0,3.06-.56,5.93-2.64,8.27-6.31,1.74-.98,3.39-2.56,4.88-5.19.11-.21.03-.75-.11-.76-1.59-.1-3.17-.07-4.73-.01-.07-1.01-.37-2.06-.8-2.03-4.41.44-8.57-1.73-12.5-5.8-.85-.89-1.69-1.86-2.52-2.91-.02-.02-.04-.05-.05-.07-.84-1.07-1.66-2.22-2.48-3.45-.84-1.26-1.67-2.61-2.48-4.03-.01-.02-.02-.04-.03-.05-.77-1.35-1.54-2.76-2.29-4.23.53-.06,1.05-.16,1.57-.31.01,0,.02,0,.03,0,.51-.16,1.01-.37,1.51-.62.04-.02.09-.04.13-.07.47-.25.94-.55,1.39-.88.05-.03.09-.07.14-.1,2.52.79,5.02.24,7.55-2.12.46-.44.15-2.41-.34-2.13-1.13.64-2.34.66-3.59.22.17-.26.34-.53.51-.81.02-.03.04-.06.06-.09.34-.59.68-1.15,1-1.8.26-.53,0-1.99-.35-1.66-.32.31-.66.52-.99.78-.05-.05-.1-.11-.16-.12-.42-.14-.85-.3-1.29-.48,0,0,0,0,0,0-2.32-.96-4.66-2.67-6.92-5.12,1.81.53,3.63.53,5.43-.07.66-.22.54-2.84-.18-3-.74-.17-1.47-.45-2.2-.79-.34-.16-.69-.38-1.03-.58-.36-.21-.71-.42-1.07-.66-.46-.32-.92-.68-1.38-1.07-.2-.17-.4-.34-.59-.52-.55-.5-1.09-1.02-1.63-1.61-.05-.06-.1-.12-.15-.17-.85-.93-1.68-1.98-2.5-3.13,1.59.89,3.09,1.45,4.32,1.65,3.77.63,10.45,1.25,12.16-8.46.17-.95-.35-2.15-.66-1.57-.55,1.01-1.16,1.75-1.8,2.38-.06-.64-.24-1.21-.52-1.46-.05-.03-.1-.09-.15-.12-.39-.11-.79-.32-1.19-.58-.08-.05-.16-.11-.25-.17-.39-.27-.78-.58-1.18-.96-.54-.51-1.09-1.12-1.65-1.8,0,0,0,0,0-.01-1.09-1.35-2.2-3.01-3.29-4.83-.02-.04-.04-.07-.06-.11-.52-.87-1.04-1.79-1.54-2.73-.06-.11-.12-.22-.18-.33-.5-.92-.99-1.87-1.47-2.82-.02-.04-.04-.07-.05-.11-.44-.87-.87-1.75-1.29-2.63-.1-.2-.19-.4-.29-.6,1.04.21,2.1.29,3.17.24.09,0,.16-.09.21-.2,0-.02.02-.04.03-.06.1-.26.12-.66.08-1.06,0,0,0-.02,0-.03-.06-.5-.21-.96-.46-1-.38-.04-.75-.14-1.13-.27-.21-.07-.43-.19-.64-.29-.2-.09-.4-.18-.6-.29-.27-.16-.54-.35-.81-.55-.12-.09-.24-.16-.36-.26-.3-.24-.6-.51-.9-.79-.09-.08-.17-.15-.26-.24-.33-.32-.65-.66-.98-1.02-.03-.03-.06-.06-.08-.09-1.38-3.04-2.69-6.16-3.95-9.37,2.61,2.78,5.29,4.28,7.95,6.61.32.29.44-.97.13-1.42-3.33-4.73-6.91-6.3-10.18-11.53-.14-.24-.29-.43-.43-.67-.1-.19-.2-.37-.3-.55-.27-.76-.53-1.53-.8-2.29.05-.26.01-.66-.14-.75-.05-.03-.11-.08-.16-.11-.13-.37-.26-.73-.39-1.1,5.57,3.1,11.21,2.58,16.15-1.17.66-.5.34-3.44-.38-3.45-.43,0-.87-.01-1.3-.02.13-.07.26-.14.38-.23.1-.07.05-.54-.06-.54-.28-.02-.57-.09-.85-.13-.06-.07-.1-.18-.17-.2-5.22-1.61-10.27-7.27-15.04-15.21-.51-.84-1.03-1.77-1.54-2.7,2.27.8,4.49.85,6.61,0,2.18-.4,4.22-1.88,5.89-4.5,1.24-.7,2.42-1.82,3.48-3.69.08-.15.02-.54-.08-.54-1.14-.07-2.26-.05-3.37-.01-.05-.72-.26-1.47-.57-1.44-3.14.32-6.11-1.23-8.91-4.13-.61-.63-1.2-1.32-1.79-2.07-.01-.02-.03-.03-.04-.05-.6-.76-1.19-1.58-1.77-2.46-.6-.9-1.19-1.86-1.77-2.87,0-.01-.01-.03-.02-.04-1.12-1.95-2.21-4.1-3.28-6.4-.09-.2-.18-.4-.27-.6-.5-1.1-1-2.22-1.48-3.39,4.21,5.52,8.12,8.21,12.18,4.43.33-.31.11-1.72-.24-1.52-2.76,1.58-6.21-1.99-9.24-6.78,1.58.68,3.18.8,4.76.26.47-.16.38-2.02-.13-2.14-.52-.12-1.05-.32-1.57-.56-.24-.12-.49-.27-.73-.41-.25-.15-.51-.3-.76-.47-.33-.23-.66-.48-.98-.76-.14-.12-.28-.24-.42-.37-.39-.36-.78-.73-1.16-1.15-.04-.04-.07-.08-.11-.12-.75-.83-1.48-1.77-2.2-2.84,0,0,0,0,0,0-1.76-2.6-3.42-5.84-4.91-9.7-.33-.93-.68-1.83-1.01-2.72-.37-1.09-.71-2.21-1.05-3.31,3.06,6.11,6.54,10.23,10.02,12.53.59.38.64-1.74.09-2.34-3.37-3.57-6.52-9.5-9.24-16.5,3.02,3.39,6.12,5.01,9.43,4.83.07,0,.11-.06.15-.14,0-.01.01-.03.02-.04.07-.18.09-.47.06-.75,0,0,0-.01,0-.02-.04-.36-.15-.69-.33-.71-.27-.03-.54-.1-.81-.19-.15-.05-.3-.13-.46-.2-.14-.07-.29-.13-.43-.21-.19-.11-.38-.25-.57-.39-.09-.06-.17-.12-.26-.18-.21-.17-.43-.36-.64-.56-.06-.06-.12-.11-.19-.17-.23-.23-.46-.47-.7-.73-.04-.04-.08-.09-.12-.13-.25-.28-.5-.58-.75-.9-.02-.03-.04-.05-.06-.08-.54-.69-1.07-1.46-1.61-2.29-2.56-4-5.02-9.36-7.05-14.23,1.37,2.09,2.72,3.52,4,4.04.17.06.2-.59.03-.69-7.96-4.55-11.73-32.89-14.62-49.78-.06-.38-.16-.68-.28-.94-.01-.03-.03-.04-.04-.07-.11-.22-.22-.38-.35-.49,0,0,0-.01,0-.01-.01-.01-.03,0-.04-.02-.09-.06-.17-.12-.25-.12-.1-.01-.2.02-.29.11-.09-.8-.17-1.59-.27-2.39-.03-.24-.07-.44-.12-.61,0-.02-.01-.03-.02-.05-.36-1.12-1.05-.76-1.13.61-2.04,34.21-6.8,68-19.81,76.47-.01-.02-.03-.04-.04-.06-.32.21-.63.48-.96.66-.18.08-.13.73.01.99,3.31,6.19,7.83,1.43,11.42-5.2-.49,1.45-1,2.88-1.57,4.23-1.91,4.53-4.15,11.21-6.88,12.48-.03,0-.06.02-.09.02-.02,0-.03.04-.05.07h-.01s-.07.1-.09.18c0,.03,0,.05,0,.08-.05.32,0,.78.17.92.37.31.77.59,1.19.84,0,0,.01,0,.02.01.34.21.7.39,1.06.55.15.07.31.11.46.17.25.1.5.2.76.27.17.05.35.09.52.13.25.06.5.12.76.15.18.03.36.04.54.06.26.03.53.04.79.04.18,0,.35,0,.53,0,.28-.01.56-.04.84-.08.17-.02.33-.04.5-.07.31-.06.62-.15.92-.24.14-.04.28-.07.41-.12.44-.16.88-.34,1.32-.57-.96,5.55-2.2,10.52-4.27,14.88-.59,1.26-1.19,2.51-1.8,3.75-.02.03-.03.07-.05.1-.62,1.25-1.25,2.48-1.89,3.65-.37.67-.74,1.32-1.11,1.95-.05.08-.1.17-.15.25-.33.54-.66,1.05-.99,1.55-.09.14-.18.28-.28.42-.31.45-.63.87-.95,1.28-.11.14-.22.3-.33.43-.43.52-.86,1-1.31,1.44-.69.11-1.35.21-1.94.34-.24.04-.25.79-.04,1.19.18.34.38.63.58.94.02.35.08.7.16.98,0,0,0,.01,0,.02,0,0,0,0,0,0,.04.14.1.25.15.33.02.02.03.06.04.08.07.08.16.13.25.1.13-.02.27-.1.4-.15.29.33.6.62.9.87.1.08.21.14.32.22.21.15.42.31.63.43.14.08.28.13.43.2.18.09.36.18.55.25.17.06.35.1.52.14.16.04.32.09.48.12.2.04.41.05.62.07.13,0,.26.03.39.03.24,0,.49-.01.73-.03.09,0,.18,0,.27-.02.29-.03.58-.08.87-.15.04,0,.08-.01.12-.02.46-.11.92-.23,1.38-.41-.91,2.42-1.92,4.65-3.06,6.09-1.07.58-2.23.79-3.53.5-.15-.03-.2.54-.08.81.04.09.09.15.13.24-.17-.02-.15.6-.02.82.53.92,1.06,1.46,1.59,1.75.18.24.37.44.55.63,0,0,.02.01.02.02.7.76,1.42,1.27,2.13,1.5,0,0,.01,0,.02,0,.26.07.52.14.79.16-2.4,3.46-5.26,5.74-8.02,6.14-.34-.02-.69-.1-1.05-.2-.4-.29-.81-.61-1.21-.96-.72-.65-.9,1.69-.45,2.99,2.17,6.35,5.73,9.15,8.99,10.33.44.16.87.29,1.3.4-.3,1.25-.62,2.47-.97,3.65-.23.76-.49,1.56-.77,2.37-.12.34-.25.69-.37,1.04-.16.45-.33.9-.51,1.36-.19.48-.38.96-.58,1.44-.11.28-.23.56-.35.83-1.55,3.62-3.43,7.22-5.36,9.9,0,0,0,0,0,.01-.36.5-.73.98-1.09,1.42-.42.49-.84.97-1.25,1.35-1.84.21-3.67-.03-5.45-.91-.15-.06-.32.38-.17.81.4,1.18.83,2.19,1.27,3.09.04.08.08.18.12.26,0,0,0,0,0,.01.36.69.73,1.27,1.11,1.8.08.11.15.21.23.31.37.48.75.92,1.14,1.27,0,0,.02.02.03.03.4.35.8.62,1.21.85.1.05.19.1.29.15.41.2.82.36,1.24.46-1.43.94-2.88,1.77-4.34,2.58-.24.14-.09,1.04.12,1.12,2.66,1.06,5.92.85,8.94-1.06-.76,1.69-1.5,3.22-2.17,4.58-.36.73-.74,1.39-1.13,2.01-.03.05-.07.1-.1.15-.36.56-.73,1.09-1.11,1.57-.02.03-.05.05-.07.08-.49.61-.99,1.14-1.5,1.61-.04.04-.08.08-.12.11-.54.48-1.08.89-1.64,1.23-.02.01-.04.02-.06.03-.5.3-1.01.53-1.53.73-.12.05-.25.09-.37.13-.54.18-1.09.32-1.64.39-.76-.35-1.51-.68-2.28-.97-.18-.06-.2.59-.08.89.03.08.06.12.1.2-.13.13-.12.65.02.87.38.63.76,1.17,1.14,1.66.26.51.52.94.78,1.4,0,0,0,0,.01.02,1.87,3.29,3.88,5.37,5.97,6.49.02.01.04.02.06.03.5.26,1,.49,1.51.65.06.02.12.03.19.05.47.14.93.26,1.41.32.15.02.29.01.44.03.39.03.78.07,1.17.05.55-.02,1.09-.08,1.63-.19-.39.42-.79.78-1.19,1.12-.37.3-.74.56-1.12.79-.03.02-.06.05-.1.07-1,.08-2,.24-2.98.51-.15.04-.26.23-.33.49-.74-.15-1.46-.34-2.14-.57-.53-.18-.47,1.74-.09,2.42,7.85,14.04,18.17,6.55,25.77-1.56-.05.97-.11,1.93-.18,2.9-1.01,3.81-2.24,7.39-3.81,10.71-.83,1.77-1.68,3.53-2.53,5.26-.02.05-.05.1-.07.15-.87,1.76-1.75,3.48-2.65,5.13-.51.94-1.04,1.86-1.56,2.74-.07.12-.14.24-.21.36-.46.76-.93,1.48-1.4,2.18-.13.19-.26.4-.39.59-.44.63-.89,1.22-1.34,1.8-.16.2-.31.42-.46.61-.6.73-1.21,1.41-1.83,2.02-.97.15-1.9.3-2.72.48-.34.06-.35,1.11-.06,1.67.25.47.54.89.81,1.32.02.5.11.99.23,1.38,0,0,0,.02,0,.02,0,0,0,0,0,.01.06.2.13.34.22.47.02.04.04.09.06.12.1.12.22.18.35.14.18-.03.38-.14.57-.21.41.46.84.86,1.27,1.22.14.12.3.2.44.31.29.21.59.43.89.6.2.11.4.19.6.28.26.12.51.25.77.34.24.09.48.14.73.2.22.06.45.13.67.17.29.05.58.07.87.09.18.01.36.04.55.04.34,0,.68-.01,1.03-.04.13-.01.26-.01.38-.03.41-.05.82-.12,1.23-.21.05-.01.11-.02.16-.03.65-.15,1.3-.33,1.94-.57-1.28,3.39-2.69,6.52-4.29,8.55-1.5.82-3.13,1.11-4.96.7-.21-.04-.28.75-.11,1.14.06.12.13.21.19.33-.23-.03-.21.84-.03,1.16.74,1.29,1.49,2.05,2.23,2.45.26.34.52.62.78.89.01.01.02.02.03.03.99,1.07,1.99,1.78,2.99,2.11,0,0,.02,0,.02.01.37.1.73.2,1.11.22-3.38,4.86-7.39,8.06-11.26,8.63-.48-.03-.97-.14-1.47-.28-.56-.41-1.13-.86-1.69-1.34-1.02-.91-1.26,2.37-.63,4.2,3.04,8.92,8.05,12.85,12.62,14.5.62.23,1.23.41,1.82.56-.42,1.75-.86,3.47-1.36,5.12-.32,1.07-.69,2.19-1.08,3.33-.17.48-.35.97-.53,1.45-.23.63-.47,1.27-.71,1.91-.26.67-.53,1.34-.81,2.02-.16.39-.33.78-.49,1.17-2.18,5.09-4.81,10.13-7.53,13.91,0,0,0,.01-.01.02-.51.7-1.02,1.37-1.53,1.99-.59.69-1.17,1.36-1.76,1.9-2.58.3-5.15-.04-7.65-1.28-.21-.09-.44.53-.24,1.14.56,1.66,1.16,3.07,1.79,4.34.06.12.11.25.17.37,0,0,0,0,0,.01.5.96,1.02,1.79,1.55,2.53.11.15.22.29.32.43.52.68,1.05,1.29,1.6,1.78.01.01.02.03.04.04.56.5,1.13.88,1.71,1.2.13.07.27.14.4.21.57.28,1.15.51,1.73.64-2.01,1.31-4.04,2.48-6.09,3.62-.34.19-.13,1.45.17,1.58,3.74,1.49,8.32,1.19,12.56-1.49-1.06,2.37-2.11,4.52-3.05,6.43-.51,1.02-1.04,1.96-1.58,2.82-.05.07-.09.14-.14.21-.51.79-1.03,1.53-1.56,2.2-.03.04-.07.08-.1.12-.68.85-1.39,1.6-2.11,2.26-.05.05-.11.1-.16.15-.75.67-1.52,1.25-2.31,1.73-.03.02-.06.03-.08.04-.7.42-1.42.75-2.15,1.02-.17.07-.35.13-.52.19-.76.25-1.53.45-2.3.55-1.07-.5-2.13-.96-3.2-1.37-.25-.09-.28.83-.11,1.25.04.11.08.18.13.28-.18.18-.17.91.03,1.22.53.89,1.06,1.65,1.6,2.34.36.72.73,1.31,1.1,1.96,0,0,0,.01.01.02,2.62,4.62,5.45,7.54,8.38,9.11.03.01.05.02.08.04.7.37,1.41.69,2.12.92.09.03.17.04.26.07.66.2,1.31.36,1.97.45.21.03.41.02.62.04.55.04,1.1.1,1.65.08.77-.03,1.53-.12,2.29-.26-.55.59-1.1,1.1-1.67,1.57-.52.42-1.04.79-1.58,1.12-.05.03-.09.06-.14.09-1.41.11-2.8.34-4.18.72-.21.05-.36.32-.46.69-1.04-.22-2.05-.47-3.01-.79-.74-.25-.66,2.45-.13,3.39,11.02,19.71,25.51,9.19,36.19-2.19-.14,2.71-.35,5.38-.54,8.07-.17,2.5-.32,5.01-.53,7.5-.38,4.56-.82,9.1-1.33,13.67-.02.19,0,.38.03.54,0,.02,0,.03.01.05.06.26.16.43.26.4.05,0,.09-.04.13-.16.35-1.11.69-2.18,1.04-3.26.28-.78.55-1.62.82-2.44-.25,1.15-.49,2.32-.77,3.43-.13.5.16,1.21.32.76,4.23-12.41,8.4-23.24,11.16-38.51,1.31,8.25,2.88,15.36,5.22,22.65.17.57.47.07.3-.52-1.22-4.16-2.23-8.98-3.08-14.06.63,1.98,1.26,3.85,1.88,5.57,1.13,3.15,2.34,6.01,3.57,8.77,1.78,30.41,2.98,62.36,2.98,62.36,10.53,10.61,13.62-3.81,13.62-3.81-1.61-14.43-4.05-43.97-5.86-66.97,1.98,5.02,4.07,9.74,6.03,14.33.18.42.37-.21.2-.65-2.08-5.33-4.09-11.24-5.93-17.36,2.57,5.2,5.26,9.81,8.05,13.5.72.97,1.45,1.8,2.19,2.59.36.39.71.78,1.07,1.13,0,0,.02.02.03.03.05.04.09.08.13.12,2.18,2.17,4.39,3.76,6.61,4.98.15.08.3.17.45.25.62.33,1.23.62,1.85.9.26.12.51.23.77.34.57.24,1.14.47,1.7.69.33.12.66.25.99.36.51.18,1.03.37,1.54.53.49.16.97.31,1.46.47,1.17.37,2.34.73,3.5,1.1.11.03.21,0,.29-.06.03-.02.05-.06.08-.09.05-.06.09-.14.13-.23.02-.05.04-.1.06-.16.04-.14.07-.29.09-.46,0-.03.01-.06.02-.1.02-.21.03-.44.02-.68,0-.07,0-.14,0-.22,0-.18-.02-.36-.04-.54,0-.08-.02-.15-.03-.23-.03-.2-.07-.4-.11-.58-.01-.04-.02-.09-.03-.14,0,0,0,0,0,0-.02-.06-.04-.11-.06-.16-.12-.4-.27-.75-.47-.93-.86-.78-1.7-1.48-2.55-2.15-.52-.42-1.03-.82-1.54-1.21-.8-.9-1.59-1.88-2.38-2.93-.06-.22-.14-.4-.26-.49-.15-.12-.29-.32-.44-.46-1.46-2.09-2.87-4.5-4.21-7.41-.12-.25-.24-.54-.36-.83,8.3,12.49,17.85,18.82,26.17,16.28.02,0,.03,0,.05-.01.72-.22,1.42-.52,2.11-.87.06-.03.12-.06.19-.09.66-.35,1.31-.77,1.96-1.24.09-.06.18-.13.26-.2.62-.48,1.23-1.01,1.83-1.61.1-.1.2-.21.3-.32.58-.61,1.15-1.26,1.71-1.99.11-.14.21-.3.32-.44.54-.74,1.08-1.52,1.59-2.38.03-.04.06-.08.08-.12.48-.83.96-1.62,1.41-2.53.37-.74-.01-2.79-.49-2.34-.45.44-.92.73-1.39,1.1-.07-.07-.14-.15-.22-.17-.6-.19-1.2-.42-1.81-.68,0,0,0,0,0,0-5.34-2.22-10.75-7.19-15.67-15.13,1.22,1.07,2.43,2.09,3.66,3.14.59.52.64-1.75.09-2.36-3.01-3.3-6.26-6.7-9.11-11.69,3.62,2.8,7.21,4.42,9.91,4.86,5.29.89,14.67,1.75,17.08-11.88Z"
  />
  <path
    class="cls-1"
    d="M1080.18,1401.58c.18-1.07-.41-2.4-.75-1.75-.6,1.13-1.28,1.97-1.99,2.69-.08-.71-.29-1.35-.6-1.62-.06-.04-.11-.1-.17-.13-.44-.12-.88-.35-1.34-.64-.09-.06-.19-.12-.28-.19-.44-.3-.88-.64-1.33-1.06-.61-.57-1.24-1.24-1.86-2,0,0,0,0,0-.01-1.24-1.5-2.49-3.34-3.73-5.38-.02-.04-.05-.08-.07-.12-.59-.97-1.18-1.99-1.76-3.04-.07-.12-.14-.25-.21-.37-.57-1.03-1.13-2.08-1.68-3.14-.02-.04-.04-.08-.06-.12-.5-.97-.99-1.95-1.47-2.93-.14-.28-.27-.55-.41-.82-.44-.9-.87-1.8-1.29-2.69-.17-.36-.34-.71-.5-1.06-.41-.87-.82-1.74-1.2-2.56-1.6-3.43-3.11-6.95-4.58-10.57,2.96,3.09,5.96,4.74,8.98,7.31.36.32.48-1.09.13-1.59-3.78-5.26-7.81-6.98-11.53-12.8-.16-.26-.33-.48-.49-.74-.11-.21-.23-.42-.34-.61-.58-1.57-1.15-3.14-1.71-4.75,6.27,3.42,12.58,2.77,18.07-1.48.74-.56.35-3.86-.46-3.85-.48,0-.97,0-1.45,0,.14-.08.29-.16.43-.26.11-.08.05-.6-.07-.61-.32-.02-.63-.09-.95-.14-.07-.08-.12-.2-.2-.22-5.86-1.75-11.57-8.03-17-16.87-.58-.94-1.17-1.97-1.75-3.01,2.55.87,5.04.9,7.4-.06,2.43-.47,4.71-2.15,6.55-5.1,1.38-.8,2.69-2.07,3.85-4.17.09-.17.02-.6-.1-.6-1.27-.07-2.53-.03-3.77.02-.07-.81-.31-1.64-.65-1.61-3.52.39-6.85-1.31-10.01-4.53-.69-.7-1.36-1.47-2.03-2.3-.01-.02-.03-.04-.04-.05-.68-.85-1.34-1.76-2.01-2.73-.68-1-1.35-2.07-2.01-3.19,0-.01-.02-.03-.02-.04-.63-1.07-1.25-2.19-1.86-3.36.42-.05.84-.13,1.25-.26,0,0,.02,0,.03,0,.41-.13.8-.3,1.2-.51.04-.02.07-.04.11-.05.37-.2.74-.44,1.1-.72.04-.03.07-.06.11-.08,2.01.61,4,.16,6.01-1.75.37-.35.1-1.92-.29-1.7-.89.52-1.86.55-2.86.2.14-.21.27-.42.4-.65.01-.03.03-.04.05-.07.27-.47.53-.92.79-1.44.21-.42-.02-1.59-.29-1.32-.25.25-.52.42-.78.63-.04-.04-.08-.09-.13-.09-.34-.11-.68-.23-1.03-.37,0,0,0,0,0,0-1.86-.75-3.73-2.09-5.56-4.03,1.45.41,2.9.4,4.33-.1.53-.18.41-2.27-.17-2.39-.59-.13-1.18-.35-1.76-.61-.28-.13-.55-.29-.83-.45-.29-.16-.57-.33-.86-.52-.37-.25-.74-.54-1.11-.84-.16-.13-.32-.27-.48-.41-.44-.39-.88-.81-1.31-1.27-.04-.04-.08-.09-.12-.14-.68-.74-1.35-1.57-2.02-2.48,1.28.7,2.47,1.13,3.46,1.28,3.01.47,8.34.92,9.63-6.84.13-.76-.29-1.71-.54-1.25-.43.81-.91,1.4-1.42,1.92-.05-.51-.2-.96-.43-1.16-.04-.03-.08-.07-.12-.09-.31-.09-.63-.25-.95-.45-.07-.04-.13-.09-.2-.13-.31-.21-.63-.46-.95-.75-.44-.4-.88-.88-1.33-1.42,0,0,0,0,0,0-.88-1.07-1.77-2.38-2.66-3.83-.02-.03-.04-.06-.05-.09-.42-.69-.84-1.42-1.25-2.16-.05-.09-.1-.18-.15-.27-.4-.73-.8-1.48-1.19-2.24-.01-.03-.03-.06-.04-.09-.36-.69-.71-1.39-1.05-2.08-.08-.16-.16-.32-.24-.48.83.16,1.68.22,2.53.16.07,0,.13-.07.17-.16,0-.02.01-.03.02-.05.08-.21.09-.53.05-.85,0,0,0-.01,0-.02-.05-.4-.18-.77-.37-.79-.3-.03-.6-.11-.91-.21-.17-.06-.34-.15-.51-.22-.16-.07-.32-.14-.48-.23-.21-.12-.43-.28-.65-.43-.1-.07-.19-.13-.29-.2-.24-.19-.48-.4-.72-.62-.07-.06-.14-.12-.21-.19-.26-.25-.52-.52-.79-.81-.02-.02-.04-.05-.07-.07-1.12-2.42-2.19-4.89-3.22-7.44,2.1,2.2,4.25,3.37,6.39,5.21.26.23.34-.78.1-1.13-2.69-3.75-5.56-4.97-8.21-9.12-.12-.19-.23-.34-.35-.53-.08-.15-.16-.3-.24-.43-.22-.6-.44-1.22-.66-1.82.04-.21,0-.53-.12-.6-.04-.02-.09-.06-.13-.08-.1-.29-.21-.58-.32-.88,4.46,2.43,8.96,1.97,12.87-1.05.52-.4.25-2.75-.33-2.74-.34,0-.69,0-1.04,0,.1-.06.2-.11.3-.19.08-.06.04-.43-.05-.43-.23-.02-.45-.07-.68-.1-.05-.06-.08-.14-.14-.16-4.17-1.24-8.24-5.72-12.11-12.02-.42-.67-.83-1.4-1.25-2.14,1.81.62,3.59.64,5.27-.05,1.73-.33,3.35-1.53,4.66-3.63.98-.57,1.91-1.47,2.75-2.97.06-.12.01-.43-.07-.43-.91-.05-1.8-.02-2.69.02-.05-.57-.22-1.17-.46-1.15-2.5.28-4.88-.94-7.13-3.23-.49-.5-.97-1.05-1.45-1.64-.01-.01-.02-.03-.03-.04-.48-.6-.96-1.25-1.43-1.95-.48-.71-.96-1.47-1.43-2.27,0,0-.01-.02-.02-.03-.91-1.55-1.8-3.25-2.66-5.08-.07-.16-.15-.31-.22-.47-.41-.87-.81-1.76-1.21-2.69,3.4,4.37,6.54,6.48,9.75,3.44.26-.25.07-1.37-.2-1.21-2.19,1.28-4.97-1.54-7.42-5.33,1.26.53,2.54.61,3.8.17.38-.13.29-1.61-.12-1.7-.42-.09-.84-.25-1.26-.43-.2-.09-.39-.21-.59-.32-.2-.11-.41-.23-.61-.37-.26-.18-.53-.38-.79-.6-.11-.09-.23-.19-.34-.29-.31-.28-.63-.58-.93-.91-.03-.03-.06-.07-.09-.1-.6-.65-1.19-1.4-1.78-2.25,0,0,0,0,0,0-1.42-2.06-2.77-4.63-3.99-7.69-.27-.74-.55-1.46-.83-2.16-.31-.87-.59-1.76-.87-2.63,2.48,4.85,5.29,8.1,8.09,9.92.47.3.5-1.4.06-1.86-2.71-2.82-5.27-7.52-7.49-13.09,2.43,2.68,4.92,3.95,7.56,3.78.05,0,.09-.05.12-.12,0-.01,0-.02.01-.04.05-.15.06-.38.04-.6,0,0,0,0,0-.01-.04-.28-.13-.55-.26-.56-.21-.02-.43-.07-.65-.15-.12-.04-.24-.1-.37-.16-.11-.05-.23-.1-.34-.16-.15-.09-.31-.2-.46-.31-.07-.05-.14-.09-.21-.14-.17-.13-.34-.28-.52-.44-.05-.05-.1-.09-.15-.13-.19-.18-.37-.37-.56-.58-.03-.04-.07-.07-.1-.11-.2-.22-.4-.46-.6-.71-.02-.02-.03-.04-.05-.06-.43-.55-.87-1.16-1.3-1.81-2.07-3.17-4.08-7.42-5.73-11.29,1.11,1.66,2.2,2.78,3.22,3.19.13.05.15-.47.02-.55-6.39-3.57-9.6-26.14-12.04-39.58-.05-.3-.14-.54-.23-.75-.01-.02-.02-.03-.03-.05-.09-.18-.18-.3-.28-.39,0,0,0,0,0-.01-.01,0-.02,0-.03-.01-.07-.05-.14-.09-.2-.09-.08,0-.16.02-.23.09-.08-.64-.15-1.27-.24-1.9-.03-.19-.06-.35-.1-.49,0-.02-.01-.02-.02-.04-.29-.89-.84-.6-.9.5-1.37,27.29-4.9,54.28-15.21,61.13-.01-.02-.02-.03-.03-.04-.26.17-.5.39-.76.54-.14.06-.09.58.02.79,2.69,4.91,6.26,1.08,9.07-4.23-.38,1.16-.78,2.3-1.22,3.38-1.49,3.63-3.22,8.97-5.39,10.01-.02,0-.05.01-.07.02-.02,0-.02.03-.04.06h0s0,0,0,0c-.03.03-.06.08-.07.14,0,.02,0,.04,0,.06-.04.25,0,.62.14.74.3.24.62.46.96.66,0,0,0,0,.01,0,.27.16.56.31.85.43.12.05.24.09.37.13.2.08.4.15.61.21.14.04.28.07.42.1.2.05.4.09.61.12.14.02.29.03.43.04.21.02.42.03.63.03.14,0,.28,0,.42-.01.22-.01.44-.04.67-.07.13-.02.27-.04.4-.06.25-.05.49-.12.73-.2.11-.03.22-.06.33-.1.35-.13.7-.28,1.05-.47-.72,4.43-1.67,8.4-3.29,11.9-.46,1.01-.93,2.01-1.41,3-.01.03-.03.06-.04.08-.48,1-.98,1.99-1.48,2.93-.29.54-.58,1.06-.87,1.57-.04.07-.08.14-.12.2-.26.43-.52.84-.78,1.25-.07.11-.14.23-.22.33-.25.36-.5.7-.75,1.03-.09.11-.17.24-.26.35-.34.42-.68.81-1.03,1.16-.55.09-1.08.18-1.54.28-.19.04-.2.63-.03.95.15.27.31.5.47.75.02.28.07.56.14.78,0,0,0,.01,0,.01,0,0,0,0,0,0,.04.11.08.2.13.27.01.02.02.05.04.07.06.07.13.1.2.08.1-.02.22-.08.32-.12.24.26.48.49.73.69.08.07.17.11.25.17.17.12.33.24.51.34.11.06.23.1.34.16.15.07.29.14.44.19.14.05.28.08.41.11.13.03.25.07.38.09.16.03.33.04.49.05.1,0,.21.02.31.02.19,0,.39-.01.58-.03.07,0,.14,0,.22-.02.23-.03.46-.07.69-.12.03,0,.06-.01.09-.02.37-.09.73-.19,1.1-.33-.71,1.93-1.49,3.72-2.39,4.88-.85.47-1.77.65-2.81.42-.12-.02-.16.43-.05.65.04.07.07.12.11.19-.13-.02-.12.48,0,.66.43.73.85,1.16,1.28,1.38.15.19.3.35.45.5,0,0,.01,0,.02.02.57.6,1.14,1,1.71,1.18,0,0,0,0,.01,0,.21.05.42.11.63.12-1.89,2.78-4.15,4.62-6.35,4.96-.27-.02-.55-.07-.84-.15-.32-.23-.65-.48-.97-.75-.58-.51-.7,1.35-.34,2.39,1.78,5.05,4.64,7.25,7.25,8.17.35.13.7.23,1.04.31-.23,1-.47,1.98-.74,2.92-.18.61-.38,1.25-.6,1.9-.09.27-.19.55-.29.83-.13.36-.26.72-.39,1.09-.14.38-.29.77-.45,1.15-.09.22-.18.45-.27.67-1.21,2.9-2.68,5.78-4.2,7.94,0,0,0,0,0,0-.29.4-.57.78-.86,1.14-.33.4-.66.78-.99,1.09-1.46.18-2.92,0-4.35-.69-.12-.05-.25.3-.13.65.33.94.68,1.74,1.04,2.45.03.07.06.14.1.21,0,0,0,0,0,0,.29.55.59,1.01.9,1.43.06.08.12.16.19.24.3.38.6.72.92,1,0,0,.01.01.02.02.32.28.65.49.98.67.08.04.15.08.23.12.33.16.66.28.99.36-1.14.76-2.28,1.43-3.44,2.09-.19.11-.07.83.1.9,2.13.82,4.73.63,7.12-.92-.59,1.35-1.17,2.58-1.7,3.67-.28.58-.58,1.12-.88,1.61-.03.04-.05.08-.08.12-.28.45-.57.87-.87,1.26-.02.02-.04.04-.06.07-.38.49-.78.92-1.19,1.3-.03.03-.06.06-.09.09-.42.39-.86.72-1.3.99-.02,0-.03.02-.05.03-.4.24-.8.43-1.21.59-.1.04-.2.08-.3.11-.43.15-.86.26-1.31.33-.61-.28-1.21-.53-1.82-.76-.14-.05-.15.47-.06.71.02.06.05.1.08.16-.1.1-.09.52.02.69.31.5.61.93.92,1.32.21.41.42.74.64,1.11,0,0,0,0,0,.01,1.51,2.61,3.14,4.25,4.81,5.13.02,0,.03.01.05.02.4.21.8.38,1.21.51.05.02.1.02.15.04.37.11.75.2,1.12.24.12.01.23,0,.35.02.31.02.62.05.94.03.43-.02.87-.07,1.3-.16-.31.34-.62.63-.94.9-.29.24-.59.45-.89.64-.03.02-.05.04-.08.05-.8.07-1.59.21-2.37.43-.12.03-.2.18-.26.4-.59-.12-1.17-.26-1.71-.43-.42-.14-.36,1.39-.05,1.93,6.37,11.14,14.54,5.08,20.54-1.44-.03.77-.07,1.54-.12,2.31-.78,3.05-1.73,5.91-2.96,8.57-.65,1.41-1.31,2.83-1.98,4.22-.02.04-.04.08-.05.12-.68,1.41-1.37,2.79-2.08,4.11-.4.76-.81,1.49-1.23,2.2-.06.1-.11.19-.17.29-.36.61-.73,1.19-1.1,1.75-.1.16-.2.32-.3.47-.34.51-.7.98-1.05,1.44-.12.16-.24.33-.36.49-.47.59-.95,1.13-1.45,1.62-.77.13-1.51.25-2.16.4-.27.05-.27.89-.04,1.33.21.38.43.71.66,1.05.02.4.09.79.19,1.1,0,0,0,.01,0,.02,0,0,0,0,0,0,.05.16.11.27.18.37.02.03.03.07.05.09.08.09.18.14.28.11.15-.03.3-.11.45-.17.33.36.67.68,1.02.96.12.09.24.16.36.24.24.17.47.34.71.47.16.09.32.15.48.22.21.09.41.2.62.27.19.07.39.11.58.15.18.04.36.1.54.13.23.04.46.05.69.07.15,0,.29.03.44.03.27,0,.55-.02.82-.04.1,0,.2-.01.31-.03.32-.04.65-.1.98-.18.04-.01.09-.02.13-.03.52-.12,1.03-.27,1.54-.47-1,2.72-2.1,5.22-3.36,6.85-1.19.66-2.49.91-3.95.59-.17-.03-.22.6-.08.91.05.1.11.17.15.26-.19-.03-.16.67-.01.92.6,1.02,1.2,1.63,1.8,1.94.21.27.42.49.63.7,0,0,.02.01.03.02.8.84,1.6,1.4,2.4,1.66,0,0,.01,0,.02,0,.29.08.59.15.89.17-2.66,3.9-5.83,6.48-8.91,6.96-.38-.02-.77-.1-1.18-.21-.45-.32-.91-.68-1.36-1.06-.82-.71-.99,1.9-.47,3.36,2.5,7.09,6.52,10.18,10.18,11.47.49.18.98.32,1.46.43-.32,1.4-.66,2.77-1.04,4.09-.25.85-.53,1.75-.84,2.66-.13.38-.27.77-.41,1.16-.18.51-.36,1.01-.55,1.53-.2.54-.41,1.08-.63,1.62-.13.31-.26.63-.39.94-1.7,4.07-3.76,8.12-5.9,11.15,0,0,0,0,0,.01-.4.57-.8,1.1-1.21,1.6-.46.56-.93,1.1-1.39,1.53-2.06.26-4.11,0-6.11-.96-.17-.07-.35.43-.18.91.46,1.32.95,2.44,1.46,3.44.05.09.09.2.14.29,0,0,0,0,0,.01.41.77.83,1.42,1.26,2.01.09.12.17.23.26.34.42.54.85,1.02,1.29,1.4.01,0,.02.02.03.03.45.39.91.69,1.37.94.11.06.21.11.32.16.46.22.92.4,1.39.5-1.59,1.06-3.21,2.01-4.83,2.93-.27.16-.09,1.16.15,1.26,2.99,1.16,6.64.88,10-1.29-.83,1.9-1.65,3.62-2.38,5.15-.4.82-.81,1.57-1.24,2.26-.04.06-.07.11-.11.17-.4.63-.81,1.23-1.23,1.77-.03.03-.05.06-.08.09-.54.69-1.1,1.29-1.67,1.82-.04.04-.09.08-.13.12-.59.54-1.2,1.01-1.83,1.39-.02.01-.04.02-.07.04-.56.34-1.13.61-1.71.83-.14.05-.28.11-.42.16-.6.21-1.21.37-1.83.46-.85-.39-1.7-.75-2.56-1.07-.2-.07-.22.66-.08,1,.03.08.07.14.11.22-.14.14-.13.73.03.98.43.7.86,1.31,1.3,1.85.29.57.59,1.04.89,1.55,0,0,0,.01.01.02,2.13,3.66,4.41,5.97,6.75,7.2.02.01.04.02.06.03.56.29,1.13.54,1.7.72.07.02.14.03.21.05.52.15,1.05.28,1.58.34.16.02.33.01.49.02.44.03.88.07,1.31.05.61-.03,1.22-.1,1.83-.23-.43.47-.87.89-1.32,1.26-.41.34-.83.64-1.25.9-.04.02-.07.05-.11.08-1.12.1-2.23.29-3.33.61-.16.04-.29.26-.36.56-.83-.16-1.64-.36-2.41-.61-.59-.19-.51,1.96-.08,2.7,8.94,15.63,20.42,7.14,28.84-2.02-.09,2.16-.24,4.3-.37,6.44-.12,2-.22,4-.36,5.99-.27,3.64-.58,7.27-.96,10.91-.01.15,0,.3.03.43,0,.01,0,.02.01.04.05.21.13.34.21.31.04,0,.07-.03.1-.13.27-.89.53-1.74.8-2.61.22-.62.42-1.29.64-1.96-.19.92-.38,1.86-.59,2.74-.1.4.14.97.26.6,3.28-9.93,6.52-18.6,8.6-30.8,1.11,6.57,2.42,12.23,4.33,18.02.14.45.37.05.24-.42-1.01-3.31-1.85-7.14-2.57-11.19.52,1.57,1.04,3.06,1.54,4.43.93,2.5,1.91,4.77,2.91,6.97,1.65,24.24,2.85,49.71,2.85,49.71,8.48,8.38,10.83-3.14,10.83-3.14-1.4-11.5-3.56-35.03-5.19-53.36,1.62,3.99,3.32,7.74,4.92,11.38.15.34.3-.17.15-.52-1.7-4.24-3.35-8.93-4.87-13.8,2.09,4.13,4.27,7.78,6.52,10.7.58.77,1.17,1.42,1.76,2.05.29.31.57.61.86.9,0,0,.01.02.02.02.04.04.07.06.11.1,1.76,1.71,3.53,2.96,5.31,3.92.12.06.24.14.36.2.49.26.99.49,1.48.71.2.09.41.18.61.27.45.19.91.37,1.36.53.26.1.53.19.79.28.41.14.82.28,1.23.41.39.12.78.24,1.17.36.93.28,1.87.56,2.8.85.09.03.16,0,.23-.05.02-.02.04-.05.06-.07.04-.05.07-.11.1-.19.02-.04.03-.08.04-.13.03-.11.05-.23.07-.37,0-.03,0-.05.01-.08.01-.17.02-.35.01-.54,0-.06,0-.11,0-.17,0-.14-.02-.28-.04-.43,0-.06-.01-.12-.02-.18-.02-.16-.06-.31-.09-.46,0-.04-.01-.07-.02-.11,0,0,0,0,0,0-.01-.05-.03-.08-.05-.13-.1-.32-.22-.59-.38-.73-.69-.61-1.37-1.17-2.05-1.69-.41-.33-.83-.65-1.24-.96-.65-.71-1.29-1.48-1.92-2.32-.05-.17-.12-.32-.21-.39-.12-.09-.24-.26-.36-.36-1.18-1.66-2.33-3.57-3.42-5.88-.1-.2-.2-.43-.3-.66,6.72,9.9,14.38,14.87,20.99,12.78.01,0,.03,0,.04-.01.57-.18,1.13-.42,1.68-.71.05-.03.1-.05.15-.08.53-.28,1.04-.62,1.55-1.01.07-.05.14-.11.21-.16.49-.39.97-.82,1.44-1.3.08-.08.16-.17.24-.26.46-.49.91-1.02,1.34-1.6.09-.11.17-.24.25-.35.43-.59.85-1.22,1.25-1.91.02-.04.04-.06.06-.1.37-.66.75-1.3,1.1-2.03.29-.6-.03-2.23-.41-1.86-.36.35-.73.59-1.1.89-.06-.05-.12-.12-.18-.13-.48-.15-.96-.32-1.44-.53,0,0,0,0,0,0-4.27-1.73-8.63-5.65-12.61-11.95.98.85,1.96,1.65,2.94,2.47.48.41.5-1.4.05-1.89-2.43-2.61-5.04-5.29-7.35-9.26,2.91,2.2,5.79,3.47,7.94,3.8,4.23.67,11.71,1.29,13.53-9.6Z"
  />
  <path
    class="cls-1"
    d="M1048.02,1366.82c-.15-.53.08-1.23.29-.92.36.54.75.92,1.15,1.25,0-.36.07-.7.22-.85.03-.02.05-.06.08-.08.21-.08.43-.22.64-.39.04-.03.09-.07.13-.11.2-.18.41-.37.61-.6.28-.32.56-.69.83-1.11,0,0,0,0,0,0,.54-.82,1.08-1.82,1.59-2.91.01-.02.02-.04.03-.06.25-.52.49-1.07.72-1.63.03-.07.06-.13.08-.2.23-.55.46-1.11.68-1.67,0-.02.02-.04.02-.06.2-.52.39-1.04.59-1.55.05-.15.11-.29.16-.44.17-.48.34-.96.51-1.42.07-.19.13-.38.2-.56.16-.46.32-.92.47-1.36.62-1.81,1.2-3.67,1.74-5.57-1.32,1.71-2.75,2.71-4.13,4.17-.17.18-.3-.53-.15-.79,1.62-2.85,3.56-3.94,5.12-7.07.07-.14.14-.26.21-.4.05-.11.09-.22.14-.33.21-.82.41-1.64.61-2.49-2.98,2.06-6.2,2.07-9.19.22-.4-.24-.38-1.92.02-1.97.24-.02.49-.05.73-.08-.08-.03-.15-.07-.23-.11-.06-.04-.06-.3,0-.31.16-.03.31-.08.47-.12.03-.04.05-.11.09-.12,2.86-1.19,5.4-4.67,7.67-9.42.24-.5.48-1.05.72-1.61-1.24.58-2.49.72-3.74.36-1.25-.11-2.49-.83-3.57-2.22-.74-.33-1.47-.9-2.17-1.9-.05-.08-.04-.3.02-.31.64-.1,1.27-.15,1.9-.19-.01-.41.07-.84.24-.85,1.79,0,3.38-1.03,4.81-2.82.31-.39.61-.81.9-1.27,0,0,.01-.02.02-.03.3-.46.58-.96.86-1.49.29-.54.57-1.11.84-1.72,0,0,0-.01.01-.02.26-.57.51-1.17.76-1.79-.21,0-.43-.02-.64-.07,0,0,0,0-.01,0-.21-.04-.42-.11-.63-.19-.02,0-.04-.01-.06-.02-.2-.08-.4-.18-.6-.3-.02-.01-.04-.02-.06-.04-.98.42-2.01.29-3.12-.56-.2-.16-.15-.96.05-.87.48.21.97.18,1.45-.05-.08-.1-.16-.2-.24-.3,0-.01-.02-.02-.03-.03-.16-.22-.32-.44-.47-.69-.13-.2-.07-.8.08-.68.14.11.28.18.43.28.02-.02.04-.05.06-.05.17-.07.33-.15.5-.24,0,0,0,0,0,0,.9-.48,1.77-1.25,2.59-2.33-.71.28-1.44.36-2.19.18-.28-.06-.33-1.12-.04-1.22.29-.1.57-.24.86-.4.13-.08.26-.18.39-.27.14-.1.27-.2.4-.31.17-.15.34-.31.51-.48.07-.07.15-.15.22-.23.2-.22.4-.45.59-.71.02-.02.04-.05.05-.08.3-.41.6-.86.88-1.36-.61.42-1.19.7-1.67.83-1.49.4-4.16.91-5.22-2.93-.11-.38.06-.88.2-.66.26.38.53.66.82.89,0-.26.05-.5.15-.61.02-.02.04-.04.06-.05.15-.06.3-.16.46-.28.03-.02.06-.05.09-.08.15-.12.29-.26.44-.43.2-.23.4-.49.59-.79,0,0,0,0,0,0,.39-.59.77-1.3,1.13-2.07,0-.02.01-.03.02-.05.18-.37.35-.76.52-1.16.02-.05.04-.09.06-.14.16-.39.33-.79.48-1.19,0-.02.01-.03.02-.05.14-.37.28-.74.42-1.11.03-.08.06-.17.09-.25-.41.13-.83.2-1.27.22-.04,0-.07-.03-.09-.07,0,0,0-.02-.01-.02-.05-.1-.07-.26-.07-.42,0,0,0,0,0-.01,0-.2.05-.4.14-.42.15-.03.3-.09.45-.15.08-.04.16-.09.25-.14.08-.05.15-.09.23-.14.1-.07.2-.16.3-.25.05-.04.09-.07.14-.12.11-.11.22-.23.33-.35.03-.04.06-.07.1-.11.12-.14.24-.29.35-.45,0-.01.02-.03.03-.04.44-1.28.84-2.58,1.22-3.92-.94,1.22-1.96,1.93-2.94,2.97-.12.13-.21-.37-.11-.57,1.16-2.03,2.54-2.8,3.65-5.04.05-.1.1-.19.15-.29.03-.08.07-.16.1-.23.08-.32.16-.64.23-.95-.03-.1-.03-.26.03-.31.02-.01.04-.03.06-.05.04-.15.08-.3.11-.46-2.12,1.47-4.41,1.47-6.54.16-.29-.17-.27-1.37.02-1.4.17-.02.35-.04.52-.06-.05-.02-.11-.05-.16-.08-.04-.03-.04-.21,0-.22.11-.02.22-.06.34-.09.02-.03.04-.08.06-.09,2.04-.85,3.85-3.32,5.46-6.71.17-.36.35-.75.51-1.15-.88.41-1.77.52-2.66.26-.89-.08-1.77-.59-2.55-1.58-.53-.23-1.04-.64-1.54-1.35-.04-.06-.03-.21.01-.22.45-.07.91-.11,1.36-.14,0-.29.05-.6.17-.6,1.28,0,2.41-.73,3.42-2.01.22-.28.43-.58.64-.9,0,0,0-.01.01-.02.21-.33.42-.68.62-1.06.21-.39.41-.79.6-1.22,0,0,0-.01,0-.02.38-.83.73-1.74,1.07-2.7.03-.08.06-.17.09-.25.16-.46.31-.93.47-1.42-1.48,2.38-2.95,3.62-4.73,2.26-.14-.11-.11-.69.04-.62,1.17.53,2.42-1.04,3.46-3.09-.61.33-1.25.44-1.9.29-.2-.04-.23-.8-.03-.87.21-.07.41-.17.61-.29.09-.06.19-.13.28-.19.1-.07.19-.14.29-.22.12-.11.25-.22.37-.34.05-.05.1-.11.16-.17.14-.16.28-.32.42-.51.01-.02.03-.04.04-.05.27-.36.53-.77.78-1.23,0,0,0,0,0,0,.61-1.11,1.15-2.48,1.6-4.09.1-.39.2-.76.3-1.13.11-.45.2-.92.3-1.37-.99,2.58-2.23,4.37-3.55,5.43-.22.18-.33-.68-.13-.94,1.22-1.57,2.25-4.08,3.08-7-1.08,1.48-2.27,2.25-3.61,2.31-.03,0-.05-.02-.07-.05,0,0,0-.01,0-.02-.04-.07-.05-.19-.05-.3,0,0,0,0,0,0,0-.15.03-.28.1-.3.11-.02.21-.06.32-.11.06-.03.12-.07.18-.1.06-.03.11-.06.16-.1.07-.05.14-.12.22-.18.03-.03.06-.05.1-.08.08-.08.16-.16.24-.25.02-.03.05-.05.07-.08.08-.1.17-.21.25-.32.01-.02.03-.04.04-.06.09-.12.18-.25.27-.39,0-.01.01-.02.02-.03.19-.3.38-.63.56-.98.88-1.71,1.66-3.96,2.28-6-.47.89-.96,1.52-1.45,1.78-.06.03-.1-.23-.04-.28,3.03-2.14,3.44-13.69,3.95-20.6.01-.16.04-.28.07-.39,0-.01,0-.02.01-.03.03-.09.08-.16.12-.21,0,0,0,0,0,0,0,0,0,0,.01,0,.03-.03.06-.05.1-.06.04,0,.08,0,.12.03,0-.33,0-.65.02-.97,0-.1.01-.18.03-.25,0,0,0-.01,0-.02.1-.47.39-.35.48.2,2.15,13.69,5.38,27.1,10.95,30,0,0,0-.02.01-.02.14.07.27.17.41.23.07.02.08.29.03.4-1.09,2.62-3.1.88-4.8-1.65.25.56.51,1.12.79,1.64.95,1.75,2.11,4.35,3.25,4.76.01,0,.03,0,.04,0,0,0,.01.02.02.03h0s0,0,0,0c.02.02.03.04.04.07,0,0,0,.02,0,.03.03.13.03.31-.03.38-.14.14-.29.27-.45.38,0,0,0,0,0,0-.13.1-.26.18-.41.26-.06.03-.12.06-.18.09-.1.05-.19.1-.3.14-.07.03-.14.05-.21.07-.1.03-.2.07-.3.09-.07.02-.14.03-.21.05-.1.02-.21.04-.32.05-.07,0-.14.01-.21.02-.11,0-.23,0-.34,0-.07,0-.14,0-.2-.01-.13-.01-.25-.03-.38-.06-.06-.01-.11-.02-.17-.03-.18-.05-.37-.1-.55-.18.6,2.19,1.29,4.15,2.3,5.82.29.48.58.97.87,1.44,0,.01.02.03.02.04.3.48.6.95.9,1.4.17.26.35.5.52.74.02.03.05.06.07.1.15.2.31.4.46.59.04.05.08.11.13.16.14.17.29.33.43.48.05.05.1.11.15.16.19.19.39.37.58.53.28.02.55.03.79.06.1,0,.13.31.06.48-.06.14-.13.27-.2.4,0,.14,0,.29-.03.4,0,0,0,0,0,0,0,0,0,0,0,0-.01.06-.03.1-.05.14,0,.01,0,.03-.01.03-.03.04-.06.06-.1.05-.05,0-.11-.03-.17-.04-.11.14-.22.27-.33.38-.04.04-.08.07-.12.1-.08.07-.16.14-.24.2-.05.04-.11.06-.16.1-.07.04-.14.09-.21.12-.07.03-.14.05-.2.08-.06.02-.12.05-.19.07-.08.02-.16.04-.25.05-.05,0-.1.02-.16.03-.1.01-.2.01-.3.02-.04,0-.07,0-.11,0-.12,0-.24-.01-.36-.03-.02,0-.03,0-.05,0-.19-.03-.38-.06-.57-.11.46.94.95,1.8,1.47,2.33.45.19.93.23,1.44.06.06-.02.1.21.06.32-.01.04-.03.06-.04.1.07-.02.08.24.04.33-.18.39-.37.63-.57.76-.06.11-.13.19-.2.28,0,0,0,0,0,0-.25.33-.52.56-.8.69,0,0,0,0,0,0-.1.04-.21.08-.31.09,1.1,1.3,2.34,2.1,3.47,2.16.14-.02.27-.07.41-.12.15-.13.3-.28.45-.43.27-.29.43.64.3,1.19-.63,2.64-1.95,3.9-3.22,4.51-.17.08-.34.15-.51.21.17.49.34.97.53,1.43.12.3.26.61.4.92.06.13.13.27.19.4.08.17.17.35.26.53.09.19.19.37.29.56.06.11.12.21.17.32.76,1.4,1.66,2.77,2.54,3.78,0,0,0,0,0,0,.17.19.33.36.49.53.19.18.37.36.56.5.75.01,1.47-.15,2.16-.58.06-.03.14.14.1.32-.11.49-.25.91-.39,1.29-.01.04-.03.08-.04.11,0,0,0,0,0,0-.12.29-.24.54-.38.77-.03.05-.05.09-.08.13-.13.21-.27.4-.41.55,0,0,0,0,0,.01-.15.16-.3.28-.46.39-.04.02-.07.05-.11.07-.16.1-.32.18-.48.23.61.32,1.23.6,1.85.87.1.05.08.41,0,.46-1.03.53-2.35.57-3.64-.08.37.65.73,1.24,1.05,1.76.17.28.35.53.53.76.02.02.03.04.05.06.17.21.34.41.51.59.01.01.02.02.03.03.22.23.44.42.67.59.02.01.03.03.05.04.23.17.47.32.71.43,0,0,.02,0,.02.01.21.1.43.17.64.23.05.01.1.03.16.04.22.05.45.09.68.1.29-.17.58-.33.88-.48.07-.03.1.23.07.36,0,.03-.02.05-.03.08.06.05.07.26.03.35-.13.27-.26.5-.39.71-.08.22-.17.4-.26.59,0,0,0,0,0,0-.62,1.4-1.35,2.31-2.15,2.84,0,0-.01,0-.02.01-.19.13-.38.24-.58.32-.02.01-.05.02-.07.03-.18.07-.37.14-.55.18-.06.01-.12.02-.18.03-.16.03-.31.06-.47.07-.22.01-.44,0-.66-.01.17.15.35.28.52.4.16.11.32.2.48.28.01,0,.03.02.04.02.41,0,.81.02,1.22.09.06,0,.11.08.15.19.29-.09.57-.19.84-.31.2-.09.26.68.13.97-2.61,5.95-7.06,3.34-10.43.38.06.39.12.77.18,1.16.56,1.49,1.19,2.89,1.95,4.16.4.68.81,1.36,1.22,2.02.01.02.02.04.03.06.42.67.84,1.33,1.27,1.96.24.36.49.71.74,1.04.03.05.07.09.1.14.21.29.43.56.65.82.06.07.12.15.18.22.2.24.4.46.61.67.07.07.14.16.21.23.27.27.54.52.82.74.39.02.78.05,1.11.09.14.01.19.43.09.67-.08.2-.18.38-.27.56.01.2,0,.4-.04.57,0,0,0,0,0,.01,0,0,0,0,0,0-.02.08-.04.14-.07.2,0,.02-.01.04-.02.05-.04.05-.08.08-.13.07-.08,0-.16-.04-.24-.06-.15.2-.3.38-.46.54-.05.05-.11.09-.17.14-.11.1-.22.2-.33.28-.07.05-.15.09-.23.14-.1.06-.2.12-.3.17-.09.04-.19.07-.29.11-.09.03-.17.07-.26.09-.11.03-.23.05-.34.07-.07.01-.14.03-.22.04-.14.02-.28.02-.42.02-.05,0-.1,0-.16,0-.17,0-.33-.02-.5-.04-.02,0-.04,0-.07,0-.27-.04-.53-.08-.8-.15.65,1.32,1.34,2.52,2.06,3.28.64.27,1.3.33,2.02.09.08-.02.14.29.09.46-.02.05-.04.09-.06.14.09-.02.12.33.06.46-.25.55-.52.88-.8,1.07-.09.15-.18.27-.28.39,0,0,0,0-.01.01-.36.47-.73.79-1.12.96,0,0,0,0,0,0-.14.05-.29.11-.44.13,1.55,1.83,3.29,2.96,4.87,3.03.19-.03.39-.09.58-.17.21-.19.42-.39.63-.61.37-.4.6.9.42,1.67-.88,3.71-2.74,5.48-4.52,6.33-.24.12-.48.21-.71.3.24.69.48,1.36.75,2.01.17.42.36.86.57,1.3.09.19.18.38.27.56.12.25.24.49.36.74.13.26.27.52.4.78.08.15.16.3.24.45,1.07,1.96,2.33,3.89,3.57,5.3,0,0,0,0,0,0,.23.26.46.51.69.74.26.26.53.5.78.7,1.05.02,2.07-.22,3.03-.81.08-.04.2.2.14.45-.16.69-.35,1.28-.55,1.81-.02.05-.04.11-.05.15,0,0,0,0,0,0-.16.41-.34.76-.53,1.08-.04.06-.08.13-.11.19-.18.29-.37.56-.57.78,0,0,0,.01-.01.02-.21.22-.42.4-.64.55-.05.04-.1.07-.15.1-.22.14-.44.25-.67.33.86.45,1.72.84,2.59,1.22.14.06.11.58,0,.64-1.45.74-3.3.8-5.11-.11.52.91,1.03,1.74,1.48,2.47.24.39.49.75.75,1.07.02.03.04.05.06.08.24.3.47.57.71.82.01.01.03.03.04.04.31.32.62.59.94.83.02.02.05.04.07.06.33.24.66.44,1,.6.01,0,.02,0,.03.01.3.14.6.25.9.33.07.02.15.04.22.06.32.07.63.12.95.13.41-.24.82-.47,1.23-.68.1-.04.14.32.09.5-.01.04-.03.07-.04.12.08.07.1.36.04.49-.18.38-.36.7-.55,1-.12.3-.24.56-.37.83,0,0,0,0,0,0-.88,1.96-1.9,3.24-3.02,3.99-.01,0-.02.01-.03.02-.27.18-.54.33-.82.45-.03.01-.07.02-.1.04-.26.1-.51.2-.78.26-.08.02-.17.02-.25.04-.22.04-.44.08-.66.09-.31.02-.62.01-.93-.02.24.22.49.4.73.57.22.15.45.28.68.39.02,0,.04.02.06.03.57,0,1.14.03,1.71.13.08.01.16.11.21.26.41-.13.81-.27,1.18-.44.29-.13.36.96.18,1.36-3.67,8.36-9.91,4.69-14.65.53.16,1.09.35,2.15.53,3.23.17,1,.32,2,.5,3,.33,1.82.68,3.63,1.07,5.45.02.08.02.15,0,.22,0,0,0,.01,0,.02-.01.11-.05.18-.09.17-.02,0-.04-.01-.06-.06-.18-.43-.36-.85-.54-1.27-.14-.3-.28-.63-.43-.95.15.45.29.92.44,1.35.07.2-.02.49-.1.32-2.18-4.83-4.28-9.03-5.99-15.06-.21,3.37-.56,6.29-1.22,9.32-.05.24-.19.05-.14-.2.33-1.72.55-3.7.69-5.78-.18.82-.36,1.6-.54,2.31-.33,1.31-.71,2.51-1.1,3.67.47,12.31,1.23,25.21,1.23,25.21-3.83,4.68-5.63-1-5.63-1,.09-5.87-.08-17.85-.24-27.18-.6,2.1-1.26,4.08-1.87,6-.06.18-.16-.07-.11-.26.63-2.23,1.21-4.68,1.71-7.22-.83,2.19-1.74,4.15-2.71,5.74-.25.42-.51.78-.78,1.13-.13.17-.26.34-.39.5,0,0,0,0-.01.01-.02.02-.03.03-.05.05-.79.96-1.62,1.68-2.47,2.26-.06.04-.11.08-.17.12-.24.16-.47.3-.71.44-.1.06-.2.11-.3.17-.22.12-.44.23-.66.34-.13.06-.26.12-.39.18-.2.09-.4.19-.6.27-.19.08-.38.16-.57.25-.46.19-.91.38-1.37.58-.04.02-.08,0-.12-.01-.01,0-.02-.02-.04-.03-.02-.02-.04-.05-.06-.09,0-.02-.02-.04-.03-.06-.02-.05-.04-.11-.05-.18,0-.01,0-.02,0-.04-.02-.08-.03-.18-.04-.27,0-.03,0-.06,0-.09,0-.07,0-.14,0-.22,0-.03,0-.06,0-.09,0-.08.01-.16.02-.24,0-.02,0-.04,0-.06,0,0,0,0,0,0,0-.03.01-.04.02-.07.03-.17.08-.31.15-.39.31-.35.63-.66.94-.96.19-.19.38-.37.57-.55.29-.39.57-.82.84-1.27.02-.09.04-.17.08-.21.06-.05.11-.14.16-.2.51-.9.98-1.92,1.41-3.15.04-.11.08-.23.11-.35-2.86,5.35-6.45,8.27-9.9,7.57,0,0-.01,0-.02,0-.3-.06-.59-.15-.88-.27-.03-.01-.05-.02-.08-.03-.28-.12-.56-.26-.84-.42-.04-.02-.08-.05-.11-.07-.27-.17-.53-.36-.8-.58-.04-.04-.09-.08-.13-.12-.26-.22-.51-.46-.76-.73-.05-.05-.1-.11-.15-.17-.25-.28-.49-.57-.73-.89-.01-.02-.03-.03-.04-.05-.22-.31-.45-.61-.67-.96-.18-.28-.1-1.13.11-.96.2.16.4.26.6.39.02-.03.05-.07.08-.08.23-.1.47-.21.7-.34,0,0,0,0,0,0,2.06-1.1,4.05-3.31,5.72-6.7-.45.48-.9.93-1.35,1.41-.22.23-.33-.68-.13-.95,1.08-1.45,2.26-2.94,3.21-5.06-1.35,1.27-2.73,2.06-3.8,2.34-2.1.56-5.84,1.28-7.33-4.12Z"
  />
  <path
    class="cls-1"
    d="M1228.32,1305.89c-.25-.64-.04-1.55.25-1.19.52.63,1.04,1.07,1.58,1.43-.04-.45.01-.88.17-1.09.03-.03.05-.08.09-.1.26-.13.51-.33.76-.56.05-.05.1-.1.15-.15.24-.24.47-.51.7-.83.31-.43.62-.93.91-1.48,0,0,0,0,0,0,.59-1.09,1.14-2.4,1.66-3.83.01-.03.02-.06.03-.08.25-.68.49-1.39.72-2.12.03-.09.05-.17.08-.26.23-.71.45-1.44.66-2.17,0-.03.02-.06.02-.08.19-.67.38-1.34.55-2.01.05-.19.1-.38.15-.57.16-.62.32-1.24.47-1.84.06-.25.12-.49.18-.73.15-.59.29-1.19.43-1.75.57-2.34,1.08-4.74,1.54-7.18-1.46,2.3-3.14,3.71-4.7,5.69-.19.24-.44-.62-.28-.98,1.71-3.76,4.01-5.34,5.61-9.44.07-.18.14-.34.21-.53.05-.14.09-.29.14-.42.16-1.05.33-2.1.48-3.18-3.49,2.92-7.52,3.3-11.48,1.33-.53-.26-.7-2.37-.19-2.47.3-.06.61-.12.91-.19-.1-.03-.2-.06-.3-.11-.08-.04-.11-.37-.03-.39.2-.05.38-.14.58-.21.03-.06.05-.14.1-.16,3.44-1.82,6.23-6.46,8.52-12.67.25-.66.49-1.38.72-2.1-1.48.86-3.03,1.19-4.63.88-1.58.01-3.21-.76-4.73-2.37-.96-.33-1.94-.96-2.93-2.13-.08-.09-.09-.37-.01-.39.79-.2,1.57-.33,2.36-.46-.06-.51-.01-1.06.21-1.09,2.25-.2,4.12-1.68,5.69-4.08.34-.52.67-1.09.98-1.69,0-.01.01-.03.02-.04.32-.61.62-1.27.91-1.96.3-.71.58-1.46.86-2.25,0,0,0-.02.01-.03.26-.75.51-1.52.74-2.33-.27.02-.54.02-.81,0,0,0-.01,0-.02,0-.27-.03-.54-.09-.81-.17-.02,0-.05-.01-.07-.02-.26-.08-.52-.18-.78-.31-.03-.01-.05-.03-.08-.04-1.18.63-2.48.6-3.97-.34-.27-.18-.3-1.19-.03-1.1.62.21,1.23.11,1.81-.23-.11-.11-.22-.23-.33-.35-.01-.01-.02-.02-.04-.04-.23-.26-.45-.51-.67-.8-.18-.24-.18-.99.02-.86.19.13.38.2.57.3.02-.03.04-.06.07-.07.2-.11.4-.23.6-.36,0,0,0,0,0,0,1.07-.7,2.07-1.77,2.97-3.22-.85.44-1.76.61-2.72.48-.35-.05-.54-1.37-.19-1.52.35-.15.69-.36,1.03-.6.16-.11.31-.25.46-.39.16-.14.32-.28.47-.43.2-.21.4-.43.59-.66.08-.1.17-.21.25-.32.23-.3.45-.61.66-.96.02-.03.04-.07.06-.1.33-.55.65-1.15.95-1.8-.71.6-1.4,1.01-2,1.23-1.82.67-5.1,1.61-6.88-3.07-.18-.46-.03-1.1.18-.85.37.45.74.76,1.12,1.02-.03-.32,0-.63.12-.78.02-.02.04-.06.07-.07.18-.09.36-.24.54-.4.04-.03.07-.07.11-.11.17-.17.33-.36.5-.59.22-.31.44-.66.65-1.05,0,0,0,0,0,0,.42-.78.81-1.71,1.18-2.72,0-.02.01-.04.02-.06.18-.49.35-.99.51-1.51.02-.06.04-.12.06-.18.16-.51.32-1.03.47-1.55,0-.02.01-.04.02-.06.14-.48.27-.96.39-1.43.03-.11.06-.22.09-.33-.5.2-1.02.35-1.56.42-.05,0-.09-.03-.13-.08,0,0-.01-.02-.02-.03-.07-.12-.12-.32-.14-.52,0,0,0,0,0-.01-.02-.26.02-.5.13-.54.18-.06.36-.14.54-.24.1-.06.2-.13.29-.2.09-.07.18-.13.27-.2.12-.1.23-.23.35-.35.05-.06.1-.1.16-.16.13-.15.25-.31.38-.48.04-.05.07-.09.11-.14.13-.19.26-.39.39-.6.01-.02.02-.04.03-.05.4-1.65.76-3.33,1.08-5.05-1.04,1.64-2.23,2.64-3.35,4.05-.13.17-.31-.44-.2-.69,1.22-2.68,2.85-3.8,3.99-6.72.05-.13.1-.24.15-.38.03-.1.06-.21.1-.3.06-.4.12-.81.18-1.22-.05-.12-.07-.33,0-.39.02-.02.05-.05.07-.07.03-.2.06-.39.09-.59-2.49,2.08-5.36,2.35-8.17.95-.38-.18-.5-1.69-.14-1.76.21-.04.43-.09.65-.13-.07-.02-.14-.05-.21-.08-.06-.03-.08-.26-.02-.28.14-.04.27-.1.41-.15.02-.04.04-.1.07-.12,2.45-1.3,4.44-4.6,6.07-9.02.18-.47.35-.98.51-1.49-1.06.61-2.16.85-3.3.63-1.12,0-2.29-.54-3.37-1.69-.69-.23-1.38-.68-2.09-1.51-.05-.07-.06-.27-.01-.28.56-.14,1.12-.24,1.68-.32-.04-.36,0-.76.15-.77,1.6-.14,2.93-1.19,4.06-2.91.24-.37.48-.78.7-1.21,0,0,0-.02.01-.03.23-.44.44-.9.65-1.4.21-.51.42-1.04.61-1.6,0,0,0-.01,0-.02.38-1.08.72-2.26,1.03-3.51.03-.11.05-.22.08-.32.15-.6.29-1.2.42-1.83-1.58,3.15-3.28,4.87-5.66,3.37-.19-.12-.22-.85-.02-.78,1.53.53,2.91-1.58,3.97-4.26-.72.49-1.51.7-2.35.58-.25-.03-.38-.97-.14-1.08.25-.11.49-.26.73-.43.11-.08.22-.18.33-.27.11-.1.23-.2.34-.31.14-.15.28-.3.42-.47.06-.07.12-.15.18-.23.16-.21.32-.44.47-.68.01-.02.03-.05.04-.07.3-.48.57-1.02.83-1.63,0,0,0,0,0,0,.63-1.46,1.15-3.24,1.53-5.31.08-.49.16-.98.25-1.45.08-.58.15-1.17.21-1.75-.95,3.34-2.29,5.73-3.82,7.21-.26.25-.49-.81-.27-1.16,1.34-2.1,2.36-5.36,3.05-9.12-1.19,1.98-2.58,3.08-4.25,3.31-.03,0-.06-.02-.09-.06,0,0,0-.01-.01-.02-.05-.09-.09-.23-.1-.37,0,0,0,0,0,0-.01-.18.01-.36.09-.39.13-.04.26-.1.38-.17.07-.04.14-.09.21-.15.07-.05.13-.09.19-.15.08-.07.17-.16.25-.25.04-.04.07-.07.11-.12.09-.1.18-.22.27-.34.03-.03.05-.07.08-.1.09-.13.19-.28.28-.43.02-.03.03-.05.05-.08.1-.17.19-.34.29-.52,0-.01.02-.03.02-.04.2-.4.4-.83.59-1.29.9-2.24,1.62-5.15,2.17-7.78-.48,1.17-1.03,2.01-1.62,2.4-.08.05-.16-.28-.08-.34,3.55-3.03,2.74-17.53,2.58-26.24,0-.2.02-.36.05-.49,0-.01,0-.02.01-.04.03-.12.08-.21.13-.28,0,0,0,0,0,0,0,0,.01,0,.02-.01.04-.04.07-.07.11-.08.05-.02.1,0,.15.03-.03-.41-.07-.81-.09-1.22,0-.12,0-.23,0-.32,0-.01,0-.02,0-.03.07-.59.45-.48.62.2,4.26,16.89,9.84,33.31,17.14,36.31,0-.01,0-.02.02-.03.18.07.36.18.54.24.1.02.13.35.09.5-1.07,3.4-3.77,1.46-6.2-1.51.38.68.77,1.34,1.18,1.96,1.38,2.08,3.14,5.2,4.62,5.58.02,0,.03,0,.05,0,0,0,.02.02.03.03h0s0,0,0,0c.02.02.04.04.06.08,0,.01,0,.03.01.04.06.15.08.39,0,.48-.16.19-.33.37-.51.53,0,0,0,0,0,0-.15.14-.31.26-.48.38-.07.05-.14.09-.21.13-.12.07-.23.15-.36.21-.08.04-.17.08-.25.11-.12.05-.24.11-.36.15-.09.03-.17.06-.26.08-.13.04-.26.07-.39.1-.09.02-.18.03-.27.05-.14.02-.28.03-.43.04-.09,0-.17.01-.26.01-.16,0-.32-.01-.48-.03-.07,0-.14,0-.22-.02-.24-.04-.47-.09-.71-.16,1.01,2.68,2.09,5.04,3.54,7.02.42.57.83,1.14,1.25,1.7.01.02.02.03.03.05.43.57.86,1.12,1.29,1.65.25.3.49.59.74.87.03.04.07.08.1.11.21.24.43.46.64.68.06.06.12.12.18.18.2.2.4.37.6.55.07.06.14.13.21.18.26.22.53.42.79.59.35-.01.7-.02,1-.01.12,0,.2.37.13.59-.06.19-.13.35-.2.53.03.18.03.36.01.51,0,0,0,0,0,0,0,0,0,0,0,0,0,.07-.02.13-.05.18,0,.01,0,.03-.01.05-.03.05-.07.08-.11.07-.07,0-.14-.02-.22-.04-.12.19-.24.36-.37.52-.04.05-.09.09-.14.14-.09.1-.18.19-.27.27-.06.05-.13.09-.19.14-.08.06-.17.12-.25.17-.08.05-.16.08-.25.12-.08.04-.15.08-.23.1-.1.04-.2.06-.3.09-.06.02-.13.04-.19.05-.12.03-.24.04-.37.06-.05,0-.09.01-.14.02-.15.01-.3.01-.45,0-.02,0-.04,0-.06,0-.24,0-.48-.03-.73-.07.69,1.12,1.4,2.14,2.1,2.75.59.19,1.19.18,1.81-.09.07-.03.15.25.12.4-.01.05-.03.08-.04.13.08-.03.13.28.09.41-.18.51-.39.83-.63,1.02-.07.14-.14.25-.22.37,0,0,0,0,0,.01-.28.45-.59.77-.92.95,0,0,0,0,0,0-.12.06-.25.12-.38.15,1.53,1.5,3.17,2.37,4.59,2.31.17-.04.34-.12.5-.2.17-.18.35-.38.51-.59.3-.39.61.76.51,1.45-.48,3.38-2,5.11-3.51,6.01-.2.12-.41.23-.61.32.27.6.54,1.18.83,1.73.19.36.39.73.61,1.11.09.16.19.32.29.48.12.21.25.42.38.63.14.22.28.44.42.66.08.13.17.26.26.38,1.12,1.66,2.39,3.28,3.62,4.44,0,0,0,0,0,0,.23.22.46.42.68.61.26.21.51.41.75.56.94-.07,1.83-.36,2.63-.97.07-.05.19.16.16.39-.09.63-.21,1.17-.34,1.66-.01.05-.02.1-.04.14,0,0,0,0,0,0-.11.38-.24.71-.38,1.01-.03.06-.06.12-.09.18-.14.28-.29.53-.45.74,0,0,0,.01-.01.02-.16.21-.34.39-.53.54-.04.04-.09.07-.13.1-.19.14-.37.26-.57.35.8.33,1.61.61,2.41.88.13.05.14.51.05.57-1.23.78-2.88.98-4.57.32.54.77,1.06,1.47,1.52,2.08.25.33.5.63.75.9.02.02.04.04.06.06.23.25.47.47.7.68.01.01.03.02.04.03.3.26.6.48.9.66.02.01.05.03.07.04.31.19.63.34.94.46.01,0,.02,0,.03.01.28.1.56.17.83.22.07.01.13.02.2.03.29.04.57.06.86.04.35-.25.69-.49,1.05-.7.08-.05.16.28.12.44,0,.04-.02.07-.03.11.08.05.12.31.07.44-.13.35-.27.66-.41.94-.08.28-.17.52-.26.77,0,0,0,0,0,0-.62,1.82-1.43,3.05-2.37,3.81,0,0-.02.01-.03.02-.23.18-.45.34-.69.47-.03.02-.06.03-.09.04-.22.11-.44.22-.67.29-.07.02-.15.03-.22.05-.19.05-.38.11-.58.14-.27.04-.55.06-.83.06.23.17.47.32.7.45.21.12.42.21.64.29.02,0,.04.02.06.02.51-.05,1.02-.07,1.54-.03.08,0,.15.09.21.22.35-.15.7-.31,1.02-.49.25-.14.4.83.27,1.2-2.59,7.75-8.45,4.99-13.02,1.67.12.48.24.96.36,1.43.87,1.81,1.82,3.48,2.92,4.99.58.8,1.17,1.6,1.76,2.39.02.02.03.04.05.07.6.8,1.2,1.57,1.81,2.31.35.42.69.83,1.04,1.22.05.05.09.11.14.16.3.34.6.65.9.96.08.08.17.17.25.26.28.27.56.53.84.77.1.08.19.18.29.26.37.31.74.59,1.11.83.5-.02.98-.03,1.4-.02.17,0,.28.52.19.83-.08.26-.18.5-.28.74.04.25.04.5.02.71,0,0,0,0,0,.01,0,0,0,0,0,0-.01.1-.03.18-.06.25,0,.02-.01.05-.02.06-.04.07-.09.11-.16.1-.1,0-.2-.03-.3-.05-.16.27-.34.51-.52.73-.06.07-.13.13-.19.2-.13.13-.25.27-.39.38-.09.07-.18.13-.27.2-.12.08-.23.17-.35.25-.11.07-.23.11-.34.17-.11.05-.21.11-.32.15-.14.05-.28.09-.42.13-.09.02-.18.05-.27.07-.17.04-.34.06-.52.08-.06,0-.13.02-.19.02-.21.02-.42.02-.63.01-.03,0-.06,0-.08,0-.34-.01-.68-.04-1.02-.1.96,1.57,1.96,3,2.95,3.87.83.27,1.67.26,2.54-.12.1-.04.21.35.16.56-.02.07-.04.12-.06.18.11-.04.18.4.12.57-.25.72-.55,1.17-.88,1.43-.1.2-.2.36-.3.52,0,0,0,.01-.01.02-.39.63-.82,1.08-1.3,1.34,0,0,0,0-.01,0-.17.08-.35.17-.53.22,2.15,2.11,4.45,3.32,6.44,3.24.24-.06.47-.16.71-.28.24-.26.48-.54.72-.83.42-.55.86,1.06.72,2.04-.67,4.74-2.8,7.18-4.93,8.44-.29.17-.57.32-.86.45.38.84.76,1.65,1.16,2.43.26.5.55,1.03.86,1.56.13.22.27.45.4.68.17.29.35.59.54.88.19.31.39.62.59.93.12.18.24.36.36.54,1.57,2.33,3.36,4.6,5.08,6.23,0,0,0,0,0,0,.32.3.64.59.95.85.36.29.72.57,1.06.78,1.32-.1,2.57-.51,3.7-1.37.09-.07.27.22.23.55-.12.88-.29,1.65-.48,2.33-.02.06-.03.14-.05.2,0,0,0,0,0,0-.16.53-.34.99-.54,1.41-.04.08-.08.17-.12.25-.2.39-.4.74-.63,1.04,0,0,0,.02-.01.02-.23.3-.48.55-.74.76-.06.05-.12.1-.18.14-.26.19-.53.36-.81.49,1.13.47,2.26.86,3.38,1.23.19.06.2.71.07.8-1.73,1.1-4.04,1.38-6.41.44.76,1.08,1.48,2.06,2.13,2.92.35.46.7.88,1.06,1.26.03.03.06.06.09.09.33.35.66.67.99.95.02.02.04.03.06.05.42.36.85.67,1.27.93.03.02.06.04.1.06.44.26.88.48,1.32.64.02,0,.03,0,.05.01.39.14.78.24,1.17.31.09.02.19.03.28.04.4.05.8.08,1.2.06.49-.35.97-.68,1.47-.99.12-.07.22.39.17.62-.01.06-.03.1-.04.15.11.07.17.44.1.61-.18.49-.38.92-.58,1.32-.11.4-.24.72-.36,1.08,0,0,0,0,0,.01-.87,2.56-2.01,4.28-3.32,5.34-.01,0-.02.02-.04.03-.32.25-.64.48-.97.66-.04.02-.08.04-.12.06-.31.16-.62.31-.94.41-.1.03-.2.05-.31.08-.27.07-.54.15-.81.19-.38.06-.78.09-1.17.09.33.24.65.44.98.63.3.16.6.29.89.41.03.01.05.02.08.03.71-.08,1.43-.1,2.16-.04.11,0,.21.13.3.3.5-.21.98-.43,1.43-.68.35-.2.56,1.16.39,1.68-3.63,10.89-11.87,7.01-18.28,2.34.33,1.34.69,2.66,1.03,3.98.32,1.23.64,2.47.98,3.7.62,2.24,1.27,4.47,1.96,6.7.03.09.04.19.04.27,0,0,0,.02,0,.02,0,.14-.04.23-.09.22-.02,0-.05-.01-.08-.07-.28-.52-.55-1.02-.83-1.53-.21-.36-.43-.76-.64-1.14.24.55.47,1.11.71,1.64.11.24.03.62-.09.41-3.29-5.8-6.4-10.81-9.22-18.17.13,4.24.02,7.94-.46,11.8-.03.3-.23.08-.2-.23.22-2.19.26-4.69.21-7.31-.13,1.05-.27,2.04-.41,2.96-.27,1.68-.6,3.22-.95,4.72,1.99,15.36,4.43,31.42,4.43,31.42-4.25,6.3-7.16-.61-7.16-.61-.56-7.36-2.15-22.34-3.42-34-.51,2.69-1.11,5.25-1.65,7.73-.05.23-.21-.07-.16-.31.53-2.86.98-6,1.32-9.23-.79,2.84-1.7,5.4-2.74,7.5-.27.55-.56,1.04-.85,1.5-.14.23-.28.45-.43.67,0,0,0,.01-.01.02-.02.03-.04.05-.06.07-.88,1.29-1.84,2.29-2.83,3.11-.07.06-.13.12-.2.17-.28.22-.56.43-.84.63-.12.08-.23.17-.35.24-.26.17-.52.34-.79.5-.15.09-.31.19-.46.27-.24.14-.48.28-.72.41-.23.13-.46.25-.68.37-.55.29-1.1.59-1.64.88-.05.03-.1.02-.15,0-.02,0-.03-.02-.05-.04-.03-.03-.06-.06-.09-.1-.01-.02-.03-.05-.04-.07-.03-.06-.06-.14-.09-.22,0-.02-.01-.03-.02-.05-.03-.1-.05-.22-.08-.34,0-.04-.01-.07-.02-.11-.01-.09-.02-.18-.03-.27,0-.04,0-.08,0-.12,0-.1,0-.2,0-.3,0-.02,0-.05,0-.07,0,0,0,0,0,0,0-.03,0-.06.01-.09.02-.21.07-.4.14-.51.35-.47.71-.9,1.07-1.31.22-.26.44-.51.65-.75.31-.53.62-1.09.91-1.69.01-.11.03-.22.08-.27.07-.07.12-.19.18-.27.53-1.18,1.01-2.52,1.4-4.1.04-.14.07-.29.1-.45-2.96,7.03-7.13,11.09-11.53,10.61,0,0-.02,0-.02,0-.38-.04-.76-.12-1.14-.23-.03,0-.07-.02-.1-.03-.36-.11-.73-.26-1.09-.43-.05-.02-.1-.05-.15-.07-.35-.18-.71-.39-1.06-.63-.06-.04-.12-.09-.18-.13-.35-.25-.69-.52-1.04-.83-.07-.06-.13-.13-.2-.19-.34-.32-.68-.66-1.02-1.04-.02-.02-.03-.03-.05-.05-.32-.37-.63-.72-.94-1.13-.26-.34-.26-1.4.03-1.21.27.18.53.28.8.42.03-.04.06-.09.1-.1.28-.15.56-.32.84-.51,0,0,0,0,0,0,2.46-1.61,4.68-4.61,6.39-9.04-.51.65-1.02,1.27-1.53,1.91-.25.31-.49-.81-.27-1.17,1.19-1.94,2.49-3.94,3.44-6.7-1.54,1.74-3.18,2.89-4.49,3.37-2.56.94-7.16,2.27-9.65-4.31Z"
  />
</svg>
