<?xml version="1.0" encoding="UTF-8"?><svg
  id="Layer_1"
  xmlns="http://www.w3.org/2000/svg"
  viewBox="0 0 1958.4 1494.28"
>
  <defs>
    <style>
      .cls-1 {
        fill: #02020a;
      }
    </style>
  </defs>
  <path
    class="cls-1"
    d="M1704.48,601.73c-1.02,1.95-2.2,3.41-3.44,4.68-.18-1.18-.61-2.22-1.21-2.64h0c-.11-.06-.21-.16-.33-.2-.8-.16-1.64-.49-2.48-.92-.17-.09-.35-.19-.52-.28-.82-.46-1.65-.98-2.49-1.62-1.16-.88-2.33-1.94-3.52-3.13,0,0-.01-.01-.02-.02-2.36-2.37-4.76-5.31-7.15-8.57-.05-.06-.09-.13-.14-.19-1.14-1.56-2.28-3.2-3.41-4.88-.13-.2-.27-.4-.4-.6-1.1-1.66-2.19-3.34-3.26-5.06-.04-.06-.08-.13-.12-.19-.98-1.57-1.93-3.15-2.88-4.72-.27-.44-.53-.89-.8-1.33-.86-1.46-1.71-2.91-2.54-4.34-.33-.58-.66-1.15-.99-1.72-.8-1.41-1.61-2.81-2.36-4.14-3.14-5.55-6.14-11.26-9.04-17.13,5.59,4.84,11.18,7.28,16.84,11.25.68.49.8-1.87.14-2.66-7.24-8.37-14.69-10.82-21.85-20.13-.32-.42-.63-.77-.95-1.19-.22-.33-.44-.67-.67-.98-1.15-2.55-2.31-5.11-3.44-7.73,11.64,5.04,23.11,3.31,32.82-4.33,1.3-1.01.38-6.46-1.09-6.37-.88.06-1.77.1-2.65.13.25-.15.51-.3.76-.48.2-.15.06-1.01-.18-1-.58,0-1.16-.09-1.74-.14-.12-.12-.23-.32-.38-.35-10.79-2.3-21.62-12.17-32.1-26.34-1.12-1.5-2.26-3.16-3.39-4.83,4.7,1.19,9.23.98,13.48-.87,4.4-1.03,8.43-4.07,11.59-9.17,2.46-1.47,4.76-3.72,6.74-7.35.15-.29,0-1-.22-1-2.32.01-4.6.21-6.87.43-.17-1.33-.67-2.7-1.29-2.61-6.38,1.01-12.57-1.48-18.55-6.51-1.3-1.1-2.58-2.31-3.85-3.63-.03-.03-.05-.06-.08-.09-1.29-1.34-2.57-2.79-3.84-4.35-1.3-1.6-2.59-3.31-3.87-5.11-.02-.02-.03-.04-.05-.07-2.47-3.48-4.9-7.34-7.28-11.49-.2-.36-.41-.71-.61-1.08-1.12-1.98-2.24-4.01-3.35-6.11,9.1,9.72,17.34,14.21,25.25,6.63.64-.63.05-3.21-.64-2.79-5.48,3.31-12.85-2.87-19.49-11.4,3.28,1.05,6.55,1.06,9.73-.14.95-.35.59-3.82-.47-3.97-1.08-.15-2.17-.45-3.25-.83-.51-.18-1.02-.43-1.53-.67-.53-.24-1.07-.49-1.6-.78-.69-.38-1.38-.82-2.07-1.29-.3-.2-.6-.42-.9-.64-.83-.61-1.65-1.25-2.48-1.99-.08-.07-.15-.15-.23-.22-1.61-1.44-3.19-3.09-4.76-5,0,0-.01,0-.02-.01-3.82-4.61-7.52-10.43-10.93-17.41-.77-1.68-1.55-3.33-2.32-4.93-.86-1.98-1.66-4.02-2.46-6.03,6.81,10.97,14.29,18.18,21.62,22.02,1.23.64,1.15-3.34-.03-4.37-7.2-6.2-14.19-16.83-20.39-29.52,6.47,5.91,12.96,8.52,19.69,7.75.13-.01.23-.13.3-.29.01-.03.02-.05.03-.08.12-.35.13-.89.04-1.41,0-.01,0-.02,0-.03-.12-.66-.38-1.26-.73-1.28-.55-.02-1.1-.11-1.66-.25-.31-.08-.63-.21-.95-.32-.3-.11-.6-.2-.9-.33-.4-.18-.8-.42-1.21-.65-.18-.1-.36-.19-.54-.31-.45-.28-.91-.61-1.36-.96-.13-.1-.26-.19-.39-.29-.49-.39-.99-.81-1.49-1.27-.09-.08-.17-.15-.26-.23-.53-.49-1.07-1.02-1.61-1.58-.04-.05-.09-.09-.13-.13-1.16-1.22-2.33-2.58-3.49-4.05-5.6-7.11-11.12-16.77-15.72-25.58,2.99,3.71,5.88,6.19,8.54,6.99.35.1.35-1.13-.01-1.3-16.67-7.41-27.01-59.72-34.5-90.81-.17-.7-.4-1.25-.65-1.71-.03-.05-.06-.08-.09-.12-.24-.4-.49-.69-.76-.87,0,0-.01-.02-.02-.02-.03-.02-.05-.01-.08-.03-.18-.1-.36-.19-.53-.19-.21,0-.41.06-.57.24-.26-1.48-.49-2.94-.78-4.41-.09-.44-.19-.81-.31-1.13-.01-.04-.03-.06-.05-.09-.83-2.04-2.21-1.27-2.25,1.29-.94,64.02-7.45,127.63-33.19,145.15-.03-.03-.06-.07-.09-.1-.64.43-1.24.98-1.9,1.37-.36.17-.19,1.37.12,1.84,7.33,11.09,16.1,1.63,22.8-11.21-.87,2.76-1.77,5.5-2.79,8.09-3.47,8.7-7.41,21.44-12.86,24.19-.06,0-.12.04-.19.05-.04,0-.06.08-.09.14h-.01s0,0-.01,0c-.07.08-.14.19-.17.34-.01.05,0,.1,0,.15-.08.6.06,1.46.44,1.7.79.53,1.63.99,2.51,1.41.01,0,.02.01.04.02.72.34,1.45.63,2.22.89.31.1.63.17.95.26.52.15,1.04.3,1.58.41.36.07.72.11,1.08.17.52.08,1.04.15,1.56.19.37.03.74.03,1.11.04.54.01,1.08,0,1.62-.02.36-.02.72-.05,1.08-.09.57-.06,1.13-.15,1.7-.26.34-.07.68-.12,1.02-.21.62-.15,1.24-.35,1.86-.56.28-.1.56-.17.83-.28.89-.35,1.77-.75,2.63-1.24-1.44,10.46-3.49,19.89-7.3,28.29-1.09,2.42-2.2,4.85-3.32,7.22-.03.07-.06.13-.09.2-1.14,2.42-2.31,4.79-3.51,7.06-.68,1.3-1.38,2.56-2.09,3.79-.09.16-.19.33-.28.5-.61,1.05-1.25,2.05-1.88,3.03-.18.27-.35.55-.52.81-.59.88-1.21,1.7-1.82,2.51-.21.28-.42.58-.63.85-.82,1.02-1.66,1.99-2.53,2.86-1.39.29-2.74.58-3.92.89-.48.12-.44,1.5.02,2.22.4.6.84,1.13,1.27,1.68.07.66.22,1.3.42,1.81,0,0,0,.02,0,.03,0,0,0,0,0,.01.1.25.22.44.35.6.03.04.06.11.1.15.16.15.33.22.51.15.27-.06.54-.22.81-.33.63.57,1.27,1.07,1.93,1.5.22.14.44.24.66.37.44.26.88.52,1.33.71.29.13.59.21.89.32.38.14.76.29,1.15.38.35.09.71.14,1.07.2.33.05.66.13.99.16.42.04.84.04,1.26.04.27,0,.53.02.8,0,.5-.02.99-.08,1.49-.15.18-.03.37-.04.55-.07.59-.1,1.18-.24,1.77-.39.08-.02.16-.04.24-.06.93-.26,1.86-.56,2.78-.94-1.64,4.63-3.47,8.92-5.66,11.76-2.12,1.23-4.48,1.78-7.16,1.4-.31-.03-.36,1.03-.08,1.52.1.16.2.27.29.42-.34-.02-.25,1.14.04,1.54,1.16,1.64,2.3,2.58,3.4,3.04.39.43.79.77,1.19,1.11.02.01.03.02.05.04,1.51,1.32,3.01,2.17,4.49,2.51.01,0,.02.01.04.01.54.1,1.08.19,1.63.19-4.58,6.77-10.19,11.4-15.77,12.52-.7,0-1.42-.09-2.16-.23-.85-.49-1.7-1.03-2.55-1.62-1.54-1.11-1.67,3.26-.64,5.64,5.02,11.55,12.55,16.29,19.31,18.05.91.24,1.81.43,2.69.57-.49,2.37-1.02,4.69-1.63,6.92-.39,1.45-.86,2.97-1.35,4.52-.21.65-.44,1.32-.67,1.98-.29.86-.59,1.72-.91,2.6-.33.92-.68,1.83-1.04,2.76-.21.53-.42,1.07-.64,1.6-2.82,6.96-6.3,13.91-10,19.17,0,0-.01.01-.02.02-.7.98-1.39,1.92-2.09,2.79-.81.98-1.61,1.92-2.43,2.69-3.73.64-7.48.44-11.19-.97-.31-.1-.61.75-.27,1.53.92,2.15,1.89,3.97,2.89,5.58.09.15.18.33.27.47,0,0,0,.01.01.02.79,1.23,1.6,2.28,2.43,3.21.17.19.33.37.5.54.8.85,1.61,1.61,2.44,2.21.02.01.04.03.05.05.84.61,1.7,1.06,2.56,1.43.2.09.4.17.6.24.85.32,1.71.57,2.56.69-2.83,1.93-5.71,3.68-8.6,5.38-.48.29-.09,1.94.35,2.08,5.53,1.62,12.16.79,18.14-3.18-1.38,3.25-2.76,6.21-4,8.82-.67,1.4-1.38,2.69-2.11,3.89-.06.1-.13.19-.19.29-.68,1.1-1.39,2.13-2.12,3.07-.04.06-.09.11-.13.16-.94,1.2-1.91,2.26-2.91,3.2-.08.07-.15.15-.23.22-1.05.96-2.13,1.8-3.23,2.51-.04.02-.08.04-.12.07-.99.63-2.02,1.13-3.05,1.56-.25.1-.5.21-.75.3-1.09.4-2.19.74-3.31.95-1.58-.56-3.15-1.07-4.74-1.51-.36-.09-.35,1.13-.07,1.67.07.14.13.22.21.36-.25.25-.19,1.22.12,1.62.83,1.13,1.66,2.09,2.49,2.95.57.92,1.15,1.67,1.73,2.5,0,.01.01.02.02.03,4.12,5.88,8.42,9.48,12.78,11.3.04.02.08.03.12.04,1.05.43,2.09.78,3.14,1.02.13.03.26.04.38.06.96.2,1.93.36,2.9.41.3.02.6-.01.9-.01.8,0,1.6.02,2.39-.06,1.11-.11,2.21-.3,3.31-.57-.75.83-1.53,1.56-2.31,2.24-.72.61-1.46,1.14-2.22,1.63-.07.04-.13.09-.19.14-2.04.29-4.05.71-6.03,1.36-.3.09-.5.46-.62.96-1.52-.19-3.01-.43-4.43-.77-1.09-.26-.79,3.31.04,4.51,17.33,25.11,37.67,9.78,52.4-6.34-.02,3.61-.15,7.18-.24,10.76-.08,3.34-.13,6.68-.26,10.01-.25,6.08-.58,12.16-1.01,18.27-.02.25.02.5.08.72,0,.02.02.04.02.06.11.34.26.56.41.5.07,0,.13-.06.17-.23.43-1.5.86-2.95,1.29-4.43.35-1.06.69-2.2,1.03-3.32-.29,1.55-.56,3.13-.89,4.62-.15.68.32,1.59.52.98,5.31-16.87,10.64-31.65,13.62-52.18,2.45,10.82,5.22,20.11,9.1,29.57.29.74.68.05.4-.72-2.06-5.4-3.84-11.71-5.42-18.37,1.04,2.56,2.09,4.98,3.11,7.21,1.86,4.08,3.8,7.75,5.77,11.3,4.63,40.2,8.51,82.49,8.51,82.49,16.01,13.08,19.52-6.35,19.52-6.35-3.31-19-8.83-57.97-13.01-88.33,3.22,6.47,6.56,12.54,9.71,18.44.3.55.53-.32.24-.89-3.38-6.88-6.7-14.53-9.78-22.48,4.08,6.66,8.3,12.52,12.59,17.15,1.12,1.22,2.23,2.25,3.35,3.23.54.49,1.09.96,1.63,1.4.01.01.03.03.04.04.07.05.14.09.2.15,3.32,2.67,6.63,4.57,9.94,5.98.22.1.44.2.66.29.92.38,1.84.71,2.75,1.02.38.13.76.26,1.14.38.84.27,1.68.52,2.52.75.49.13.98.26,1.46.39.76.19,1.52.39,2.27.56.72.17,1.43.33,2.15.48,1.72.38,3.44.74,5.16,1.13.17.03.3-.02.42-.11.04-.03.07-.08.11-.13.07-.09.13-.19.17-.32.03-.07.05-.14.07-.22.05-.18.08-.39.1-.62,0-.05.01-.08.02-.13.02-.28,0-.59-.01-.9,0-.1-.02-.19-.03-.29-.02-.24-.05-.47-.1-.71-.02-.1-.03-.2-.06-.3-.06-.26-.12-.52-.2-.76-.02-.06-.03-.12-.05-.18,0,0,0,0,0,0-.03-.08-.06-.14-.09-.21-.2-.52-.45-.96-.74-1.18-1.29-.95-2.57-1.8-3.84-2.61-.78-.5-1.55-1-2.32-1.47-1.22-1.12-2.44-2.34-3.65-3.67-.11-.28-.24-.52-.4-.63-.23-.14-.45-.4-.68-.57-2.26-2.64-4.48-5.7-6.61-9.43-.19-.32-.39-.69-.59-1.06,12.9,15.79,27.18,23.28,39.1,19.11.02,0,.05-.01.07-.02,1.02-.36,2.03-.82,3.01-1.36.09-.05.18-.09.27-.14.94-.53,1.86-1.14,2.76-1.83.12-.09.25-.19.37-.29.87-.69,1.72-1.46,2.54-2.32.14-.14.28-.3.42-.45.8-.86,1.59-1.79,2.34-2.8.15-.2.29-.41.44-.62.74-1.03,1.46-2.12,2.15-3.31.04-.06.07-.11.11-.17.64-1.14,1.28-2.23,1.88-3.49.49-1.02-.2-3.71-.87-3.05-.63.62-1.29,1.06-1.94,1.59-.1-.09-.22-.19-.34-.2-.88-.2-1.76-.44-2.67-.73,0,0,0,0-.01,0-7.9-2.44-16.09-8.52-23.77-18.59,1.84,1.31,3.68,2.54,5.53,3.82.9.63.81-2.38-.03-3.15-4.6-4.1-9.53-8.29-14.01-14.65,5.45,3.37,10.77,5.19,14.72,5.51,7.75.67,21.42.93,24-17.39.26-1.79-.91-3.95-1.49-2.84Z"
  />
  <path
    class="cls-1"
    d="M1791.68,904.67c-1.44,2.74-3.08,4.79-4.83,6.58-.26-1.65-.86-3.12-1.7-3.71h0c-.15-.08-.29-.23-.46-.28-1.13-.22-2.3-.69-3.48-1.29-.24-.12-.49-.26-.73-.39-1.15-.64-2.31-1.38-3.5-2.28-1.62-1.23-3.28-2.72-4.95-4.4,0,0-.02-.02-.02-.03-3.31-3.33-6.69-7.46-10.05-12.03-.07-.09-.13-.18-.2-.27-1.6-2.19-3.2-4.49-4.78-6.85-.19-.28-.37-.56-.56-.84-1.55-2.32-3.08-4.69-4.58-7.1-.06-.09-.11-.18-.17-.27-1.37-2.2-2.72-4.42-4.04-6.63-.37-.62-.75-1.25-1.12-1.87-1.21-2.05-2.4-4.09-3.56-6.09-.47-.81-.93-1.61-1.38-2.41-1.13-1.97-2.25-3.95-3.31-5.82-4.41-7.79-8.62-15.81-12.7-24.05,7.85,6.79,15.7,10.22,23.65,15.79.96.69,1.13-2.63.19-3.73-10.16-11.75-20.62-15.19-30.68-28.26-.44-.59-.88-1.08-1.33-1.67-.31-.47-.62-.94-.93-1.37-1.62-3.58-3.24-7.17-4.82-10.85,16.35,7.08,32.44,4.65,46.08-6.08,1.83-1.42.53-9.07-1.53-8.94-1.23.08-2.48.13-3.72.19.36-.22.72-.42,1.07-.68.28-.21.08-1.42-.25-1.41-.81,0-1.63-.13-2.45-.19-.17-.17-.32-.44-.53-.49-15.15-3.23-30.35-17.09-45.06-36.98-1.58-2.11-3.18-4.43-4.77-6.78,6.6,1.67,12.97,1.38,18.93-1.23,6.18-1.45,11.84-5.71,16.27-12.87,3.46-2.06,6.68-5.22,9.47-10.32.21-.41,0-1.41-.3-1.4-3.26.02-6.46.3-9.65.6-.24-1.87-.95-3.79-1.81-3.67-8.96,1.42-17.65-2.08-26.04-9.14-1.82-1.54-3.62-3.24-5.41-5.09-.04-.04-.08-.08-.11-.12-1.81-1.88-3.6-3.91-5.39-6.1-1.83-2.24-3.64-4.64-5.44-7.17-.02-.03-.04-.06-.07-.09-3.47-4.89-6.88-10.31-10.22-16.13-.29-.5-.57-1-.86-1.51-1.58-2.78-3.15-5.63-4.7-8.58,12.78,13.65,24.35,19.95,35.45,9.3.9-.88.08-4.51-.89-3.92-7.7,4.64-18.04-4.03-27.36-16,4.61,1.48,9.2,1.49,13.66-.2,1.33-.5.83-5.36-.66-5.57-1.52-.21-3.04-.64-4.57-1.17-.72-.26-1.43-.61-2.15-.94-.75-.33-1.5-.68-2.24-1.09-.97-.54-1.94-1.14-2.91-1.81-.42-.28-.84-.59-1.26-.89-1.16-.86-2.32-1.76-3.48-2.79-.11-.1-.22-.21-.33-.3-2.26-2.02-4.47-4.34-6.68-7.01,0,0-.02-.01-.03-.02-5.37-6.47-10.56-14.64-15.34-24.45-1.08-2.36-2.18-4.67-3.26-6.92-1.21-2.78-2.34-5.64-3.46-8.47,9.56,15.41,20.06,25.53,30.35,30.91,1.73.9,1.61-4.68-.04-6.13-10.11-8.71-19.92-23.63-28.63-41.45,9.09,8.3,18.2,11.96,27.65,10.87.19-.02.32-.19.42-.4.02-.04.03-.08.05-.12.17-.49.18-1.25.06-1.98,0-.02,0-.03,0-.05-.17-.93-.53-1.76-1.02-1.8-.77-.02-1.55-.16-2.34-.35-.44-.11-.89-.29-1.33-.45-.42-.15-.84-.27-1.26-.47-.56-.26-1.13-.59-1.69-.92-.25-.15-.51-.27-.76-.43-.63-.4-1.27-.86-1.91-1.34-.18-.14-.37-.27-.55-.41-.69-.55-1.39-1.14-2.09-1.78-.12-.11-.24-.22-.37-.33-.75-.69-1.5-1.43-2.26-2.22-.06-.06-.12-.13-.18-.19-1.63-1.71-3.27-3.62-4.9-5.69-7.87-9.98-15.61-23.54-22.07-35.92,4.19,5.21,8.26,8.69,12,9.81.49.14.49-1.58-.02-1.82-23.4-10.41-37.92-83.86-48.44-127.5-.23-.98-.56-1.76-.92-2.4-.04-.07-.08-.11-.12-.17-.34-.56-.69-.96-1.06-1.22-.01,0-.02-.03-.03-.03-.04-.03-.07-.02-.11-.04-.25-.15-.5-.27-.74-.26-.29-.01-.57.09-.81.33-.36-2.08-.69-4.13-1.1-6.19-.12-.62-.27-1.14-.44-1.58-.02-.05-.05-.08-.07-.13-1.17-2.87-3.11-1.79-3.16,1.82-1.32,89.89-10.46,179.2-46.6,203.8-.04-.05-.08-.1-.12-.14-.9.61-1.74,1.38-2.67,1.92-.5.24-.26,1.92.17,2.59,10.29,15.57,22.61,2.28,32.02-15.74-1.22,3.87-2.48,7.72-3.92,11.36-4.87,12.21-10.4,30.11-18.05,33.96-.09.01-.17.06-.26.07-.05,0-.08.12-.13.19h-.02s0,0-.02,0c-.1.12-.19.27-.24.48-.01.07,0,.14-.01.21-.11.84.09,2.05.61,2.38,1.11.74,2.29,1.39,3.52,1.97.02,0,.03.02.05.03,1,.47,2.04.89,3.11,1.25.43.15.89.24,1.33.37.73.21,1.47.42,2.22.57.5.1,1.01.16,1.51.23.73.11,1.46.21,2.2.26.52.04,1.03.05,1.55.06.76.02,1.51,0,2.28-.03.51-.03,1.01-.07,1.52-.12.8-.08,1.59-.22,2.39-.37.48-.09.95-.17,1.43-.29.88-.21,1.74-.49,2.61-.79.39-.13.78-.24,1.17-.39,1.25-.49,2.49-1.06,3.69-1.74-2.02,14.69-4.9,27.93-10.25,39.72-1.53,3.4-3.08,6.8-4.66,10.14-.04.09-.09.19-.13.28-1.61,3.39-3.24,6.72-4.93,9.91-.96,1.83-1.94,3.6-2.93,5.32-.13.23-.26.47-.4.7-.86,1.48-1.75,2.88-2.64,4.25-.25.38-.49.77-.73,1.14-.83,1.24-1.69,2.39-2.56,3.53-.3.39-.59.81-.89,1.19-1.15,1.44-2.33,2.79-3.55,4.01-1.96.41-3.84.81-5.5,1.25-.68.16-.62,2.11.03,3.12.56.85,1.18,1.59,1.78,2.36.09.92.31,1.82.59,2.55,0,.01,0,.03.01.05,0,0,0,.01.01.02.14.36.31.62.49.84.05.06.09.16.14.21.22.21.46.3.72.21.37-.09.76-.31,1.13-.46.88.8,1.79,1.5,2.7,2.1.31.2.62.34.93.52.62.36,1.23.73,1.86,1,.41.18.83.3,1.24.44.54.19,1.07.4,1.61.54.5.13,1,.19,1.5.28.46.08.92.18,1.39.22.59.06,1.18.05,1.77.06.37,0,.75.02,1.12,0,.7-.03,1.39-.12,2.09-.21.26-.04.52-.06.78-.1.83-.14,1.65-.33,2.48-.55.11-.03.22-.05.33-.08,1.31-.37,2.61-.79,3.9-1.32-2.3,6.5-4.87,12.52-7.94,16.51-2.98,1.72-6.28,2.49-10.05,1.96-.43-.04-.5,1.44-.11,2.14.14.22.28.38.41.59-.48-.03-.35,1.6.06,2.16,1.63,2.31,3.22,3.63,4.77,4.27.55.61,1.11,1.08,1.67,1.55.02.02.05.03.07.05,2.12,1.86,4.22,3.05,6.3,3.52.02,0,.03.02.05.02.76.14,1.52.27,2.29.26-6.43,9.51-14.31,16-22.14,17.58-.99,0-1.99-.13-3.03-.33-1.19-.69-2.39-1.45-3.58-2.28-2.16-1.55-2.35,4.58-.9,7.92,7.05,16.21,17.62,22.87,27.11,25.34,1.28.34,2.54.6,3.77.8-.69,3.33-1.43,6.58-2.29,9.72-.55,2.03-1.2,4.18-1.89,6.35-.29.91-.62,1.85-.93,2.78-.41,1.21-.83,2.42-1.27,3.65-.47,1.29-.95,2.58-1.46,3.87-.29.75-.6,1.5-.9,2.25-3.96,9.77-8.85,19.53-14.04,26.92,0,.01-.01.02-.02.03-.98,1.38-1.95,2.69-2.94,3.92-1.13,1.37-2.27,2.7-3.41,3.78-5.23.9-10.5.61-15.71-1.37-.43-.14-.85,1.05-.38,2.15,1.29,3.01,2.66,5.57,4.06,7.84.13.21.25.46.38.66,0,0,.01.02.02.03,1.11,1.73,2.25,3.2,3.41,4.51.23.26.47.51.7.76,1.13,1.19,2.27,2.26,3.43,3.1.03.02.05.04.08.06,1.18.85,2.38,1.49,3.59,2.01.28.12.56.23.84.34,1.2.45,2.39.8,3.6.97-3.98,2.72-8.01,5.17-12.08,7.56-.67.4-.13,2.73.49,2.92,7.77,2.27,17.07,1.11,25.46-4.46-1.94,4.56-3.88,8.71-5.61,12.39-.94,1.97-1.93,3.78-2.96,5.47-.09.14-.18.26-.27.4-.96,1.54-1.95,2.98-2.97,4.31-.06.08-.13.15-.19.23-1.32,1.68-2.68,3.17-4.09,4.5-.11.1-.21.21-.32.31-1.47,1.35-2.98,2.53-4.54,3.52-.06.03-.11.06-.16.09-1.4.88-2.83,1.58-4.28,2.19-.35.15-.7.29-1.05.42-1.53.57-3.07,1.04-4.64,1.34-2.22-.79-4.43-1.51-6.65-2.12-.51-.13-.49,1.58-.1,2.35.09.19.19.32.3.51-.35.36-.26,1.72.17,2.28,1.17,1.59,2.33,2.93,3.49,4.14.81,1.3,1.62,2.35,2.43,3.5.01.01.02.03.03.04,5.78,8.26,11.83,13.31,17.95,15.86.06.02.11.04.17.06,1.47.6,2.94,1.09,4.41,1.43.18.04.36.05.54.09,1.35.28,2.71.5,4.07.58.42.02.84-.02,1.26-.01,1.12.01,2.24.03,3.36-.08,1.56-.15,3.11-.42,4.65-.8-1.06,1.17-2.14,2.2-3.25,3.15-1.01.86-2.05,1.6-3.11,2.29-.09.06-.18.13-.27.19-2.86.4-5.68,1-8.46,1.91-.42.13-.71.64-.88,1.35-2.13-.26-4.22-.61-6.21-1.08-1.53-.37-1.12,4.65.06,6.34,24.33,35.26,52.89,13.73,73.58-8.9-.02,5.07-.21,10.08-.33,15.11-.11,4.69-.18,9.38-.37,14.06-.35,8.54-.81,17.07-1.42,25.65-.02.36.03.7.12,1.01,0,.03.02.05.03.09.15.48.37.78.57.71.09,0,.18-.09.24-.32.6-2.11,1.2-4.15,1.81-6.22.5-1.48.96-3.09,1.44-4.66-.41,2.18-.79,4.4-1.25,6.49-.21.96.45,2.24.73,1.38,7.45-23.69,14.94-44.44,19.12-73.26,3.44,15.19,7.33,28.24,12.77,41.51.41,1.04.96.07.56-1.01-2.89-7.58-5.39-16.43-7.61-25.8,1.47,3.6,2.94,7,4.36,10.13,2.61,5.72,5.34,10.88,8.11,15.86,6.49,56.44,11.95,115.82,11.95,115.82,22.47,18.37,27.41-8.92,27.41-8.92-4.65-26.68-12.4-81.4-18.27-124.03,4.51,9.09,9.21,17.61,13.64,25.9.42.77.74-.45.34-1.25-4.75-9.66-9.4-20.4-13.74-31.56,5.73,9.35,11.65,17.58,17.68,24.08,1.57,1.71,3.13,3.16,4.7,4.53.76.68,1.52,1.35,2.29,1.97.02.02.04.04.06.05.1.08.19.13.29.21,4.66,3.75,9.31,6.41,13.95,8.39.31.13.62.29.93.41,1.29.53,2.58,1,3.86,1.43.53.18,1.07.37,1.6.54,1.18.37,2.36.73,3.54,1.05.69.19,1.37.37,2.06.54,1.06.27,2.13.54,3.19.79,1.01.23,2.01.46,3.02.68,2.42.53,4.83,1.04,7.24,1.59.23.05.42-.03.59-.16.06-.05.1-.12.16-.18.09-.12.18-.27.25-.45.04-.1.07-.19.1-.31.07-.26.11-.55.14-.87,0-.06.02-.11.02-.18.02-.4.01-.83-.02-1.27,0-.13-.03-.27-.04-.4-.03-.33-.08-.66-.14-.99-.03-.15-.05-.28-.08-.43-.08-.37-.17-.73-.28-1.07-.02-.08-.04-.17-.07-.25,0,0,0,0,0-.01-.04-.11-.09-.19-.13-.3-.28-.73-.63-1.35-1.04-1.66-1.82-1.34-3.61-2.53-5.4-3.66-1.09-.7-2.18-1.4-3.26-2.06-1.72-1.57-3.43-3.28-5.13-5.15-.15-.4-.33-.73-.57-.88-.32-.2-.63-.56-.95-.8-3.18-3.7-6.28-8-9.29-13.25-.27-.45-.54-.97-.82-1.49,18.11,22.17,38.16,32.68,54.9,26.84.03-.01.06-.02.1-.03,1.44-.51,2.85-1.15,4.23-1.9.12-.07.25-.13.37-.2,1.32-.74,2.61-1.6,3.87-2.58.17-.13.35-.27.52-.41,1.22-.97,2.41-2.05,3.57-3.25.2-.2.39-.42.59-.63,1.13-1.21,2.23-2.51,3.29-3.94.21-.28.41-.58.61-.87,1.04-1.45,2.05-2.97,3.02-4.64.05-.09.11-.15.16-.24.89-1.6,1.8-3.14,2.63-4.9.69-1.43-.28-5.21-1.23-4.29-.88.88-1.81,1.49-2.73,2.24-.15-.12-.31-.27-.47-.28-1.23-.28-2.48-.61-3.74-1.02,0,0-.01,0-.02.01-11.09-3.42-22.59-11.96-33.38-26.11,2.58,1.84,5.16,3.57,7.76,5.36,1.26.89,1.14-3.35-.04-4.42-6.45-5.75-13.39-11.64-19.67-20.58,7.65,4.73,15.13,7.28,20.67,7.74,10.87.95,30.08,1.31,33.7-24.42.36-2.52-1.28-5.55-2.09-3.99Z"
  />
  <path
    class="cls-1"
    d="M1545.79,897.29c-.7,1.62-1.51,2.83-2.38,3.88-.15-.99-.48-1.88-.91-2.24h0c-.08-.05-.15-.14-.24-.17-.58-.15-1.18-.45-1.79-.82-.12-.07-.25-.16-.38-.25-.59-.4-1.19-.85-1.81-1.41-.84-.76-1.7-1.67-2.58-2.7,0,0,0-.01-.01-.02-1.73-2.04-3.5-4.55-5.27-7.33-.03-.06-.07-.11-.1-.16-.84-1.33-1.69-2.73-2.52-4.16-.1-.17-.2-.34-.3-.51-.82-1.41-1.63-2.85-2.42-4.31-.03-.05-.06-.11-.09-.17-.73-1.33-1.44-2.68-2.14-4.02-.2-.38-.4-.76-.59-1.13-.64-1.24-1.28-2.48-1.89-3.69-.25-.49-.49-.98-.74-1.46-.6-1.2-1.2-2.39-1.76-3.52-2.35-4.72-4.59-9.57-6.77-14.56,4.08,4.16,8.12,6.32,12.24,9.76.5.43.54-1.56.05-2.23-5.32-7.16-10.69-9.36-15.98-17.31-.23-.36-.46-.66-.7-1.02-.17-.28-.33-.57-.49-.83-.87-2.16-1.74-4.33-2.59-6.56,8.41,4.45,16.58,3.2,23.38-3.05.91-.83.15-5.42-.9-5.37-.63.03-1.26.05-1.89.07.18-.12.36-.24.53-.39.14-.12.02-.85-.14-.85-.41-.02-.83-.1-1.25-.15-.09-.11-.17-.27-.27-.3-7.76-2.13-15.67-10.62-23.42-22.72-.83-1.28-1.67-2.69-2.51-4.12,3.38,1.08,6.62.99,9.62-.49,3.13-.79,5.96-3.27,8.12-7.5,1.73-1.19,3.33-3.04,4.69-6.05.1-.24-.02-.84-.17-.84-1.66-.03-3.29.09-4.9.24-.15-1.13-.53-2.28-.97-2.22-4.54.73-9.01-1.47-13.37-5.8-.95-.95-1.89-1.98-2.82-3.12-.02-.02-.04-.05-.06-.07-.94-1.15-1.88-2.39-2.82-3.72-.96-1.37-1.91-2.82-2.86-4.36-.01-.02-.02-.04-.04-.06-1.83-2.97-3.63-6.26-5.41-9.78-.15-.3-.3-.61-.46-.91-.84-1.69-1.67-3.41-2.5-5.2,6.68,8.33,12.65,12.26,18.17,6.02.45-.52-.02-2.7-.51-2.36-3.86,2.68-9.24-2.64-14.13-9.93,2.37.94,4.7,1.01,6.95.06.67-.28.36-3.2-.41-3.34-.78-.15-1.56-.42-2.34-.76-.37-.16-.74-.38-1.11-.59-.38-.21-.77-.43-1.16-.68-.5-.34-1-.71-1.51-1.12-.22-.18-.44-.36-.65-.55-.6-.53-1.2-1.08-1.8-1.71-.06-.06-.11-.13-.17-.19-1.17-1.24-2.33-2.66-3.49-4.28,0,0,0,0-.01-.01-2.82-3.94-5.56-8.9-8.12-14.83-.58-1.43-1.17-2.83-1.75-4.19-.65-1.68-1.26-3.41-1.87-5.12,5.07,9.34,10.54,15.54,15.85,18.89.89.56.76-2.78-.1-3.67-5.26-5.34-10.45-14.4-15.11-25.18,4.73,5.08,9.42,7.39,14.22,6.86.1,0,.16-.11.21-.24,0-.02.02-.04.02-.07.08-.29.08-.74,0-1.19,0,0,0-.02,0-.03-.1-.56-.29-1.06-.54-1.09-.39-.02-.79-.11-1.19-.24-.22-.07-.46-.18-.68-.29-.22-.1-.43-.17-.65-.3-.29-.16-.58-.37-.87-.57-.13-.09-.26-.17-.39-.27-.33-.25-.66-.53-.99-.83-.1-.09-.19-.16-.29-.25-.36-.34-.72-.7-1.09-1.09-.06-.07-.13-.13-.19-.2-.39-.43-.78-.88-1.18-1.36-.03-.04-.06-.08-.1-.12-.85-1.05-1.71-2.21-2.57-3.47-4.13-6.08-8.25-14.29-11.7-21.78,2.2,3.17,4.32,5.31,6.23,6.03.25.09.23-.94-.03-1.09-12.05-6.53-20.38-50.68-26.29-76.94-.13-.59-.31-1.06-.5-1.45-.02-.04-.04-.07-.06-.1-.18-.34-.36-.58-.56-.74,0,0,0-.02-.01-.02-.02-.02-.04-.01-.06-.02-.13-.09-.26-.17-.38-.17-.15-.01-.29.04-.41.19-.21-1.25-.41-2.48-.64-3.72-.07-.37-.15-.69-.24-.95-.01-.03-.02-.05-.04-.08-.63-1.73-1.61-1.11-1.59,1.05.48,53.79-3.03,107.14-21.12,121.4-.02-.03-.04-.06-.07-.08-.45.35-.87.8-1.34,1.11-.25.14-.11,1.15.12,1.55,5.44,9.45,11.54,1.66,16.1-9.02-.57,2.3-1.17,4.59-1.85,6.75-2.32,7.25-4.91,17.89-8.76,20.1-.04,0-.09.03-.13.04-.03,0-.04.07-.06.11h0s0,0,0,0c-.05.07-.09.16-.12.28,0,.04,0,.08,0,.12-.05.5.07,1.23.34,1.43.57.46,1.18.86,1.82,1.23,0,0,.02.01.03.02.52.3,1.05.56,1.6.79.22.09.46.16.68.24.38.13.75.27,1.14.37.26.07.51.11.77.16.37.07.74.14,1.12.19.26.03.53.04.79.06.39.02.77.02,1.16,0,.26-.01.51-.03.77-.05.4-.04.81-.11,1.21-.19.24-.05.48-.09.72-.15.44-.12.88-.27,1.32-.44.2-.08.39-.13.59-.22.63-.28,1.25-.6,1.86-1-.84,8.77-2.14,16.65-4.71,23.65-.74,2.02-1.48,4.03-2.24,6.01-.02.05-.04.11-.06.17-.77,2.01-1.57,3.98-2.38,5.87-.46,1.08-.94,2.13-1.42,3.15-.06.14-.13.28-.19.41-.42.87-.85,1.7-1.29,2.51-.12.22-.24.46-.36.67-.41.73-.83,1.41-1.26,2.08-.15.23-.29.48-.44.7-.57.85-1.15,1.64-1.75,2.35-.99.22-1.95.44-2.78.68-.34.09-.29,1.26.06,1.87.3.51.62.97.93,1.44.06.55.18,1.1.33,1.53,0,0,0,.02,0,.03,0,0,0,0,0,.01.08.22.16.38.26.51.03.04.05.1.07.13.12.13.24.19.37.14.19-.05.38-.18.57-.26.46.49.93.92,1.4,1.29.16.12.32.21.48.32.32.22.64.45.96.62.21.11.43.19.64.28.27.12.55.25.83.34.25.08.51.13.77.18.24.05.47.12.71.15.3.04.6.05.9.06.19,0,.38.02.57.02.35-.01.71-.05,1.06-.1.13-.02.26-.03.39-.05.42-.07.84-.18,1.25-.3.06-.02.11-.03.17-.05.66-.2,1.32-.44,1.97-.74-1.09,3.86-2.32,7.43-3.83,9.78-1.5.99-3.17,1.41-5.09,1.05-.22-.03-.24.86-.03,1.28.07.13.15.23.22.36-.24-.03-.16.95.06,1.29.86,1.4,1.69,2.21,2.49,2.62.29.37.58.66.87.95.01.01.02.02.04.03,1.1,1.14,2.19,1.88,3.25,2.19,0,0,.02,0,.03.01.39.09.78.18,1.17.19-3.15,5.61-7.08,9.4-11.05,10.24-.5-.01-1.02-.1-1.55-.24-.61-.43-1.24-.9-1.85-1.41-1.12-.96-1.14,2.71-.36,4.73,3.8,9.8,9.27,13.91,14.13,15.52.66.22,1.3.39,1.93.53-.31,1.98-.65,3.92-1.04,5.79-.25,1.21-.56,2.48-.88,3.78-.14.54-.29,1.1-.44,1.65-.19.72-.39,1.44-.6,2.17-.22.76-.45,1.53-.69,2.3-.14.45-.28.89-.43,1.34-1.89,5.8-4.26,11.58-6.8,15.94,0,0,0,.01-.01.02-.48.81-.96,1.59-1.44,2.31-.56.81-1.12,1.59-1.69,2.22-2.65.47-5.34.23-8.02-1.02-.22-.09-.42.62-.17,1.28.7,1.82,1.42,3.37,2.17,4.75.07.13.13.28.2.4,0,0,0,0,.01.02.59,1.05,1.19,1.94,1.79,2.74.12.16.24.31.37.46.59.73,1.18,1.38,1.78,1.9.01.01.03.03.04.04.61.52,1.23.92,1.85,1.25.14.08.29.15.43.21.61.28,1.23.51,1.84.63-1.99,1.58-4.01,2.99-6.05,4.37-.34.23-.03,1.63.29,1.75,3.98,1.46,8.7.88,12.91-2.35-.93,2.71-1.86,5.17-2.7,7.34-.46,1.17-.94,2.24-1.44,3.23-.04.08-.09.16-.13.24-.47.91-.95,1.76-1.46,2.54-.03.05-.06.09-.09.14-.65.99-1.33,1.86-2.03,2.64-.05.06-.1.12-.16.18-.73.79-1.49,1.48-2.27,2.05-.03.02-.06.03-.08.05-.7.51-1.42.91-2.15,1.26-.18.08-.35.17-.53.24-.77.32-1.55.58-2.35.74-1.14-.5-2.27-.96-3.41-1.36-.26-.08-.23.94-.02,1.41.05.12.1.19.16.31-.17.21-.11,1.03.12,1.36.61.96,1.22,1.78,1.83,2.52.43.79.85,1.43,1.28,2.13,0,0,.01.02.02.02,3.05,5.02,6.19,8.12,9.34,9.72.03.02.06.02.09.04.76.38,1.51.69,2.26.91.09.03.18.03.28.06.69.18,1.39.34,2.08.4.21.02.43,0,.64,0,.57.02,1.14.05,1.71,0,.79-.07,1.58-.21,2.36-.42-.52.69-1.06,1.29-1.61,1.84-.5.5-1.02.93-1.55,1.33-.05.03-.09.08-.14.11-1.45.2-2.88.53-4.28,1.03-.21.07-.35.38-.43.8-1.09-.19-2.16-.42-3.18-.72-.78-.24-.51,2.77.11,3.79,12.84,21.42,27.1,8.89,37.35-4.39.05,3.04.02,6.03.02,9.04,0,2.8.03,5.61,0,8.41-.07,5.11-.2,10.21-.4,15.34,0,.21.02.42.07.6,0,.02.01.03.02.05.08.29.2.47.3.43.05,0,.09-.05.12-.19.28-1.26.56-2.47.84-3.7.23-.88.45-1.84.67-2.77-.18,1.3-.34,2.62-.56,3.87-.1.57.26,1.34.39.83,3.49-14.08,7.04-26.41,8.8-43.61,1.95,9.14,4.09,17,7.03,25.01.22.63.49.06.27-.6-1.57-4.58-2.96-9.91-4.2-15.54.79,2.17,1.58,4.23,2.35,6.12,1.4,3.46,2.86,6.58,4.33,9.6,4.03,33.87,7.57,69.48,7.57,69.48,11.68,11.28,13.84-4.99,13.84-4.99-2.71-16.03-7.35-48.89-10.89-74.48,2.41,5.5,4.92,10.66,7.28,15.68.22.46.37-.26.16-.74-2.54-5.85-5.05-12.33-7.4-19.07,3.04,5.67,6.16,10.67,9.31,14.64.82,1.04,1.64,1.93,2.45,2.77.4.42.79.83,1.19,1.21.01.01.02.02.03.03.05.05.1.08.15.13,2.42,2.3,4.82,3.96,7.21,5.2.16.08.32.18.48.26.66.33,1.32.63,1.99.91.27.12.55.23.82.34.61.24,1.21.47,1.81.68.35.12.7.24,1.05.35.55.18,1.09.35,1.63.51.52.15,1.03.3,1.55.44,1.24.35,2.47.69,3.71,1.04.12.03.21-.01.3-.09.03-.03.05-.07.08-.11.05-.07.09-.16.12-.27.02-.06.04-.11.05-.18.03-.15.05-.33.06-.52,0-.04,0-.07,0-.11,0-.24,0-.5-.03-.76,0-.08-.02-.16-.03-.24-.02-.2-.05-.4-.08-.6-.01-.09-.03-.17-.05-.26-.04-.22-.1-.44-.16-.64-.01-.05-.02-.1-.04-.15,0,0,0,0,0,0-.02-.07-.05-.12-.07-.18-.15-.44-.34-.82-.55-1.01-.94-.82-1.87-1.56-2.8-2.26-.56-.44-1.13-.87-1.68-1.27-.89-.96-1.79-2.01-2.68-3.15-.08-.24-.18-.44-.3-.53-.17-.12-.33-.35-.49-.49-1.67-2.26-3.3-4.87-4.9-8.05-.14-.27-.29-.59-.44-.9,9.5,13.51,19.85,20.05,28.29,16.77.02,0,.03-.01.05-.02.73-.29,1.43-.65,2.13-1.09.06-.04.12-.08.19-.12.66-.43,1.31-.93,1.94-1.49.09-.08.17-.16.26-.24.61-.57,1.2-1.2,1.78-1.9.1-.12.19-.25.29-.37.56-.71,1.1-1.47,1.62-2.31.1-.16.2-.34.3-.51.51-.85,1.01-1.75,1.48-2.74.02-.05.05-.09.08-.14.43-.95.87-1.86,1.28-2.9.33-.85-.21-3.12-.68-2.58-.44.51-.9.87-1.36,1.31-.08-.07-.16-.16-.24-.17-.63-.18-1.27-.4-1.92-.66,0,0,0,0,0,0-5.69-2.19-11.65-7.45-17.33-16.06,1.34,1.13,2.67,2.2,4.02,3.31.65.55.54-1.99-.08-2.65-3.36-3.53-6.96-7.14-10.28-12.57,3.95,2.93,7.79,4.55,10.62,4.9,5.55.7,15.33,1.17,16.84-14.19.15-1.5-.72-3.34-1.12-2.42Z"
  />
  <path
    class="cls-1"
    d="M1613.57,1153.48c-.98,2.28-2.12,3.97-3.34,5.44-.22-1.39-.67-2.64-1.28-3.15h0c-.11-.07-.21-.2-.33-.24-.81-.21-1.65-.62-2.51-1.15-.17-.1-.35-.23-.53-.34-.83-.56-1.68-1.2-2.54-1.98-1.18-1.07-2.39-2.34-3.62-3.79,0,0-.01-.02-.02-.02-2.42-2.86-4.91-6.39-7.4-10.29-.05-.08-.1-.15-.15-.23-1.19-1.87-2.37-3.83-3.54-5.84-.14-.24-.28-.48-.42-.72-1.15-1.98-2.29-4-3.4-6.05-.04-.08-.08-.16-.12-.23-1.02-1.87-2.02-3.76-3.01-5.65-.28-.53-.56-1.06-.83-1.59-.9-1.75-1.79-3.48-2.66-5.19-.35-.69-.69-1.37-1.03-2.05-.84-1.68-1.68-3.36-2.47-4.95-3.29-6.63-6.44-13.44-9.51-20.45,5.73,5.85,11.41,8.87,17.19,13.7.7.6.76-2.19.07-3.13-7.48-10.06-15.01-13.14-22.44-24.3-.33-.5-.65-.92-.98-1.43-.23-.4-.46-.8-.69-1.17-1.22-3.04-2.44-6.08-3.64-9.21,11.81,6.24,23.28,4.49,32.83-4.28,1.28-1.16.22-7.61-1.26-7.55-.88.05-1.77.07-2.66.09.25-.17.5-.34.75-.55.2-.17.03-1.19-.2-1.19-.58-.02-1.17-.14-1.75-.2-.13-.15-.24-.38-.39-.42-10.89-2.99-22-14.91-32.88-31.89-1.17-1.8-2.35-3.78-3.53-5.78,4.75,1.52,9.29,1.39,13.51-.69,4.39-1.11,8.36-4.59,11.4-10.52,2.44-1.67,4.68-4.27,6.58-8.5.14-.34-.03-1.18-.24-1.18-2.33-.04-4.61.13-6.88.34-.21-1.58-.74-3.2-1.36-3.12-6.38,1.03-12.65-2.06-18.78-8.15-1.33-1.33-2.65-2.79-3.96-4.38-.03-.03-.06-.07-.08-.1-1.33-1.61-2.65-3.35-3.96-5.23-1.35-1.92-2.69-3.97-4.02-6.13-.02-.03-.03-.05-.05-.08-2.57-4.17-5.1-8.79-7.6-13.74-.21-.42-.43-.85-.64-1.28-1.18-2.37-2.35-4.79-3.51-7.3,9.38,11.7,17.76,17.21,25.51,8.46.63-.72-.03-3.79-.71-3.31-5.42,3.76-12.97-3.71-19.85-13.94,3.32,1.33,6.6,1.42,9.76.08.94-.39.5-4.49-.57-4.69-1.09-.2-2.18-.59-3.29-1.07-.52-.23-1.04-.54-1.56-.82-.54-.29-1.08-.6-1.62-.96-.7-.47-1.41-1-2.11-1.57-.31-.25-.61-.51-.92-.77-.84-.74-1.69-1.52-2.53-2.41-.08-.08-.16-.18-.24-.26-1.65-1.74-3.28-3.73-4.9-6.01,0,0-.01-.01-.02-.02-3.95-5.54-7.81-12.5-11.41-20.82-.81-2-1.64-3.97-2.46-5.88-.92-2.36-1.77-4.79-2.62-7.18,7.11,13.12,14.8,21.82,22.25,26.53,1.25.78,1.07-3.91-.14-5.16-7.38-7.5-14.67-20.22-21.21-35.35,6.64,7.14,13.22,10.38,19.96,9.64.13-.01.22-.15.29-.33.01-.03.02-.06.03-.1.12-.41.11-1.05,0-1.67,0-.01,0-.03,0-.04-.14-.78-.41-1.49-.76-1.53-.55-.03-1.11-.16-1.68-.34-.32-.1-.64-.26-.96-.4-.3-.13-.6-.25-.91-.42-.41-.23-.82-.51-1.23-.8-.18-.13-.37-.24-.55-.38-.46-.35-.92-.75-1.39-1.16-.13-.12-.27-.23-.4-.36-.51-.47-1.01-.99-1.53-1.53-.09-.1-.18-.19-.27-.28-.55-.6-1.1-1.23-1.65-1.9-.04-.05-.09-.11-.13-.16-1.2-1.47-2.4-3.1-3.61-4.87-5.8-8.53-11.58-20.07-16.42-30.58,3.09,4.45,6.06,7.45,8.75,8.46.35.12.32-1.32-.05-1.53-16.92-9.17-28.61-71.16-36.92-108.03-.18-.83-.43-1.49-.7-2.04-.03-.06-.06-.09-.09-.15-.25-.48-.51-.82-.78-1.04,0,0-.01-.02-.02-.03-.03-.02-.05-.02-.08-.03-.18-.13-.36-.24-.53-.23-.21-.01-.41.06-.57.26-.29-1.76-.57-3.48-.9-5.23-.1-.52-.22-.97-.34-1.34-.02-.04-.03-.07-.05-.11-.89-2.43-2.25-1.56-2.23,1.47.67,75.53-4.26,150.43-29.65,170.45-.03-.04-.06-.08-.09-.12-.63.5-1.22,1.13-1.88,1.57-.35.19-.15,1.61.17,2.18,7.64,13.27,16.2,2.33,22.61-12.66-.8,3.23-1.64,6.45-2.6,9.48-3.26,10.18-6.89,25.12-12.29,28.22-.06,0-.12.05-.19.06-.04,0-.05.1-.09.16h-.01s0,0-.01,0c-.07.09-.13.22-.16.4,0,.06,0,.12,0,.17-.06.7.1,1.72.48,2.01.81.64,1.66,1.21,2.55,1.72.01,0,.02.02.04.02.73.42,1.48.79,2.25,1.11.31.13.64.22.96.33.53.19,1.06.38,1.6.52.36.09.72.15,1.09.22.52.1,1.04.2,1.57.26.37.04.74.06,1.11.08.54.03,1.08.03,1.63.01.36-.01.72-.04,1.08-.08.57-.06,1.13-.15,1.7-.27.34-.07.68-.13,1.01-.22.62-.16,1.24-.38,1.85-.62.28-.11.55-.19.83-.31.88-.39,1.76-.85,2.61-1.4-1.18,12.31-3,23.38-6.61,33.2-1.03,2.83-2.08,5.66-3.15,8.44-.03.08-.06.16-.09.23-1.09,2.82-2.2,5.59-3.34,8.24-.65,1.52-1.32,2.99-2,4.42-.09.19-.18.39-.27.58-.59,1.22-1.2,2.39-1.81,3.53-.17.31-.33.64-.5.95-.57,1.03-1.17,1.98-1.77,2.92-.21.32-.4.67-.61.99-.8,1.19-1.62,2.3-2.46,3.31-1.39.31-2.73.62-3.91.95-.48.12-.4,1.76.08,2.62.42.72.87,1.36,1.31,2.02.08.78.25,1.54.47,2.15,0,.01,0,.03,0,.04,0,0,0,0,0,.02.11.3.23.53.36.72.04.05.07.13.1.18.16.18.34.26.52.19.27-.07.54-.25.8-.37.65.69,1.3,1.29,1.97,1.81.22.17.45.29.67.45.45.31.89.63,1.35.88.3.16.6.26.9.4.39.17.77.36,1.16.48.36.12.72.18,1.08.26.33.07.66.16.99.21.42.06.85.07,1.27.08.27,0,.53.03.8.02.5-.01.99-.07,1.49-.14.18-.03.37-.04.55-.07.59-.1,1.18-.25,1.76-.42.08-.02.16-.04.23-.06.93-.28,1.85-.61,2.77-1.04-1.52,5.42-3.26,10.43-5.38,13.74-2.1,1.39-4.45,1.98-7.15,1.47-.31-.04-.33,1.2-.04,1.8.1.19.21.32.3.51-.34-.04-.22,1.33.08,1.82,1.21,1.97,2.37,3.11,3.49,3.67.41.52.82.93,1.22,1.34.02.02.03.03.05.04,1.55,1.6,3.07,2.64,4.57,3.07.01,0,.02.01.04.02.55.13,1.09.25,1.64.26-4.42,7.88-9.94,13.19-15.51,14.38-.7-.01-1.43-.15-2.17-.33-.86-.6-1.74-1.26-2.6-1.98-1.57-1.34-1.6,3.81-.5,6.64,5.33,13.76,13.01,19.53,19.83,21.79.92.31,1.83.55,2.71.74-.44,2.78-.91,5.51-1.46,8.13-.36,1.7-.78,3.49-1.24,5.3-.19.76-.41,1.54-.62,2.32-.27,1.01-.55,2.02-.85,3.04-.31,1.07-.63,2.15-.97,3.23-.2.63-.4,1.25-.6,1.87-2.65,8.14-5.98,16.25-9.55,22.37,0,0,0,.02-.02.03-.67,1.14-1.35,2.23-2.03,3.24-.78,1.13-1.57,2.23-2.37,3.12-3.72.66-7.5.33-11.26-1.43-.31-.13-.59.87-.23,1.8.98,2.56,2,4.73,3.04,6.66.1.18.19.39.28.56,0,0,0,.01.01.02.82,1.47,1.66,2.73,2.52,3.85.17.23.34.44.51.65.83,1.02,1.66,1.94,2.5,2.66.02.02.04.04.06.06.86.74,1.73,1.29,2.6,1.75.2.11.4.21.6.3.86.4,1.73.72,2.59.88-2.79,2.21-5.64,4.2-8.5,6.14-.47.33-.04,2.29.4,2.46,5.59,2.05,12.22,1.24,18.12-3.29-1.31,3.8-2.61,7.25-3.79,10.31-.64,1.64-1.32,3.14-2.02,4.54-.06.12-.12.22-.18.34-.66,1.28-1.34,2.47-2.05,3.57-.04.07-.09.12-.13.19-.91,1.39-1.86,2.62-2.84,3.7-.07.08-.15.17-.22.25-1.03,1.11-2.09,2.07-3.18,2.88-.04.03-.08.05-.12.07-.98.71-2,1.28-3.02,1.76-.25.12-.49.23-.74.34-1.08.45-2.17.82-3.3,1.04-1.6-.7-3.19-1.35-4.79-1.9-.37-.12-.32,1.32-.03,1.97.07.16.14.27.22.43-.24.29-.15,1.44.16,1.92.86,1.35,1.72,2.5,2.57,3.54.6,1.11,1.2,2,1.8,2.99,0,.01.02.02.02.03,4.28,7.04,8.69,11.4,13.12,13.65.04.02.08.03.12.05,1.06.53,2.12.97,3.18,1.28.13.04.26.05.39.08.97.26,1.95.47,2.92.56.3.03.6,0,.9.01.8.03,1.61.07,2.4,0,1.11-.1,2.22-.3,3.31-.59-.73.96-1.49,1.81-2.27,2.59-.71.7-1.44,1.31-2.18,1.87-.06.05-.13.11-.19.16-2.04.29-4.05.74-6.02,1.45-.29.1-.49.53-.6,1.12-1.53-.26-3.03-.59-4.46-1.02-1.1-.34-.71,3.89.16,5.33,18.02,30.08,38.05,12.49,52.43-6.16.07,4.26.03,8.47.03,12.7,0,3.94.04,7.88-.01,11.81-.1,7.17-.27,14.34-.56,21.54-.01.3.03.59.1.85,0,.03.02.04.02.07.12.4.28.66.42.6.07,0,.13-.07.17-.27.39-1.76.79-3.46,1.18-5.2.33-1.24.63-2.58.95-3.89-.25,1.83-.48,3.68-.78,5.43-.13.8.36,1.89.54,1.17,4.9-19.78,9.88-37.08,12.35-61.23,2.73,12.83,5.74,23.86,9.88,35.12.31.88.69.08.39-.84-2.2-6.43-4.15-13.91-5.9-21.82,1.11,3.05,2.23,5.93,3.3,8.59,1.97,4.86,4.01,9.24,6.08,13.48,5.66,47.55,10.62,97.56,10.62,97.56,16.39,15.84,19.43-7,19.43-7-3.8-22.51-10.32-68.64-15.28-104.57,3.39,7.72,6.9,14.96,10.22,22.01.31.65.52-.36.22-1.04-3.57-8.21-7.09-17.32-10.39-26.77,4.26,7.97,8.65,14.98,13.07,20.55,1.15,1.46,2.3,2.71,3.44,3.89.56.59,1.11,1.16,1.67,1.7.01.01.03.03.04.05.07.07.14.12.21.18,3.4,3.23,6.77,5.56,10.12,7.31.22.12.45.25.67.36.93.47,1.86.88,2.79,1.28.38.16.77.33,1.15.48.85.34,1.7.66,2.55.95.49.17.99.33,1.48.49.77.25,1.53.5,2.3.72.72.22,1.45.42,2.17.62,1.74.49,3.47.96,5.2,1.47.17.05.3-.02.42-.12.04-.04.07-.1.11-.15.07-.1.12-.22.17-.38.02-.08.05-.16.07-.26.04-.22.07-.46.08-.73,0-.05.01-.09.01-.15,0-.33,0-.7-.04-1.07,0-.11-.02-.22-.04-.34-.03-.28-.07-.56-.11-.84-.02-.12-.04-.24-.06-.36-.06-.31-.14-.61-.22-.9-.02-.07-.03-.14-.06-.21,0,0,0,0,0,0-.03-.1-.07-.16-.1-.25-.22-.62-.47-1.15-.77-1.42-1.32-1.16-2.63-2.19-3.92-3.18-.79-.61-1.58-1.22-2.37-1.79-1.26-1.35-2.51-2.82-3.76-4.42-.11-.34-.25-.62-.42-.75-.23-.17-.46-.48-.69-.69-2.34-3.17-4.64-6.84-6.88-11.3-.2-.38-.41-.83-.61-1.27,13.34,18.96,27.87,28.15,39.72,23.54.02,0,.05-.02.07-.02,1.02-.4,2.01-.92,2.99-1.52.09-.05.17-.11.26-.16.93-.6,1.84-1.3,2.72-2.1.12-.11.24-.22.36-.33.85-.8,1.69-1.68,2.49-2.67.14-.17.27-.35.41-.52.78-1,1.55-2.07,2.28-3.25.14-.23.28-.48.42-.72.71-1.2,1.41-2.46,2.08-3.85.03-.07.07-.13.11-.2.61-1.33,1.23-2.6,1.8-4.07.46-1.19-.3-4.38-.95-3.63-.61.72-1.27,1.22-1.91,1.83-.11-.1-.22-.23-.34-.24-.89-.25-1.78-.56-2.69-.93,0,0,0,0-.01,0-7.99-3.07-16.36-10.46-24.33-22.54,1.88,1.59,3.75,3.09,5.64,4.65.92.77.76-2.79-.11-3.71-4.72-4.95-9.78-10.03-14.43-17.65,5.55,4.11,10.94,6.39,14.92,6.88,7.79.99,21.52,1.64,23.65-19.92.21-2.11-1.01-4.69-1.57-3.39Z"
  />
  <path
    class="cls-1"
    d="M1737.71,798.05c-.32-.82-.05-1.98.32-1.52.66.81,1.34,1.37,2.02,1.83-.05-.58.01-1.13.22-1.39.04-.04.07-.1.12-.13.33-.17.65-.42.97-.72.06-.06.13-.13.19-.19.3-.31.6-.65.89-1.06.4-.55.79-1.19,1.17-1.89,0,0,0,0,0-.01.75-1.4,1.46-3.07,2.12-4.89.01-.04.03-.07.04-.11.32-.87.62-1.78.92-2.71.03-.11.07-.22.1-.33.29-.91.57-1.84.84-2.78.01-.04.02-.07.03-.11.25-.86.48-1.72.71-2.58.06-.24.13-.48.19-.72.21-.79.41-1.58.61-2.35.08-.31.16-.62.23-.93.19-.76.38-1.52.55-2.24.73-3,1.38-6.06,1.97-9.18-1.87,2.94-4.01,4.74-6.01,7.28-.24.31-.56-.8-.36-1.25,2.18-4.81,5.13-6.83,7.17-12.08.09-.24.19-.44.27-.67.06-.18.12-.37.18-.54.21-1.35.42-2.69.61-4.07-4.46,3.73-9.62,4.22-14.68,1.7-.68-.33-.89-3.03-.25-3.15.39-.07.78-.16,1.16-.24-.13-.04-.25-.08-.38-.14-.1-.05-.14-.47-.04-.5.25-.07.49-.18.74-.26.04-.07.06-.18.12-.21,4.41-2.33,7.97-8.27,10.9-16.21.32-.84.62-1.76.92-2.68-1.9,1.1-3.88,1.53-5.93,1.13-2.02.01-4.11-.97-6.05-3.03-1.23-.42-2.48-1.22-3.75-2.72-.1-.12-.11-.48-.02-.5,1.01-.26,2.01-.43,3.02-.58-.08-.65-.01-1.36.26-1.39,2.87-.25,5.27-2.15,7.28-5.22.44-.67.85-1.39,1.26-2.17,0-.02.02-.03.03-.05.41-.78.79-1.62,1.17-2.51.38-.91.75-1.87,1.1-2.87,0-.01,0-.02.01-.04.33-.95.65-1.95.95-2.98-.34.02-.69.03-1.04,0,0,0-.02,0-.02,0-.34-.04-.69-.11-1.04-.21-.03,0-.06-.02-.09-.03-.33-.1-.66-.23-1-.4-.03-.02-.07-.03-.1-.05-1.51.81-3.17.76-5.08-.44-.35-.22-.39-1.52-.04-1.4.8.27,1.57.14,2.32-.29-.14-.14-.28-.29-.43-.45-.02-.02-.03-.03-.05-.05-.29-.33-.57-.65-.86-1.03-.23-.31-.24-1.27.02-1.11.24.16.48.25.73.38.03-.04.05-.08.09-.09.25-.14.51-.29.76-.46,0,0,0,0,0,0,1.36-.9,2.65-2.27,3.8-4.11-1.09.56-2.25.78-3.48.61-.45-.06-.69-1.75-.25-1.94.45-.2.89-.46,1.31-.77.2-.15.39-.32.59-.49.2-.17.41-.35.6-.55.26-.26.51-.55.75-.85.11-.13.21-.27.32-.41.29-.39.57-.79.85-1.23.03-.04.05-.09.08-.13.43-.7.83-1.47,1.22-2.31-.91.76-1.8,1.3-2.56,1.58-2.33.86-6.52,2.06-8.8-3.93-.22-.59-.04-1.41.23-1.08.47.58.95.98,1.44,1.31-.04-.41,0-.8.16-.99.03-.03.05-.07.08-.09.24-.12.46-.3.69-.51.05-.04.09-.09.14-.14.22-.22.43-.47.64-.75.29-.39.56-.85.83-1.35,0,0,0,0,0,0,.53-1,1.04-2.19,1.51-3.49,0-.03.02-.05.03-.08.23-.62.44-1.27.66-1.93.03-.08.05-.16.07-.24.21-.65.41-1.31.6-1.98,0-.02.01-.05.02-.08.17-.61.34-1.22.51-1.83.04-.14.08-.28.11-.42-.64.26-1.31.44-2,.54-.06,0-.11-.04-.16-.1,0-.01-.02-.02-.02-.04-.09-.15-.16-.41-.18-.67,0,0,0-.01,0-.02-.02-.33.02-.64.17-.69.23-.07.46-.18.69-.31.13-.07.25-.17.37-.26.12-.08.24-.16.35-.26.15-.13.3-.29.45-.45.07-.07.13-.13.2-.21.16-.19.32-.4.48-.61.05-.06.09-.12.14-.18.17-.24.34-.5.5-.77.01-.02.03-.05.04-.07.51-2.11.97-4.26,1.39-6.46-1.33,2.09-2.86,3.38-4.28,5.18-.17.22-.4-.57-.26-.89,1.55-3.43,3.65-4.86,5.11-8.6.06-.17.13-.31.2-.48.04-.13.08-.26.13-.39.08-.52.16-1.04.23-1.56-.06-.16-.09-.42,0-.5.03-.03.06-.06.09-.09.04-.25.08-.5.11-.75-3.18,2.66-6.85,3.01-10.46,1.21-.48-.24-.64-2.16-.18-2.25.27-.05.55-.11.83-.17-.09-.03-.18-.06-.27-.1-.07-.03-.1-.34-.03-.35.18-.05.35-.13.53-.19.03-.05.05-.13.09-.15,3.14-1.66,5.68-5.89,7.76-11.54.23-.6.44-1.25.66-1.91-1.35.79-2.77,1.09-4.22.81-1.44,0-2.93-.69-4.31-2.16-.88-.3-1.77-.87-2.67-1.94-.07-.09-.08-.34-.01-.35.72-.19,1.43-.3,2.15-.42-.05-.47,0-.97.19-.99,2.05-.18,3.75-1.53,5.19-3.72.31-.48.61-.99.89-1.54,0-.01.01-.02.02-.04.29-.56.57-1.15.83-1.79.27-.65.53-1.33.78-2.05,0,0,0-.02,0-.03.48-1.38.92-2.89,1.32-4.48.03-.14.07-.28.1-.41.19-.76.37-1.54.54-2.34-2.02,4.03-4.19,6.23-7.24,4.31-.25-.16-.28-1.08-.03-1,1.96.67,3.73-2.02,5.08-5.45-.93.62-1.93.89-3.01.75-.32-.04-.49-1.24-.18-1.38.32-.14.63-.33.93-.55.14-.1.28-.23.42-.35.14-.12.29-.25.43-.39.18-.19.36-.39.54-.61.08-.09.15-.19.22-.29.21-.27.41-.56.6-.87.02-.03.04-.06.05-.09.38-.62.73-1.31,1.06-2.08,0,0,0,0,0,0,.81-1.87,1.47-4.15,1.96-6.79.1-.63.21-1.25.32-1.86.11-.74.19-1.5.27-2.24-1.21,4.27-2.93,7.33-4.88,9.22-.33.32-.62-1.04-.34-1.48,1.72-2.69,3.01-6.86,3.9-11.66-1.52,2.53-3.3,3.94-5.44,4.23-.04,0-.08-.03-.11-.07,0,0-.01-.02-.02-.03-.07-.11-.11-.29-.13-.48,0,0,0,0,0-.01-.02-.23.01-.46.12-.49.17-.05.33-.13.49-.22.09-.05.18-.12.27-.19.08-.06.17-.11.25-.19.11-.09.21-.21.32-.32.05-.05.1-.09.14-.15.12-.13.23-.28.34-.44.03-.04.07-.09.1-.13.12-.17.24-.36.36-.55.02-.03.04-.07.06-.1.12-.21.25-.43.37-.67,0-.02.02-.04.03-.06.26-.51.51-1.06.75-1.66,1.15-2.87,2.07-6.59,2.78-9.95-.62,1.5-1.31,2.58-2.07,3.06-.1.06-.2-.35-.1-.44,4.54-3.87,3.5-22.43,3.3-33.57,0-.25.02-.46.06-.63,0-.02.01-.03.02-.05.04-.16.1-.27.16-.36,0,0,0,0,0,0,0,0,.01,0,.02-.02.05-.05.09-.09.15-.11.06-.02.13-.01.2.03-.04-.52-.08-1.04-.11-1.56,0-.16,0-.29,0-.41,0-.01,0-.02,0-.03.09-.76.58-.61.8.25,5.45,21.6,12.59,42.62,21.93,46.45,0-.01.01-.03.02-.04.23.09.46.23.7.31.12.03.17.45.11.63-1.36,4.36-4.83,1.87-7.93-1.94.49.86.99,1.72,1.51,2.51,1.77,2.66,4.01,6.66,5.91,7.14.02,0,.04,0,.06,0,.01,0,.02.02.04.04h0s0,0,0,0c.03.02.06.05.08.1,0,.02,0,.03.01.05.07.2.1.5,0,.61-.2.24-.42.47-.66.68,0,0,0,0,0,0-.19.17-.4.33-.61.48-.09.06-.18.11-.27.17-.15.09-.3.19-.45.27-.1.05-.21.1-.32.14-.15.07-.31.13-.47.19-.11.04-.22.07-.34.1-.16.05-.33.09-.5.12-.11.02-.23.04-.34.06-.18.03-.36.04-.55.05-.11,0-.22.01-.33.01-.2,0-.41-.02-.62-.04-.09,0-.18-.01-.28-.03-.3-.05-.61-.11-.91-.21,1.29,3.43,2.68,6.45,4.53,8.99.53.73,1.07,1.46,1.61,2.18.01.02.03.04.04.06.55.73,1.1,1.43,1.65,2.1.32.39.63.75.95,1.11.04.05.08.1.13.14.27.31.55.59.82.87.08.08.15.16.23.23.25.25.51.48.76.7.09.08.18.16.26.24.34.28.67.54,1.01.76.45-.02.89-.03,1.28-.02.16,0,.26.47.17.75-.08.24-.17.45-.25.67.03.23.04.46.02.65,0,0,0,0,0,.01,0,0,0,0,0,0-.01.09-.03.17-.06.23,0,.02-.01.04-.02.06-.04.06-.08.1-.15.09-.09,0-.19-.03-.28-.05-.15.25-.31.47-.47.66-.06.07-.12.12-.17.18-.11.12-.23.25-.35.35-.08.07-.17.12-.25.18-.11.08-.21.16-.32.22-.1.06-.21.1-.31.15-.1.05-.19.1-.29.13-.13.05-.26.08-.39.12-.08.02-.16.05-.25.07-.15.03-.31.05-.47.07-.06,0-.12.02-.18.02-.19.01-.38.02-.58.01-.03,0-.05,0-.08,0-.31-.01-.62-.04-.93-.09.88,1.43,1.79,2.74,2.69,3.52.75.24,1.52.24,2.32-.11.09-.03.19.32.15.51-.02.06-.04.11-.06.17.1-.04.17.36.11.52-.22.65-.5,1.06-.8,1.31-.09.18-.18.33-.28.47,0,0,0,0-.01.02-.36.57-.75.98-1.18,1.22,0,0,0,0,0,0-.16.08-.32.15-.49.2,1.96,1.92,4.06,3.03,5.87,2.95.22-.06.43-.15.65-.26.22-.24.44-.49.65-.76.38-.5.78.97.65,1.86-.61,4.32-2.55,6.54-4.49,7.69-.26.16-.52.29-.78.41.34.76.69,1.5,1.06,2.21.24.46.5.94.78,1.42.12.2.24.41.36.62.16.27.32.54.49.81.18.28.36.57.54.85.11.16.22.33.33.49,1.43,2.13,3.06,4.2,4.63,5.68,0,0,0,0,0,0,.29.28.58.54.87.77.33.26.65.52.96.71,1.2-.09,2.34-.46,3.37-1.24.09-.06.25.2.21.5-.11.8-.26,1.5-.44,2.13-.02.06-.03.13-.05.18,0,0,0,0,0,0-.14.48-.31.9-.49,1.29-.04.08-.07.15-.11.22-.18.35-.37.68-.57.95,0,0,0,.01-.01.02-.21.27-.44.5-.67.69-.05.05-.11.09-.16.13-.24.18-.48.33-.73.44,1.03.42,2.05.78,3.08,1.12.17.06.18.65.06.73-1.57,1-3.68,1.26-5.84.4.69.99,1.35,1.88,1.94,2.66.32.42.64.8.96,1.15.03.03.05.05.08.08.3.32.6.61.9.87.02.02.04.03.05.04.39.33.77.61,1.16.85.03.02.06.04.09.06.4.24.8.44,1.2.59.01,0,.03,0,.04.01.36.13.71.22,1.07.28.09.01.17.03.25.04.37.05.73.07,1.1.05.44-.32.88-.62,1.34-.9.1-.06.2.35.16.56,0,.05-.02.09-.04.14.1.07.16.4.09.56-.17.45-.34.84-.53,1.2-.1.36-.22.66-.33.99,0,0,0,0,0,.01-.79,2.33-1.83,3.9-3.03,4.87-.01,0-.02.02-.03.02-.29.23-.58.43-.89.6-.04.02-.08.03-.11.05-.28.15-.57.28-.86.38-.09.03-.19.04-.28.07-.25.07-.49.14-.74.18-.35.05-.71.08-1.07.08.3.22.6.41.89.57.27.15.54.27.81.37.02,0,.05.02.07.03.65-.07,1.3-.09,1.97-.03.1,0,.19.11.27.28.45-.19.89-.39,1.3-.62.31-.18.51,1.06.35,1.53-3.31,9.92-10.81,6.39-16.65,2.13.15.61.31,1.22.47,1.83,1.11,2.31,2.32,4.45,3.73,6.38.75,1.03,1.5,2.05,2.25,3.05.02.03.04.06.06.08.77,1.02,1.54,2.01,2.32,2.95.44.54.89,1.06,1.33,1.56.06.07.12.14.18.2.38.43.77.83,1.16,1.22.11.11.21.22.32.33.36.35.71.67,1.07.99.12.11.25.23.37.33.47.39.94.75,1.42,1.07.64-.02,1.25-.04,1.79-.03.22,0,.36.66.24,1.06-.11.33-.23.63-.36.94.05.32.05.64.02.91,0,0,0,.01,0,.02,0,0,0,0,0,0-.02.13-.04.24-.08.33,0,.03-.01.06-.03.08-.05.09-.12.14-.21.13-.12,0-.26-.04-.39-.06-.21.34-.43.65-.66.93-.08.09-.16.17-.25.25-.16.17-.32.35-.49.49-.11.09-.23.17-.35.25-.15.11-.3.22-.45.31-.14.08-.29.15-.44.22-.14.06-.27.13-.41.19-.18.07-.36.11-.54.16-.11.03-.23.07-.34.09-.22.05-.44.07-.66.1-.08,0-.16.02-.25.03-.27.02-.54.02-.81.02-.04,0-.07,0-.11,0-.43-.02-.87-.05-1.31-.13,1.23,2.01,2.51,3.84,3.78,4.94,1.06.34,2.14.33,3.25-.16.13-.05.27.45.21.72-.02.09-.06.15-.08.23.14-.05.24.51.16.74-.32.91-.7,1.49-1.13,1.84-.12.25-.26.46-.39.66,0,0-.01.01-.02.02-.5.8-1.06,1.38-1.66,1.71,0,0,0,0-.01.01-.22.11-.45.21-.68.28,2.75,2.7,5.7,4.25,8.24,4.14.3-.08.6-.21.91-.36.31-.33.62-.69.92-1.06.54-.7,1.09,1.36.91,2.61-.86,6.07-3.58,9.18-6.31,10.8-.37.22-.73.41-1.1.58.48,1.07.97,2.11,1.49,3.11.33.64.71,1.32,1.1,2,.16.29.34.58.51.87.22.38.45.75.69,1.13.25.4.5.79.76,1.19.15.23.3.46.46.69,2.01,2.99,4.3,5.89,6.5,7.97,0,0,0,0,0,0,.41.39.82.75,1.22,1.09.46.37.92.73,1.35,1,1.68-.12,3.28-.65,4.73-1.75.12-.08.35.29.29.7-.16,1.13-.37,2.1-.62,2.99-.02.08-.04.18-.06.26,0,0,0,0,0,0-.2.68-.43,1.27-.69,1.81-.05.11-.1.21-.15.31-.25.5-.52.95-.81,1.33,0,0-.01.02-.02.03-.3.39-.61.7-.94.97-.08.06-.15.12-.23.18-.33.25-.67.47-1.03.62,1.44.6,2.89,1.1,4.33,1.57.24.08.26.91.08,1.03-2.21,1.4-5.17,1.77-8.2.57.97,1.39,1.9,2.63,2.73,3.74.45.59.9,1.12,1.35,1.61.04.04.08.07.11.12.42.44.84.85,1.26,1.22.03.02.05.04.08.06.54.46,1.08.85,1.62,1.19.04.03.08.05.12.08.56.34,1.12.61,1.68.82.02,0,.04.01.06.02.5.18,1,.3,1.5.39.12.02.24.04.36.06.52.07,1.03.1,1.54.07.62-.45,1.24-.87,1.88-1.26.15-.09.28.5.22.79-.01.07-.03.12-.05.2.14.09.22.56.13.78-.23.63-.48,1.18-.74,1.69-.14.51-.31.93-.47,1.38,0,0,0,.01,0,.02-1.11,3.27-2.57,5.47-4.25,6.84-.02.01-.03.02-.05.03-.4.32-.82.61-1.24.84-.05.03-.11.05-.16.07-.39.2-.79.39-1.21.53-.13.04-.26.06-.39.1-.34.1-.69.2-1.04.25-.49.08-.99.11-1.5.11.42.31.84.57,1.25.8.38.21.76.38,1.14.52.03.01.07.03.1.04.91-.1,1.83-.13,2.76-.05.14,0,.27.16.38.39.64-.26,1.25-.55,1.83-.87.44-.25.72,1.48.49,2.15-4.65,13.93-15.18,8.97-23.38,2.99.42,1.72.88,3.4,1.32,5.09.41,1.58.81,3.16,1.25,4.73.8,2.86,1.63,5.72,2.51,8.57.04.12.05.24.05.35,0,.01,0,.02,0,.03,0,.17-.05.3-.12.29-.03,0-.06-.02-.1-.09-.36-.67-.71-1.31-1.06-1.96-.27-.46-.55-.97-.82-1.46.3.71.6,1.42.91,2.09.14.31.04.79-.11.53-4.21-7.41-8.19-13.83-11.8-23.25.16,5.43.02,10.16-.59,15.1-.04.39-.29.1-.26-.3.28-2.8.34-6.01.26-9.36-.16,1.34-.34,2.61-.53,3.79-.34,2.15-.77,4.12-1.22,6.04,2.55,19.64,5.66,40.2,5.66,40.2-5.44,8.05-9.16-.78-9.16-.78-.72-9.42-2.75-28.58-4.38-43.5-.66,3.45-1.42,6.72-2.11,9.88-.07.29-.26-.09-.21-.39.68-3.66,1.25-7.68,1.69-11.81-1.01,3.64-2.17,6.9-3.5,9.6-.34.71-.71,1.33-1.08,1.92-.18.29-.36.58-.55.85,0,0,0,.02-.01.02-.02.03-.05.06-.07.09-1.13,1.65-2.35,2.93-3.62,3.98-.08.07-.17.15-.25.22-.35.28-.71.55-1.07.8-.15.11-.3.21-.45.31-.33.22-.67.44-1,.65-.2.12-.39.24-.59.35-.31.18-.61.36-.92.53-.29.16-.58.32-.88.48-.7.38-1.4.75-2.1,1.13-.07.04-.13.03-.19,0-.02-.01-.04-.03-.06-.05-.04-.03-.08-.08-.11-.13-.02-.03-.04-.06-.06-.1-.04-.08-.08-.18-.11-.28,0-.02-.01-.04-.02-.06-.04-.13-.07-.28-.1-.43,0-.05-.01-.09-.02-.14-.02-.12-.03-.23-.04-.35,0-.05,0-.1,0-.15,0-.13,0-.26,0-.38,0-.03,0-.06,0-.09,0,0,0,0,0,0,0-.04.01-.07.02-.11.03-.27.08-.51.19-.65.45-.6.91-1.15,1.37-1.68.28-.33.56-.65.84-.96.4-.67.79-1.39,1.16-2.16.01-.15.04-.28.1-.34.08-.09.15-.24.23-.35.68-1.51,1.29-3.22,1.79-5.24.05-.17.09-.37.13-.57-3.79,8.99-9.12,14.18-14.74,13.57-.01,0-.02,0-.03,0-.48-.05-.97-.16-1.46-.3-.04-.01-.09-.02-.13-.04-.47-.14-.93-.33-1.4-.56-.06-.03-.13-.06-.19-.1-.45-.23-.91-.5-1.36-.81-.08-.05-.15-.11-.23-.17-.44-.32-.89-.67-1.33-1.06-.09-.08-.17-.16-.26-.24-.44-.41-.87-.84-1.3-1.33-.02-.02-.04-.04-.07-.07-.4-.47-.81-.92-1.21-1.44-.33-.43-.33-1.79.03-1.55.34.23.68.36,1.02.54.04-.05.07-.12.12-.13.36-.19.71-.41,1.07-.65,0,0,0,0,0,0,3.14-2.06,5.99-5.9,8.18-11.57-.65.83-1.3,1.63-1.96,2.45-.32.4-.62-1.04-.34-1.5,1.52-2.48,3.18-5.04,4.4-8.57-1.97,2.23-4.07,3.7-5.74,4.31-3.27,1.21-9.16,2.9-12.35-5.52Z"
  />
  <path
    class="cls-1"
    d="M1784.95,682.59c-.25-.64-.04-1.55.25-1.19.52.63,1.04,1.07,1.58,1.43-.04-.45.01-.88.17-1.09.03-.03.05-.08.09-.1.26-.13.51-.33.76-.56.05-.05.1-.1.15-.15.24-.24.47-.51.7-.83.31-.43.62-.93.91-1.48,0,0,0,0,0,0,.59-1.09,1.14-2.4,1.66-3.83.01-.03.02-.06.03-.08.25-.68.49-1.39.72-2.12.03-.09.05-.17.08-.26.23-.71.45-1.44.66-2.17,0-.03.02-.06.02-.08.19-.67.38-1.34.55-2.01.05-.19.1-.38.15-.57.16-.62.32-1.24.47-1.84.06-.25.12-.49.18-.73.15-.59.29-1.19.43-1.75.57-2.34,1.08-4.74,1.54-7.18-1.46,2.3-3.14,3.71-4.7,5.69-.19.24-.44-.62-.28-.98,1.71-3.76,4.01-5.34,5.61-9.44.07-.18.14-.34.21-.53.05-.14.09-.29.14-.42.16-1.05.33-2.1.48-3.18-3.49,2.92-7.52,3.3-11.48,1.33-.53-.26-.7-2.37-.19-2.47.3-.06.61-.12.91-.19-.1-.03-.2-.06-.3-.11-.08-.04-.11-.37-.03-.39.2-.05.38-.14.58-.21.03-.06.05-.14.1-.16,3.44-1.82,6.23-6.46,8.52-12.67.25-.66.49-1.38.72-2.1-1.48.86-3.03,1.19-4.63.88-1.58.01-3.21-.76-4.73-2.37-.96-.33-1.94-.96-2.93-2.13-.08-.09-.09-.37-.01-.39.79-.2,1.57-.33,2.36-.46-.06-.51-.01-1.06.21-1.09,2.25-.2,4.12-1.68,5.69-4.08.34-.52.67-1.09.98-1.69,0-.01.01-.03.02-.04.32-.61.62-1.27.91-1.96.3-.71.58-1.46.86-2.25,0,0,0-.02.01-.03.26-.75.51-1.52.74-2.33-.27.02-.54.02-.81,0,0,0-.01,0-.02,0-.27-.03-.54-.09-.81-.17-.02,0-.05-.01-.07-.02-.26-.08-.52-.18-.78-.31-.03-.01-.05-.03-.08-.04-1.18.63-2.48.6-3.97-.34-.27-.18-.3-1.19-.03-1.1.62.21,1.23.11,1.81-.23-.11-.11-.22-.23-.33-.35-.01-.01-.02-.02-.04-.04-.23-.26-.45-.51-.67-.8-.18-.24-.18-.99.02-.86.19.13.38.2.57.3.02-.03.04-.06.07-.07.2-.11.4-.23.6-.36,0,0,0,0,0,0,1.07-.7,2.07-1.77,2.97-3.22-.85.44-1.76.61-2.72.48-.35-.05-.54-1.37-.19-1.52.35-.15.69-.36,1.03-.6.16-.11.31-.25.46-.39.16-.14.32-.28.47-.43.2-.21.4-.43.59-.66.08-.1.17-.21.25-.32.23-.3.45-.61.66-.96.02-.03.04-.07.06-.1.33-.55.65-1.15.95-1.8-.71.6-1.4,1.01-2,1.23-1.82.67-5.1,1.61-6.88-3.07-.18-.46-.03-1.1.18-.85.37.45.74.76,1.12,1.02-.03-.32,0-.63.12-.78.02-.02.04-.06.07-.07.18-.09.36-.24.54-.4.04-.03.07-.07.11-.11.17-.17.33-.36.5-.59.22-.31.44-.66.65-1.05,0,0,0,0,0,0,.42-.78.81-1.71,1.18-2.72,0-.02.01-.04.02-.06.18-.49.35-.99.51-1.51.02-.06.04-.12.06-.18.16-.51.32-1.03.47-1.55,0-.02.01-.04.02-.06.14-.48.27-.96.39-1.43.03-.11.06-.22.09-.33-.5.2-1.02.35-1.56.42-.05,0-.09-.03-.13-.08,0,0-.01-.02-.02-.03-.07-.12-.12-.32-.14-.52,0,0,0,0,0-.01-.02-.26.02-.5.13-.54.18-.06.36-.14.54-.24.1-.06.2-.13.29-.2.09-.07.18-.13.27-.2.12-.1.23-.23.35-.35.05-.06.1-.1.16-.16.13-.15.25-.31.38-.48.04-.05.07-.09.11-.14.13-.19.26-.39.39-.6.01-.02.02-.04.03-.05.4-1.65.76-3.33,1.08-5.05-1.04,1.64-2.23,2.64-3.35,4.05-.13.17-.31-.44-.2-.69,1.22-2.68,2.85-3.8,3.99-6.72.05-.13.1-.24.15-.38.03-.1.06-.21.1-.3.06-.4.12-.81.18-1.22-.05-.12-.07-.33,0-.39.02-.02.05-.05.07-.07.03-.2.06-.39.09-.59-2.49,2.08-5.36,2.35-8.17.95-.38-.18-.5-1.69-.14-1.76.21-.04.43-.09.65-.13-.07-.02-.14-.05-.21-.08-.06-.03-.08-.26-.02-.28.14-.04.27-.1.41-.15.02-.04.04-.1.07-.12,2.45-1.3,4.44-4.6,6.07-9.02.18-.47.35-.98.51-1.49-1.06.61-2.16.85-3.3.63-1.12,0-2.29-.54-3.37-1.69-.69-.23-1.38-.68-2.09-1.51-.05-.07-.06-.27-.01-.28.56-.14,1.12-.24,1.68-.32-.04-.36,0-.76.15-.77,1.6-.14,2.93-1.19,4.06-2.91.24-.37.48-.78.7-1.21,0,0,0-.02.01-.03.23-.44.44-.9.65-1.4.21-.51.42-1.04.61-1.6,0,0,0-.01,0-.02.38-1.08.72-2.26,1.03-3.51.03-.11.05-.22.08-.32.15-.6.29-1.2.42-1.83-1.58,3.15-3.28,4.87-5.66,3.37-.19-.12-.22-.85-.02-.78,1.53.53,2.91-1.58,3.97-4.26-.72.49-1.51.7-2.35.58-.25-.03-.38-.97-.14-1.08.25-.11.49-.26.73-.43.11-.08.22-.18.33-.27.11-.1.23-.2.34-.31.14-.15.28-.3.42-.47.06-.07.12-.15.18-.23.16-.21.32-.44.47-.68.01-.02.03-.05.04-.07.3-.48.57-1.02.83-1.63,0,0,0,0,0,0,.63-1.46,1.15-3.24,1.53-5.31.08-.49.16-.98.25-1.45.08-.58.15-1.17.21-1.75-.95,3.34-2.29,5.73-3.82,7.21-.26.25-.49-.81-.27-1.16,1.34-2.1,2.36-5.36,3.05-9.12-1.19,1.98-2.58,3.08-4.25,3.31-.03,0-.06-.02-.09-.06,0,0,0-.01-.01-.02-.05-.09-.09-.23-.1-.37,0,0,0,0,0,0-.01-.18.01-.36.09-.39.13-.04.26-.1.38-.17.07-.04.14-.09.21-.15.07-.05.13-.09.19-.15.08-.07.17-.16.25-.25.04-.04.07-.07.11-.12.09-.1.18-.22.27-.34.03-.03.05-.07.08-.1.09-.13.19-.28.28-.43.02-.03.03-.05.05-.08.1-.17.19-.34.29-.52,0-.01.02-.03.02-.04.2-.4.4-.83.59-1.29.9-2.24,1.62-5.15,2.17-7.78-.48,1.17-1.03,2.01-1.62,2.4-.08.05-.16-.28-.08-.34,3.55-3.03,2.74-17.53,2.58-26.24,0-.2.02-.36.05-.49,0-.01,0-.02.01-.04.03-.12.08-.21.13-.28,0,0,0,0,0,0,0,0,.01,0,.02-.01.04-.04.07-.07.11-.08.05-.02.1,0,.15.03-.03-.41-.07-.81-.09-1.22,0-.12,0-.23,0-.32,0-.01,0-.02,0-.03.07-.59.45-.48.62.2,4.26,16.89,9.84,33.31,17.14,36.31,0-.01,0-.02.02-.03.18.07.36.18.54.24.1.02.13.35.09.5-1.07,3.4-3.77,1.46-6.2-1.51.38.68.77,1.34,1.18,1.96,1.38,2.08,3.14,5.2,4.62,5.58.02,0,.03,0,.05,0,0,0,.02.02.03.03h0s0,0,0,0c.02.02.04.04.06.08,0,.01,0,.03.01.04.06.15.08.39,0,.48-.16.19-.33.37-.51.53,0,0,0,0,0,0-.15.14-.31.26-.48.38-.07.05-.14.09-.21.13-.12.07-.23.15-.36.21-.08.04-.17.08-.25.11-.12.05-.24.11-.36.15-.09.03-.17.06-.26.08-.13.04-.26.07-.39.1-.09.02-.18.03-.27.05-.14.02-.28.03-.43.04-.09,0-.17.01-.26.01-.16,0-.32-.01-.48-.03-.07,0-.14,0-.22-.02-.24-.04-.47-.09-.71-.16,1.01,2.68,2.09,5.04,3.54,7.02.42.57.83,1.14,1.25,1.7.01.02.02.03.03.05.43.57.86,1.12,1.29,1.65.25.3.49.59.74.87.03.04.07.08.1.11.21.24.43.46.64.68.06.06.12.12.18.18.2.2.4.37.6.55.07.06.14.13.21.18.26.22.53.42.79.59.35-.01.7-.02,1-.01.12,0,.2.37.13.59-.06.19-.13.35-.2.53.03.18.03.36.01.51,0,0,0,0,0,0,0,0,0,0,0,0,0,.07-.02.13-.05.18,0,.01,0,.03-.01.05-.03.05-.07.08-.11.07-.07,0-.14-.02-.22-.04-.12.19-.24.36-.37.52-.04.05-.09.09-.14.14-.09.1-.18.19-.27.27-.06.05-.13.09-.19.14-.08.06-.17.12-.25.17-.08.05-.16.08-.25.12-.08.04-.15.08-.23.1-.1.04-.2.06-.3.09-.06.02-.13.04-.19.05-.12.03-.24.04-.37.06-.05,0-.09.01-.14.02-.15.01-.3.01-.45,0-.02,0-.04,0-.06,0-.24,0-.48-.03-.73-.07.69,1.12,1.4,2.14,2.1,2.75.59.19,1.19.18,1.81-.09.07-.03.15.25.12.4-.01.05-.03.08-.04.13.08-.03.13.28.09.41-.18.51-.39.83-.63,1.02-.07.14-.14.25-.22.37,0,0,0,0,0,.01-.28.45-.59.77-.92.95,0,0,0,0,0,0-.12.06-.25.12-.38.15,1.53,1.5,3.17,2.37,4.59,2.31.17-.04.34-.12.5-.2.17-.18.35-.38.51-.59.3-.39.61.76.51,1.45-.48,3.38-2,5.11-3.51,6.01-.2.12-.41.23-.61.32.27.6.54,1.18.83,1.73.19.36.39.73.61,1.11.09.16.19.32.29.48.12.21.25.42.38.63.14.22.28.44.42.66.08.13.17.26.26.38,1.12,1.66,2.39,3.28,3.62,4.44,0,0,0,0,0,0,.23.22.46.42.68.61.26.21.51.41.75.56.94-.07,1.83-.36,2.63-.97.07-.05.19.16.16.39-.09.63-.21,1.17-.34,1.66-.01.05-.02.1-.04.14,0,0,0,0,0,0-.11.38-.24.71-.38,1.01-.03.06-.06.12-.09.18-.14.28-.29.53-.45.74,0,0,0,.01-.01.02-.16.21-.34.39-.53.54-.04.04-.09.07-.13.1-.19.14-.37.26-.57.35.8.33,1.61.61,2.41.88.13.05.14.51.05.57-1.23.78-2.88.98-4.57.32.54.77,1.06,1.47,1.52,2.08.25.33.5.63.75.9.02.02.04.04.06.06.23.25.47.47.7.68.01.01.03.02.04.03.3.26.6.48.9.66.02.01.05.03.07.04.31.19.63.34.94.46.01,0,.02,0,.03.01.28.1.56.17.83.22.07.01.13.02.2.03.29.04.57.06.86.04.35-.25.69-.49,1.05-.7.08-.05.16.28.12.44,0,.04-.02.07-.03.11.08.05.12.31.07.44-.13.35-.27.66-.41.94-.08.28-.17.52-.26.77,0,0,0,0,0,0-.62,1.82-1.43,3.05-2.37,3.81,0,0-.02.01-.03.02-.23.18-.45.34-.69.47-.03.02-.06.03-.09.04-.22.11-.44.22-.67.29-.07.02-.15.03-.22.05-.19.05-.38.11-.58.14-.27.04-.55.06-.83.06.23.17.47.32.7.45.21.12.42.21.64.29.02,0,.04.02.06.02.51-.05,1.02-.07,1.54-.03.08,0,.15.09.21.22.35-.15.7-.31,1.02-.49.25-.14.4.83.27,1.2-2.59,7.75-8.45,4.99-13.02,1.67.12.48.24.96.36,1.43.87,1.81,1.82,3.48,2.92,4.99.58.8,1.17,1.6,1.76,2.39.02.02.03.04.05.07.6.8,1.2,1.57,1.81,2.31.35.42.69.83,1.04,1.22.05.05.09.11.14.16.3.34.6.65.9.96.08.08.17.17.25.26.28.27.56.53.84.77.1.08.19.18.29.26.37.31.74.59,1.11.83.5-.02.98-.03,1.4-.02.17,0,.28.52.19.83-.08.26-.18.5-.28.74.04.25.04.5.02.71,0,0,0,0,0,.01,0,0,0,0,0,0-.01.1-.03.18-.06.25,0,.02-.01.05-.02.06-.04.07-.09.11-.16.1-.1,0-.2-.03-.3-.05-.16.27-.34.51-.52.73-.06.07-.13.13-.19.2-.13.13-.25.27-.39.38-.09.07-.18.13-.27.2-.12.08-.23.17-.35.25-.11.07-.23.11-.34.17-.11.05-.21.11-.32.15-.14.05-.28.09-.42.13-.09.02-.18.05-.27.07-.17.04-.34.06-.52.08-.06,0-.13.02-.19.02-.21.02-.42.02-.63.01-.03,0-.06,0-.08,0-.34-.01-.68-.04-1.02-.1.96,1.57,1.96,3,2.95,3.87.83.27,1.67.26,2.54-.12.1-.04.21.35.16.56-.02.07-.04.12-.06.18.11-.04.18.4.12.57-.25.72-.55,1.17-.88,1.43-.1.2-.2.36-.3.52,0,0,0,.01-.01.02-.39.63-.82,1.08-1.3,1.34,0,0,0,0-.01,0-.17.08-.35.17-.53.22,2.15,2.11,4.45,3.32,6.44,3.24.24-.06.47-.16.71-.28.24-.26.48-.54.72-.83.42-.55.86,1.06.72,2.04-.67,4.74-2.8,7.18-4.93,8.44-.29.17-.57.32-.86.45.38.84.76,1.65,1.16,2.43.26.5.55,1.03.86,1.56.13.22.27.45.4.68.17.29.35.59.54.88.19.31.39.62.59.93.12.18.24.36.36.54,1.57,2.33,3.36,4.6,5.08,6.23,0,0,0,0,0,0,.32.3.64.59.95.85.36.29.72.57,1.06.78,1.32-.1,2.57-.51,3.7-1.37.09-.07.27.22.23.55-.12.88-.29,1.65-.48,2.33-.02.06-.03.14-.05.2,0,0,0,0,0,0-.16.53-.34.99-.54,1.41-.04.08-.08.17-.12.25-.2.39-.4.74-.63,1.04,0,0,0,.02-.01.02-.23.3-.48.55-.74.76-.06.05-.12.1-.18.14-.26.19-.53.36-.81.49,1.13.47,2.26.86,3.38,1.23.19.06.2.71.07.8-1.73,1.1-4.04,1.38-6.41.44.76,1.08,1.48,2.06,2.13,2.92.35.46.7.88,1.06,1.26.03.03.06.06.09.09.33.35.66.67.99.95.02.02.04.03.06.05.42.36.85.67,1.27.93.03.02.06.04.1.06.44.26.88.48,1.32.64.02,0,.03,0,.05.01.39.14.78.24,1.17.31.09.02.19.03.28.04.4.05.8.08,1.2.06.49-.35.97-.68,1.47-.99.12-.07.22.39.17.62-.01.06-.03.1-.04.15.11.07.17.44.1.61-.18.49-.38.92-.58,1.32-.11.4-.24.72-.36,1.08,0,0,0,0,0,.01-.87,2.56-2.01,4.28-3.32,5.34-.01,0-.02.02-.04.03-.32.25-.64.48-.97.66-.04.02-.08.04-.12.06-.31.16-.62.31-.94.41-.1.03-.2.05-.31.08-.27.07-.54.15-.81.19-.38.06-.78.09-1.17.09.33.24.65.44.98.63.3.16.6.29.89.41.03.01.05.02.08.03.71-.08,1.43-.1,2.16-.04.11,0,.21.13.3.3.5-.21.98-.43,1.43-.68.35-.2.56,1.16.39,1.68-3.63,10.89-11.87,7.01-18.28,2.34.33,1.34.69,2.66,1.03,3.98.32,1.23.64,2.47.98,3.7.62,2.24,1.27,4.47,1.96,6.7.03.09.04.19.04.27,0,0,0,.02,0,.02,0,.14-.04.23-.09.22-.02,0-.05-.01-.08-.07-.28-.52-.55-1.02-.83-1.53-.21-.36-.43-.76-.64-1.14.24.55.47,1.11.71,1.64.11.24.03.62-.09.41-3.29-5.8-6.4-10.81-9.22-18.17.13,4.24.02,7.94-.46,11.8-.03.3-.23.08-.2-.23.22-2.19.26-4.69.21-7.31-.13,1.05-.27,2.04-.41,2.96-.27,1.68-.6,3.22-.95,4.72,1.99,15.36,4.43,31.42,4.43,31.42-4.25,6.3-7.16-.61-7.16-.61-.56-7.36-2.15-22.34-3.42-34-.51,2.69-1.11,5.25-1.65,7.73-.05.23-.21-.07-.16-.31.53-2.86.98-6,1.32-9.23-.79,2.84-1.7,5.4-2.74,7.5-.27.55-.56,1.04-.85,1.5-.14.23-.28.45-.43.67,0,0,0,.01-.01.02-.02.03-.04.05-.06.07-.88,1.29-1.84,2.29-2.83,3.11-.07.06-.13.12-.2.17-.28.22-.56.43-.84.63-.12.08-.23.17-.35.24-.26.17-.52.34-.79.5-.15.09-.31.19-.46.27-.24.14-.48.28-.72.41-.23.13-.46.25-.68.37-.55.29-1.1.59-1.64.88-.05.03-.1.02-.15,0-.02,0-.03-.02-.05-.04-.03-.03-.06-.06-.09-.1-.01-.02-.03-.05-.04-.07-.03-.06-.06-.14-.09-.22,0-.02-.01-.03-.02-.05-.03-.1-.05-.22-.08-.34,0-.04-.01-.07-.02-.11-.01-.09-.02-.18-.03-.27,0-.04,0-.08,0-.12,0-.1,0-.2,0-.3,0-.02,0-.05,0-.07,0,0,0,0,0,0,0-.03,0-.06.01-.09.02-.21.07-.4.14-.51.35-.47.71-.9,1.07-1.31.22-.26.44-.51.65-.75.31-.53.62-1.09.91-1.69.01-.11.03-.22.08-.27.07-.07.12-.19.18-.27.53-1.18,1.01-2.52,1.4-4.1.04-.14.07-.29.1-.45-2.96,7.03-7.13,11.09-11.53,10.61,0,0-.02,0-.02,0-.38-.04-.76-.12-1.14-.23-.03,0-.07-.02-.1-.03-.36-.11-.73-.26-1.09-.43-.05-.02-.1-.05-.15-.07-.35-.18-.71-.39-1.06-.63-.06-.04-.12-.09-.18-.13-.35-.25-.69-.52-1.04-.83-.07-.06-.13-.13-.2-.19-.34-.32-.68-.66-1.02-1.04-.02-.02-.03-.03-.05-.05-.32-.37-.63-.72-.94-1.13-.26-.34-.26-1.4.03-1.21.27.18.53.28.8.42.03-.04.06-.09.1-.1.28-.15.56-.32.84-.51,0,0,0,0,0,0,2.46-1.61,4.68-4.61,6.39-9.04-.51.65-1.02,1.27-1.53,1.91-.25.31-.49-.81-.27-1.17,1.19-1.94,2.49-3.94,3.44-6.7-1.54,1.74-3.18,2.89-4.49,3.37-2.56.94-7.16,2.27-9.65-4.31Z"
  />
  <polygon
    class="cls-1"
    points="0 1494.28 1958.4 1494.28 1958.4 387.88 1852.8 445.48 1708.8 879.88 1536 1004.54 1390.54 1196.68 1135.2 1280.68 1022.4 1393.48 0 1494.28"
  />
</svg>
