<svg xmlns="http://www.w3.org/2000/svg" id="Layer_1" data-name="Layer 1" viewBox="0 0 147.3 145.71"><defs><style>.cls-1 {
        fill: #b3bdc6;
      }
      .cls-1,
      .cls-2,
      .cls-4 {
        stroke-width: 0;
      }
      .cls-2 {
        fill: #d0d7dd;
      }
      .cls-4 {
        fill: #58595b;
      }</style></defs><ellipse cx="63.4" cy="31.94" rx="29.28" ry="32.16" style="stroke-width: 0; fill: #576066" transform="rotate(-16.63 63.398 31.943)"/><path d="M47.96 24.81c2.17-.69 16.94-10.96 26.48-17.68A17.07 17.07 0 0 1 91.66 5.7l7.35 3.53c4.82 2.32 5.52 8.91 1.28 12.18L88.52 30.5z" style="stroke-width: 0; fill: #747b7f"/><path d="M142.21 46.14c-6.11 5.24-23.19 11.31-28.44 5.21-5.24-6.11 3.34-22.08 9.45-27.32s15.31-4.54 20.55 1.56c5.24 6.11 4.54 15.31-1.56 20.55" class="cls-2"/><path d="M136.14 42.67c-3.34 2.87-12.7 6.2-15.57 2.85-2.87-3.34 1.83-12.09 5.17-14.96a7.97 7.97 0 0 1 11.25.86 7.97 7.97 0 0 1-.86 11.25Z" class="cls-1"/><path d="M5.08 46.14c6.11 5.24 23.19 11.31 28.44 5.21 5.24-6.11-3.34-22.08-9.45-27.32S8.76 19.49 3.52 25.59-1.02 40.9 5.08 46.14" class="cls-2"/><path d="M11.16 42.67c3.34 2.87 12.7 6.2 15.57 2.85 2.87-3.34-1.83-12.09-5.17-14.96a7.97 7.97 0 0 0-11.25.86 7.97 7.97 0 0 0 .86 11.25Z" class="cls-1"/><path d="M98.67 23.73c-1.58-2.32-5.97-3.39-11.14-3.57.39-2.32.17-4.54-1.44-4.54-15.63 0-48.26 7.46-63.24 30-5.54 8.76-23.28 40.58-5.41 64.29 11.37 15.09 27.17 25.33 39.22 31.53a38.39 38.39 0 0 0 35.18 0c12.05-6.2 27.85-16.44 39.22-31.53 17.31-22.97 1.21-53.56-4.86-63.41-10.5-14.34-17.29-16.95-27.19-18.75.5-1.51.43-2.89-.34-4.02" class="cls-2"/><path d="M92.46 90.78c-.72-4.12-2.2-8.04-4.53-11.73-1.76-2.8-4.23-5.07-7.87-6.31-3.05-1.04-6.24-1.25-9.5-.93-4.72.47-8.58 2.11-11.17 5.51-4.12 5.4-6.02 11.32-6.14 17.64 0 .83-.05 1.66.02 2.48.05.58.21 1.16.38 1.73.57 1.89 5.11 13.53 19.57 13.53s18.68-11.62 19.24-13.86c.68-2.69.47-5.38 0-8.07Z" class="cls-1"/><circle cx="58.2" cy="62.31" r="3.71" class="cls-4"/><circle cx="95.97" cy="62.31" r="3.71" class="cls-4"/><path d="M73.15 81.91c.51 0 1.01-.11 1.46-.34 2.03-1.02 5.74-3.41 5.68-3.84-.21-1.4-1.01-2.52-2.46-3.28-3.06-1.6-6.21-1.64-9.34-.18-1.43.67-2.37 1.72-2.69 3.09-.17.72 3.49 2.96 5.8 4.16.48.25 1.01.38 1.55.38ZM50.36 54.5a3.044 3.044 0 0 1-1.93-3.31 3.04 3.04 0 0 1 3.47-2.54l9.52 1.46a3.04 3.04 0 0 1 2.54 3.47 3.04 3.04 0 0 1-3.47 2.54l-9.52-1.46c-.21-.03-.42-.09-.61-.16m47.66.45a3.042 3.042 0 0 0-1.34-5.9l-9.57 1.13c-1.67.2-2.86 1.71-2.66 3.38s1.71 2.86 3.38 2.66l9.57-1.13c.21-.03.42-.07.62-.14" class="cls-4"/></svg>