<svg width="1959" height="1295" viewBox="0 0 1959 1295" fill="none" xmlns="http://www.w3.org/2000/svg">
<g clip-path="url(#clip0_331_6518)">
<path d="M928.96 1158.89C929.14 1152.94 929.1 1147.17 930.28 1141.29C931.04 1137.51 931.71 1133.7 929.22 1130.33C928.85 1129.82 927.91 1129.68 927.43 1130.09C927.31 1129.96 927.16 1129.85 926.97 1129.82C923.43 1129.21 919.93 1129.57 916.35 1129.64C911.26 1129.75 906.15 1129.43 901.07 1129.64C897.26 1129.8 893.84 1131.27 890 1131.38C884.91 1131.53 879.95 1131.57 874.94 1130.73C870.56 1130 866.1 1129.65 861.74 1128.86C857.98 1128.18 854.96 1126.64 851.02 1127.18C846.46 1127.8 842.31 1128.12 837.69 1127.76C832.71 1127.37 827.99 1126.71 822.97 1126.87C818.53 1127.02 814.18 1127.09 809.75 1126.72C804.88 1126.31 799.99 1125.73 795.11 1126.34C791.61 1126.78 788.79 1128.52 785.41 1129.05C780.73 1129.79 776.24 1131.24 771.46 1131.34C767.24 1131.43 763.22 1132.16 759.05 1132.33C754.35 1132.52 749.63 1132.05 744.94 1132.69C740.95 1133.23 737.89 1135.47 734.06 1135.82C731.09 1136.09 727.56 1137.17 724.87 1138.38C721.52 1139.88 719.28 1142.96 716.17 1144.8C712.77 1146.82 708.22 1150.48 704.08 1149.63C695.86 1147.94 688.44 1147.19 680.19 1149.25C676.3 1150.22 672.53 1151.44 668.83 1152.88C667.51 1153.39 665.95 1154.06 664.46 1154.19C663.29 1154.3 662.11 1153.97 660.94 1154.11C659.28 1154.31 658.15 1155.13 656.77 1155.94C653.84 1157.66 651.16 1159.08 648.49 1161.15C644.74 1164.07 640.97 1164.32 636.63 1165.88C634.92 1166.5 633.56 1167.55 631.79 1168.08C630.18 1168.56 628.53 1168.74 626.97 1169.39C622.37 1171.3 618 1173.61 612.96 1174.45C604.44 1175.88 595.99 1177.46 587.46 1178.83C583.04 1179.54 577.91 1180.46 573.45 1180.52C569.14 1180.58 565.15 1180.36 560.88 1181.02C556.95 1181.63 553.14 1181.31 549.23 1182.23C547.6 1182.61 546.05 1183.11 544.49 1183.67C541.25 1184.82 539.01 1184.86 535.69 1184.93C531.7 1185.02 529.1 1186.93 526.18 1189.24C524.91 1190.24 523.68 1191.23 522.65 1192.45C521.1 1194.26 520.07 1196.47 517.56 1197.27C515.68 1197.87 513.32 1197.89 511.38 1198.08C509.18 1198.3 507.24 1198.85 505.09 1199.37C500.59 1200.46 496.04 1199.32 491.56 1200.33C486.73 1201.42 481.91 1201.65 477.04 1202.58C474.4 1203.08 471.8 1203.55 469.09 1203.57C467.26 1203.58 465.42 1203.48 463.61 1203.75C461.42 1204.08 459.46 1204.94 457.47 1205.78C454.8 1206.91 452.55 1207.15 449.81 1207.78C446.93 1208.44 443.84 1211.3 440.73 1211.8C440.73 1211.57 440.71 1211.34 440.71 1211.11C440.7 1209.64 438.2 1209.63 438.21 1211.11C438.21 1211.26 438.21 1211.41 438.22 1211.56C438.11 1211.52 437.99 1211.52 437.88 1211.47C437.14 1211.13 436.48 1212.15 437.23 1212.5C437.58 1212.66 437.92 1212.75 438.26 1212.85C438.35 1216.23 438.56 1219.63 438.33 1222.99C438.07 1226.81 436.36 1230.29 436 1234.08C435.7 1237.29 434.4 1242.99 438.85 1244.24C441.67 1245.03 444.85 1244.17 447.75 1244.61C451.78 1245.21 455.84 1245.67 459.89 1246.18C468.02 1247.19 475.34 1246.53 483.21 1244.48C485.5 1243.88 487.86 1243.19 490.27 1243.22C492.4 1243.25 494.48 1243.84 496.58 1244.09C501.08 1244.62 505.73 1244.63 510.26 1244.83C518.79 1245.19 527.05 1245.09 535.49 1243.87C539.28 1243.32 543.08 1243.5 546.88 1243.06C551.9 1242.48 556.88 1241.88 561.94 1241.63C566.65 1241.4 571.08 1241.82 575.74 1242.31C579.56 1242.71 583.37 1242.27 587.2 1242.24C591.03 1242.21 594.86 1242.46 598.67 1241.93C603.18 1241.31 607.49 1240.83 612.07 1240.98C620.79 1241.27 629.34 1243 638.04 1243.58C642.21 1243.86 646.36 1243.79 650.53 1243.89C654.87 1243.99 659.15 1244.72 663.5 1244.77C673.23 1244.88 682.95 1244.32 692.68 1244.61C696.83 1244.73 700.9 1245.6 705.04 1245.67C710.05 1245.76 714.57 1245.72 719.55 1246.6C728.15 1248.12 736.13 1248.8 744.87 1247.8C753.76 1246.78 763.05 1247.24 772 1247.24C781.23 1247.24 790.13 1248.25 799.28 1249.14C808.79 1250.07 819.06 1250.77 828.59 1249.89C838.16 1249 847.59 1248.54 857.13 1247.14C862.64 1246.33 867.44 1246.7 872.93 1247.14C878.17 1247.56 883.47 1247.61 888.72 1247.83C893.91 1248.05 899.11 1247.93 904.29 1248.14C907.07 1248.25 909.85 1248.45 912.42 1249.49C914.38 1250.28 915.89 1251.17 918.04 1251.45C918.67 1251.53 919.27 1251.32 919.46 1250.71C919.97 1249.13 920.07 1247.53 920.02 1245.94C926.36 1241.07 927.59 1231.31 928.83 1224.48C930.75 1213.95 930.57 1203.08 930.29 1192.43C929.99 1181.19 928.61 1170.12 928.95 1158.87L928.96 1158.89Z" fill="#100E0E"/>
<path d="M1029.44 1158.89C1029.26 1152.94 1029.3 1147.17 1028.12 1141.29C1027.36 1137.51 1026.69 1133.7 1029.18 1130.33C1029.55 1129.82 1030.49 1129.68 1030.97 1130.09C1031.09 1129.96 1031.24 1129.85 1031.43 1129.82C1034.97 1129.21 1038.47 1129.57 1042.05 1129.64C1047.14 1129.75 1052.25 1129.43 1057.33 1129.64C1061.14 1129.8 1064.56 1131.27 1068.4 1131.38C1073.49 1131.53 1078.45 1131.57 1083.46 1130.73C1087.84 1130 1092.3 1129.65 1096.66 1128.86C1100.42 1128.18 1103.44 1126.64 1107.38 1127.18C1111.94 1127.8 1116.09 1128.12 1120.71 1127.76C1125.69 1127.37 1130.41 1126.71 1135.43 1126.87C1139.87 1127.02 1144.22 1127.09 1148.65 1126.72C1153.52 1126.31 1158.41 1125.73 1163.29 1126.34C1166.79 1126.78 1169.61 1128.52 1172.99 1129.05C1177.67 1129.79 1182.16 1131.24 1186.94 1131.34C1191.16 1131.43 1195.18 1132.16 1199.35 1132.33C1204.05 1132.52 1208.77 1132.05 1213.46 1132.69C1217.45 1133.23 1220.51 1135.47 1224.34 1135.82C1227.31 1136.09 1230.84 1137.17 1233.53 1138.38C1236.88 1139.88 1239.12 1142.96 1242.23 1144.8C1245.63 1146.82 1250.18 1150.48 1254.32 1149.63C1262.54 1147.94 1269.96 1147.19 1278.21 1149.25C1282.1 1150.22 1285.87 1151.44 1289.57 1152.88C1290.89 1153.39 1292.45 1154.06 1293.94 1154.19C1295.11 1154.3 1296.29 1153.97 1297.46 1154.11C1299.12 1154.31 1300.25 1155.13 1301.63 1155.94C1304.56 1157.66 1307.24 1159.08 1309.91 1161.15C1313.66 1164.07 1317.43 1164.32 1321.77 1165.88C1323.48 1166.5 1324.84 1167.55 1326.61 1168.08C1328.22 1168.56 1329.87 1168.74 1331.43 1169.39C1336.03 1171.3 1340.4 1173.61 1345.44 1174.45C1353.96 1175.88 1362.41 1177.46 1370.94 1178.83C1375.36 1179.54 1380.49 1180.46 1384.95 1180.52C1389.26 1180.58 1393.25 1180.36 1397.52 1181.02C1401.45 1181.63 1405.26 1181.31 1409.17 1182.23C1410.8 1182.61 1412.35 1183.11 1413.91 1183.67C1417.15 1184.82 1419.39 1184.86 1422.71 1184.93C1426.7 1185.02 1429.3 1186.93 1432.22 1189.24C1433.49 1190.24 1434.72 1191.23 1435.75 1192.45C1437.3 1194.26 1438.33 1196.47 1440.84 1197.27C1442.72 1197.87 1445.08 1197.89 1447.02 1198.08C1449.22 1198.3 1451.16 1198.85 1453.31 1199.37C1457.81 1200.46 1462.36 1199.32 1466.84 1200.33C1471.67 1201.42 1476.49 1201.65 1481.36 1202.58C1484 1203.08 1486.6 1203.55 1489.31 1203.57C1491.14 1203.58 1492.98 1203.48 1494.79 1203.75C1496.98 1204.08 1498.94 1204.94 1500.93 1205.78C1503.6 1206.91 1505.85 1207.15 1508.59 1207.78C1511.47 1208.44 1514.56 1211.3 1517.67 1211.8C1517.67 1211.57 1517.69 1211.34 1517.69 1211.11C1517.7 1209.64 1520.2 1209.63 1520.19 1211.11C1520.19 1211.26 1520.19 1211.41 1520.18 1211.56C1520.29 1211.52 1520.41 1211.52 1520.52 1211.47C1521.26 1211.13 1521.92 1212.15 1521.17 1212.5C1520.82 1212.66 1520.48 1212.75 1520.14 1212.85C1520.05 1216.23 1519.84 1219.63 1520.07 1222.99C1520.33 1226.81 1522.04 1230.29 1522.4 1234.08C1522.7 1237.29 1524 1242.99 1519.55 1244.24C1516.73 1245.03 1513.55 1244.17 1510.65 1244.61C1506.62 1245.21 1502.56 1245.67 1498.51 1246.18C1490.38 1247.19 1483.06 1246.53 1475.19 1244.48C1472.9 1243.88 1470.54 1243.19 1468.13 1243.22C1466 1243.25 1463.92 1243.84 1461.82 1244.09C1457.32 1244.62 1452.67 1244.63 1448.14 1244.83C1439.61 1245.19 1431.35 1245.09 1422.91 1243.87C1419.12 1243.32 1415.32 1243.5 1411.52 1243.06C1406.5 1242.48 1401.52 1241.88 1396.46 1241.63C1391.75 1241.4 1387.32 1241.82 1382.66 1242.31C1378.84 1242.71 1375.03 1242.27 1371.2 1242.24C1367.37 1242.21 1363.54 1242.46 1359.73 1241.93C1355.22 1241.31 1350.91 1240.83 1346.33 1240.98C1337.61 1241.27 1329.06 1243 1320.36 1243.58C1316.19 1243.86 1312.04 1243.79 1307.87 1243.89C1303.53 1243.99 1299.25 1244.72 1294.9 1244.77C1285.17 1244.88 1275.45 1244.32 1265.72 1244.61C1261.57 1244.73 1257.5 1245.6 1253.36 1245.67C1248.35 1245.76 1243.83 1245.72 1238.85 1246.6C1230.25 1248.12 1222.27 1248.8 1213.53 1247.8C1204.64 1246.78 1195.35 1247.24 1186.4 1247.24C1177.17 1247.24 1168.27 1248.25 1159.12 1249.14C1149.61 1250.07 1139.34 1250.77 1129.81 1249.89C1120.24 1249 1110.81 1248.54 1101.27 1247.14C1095.76 1246.33 1090.96 1246.7 1085.47 1247.14C1080.23 1247.56 1074.93 1247.61 1069.68 1247.83C1064.49 1248.05 1059.29 1247.93 1054.11 1248.14C1051.33 1248.25 1048.55 1248.45 1045.98 1249.49C1044.02 1250.28 1042.51 1251.17 1040.36 1251.45C1039.73 1251.53 1039.13 1251.32 1038.94 1250.71C1038.43 1249.13 1038.33 1247.53 1038.38 1245.94C1032.04 1241.07 1030.81 1231.31 1029.57 1224.48C1027.65 1213.95 1027.83 1203.08 1028.11 1192.43C1028.41 1181.19 1029.79 1170.12 1029.45 1158.87L1029.44 1158.89Z" fill="#100E0E"/>
<path d="M870.701 1158.89C870.521 1152.94 870.561 1147.17 869.381 1141.29C868.621 1137.51 867.951 1133.7 870.441 1130.33C870.811 1129.82 871.751 1129.68 872.231 1130.09C872.351 1129.96 872.501 1129.85 872.691 1129.82C876.231 1129.21 879.731 1129.57 883.311 1129.64C888.401 1129.75 893.511 1129.43 898.591 1129.64C902.401 1129.8 905.821 1131.27 909.661 1131.38C914.751 1131.53 919.711 1131.57 924.721 1130.73C929.101 1130 933.561 1129.65 937.921 1128.86C941.681 1128.18 944.701 1126.64 948.641 1127.18C953.201 1127.8 957.351 1128.12 961.971 1127.76C966.951 1127.37 971.671 1126.71 976.691 1126.87C981.131 1127.02 985.481 1127.09 989.911 1126.72C994.781 1126.31 999.671 1125.73 1004.55 1126.34C1008.05 1126.78 1010.87 1128.52 1014.25 1129.05C1018.93 1129.79 1023.42 1131.24 1028.2 1131.34C1032.42 1131.43 1036.44 1132.16 1040.61 1132.33C1045.31 1132.52 1050.03 1132.05 1054.72 1132.69C1058.71 1133.23 1061.77 1135.47 1065.6 1135.82C1068.57 1136.09 1072.1 1137.17 1074.79 1138.38C1078.14 1139.88 1080.38 1142.96 1083.49 1144.8C1086.89 1146.82 1091.44 1150.48 1095.58 1149.63C1103.8 1147.94 1111.22 1147.19 1119.47 1149.25C1123.36 1150.22 1127.13 1151.44 1130.83 1152.88C1132.15 1153.39 1133.71 1154.06 1135.2 1154.19C1136.37 1154.3 1137.55 1153.97 1138.72 1154.11C1140.38 1154.31 1141.51 1155.13 1142.89 1155.94C1145.82 1157.66 1148.5 1159.08 1151.17 1161.15C1154.92 1164.07 1158.69 1164.32 1163.03 1165.88C1164.74 1166.5 1166.1 1167.55 1167.87 1168.08C1169.48 1168.56 1171.13 1168.74 1172.69 1169.39C1177.29 1171.3 1181.66 1173.61 1186.7 1174.45C1195.22 1175.88 1203.67 1177.46 1212.2 1178.83C1216.62 1179.54 1221.75 1180.46 1226.21 1180.52C1230.52 1180.58 1234.51 1180.36 1238.78 1181.02C1242.71 1181.63 1246.52 1181.31 1250.43 1182.23C1252.06 1182.61 1253.61 1183.11 1255.17 1183.67C1258.41 1184.82 1260.65 1184.86 1263.97 1184.93C1267.96 1185.02 1270.56 1186.93 1273.48 1189.24C1274.75 1190.24 1275.98 1191.23 1277.01 1192.45C1278.56 1194.26 1279.59 1196.47 1282.1 1197.27C1283.98 1197.87 1286.34 1197.89 1288.28 1198.08C1290.48 1198.3 1292.42 1198.85 1294.57 1199.37C1299.07 1200.46 1303.62 1199.32 1308.1 1200.33C1312.93 1201.42 1317.75 1201.65 1322.62 1202.58C1325.26 1203.08 1327.86 1203.55 1330.57 1203.57C1332.4 1203.58 1334.24 1203.48 1336.05 1203.75C1338.24 1204.08 1340.2 1204.94 1342.19 1205.78C1344.86 1206.91 1347.11 1207.15 1349.85 1207.78C1352.73 1208.44 1355.82 1211.3 1358.93 1211.8C1358.93 1211.57 1358.95 1211.34 1358.95 1211.11C1358.96 1209.64 1361.46 1209.63 1361.45 1211.11C1361.45 1211.26 1361.45 1211.41 1361.44 1211.56C1361.55 1211.52 1361.67 1211.52 1361.78 1211.47C1362.52 1211.13 1363.18 1212.15 1362.43 1212.5C1362.08 1212.66 1361.74 1212.75 1361.4 1212.85C1361.31 1216.23 1361.1 1219.63 1361.33 1222.99C1361.59 1226.81 1363.3 1230.29 1363.66 1234.08C1363.96 1237.29 1365.26 1242.99 1360.81 1244.24C1357.99 1245.03 1354.81 1244.17 1351.91 1244.61C1347.88 1245.21 1343.82 1245.67 1339.77 1246.18C1331.64 1247.19 1324.32 1246.53 1316.45 1244.48C1314.16 1243.88 1311.8 1243.19 1309.39 1243.22C1307.26 1243.25 1305.18 1243.84 1303.08 1244.09C1298.58 1244.62 1293.93 1244.63 1289.4 1244.83C1280.87 1245.19 1272.61 1245.09 1264.17 1243.87C1260.38 1243.32 1256.58 1243.5 1252.78 1243.06C1247.76 1242.48 1242.78 1241.88 1237.72 1241.63C1233.01 1241.4 1228.58 1241.82 1223.92 1242.31C1220.1 1242.71 1216.29 1242.27 1212.46 1242.24C1208.63 1242.21 1204.8 1242.46 1200.99 1241.93C1196.48 1241.31 1192.17 1240.83 1187.59 1240.98C1178.87 1241.27 1170.32 1243 1161.62 1243.58C1157.45 1243.86 1153.3 1243.79 1149.13 1243.89C1144.79 1243.99 1140.51 1244.72 1136.16 1244.77C1126.43 1244.88 1116.71 1244.32 1106.98 1244.61C1102.83 1244.73 1098.76 1245.6 1094.62 1245.67C1089.61 1245.76 1085.09 1245.72 1080.11 1246.6C1071.51 1248.12 1063.53 1248.8 1054.79 1247.8C1045.9 1246.78 1036.61 1247.24 1027.66 1247.24C1018.43 1247.24 1009.53 1248.25 1000.38 1249.14C990.871 1250.07 980.601 1250.77 971.071 1249.89C961.501 1249 952.071 1248.54 942.531 1247.14C937.021 1246.33 932.221 1246.7 926.731 1247.14C921.491 1247.56 916.191 1247.61 910.941 1247.83C905.751 1248.05 900.551 1247.93 895.371 1248.14C892.591 1248.25 889.811 1248.45 887.241 1249.49C885.281 1250.28 883.771 1251.17 881.621 1251.45C880.991 1251.53 880.391 1251.32 880.201 1250.71C879.691 1249.13 879.591 1247.53 879.641 1245.94C873.301 1241.07 872.071 1231.31 870.831 1224.48C868.911 1213.95 869.091 1203.08 869.371 1192.43C869.671 1181.19 871.051 1170.12 870.711 1158.87L870.701 1158.89Z" fill="#100E0E"/>
<path d="M1032.72 1144.57C1035.32 1143.64 1038.33 1142.2 1041.52 1139.94C1041.52 1139.94 1041.53 1139.92 1041.54 1139.91C1041.81 1141.43 1042.57 1142.24 1043.76 1142.2C1045.66 1142.14 1047.25 1137.91 1049.9 1132.78C1050.17 1135.29 1051.04 1136.39 1052.28 1135.84C1054.04 1135.06 1053.68 1128.5 1057.17 1121.31C1058.56 1118.89 1059.88 1116.31 1061.08 1113.59C1061.47 1112.7 1061.73 1111.86 1061.93 1111.04C1063.92 1105.83 1067.11 1093.66 1058.13 1084.36C1058.13 1084.36 1052.07 1074.19 1042.79 1063.79C1043.73 1063.38 1044.26 1062.5 1044.26 1061.12C1044.26 1057.64 1037.85 1046.77 1032.2 1039.75C1030.16 1036.72 1028.27 1034.04 1026.73 1031.9C1026.56 1031.56 1026.38 1031.23 1026.18 1030.89C1021.98 1025.37 1024.96 1019.02 1019.61 1013.72C1019.94 1012.84 1020.14 1011.87 1020.14 1010.82C1020.14 1007.18 1017.87 1004.23 1015.08 1004.23C1013.57 1004.23 1012.24 1005.1 1011.31 1006.46C1010.17 1005.61 1009.03 1004.83 1007.9 1004.12C1007.98 1003.46 1007.92 1002.86 1007.66 1002.35C1006.95 1001 1005 1000.38 1002.69 1000.27C1002.85 999.031 1002.73 997.921 1002.05 997.631C996.731 995.371 988.771 1000.18 980.971 1007.01C980.051 1005.33 978.551 1004.22 976.851 1004.22C974.051 1004.22 971.791 1007.17 971.791 1010.81C971.791 1012.33 972.201 1013.71 972.861 1014.83C969.021 1018.84 973.781 1023.04 970.991 1026.45V1026.4C970.991 1026.4 970.801 1026.65 970.461 1027.1C969.361 1028.46 968.391 1029.7 967.581 1030.77C967.381 1031.1 967.201 1031.44 967.031 1031.77C965.911 1033.33 964.601 1035.18 963.181 1037.24C957.431 1044.8 950.641 1055.75 950.641 1059.35C950.641 1060.88 951.251 1061.84 952.401 1062.17C952.401 1062.17 952.431 1062.18 952.481 1062.19C952.571 1062.21 952.681 1062.21 952.781 1062.23C942.761 1073.11 936.131 1084.24 936.131 1084.24C924.401 1096.4 933.441 1113.47 933.441 1113.47C934.641 1116.2 935.961 1118.77 937.351 1121.19C940.841 1128.39 940.481 1134.95 942.241 1135.72C943.481 1136.27 944.351 1135.17 944.621 1132.66C947.261 1137.79 948.861 1142.01 950.761 1142.08C951.951 1142.12 952.711 1141.31 952.981 1139.79C952.981 1139.79 952.991 1139.81 953.001 1139.82C956.311 1142.17 959.441 1143.62 962.101 1144.55" fill="#100E0E"/>
<path d="M748.841 1043.15C751.291 1036.39 745.971 1029.46 743.961 1027.18C743.791 1027.01 743.621 1026.85 743.451 1026.7C744.661 1026.09 745.791 1025.25 746.381 1024.54C747.721 1022.93 747.491 1020.54 745.881 1019.2C744.271 1017.86 741.881 1018.09 740.541 1019.7C739.841 1020.54 739.111 1022.15 738.781 1023.7C737.741 1023.38 736.731 1023.31 735.591 1023.3C735.661 1022.86 735.571 1022.48 735.311 1022.21C734.771 1021.64 733.511 1021.56 732.071 1021.75C732.071 1021.09 731.901 1020.49 731.461 1020.57C728.351 1021.1 722.991 1023.12 719.101 1026.8C718.281 1025.43 717.031 1024.13 716.081 1023.57C714.281 1022.49 711.961 1023.08 710.881 1024.87C709.801 1026.66 710.391 1028.99 712.181 1030.07C712.991 1030.56 714.381 1030.99 715.771 1031.15C715.661 1031.37 715.551 1031.59 715.451 1031.82C714.711 1033.6 712.961 1038.46 713.661 1043.19C713.661 1043.21 713.661 1043.22 713.661 1043.24C713.801 1044.16 714.031 1045.07 714.391 1045.96C710.491 1060.72 713.621 1079.03 722.491 1087.77C722.491 1087.77 724.611 1092.16 740.011 1089.39C751.061 1087.4 755.691 1082.56 755.691 1082.56C762.611 1062.91 752.141 1047.38 748.831 1043.16L748.841 1043.15Z" fill="#100E0E"/>
<path d="M730.64 1032.56C730.07 1032.65 729.47 1032.67 728.84 1032.59C728.72 1032.58 728.6 1032.56 728.48 1032.54C728.44 1032.54 728.41 1032.52 728.37 1032.52C728.29 1032.5 728.21 1032.49 728.13 1032.47C728.08 1032.46 728.04 1032.45 727.99 1032.43C727.92 1032.41 727.85 1032.39 727.78 1032.37C727.73 1032.35 727.68 1032.34 727.63 1032.32C727.57 1032.3 727.5 1032.28 727.44 1032.26C727.39 1032.24 727.33 1032.22 727.28 1032.2C727.22 1032.18 727.17 1032.16 727.11 1032.13C727.05 1032.11 727 1032.08 726.94 1032.06C726.89 1032.04 726.83 1032.01 726.78 1031.99C726.72 1031.96 726.67 1031.93 726.61 1031.9C726.56 1031.88 726.51 1031.85 726.46 1031.82C726.4 1031.79 726.35 1031.75 726.29 1031.72C726.25 1031.69 726.2 1031.67 726.16 1031.64C726.1 1031.6 726.04 1031.57 725.99 1031.53C725.95 1031.5 725.91 1031.48 725.87 1031.45C725.81 1031.41 725.75 1031.37 725.69 1031.32C725.65 1031.29 725.62 1031.27 725.58 1031.24C725.52 1031.19 725.46 1031.15 725.4 1031.1C725.37 1031.07 725.33 1031.05 725.3 1031.02C725.24 1030.97 725.18 1030.92 725.12 1030.86C725.09 1030.83 725.06 1030.81 725.03 1030.78C724.97 1030.72 724.91 1030.67 724.86 1030.61C724.83 1030.58 724.81 1030.56 724.78 1030.53C724.72 1030.47 724.66 1030.41 724.61 1030.34C724.59 1030.32 724.57 1030.29 724.54 1030.27C724.48 1030.2 724.42 1030.14 724.37 1030.07C724.35 1030.05 724.33 1030.03 724.31 1030C724.25 1029.93 724.2 1029.86 724.14 1029.78C724.12 1029.76 724.11 1029.74 724.09 1029.72C724.03 1029.64 723.98 1029.56 723.93 1029.49C723.92 1029.47 723.9 1029.45 723.89 1029.43C723.84 1029.35 723.78 1029.26 723.73 1029.18C723.72 1029.16 723.71 1029.15 723.7 1029.13C723.65 1029.04 723.6 1028.95 723.55 1028.86C723.55 1028.84 723.53 1028.83 723.53 1028.82C723.48 1028.73 723.43 1028.63 723.39 1028.54C723.39 1028.53 723.38 1028.51 723.37 1028.5C723.32 1028.4 723.28 1028.3 723.24 1028.2C723.24 1028.19 723.24 1028.18 723.23 1028.17C723.19 1028.07 723.14 1027.96 723.11 1027.86C723.11 1027.86 723.11 1027.84 723.11 1027.83C723.07 1027.72 723.03 1027.61 723 1027.5C723 1027.5 723 1027.49 723 1027.48C722.96 1027.37 722.93 1027.25 722.9 1027.14C722.9 1027.14 722.9 1027.14 722.9 1027.13C722.87 1027.01 722.84 1026.9 722.81 1026.78C722.78 1026.66 722.76 1026.54 722.74 1026.42C722.72 1026.3 722.7 1026.17 722.68 1026.05C722.63 1025.66 722.6 1025.27 722.61 1024.87L720.44 1023.72C719.28 1023.1 719.17 1021.47 720.24 1020.71L721.88 1019.55C722.81 1018.89 723.94 1018.65 725.03 1018.84C726.04 1017.83 727.32 1017.17 728.73 1016.96C729.39 1016.83 730.08 1016.8 730.78 1016.89C734.73 1017.37 737.51 1021.28 736.99 1025.62C736.55 1029.29 733.89 1032.09 730.69 1032.59L730.64 1032.56Z" fill="#100E0E"/>
<path d="M772.491 1064.35C772.451 1064.15 772.401 1063.95 772.351 1063.75C773.071 1062.08 773.541 1060.44 772.761 1060.16C772.241 1059.97 771.601 1060.31 770.971 1060.85C769.891 1059.22 768.501 1057.26 766.831 1055.25C766.831 1055.25 766.801 1055.21 766.781 1055.2C764.961 1053 762.821 1050.76 760.461 1048.86C754.121 1043.12 748.031 1039.34 743.421 1037.4C743.421 1037.4 738.641 1035.49 732.721 1034.46L733.441 1033.11C732.481 1033.4 731.541 1033.75 730.611 1034.14C728.691 1033.9 726.711 1033.77 724.761 1033.85L726.961 1035.87C721.311 1038.89 717.021 1042.65 717.021 1042.65C713.311 1046.01 708.831 1051.6 704.761 1059.12C703.161 1061.69 701.891 1064.52 700.901 1067.2C700.901 1067.22 700.881 1067.24 700.871 1067.26C699.971 1069.71 699.311 1072.03 698.831 1073.92C698.061 1073.61 697.351 1073.51 696.911 1073.86C696.261 1074.38 697.251 1075.77 698.491 1077.11C698.511 1077.32 698.531 1077.52 698.561 1077.73C698.051 1078.15 697.681 1078.63 697.631 1079.01C697.621 1079.1 698.461 1079.8 699.671 1080.75C699.831 1081.01 700.011 1081.26 700.201 1081.5C700.201 1081.51 700.221 1081.52 700.221 1081.53C703.671 1085.81 717.901 1093.96 720.831 1092.59C724.661 1090.8 721.161 1084.44 718.921 1082.56C716.071 1080.17 713.631 1077.68 711.541 1075.23L712.711 1072.73C714.981 1067.99 717.111 1064.62 717.901 1062.25L730.301 1038.94L749.071 1056.17C750.611 1058.14 753.731 1060.61 757.451 1064.33L759.381 1066.3C758.221 1069.3 756.751 1072.46 754.851 1075.67C753.361 1078.19 752.181 1085.35 756.381 1085.77C759.611 1086.09 770.311 1073.67 772.141 1068.48C772.141 1068.47 772.141 1068.46 772.151 1068.44C772.251 1068.15 772.341 1067.85 772.401 1067.55C773.221 1066.25 773.781 1065.3 773.741 1065.23C773.561 1064.89 773.061 1064.56 772.441 1064.33L772.491 1064.35Z" fill="#100E0E"/>
<path d="M860.12 1029.37C863.8 1022.9 859.58 1014.91 857.93 1012.23C857.78 1012.03 857.64 1011.83 857.49 1011.65C858.83 1011.24 860.13 1010.58 860.85 1009.96C862.49 1008.55 862.68 1006.07 861.27 1004.43C859.86 1002.79 857.38 1002.6 855.74 1004.01C854.88 1004.74 853.85 1006.26 853.25 1007.78C852.25 1007.28 851.23 1007.02 850.06 1006.81C850.21 1006.37 850.18 1005.97 849.96 1005.65C849.5 1004.98 848.24 1004.67 846.74 1004.62C846.85 1003.95 846.79 1003.31 846.32 1003.31C843.06 1003.31 837.24 1004.43 832.62 1007.51C832.03 1005.97 830.98 1004.43 830.11 1003.69C828.47 1002.28 825.99 1002.47 824.58 1004.11C823.17 1005.75 823.36 1008.23 825 1009.64C825.74 1010.28 827.09 1010.96 828.47 1011.37C828.32 1011.57 828.17 1011.78 828.03 1011.99C826.96 1013.68 824.33 1018.33 824.22 1023.27C824.22 1023.29 824.22 1023.3 824.22 1023.32C824.2 1024.28 824.28 1025.26 824.49 1026.22C817.93 1040.59 817.93 1059.81 825.45 1070.27C825.45 1070.27 826.84 1075.12 843.04 1074.98C854.66 1074.88 860.22 1070.75 860.22 1070.75C870.71 1051.92 862.74 1034.26 860.1 1029.38L860.12 1029.37Z" fill="#100E0E"/>
<path d="M821.98 1102.32C826.934 1102.32 830.95 1093.41 830.95 1082.42C830.95 1071.43 826.934 1062.52 821.98 1062.52C817.026 1062.52 813.01 1071.43 813.01 1082.42C813.01 1093.41 817.026 1102.32 821.98 1102.32Z" fill="#100E0E"/>
<path d="M841.99 1102.32C846.943 1102.32 850.96 1093.41 850.96 1082.42C850.96 1071.43 846.943 1062.52 841.99 1062.52C837.036 1062.52 833.02 1071.43 833.02 1082.42C833.02 1093.41 837.036 1102.32 841.99 1102.32Z" fill="#100E0E"/>
<path d="M864.07 1039.27L868.94 1075.58L874.65 1076.46L869.38 1037L864.07 1039.27Z" fill="#100E0E"/>
<path d="M842.339 1022.91L862.479 1038.52C864.179 1040.36 867.499 1042.56 871.509 1045.95L873.599 1047.75C872.689 1050.84 871.489 1054.11 869.869 1057.46C868.599 1060.09 868.009 1067.33 872.239 1067.39C875.479 1067.44 885.119 1054.17 886.509 1048.85C886.509 1048.84 886.509 1048.82 886.509 1048.81C886.589 1048.51 886.649 1048.21 886.689 1047.91C887.399 1046.55 887.879 1045.56 887.839 1045.48C887.629 1045.15 887.109 1044.87 886.469 1044.69C886.419 1044.49 886.349 1044.29 886.279 1044.1C886.859 1042.37 887.189 1040.7 886.389 1040.49C885.849 1040.35 885.249 1040.73 884.669 1041.33C883.459 1039.8 881.909 1037.95 880.079 1036.09C880.079 1036.09 880.049 1036.06 880.029 1036.04C878.029 1034 875.719 1031.94 873.199 1030.25C866.399 1025.06 860.019 1021.79 855.259 1020.25C855.259 1020.25 850.339 1018.74 844.359 1018.21L844.959 1016.8C844.029 1017.17 843.119 1017.6 842.219 1018.06C840.289 1017.98 838.299 1018.02 836.369 1018.26L838.729 1020.09" fill="#100E0E"/>
<path d="M842.929 1015.9L832.299 1039.05C831.649 1041.46 829.719 1044.95 827.729 1049.82L826.709 1052.38C828.949 1054.7 831.519 1057.04 834.509 1059.26C836.859 1061 840.719 1067.15 836.999 1069.16C834.149 1070.7 819.469 1063.39 815.769 1059.33C815.769 1059.33 815.749 1059.31 815.739 1059.3C815.529 1059.07 815.339 1058.83 815.159 1058.58C813.899 1057.7 813.009 1057.04 813.019 1056.96C813.049 1056.58 813.389 1056.08 813.869 1055.63C813.829 1055.43 813.789 1055.22 813.759 1055.02C812.439 1053.76 811.379 1052.43 811.989 1051.87C812.399 1051.5 813.119 1051.56 813.909 1051.82C814.269 1049.9 814.799 1047.55 815.549 1045.05C815.549 1045.05 815.569 1045.01 815.569 1044.98C816.399 1042.25 817.499 1039.35 818.949 1036.69C822.569 1028.94 826.729 1023.1 830.229 1019.53C830.229 1019.53 833.899 1015.92 838.949 1012.68L837.759 1011.71C838.749 1011.61 839.759 1011.57 840.769 1011.56C842.439 1010.59 844.229 1009.71 846.049 1009.03L844.799 1011.75" fill="#100E0E"/>
<path d="M1163.5 1038.62C1167.18 1032.15 1162.96 1024.16 1161.31 1021.48C1161.16 1021.28 1161.02 1021.08 1160.87 1020.9C1162.21 1020.49 1163.51 1019.83 1164.23 1019.21C1165.87 1017.8 1166.06 1015.32 1164.65 1013.68C1163.24 1012.04 1160.76 1011.85 1159.12 1013.26C1158.26 1013.99 1157.23 1015.51 1156.63 1017.03C1155.63 1016.53 1154.61 1016.27 1153.44 1016.06C1153.59 1015.62 1153.56 1015.22 1153.34 1014.9C1152.88 1014.23 1151.62 1013.92 1150.12 1013.87C1150.23 1013.2 1150.17 1012.56 1149.7 1012.56C1146.44 1012.56 1140.62 1013.68 1136 1016.76C1135.41 1015.22 1134.36 1013.68 1133.49 1012.94C1131.85 1011.53 1129.37 1011.72 1127.96 1013.36C1126.55 1015 1126.74 1017.48 1128.38 1018.89C1129.12 1019.53 1130.47 1020.21 1131.85 1020.62C1131.7 1020.82 1131.55 1021.03 1131.41 1021.24C1130.34 1022.93 1127.71 1027.58 1127.6 1032.52C1127.6 1032.54 1127.6 1032.55 1127.6 1032.57C1127.58 1033.53 1127.66 1034.51 1127.87 1035.47C1121.31 1049.84 1121.31 1069.06 1128.83 1079.52C1128.83 1079.52 1130.22 1084.37 1146.42 1084.23C1158.04 1084.13 1163.6 1080 1163.6 1080C1174.09 1061.17 1166.12 1043.51 1163.48 1038.63L1163.5 1038.62Z" fill="#100E0E"/>
<path d="M1160.82 1017.15C1160.8 1017.03 1160.27 1014.28 1158.16 1011.47C1156.23 1008.9 1152.57 1005.83 1146.11 1005.83C1139.65 1005.83 1135.96 1008.7 1133.98 1011.11C1131.83 1013.73 1131.22 1016.36 1131.19 1016.47L1131.1 1016.87L1132.99 1017.38L1133.09 1016.95C1133.11 1016.86 1133.66 1014.65 1135.46 1012.46C1137.95 1009.43 1141.53 1007.89 1146.11 1007.89C1150.69 1007.89 1154.18 1009.51 1156.59 1012.7C1158.37 1015.06 1158.88 1017.45 1158.9 1017.55L1158.99 1017.98L1160.89 1017.54L1160.82 1017.14V1017.15Z" fill="#100E0E"/>
<path d="M1131.45 1021.59C1134.13 1021.59 1136.31 1019.41 1136.31 1016.73C1136.31 1014.05 1134.13 1011.87 1131.45 1011.87C1128.77 1011.87 1126.59 1014.05 1126.59 1016.73C1126.59 1019.41 1128.77 1021.59 1131.45 1021.59Z" fill="#100E0E"/>
<path d="M1160.85 1021.59C1163.53 1021.59 1165.71 1019.41 1165.71 1016.73C1165.71 1014.05 1163.53 1011.87 1160.85 1011.87C1158.17 1011.87 1155.99 1014.05 1155.99 1016.73C1155.99 1019.41 1158.17 1021.59 1160.85 1021.59Z" fill="#100E0E"/>
<path d="M1153.47 1054.95L1133.96 1038.57C1132.34 1036.67 1129.1 1034.34 1125.22 1030.79L1123.2 1028.91C1124.23 1025.86 1125.56 1022.64 1127.31 1019.35C1128.68 1016.77 1129.55 1009.56 1125.33 1009.33C1122.09 1009.16 1111.95 1022.04 1110.35 1027.29C1110.35 1027.3 1110.35 1027.31 1110.34 1027.33C1110.25 1027.62 1110.18 1027.92 1110.13 1028.23C1109.37 1029.57 1108.85 1030.54 1108.89 1030.61C1109.08 1030.94 1109.6 1031.25 1110.23 1031.45C1110.28 1031.65 1110.33 1031.85 1110.39 1032.05C1109.74 1033.75 1109.34 1035.41 1110.14 1035.65C1110.67 1035.81 1111.29 1035.45 1111.89 1034.88C1113.04 1036.46 1114.52 1038.36 1116.27 1040.3C1116.27 1040.3 1116.3 1040.33 1116.32 1040.35C1118.24 1042.47 1120.47 1044.62 1122.92 1046.4C1129.51 1051.85 1135.76 1055.36 1140.45 1057.09C1140.45 1057.09 1145.31 1058.79 1151.26 1059.55L1150.6 1060.93C1151.54 1060.59 1152.47 1060.2 1153.39 1059.78C1155.32 1059.94 1157.3 1059.98 1159.24 1059.81L1156.95 1057.89" fill="#100E0E"/>
<path d="M1138.54 1054.95L1158.05 1038.57C1159.67 1036.67 1162.91 1034.34 1166.79 1030.79L1168.81 1028.91C1167.78 1025.86 1166.45 1022.64 1164.7 1019.35C1163.33 1016.77 1162.46 1009.56 1166.68 1009.33C1169.92 1009.16 1180.06 1022.04 1181.66 1027.29C1181.66 1027.3 1181.66 1027.31 1181.67 1027.33C1181.76 1027.62 1181.83 1027.92 1181.88 1028.23C1182.64 1029.57 1183.16 1030.54 1183.12 1030.61C1182.93 1030.94 1182.41 1031.25 1181.78 1031.45C1181.73 1031.65 1181.68 1031.85 1181.62 1032.05C1182.27 1033.75 1182.67 1035.41 1181.87 1035.65C1181.34 1035.81 1180.72 1035.45 1180.12 1034.88C1178.97 1036.46 1177.49 1038.36 1175.74 1040.3C1175.74 1040.3 1175.71 1040.33 1175.69 1040.35C1173.77 1042.47 1171.54 1044.62 1169.09 1046.4C1162.5 1051.85 1156.25 1055.36 1151.56 1057.09C1151.56 1057.09 1146.7 1058.79 1140.75 1059.55L1141.41 1060.93C1140.47 1060.59 1139.54 1060.2 1138.62 1059.78C1136.69 1059.94 1134.71 1059.98 1132.77 1059.81L1135.06 1057.89" fill="#100E0E"/>
<path d="M1270 1056.47C1274.71 1051.03 1272.22 1042.66 1271.16 1039.81C1271.06 1039.59 1270.96 1039.38 1270.86 1039.18C1272.21 1039.05 1273.56 1038.66 1274.36 1038.21C1276.18 1037.18 1276.83 1034.87 1275.8 1033.05C1274.77 1031.23 1272.46 1030.58 1270.64 1031.61C1269.69 1032.15 1268.42 1033.39 1267.57 1034.72C1266.72 1034.05 1265.8 1033.62 1264.73 1033.2C1264.95 1032.81 1265.01 1032.43 1264.86 1032.08C1264.55 1031.36 1263.41 1030.83 1262 1030.49C1262.23 1029.88 1262.3 1029.25 1261.85 1029.17C1258.76 1028.55 1253.03 1028.52 1248.08 1030.57C1247.81 1029 1247.1 1027.34 1246.42 1026.47C1245.13 1024.82 1242.75 1024.53 1241.1 1025.83C1239.45 1027.12 1239.16 1029.5 1240.46 1031.15C1241.04 1031.89 1242.19 1032.79 1243.42 1033.44C1243.24 1033.6 1243.06 1033.77 1242.88 1033.95C1241.55 1035.35 1238.18 1039.26 1237.14 1043.93C1237.14 1043.95 1237.14 1043.96 1237.13 1043.98C1236.93 1044.89 1236.82 1045.83 1236.84 1046.78C1227.91 1059.16 1224.29 1077.39 1229.44 1088.72C1229.44 1088.72 1229.84 1093.58 1245.22 1096.5C1256.25 1098.6 1262.31 1095.73 1262.31 1095.73C1275.81 1079.86 1271.58 1061.61 1270 1056.49V1056.47Z" fill="#100E0E"/>
<path d="M1285.66 1081.87C1285.66 1081.66 1285.66 1081.46 1285.64 1081.25C1286.68 1079.75 1287.46 1078.24 1286.75 1077.81C1286.27 1077.52 1285.58 1077.73 1284.86 1078.14C1284.13 1076.33 1283.15 1074.13 1281.91 1071.83C1281.91 1071.83 1281.89 1071.79 1281.87 1071.77C1280.52 1069.25 1278.87 1066.63 1276.92 1064.31C1271.84 1057.43 1266.61 1052.52 1262.48 1049.71C1262.48 1049.71 1258.17 1046.89 1252.58 1044.72L1253.55 1043.54C1252.56 1043.64 1251.56 1043.79 1250.57 1043.99C1248.74 1043.37 1246.82 1042.86 1244.9 1042.55L1246.66 1044.97C1240.52 1046.82 1235.58 1049.65 1235.58 1049.65C1231.28 1052.21 1225.78 1056.81 1220.3 1063.38C1218.22 1065.58 1216.42 1068.1 1214.92 1070.54C1214.91 1070.56 1214.89 1070.58 1214.88 1070.6C1213.51 1072.83 1212.4 1074.97 1211.57 1076.73C1210.87 1076.28 1210.2 1076.04 1209.7 1076.29C1208.96 1076.67 1209.65 1078.23 1210.61 1079.79C1210.59 1080 1210.57 1080.2 1210.56 1080.41C1209.97 1080.72 1209.52 1081.12 1209.39 1081.48C1209.36 1081.56 1210.05 1082.42 1211.04 1083.59C1211.15 1083.88 1211.27 1084.16 1211.41 1084.43C1211.41 1084.44 1211.42 1084.45 1211.43 1084.46C1213.97 1089.33 1226.3 1100.14 1229.45 1099.37C1233.55 1098.37 1231.38 1091.44 1229.56 1089.16C1227.24 1086.25 1225.34 1083.33 1223.77 1080.52L1225.41 1078.3C1228.57 1074.1 1231.32 1071.22 1232.57 1069.05L1249.33 1048.65L1264.32 1069.25C1265.44 1071.49 1268.02 1074.52 1270.93 1078.9L1272.43 1081.21C1270.7 1083.93 1268.63 1086.73 1266.14 1089.5C1264.18 1091.67 1261.61 1098.46 1265.65 1099.7C1268.75 1100.65 1281.7 1090.59 1284.52 1085.87C1284.52 1085.86 1284.53 1085.85 1284.54 1085.84C1284.7 1085.58 1284.84 1085.3 1284.96 1085.02C1286.02 1083.91 1286.76 1083.09 1286.74 1083.01C1286.63 1082.64 1286.21 1082.22 1285.64 1081.87H1285.66Z" fill="#100E0E"/>
<path opacity="0.3" d="M1329.24 1168.75L1261.47 1179.21H1252.94L1204.41 1188.79C1204.41 1188.79 1193.21 1187.75 1199.88 1183.75C1206.55 1179.75 1219.35 1176.28 1219.35 1176.28L1248.15 1167.75C1248.15 1167.75 1267.62 1171.75 1276.68 1170.15L1314.28 1167.75L1310.55 1163.48C1310.55 1163.48 1316.53 1164.51 1319.29 1165.11C1322.09 1165.72 1326.36 1167.98 1326.36 1167.98L1329.25 1168.75H1329.24Z" fill="#FF8A2C"/>
<path opacity="0.3" d="M1334.64 1170.81L1257.73 1187.48H1251.82L1220.93 1195.75C1220.93 1195.75 1241.73 1203.75 1258 1198.68C1274.27 1193.61 1266.97 1190.9 1277.55 1188.79C1288.13 1186.68 1301.46 1186.58 1301.46 1186.58L1298.26 1182.94L1342.31 1173.76C1342.31 1173.76 1336.06 1171.42 1334.64 1170.8V1170.81Z" fill="#FF8A2C"/>
<path d="M693.71 1087.79L681.6 1083.34V1152.09H693.71V1087.79Z" fill="#100E0E"/>
<path d="M1102.47 1066.51L1090.37 1062.06V1130.81H1102.47V1066.51Z" fill="#100E0E"/>
<path d="M1298.14 1090.81L1286.03 1086.36V1155.11H1298.14V1090.81Z" fill="#100E0E"/>
<path d="M1203.8 1072.84L1191.69 1068.39V1137.15H1203.8V1072.84Z" fill="#100E0E"/>
<path d="M903.331 1066.51L891.221 1062.06V1130.81H903.331V1066.51Z" fill="#100E0E"/>
<path d="M781.787 1074.2L686.447 1099.26L688.985 1108.92L784.325 1083.85L781.787 1074.2Z" fill="#100E0E"/>
<path d="M921.339 1070.84L791.189 1073.75L791.669 1083.72L921.819 1080.81L923.279 1076.46L917.549 1073.59L921.339 1070.84Z" fill="#100E0E"/>
<path d="M781.789 1099.22L686.449 1124.28L688.987 1133.93L784.327 1108.87L781.789 1099.22Z" fill="#100E0E"/>
<path d="M921.05 1095.87L790.9 1098.78L791.38 1108.75L921.53 1105.84L917.15 1103.33L922.62 1101.06L921.05 1095.87Z" fill="#100E0E"/>
<path d="M1196.8 1089.25L1292.14 1114.32L1294.68 1104.66L1199.34 1079.6L1196.8 1089.25Z" fill="#100E0E"/>
<path d="M1074.22 1076.74L1193.88 1079.15L1193.4 1089.12L1073.75 1086.71L1077.28 1082.93L1073.28 1079.99L1074.22 1076.74Z" fill="#100E0E"/>
<path d="M1196.8 1114.26L1292.14 1139.33L1294.68 1129.68L1199.34 1104.61L1196.8 1114.26Z" fill="#100E0E"/>
<path d="M1074.39 1101.77L1194.05 1104.18L1193.58 1114.15L1073.92 1111.74L1071.82 1109.33L1077.82 1104.53L1074.39 1101.77Z" fill="#100E0E"/>
<path d="M717.47 1121.67C722.424 1121.67 726.44 1112.76 726.44 1101.77C726.44 1090.78 722.424 1081.87 717.47 1081.87C712.516 1081.87 708.5 1090.78 708.5 1101.77C708.5 1112.76 712.516 1121.67 717.47 1121.67Z" fill="#100E0E"/>
<path d="M737.13 1118.67C742.084 1118.67 746.1 1109.76 746.1 1098.77C746.1 1087.78 742.084 1078.87 737.13 1078.87C732.176 1078.87 728.16 1087.78 728.16 1098.77C728.16 1109.76 732.176 1118.67 737.13 1118.67Z" fill="#100E0E"/>
<path d="M1138.04 1111.19C1142.99 1111.19 1147.01 1102.28 1147.01 1091.29C1147.01 1080.3 1142.99 1071.39 1138.04 1071.39C1133.09 1071.39 1129.07 1080.3 1129.07 1091.29C1129.07 1102.28 1133.09 1111.19 1138.04 1111.19Z" fill="#100E0E"/>
<path d="M1157.7 1108.19C1162.65 1108.19 1166.67 1099.28 1166.67 1088.29C1166.67 1077.3 1162.65 1068.39 1157.7 1068.39C1152.75 1068.39 1148.73 1077.3 1148.73 1088.29C1148.73 1099.28 1152.75 1108.19 1157.7 1108.19Z" fill="#100E0E"/>
<path d="M1263.14 1126.18C1268.09 1126.18 1272.11 1117.27 1272.11 1106.28C1272.11 1095.29 1268.09 1086.38 1263.14 1086.38C1258.19 1086.38 1254.17 1095.29 1254.17 1106.28C1254.17 1117.27 1258.19 1126.18 1263.14 1126.18Z" fill="#100E0E"/>
<path d="M1246.41 1123.17C1251.36 1123.17 1255.38 1114.26 1255.38 1103.27C1255.38 1092.28 1251.36 1083.37 1246.41 1083.37C1241.46 1083.37 1237.44 1092.28 1237.44 1103.27C1237.44 1114.26 1241.46 1123.17 1246.41 1123.17Z" fill="#100E0E"/>
<path opacity="0.3" d="M688.74 1168.04C691.11 1169.66 693.41 1171.47 696.1 1172.47C698.62 1173.41 701.35 1173.59 704 1174.08C714.98 1176.11 725.55 1183.53 736.37 1180.78C741.41 1179.5 745.93 1176.05 751.14 1175.99C759.42 1175.89 765.12 1183.99 772.34 1188.04C779.64 1192.13 788.48 1191.97 796.85 1191.86C809.04 1191.7 821.42 1191.9 833.13 1195.27C842.81 1198.06 851.73 1202.93 861.12 1206.59C881.04 1214.35 903.1 1216.5 924.14 1212.74C925.54 1212.49 927 1212.18 928.09 1211.28C929.36 1210.22 929.91 1208.54 930.29 1206.94C934.42 1189.76 927.12 1171.57 930.24 1154.18C930.87 1150.64 931.94 1147.13 931.83 1143.53C931.71 1139.93 930.1 1136.09 926.82 1134.6C925.34 1133.93 923.67 1133.8 922.05 1133.68C905.55 1132.55 897.82 1128.9 881.29 1129.58C877.53 1129.73 871.87 1130.07 868.12 1129.79C865.27 1129.58 856.78 1127.47 853.94 1127.14C849.1 1126.56 844.15 1128.27 839.3 1127.87C829.56 1127.06 815.81 1126.4 806.5 1126.1C798.24 1125.83 792.44 1126.63 784.32 1128.18C779.31 1129.13 772.69 1129.82 767.7 1130.83C748.02 1134.81 752.9 1128 728.18 1137.14C719.32 1140.42 712.06 1146.53 706.24 1148.34C699.88 1150.31 694.9 1152.35 688.24 1152.2C683.55 1152.09 668.5 1153.03 666.84 1158.33C674.42 1161.42 681.83 1163.31 688.76 1168.06L688.74 1168.04Z" fill="#FF8A2C"/>
<path d="M895.83 1136.11C904.21 1148.65 912.63 1161.25 922.75 1172.43C923.62 1173.39 933.37 1184.53 934.49 1185.19C937.03 1186.69 931.34 1176.18 934.27 1175.8C935.12 1173.12 933.35 1170.39 931.67 1168.13C923.76 1157.5 915.85 1146.87 907.94 1136.24C906.68 1134.55 905.06 1130.73 903.33 1129.52C901.23 1128.06 894.64 1126.88 892.08 1127.94C889.08 1129.18 894.46 1134.05 895.83 1136.1V1136.11Z" fill="#100E0E"/>
<path d="M799.449 1148.23C802.679 1151.78 805.759 1155.47 808.949 1159.06C814.139 1164.9 819.609 1170.48 825.089 1176.05C833.529 1184.64 841.959 1193.23 850.399 1201.82C855.889 1207.41 862.479 1213.43 870.279 1212.77C868.969 1209.34 867.209 1206.08 865.069 1203.09C862.689 1199.77 859.849 1196.81 857.019 1193.86C847.069 1183.48 837.119 1173.1 827.169 1162.72C819.279 1154.49 811.389 1146.25 803.499 1138.02C800.379 1134.76 794.989 1131.66 790.909 1129.74C787.539 1128.15 782.439 1127.26 780.189 1130.82C786.259 1136.96 793.609 1141.8 799.459 1148.24L799.449 1148.23Z" fill="#100E0E"/>
<path d="M720.54 1186.73C715.51 1188.13 709.63 1189.39 705.47 1186.24C703.03 1184.39 701.79 1181.42 700.54 1178.63C695.97 1168.36 690.05 1158.69 682.98 1149.95C687.93 1149.92 690.5 1146.53 694.18 1149.61C697.88 1152.7 700.851 1158.17 703.701 1162.04C705.341 1164.26 719.641 1186.98 720.531 1186.73H720.54Z" fill="#100E0E"/>
<path d="M729.8 1174.88C748.31 1169.24 766.83 1163.61 785.34 1157.97C790.54 1156.39 795.76 1154.8 801.14 1154.09C811.53 1152.72 822.03 1154.67 832.43 1155.95C855.47 1158.79 878.76 1158.35 901.97 1158.11C905.96 1158.07 910.02 1158.04 913.82 1159.26C917.62 1160.47 921.17 1163.16 922.37 1166.96C894.23 1165 866 1164.49 837.81 1165.41C833.8 1165.54 829.77 1165.7 825.79 1165.21C821.68 1164.7 817.65 1163.49 813.51 1163.31C808.51 1163.09 803.57 1164.36 798.73 1165.62C778.06 1171 757.4 1176.38 736.73 1181.76C732.48 1182.87 728.15 1183.98 723.76 1183.8C720.02 1183.64 714.02 1182.18 712.68 1178.34C718.52 1177.44 724.06 1176.63 729.79 1174.89L729.8 1174.88Z" fill="#100E0E"/>
<path opacity="0.3" d="M1059.75 1149.58C1059.62 1148.46 1059.48 1147.29 1059.87 1146.23C1060.26 1145.16 1061.13 1144.33 1062.03 1143.64C1070.23 1137.33 1077.72 1131.94 1088.06 1132.1C1111.71 1132.45 1137.44 1122.79 1160.85 1126.15C1169.43 1127.38 1176.51 1129.06 1185.08 1130.41C1193.85 1131.79 1201.46 1131.49 1210.29 1132.43C1219.12 1133.37 1229.36 1134.45 1236.24 1140.07C1238.51 1141.92 1244.58 1146.77 1247.27 1147.93C1253.28 1150.52 1257.23 1149.32 1264.58 1146.97C1265.13 1148.85 1262.73 1150.82 1260.99 1149.91C1261.2 1152.09 1264.19 1152.47 1266.38 1152.3C1268.57 1152.13 1271.6 1152.8 1271.51 1154.99C1271.45 1156.39 1270.02 1157.29 1268.72 1157.82C1254.26 1163.75 1238.18 1155.34 1222.57 1154.75C1213.74 1154.42 1205.02 1156.63 1196.63 1159.39C1175.05 1166.5 1154.85 1177.34 1133.26 1184.39C1111.66 1191.44 1087.55 1194.46 1066.56 1185.75C1058.52 1182.41 1056.07 1178.33 1056.92 1170.45C1057.93 1161.04 1060.84 1158.95 1059.75 1149.58Z" fill="#FF8A2C"/>
<path d="M1097.33 1135.55C1087.66 1149.11 1077.94 1162.73 1066.27 1174.83C1065.27 1175.87 1054.01 1187.92 1052.73 1188.63C1049.8 1190.25 1056.36 1178.89 1052.98 1178.48C1052 1175.59 1054.04 1172.63 1055.98 1170.19C1065.11 1158.7 1081.24 1141.37 1090.37 1129.87C1091.82 1128.04 1090.37 1129.87 1092.29 1128.09C1094.41 1126.12 1096.79 1127.1 1099.75 1128.25C1103.21 1129.59 1098.92 1133.33 1097.34 1135.55H1097.33Z" fill="#100E0E"/>
<path d="M1183.98 1150.12C1180.75 1153.67 1177.67 1157.36 1174.48 1160.95C1169.29 1166.79 1163.82 1172.37 1158.34 1177.94C1149.9 1186.53 1141.47 1195.12 1133.03 1203.71C1127.54 1209.3 1120.95 1215.32 1113.15 1214.66C1114.46 1211.23 1116.22 1207.97 1118.36 1204.98C1120.74 1201.66 1123.58 1198.7 1126.41 1195.75C1136.36 1185.37 1146.31 1174.99 1156.26 1164.61C1164.15 1156.38 1172.04 1148.14 1179.93 1139.91C1183.05 1136.65 1186.27 1133.32 1190.36 1131.4C1193.73 1129.81 1200.45 1128.66 1202.71 1132.23C1196.64 1138.37 1189.83 1143.69 1183.98 1150.13V1150.12Z" fill="#100E0E"/>
<path d="M1220.33 1161.15C1201.82 1155.51 1208.41 1158.36 1189.9 1152.73C1184.7 1151.15 1179.48 1149.56 1174.1 1148.85C1163.71 1147.48 1153.21 1149.43 1142.81 1150.71C1119.77 1153.55 1096.48 1153.11 1073.27 1152.87C1069.28 1152.83 1065.22 1152.8 1061.42 1154.02C1057.62 1155.24 1054.07 1157.92 1052.87 1161.72C1081.01 1159.76 1109.24 1159.25 1137.43 1160.17C1141.44 1160.3 1145.47 1160.46 1149.45 1159.97C1153.56 1159.46 1157.59 1158.25 1161.73 1158.07C1166.73 1157.85 1171.67 1159.12 1176.51 1160.38C1197.18 1165.76 1192.74 1162.66 1213.4 1168.04C1217.65 1169.15 1221.98 1170.26 1226.37 1170.08C1230.11 1169.92 1236.11 1168.46 1237.45 1164.62C1231.61 1163.72 1226.07 1162.91 1220.34 1161.17L1220.33 1161.15Z" fill="#100E0E"/>
<path d="M792.63 1159.75C811.33 1154.57 830.89 1153.55 850.27 1152.56C877.41 1151.18 908.69 1151.47 926.3 1172.17C931.04 1177.74 934.37 1184.43 939.38 1189.76C954.45 1205.78 979.59 1205.29 1001.52 1203.63C1017.38 1202.43 1033.37 1201.21 1048.65 1196.79C1056.05 1194.65 1063.24 1191.77 1070.71 1189.89C1089.81 1185.08 1110.56 1187.08 1128.38 1195.47C1147.49 1204.46 1164 1223.35 1162.22 1244.4C1160.92 1259.81 1149.94 1273.17 1136.51 1280.83C1123.08 1288.49 1107.44 1291.26 1092.05 1292.74C1042.72 1297.49 993.11 1290.36 944.07 1283.24C919.42 1279.66 894.65 1276.06 870.8 1268.88C844.08 1260.84 818.91 1248.43 793.89 1236.08C778.27 1228.37 752.5 1216.54 746.81 1198.16C740.57 1178.04 776.58 1164.2 792.62 1159.76L792.63 1159.75Z" fill="#100E0E"/>
<path d="M1175.41 1156.75C1156.71 1151.57 1136.14 1153.56 1116.77 1152.57C1089.63 1151.19 1058.35 1151.48 1040.74 1172.18C1036 1177.75 1032.67 1184.44 1027.66 1189.77C1012.59 1205.79 987.449 1205.3 965.519 1203.64C949.659 1202.44 933.669 1201.22 918.389 1196.8C910.989 1194.66 903.799 1191.78 896.329 1189.9C877.229 1185.09 856.479 1187.09 838.659 1195.48C819.549 1204.47 803.039 1223.36 804.819 1244.41C806.119 1259.82 817.099 1273.18 830.529 1280.84C843.959 1288.5 859.599 1291.27 874.989 1292.75C924.319 1297.5 973.929 1290.37 1022.97 1283.25C1047.62 1279.67 1072.39 1276.07 1096.24 1268.89C1122.96 1260.85 1148.13 1248.44 1173.15 1236.09C1188.77 1228.38 1214.54 1216.55 1220.23 1198.17C1226.47 1178.05 1191.46 1161.21 1175.42 1156.76L1175.41 1156.75Z" fill="#100E0E"/>
<path d="M792.29 1066.51L780.18 1062.06V1130.81H792.29V1066.51Z" fill="#100E0E"/>
<path d="M1329 1169.87L1409.01 832.951L1419.04 828.712L1334.87 1170.52L1329 1169.87Z" fill="#100E0E"/>
<path d="M1409.48 858.244L1408.13 863.5L1426.28 868.592L1427.32 862.886L1409.48 858.244Z" fill="#100E0E"/>
<path d="M1377.14 986.061L1396.7 991.308L1397.75 985.602L1378.43 980.857L1377.14 986.061Z" fill="#100E0E"/>
<path d="M1389.13 938.742L1387.76 944.174L1403.45 948.401L1406.79 942.948L1389.13 938.742Z" fill="#100E0E"/>
<path d="M1399.45 898.061L1398.01 903.546L1412.09 907.297L1415.31 901.831L1399.45 898.061Z" fill="#100E0E"/>
<path d="M1464.55 851.426L1425.54 1016.47L1386.5 1007.24L1425.51 842.199L1464.55 851.426ZM1402.46 996.872L1400.61 999.036L1403.37 999.689L1405.21 997.524L1409.62 992.327L1411.24 998.949L1411.92 1001.71L1414.68 1002.36L1414 999.601L1410.9 986.91L1402.46 996.872ZM1406.93 975.888L1409.39 976.47L1410.89 970.128L1413.35 970.709C1414.23 970.918 1414.89 971.573 1415.16 972.384L1415.19 972.516L1415.9 975.41L1416.58 978.17L1419.34 978.822L1418.66 976.061L1417.61 971.676C1418 971.725 1418.37 971.71 1418.75 971.632C1420.17 971.343 1421.36 970.253 1421.71 968.755C1421.96 967.731 1421.76 966.707 1421.26 965.859C1420.74 965.032 1419.91 964.399 1418.89 964.157L1410.18 962.099L1406.93 975.888ZM1418.31 966.619C1418.74 966.721 1418.99 966.988 1419.11 967.183C1419.22 967.354 1419.38 967.725 1419.27 968.178C1419.16 968.671 1418.75 969.054 1418.25 969.144C1418.08 969.185 1417.89 969.183 1417.71 969.141L1411.46 967.685L1412.06 965.144L1418.31 966.619ZM1414.69 940.075L1420.34 941.412L1417.67 952.738L1420.13 953.32L1422.81 941.993L1428.46 943.329L1429.04 940.867L1415.27 937.613L1414.69 940.075ZM1425.22 915.282C1423.17 914.799 1421.12 916.082 1420.64 918.13L1420.62 918.209C1420.43 918.997 1420.5 919.781 1420.77 920.47C1420.86 920.719 1420.97 920.954 1421.1 921.173C1421.62 921.981 1422.43 922.59 1423.44 922.827L1428.4 924C1429.45 924.247 1430.11 925.299 1429.87 926.343C1429.62 927.387 1428.55 928.029 1427.51 927.782L1423.19 926.763C1422.15 926.516 1421.5 925.468 1421.75 924.424L1419.29 923.843C1418.72 926.246 1420.21 928.657 1422.61 929.226L1426.93 930.245C1429.33 930.813 1431.74 929.323 1432.31 926.92C1432.56 925.876 1432.41 924.823 1431.98 923.93C1431.93 923.857 1431.91 923.788 1431.86 923.715C1431.28 922.662 1430.26 921.84 1428.98 921.537L1424.02 920.365C1423.33 920.202 1422.89 919.496 1423.06 918.806L1423.08 918.727C1423.24 918.038 1423.95 917.602 1424.63 917.764L1430.23 919.087C1430.92 919.25 1431.35 919.956 1431.19 920.645L1431.17 920.724L1433.64 921.286L1433.66 921.207C1434.14 919.159 1432.86 917.088 1430.82 916.604L1425.22 915.282ZM1425.96 892.389L1431.61 893.725L1428.94 905.052L1431.4 905.634L1434.08 894.307L1439.73 895.643L1440.31 893.181L1426.54 889.926L1425.96 892.389ZM1444.08 875.091C1444.06 875.099 1444.05 875.107 1444.03 875.125C1444 875.158 1443.99 875.183 1443.96 875.214C1443.94 875.28 1443.9 875.323 1443.88 875.387C1443.88 875.405 1443.87 875.412 1443.87 875.429C1443.87 875.447 1443.87 875.454 1443.86 875.471C1443.78 875.564 1443.73 875.671 1443.65 875.76C1443.62 875.807 1443.59 875.834 1443.57 875.887C1443.57 875.931 1443.55 875.963 1443.53 875.977C1443.15 876.353 1442.77 876.726 1442.3 876.997C1441.68 877.358 1441.01 877.574 1440.31 877.718C1439.67 877.849 1439.02 877.922 1438.37 878.018C1437.38 878.165 1436.45 878.492 1435.63 879.084C1434.85 879.644 1434.23 880.339 1433.78 881.188C1433.61 881.498 1433.5 881.829 1433.38 882.159C1433.32 882.347 1433.27 882.539 1433.16 882.723C1433.13 883.047 1433.04 883.348 1433.02 883.674C1432.99 883.747 1432.98 883.811 1432.97 883.875C1432.94 884.016 1432.98 884.159 1432.95 884.311C1432.94 884.353 1432.94 884.386 1432.93 884.43C1432.92 884.448 1432.92 884.457 1432.92 884.477C1432.92 884.504 1432.92 884.521 1432.91 884.549C1432.93 884.621 1432.94 884.684 1432.94 884.759C1432.96 884.792 1432.97 884.813 1432.99 884.832C1433 884.834 1433.01 884.84 1433.02 884.844C1433.04 884.856 1433.05 884.862 1433.07 884.863C1433.1 884.859 1433.12 884.855 1433.15 884.847C1433.19 884.829 1433.22 884.796 1433.28 884.798C1433.3 884.796 1433.32 884.796 1433.34 884.792C1433.36 884.774 1433.37 884.762 1433.39 884.743C1433.41 884.725 1433.42 884.717 1433.44 884.706C1433.51 884.677 1433.57 884.658 1433.63 884.599C1433.72 884.565 1433.81 884.558 1433.89 884.529C1434.41 884.354 1434.94 884.251 1435.48 884.232C1436.58 884.193 1437.68 884.112 1438.74 883.788C1440.32 883.306 1441.75 882.557 1442.91 881.353C1443.92 880.312 1444.46 879.071 1444.59 877.634C1444.62 877.263 1444.58 876.894 1444.57 876.512C1444.56 876.488 1444.55 876.475 1444.54 876.444C1444.53 876.296 1444.44 876.174 1444.46 876.02C1444.47 875.855 1444.37 875.736 1444.35 875.579C1444.34 875.482 1444.29 875.413 1444.27 875.322C1444.24 875.268 1444.23 875.205 1444.16 875.186C1444.15 875.141 1444.14 875.098 1444.08 875.091ZM1440.19 879.611C1440.2 879.681 1440.15 879.721 1440.11 879.765C1439.67 880.372 1439.1 880.845 1438.49 881.264C1438.03 881.574 1437.54 881.83 1437.04 882.046C1436.99 882.065 1436.91 882.068 1436.92 882.135C1436.93 882.193 1437.01 882.182 1437.06 882.188C1438.21 882.322 1439.31 882.122 1440.36 881.643C1440.44 881.605 1440.52 881.565 1440.61 881.522C1440.62 881.587 1440.58 881.608 1440.55 881.636C1439.71 882.547 1438.64 883.033 1437.43 883.255C1436.84 883.365 1436.24 883.385 1435.64 883.418C1435.05 883.45 1434.48 883.579 1433.92 883.796C1433.87 883.816 1433.82 883.827 1433.76 883.839C1433.76 883.727 1433.84 883.647 1433.89 883.544C1433.91 883.524 1433.92 883.509 1433.93 883.485C1433.95 883.334 1434.08 883.241 1434.12 883.097C1434.13 883.091 1434.13 883.089 1434.13 883.089C1434.15 883.078 1434.15 883.059 1434.17 883.037C1434.18 883.032 1434.18 883.032 1434.18 883.033C1434.21 883.016 1434.2 882.983 1434.23 882.951C1434.23 882.947 1434.23 882.945 1434.23 882.945C1434.28 882.874 1434.32 882.794 1434.38 882.719C1434.39 882.712 1434.39 882.712 1434.39 882.713C1434.42 882.67 1434.45 882.629 1434.48 882.573C1434.49 882.57 1434.49 882.569 1434.49 882.568C1434.52 882.551 1434.51 882.518 1434.54 882.486C1434.54 882.48 1434.54 882.48 1434.54 882.481C1434.56 882.47 1434.57 882.45 1434.58 882.428C1434.59 882.423 1434.59 882.423 1434.59 882.424C1434.61 882.413 1434.61 882.395 1434.63 882.373C1434.64 882.367 1434.64 882.367 1434.64 882.368C1434.65 882.358 1434.66 882.339 1434.68 882.317C1434.68 882.314 1434.68 882.312 1434.68 882.312C1434.7 882.301 1434.71 882.282 1434.72 882.26C1434.73 882.255 1434.73 882.255 1434.73 882.256C1434.75 882.244 1434.76 882.224 1434.77 882.206C1435.19 881.74 1435.63 881.313 1436.14 880.96C1437.19 880.239 1438.36 879.859 1439.6 879.675C1439.79 879.648 1439.97 879.628 1440.15 879.604C1440.16 879.603 1440.18 879.608 1440.19 879.611ZM1444.37 854.387C1444.29 854.457 1444.2 854.469 1444.1 854.484C1443.98 854.396 1443.91 854.498 1443.81 854.537C1443.78 854.564 1443.75 854.574 1443.72 854.582C1443.34 854.689 1442.97 854.832 1442.63 855.067C1442.59 855.11 1442.54 855.105 1442.49 855.133C1442.36 855.185 1442.25 855.255 1442.14 855.34C1441.78 855.538 1441.45 855.764 1441.12 855.991C1440.66 856.311 1440.23 856.673 1439.84 857.081C1439.72 857.204 1439.58 857.281 1439.42 857.314C1439.08 857.381 1438.75 857.477 1438.43 857.604C1438.33 857.642 1438.23 857.688 1438.11 857.683C1438.01 857.69 1437.94 857.757 1437.86 857.789C1436.97 858.143 1436.13 858.612 1435.36 859.187C1434.42 859.884 1433.61 860.706 1432.93 861.654C1432.8 861.826 1432.73 862.023 1432.61 862.209C1432.6 862.221 1432.59 862.227 1432.58 862.241C1432.56 862.254 1432.55 862.259 1432.54 862.275C1432.5 862.386 1432.4 862.476 1432.47 862.607C1432.44 862.674 1432.42 862.728 1432.4 862.795C1432.41 862.814 1432.42 862.821 1432.43 862.833C1432.46 862.847 1432.47 862.854 1432.5 862.856C1432.52 862.849 1432.53 862.844 1432.54 862.831C1432.56 862.818 1432.56 862.812 1432.58 862.798C1432.6 862.779 1432.61 862.768 1432.63 862.749C1432.64 862.73 1432.65 862.717 1432.66 862.694C1432.69 862.655 1432.72 862.646 1432.76 862.619C1432.79 862.593 1432.82 862.577 1432.85 862.553C1432.86 862.54 1432.87 862.535 1432.88 862.521C1433.07 862.319 1433.28 862.168 1433.49 862.012C1433.53 861.98 1433.59 861.948 1433.64 861.993C1433.68 862.032 1433.67 862.087 1433.64 862.13C1433.61 862.201 1433.6 862.275 1433.6 862.351C1433.6 862.654 1433.48 862.89 1433.28 863.12C1432.69 863.787 1432.23 864.535 1431.93 865.374C1431.83 865.64 1431.72 865.905 1431.71 866.195C1431.7 866.284 1431.68 866.358 1431.61 866.428C1431.61 866.744 1431.56 867.042 1431.53 867.356C1431.52 867.379 1431.52 867.388 1431.53 867.412C1431.57 867.476 1431.56 867.553 1431.62 867.602C1431.64 867.775 1431.66 867.936 1431.67 868.098C1431.69 868.099 1431.7 868.102 1431.71 868.104C1431.73 868.03 1431.76 867.956 1431.79 867.872C1431.87 867.82 1431.9 867.755 1431.91 867.681C1431.92 867.622 1431.92 867.553 1432 867.51C1432.03 867.484 1432.05 867.463 1432.08 867.431C1432.1 867.399 1432.11 867.376 1432.11 867.339C1432.11 867.233 1432.15 867.141 1432.17 867.058C1432.18 867.121 1432.22 867.184 1432.26 867.248C1432.32 867.34 1432.36 867.444 1432.4 867.542C1432.42 867.587 1432.44 867.645 1432.48 867.664C1432.61 867.722 1432.59 867.828 1432.58 867.938C1432.57 868.293 1432.54 868.649 1432.6 869.015C1432.6 869.28 1432.66 869.525 1432.72 869.766C1433.06 870.956 1433.71 871.912 1434.77 872.573C1435.2 872.841 1435.67 873.018 1436.15 873.157C1436.45 873.245 1436.76 873.298 1437.09 873.275C1437.17 873.212 1437.14 873.164 1437.09 873.118C1437.06 873.081 1437.02 873.049 1437 872.995C1436.93 872.814 1436.85 872.638 1436.79 872.444C1436.78 872.426 1436.78 872.419 1436.77 872.402C1436.77 872.385 1436.77 872.379 1436.76 872.363C1436.76 872.348 1436.75 872.342 1436.75 872.328C1436.75 872.313 1436.74 872.308 1436.74 872.294C1436.73 872.281 1436.73 872.275 1436.73 872.262L1436.71 872.199C1436.71 872.186 1436.7 872.18 1436.7 872.166C1436.7 872.152 1436.7 872.147 1436.69 872.133C1436.69 872.118 1436.69 872.112 1436.69 872.098C1436.68 872.076 1436.68 872.064 1436.68 872.042C1436.68 872.026 1436.68 872.02 1436.67 872.004C1436.67 871.988 1436.67 871.981 1436.66 871.964L1436.64 871.844L1436.62 871.762C1436.62 871.717 1436.61 871.683 1436.6 871.638C1436.6 871.62 1436.6 871.613 1436.6 871.595C1436.59 871.539 1436.58 871.495 1436.58 871.439C1436.57 871.42 1436.57 871.412 1436.57 871.392C1436.52 870.918 1436.52 870.454 1436.56 869.978C1436.56 869.956 1436.56 869.947 1436.56 869.924C1436.57 869.758 1436.59 869.605 1436.62 869.457C1436.69 869.092 1436.68 868.716 1436.78 868.353C1436.85 868.081 1436.91 867.805 1437.02 867.529C1437.03 867.489 1437.03 867.463 1437.04 867.424C1437.07 867.315 1437.09 867.218 1437.14 867.116C1437.15 867.083 1437.16 867.06 1437.17 867.024C1437.21 866.864 1437.28 866.725 1437.33 866.567C1437.35 866.535 1437.36 866.514 1437.37 866.48C1437.44 866.308 1437.48 866.138 1437.57 865.976C1437.59 865.939 1437.6 865.911 1437.62 865.871C1437.66 865.778 1437.69 865.692 1437.73 865.599C1437.74 865.582 1437.74 865.575 1437.75 865.558C1437.85 865.341 1437.97 865.143 1438.08 864.931C1438.09 864.914 1438.09 864.908 1438.1 864.892C1438.11 864.871 1438.12 864.859 1438.13 864.838C1438.14 864.825 1438.14 864.819 1438.15 864.805C1438.17 864.787 1438.17 864.776 1438.19 864.758C1438.2 864.745 1438.2 864.74 1438.21 864.727L1438.26 864.648C1438.27 864.63 1438.28 864.62 1438.29 864.601C1438.3 864.589 1438.3 864.583 1438.31 864.57C1438.32 864.558 1438.32 864.553 1438.33 864.54C1438.34 864.528 1438.35 864.523 1438.36 864.51C1438.37 864.493 1438.38 864.483 1438.39 864.465C1438.4 864.453 1438.41 864.448 1438.42 864.435C1438.43 864.416 1438.44 864.405 1438.45 864.387C1438.46 864.374 1438.47 864.369 1438.48 864.356C1438.49 864.338 1438.5 864.327 1438.52 864.308C1438.53 864.294 1438.53 864.289 1438.54 864.275L1438.59 864.212L1438.64 864.152C1438.65 864.14 1438.65 864.134 1438.66 864.122L1438.72 864.061C1438.8 863.98 1438.87 863.906 1438.96 863.843C1439.23 863.631 1439.52 863.45 1439.88 863.427C1440.14 863.41 1440.35 863.502 1440.5 863.754C1440.52 863.787 1440.52 863.793 1440.53 863.808C1440.53 863.823 1440.53 863.829 1440.54 863.844C1440.54 863.866 1440.54 863.879 1440.55 863.901C1440.55 863.918 1440.55 863.924 1440.55 863.942C1440.55 864.01 1440.52 864.071 1440.56 864.124C1440.6 864.175 1440.57 864.195 1440.53 864.225C1440.46 864.275 1440.44 864.353 1440.39 864.431C1440.38 864.446 1440.37 864.452 1440.36 864.467C1440.34 864.492 1440.33 864.509 1440.31 864.536C1440.3 864.55 1440.3 864.556 1440.29 864.571C1440.28 864.59 1440.27 864.601 1440.26 864.619C1440.25 864.631 1440.24 864.637 1440.24 864.649C1440.23 864.661 1440.22 864.666 1440.21 864.677C1440.2 864.688 1440.2 864.692 1440.19 864.703C1440.18 864.713 1440.18 864.718 1440.17 864.728C1440.16 864.738 1440.15 864.743 1440.14 864.754C1440.13 864.765 1440.13 864.769 1440.12 864.78L1440.08 864.834C1440.07 864.845 1440.06 864.849 1440.05 864.86C1440.04 864.871 1440.04 864.876 1440.03 864.887C1440.02 864.899 1440.01 864.904 1440 864.915C1439.99 864.927 1439.99 864.932 1439.98 864.944C1439.97 864.956 1439.96 864.961 1439.95 864.974C1439.94 864.986 1439.94 864.991 1439.93 865.003C1439.92 865.016 1439.91 865.021 1439.9 865.034L1439.85 865.092C1439.82 865.116 1439.81 865.133 1439.79 865.158C1439.78 865.172 1439.78 865.178 1439.77 865.193C1439.75 865.207 1439.75 865.214 1439.74 865.228C1439.73 865.242 1439.72 865.248 1439.71 865.262L1439.65 865.328C1439.61 865.381 1439.57 865.423 1439.53 865.478C1439.52 865.492 1439.51 865.499 1439.5 865.514C1439.49 865.535 1439.48 865.547 1439.46 865.568C1439.45 865.582 1439.45 865.588 1439.44 865.602C1439.42 865.623 1439.41 865.635 1439.4 865.655C1439.39 865.67 1439.38 865.676 1439.37 865.691C1439.36 865.711 1439.35 865.723 1439.33 865.743C1439.32 865.758 1439.32 865.765 1439.31 865.78C1439.25 865.871 1439.2 865.956 1439.14 866.047C1439.12 866.063 1439.12 866.069 1439.11 866.086C1439.07 866.15 1439.03 866.204 1439.01 866.268C1439 866.312 1439.02 866.362 1438.97 866.393C1438.85 866.453 1438.81 866.567 1438.74 866.684C1438.7 866.797 1438.65 866.896 1438.59 866.989C1438.02 867.905 1437.63 868.901 1437.36 869.942C1437.26 870.309 1437.18 870.682 1437.12 871.058C1437.04 871.536 1436.99 872.015 1436.98 872.515C1436.96 872.666 1437.05 872.701 1437.17 872.722C1437.34 872.551 1437.41 872.33 1437.48 872.122C1437.59 871.738 1437.7 871.352 1437.79 870.96C1437.87 870.585 1437.95 870.209 1438.07 869.842C1438.24 869.293 1438.46 868.762 1438.69 868.239C1438.86 867.866 1439.01 867.482 1439.21 867.124C1439.46 866.67 1439.72 866.22 1440.02 865.775C1440.04 865.755 1440.04 865.747 1440.06 865.729C1440.07 865.713 1440.08 865.707 1440.09 865.693C1440.1 865.68 1440.11 865.675 1440.12 865.663C1440.14 865.652 1440.14 865.648 1440.16 865.637C1440.17 865.627 1440.17 865.623 1440.19 865.613C1440.2 865.603 1440.2 865.598 1440.22 865.586C1440.23 865.574 1440.23 865.569 1440.25 865.556C1440.32 865.483 1440.39 865.413 1440.49 865.37C1440.53 865.345 1440.57 865.361 1440.61 865.33C1440.63 865.321 1440.63 865.317 1440.65 865.309C1440.66 865.289 1440.67 865.274 1440.69 865.262C1440.76 865.217 1440.82 865.213 1440.89 865.229C1441.16 865.041 1441.46 864.989 1441.75 864.949C1442.5 864.849 1443.2 865.029 1443.88 865.324C1444.5 865.59 1445.11 865.861 1445.77 865.984C1446.33 866.087 1446.89 866.099 1447.43 865.916C1447.62 865.855 1447.78 865.771 1447.97 865.686C1448.09 865.664 1448.18 865.617 1448.27 865.55C1448.4 865.453 1448.52 865.351 1448.67 865.259C1448.73 865.223 1448.77 865.17 1448.81 865.127L1448.89 865.062C1448.92 865.034 1448.93 865 1448.91 864.951C1448.95 864.91 1448.97 864.877 1449.01 864.839C1449.03 864.828 1449.03 864.822 1449.04 864.809C1449.07 864.778 1449.08 864.757 1449.1 864.726C1449.12 864.677 1449.13 864.637 1449.15 864.586C1449.15 864.505 1449.11 864.473 1449.04 864.439C1448.91 864.364 1448.84 864.239 1448.71 864.162C1448.57 864.06 1448.41 863.987 1448.31 863.836C1448.29 863.804 1448.26 863.8 1448.23 863.791C1448.18 863.786 1448.16 863.773 1448.12 863.754C1448.06 863.73 1448.02 863.698 1447.99 863.64C1447.94 863.626 1447.93 863.575 1447.89 863.567C1447.77 863.505 1447.67 863.445 1447.57 863.371C1446.85 862.801 1446.35 862.077 1446.1 861.188C1446.02 860.878 1445.91 860.576 1445.77 860.286C1445.73 860.218 1445.68 860.158 1445.68 860.055C1445.7 859.952 1445.72 859.872 1445.7 859.789C1445.65 859.596 1445.72 859.446 1445.86 859.308C1446.13 859.058 1446.38 858.79 1446.58 858.483C1446.62 858.416 1446.67 858.35 1446.74 858.291C1446.93 857.984 1447.13 857.688 1447.34 857.39C1447.35 857.318 1447.39 857.268 1447.42 857.202C1447.5 857.112 1447.5 856.991 1447.6 856.917C1447.64 856.779 1447.74 856.674 1447.76 856.526C1447.75 856.476 1447.75 856.439 1447.76 856.39C1447.75 856.369 1447.75 856.361 1447.73 856.348C1447.7 856.346 1447.69 856.352 1447.67 856.367C1447.65 856.38 1447.64 856.385 1447.62 856.391C1447.53 856.362 1447.45 856.34 1447.36 856.384C1447.19 856.435 1447.03 856.458 1446.87 856.523C1446.58 856.594 1446.3 856.653 1446.03 856.766C1445.88 856.794 1445.75 856.844 1445.62 856.889C1445.44 856.95 1445.27 857.052 1445.09 856.885C1445.08 856.872 1445.05 856.872 1445.03 856.867C1444.91 856.834 1444.8 856.769 1444.73 856.661C1444.69 856.598 1444.63 856.548 1444.56 856.507C1444.51 856.47 1444.45 856.45 1444.39 856.48C1444.46 856.346 1444.42 856.173 1444.51 856.021C1444.53 855.937 1444.54 855.861 1444.53 855.772C1444.53 855.733 1444.53 855.706 1444.53 855.666C1444.52 855.443 1444.57 855.237 1444.57 855.015C1444.57 854.894 1444.59 854.787 1444.58 854.665C1444.57 854.599 1444.57 854.541 1444.5 854.503C1444.49 854.418 1444.44 854.388 1444.37 854.387Z" fill="#100E0E"/>
</g>
<defs>
<clipPath id="clip0_331_6518">
<rect width="1958.4" height="1294.28" fill="white"/>
</clipPath>
</defs>
</svg>
