<?xml version="1.0" encoding="UTF-8"?><svg
  id="Layer_1"
  xmlns="http://www.w3.org/2000/svg"
  width="1958.4"
  height="1294.28"
  viewBox="0 0 1958.4 1294.28"
>
  <defs>
    <style>
      .cls-1 {
        fill: #ff8a2c;
        opacity: 0.3;
      }
      .cls-2 {
        fill: #100e0e;
      }
    </style>
  </defs>
  <path
    class="cls-2"
    d="M1418.82,938.85l-2.55-.65-2.25,8.79,2.55.65c2.71.7,4.95-.68,5.6-3.21v-.04c.66-2.53-.64-4.85-3.35-5.54Z"
  />
  <path
    class="cls-2"
    d="M1426.77,834.87l-4.4,17.25-9.78-2.72,7.32-29.7-7.37,4.19-89.15,374,4.5.22,53.59-222.52,8.72,2.52-4.11,16.08,35.46,9.34,39.79-161.19-34.56-7.48ZM1448.61,848.1l.55,1.82-8.65-2.07-.52-1.81,8.62,2.07ZM1439.19,845.7l1.21,4.09h0l.59,1.98-1.3,1.37-1.75-5.9h0s-.59-1.98-.59-1.98l1.84.44ZM1438.12,855.87l2.14-2.26.34-.36,1.93-2.03,1.84.44-1.92,2.02-2.48,2.62-1.93,2.03-.54-1.81.62-.65h0ZM1436.63,845.08l2.55,8.61-1.31,1.36-2.54-8.58,1.3-1.38ZM1420.99,857.51l-8.57,33.56-9.51-2.45,8.39-34.03,9.68,2.92ZM1402.19,931.12l-9.17-2.36,8.54-34.65,9.39,2.72-8.76,34.3ZM1382.75,970.39l8.93-36.2,9.06,2.62-9.18,35.93-8.81-2.35ZM1412.18,990.22l-2.68-.69-2.15-5.8-4.66,4.06-2.6-.67,6.36-5.38-2.86-7.5,2.68.69,2.01,5.51,4.43-3.86,2.6.67-6.12,5.16,3,7.81ZM1415.97,969.46l-9.58-2.45.52-2.03,9.58,2.45-.52,2.03ZM1417.38,963.95l-9.58-2.45.52-2.03,9.58,2.45-.52,2.03ZM1418.76,958.56l-4.89-1.25-2.42-.62-2.27-.58.52-2.03,9.58,2.45-.52,2.03ZM1424.57,944.96v.04c-.94,3.64-4.47,5.74-8.53,4.7l-4.82-1.24,3.31-12.92,4.82,1.24c4.06,1.04,6.15,4.55,5.22,8.18ZM1425.31,931.57l-9.06-2.32,3.31-12.92,2.27.58-2.78,10.86,6.79,1.74-.53,2.07ZM1431.52,907.94c-.99,3.86-3.66,5.24-7.04,4.37-3.36-.86-5-3.35-4.04-7.1l1.91-7.44,2.27.58-1.88,7.35c-.61,2.4.3,3.99,2.33,4.51,2.01.52,3.56-.37,4.17-2.75l1.91-7.44,2.27.58-1.88,7.33ZM1434.42,894.22c-.75-5.06-.87-5.95-1.74-11.42-3.94,5.12-3.29,4.31-7.02,9.18l-2.33-.6,9.02-11.56,2.1.54,2.35,14.47-2.4-.62ZM1435.92,876.07l-2.01-.52-2.04-14.39,2.51.64,1.35,10.93,6.42-8.94,2.46.63-8.69,11.64ZM1440.6,858.94l-1.85-.43,6.35-6.69,1.83.45-6.33,6.67ZM1447.7,851.91l-.51-.12-5.91-1.42-.53-1.81,2.35.56h0s3.54.85,3.54.85l2.37.57-1.31,1.37Z"
  />
  <path
    class="cls-2"
    d="M928.96,1158.89c.18-5.95.14-11.72,1.32-17.6.76-3.78,1.43-7.59-1.06-10.96-.37-.51-1.31-.65-1.79-.24-.12-.13-.27-.24-.46-.27-3.54-.61-7.04-.25-10.62-.18-5.09.11-10.2-.21-15.28,0-3.81.16-7.23,1.63-11.07,1.74-5.09.15-10.05.19-15.06-.65-4.38-.73-8.84-1.08-13.2-1.87-3.76-.68-6.78-2.22-10.72-1.68-4.56.62-8.71.94-13.33.58-4.98-.39-9.7-1.05-14.72-.89-4.44.15-8.79.22-13.22-.15-4.87-.41-9.76-.99-14.64-.38-3.5.44-6.32,2.18-9.7,2.71-4.68.74-9.17,2.19-13.95,2.29-4.22.09-8.24.82-12.41.99-4.7.19-9.42-.28-14.11.36-3.99.54-7.05,2.78-10.88,3.13-2.97.27-6.5,1.35-9.19,2.56-3.35,1.5-5.59,4.58-8.7,6.42-3.4,2.02-7.95,5.68-12.09,4.83-8.22-1.69-15.64-2.44-23.89-.38-3.89.97-7.66,2.19-11.36,3.63-1.32.51-2.88,1.18-4.37,1.31-1.17.11-2.35-.22-3.52-.08-1.66.2-2.79,1.02-4.17,1.83-2.93,1.72-5.61,3.14-8.28,5.21-3.75,2.92-7.52,3.17-11.86,4.73-1.71.62-3.07,1.67-4.84,2.2-1.61.48-3.26.66-4.82,1.31-4.6,1.91-8.97,4.22-14.01,5.06-8.52,1.43-16.97,3.01-25.5,4.38-4.42.71-9.55,1.63-14.01,1.69-4.31.06-8.3-.16-12.57.5-3.93.61-7.74.29-11.65,1.21-1.63.38-3.18.88-4.74,1.44-3.24,1.15-5.48,1.19-8.8,1.26-3.99.09-6.59,2-9.51,4.31-1.27,1-2.5,1.99-3.53,3.21-1.55,1.81-2.58,4.02-5.09,4.82-1.88.6-4.24.62-6.18.81-2.2.22-4.14.77-6.29,1.29-4.5,1.09-9.05-.05-13.53.96-4.83,1.09-9.65,1.32-14.52,2.25-2.64.5-5.24.97-7.95.99-1.83.01-3.67-.09-5.48.18-2.19.33-4.15,1.19-6.14,2.03-2.67,1.13-4.92,1.37-7.66,2-2.88.66-5.97,3.52-9.08,4.02,0-.23-.02-.46-.02-.69-.01-1.47-2.51-1.48-2.5,0,0,.15,0,.3.01.45-.11-.04-.23-.04-.34-.09-.74-.34-1.4.68-.65,1.03.35.16.69.25,1.03.35.09,3.38.3,6.78.07,10.14-.26,3.82-1.97,7.3-2.33,11.09-.3,3.21-1.6,8.91,2.85,10.16,2.82.79,6-.07,8.9.37,4.03.6,8.09,1.06,12.14,1.57,8.13,1.01,15.45.35,23.32-1.7,2.29-.6,4.65-1.29,7.06-1.26,2.13.03,4.21.62,6.31.87,4.5.53,9.15.54,13.68.74,8.53.36,16.79.26,25.23-.96,3.79-.55,7.59-.37,11.39-.81,5.02-.58,10-1.18,15.06-1.43,4.71-.23,9.14.19,13.8.68,3.82.4,7.63-.04,11.46-.07,3.83-.03,7.66.22,11.47-.31,4.51-.62,8.82-1.1,13.4-.95,8.72.29,17.27,2.02,25.97,2.6,4.17.28,8.32.21,12.49.31,4.34.1,8.62.83,12.97.88,9.73.11,19.45-.45,29.18-.16,4.15.12,8.22.99,12.36,1.06,5.01.09,9.53.05,14.51.93,8.6,1.52,16.58,2.2,25.32,1.2,8.89-1.02,18.18-.56,27.13-.56,9.23,0,18.13,1.01,27.28,1.9,9.51.93,19.78,1.63,29.31.75,9.57-.89,19-1.35,28.54-2.75,5.51-.81,10.31-.44,15.8,0,5.24.42,10.54.47,15.79.69,5.19.22,10.39.1,15.57.31,2.78.11,5.56.31,8.13,1.35,1.96.79,3.47,1.68,5.62,1.96.63.08,1.23-.13,1.42-.74.51-1.58.61-3.18.56-4.77,6.34-4.87,7.57-14.63,8.81-21.46,1.92-10.53,1.74-21.4,1.46-32.05-.3-11.24-1.68-22.31-1.34-33.56Z"
  />
  <path
    class="cls-2"
    d="M1029.44,1158.89c-.18-5.95-.14-11.72-1.32-17.6-.76-3.78-1.43-7.59,1.06-10.96.37-.51,1.31-.65,1.79-.24.12-.13.27-.24.46-.27,3.54-.61,7.04-.25,10.62-.18,5.09.11,10.2-.21,15.28,0,3.81.16,7.23,1.63,11.07,1.74,5.09.15,10.05.19,15.06-.65,4.38-.73,8.84-1.08,13.2-1.87,3.76-.68,6.78-2.22,10.72-1.68,4.56.62,8.71.94,13.33.58,4.98-.39,9.7-1.05,14.72-.89,4.44.15,8.79.22,13.22-.15,4.87-.41,9.76-.99,14.64-.38,3.5.44,6.32,2.18,9.7,2.71,4.68.74,9.17,2.19,13.95,2.29,4.22.09,8.24.82,12.41.99,4.7.19,9.42-.28,14.11.36,3.99.54,7.05,2.78,10.88,3.13,2.97.27,6.5,1.35,9.19,2.56,3.35,1.5,5.59,4.58,8.7,6.42,3.4,2.02,7.95,5.68,12.09,4.83,8.22-1.69,15.64-2.44,23.89-.38,3.89.97,7.66,2.19,11.36,3.63,1.32.51,2.88,1.18,4.37,1.31,1.17.11,2.35-.22,3.52-.08,1.66.2,2.79,1.02,4.17,1.83,2.93,1.72,5.61,3.14,8.28,5.21,3.75,2.92,7.52,3.17,11.86,4.73,1.71.62,3.07,1.67,4.84,2.2,1.61.48,3.26.66,4.82,1.31,4.6,1.91,8.97,4.22,14.01,5.06,8.52,1.43,16.97,3.01,25.5,4.38,4.42.71,9.55,1.63,14.01,1.69,4.31.06,8.3-.16,12.57.5,3.93.61,7.74.29,11.65,1.21,1.63.38,3.18.88,4.74,1.44,3.24,1.15,5.48,1.19,8.8,1.26,3.99.09,6.59,2,9.51,4.31,1.27,1,2.5,1.99,3.53,3.21,1.55,1.81,2.58,4.02,5.09,4.82,1.88.6,4.24.62,6.18.81,2.2.22,4.14.77,6.29,1.29,4.5,1.09,9.05-.05,13.53.96,4.83,1.09,9.65,1.32,14.52,2.25,2.64.5,5.24.97,7.95.99,1.83.01,3.67-.09,5.48.18,2.19.33,4.15,1.19,6.14,2.03,2.67,1.13,4.92,1.37,7.66,2,2.88.66,5.97,3.52,9.08,4.02,0-.23.02-.46.02-.69.01-1.47,2.51-1.48,2.5,0,0,.15,0,.3-.01.45.11-.04.23-.04.34-.09.74-.34,1.4.68.65,1.03-.35.16-.69.25-1.03.35-.09,3.38-.3,6.78-.07,10.14.26,3.82,1.97,7.3,2.33,11.09.3,3.21,1.6,8.91-2.85,10.16-2.82.79-6-.07-8.9.37-4.03.6-8.09,1.06-12.14,1.57-8.13,1.01-15.45.35-23.32-1.7-2.29-.6-4.65-1.29-7.06-1.26-2.13.03-4.21.62-6.31.87-4.5.53-9.15.54-13.68.74-8.53.36-16.79.26-25.23-.96-3.79-.55-7.59-.37-11.39-.81-5.02-.58-10-1.18-15.06-1.43-4.71-.23-9.14.19-13.8.68-3.82.4-7.63-.04-11.46-.07-3.83-.03-7.66.22-11.47-.31-4.51-.62-8.82-1.1-13.4-.95-8.72.29-17.27,2.02-25.97,2.6-4.17.28-8.32.21-12.49.31-4.34.1-8.62.83-12.97.88-9.73.11-19.45-.45-29.18-.16-4.15.12-8.22.99-12.36,1.06-5.01.09-9.53.05-14.51.93-8.6,1.52-16.58,2.2-25.32,1.2-8.89-1.02-18.18-.56-27.13-.56-9.23,0-18.13,1.01-27.28,1.9-9.51.93-19.78,1.63-29.31.75-9.57-.89-19-1.35-28.54-2.75-5.51-.81-10.31-.44-15.8,0-5.24.42-10.54.47-15.79.69-5.19.22-10.39.1-15.57.31-2.78.11-5.56.31-8.13,1.35-1.96.79-3.47,1.68-5.62,1.96-.63.08-1.23-.13-1.42-.74-.51-1.58-.61-3.18-.56-4.77-6.34-4.87-7.57-14.63-8.81-21.46-1.92-10.53-1.74-21.4-1.46-32.05.3-11.24,1.68-22.31,1.34-33.56Z"
  />
  <path
    class="cls-2"
    d="M870.7,1158.89c-.18-5.95-.14-11.72-1.32-17.6-.76-3.78-1.43-7.59,1.06-10.96.37-.51,1.31-.65,1.79-.24.12-.13.27-.24.46-.27,3.54-.61,7.04-.25,10.62-.18,5.09.11,10.2-.21,15.28,0,3.81.16,7.23,1.63,11.07,1.74,5.09.15,10.05.19,15.06-.65,4.38-.73,8.84-1.08,13.2-1.87,3.76-.68,6.78-2.22,10.72-1.68,4.56.62,8.71.94,13.33.58,4.98-.39,9.7-1.05,14.72-.89,4.44.15,8.79.22,13.22-.15,4.87-.41,9.76-.99,14.64-.38,3.5.44,6.32,2.18,9.7,2.71,4.68.74,9.17,2.19,13.95,2.29,4.22.09,8.24.82,12.41.99,4.7.19,9.42-.28,14.11.36,3.99.54,7.05,2.78,10.88,3.13,2.97.27,6.5,1.35,9.19,2.56,3.35,1.5,5.59,4.58,8.7,6.42,3.4,2.02,7.95,5.68,12.09,4.83,8.22-1.69,15.64-2.44,23.89-.38,3.89.97,7.66,2.19,11.36,3.63,1.32.51,2.88,1.18,4.37,1.31,1.17.11,2.35-.22,3.52-.08,1.66.2,2.79,1.02,4.17,1.83,2.93,1.72,5.61,3.14,8.28,5.21,3.75,2.92,7.52,3.17,11.86,4.73,1.71.62,3.07,1.67,4.84,2.2,1.61.48,3.26.66,4.82,1.31,4.6,1.91,8.97,4.22,14.01,5.06,8.52,1.43,16.97,3.01,25.5,4.38,4.42.71,9.55,1.63,14.01,1.69,4.31.06,8.3-.16,12.57.5,3.93.61,7.74.29,11.65,1.21,1.63.38,3.18.88,4.74,1.44,3.24,1.15,5.48,1.19,8.8,1.26,3.99.09,6.59,2,9.51,4.31,1.27,1,2.5,1.99,3.53,3.21,1.55,1.81,2.58,4.02,5.09,4.82,1.88.6,4.24.62,6.18.81,2.2.22,4.14.77,6.29,1.29,4.5,1.09,9.05-.05,13.53.96,4.83,1.09,9.65,1.32,14.52,2.25,2.64.5,5.24.97,7.95.99,1.83.01,3.67-.09,5.48.18,2.19.33,4.15,1.19,6.14,2.03,2.67,1.13,4.92,1.37,7.66,2,2.88.66,5.97,3.52,9.08,4.02,0-.23.02-.46.02-.69.01-1.47,2.51-1.48,2.5,0,0,.15,0,.3-.01.45.11-.04.23-.04.34-.09.74-.34,1.4.68.65,1.03-.35.16-.69.25-1.03.35-.09,3.38-.3,6.78-.07,10.14.26,3.82,1.97,7.3,2.33,11.09.3,3.21,1.6,8.91-2.85,10.16-2.82.79-6-.07-8.9.37-4.03.6-8.09,1.06-12.14,1.57-8.13,1.01-15.45.35-23.32-1.7-2.29-.6-4.65-1.29-7.06-1.26-2.13.03-4.21.62-6.31.87-4.5.53-9.15.54-13.68.74-8.53.36-16.79.26-25.23-.96-3.79-.55-7.59-.37-11.39-.81-5.02-.58-10-1.18-15.06-1.43-4.71-.23-9.14.19-13.8.68-3.82.4-7.63-.04-11.46-.07-3.83-.03-7.66.22-11.47-.31-4.51-.62-8.82-1.1-13.4-.95-8.72.29-17.27,2.02-25.97,2.6-4.17.28-8.32.21-12.49.31-4.34.1-8.62.83-12.97.88-9.73.11-19.45-.45-29.18-.16-4.15.12-8.22.99-12.36,1.06-5.01.09-9.53.05-14.51.93-8.6,1.52-16.58,2.2-25.32,1.2-8.89-1.02-18.18-.56-27.13-.56-9.23,0-18.13,1.01-27.28,1.9-9.51.93-19.78,1.63-29.31.75-9.57-.89-19-1.35-28.54-2.75-5.51-.81-10.31-.44-15.8,0-5.24.42-10.54.47-15.79.69-5.19.22-10.39.1-15.57.31-2.78.11-5.56.31-8.13,1.35-1.96.79-3.47,1.68-5.62,1.96-.63.08-1.23-.13-1.42-.74-.51-1.58-.61-3.18-.56-4.77-6.34-4.87-7.57-14.63-8.81-21.46-1.92-10.53-1.74-21.4-1.46-32.05.3-11.24,1.68-22.31,1.34-33.56Z"
  />
  <path
    class="cls-2"
    d="M1032.72,1144.57c2.6-.93,5.61-2.37,8.8-4.63,0,0,.01-.02.02-.03,0,0,0,0,0,0,0,0,0,0,0,0,.27,1.52,1.03,2.33,2.22,2.29,1.9-.06,3.49-4.29,6.14-9.42.27,2.51,1.14,3.61,2.38,3.06,1.76-.78,1.4-7.34,4.89-14.53,1.39-2.42,2.71-5,3.91-7.72.39-.89.65-1.73.85-2.55,1.99-5.21,5.18-17.38-3.8-26.68,0,0-6.06-10.17-15.34-20.57.94-.41,1.47-1.29,1.47-2.67,0-3.48-6.41-14.35-12.06-21.37-2.04-3.03-3.93-5.71-5.47-7.85-.17-.34-.35-.67-.55-1.01h0c-4.2-5.52-1.22-11.87-6.57-17.17.33-.88.53-1.85.53-2.9,0-3.64-2.27-6.59-5.06-6.59-1.51,0-2.84.87-3.77,2.23-1.14-.85-2.28-1.63-3.41-2.34.08-.66.02-1.26-.24-1.77-.71-1.35-2.66-1.97-4.97-2.08.16-1.24.04-2.35-.64-2.64-5.32-2.26-13.28,2.55-21.08,9.38-.92-1.68-2.42-2.79-4.12-2.79-2.8,0-5.06,2.95-5.06,6.59,0,1.52.41,2.9,1.07,4.02-3.84,4.01.92,8.21-1.87,11.62v-.05s-.19.25-.53.7c-1.1,1.36-2.07,2.6-2.88,3.67h0c-.2.33-.38.67-.55,1-1.12,1.56-2.43,3.41-3.85,5.47-5.75,7.56-12.54,18.51-12.54,22.11,0,1.53.61,2.49,1.76,2.82h0s.03.01.08.02c.09.02.2.02.3.04-10.02,10.88-16.65,22.01-16.65,22.01-11.73,12.16-2.69,29.23-2.69,29.23,1.2,2.73,2.52,5.3,3.91,7.72,3.49,7.2,3.13,13.76,4.89,14.53,1.24.55,2.11-.55,2.38-3.06,2.64,5.13,4.24,9.35,6.14,9.42,1.19.04,1.95-.77,2.22-2.29,0,0,0,0,0,0,0,0,0,0,0,0,0,0,.01.02.02.03,3.31,2.35,6.44,3.8,9.1,4.73"
  />
  <path
    class="cls-2"
    d="M748.84,1043.15c2.45-6.76-2.87-13.69-4.88-15.97-.17-.17-.34-.33-.51-.48,1.21-.61,2.34-1.45,2.93-2.16,1.34-1.61,1.11-4-.5-5.34-1.61-1.34-4-1.11-5.34.5-.7.84-1.43,2.45-1.76,4-1.04-.32-2.05-.39-3.19-.4.07-.44-.02-.82-.28-1.09-.54-.57-1.8-.65-3.24-.46,0-.66-.17-1.26-.61-1.18-3.11.53-8.47,2.55-12.36,6.23-.82-1.37-2.07-2.67-3.02-3.23-1.8-1.08-4.12-.49-5.2,1.3s-.49,4.12,1.3,5.2c.81.49,2.2.92,3.59,1.08-.11.22-.22.44-.32.67-.74,1.78-2.49,6.64-1.79,11.37,0,.02,0,.03,0,.05.14.92.37,1.83.73,2.72-3.9,14.76-.77,33.07,8.1,41.81,0,0,2.12,4.39,17.52,1.62,11.05-1.99,15.68-6.83,15.68-6.83,6.92-19.65-3.55-35.18-6.86-39.4Z"
  />
  <path
    class="cls-2"
    d="M730.64,1032.56c-.57.09-1.17.11-1.8.03,0,0,0,0,0,0-.12-.01-.24-.03-.36-.05-.04,0-.07-.02-.11-.02-.08-.02-.16-.03-.24-.05-.05-.01-.09-.02-.14-.04-.07-.02-.14-.04-.21-.06-.05-.02-.1-.03-.15-.05-.06-.02-.13-.04-.19-.06-.05-.02-.11-.04-.16-.06-.06-.02-.11-.04-.17-.07-.06-.02-.11-.05-.17-.07-.05-.02-.11-.05-.16-.07-.06-.03-.11-.06-.17-.09-.05-.02-.1-.05-.15-.08-.06-.03-.11-.07-.17-.1-.04-.03-.09-.05-.13-.08-.06-.04-.12-.07-.17-.11-.04-.03-.08-.05-.12-.08-.06-.04-.12-.08-.18-.13-.04-.03-.07-.05-.11-.08-.06-.05-.12-.09-.18-.14-.03-.03-.07-.05-.1-.08-.06-.05-.12-.1-.18-.16-.03-.03-.06-.05-.09-.08-.06-.06-.12-.11-.17-.17-.03-.03-.05-.05-.08-.08-.06-.06-.12-.12-.17-.19-.02-.02-.04-.05-.07-.07-.06-.07-.12-.13-.17-.2-.02-.02-.04-.04-.06-.07-.06-.07-.11-.14-.17-.22-.02-.02-.03-.04-.05-.06-.06-.08-.11-.16-.16-.23-.01-.02-.03-.04-.04-.06-.05-.08-.11-.17-.16-.25-.01-.02-.02-.03-.03-.05-.05-.09-.1-.18-.15-.27,0-.02-.02-.03-.02-.04-.05-.09-.1-.19-.14-.28,0-.01-.01-.03-.02-.04-.05-.1-.09-.2-.13-.3,0-.01,0-.02-.01-.03-.04-.1-.09-.21-.12-.31,0,0,0-.02,0-.03-.04-.11-.08-.22-.11-.33,0,0,0-.01,0-.02-.04-.11-.07-.23-.1-.34,0,0,0,0,0-.01-.03-.12-.06-.23-.09-.35,0,0,0,0,0,0-.03-.12-.05-.24-.07-.36,0,0,0,0,0,0-.02-.12-.04-.25-.06-.37h0c-.05-.39-.08-.78-.07-1.18l-2.17-1.15c-1.16-.62-1.27-2.25-.2-3.01l1.64-1.16c.93-.66,2.06-.9,3.15-.71,1.01-1.01,2.29-1.67,3.7-1.88.66-.13,1.35-.16,2.05-.07,3.95.48,6.73,4.39,6.21,8.73-.44,3.67-3.1,6.47-6.3,6.97Z"
  />
  <path
    class="cls-2"
    d="M772.49,1064.35c-.04-.2-.09-.4-.14-.6.72-1.67,1.19-3.31.41-3.59-.52-.19-1.16.15-1.79.69-1.08-1.63-2.47-3.59-4.14-5.6h0s-.03-.04-.05-.05c-1.82-2.2-3.96-4.44-6.32-6.34,0,0,0,0,0,0-6.34-5.74-12.43-9.52-17.04-11.46,0,0-4.78-1.91-10.7-2.94l.72-1.35c-.96.29-1.9.64-2.83,1.03-1.92-.24-3.9-.37-5.85-.29l2.2,2.02c-5.65,3.02-9.94,6.78-9.94,6.78-3.71,3.36-8.19,8.95-12.26,16.47,0,0,0,0,0,0-1.6,2.57-2.87,5.4-3.86,8.08,0,.02-.02.04-.03.06h0c-.9,2.45-1.56,4.77-2.04,6.66-.77-.31-1.48-.41-1.92-.06-.65.52.34,1.91,1.58,3.25.02.21.04.41.07.62-.51.42-.88.9-.93,1.28-.01.09.83.79,2.04,1.74.16.26.34.51.53.75,0,.01.02.02.02.03,3.45,4.28,17.68,12.43,20.61,11.06,3.83-1.79.33-8.15-1.91-10.03-2.85-2.39-5.29-4.88-7.38-7.33l1.17-2.5c2.27-4.74,4.4-8.11,5.19-10.48l12.4-23.31,18.77,17.23c1.54,1.97,4.66,4.44,8.38,8.16h0l1.93,1.97c-1.16,3-2.63,6.16-4.53,9.37-1.49,2.52-2.67,9.68,1.53,10.1,3.23.32,13.93-12.1,15.76-17.29,0-.01,0-.02.01-.04.1-.29.19-.59.25-.89.82-1.3,1.38-2.25,1.34-2.32-.18-.34-.68-.67-1.3-.9Z"
  />
  <path
    class="cls-2"
    d="M860.12,1029.37c3.68-6.47-.54-14.46-2.19-17.14-.15-.2-.29-.4-.44-.58,1.34-.41,2.64-1.07,3.36-1.69,1.64-1.41,1.83-3.89.42-5.53-1.41-1.64-3.89-1.83-5.53-.42-.86.73-1.89,2.25-2.49,3.77-1-.5-2.02-.76-3.19-.97.15-.44.12-.84-.1-1.16-.46-.67-1.72-.98-3.22-1.03.11-.67.05-1.31-.42-1.31-3.26,0-9.08,1.12-13.7,4.2-.59-1.54-1.64-3.08-2.51-3.82-1.64-1.41-4.12-1.22-5.53.42s-1.22,4.12.42,5.53c.74.64,2.09,1.32,3.47,1.73-.15.2-.3.41-.44.62-1.07,1.69-3.7,6.34-3.81,11.28,0,.02,0,.03,0,.05-.02.96.06,1.94.27,2.9-6.56,14.37-6.56,33.59.96,44.05,0,0,1.39,4.85,17.59,4.71,11.62-.1,17.18-4.23,17.18-4.23,10.49-18.83,2.52-36.49-.12-41.37Z"
  />
  <ellipse
    class="cls-2"
    cx="821.98"
    cy="1082.42"
    rx="8.97"
    ry="19.9"
  />
  <ellipse
    class="cls-2"
    cx="841.99"
    cy="1082.42"
    rx="8.97"
    ry="19.9"
  />
  <polygon
    class="cls-2"
    points="864.07 1039.27 868.94 1075.58 874.65 1076.46 869.38 1037 864.07 1039.27"
  />
  <path
    class="cls-2"
    d="M842.34,1022.91l20.14,15.61c1.7,1.84,5.02,4.04,9.03,7.43h0l2.09,1.8c-.91,3.09-2.11,6.36-3.73,9.71-1.27,2.63-1.86,9.87,2.37,9.93,3.24.05,12.88-13.22,14.27-18.54,0-.01,0-.03,0-.04.08-.3.14-.6.18-.9.71-1.36,1.19-2.35,1.15-2.43-.21-.33-.73-.61-1.37-.79-.05-.2-.12-.4-.19-.59.58-1.73.91-3.4.11-3.61-.54-.14-1.14.24-1.72.84-1.21-1.53-2.76-3.38-4.59-5.24h0s-.03-.03-.05-.05c-2-2.04-4.31-4.1-6.83-5.79,0,0,0,0,0,0-6.8-5.19-13.18-8.46-17.94-10,0,0-4.92-1.51-10.9-2.04l.6-1.41c-.93.37-1.84.8-2.74,1.26-1.93-.08-3.92-.04-5.85.2l2.36,1.83"
  />
  <path
    class="cls-2"
    d="M842.93,1015.9l-10.63,23.15c-.65,2.41-2.58,5.9-4.57,10.77h0l-1.02,2.56c2.24,2.32,4.81,4.66,7.8,6.88,2.35,1.74,6.21,7.89,2.49,9.9-2.85,1.54-17.53-5.77-21.23-9.83,0,0-.02-.02-.03-.03-.21-.23-.4-.47-.58-.72-1.26-.88-2.15-1.54-2.14-1.62.03-.38.37-.88.85-1.33-.04-.2-.08-.41-.11-.61-1.32-1.26-2.38-2.59-1.77-3.15.41-.37,1.13-.31,1.92-.05.36-1.92.89-4.27,1.64-6.77h0s.02-.04.02-.07c.83-2.73,1.93-5.63,3.38-8.29,0,0,0,0,0,0,3.62-7.75,7.78-13.59,11.28-17.16,0,0,3.67-3.61,8.72-6.85l-1.19-.97c.99-.1,2-.14,3.01-.15,1.67-.97,3.46-1.85,5.28-2.53l-1.25,2.72"
  />
  <path
    class="cls-2"
    d="M1163.5,1038.62c3.68-6.47-.54-14.46-2.19-17.14-.15-.2-.29-.4-.44-.58,1.34-.41,2.64-1.07,3.36-1.69,1.64-1.41,1.83-3.89.42-5.53-1.41-1.64-3.89-1.83-5.53-.42-.86.73-1.89,2.25-2.49,3.77-1-.5-2.02-.76-3.19-.97.15-.44.12-.84-.1-1.16-.46-.67-1.72-.98-3.22-1.03.11-.67.05-1.31-.42-1.31-3.26,0-9.08,1.12-13.7,4.2-.59-1.54-1.64-3.08-2.51-3.82-1.64-1.41-4.12-1.22-5.53.42-1.41,1.64-1.22,4.12.42,5.53.74.64,2.09,1.32,3.47,1.73-.15.2-.3.41-.44.62-1.07,1.69-3.7,6.34-3.81,11.28,0,.02,0,.03,0,.05-.02.96.06,1.94.27,2.9-6.56,14.37-6.56,33.59.96,44.05,0,0,1.39,4.85,17.59,4.71,11.62-.1,17.18-4.23,17.18-4.23,10.49-18.83,2.52-36.49-.12-41.37Z"
  />
  <path
    class="cls-2"
    d="M1160.82,1017.15c-.02-.12-.55-2.87-2.66-5.68-1.93-2.57-5.59-5.64-12.05-5.64s-10.15,2.87-12.13,5.28c-2.15,2.62-2.76,5.25-2.79,5.36l-.09.4,1.89.51.1-.43c.02-.09.57-2.3,2.37-4.49,2.49-3.03,6.07-4.57,10.65-4.57s8.07,1.62,10.48,4.81c1.78,2.36,2.29,4.75,2.31,4.85l.09.43,1.9-.44-.07-.4Z"
  />
  <circle
    class="cls-2"
    cx="1131.45"
    cy="1016.73"
    r="4.86"
  />
  <circle
    class="cls-2"
    cx="1160.85"
    cy="1016.73"
    r="4.86"
  />
  <path
    class="cls-2"
    d="M1153.47,1054.95l-19.51-16.38c-1.62-1.9-4.86-4.23-8.74-7.78h0l-2.02-1.88c1.03-3.05,2.36-6.27,4.11-9.56,1.37-2.58,2.24-9.79-1.98-10.02-3.24-.17-13.38,12.71-14.98,17.96,0,.01,0,.02-.01.04-.09.29-.16.59-.21.9-.76,1.34-1.28,2.31-1.24,2.38.19.33.71.64,1.34.84.05.2.1.4.16.6-.65,1.7-1.05,3.36-.25,3.6.53.16,1.15-.2,1.75-.77,1.15,1.58,2.63,3.48,4.38,5.42h0s.03.03.05.05c1.92,2.12,4.15,4.27,6.6,6.05,0,0,0,0,0,0,6.59,5.45,12.84,8.96,17.53,10.69,0,0,4.86,1.7,10.81,2.46l-.66,1.38c.94-.34,1.87-.73,2.79-1.15,1.93.16,3.91.2,5.85.03l-2.29-1.92"
  />
  <path
    class="cls-2"
    d="M1138.54,1054.95l19.51-16.38c1.62-1.9,4.86-4.23,8.74-7.78h0l2.02-1.88c-1.03-3.05-2.36-6.27-4.11-9.56-1.37-2.58-2.24-9.79,1.98-10.02,3.24-.17,13.38,12.71,14.98,17.96,0,.01,0,.02.01.04.09.29.16.59.21.9.76,1.34,1.28,2.31,1.24,2.38-.19.33-.71.64-1.34.84-.05.2-.1.4-.16.6.65,1.7,1.05,3.36.25,3.6-.53.16-1.15-.2-1.75-.77-1.15,1.58-2.63,3.48-4.38,5.42h0s-.03.03-.05.05c-1.92,2.12-4.15,4.27-6.6,6.05,0,0,0,0,0,0-6.59,5.45-12.84,8.96-17.53,10.69,0,0-4.86,1.7-10.81,2.46l.66,1.38c-.94-.34-1.87-.73-2.79-1.15-1.93.16-3.91.2-5.85.03l2.29-1.92"
  />
  <path
    class="cls-2"
    d="M1270,1056.47c4.71-5.44,2.22-13.81,1.16-16.66-.1-.22-.2-.43-.3-.63,1.35-.13,2.7-.52,3.5-.97,1.82-1.03,2.47-3.34,1.44-5.16-1.03-1.82-3.34-2.47-5.16-1.44-.95.54-2.22,1.78-3.07,3.11-.85-.67-1.77-1.1-2.84-1.52.22-.39.28-.77.13-1.12-.31-.72-1.45-1.25-2.86-1.59.23-.61.3-1.24-.15-1.32-3.09-.62-8.82-.65-13.77,1.4-.27-1.57-.98-3.23-1.66-4.1-1.29-1.65-3.67-1.94-5.32-.64-1.65,1.29-1.94,3.67-.64,5.32.58.74,1.73,1.64,2.96,2.29-.18.16-.36.33-.54.51-1.33,1.4-4.7,5.31-5.74,9.98,0,.02,0,.03-.01.05-.2.91-.31,1.85-.29,2.8-8.93,12.38-12.55,30.61-7.4,41.94,0,0,.4,4.86,15.78,7.78,11.03,2.1,17.09-.77,17.09-.77,13.5-15.87,9.27-34.12,7.69-39.24Z"
  />
  <path
    class="cls-2"
    d="M1285.66,1081.87c0-.21,0-.41-.02-.62,1.04-1.5,1.82-3.01,1.11-3.44-.48-.29-1.17-.08-1.89.33-.73-1.81-1.71-4.01-2.95-6.31h0s-.02-.04-.04-.06c-1.35-2.52-3-5.14-4.95-7.46,0,0,0,0,0,0-5.08-6.88-10.31-11.79-14.44-14.6,0,0-4.31-2.82-9.9-4.99l.97-1.18c-.99.1-1.99.25-2.98.45-1.83-.62-3.75-1.13-5.67-1.44l1.76,2.42c-6.14,1.85-11.08,4.68-11.08,4.68-4.3,2.56-9.8,7.16-15.28,13.73,0,0,0,0,0,0-2.08,2.2-3.88,4.72-5.38,7.16-.01.02-.03.04-.04.06h0c-1.37,2.23-2.48,4.37-3.31,6.13-.7-.45-1.37-.69-1.87-.44-.74.38-.05,1.94.91,3.5-.02.21-.04.41-.05.62-.59.31-1.04.71-1.17,1.07-.03.08.66.94,1.65,2.11.11.29.23.57.37.84,0,.01.01.02.02.03,2.54,4.87,14.87,15.68,18.02,14.91,4.1-1,1.93-7.93.11-10.21-2.32-2.91-4.22-5.83-5.79-8.64l1.64-2.22c3.16-4.2,5.91-7.08,7.16-9.25l16.76-20.4,14.99,20.6c1.12,2.24,3.7,5.27,6.61,9.65h0l1.5,2.31c-1.73,2.72-3.8,5.52-6.29,8.29-1.96,2.17-4.53,8.96-.49,10.2,3.1.95,16.05-9.11,18.87-13.83,0-.01.01-.02.02-.03.16-.26.3-.54.42-.82,1.06-1.11,1.8-1.93,1.78-2.01-.11-.37-.53-.79-1.1-1.14Z"
  />
  <path
    class="cls-1"
    d="M1329.24,1168.75l-67.77,10.46h-8.53l-48.53,9.58s-11.2-1.04-4.53-5.04c6.67-4,19.47-7.47,19.47-7.47l28.8-8.53s19.47,4,28.53,2.4l37.6-2.4-3.73-4.27s5.98,1.03,8.74,1.63c2.8.61,7.07,2.87,7.07,2.87l2.89.77Z"
  />
  <path
    class="cls-1"
    d="M1334.64,1170.81l-76.91,16.67h-5.91l-30.89,8.27s20.8,8,37.07,2.93c16.27-5.07,8.97-7.78,19.55-9.89,10.58-2.11,23.91-2.21,23.91-2.21l-3.2-3.64,44.05-9.18s-6.25-2.34-7.67-2.96Z"
  />
  <polygon
    class="cls-2"
    points="693.71 1087.79 681.6 1083.34 681.6 1152.09 693.71 1152.09 693.71 1087.79"
  />
  <polygon
    class="cls-2"
    points="1102.47 1066.51 1090.37 1062.06 1090.37 1130.81 1102.47 1130.81 1102.47 1066.51"
  />
  <polygon
    class="cls-2"
    points="1298.14 1090.81 1286.03 1086.36 1286.03 1155.11 1298.14 1155.11 1298.14 1090.81"
  />
  <polygon
    class="cls-2"
    points="1203.8 1072.84 1191.69 1068.39 1191.69 1137.15 1203.8 1137.15 1203.8 1072.84"
  />
  <polygon
    class="cls-2"
    points="903.33 1066.51 891.22 1062.06 891.22 1130.81 903.33 1130.81 903.33 1066.51"
  />
  <rect
    class="cls-2"
    x="686.03"
    y="1086.64"
    width="98.58"
    height="9.98"
    transform="translate(-253.33 222.77) rotate(-14.73)"
  />
  <polygon
    class="cls-2"
    points="921.34 1070.84 791.19 1073.75 791.67 1083.72 921.82 1080.81 923.28 1076.46 917.55 1073.59 921.34 1070.84"
  />
  <rect
    class="cls-2"
    x="686.03"
    y="1111.66"
    width="98.58"
    height="9.98"
    transform="translate(-259.69 223.59) rotate(-14.73)"
  />
  <polygon
    class="cls-2"
    points="921.05 1095.87 790.9 1098.78 791.38 1108.75 921.53 1105.84 917.15 1103.33 922.62 1101.06 921.05 1095.87"
  />
  <rect
    class="cls-2"
    x="1196.33"
    y="1092.03"
    width="98.58"
    height="9.98"
    transform="translate(2171.49 2474.64) rotate(-165.27)"
  />
  <polygon
    class="cls-2"
    points="1074.22 1076.74 1193.88 1079.15 1193.4 1089.12 1073.75 1086.71 1077.28 1082.93 1073.28 1079.99 1074.22 1076.74"
  />
  <rect
    class="cls-2"
    x="1196.33"
    y="1117.05"
    width="98.58"
    height="9.98"
    transform="translate(2165.13 2523.85) rotate(-165.27)"
  />
  <polygon
    class="cls-2"
    points="1074.39 1101.77 1194.05 1104.18 1193.58 1114.15 1073.92 1111.74 1071.82 1109.33 1077.82 1104.53 1074.39 1101.77"
  />
  <ellipse
    class="cls-2"
    cx="717.47"
    cy="1101.77"
    rx="8.97"
    ry="19.9"
  />
  <ellipse
    class="cls-2"
    cx="737.13"
    cy="1098.77"
    rx="8.97"
    ry="19.9"
  />
  <ellipse
    class="cls-2"
    cx="1138.04"
    cy="1091.29"
    rx="8.97"
    ry="19.9"
  />
  <ellipse
    class="cls-2"
    cx="1157.7"
    cy="1088.29"
    rx="8.97"
    ry="19.9"
  />
  <ellipse
    class="cls-2"
    cx="1263.14"
    cy="1106.28"
    rx="8.97"
    ry="19.9"
  />
  <ellipse
    class="cls-2"
    cx="1246.41"
    cy="1103.27"
    rx="8.97"
    ry="19.9"
  />
  <path
    class="cls-1"
    d="M688.74,1168.04c2.37,1.62,4.67,3.43,7.36,4.43,2.52.94,5.25,1.12,7.9,1.61,10.98,2.03,21.55,9.45,32.37,6.7,5.04-1.28,9.56-4.73,14.77-4.79,8.28-.1,13.98,8,21.2,12.05,7.3,4.09,16.14,3.93,24.51,3.82,12.19-.16,24.57.04,36.28,3.41,9.68,2.79,18.6,7.66,27.99,11.32,19.92,7.76,41.98,9.91,63.02,6.15,1.4-.25,2.86-.56,3.95-1.46,1.27-1.06,1.82-2.74,2.2-4.34,4.13-17.18-3.17-35.37-.05-52.76.63-3.54,1.7-7.05,1.59-10.65-.12-3.6-1.73-7.44-5.01-8.93-1.48-.67-3.15-.8-4.77-.92-16.5-1.13-24.23-4.78-40.76-4.1-3.76.15-9.42.49-13.17.21-2.85-.21-11.34-2.32-14.18-2.65-4.84-.58-9.79,1.13-14.64.73-9.74-.81-23.49-1.47-32.8-1.77-8.26-.27-14.06.53-22.18,2.08-5.01.95-11.63,1.64-16.62,2.65-19.68,3.98-14.8-2.83-39.52,6.31-8.86,3.28-16.12,9.39-21.94,11.2-6.36,1.97-11.34,4.01-18,3.86-4.69-.11-19.74.83-21.4,6.13,7.58,3.09,14.99,4.98,21.92,9.73Z"
  />
  <path
    class="cls-2"
    d="M895.83,1136.11c8.38,12.54,16.8,25.14,26.92,36.32.87.96,10.62,12.1,11.74,12.76,2.54,1.5-3.15-9.01-.22-9.39.85-2.68-.92-5.41-2.6-7.67-7.91-10.63-15.82-21.26-23.73-31.89-1.26-1.69-2.88-5.51-4.61-6.72-2.1-1.46-8.69-2.64-11.25-1.58-3,1.24,2.38,6.11,3.75,8.16Z"
  />
  <path
    class="cls-2"
    d="M799.45,1148.23c3.23,3.55,6.31,7.24,9.5,10.83,5.19,5.84,10.66,11.42,16.14,16.99,8.44,8.59,16.87,17.18,25.31,25.77,5.49,5.59,12.08,11.61,19.88,10.95-1.31-3.43-3.07-6.69-5.21-9.68-2.38-3.32-5.22-6.28-8.05-9.23-9.95-10.38-19.9-20.76-29.85-31.14-7.89-8.23-15.78-16.47-23.67-24.7-3.12-3.26-8.51-6.36-12.59-8.28-3.37-1.59-8.47-2.48-10.72,1.08,6.07,6.14,13.42,10.98,19.27,17.42Z"
  />
  <path
    class="cls-2"
    d="M720.54,1186.73c-5.03,1.4-10.91,2.66-15.07-.49-2.44-1.85-3.68-4.82-4.93-7.61-4.57-10.27-10.49-19.94-17.56-28.68,4.95-.03,7.52-3.42,11.2-.34,3.7,3.09,6.67,8.56,9.52,12.43,1.64,2.22,15.94,24.94,16.83,24.69Z"
  />
  <path
    class="cls-2"
    d="M729.8,1174.88c18.51-5.64,37.03-11.27,55.54-16.91,5.2-1.58,10.42-3.17,15.8-3.88,10.39-1.37,20.89.58,31.29,1.86,23.04,2.84,46.33,2.4,69.54,2.16,3.99-.04,8.05-.07,11.85,1.15,3.8,1.21,7.35,3.9,8.55,7.7-28.14-1.96-56.37-2.47-84.56-1.55-4.01.13-8.04.29-12.02-.2-4.11-.51-8.14-1.72-12.28-1.9-5-.22-9.94,1.05-14.78,2.31-20.67,5.38-41.33,10.76-62,16.14-4.25,1.11-8.58,2.22-12.97,2.04-3.74-.16-9.74-1.62-11.08-5.46,5.84-.9,11.38-1.71,17.11-3.45Z"
  />
  <path
    class="cls-1"
    d="M1059.75,1149.58c-.13-1.12-.27-2.29.12-3.35.39-1.07,1.26-1.9,2.16-2.59,8.2-6.31,15.69-11.7,26.03-11.54,23.65.35,49.38-9.31,72.79-5.95,8.58,1.23,15.66,2.91,24.23,4.26,8.77,1.38,16.38,1.08,25.21,2.02,8.83.94,19.07,2.02,25.95,7.64,2.27,1.85,8.34,6.7,11.03,7.86,6.01,2.59,9.96,1.39,17.31-.96.55,1.88-1.85,3.85-3.59,2.94.21,2.18,3.2,2.56,5.39,2.39,2.19-.17,5.22.5,5.13,2.69-.06,1.4-1.49,2.3-2.79,2.83-14.46,5.93-30.54-2.48-46.15-3.07-8.83-.33-17.55,1.88-25.94,4.64-21.58,7.11-41.78,17.95-63.37,25-21.6,7.05-45.71,10.07-66.7,1.36-8.04-3.34-10.49-7.42-9.64-15.3,1.01-9.41,3.92-11.5,2.83-20.87Z"
  />
  <path
    class="cls-2"
    d="M1097.33,1135.55c-9.67,13.56-19.39,27.18-31.06,39.28-1,1.04-12.26,13.09-13.54,13.8-2.93,1.62,3.63-9.74.25-10.15-.98-2.89,1.06-5.85,3-8.29,9.13-11.49,25.26-28.82,34.39-40.32,1.45-1.83,0,0,1.92-1.78,2.12-1.97,4.5-.99,7.46.16,3.46,1.34-.83,5.08-2.41,7.3Z"
  />
  <path
    class="cls-2"
    d="M1183.98,1150.12c-3.23,3.55-6.31,7.24-9.5,10.83-5.19,5.84-10.66,11.42-16.14,16.99-8.44,8.59-16.87,17.18-25.31,25.77-5.49,5.59-12.08,11.61-19.88,10.95,1.31-3.43,3.07-6.69,5.21-9.68,2.38-3.32,5.22-6.28,8.05-9.23,9.95-10.38,19.9-20.76,29.85-31.14,7.89-8.23,15.78-16.47,23.67-24.7,3.12-3.26,6.34-6.59,10.43-8.51,3.37-1.59,10.09-2.74,12.35.83-6.07,6.14-12.88,11.46-18.73,17.9Z"
  />
  <path
    class="cls-2"
    d="M1220.33,1161.15c-18.51-5.64-11.92-2.79-30.43-8.42-5.2-1.58-10.42-3.17-15.8-3.88-10.39-1.37-20.89.58-31.29,1.86-23.04,2.84-46.33,2.4-69.54,2.16-3.99-.04-8.05-.07-11.85,1.15s-7.35,3.9-8.55,7.7c28.14-1.96,56.37-2.47,84.56-1.55,4.01.13,8.04.29,12.02-.2,4.11-.51,8.14-1.72,12.28-1.9,5-.22,9.94,1.05,14.78,2.31,20.67,5.38,16.23,2.28,36.89,7.66,4.25,1.11,8.58,2.22,12.97,2.04,3.74-.16,9.74-1.62,11.08-5.46-5.84-.9-11.38-1.71-17.11-3.45Z"
  />
  <path
    class="cls-2"
    d="M792.63,1159.75c18.7-5.18,38.26-6.2,57.64-7.19,27.14-1.38,58.42-1.09,76.03,19.61,4.74,5.57,8.07,12.26,13.08,17.59,15.07,16.02,40.21,15.53,62.14,13.87,15.86-1.2,31.85-2.42,47.13-6.84,7.4-2.14,14.59-5.02,22.06-6.9,19.1-4.81,39.85-2.81,57.67,5.58,19.11,8.99,35.62,27.88,33.84,48.93-1.3,15.41-12.28,28.77-25.71,36.43-13.43,7.66-29.07,10.43-44.46,11.91-49.33,4.75-98.94-2.38-147.98-9.5-24.65-3.58-49.42-7.18-73.27-14.36-26.72-8.04-51.89-20.45-76.91-32.8-15.62-7.71-41.39-19.54-47.08-37.92-6.24-20.12,29.77-33.96,45.81-38.4Z"
  />
  <path
    class="cls-2"
    d="M1175.41,1156.75c-18.7-5.18-39.27-3.19-58.64-4.18-27.14-1.38-58.42-1.09-76.03,19.61-4.74,5.57-8.07,12.26-13.08,17.59-15.07,16.02-40.21,15.53-62.14,13.87-15.86-1.2-31.85-2.42-47.13-6.84-7.4-2.14-14.59-5.02-22.06-6.9-19.1-4.81-39.85-2.81-57.67,5.58-19.11,8.99-35.62,27.88-33.84,48.93,1.3,15.41,12.28,28.77,25.71,36.43,13.43,7.66,29.07,10.43,44.46,11.91,49.33,4.75,98.94-2.38,147.98-9.5,24.65-3.58,49.42-7.18,73.27-14.36,26.72-8.04,51.89-20.45,76.91-32.8,15.62-7.71,41.39-19.54,47.08-37.92,6.24-20.12-28.77-36.96-44.81-41.41Z"
  />
  <polygon
    class="cls-2"
    points="792.29 1066.51 780.18 1062.06 780.18 1130.81 792.29 1130.81 792.29 1066.51"
  />
</svg>
