<?xml version="1.0" encoding="UTF-8"?>
<svg
  id="Capa_1"
  xmlns="http://www.w3.org/2000/svg"
  version="1.1"
  viewBox="0 0 60 40"
>
  <!-- Generator: Adobe Illustrator 29.0.0, SVG Export Plug-In . SVG Version: 2.1.0 Build 186)  -->
  <defs>
    <style>
      .st0 {
        fill: #fff;
        isolation: isolate;
      }
    </style>
  </defs>
  <path
    class="st0"
    d="M24.2,3C11.5,3,1.2,13.3,1.2,26s0,.2,0,.3c0,.2,0,.3,0,.5,0,5.9,4.8,10.7,10.7,10.7s10.7-4.8,10.7-10.7-4.8-10.7-10.7-10.7-3.9.6-5.5,1.5c3.2-6.7,10-11.4,17.8-11.4.9,0,1.6-.7,1.6-1.6s11.1-1.6-1.6-1.6Z"
  />
  <path
    class="st0"
    d="M52.7,3c-12.7,0-23,10.3-23,23s0,.2,0,.3c0,.2,0,.3,0,.5,0,5.9,4.8,10.7,10.7,10.7s10.7-4.8,10.7-10.7-4.8-10.7-10.7-10.7-3.9.6-5.5,1.5c3.2-6.7,10-11.4,17.8-11.4.9,0,1.6-.7,1.6-1.6s11.1-1.6-1.6-1.6Z"
  />
</svg>
